  0
SECTION
  2
HEADER
  0
ENDSEC
  0
SECTION
  2
BLOCKS
  0
BLOCK
  8
0
  2
BUY-383100-JF-BIG-T-SH-01_48
 70
64
 10
0.0000
 20
0.0000
  0
TEXT
  8
1
 10
23.1587
 20
27.8974
 40
0.250
 50
0.0000
  1
Piece Name: BUY-383100-JF-BIG-T-SH-01
  7
STANDARD
  0
TEXT
  8
1
 10
23.1587
 20
28.0374
 40
0.250
 50
0.0000
  1
Quantity: 1,0
  7
STANDARD
  0
TEXT
  8
1
 10
23.1587
 20
28.1774
 40
0.250
 50
0.0000
  1
ANNOTATION: F
  7
STANDARD
  0
TEXT
  8
1
 10
23.1587
 20
28.3174
 40
0.250
 50
0.0000
  1
CATEGORY: 1
  7
STANDARD
  0
TEXT
  8
1
 10
23.1587
 20
28.4574
 40
0.250
 50
0.0000
  1
SIZE: 48
  7
STANDARD
  0
POLYLINE
  8
1
 66
1
 70
0
  0
VERTEX
  8
1
 10
38.4125
 20
19.4379
  0
VERTEX
  8
1
 10
38.3262
 20
19.4361
  0
VERTEX
  8
1
 10
37.5055
 20
19.4540
  0
VERTEX
  8
1
 10
36.7222
 20
19.4910
  0
VERTEX
  8
1
 10
35.6024
 20
19.5723
  0
VERTEX
  8
1
 10
34.4395
 20
19.6850
  0
VERTEX
  8
1
 10
33.1341
 20
19.8390
  0
VERTEX
  8
1
 10
30.8693
 20
20.1310
  0
VERTEX
  8
1
 10
27.4745
 20
20.5886
  0
VERTEX
  8
1
 10
24.8938
 20
20.9023
  0
VERTEX
  8
1
 10
22.7184
 20
21.1252
  0
VERTEX
  8
1
 10
20.5406
 20
21.3231
  0
VERTEX
  8
1
 10
18.1657
 20
21.4988
  0
VERTEX
  8
1
 10
14.6016
 20
21.7390
  0
VERTEX
  8
1
 10
11.0358
 20
21.9617
  0
VERTEX
  8
1
 10
7.9034
 20
22.1012
  0
VERTEX
  8
1
 10
4.7698
 20
22.2120
  0
VERTEX
  8
1
 10
1.5750
 20
22.2934
  0
VERTEX
  8
1
 10
0.0000
 20
22.2529
  0
SEQEND
  8
1
  0
POLYLINE
  8
84
 66
1
 70
0
  0
VERTEX
  8
84
 10
38.4125
 20
19.4379
  0
VERTEX
  8
84
 10
38.3262
 20
19.4361
  0
VERTEX
  8
84
 10
37.5055
 20
19.4540
  0
VERTEX
  8
84
 10
36.7222
 20
19.4910
  0
VERTEX
  8
84
 10
35.6024
 20
19.5723
  0
VERTEX
  8
84
 10
34.4395
 20
19.6850
  0
VERTEX
  8
84
 10
33.1341
 20
19.8390
  0
VERTEX
  8
84
 10
30.8693
 20
20.1310
  0
VERTEX
  8
84
 10
27.4745
 20
20.5886
  0
VERTEX
  8
84
 10
24.8938
 20
20.9023
  0
VERTEX
  8
84
 10
22.7184
 20
21.1252
  0
VERTEX
  8
84
 10
20.5406
 20
21.3231
  0
VERTEX
  8
84
 10
18.1657
 20
21.4988
  0
VERTEX
  8
84
 10
14.6016
 20
21.7390
  0
VERTEX
  8
84
 10
11.0358
 20
21.9617
  0
VERTEX
  8
84
 10
7.9034
 20
22.1012
  0
VERTEX
  8
84
 10
4.7698
 20
22.2120
  0
VERTEX
  8
84
 10
1.5750
 20
22.2934
  0
VERTEX
  8
84
 10
0.0000
 20
22.2529
  0
SEQEND
  8
84
  0
POINT
  8
2
 10
38.4125
 20
19.4379
  0
POINT
  8
4
 10
38.3262
 20
19.4361
 30
0.1181
 39
0.1771
  0
POINT
  8
3
 10
38.3262
 20
19.4361
  0
POINT
  8
3
 10
37.5055
 20
19.4540
  0
POINT
  8
3
 10
36.7222
 20
19.4910
  0
POINT
  8
3
 10
35.6024
 20
19.5723
  0
POINT
  8
3
 10
34.4395
 20
19.6850
  0
POINT
  8
4
 10
33.1341
 20
19.8390
 30
0.1181
 39
0.1771
  0
POINT
  8
3
 10
33.1341
 20
19.8390
  0
POINT
  8
3
 10
30.8693
 20
20.1310
  0
POINT
  8
3
 10
27.4745
 20
20.5886
  0
POINT
  8
3
 10
24.8938
 20
20.9023
  0
POINT
  8
3
 10
22.7184
 20
21.1252
  0
POINT
  8
4
 10
20.5406
 20
21.3231
 30
0.1181
 39
0.1771
  0
POINT
  8
3
 10
20.5406
 20
21.3231
  0
POINT
  8
3
 10
18.1657
 20
21.4988
  0
POINT
  8
3
 10
14.6016
 20
21.7390
  0
POINT
  8
3
 10
11.0358
 20
21.9617
  0
POINT
  8
3
 10
7.9034
 20
22.1012
  0
POINT
  8
3
 10
4.7698
 20
22.2120
  0
POINT
  8
4
 10
1.5750
 20
22.2934
 30
0.1181
 39
0.1771
  0
POINT
  8
2
 10
1.5750
 20
22.2934
  0
POINT
  8
2
 10
0.0000
 20
22.2529
  0
POLYLINE
  8
1
 66
1
 70
0
  0
VERTEX
  8
1
 10
0.0000
 20
22.2529
  0
VERTEX
  8
1
 10
0.0000
 20
22.7529
  0
VERTEX
  8
1
 10
0.0000
 20
27.6991
  0
VERTEX
  8
1
 10
0.0000
 20
32.6452
  0
VERTEX
  8
1
 10
0.0000
 20
33.1452
  0
SEQEND
  8
1
  0
POLYLINE
  8
84
 66
1
 70
0
  0
VERTEX
  8
84
 10
0.0000
 20
22.2529
  0
VERTEX
  8
84
 10
0.0000
 20
22.7529
  0
VERTEX
  8
84
 10
0.0000
 20
27.6991
  0
VERTEX
  8
84
 10
0.0000
 20
32.6452
  0
VERTEX
  8
84
 10
0.0000
 20
33.1452
  0
SEQEND
  8
84
  0
POINT
  8
2
 10
0.0000
 20
22.2529
  0
POINT
  8
4
 10
0.0000
 20
22.7529
 30
0.1181
 39
0.1771
  0
POINT
  8
3
 10
0.0000
 20
22.7529
  0
POINT
  8
81
 10
0.0000
 20
27.6991
 30
-0.3937
 39
1.9685
  0
POINT
  8
3
 10
0.0000
 20
27.6991
  0
POINT
  8
4
 10
0.0000
 20
32.6452
 30
0.1181
 39
0.1771
  0
POINT
  8
3
 10
0.0000
 20
32.6452
  0
POINT
  8
2
 10
0.0000
 20
33.1452
  0
POLYLINE
  8
1
 66
1
 70
0
  0
VERTEX
  8
1
 10
0.0000
 20
33.1452
  0
VERTEX
  8
1
 10
1.5750
 20
33.1048
  0
VERTEX
  8
1
 10
4.7698
 20
33.1862
  0
VERTEX
  8
1
 10
7.9034
 20
33.2970
  0
VERTEX
  8
1
 10
11.0358
 20
33.4365
  0
VERTEX
  8
1
 10
14.6016
 20
33.6592
  0
VERTEX
  8
1
 10
18.1657
 20
33.8994
  0
VERTEX
  8
1
 10
20.5408
 20
34.0752
  0
VERTEX
  8
1
 10
22.7184
 20
34.2730
  0
VERTEX
  8
1
 10
24.9374
 20
34.5560
  0
VERTEX
  8
1
 10
27.1475
 20
34.9007
  0
VERTEX
  8
1
 10
29.2515
 20
35.3368
  0
VERTEX
  8
1
 10
31.4744
 20
35.8418
  0
VERTEX
  8
1
 10
33.6946
 20
36.3587
  0
SEQEND
  8
1
  0
POLYLINE
  8
84
 66
1
 70
0
  0
VERTEX
  8
84
 10
0.0000
 20
33.1452
  0
VERTEX
  8
84
 10
1.5750
 20
33.1048
  0
VERTEX
  8
84
 10
4.7698
 20
33.1862
  0
VERTEX
  8
84
 10
7.9034
 20
33.2970
  0
VERTEX
  8
84
 10
11.0358
 20
33.4365
  0
VERTEX
  8
84
 10
14.6016
 20
33.6592
  0
VERTEX
  8
84
 10
18.1657
 20
33.8994
  0
VERTEX
  8
84
 10
20.5408
 20
34.0752
  0
VERTEX
  8
84
 10
21.6302
 20
34.1670
  0
VERTEX
  8
84
 10
22.7184
 20
34.2730
  0
VERTEX
  8
84
 10
23.8289
 20
34.4058
  0
VERTEX
  8
84
 10
24.9374
 20
34.5560
  0
VERTEX
  8
84
 10
26.0441
 20
34.7179
  0
VERTEX
  8
84
 10
27.1475
 20
34.9007
  0
VERTEX
  8
84
 10
28.2012
 20
35.1099
  0
VERTEX
  8
84
 10
29.2515
 20
35.3368
  0
VERTEX
  8
84
 10
31.4744
 20
35.8418
  0
VERTEX
  8
84
 10
33.6946
 20
36.3587
  0
SEQEND
  8
84
  0
POINT
  8
2
 10
0.0000
 20
33.1452
  0
POINT
  8
4
 10
1.5750
 20
33.1048
 30
0.1181
 39
0.1771
  0
POINT
  8
2
 10
1.5750
 20
33.1048
  0
POINT
  8
3
 10
4.7698
 20
33.1862
  0
POINT
  8
3
 10
7.9034
 20
33.2970
  0
POINT
  8
3
 10
11.0358
 20
33.4365
  0
POINT
  8
3
 10
14.6016
 20
33.6592
  0
POINT
  8
3
 10
18.1657
 20
33.8994
  0
POINT
  8
4
 10
20.5408
 20
34.0752
 30
0.1181
 39
0.1771
  0
POINT
  8
3
 10
20.5408
 20
34.0752
  0
POINT
  8
3
 10
22.7184
 20
34.2730
  0
POINT
  8
3
 10
24.9374
 20
34.5560
  0
POINT
  8
3
 10
27.1475
 20
34.9007
  0
POINT
  8
3
 10
29.2515
 20
35.3368
  0
POINT
  8
3
 10
31.4744
 20
35.8418
  0
POINT
  8
2
 10
33.6946
 20
36.3587
  0
POLYLINE
  8
1
 66
1
 70
0
  0
VERTEX
  8
1
 10
33.6946
 20
36.3587
  0
VERTEX
  8
1
 10
33.9386
 20
35.9021
  0
VERTEX
  8
1
 10
34.0948
 20
35.6098
  0
VERTEX
  8
1
 10
34.2758
 20
35.2996
  0
VERTEX
  8
1
 10
34.4431
 20
35.0567
  0
VERTEX
  8
1
 10
34.6284
 20
34.8279
  0
VERTEX
  8
1
 10
34.7998
 20
34.6765
  0
VERTEX
  8
1
 10
34.9874
 20
34.5403
  0
VERTEX
  8
1
 10
35.2112
 20
34.4230
  0
VERTEX
  8
1
 10
35.4350
 20
34.3364
  0
VERTEX
  8
1
 10
35.6689
 20
34.2763
  0
VERTEX
  8
1
 10
35.9158
 20
34.2367
  0
VERTEX
  8
1
 10
46.0070
 20
33.4678
  0
SEQEND
  8
1
  0
POLYLINE
  8
84
 66
1
 70
0
  0
VERTEX
  8
84
 10
33.6946
 20
36.3587
  0
VERTEX
  8
84
 10
33.9386
 20
35.9021
  0
VERTEX
  8
84
 10
34.0948
 20
35.6098
  0
VERTEX
  8
84
 10
34.2758
 20
35.2996
  0
VERTEX
  8
84
 10
34.4431
 20
35.0567
  0
VERTEX
  8
84
 10
34.6284
 20
34.8279
  0
VERTEX
  8
84
 10
34.7998
 20
34.6765
  0
VERTEX
  8
84
 10
34.9874
 20
34.5403
  0
VERTEX
  8
84
 10
35.2112
 20
34.4230
  0
VERTEX
  8
84
 10
35.4350
 20
34.3364
  0
VERTEX
  8
84
 10
35.6689
 20
34.2763
  0
VERTEX
  8
84
 10
35.9158
 20
34.2367
  0
VERTEX
  8
84
 10
46.0070
 20
33.4678
  0
SEQEND
  8
84
  0
POINT
  8
2
 10
33.6946
 20
36.3587
  0
POINT
  8
4
 10
33.9386
 20
35.9021
 30
0.1181
 39
0.1771
 50
-166.8907
  0
POINT
  8
3
 10
33.9386
 20
35.9021
  0
POINT
  8
3
 10
34.0948
 20
35.6098
  0
POINT
  8
3
 10
34.2758
 20
35.2996
  0
POINT
  8
3
 10
34.4431
 20
35.0567
  0
POINT
  8
3
 10
34.6284
 20
34.8279
  0
POINT
  8
3
 10
34.7998
 20
34.6765
  0
POINT
  8
3
 10
34.9874
 20
34.5403
  0
POINT
  8
3
 10
35.2112
 20
34.4230
  0
POINT
  8
3
 10
35.4350
 20
34.3364
  0
POINT
  8
4
 10
35.6689
 20
34.2763
 30
0.1181
 39
0.1771
  0
POINT
  8
3
 10
35.6689
 20
34.2763
  0
POINT
  8
2
 10
35.9158
 20
34.2367
  0
POINT
  8
2
 10
46.0070
 20
33.4678
  0
POLYLINE
  8
1
 66
1
 70
0
  0
VERTEX
  8
1
 10
46.0070
 20
33.4678
  0
VERTEX
  8
1
 10
45.9176
 20
32.0600
  0
VERTEX
  8
1
 10
45.8520
 20
30.6961
  0
VERTEX
  8
1
 10
45.8397
 20
29.5908
  0
VERTEX
  8
1
 10
45.8690
 20
28.4386
  0
VERTEX
  8
1
 10
45.9166
 20
27.0934
  0
VERTEX
  8
1
 10
46.0119
 20
25.4019
  0
VERTEX
  8
1
 10
46.1329
 20
23.9777
  0
VERTEX
  8
1
 10
46.2629
 20
22.7491
  0
VERTEX
  8
1
 10
46.2629
 20
22.7491
  0
VERTEX
  8
1
 10
46.3174
 20
22.2386
  0
SEQEND
  8
1
  0
POLYLINE
  8
84
 66
1
 70
0
  0
VERTEX
  8
84
 10
46.0070
 20
33.4678
  0
VERTEX
  8
84
 10
45.9176
 20
32.0600
  0
VERTEX
  8
84
 10
45.8520
 20
30.6961
  0
VERTEX
  8
84
 10
45.8397
 20
29.5908
  0
VERTEX
  8
84
 10
45.8690
 20
28.4386
  0
VERTEX
  8
84
 10
45.9166
 20
27.0934
  0
VERTEX
  8
84
 10
46.0119
 20
25.4019
  0
VERTEX
  8
84
 10
46.1329
 20
23.9777
  0
VERTEX
  8
84
 10
46.2629
 20
22.7491
  0
VERTEX
  8
84
 10
46.2629
 20
22.7491
  0
VERTEX
  8
84
 10
46.3174
 20
22.2386
  0
SEQEND
  8
84
  0
POINT
  8
2
 10
46.0070
 20
33.4678
  0
POINT
  8
3
 10
45.9176
 20
32.0600
  0
POINT
  8
3
 10
45.8520
 20
30.6961
  0
POINT
  8
3
 10
45.8397
 20
29.5908
  0
POINT
  8
3
 10
45.8690
 20
28.4386
  0
POINT
  8
4
 10
45.9166
 20
27.0934
 30
0.1181
 39
0.1771
  0
POINT
  8
3
 10
45.9166
 20
27.0934
  0
POINT
  8
3
 10
46.0119
 20
25.4019
  0
POINT
  8
3
 10
46.1329
 20
23.9777
  0
POINT
  8
2
 10
46.2629
 20
22.7491
  0
POINT
  8
4
 10
46.2629
 20
22.7491
 30
0.1181
 39
0.1771
 50
-161.0414
  0
POINT
  8
2
 10
46.2629
 20
22.7491
  0
POINT
  8
2
 10
46.3174
 20
22.2386
  0
POLYLINE
  8
1
 66
1
 70
0
  0
VERTEX
  8
1
 10
46.3174
 20
22.2386
  0
VERTEX
  8
1
 10
38.4125
 20
19.4379
  0
SEQEND
  8
1
  0
POLYLINE
  8
84
 66
1
 70
0
  0
VERTEX
  8
84
 10
46.3174
 20
22.2386
  0
VERTEX
  8
84
 10
38.4125
 20
19.4379
  0
SEQEND
  8
84
  0
POINT
  8
2
 10
46.3174
 20
22.2386
  0
POINT
  8
2
 10
38.4125
 20
19.4379
  0
LINE
  8
7
 10
9.3963
 20
27.6991
 11
29.9667
 21
27.6991
  0
LINE
  8
5
 10
9.3963
 20
27.6991
 11
29.9667
 21
27.6991
  0
POINT
  8
2
 10
9.3963
 20
27.6991
  0
POINT
  8
2
 10
29.9667
 20
27.6991
  0
LINE
  8
8
 10
20.5401
 20
33.5741
 11
20.5511
 21
21.8235
  0
POLYLINE
  8
85
 66
1
 70
0
  0
VERTEX
  8
85
 10
20.5401
 20
33.5741
  0
VERTEX
  8
85
 10
20.5511
 20
21.8235
  0
SEQEND
  8
85
  0
TEXT
  8
8
 10
20.5401
 20
33.5741
 40
0.250
 50
0.0000
  1
NM
  7
STANDARD
  0
TEXT
  8
85
 10
20.5401
 20
33.5741
 40
0.250
 50
0.0000
  1
NM
  7
STANDARD
  0
POINT
  8
2
 10
20.5401
 20
33.5741
  0
POINT
  8
2
 10
20.5511
 20
21.8235
  0
LINE
  8
8
 10
36.7185
 20
33.7833
 11
36.7228
 21
19.9901
  0
POLYLINE
  8
85
 66
1
 70
0
  0
VERTEX
  8
85
 10
36.7185
 20
33.7833
  0
VERTEX
  8
85
 10
36.7228
 20
19.9901
  0
SEQEND
  8
85
  0
TEXT
  8
8
 10
36.7185
 20
33.7833
 40
0.250
 50
0.0000
  1
NM
  7
STANDARD
  0
TEXT
  8
85
 10
36.7185
 20
33.7833
 40
0.250
 50
0.0000
  1
NM
  7
STANDARD
  0
POINT
  8
2
 10
36.7185
 20
33.7833
  0
POINT
  8
2
 10
36.7228
 20
19.9901
  0
LINE
  8
8
 10
36.9264
 20
30.0724
 11
38.4264
 21
30.0724
  0
POLYLINE
  8
85
 66
1
 70
0
  0
VERTEX
  8
85
 10
36.9264
 20
30.0724
  0
VERTEX
  8
85
 10
38.4264
 20
30.0724
  0
SEQEND
  8
85
  0
TEXT
  8
8
 10
36.9264
 20
30.0724
 40
0.250
 50
0.0000
  1
NM
  7
STANDARD
  0
TEXT
  8
85
 10
36.9264
 20
30.0724
 40
0.250
 50
0.0000
  1
NM
  7
STANDARD
  0
POINT
  8
2
 10
36.9264
 20
30.0724
  0
POINT
  8
2
 10
38.4264
 20
30.0724
  0
LINE
  8
8
 10
33.0688
 20
20.3531
 11
33.0688
 21
35.6958
  0
POLYLINE
  8
85
 66
1
 70
0
  0
VERTEX
  8
85
 10
33.0688
 20
20.3531
  0
VERTEX
  8
85
 10
33.0688
 20
35.6958
  0
SEQEND
  8
85
  0
TEXT
  8
8
 10
33.0688
 20
20.3531
 40
0.250
 50
0.0000
  1
NM
  7
STANDARD
  0
TEXT
  8
85
 10
33.0688
 20
20.3531
 40
0.250
 50
0.0000
  1
NM
  7
STANDARD
  0
POINT
  8
2
 10
33.0688
 20
20.3531
  0
POINT
  8
2
 10
33.0688
 20
35.6958
  0
LINE
  8
10
 10
1.5750
 20
22.4157
 11
1.5750
 21
22.5887
  0
TEXT
  8
10
 10
1.5750
 20
22.4157
 40
0.250
 50
0.0000
  1
6
  7
STANDARD
  0
POINT
  8
2
 10
1.5750
 20
22.4157
  0
POINT
  8
2
 10
1.5750
 20
22.5887
  0
ATTDEF
  8
14
 10
45.8711
 20
22.7073
 11
45.8806
 21
22.6178
 40
.25
  1
Link:4
  2
Dependency
  3

 70
2
 72
3
  0
ENDBLK
  0
BLOCK
  8
0
  2
BUY-383100-JF-BIG-T-SH-02_48
 70
64
 10
0.0000
 20
0.0000
  0
TEXT
  8
1
 10
70.7833
 20
25.5548
 40
0.250
 50
0.0000
  1
Piece Name: BUY-383100-JF-BIG-T-SH-02
  7
STANDARD
  0
TEXT
  8
1
 10
70.7833
 20
25.6948
 40
0.250
 50
0.0000
  1
Quantity: 1,0
  7
STANDARD
  0
TEXT
  8
1
 10
70.7833
 20
25.8348
 40
0.250
 50
0.0000
  1
ANNOTATION: B
  7
STANDARD
  0
TEXT
  8
1
 10
70.7833
 20
25.9748
 40
0.250
 50
0.0000
  1
CATEGORY: 2
  7
STANDARD
  0
TEXT
  8
1
 10
70.7833
 20
26.1148
 40
0.250
 50
0.0000
  1
SIZE: 48
  7
STANDARD
  0
POLYLINE
  8
1
 66
1
 70
0
  0
VERTEX
  8
1
 10
46.8174
 20
31.7697
  0
VERTEX
  8
1
 10
48.3923
 20
31.7292
  0
VERTEX
  8
1
 10
51.5871
 20
31.8106
  0
VERTEX
  8
1
 10
54.7208
 20
31.9214
  0
VERTEX
  8
1
 10
57.8531
 20
32.0609
  0
VERTEX
  8
1
 10
61.4188
 20
32.2836
  0
VERTEX
  8
1
 10
64.9829
 20
32.5238
  0
VERTEX
  8
1
 10
67.3579
 20
32.6995
  0
VERTEX
  8
1
 10
69.6139
 20
33.0268
  0
VERTEX
  8
1
 10
72.4928
 20
33.6071
  0
VERTEX
  8
1
 10
75.3600
 20
34.2451
  0
VERTEX
  8
1
 10
77.6935
 20
34.7952
  0
VERTEX
  8
1
 10
79.7718
 20
35.2850
  0
VERTEX
  8
1
 10
81.7055
 20
35.7002
  0
VERTEX
  8
1
 10
83.3904
 20
35.9835
  0
VERTEX
  8
1
 10
84.9256
 20
36.1583
  0
VERTEX
  8
1
 10
86.0691
 20
36.2472
  0
VERTEX
  8
1
 10
87.2021
 20
36.3115
  0
VERTEX
  8
1
 10
88.2508
 20
36.3480
  0
VERTEX
  8
1
 10
89.2488
 20
36.3588
  0
VERTEX
  8
1
 10
90.2272
 20
36.3513
  0
VERTEX
  8
1
 10
91.2895
 20
36.3231
  0
VERTEX
  8
1
 10
93.1487
 20
36.2460
  0
SEQEND
  8
1
  0
POLYLINE
  8
84
 66
1
 70
0
  0
VERTEX
  8
84
 10
46.8174
 20
31.7697
  0
VERTEX
  8
84
 10
48.3923
 20
31.7292
  0
VERTEX
  8
84
 10
51.5871
 20
31.8106
  0
VERTEX
  8
84
 10
54.7208
 20
31.9214
  0
VERTEX
  8
84
 10
57.8531
 20
32.0609
  0
VERTEX
  8
84
 10
61.4188
 20
32.2836
  0
VERTEX
  8
84
 10
64.9829
 20
32.5238
  0
VERTEX
  8
84
 10
67.3579
 20
32.6995
  0
VERTEX
  8
84
 10
68.4871
 20
32.8556
  0
VERTEX
  8
84
 10
69.6139
 20
33.0268
  0
VERTEX
  8
84
 10
71.0559
 20
33.3037
  0
VERTEX
  8
84
 10
72.4928
 20
33.6071
  0
VERTEX
  8
84
 10
75.3600
 20
34.2451
  0
VERTEX
  8
84
 10
77.6935
 20
34.7952
  0
VERTEX
  8
84
 10
79.7718
 20
35.2850
  0
VERTEX
  8
84
 10
80.7370
 20
35.5002
  0
VERTEX
  8
84
 10
81.7055
 20
35.7002
  0
VERTEX
  8
84
 10
82.5462
 20
35.8519
  0
VERTEX
  8
84
 10
83.3904
 20
35.9835
  0
VERTEX
  8
84
 10
84.1570
 20
36.0792
  0
VERTEX
  8
84
 10
84.9256
 20
36.1583
  0
VERTEX
  8
84
 10
86.0691
 20
36.2472
  0
VERTEX
  8
84
 10
87.2021
 20
36.3115
  0
VERTEX
  8
84
 10
88.2508
 20
36.3480
  0
VERTEX
  8
84
 10
89.2488
 20
36.3588
  0
VERTEX
  8
84
 10
90.2272
 20
36.3513
  0
VERTEX
  8
84
 10
91.2895
 20
36.3231
  0
VERTEX
  8
84
 10
93.1487
 20
36.2460
  0
SEQEND
  8
84
  0
POINT
  8
2
 10
46.8174
 20
31.7697
  0
POINT
  8
4
 10
48.3923
 20
31.7292
 30
0.1181
 39
0.1771
  0
POINT
  8
2
 10
48.3923
 20
31.7292
  0
POINT
  8
3
 10
51.5871
 20
31.8106
  0
POINT
  8
3
 10
54.7208
 20
31.9214
  0
POINT
  8
3
 10
57.8531
 20
32.0609
  0
POINT
  8
3
 10
61.4188
 20
32.2836
  0
POINT
  8
3
 10
64.9829
 20
32.5238
  0
POINT
  8
4
 10
67.3579
 20
32.6995
 30
0.1181
 39
0.1771
  0
POINT
  8
2
 10
67.3579
 20
32.6995
  0
POINT
  8
3
 10
69.6139
 20
33.0268
  0
POINT
  8
3
 10
72.4928
 20
33.6071
  0
POINT
  8
3
 10
75.3600
 20
34.2451
  0
POINT
  8
3
 10
77.6935
 20
34.7952
  0
POINT
  8
4
 10
79.7718
 20
35.2850
 30
0.1181
 39
0.1771
  0
POINT
  8
3
 10
79.7718
 20
35.2850
  0
POINT
  8
3
 10
81.7055
 20
35.7002
  0
POINT
  8
3
 10
83.3904
 20
35.9835
  0
POINT
  8
3
 10
84.9256
 20
36.1583
  0
POINT
  8
3
 10
86.0691
 20
36.2472
  0
POINT
  8
3
 10
87.2021
 20
36.3115
  0
POINT
  8
3
 10
88.2508
 20
36.3480
  0
POINT
  8
3
 10
89.2488
 20
36.3588
  0
POINT
  8
3
 10
90.2272
 20
36.3513
  0
POINT
  8
3
 10
91.2895
 20
36.3231
  0
POINT
  8
2
 10
93.1487
 20
36.2460
  0
POLYLINE
  8
1
 66
1
 70
0
  0
VERTEX
  8
1
 10
93.1487
 20
36.2460
  0
VERTEX
  8
1
 10
93.2303
 20
35.1971
  0
VERTEX
  8
1
 10
93.2891
 20
34.5422
  0
VERTEX
  8
1
 10
93.3166
 20
34.2344
  0
VERTEX
  8
1
 10
93.4408
 20
33.2408
  0
VERTEX
  8
1
 10
93.6011
 20
32.2113
  0
VERTEX
  8
1
 10
93.8039
 20
31.1257
  0
VERTEX
  8
1
 10
93.9375
 20
30.4173
  0
VERTEX
  8
1
 10
94.0185
 20
29.8539
  0
SEQEND
  8
1
  0
POLYLINE
  8
84
 66
1
 70
0
  0
VERTEX
  8
84
 10
93.1487
 20
36.2460
  0
VERTEX
  8
84
 10
93.2303
 20
35.1971
  0
VERTEX
  8
84
 10
93.2891
 20
34.5422
  0
VERTEX
  8
84
 10
93.3166
 20
34.2344
  0
VERTEX
  8
84
 10
93.4408
 20
33.2408
  0
VERTEX
  8
84
 10
93.6011
 20
32.2113
  0
VERTEX
  8
84
 10
93.8039
 20
31.1257
  0
VERTEX
  8
84
 10
93.9375
 20
30.4173
  0
VERTEX
  8
84
 10
94.0185
 20
29.8539
  0
SEQEND
  8
84
  0
POINT
  8
2
 10
93.1487
 20
36.2460
  0
POINT
  8
3
 10
93.2303
 20
35.1971
  0
POINT
  8
4
 10
93.2891
 20
34.5422
 30
0.1181
 39
0.1771
  0
POINT
  8
3
 10
93.2891
 20
34.5422
  0
POINT
  8
3
 10
93.3166
 20
34.2344
  0
POINT
  8
3
 10
93.4408
 20
33.2408
  0
POINT
  8
3
 10
93.6011
 20
32.2113
  0
POINT
  8
3
 10
93.8039
 20
31.1257
  0
POINT
  8
3
 10
93.9375
 20
30.4173
  0
POINT
  8
4
 10
94.0185
 20
29.8539
 30
0.1181
 39
0.0000
  0
POINT
  8
2
 10
94.0185
 20
29.8539
  0
POLYLINE
  8
1
 66
1
 70
0
  0
VERTEX
  8
1
 10
94.0185
 20
29.8539
  0
VERTEX
  8
1
 10
94.2440
 20
29.4457
  0
VERTEX
  8
1
 10
94.1496
 20
29.0074
  0
SEQEND
  8
1
  0
POLYLINE
  8
84
 66
1
 70
0
  0
VERTEX
  8
84
 10
94.0185
 20
29.8539
  0
VERTEX
  8
84
 10
94.2440
 20
29.4457
  0
VERTEX
  8
84
 10
94.1496
 20
29.0074
  0
SEQEND
  8
84
  0
POINT
  8
4
 10
94.0185
 20
29.8539
 30
0.1181
 39
0.0000
  0
POINT
  8
2
 10
94.0185
 20
29.8539
  0
POINT
  8
4
 10
94.2440
 20
29.4457
 30
0.1181
 39
0.0000
  0
POINT
  8
2
 10
94.2440
 20
29.4457
  0
POINT
  8
4
 10
94.1496
 20
29.0074
 30
0.1181
 39
0.0000
  0
POINT
  8
2
 10
94.1496
 20
29.0074
  0
POLYLINE
  8
1
 66
1
 70
0
  0
VERTEX
  8
1
 10
94.1496
 20
29.0074
  0
VERTEX
  8
1
 10
94.1787
 20
27.7179
  0
VERTEX
  8
1
 10
94.2144
 20
26.6130
  0
VERTEX
  8
1
 10
94.2797
 20
25.5716
  0
VERTEX
  8
1
 10
94.3730
 20
24.5690
  0
VERTEX
  8
1
 10
94.4122
 20
24.2320
  0
VERTEX
  8
1
 10
94.5774
 20
22.8124
  0
VERTEX
  8
1
 10
94.5774
 20
22.8124
  0
VERTEX
  8
1
 10
94.5959
 20
22.6538
  0
VERTEX
  8
1
 10
94.7492
 20
21.9577
  0
SEQEND
  8
1
  0
POLYLINE
  8
84
 66
1
 70
0
  0
VERTEX
  8
84
 10
94.1496
 20
29.0074
  0
VERTEX
  8
84
 10
94.1787
 20
27.7179
  0
VERTEX
  8
84
 10
94.2144
 20
26.6130
  0
VERTEX
  8
84
 10
94.2797
 20
25.5716
  0
VERTEX
  8
84
 10
94.3730
 20
24.5690
  0
VERTEX
  8
84
 10
94.4122
 20
24.2320
  0
VERTEX
  8
84
 10
94.5774
 20
22.8124
  0
VERTEX
  8
84
 10
94.5774
 20
22.8124
  0
VERTEX
  8
84
 10
94.5959
 20
22.6538
  0
VERTEX
  8
84
 10
94.7492
 20
21.9577
  0
SEQEND
  8
84
  0
POINT
  8
4
 10
94.1496
 20
29.0074
 30
0.1181
 39
0.0000
  0
POINT
  8
2
 10
94.1496
 20
29.0074
  0
POINT
  8
3
 10
94.1787
 20
27.7179
  0
POINT
  8
3
 10
94.2144
 20
26.6130
  0
POINT
  8
3
 10
94.2797
 20
25.5716
  0
POINT
  8
3
 10
94.3730
 20
24.5690
  0
POINT
  8
4
 10
94.4122
 20
24.2320
 30
0.1181
 39
0.1771
  0
POINT
  8
3
 10
94.4122
 20
24.2320
  0
POINT
  8
2
 10
94.5774
 20
22.8124
  0
POINT
  8
4
 10
94.5774
 20
22.8124
 30
0.1181
 39
0.1771
 50
-175.0494
  0
POINT
  8
2
 10
94.5774
 20
22.8124
  0
POINT
  8
2
 10
94.5959
 20
22.6538
  0
POINT
  8
2
 10
94.7492
 20
21.9577
  0
POLYLINE
  8
1
 66
1
 70
0
  0
VERTEX
  8
1
 10
94.7492
 20
21.9577
  0
VERTEX
  8
1
 10
84.8422
 20
20.4481
  0
VERTEX
  8
1
 10
83.8261
 20
20.2844
  0
VERTEX
  8
1
 10
83.3148
 20
20.1796
  0
VERTEX
  8
1
 10
82.6391
 20
19.9794
  0
VERTEX
  8
1
 10
82.1450
 20
19.7490
  0
VERTEX
  8
1
 10
81.7976
 20
19.5355
  0
VERTEX
  8
1
 10
81.5394
 20
19.3356
  0
VERTEX
  8
1
 10
81.3142
 20
19.1152
  0
VERTEX
  8
1
 10
81.1104
 20
18.8774
  0
VERTEX
  8
1
 10
80.9364
 20
18.6163
  0
VERTEX
  8
1
 10
80.7917
 20
18.3260
  0
VERTEX
  8
1
 10
80.6603
 20
18.0009
  0
VERTEX
  8
1
 10
80.5460
 20
17.5970
  0
VERTEX
  8
1
 10
80.4371
 20
17.0955
  0
VERTEX
  8
1
 10
80.3258
 20
16.4759
  0
VERTEX
  8
1
 10
80.1915
 20
15.6325
  0
VERTEX
  8
1
 10
80.1192
 20
15.1565
  0
VERTEX
  8
1
 10
80.1192
 20
15.1565
  0
VERTEX
  8
1
 10
79.7949
 20
14.7509
  0
SEQEND
  8
1
  0
POLYLINE
  8
84
 66
1
 70
0
  0
VERTEX
  8
84
 10
94.7492
 20
21.9577
  0
VERTEX
  8
84
 10
84.8422
 20
20.4481
  0
VERTEX
  8
84
 10
83.8261
 20
20.2844
  0
VERTEX
  8
84
 10
83.3148
 20
20.1796
  0
VERTEX
  8
84
 10
82.9739
 20
20.0891
  0
VERTEX
  8
84
 10
82.6391
 20
19.9794
  0
VERTEX
  8
84
 10
82.3884
 20
19.8721
  0
VERTEX
  8
84
 10
82.1450
 20
19.7490
  0
VERTEX
  8
84
 10
81.7976
 20
19.5355
  0
VERTEX
  8
84
 10
81.5394
 20
19.3356
  0
VERTEX
  8
84
 10
81.3142
 20
19.1152
  0
VERTEX
  8
84
 10
81.1104
 20
18.8774
  0
VERTEX
  8
84
 10
80.9364
 20
18.6163
  0
VERTEX
  8
84
 10
80.7917
 20
18.3260
  0
VERTEX
  8
84
 10
80.6603
 20
18.0009
  0
VERTEX
  8
84
 10
80.5460
 20
17.5970
  0
VERTEX
  8
84
 10
80.4371
 20
17.0955
  0
VERTEX
  8
84
 10
80.3258
 20
16.4759
  0
VERTEX
  8
84
 10
80.1915
 20
15.6325
  0
VERTEX
  8
84
 10
80.1192
 20
15.1565
  0
VERTEX
  8
84
 10
80.1192
 20
15.1565
  0
VERTEX
  8
84
 10
79.7949
 20
14.7509
  0
SEQEND
  8
84
  0
POINT
  8
2
 10
94.7492
 20
21.9577
  0
POINT
  8
4
 10
84.8422
 20
20.4481
 30
0.1181
 39
0.1771
  0
POINT
  8
2
 10
84.8422
 20
20.4481
  0
POINT
  8
3
 10
83.8261
 20
20.2844
  0
POINT
  8
3
 10
83.3148
 20
20.1796
  0
POINT
  8
3
 10
82.6391
 20
19.9794
  0
POINT
  8
3
 10
82.1450
 20
19.7490
  0
POINT
  8
3
 10
81.7976
 20
19.5355
  0
POINT
  8
3
 10
81.5394
 20
19.3356
  0
POINT
  8
3
 10
81.3142
 20
19.1152
  0
POINT
  8
3
 10
81.1104
 20
18.8774
  0
POINT
  8
3
 10
80.9364
 20
18.6163
  0
POINT
  8
3
 10
80.7917
 20
18.3260
  0
POINT
  8
3
 10
80.6603
 20
18.0009
  0
POINT
  8
3
 10
80.5460
 20
17.5970
  0
POINT
  8
3
 10
80.4371
 20
17.0955
  0
POINT
  8
3
 10
80.3258
 20
16.4759
  0
POINT
  8
3
 10
80.1915
 20
15.6325
  0
POINT
  8
2
 10
80.1192
 20
15.1565
  0
POINT
  8
4
 10
80.1192
 20
15.1565
 30
0.1181
 39
0.1771
 50
157.1069
  0
POINT
  8
2
 10
80.1192
 20
15.1565
  0
POINT
  8
2
 10
79.7949
 20
14.7509
  0
POLYLINE
  8
1
 66
1
 70
0
  0
VERTEX
  8
1
 10
79.7949
 20
14.7509
  0
VERTEX
  8
1
 10
78.6453
 20
15.2473
  0
VERTEX
  8
1
 10
77.1701
 20
15.8843
  0
VERTEX
  8
1
 10
75.7012
 20
16.5028
  0
VERTEX
  8
1
 10
74.2188
 20
17.0868
  0
VERTEX
  8
1
 10
72.5785
 20
17.6167
  0
VERTEX
  8
1
 10
70.8948
 20
18.0882
  0
VERTEX
  8
1
 10
69.6082
 20
18.3587
  0
VERTEX
  8
1
 10
68.4855
 20
18.5459
  0
VERTEX
  8
1
 10
67.3580
 20
18.6983
  0
VERTEX
  8
1
 10
64.9829
 20
18.8741
  0
VERTEX
  8
1
 10
61.4188
 20
19.1142
  0
VERTEX
  8
1
 10
57.8531
 20
19.3370
  0
VERTEX
  8
1
 10
54.7208
 20
19.4765
  0
VERTEX
  8
1
 10
51.5871
 20
19.5873
  0
VERTEX
  8
1
 10
48.3923
 20
19.6687
  0
VERTEX
  8
1
 10
46.8174
 20
19.6283
  0
SEQEND
  8
1
  0
POLYLINE
  8
84
 66
1
 70
0
  0
VERTEX
  8
84
 10
79.7949
 20
14.7509
  0
VERTEX
  8
84
 10
78.6453
 20
15.2473
  0
VERTEX
  8
84
 10
77.1701
 20
15.8843
  0
VERTEX
  8
84
 10
75.7012
 20
16.5028
  0
VERTEX
  8
84
 10
74.9629
 20
16.8026
  0
VERTEX
  8
84
 10
74.2188
 20
17.0868
  0
VERTEX
  8
84
 10
73.4020
 20
17.3620
  0
VERTEX
  8
84
 10
72.5785
 20
17.6167
  0
VERTEX
  8
84
 10
71.7397
 20
17.8633
  0
VERTEX
  8
84
 10
70.8948
 20
18.0882
  0
VERTEX
  8
84
 10
70.2533
 20
18.2319
  0
VERTEX
  8
84
 10
69.6082
 20
18.3587
  0
VERTEX
  8
84
 10
68.4855
 20
18.5459
  0
VERTEX
  8
84
 10
67.3580
 20
18.6983
  0
VERTEX
  8
84
 10
64.9829
 20
18.8741
  0
VERTEX
  8
84
 10
61.4188
 20
19.1142
  0
VERTEX
  8
84
 10
57.8531
 20
19.3370
  0
VERTEX
  8
84
 10
54.7208
 20
19.4765
  0
VERTEX
  8
84
 10
51.5871
 20
19.5873
  0
VERTEX
  8
84
 10
48.3923
 20
19.6687
  0
VERTEX
  8
84
 10
46.8174
 20
19.6283
  0
SEQEND
  8
84
  0
POINT
  8
2
 10
79.7949
 20
14.7509
  0
POINT
  8
3
 10
78.6453
 20
15.2473
  0
POINT
  8
3
 10
77.1701
 20
15.8843
  0
POINT
  8
3
 10
75.7012
 20
16.5028
  0
POINT
  8
3
 10
74.2188
 20
17.0868
  0
POINT
  8
3
 10
72.5785
 20
17.6167
  0
POINT
  8
3
 10
70.8948
 20
18.0882
  0
POINT
  8
3
 10
69.6082
 20
18.3587
  0
POINT
  8
3
 10
68.4855
 20
18.5459
  0
POINT
  8
4
 10
67.3580
 20
18.6983
 30
0.1181
 39
0.1771
  0
POINT
  8
2
 10
67.3580
 20
18.6983
  0
POINT
  8
3
 10
64.9829
 20
18.8741
  0
POINT
  8
3
 10
61.4188
 20
19.1142
  0
POINT
  8
3
 10
57.8531
 20
19.3370
  0
POINT
  8
3
 10
54.7208
 20
19.4765
  0
POINT
  8
3
 10
51.5871
 20
19.5873
  0
POINT
  8
4
 10
48.3923
 20
19.6687
 30
0.1181
 39
0.1771
  0
POINT
  8
2
 10
48.3923
 20
19.6687
  0
POINT
  8
2
 10
46.8174
 20
19.6283
  0
POLYLINE
  8
1
 66
1
 70
0
  0
VERTEX
  8
1
 10
46.8174
 20
19.6283
  0
VERTEX
  8
1
 10
46.8174
 20
20.1283
  0
VERTEX
  8
1
 10
46.8174
 20
25.6992
  0
VERTEX
  8
1
 10
46.8174
 20
31.2697
  0
VERTEX
  8
1
 10
46.8174
 20
31.7697
  0
SEQEND
  8
1
  0
POLYLINE
  8
84
 66
1
 70
0
  0
VERTEX
  8
84
 10
46.8174
 20
19.6283
  0
VERTEX
  8
84
 10
46.8174
 20
20.1283
  0
VERTEX
  8
84
 10
46.8174
 20
25.6992
  0
VERTEX
  8
84
 10
46.8174
 20
31.2697
  0
VERTEX
  8
84
 10
46.8174
 20
31.7697
  0
SEQEND
  8
84
  0
POINT
  8
2
 10
46.8174
 20
19.6283
  0
POINT
  8
4
 10
46.8174
 20
20.1283
 30
0.1181
 39
0.1771
  0
POINT
  8
3
 10
46.8174
 20
20.1283
  0
POINT
  8
81
 10
46.8174
 20
25.6992
 30
-0.3937
 39
1.9685
  0
POINT
  8
3
 10
46.8174
 20
25.6992
  0
POINT
  8
4
 10
46.8174
 20
31.2697
 30
0.1181
 39
0.1771
  0
POINT
  8
3
 10
46.8174
 20
31.2697
  0
POINT
  8
2
 10
46.8174
 20
31.7697
  0
LINE
  8
7
 10
55.6923
 20
25.6992
 11
78.0934
 21
25.6992
  0
LINE
  8
5
 10
55.6923
 20
25.6992
 11
78.0934
 21
25.6992
  0
POINT
  8
2
 10
55.6923
 20
25.6992
  0
POINT
  8
2
 10
78.0934
 20
25.6992
  0
LINE
  8
8
 10
83.3054
 20
35.4404
 11
84.7509
 21
20.9397
  0
POLYLINE
  8
85
 66
1
 70
0
  0
VERTEX
  8
85
 10
83.3054
 20
35.4404
  0
VERTEX
  8
85
 10
84.7509
 20
20.9397
  0
SEQEND
  8
85
  0
TEXT
  8
8
 10
83.3054
 20
35.4404
 40
0.250
 50
0.0000
  1
NM
  7
STANDARD
  0
TEXT
  8
85
 10
83.3054
 20
35.4404
 40
0.250
 50
0.0000
  1
NM
  7
STANDARD
  0
POINT
  8
2
 10
83.3054
 20
35.4404
  0
POINT
  8
2
 10
84.7509
 20
20.9397
  0
LINE
  8
8
 10
79.4479
 20
15.4505
 11
79.6922
 21
34.7287
  0
POLYLINE
  8
85
 66
1
 70
0
  0
VERTEX
  8
85
 10
79.4479
 20
15.4505
  0
VERTEX
  8
85
 10
79.6922
 20
34.7287
  0
SEQEND
  8
85
  0
TEXT
  8
8
 10
79.4479
 20
15.4505
 40
0.250
 50
0.0000
  1
NM
  7
STANDARD
  0
TEXT
  8
85
 10
79.4479
 20
15.4505
 40
0.250
 50
0.0000
  1
NM
  7
STANDARD
  0
POINT
  8
2
 10
79.4479
 20
15.4505
  0
POINT
  8
2
 10
79.6922
 20
34.7287
  0
LINE
  8
8
 10
67.3643
 20
19.1994
 11
67.3618
 21
32.1987
  0
POLYLINE
  8
85
 66
1
 70
0
  0
VERTEX
  8
85
 10
67.3643
 20
19.1994
  0
VERTEX
  8
85
 10
67.3618
 20
32.1987
  0
SEQEND
  8
85
  0
TEXT
  8
8
 10
67.3643
 20
19.1994
 40
0.250
 50
0.0000
  1
NM
  7
STANDARD
  0
TEXT
  8
85
 10
67.3643
 20
19.1994
 40
0.250
 50
0.0000
  1
NM
  7
STANDARD
  0
POINT
  8
2
 10
67.3643
 20
19.1994
  0
POINT
  8
2
 10
67.3618
 20
32.1987
  0
LINE
  8
8
 10
85.3905
 20
23.8241
 11
86.8905
 21
23.8241
  0
POLYLINE
  8
85
 66
1
 70
0
  0
VERTEX
  8
85
 10
85.3905
 20
23.8241
  0
VERTEX
  8
85
 10
86.8905
 20
23.8241
  0
SEQEND
  8
85
  0
TEXT
  8
8
 10
85.3905
 20
23.8241
 40
0.250
 50
0.0000
  1
NM
  7
STANDARD
  0
TEXT
  8
85
 10
85.3905
 20
23.8241
 40
0.250
 50
0.0000
  1
NM
  7
STANDARD
  0
POINT
  8
2
 10
85.3905
 20
23.8241
  0
POINT
  8
2
 10
86.8905
 20
23.8241
  0
LINE
  8
8
 10
91.0416
 20
29.0872
 11
93.6387
 21
29.7264
  0
POLYLINE
  8
85
 66
1
 70
0
  0
VERTEX
  8
85
 10
91.0416
 20
29.0872
  0
VERTEX
  8
85
 10
93.6387
 20
29.7264
  0
SEQEND
  8
85
  0
TEXT
  8
8
 10
91.0416
 20
29.0872
 40
0.250
 50
0.0000
  1
NM
  7
STANDARD
  0
TEXT
  8
85
 10
91.0416
 20
29.0872
 40
0.250
 50
0.0000
  1
NM
  7
STANDARD
  0
POINT
  8
2
 10
91.0416
 20
29.0872
  0
POINT
  8
2
 10
93.6387
 20
29.7264
  0
LINE
  8
8
 10
93.8382
 20
29.4029
 11
91.0416
 21
29.0872
  0
POLYLINE
  8
85
 66
1
 70
0
  0
VERTEX
  8
85
 10
93.8382
 20
29.4029
  0
VERTEX
  8
85
 10
91.0416
 20
29.0872
  0
SEQEND
  8
85
  0
TEXT
  8
8
 10
93.8382
 20
29.4029
 40
0.250
 50
0.0000
  1
NM
  7
STANDARD
  0
TEXT
  8
85
 10
93.8382
 20
29.4029
 40
0.250
 50
0.0000
  1
NM
  7
STANDARD
  0
POINT
  8
2
 10
93.8382
 20
29.4029
  0
POINT
  8
2
 10
91.0416
 20
29.0872
  0
LINE
  8
8
 10
91.0416
 20
29.0872
 11
93.7543
 21
29.0434
  0
POLYLINE
  8
85
 66
1
 70
0
  0
VERTEX
  8
85
 10
91.0416
 20
29.0872
  0
VERTEX
  8
85
 10
93.7543
 20
29.0434
  0
SEQEND
  8
85
  0
TEXT
  8
8
 10
91.0416
 20
29.0872
 40
0.250
 50
0.0000
  1
NM
  7
STANDARD
  0
TEXT
  8
85
 10
91.0416
 20
29.0872
 40
0.250
 50
0.0000
  1
NM
  7
STANDARD
  0
POINT
  8
2
 10
91.0416
 20
29.0872
  0
POINT
  8
2
 10
93.7543
 20
29.0434
  0
LINE
  8
10
 10
48.3923
 20
31.6200
 11
48.3923
 21
31.3213
  0
TEXT
  8
10
 10
48.3923
 20
31.6200
 40
0.250
 50
0.0000
  1
6
  7
STANDARD
  0
POINT
  8
2
 10
48.3923
 20
31.6200
  0
POINT
  8
2
 10
48.3923
 20
31.3213
  0
ENDBLK
  0
BLOCK
  8
0
  2
BUY-383100-JF-BIG-T-SH-03LW_48
 70
64
 10
0.0000
 20
0.0000
  0
TEXT
  8
1
 10
1.3584
 20
-1.4562
 40
0.250
 50
0.0000
  1
Piece Name: BUY-383100-JF-BIG-T-SH-03LW
  7
STANDARD
  0
TEXT
  8
1
 10
1.3584
 20
-1.3162
 40
0.250
 50
0.0000
  1
Quantity: 1,0
  7
STANDARD
  0
TEXT
  8
1
 10
1.3584
 20
-1.1762
 40
0.250
 50
0.0000
  1
ANNOTATION
  7
STANDARD
  0
TEXT
  8
1
 10
1.3584
 20
-1.0362
 40
0.250
 50
0.0000
  1
CATEGORY: 3L
  7
STANDARD
  0
TEXT
  8
1
 10
1.3584
 20
-0.8962
 40
0.250
 50
0.0000
  1
SIZE: 48
  7
STANDARD
  0
POLYLINE
  8
1
 66
1
 70
0
  0
VERTEX
  8
1
 10
2.7168
 20
-17.1634
  0
VERTEX
  8
1
 10
0.1501
 20
-17.1634
  0
VERTEX
  8
1
 10
0.0000
 20
-16.9635
  0
SEQEND
  8
1
  0
POLYLINE
  8
84
 66
1
 70
0
  0
VERTEX
  8
84
 10
2.7168
 20
-17.1634
  0
VERTEX
  8
84
 10
0.1501
 20
-17.1634
  0
VERTEX
  8
84
 10
0.0000
 20
-16.9635
  0
SEQEND
  8
84
  0
POINT
  8
2
 10
2.7168
 20
-17.1634
  0
POINT
  8
2
 10
0.1501
 20
-17.1634
  0
POINT
  8
2
 10
0.0000
 20
-16.9635
  0
POLYLINE
  8
1
 66
1
 70
0
  0
VERTEX
  8
1
 10
0.0000
 20
-16.9635
  0
VERTEX
  8
1
 10
0.0000
 20
-14.6725
  0
VERTEX
  8
1
 10
0.0001
 20
-12.9235
  0
VERTEX
  8
1
 10
0.0001
 20
-11.1632
  0
VERTEX
  8
1
 10
0.0001
 20
-11.1632
  0
VERTEX
  8
1
 10
0.0001
 20
-10.5382
  0
VERTEX
  8
1
 10
0.0000
 20
13.3654
  0
VERTEX
  8
1
 10
0.0000
 20
14.2509
  0
SEQEND
  8
1
  0
POLYLINE
  8
84
 66
1
 70
0
  0
VERTEX
  8
84
 10
0.0000
 20
-16.9635
  0
VERTEX
  8
84
 10
0.0000
 20
-14.6725
  0
VERTEX
  8
84
 10
0.0001
 20
-12.9235
  0
VERTEX
  8
84
 10
0.0001
 20
-11.1632
  0
VERTEX
  8
84
 10
0.0001
 20
-11.1632
  0
VERTEX
  8
84
 10
0.0001
 20
-10.5382
  0
VERTEX
  8
84
 10
0.0000
 20
13.3654
  0
VERTEX
  8
84
 10
0.0000
 20
14.2509
  0
SEQEND
  8
84
  0
POINT
  8
2
 10
0.0000
 20
-16.9635
  0
POINT
  8
4
 10
0.0000
 20
-14.6725
 30
0.1181
 39
0.0000
  0
POINT
  8
3
 10
0.0000
 20
-14.6725
  0
POINT
  8
4
 10
0.0001
 20
-12.9235
 30
0.1181
 39
0.0000
  0
POINT
  8
3
 10
0.0001
 20
-12.9235
  0
POINT
  8
2
 10
0.0001
 20
-11.1632
  0
POINT
  8
4
 10
0.0001
 20
-11.1632
 30
0.1181
 39
0.1771
  0
POINT
  8
2
 10
0.0001
 20
-11.1632
  0
POINT
  8
4
 10
0.0001
 20
-10.5382
 30
0.1181
 39
0.1771
  0
POINT
  8
3
 10
0.0001
 20
-10.5382
  0
POINT
  8
4
 10
0.0000
 20
13.3654
 30
0.1181
 39
0.1771
  0
POINT
  8
2
 10
0.0000
 20
13.3654
  0
POINT
  8
2
 10
0.0000
 20
14.2509
  0
POLYLINE
  8
1
 66
1
 70
0
  0
VERTEX
  8
1
 10
0.0000
 20
14.2509
  0
VERTEX
  8
1
 10
2.7167
 20
14.2509
  0
SEQEND
  8
1
  0
POLYLINE
  8
84
 66
1
 70
0
  0
VERTEX
  8
84
 10
0.0000
 20
14.2509
  0
VERTEX
  8
84
 10
2.7167
 20
14.2509
  0
SEQEND
  8
84
  0
POINT
  8
2
 10
0.0000
 20
14.2509
  0
POINT
  8
2
 10
2.7167
 20
14.2509
  0
POLYLINE
  8
1
 66
1
 70
0
  0
VERTEX
  8
1
 10
2.7167
 20
14.2509
  0
VERTEX
  8
1
 10
2.7167
 20
13.3654
  0
VERTEX
  8
1
 10
2.7167
 20
0.9966
  0
VERTEX
  8
1
 10
2.7168
 20
-11.1632
  0
VERTEX
  8
1
 10
2.7168
 20
-11.1632
  0
VERTEX
  8
1
 10
2.7168
 20
-12.8998
  0
VERTEX
  8
1
 10
2.7168
 20
-14.6374
  0
VERTEX
  8
1
 10
2.7168
 20
-17.1634
  0
SEQEND
  8
1
  0
POLYLINE
  8
84
 66
1
 70
0
  0
VERTEX
  8
84
 10
2.7167
 20
14.2509
  0
VERTEX
  8
84
 10
2.7167
 20
13.3654
  0
VERTEX
  8
84
 10
2.7167
 20
0.9966
  0
VERTEX
  8
84
 10
2.7168
 20
-11.1632
  0
VERTEX
  8
84
 10
2.7168
 20
-11.1632
  0
VERTEX
  8
84
 10
2.7168
 20
-12.8998
  0
VERTEX
  8
84
 10
2.7168
 20
-14.6374
  0
VERTEX
  8
84
 10
2.7168
 20
-17.1634
  0
SEQEND
  8
84
  0
POINT
  8
2
 10
2.7167
 20
14.2509
  0
POINT
  8
4
 10
2.7167
 20
13.3654
 30
0.1181
 39
0.1771
  0
POINT
  8
2
 10
2.7167
 20
13.3654
  0
POINT
  8
4
 10
2.7167
 20
0.9966
 30
0.1181
 39
0.1771
  0
POINT
  8
2
 10
2.7167
 20
0.9966
  0
POINT
  8
2
 10
2.7168
 20
-11.1632
  0
POINT
  8
4
 10
2.7168
 20
-11.1632
 30
0.1181
 39
0.1771
 50
179.0088
  0
POINT
  8
2
 10
2.7168
 20
-11.1632
  0
POINT
  8
4
 10
2.7168
 20
-12.8998
 30
0.1181
 39
0.0000
  0
POINT
  8
3
 10
2.7168
 20
-12.8998
  0
POINT
  8
4
 10
2.7168
 20
-14.6374
 30
0.1181
 39
0.0000
  0
POINT
  8
3
 10
2.7168
 20
-14.6374
  0
POINT
  8
2
 10
2.7168
 20
-17.1634
  0
LINE
  8
7
 10
0.6251
 20
-0.4393
 11
1.8752
 21
-0.4393
  0
LINE
  8
5
 10
0.6251
 20
-0.4393
 11
1.8752
 21
-0.4393
  0
POINT
  8
2
 10
0.6251
 20
-0.4393
  0
POINT
  8
2
 10
1.8752
 20
-0.4393
  0
ENDBLK
  0
BLOCK
  8
0
  2
BUY-383100-JF-BIG-T-SH-06_48
 70
64
 10
0.0000
 20
0.0000
  0
TEXT
  8
1
 10
8.3027
 20
11.3110
 40
0.250
 50
0.0000
  1
Piece Name: BUY-383100-JF-BIG-T-SH-06
  7
STANDARD
  0
TEXT
  8
1
 10
8.3027
 20
11.4510
 40
0.250
 50
0.0000
  1
Quantity: 1,0
  7
STANDARD
  0
TEXT
  8
1
 10
8.3027
 20
11.5910
 40
0.250
 50
0.0000
  1
ANNOTATION: CUT2
  7
STANDARD
  0
TEXT
  8
1
 10
8.3027
 20
11.7310
 40
0.250
 50
0.0000
  1
CATEGORY: 9
  7
STANDARD
  0
TEXT
  8
1
 10
8.3027
 20
11.8710
 40
0.250
 50
0.0000
  1
SIZE: 48
  7
STANDARD
  0
POLYLINE
  8
1
 66
1
 70
0
  0
VERTEX
  8
1
 10
3.6417
 20
8.4102
  0
VERTEX
  8
1
 10
3.2167
 20
11.4808
  0
SEQEND
  8
1
  0
POLYLINE
  8
84
 66
1
 70
0
  0
VERTEX
  8
84
 10
3.6417
 20
8.4102
  0
VERTEX
  8
84
 10
3.2167
 20
11.4808
  0
SEQEND
  8
84
  0
POINT
  8
2
 10
3.6417
 20
8.4102
  0
POINT
  8
2
 10
3.2167
 20
11.4808
  0
POLYLINE
  8
1
 66
1
 70
0
  0
VERTEX
  8
1
 10
3.2167
 20
11.4808
  0
VERTEX
  8
1
 10
12.9530
 20
14.2509
  0
SEQEND
  8
1
  0
POLYLINE
  8
84
 66
1
 70
0
  0
VERTEX
  8
84
 10
3.2167
 20
11.4808
  0
VERTEX
  8
84
 10
12.9530
 20
14.2509
  0
SEQEND
  8
84
  0
POINT
  8
2
 10
3.2167
 20
11.4808
  0
POINT
  8
2
 10
12.9530
 20
14.2509
  0
POLYLINE
  8
1
 66
1
 70
0
  0
VERTEX
  8
1
 10
12.9530
 20
14.2509
  0
VERTEX
  8
1
 10
13.0499
 20
12.9398
  0
VERTEX
  8
1
 10
13.1653
 20
11.6850
  0
VERTEX
  8
1
 10
13.3887
 20
9.5909
  0
SEQEND
  8
1
  0
POLYLINE
  8
84
 66
1
 70
0
  0
VERTEX
  8
84
 10
12.9530
 20
14.2509
  0
VERTEX
  8
84
 10
13.0499
 20
12.9398
  0
VERTEX
  8
84
 10
13.1653
 20
11.6850
  0
VERTEX
  8
84
 10
13.3887
 20
9.5909
  0
SEQEND
  8
84
  0
POINT
  8
2
 10
12.9530
 20
14.2509
  0
POINT
  8
3
 10
13.0499
 20
12.9398
  0
POINT
  8
4
 10
13.1653
 20
11.6850
 30
0.1181
 39
0.1771
  0
POINT
  8
3
 10
13.1653
 20
11.6850
  0
POINT
  8
2
 10
13.3887
 20
9.5909
  0
POLYLINE
  8
1
 66
1
 70
0
  0
VERTEX
  8
1
 10
13.3887
 20
9.5909
  0
VERTEX
  8
1
 10
11.8140
 20
9.2168
  0
VERTEX
  8
1
 10
10.0445
 20
8.8432
  0
VERTEX
  8
1
 10
8.6550
 20
8.6223
  0
VERTEX
  8
1
 10
7.2315
 20
8.4736
  0
VERTEX
  8
1
 10
6.2540
 20
8.4127
  0
VERTEX
  8
1
 10
5.2292
 20
8.3712
  0
VERTEX
  8
1
 10
4.4065
 20
8.3813
  0
VERTEX
  8
1
 10
3.6417
 20
8.4102
  0
SEQEND
  8
1
  0
POLYLINE
  8
84
 66
1
 70
0
  0
VERTEX
  8
84
 10
13.3887
 20
9.5909
  0
VERTEX
  8
84
 10
11.8140
 20
9.2168
  0
VERTEX
  8
84
 10
10.9309
 20
9.0217
  0
VERTEX
  8
84
 10
10.0445
 20
8.8432
  0
VERTEX
  8
84
 10
9.3511
 20
8.7238
  0
VERTEX
  8
84
 10
8.6550
 20
8.6223
  0
VERTEX
  8
84
 10
7.9441
 20
8.5396
  0
VERTEX
  8
84
 10
7.2315
 20
8.4736
  0
VERTEX
  8
84
 10
6.2540
 20
8.4127
  0
VERTEX
  8
84
 10
5.2292
 20
8.3712
  0
VERTEX
  8
84
 10
4.4065
 20
8.3813
  0
VERTEX
  8
84
 10
3.6417
 20
8.4102
  0
SEQEND
  8
84
  0
POINT
  8
2
 10
13.3887
 20
9.5909
  0
POINT
  8
3
 10
11.8140
 20
9.2168
  0
POINT
  8
3
 10
10.0445
 20
8.8432
  0
POINT
  8
3
 10
8.6550
 20
8.6223
  0
POINT
  8
3
 10
7.2315
 20
8.4736
  0
POINT
  8
3
 10
6.2540
 20
8.4127
  0
POINT
  8
4
 10
5.2292
 20
8.3712
 30
0.1181
 39
0.1771
  0
POINT
  8
3
 10
5.2292
 20
8.3712
  0
POINT
  8
3
 10
4.4065
 20
8.3813
  0
POINT
  8
2
 10
3.6417
 20
8.4102
  0
LINE
  8
7
 10
6.5542
 20
11.4928
 11
10.8861
 21
11.4928
  0
LINE
  8
5
 10
6.5542
 20
11.4928
 11
10.8861
 21
11.4928
  0
POINT
  8
2
 10
6.5542
 20
11.4928
  0
POINT
  8
2
 10
10.8861
 20
11.4928
  0
ENDBLK
  0
ENDSEC
  0
SECTION
  2
ENTITIES
  0
TEXT
  8
1
 10
0.0000
 20
0.0000
 40
0.250
 50
0.0000
  1
Style Name: BUY--383100-JF-BIG
  7
STANDARD
  0
TEXT
  8
1
 10
0.0000
 20
0.1400
 40
0.250
 50
0.0000
  1
Creation Date: 14-08-2025
  7
STANDARD
  0
TEXT
  8
1
 10
0.0000
 20
0.2800
 40
0.250
 50
0.0000
  1
Creation Time: 15:09
  7
STANDARD
  0
TEXT
  8
1
 10
0.0000
 20
0.4200
 40
0.250
 50
0.0000
  1
Author: GERBER TECHNOLOGY ; ACCUMARK ; 10.2.0
  7
STANDARD
  0
TEXT
  8
1
 10
0.0000
 20
0.5600
 40
0.250
 50
0.0000
  1
Sample Size: 48
  7
STANDARD
  0
TEXT
  8
1
 10
0.0000
 20
0.7000
 40
0.250
 50
0.0000
  1
Grade Rule Table: JCP-BIG-TRS
  7
STANDARD
  0
TEXT
  8
1
 10
0.0000
 20
0.8400
 40
0.250
 50
0.0000
  1
Units: ENGLISH
  7
STANDARD
  0
TEXT
  8
1
 10
0.0000
 20
0.9800
 40
0.250
 50
0.0000
  1
Curve Tolerance: .006
  7
STANDARD
  0
TEXT
  8
1
 10
0.0000
 20
1.1200
 40
0.250
 50
0.0000
  1
ASTM/D13Proposal 1 Version: D 6673-04
  7
STANDARD
  0
INSERT
  8
1
  2
BUY-383100-JF-BIG-T-SH-01_48
 10
0.0000
 20
0.0000
  0
INSERT
  8
1
  2
BUY-383100-JF-BIG-T-SH-02_48
 10
0.0000
 20
0.0000
  0
INSERT
  8
1
  2
BUY-383100-JF-BIG-T-SH-03LW_48
 10
0.0000
 20
0.0000
  0
INSERT
  8
1
  2
BUY-383100-JF-BIG-T-SH-06_48
 10
0.0000
 20
0.0000
  0
ENDSEC
  0
EOF
