  0
SECTION
  2
HEADER
  0
ENDSEC
  0
SECTION
  2
BLOCKS
  0
BLOCK
  8
0
  2
BUY-306929-SL-T-SH-01_32
 70
64
 10
0.0000
 20
0.0000
  0
TEXT
  8
1
 10
21.1961
 20
29.9449
 40
0.250
 50
0.0000
  1
Piece Name: BUY-306929-SL-T-SH-01
  7
STANDARD
  0
TEXT
  8
1
 10
21.1961
 20
30.0849
 40
0.250
 50
0.0000
  1
Quantity: 1,0
  7
STANDARD
  0
TEXT
  8
1
 10
21.1961
 20
30.2249
 40
0.250
 50
0.0000
  1
ANNOTATION
  7
STANDARD
  0
TEXT
  8
1
 10
21.1961
 20
30.3649
 40
0.250
 50
0.0000
  1
CATEGORY: 1
  7
STANDARD
  0
TEXT
  8
1
 10
21.1961
 20
30.5049
 40
0.250
 50
0.0000
  1
SIZE: 32
  7
STANDARD
  0
POLYLINE
  8
1
 66
1
 70
0
  0
VERTEX
  8
1
 10
35.4594
 20
23.5311
  0
VERTEX
  8
1
 10
35.3533
 20
23.5357
  0
VERTEX
  8
1
 10
34.3574
 20
23.6151
  0
VERTEX
  8
1
 10
33.2937
 20
23.7381
  0
VERTEX
  8
1
 10
30.6190
 20
24.0761
  0
VERTEX
  8
1
 10
27.9427
 20
24.4012
  0
VERTEX
  8
1
 10
25.5993
 20
24.6440
  0
VERTEX
  8
1
 10
23.8780
 20
24.7855
  0
VERTEX
  8
1
 10
22.1933
 20
24.9182
  0
VERTEX
  8
1
 10
20.6060
 20
25.0262
  0
VERTEX
  8
1
 10
20.6060
 20
25.0262
  0
VERTEX
  8
1
 10
1.5750
 20
25.6022
  0
VERTEX
  8
1
 10
1.5750
 20
25.6022
  0
VERTEX
  8
1
 10
0.0000
 20
25.5532
  0
SEQEND
  8
1
  0
POLYLINE
  8
84
 66
1
 70
0
  0
VERTEX
  8
84
 10
35.4594
 20
23.5311
  0
VERTEX
  8
84
 10
35.3533
 20
23.5357
  0
VERTEX
  8
84
 10
34.3574
 20
23.6151
  0
VERTEX
  8
84
 10
33.2937
 20
23.7381
  0
VERTEX
  8
84
 10
30.6190
 20
24.0761
  0
VERTEX
  8
84
 10
27.9427
 20
24.4012
  0
VERTEX
  8
84
 10
25.5993
 20
24.6440
  0
VERTEX
  8
84
 10
23.8780
 20
24.7855
  0
VERTEX
  8
84
 10
22.1933
 20
24.9182
  0
VERTEX
  8
84
 10
20.6060
 20
25.0262
  0
VERTEX
  8
84
 10
20.6060
 20
25.0262
  0
VERTEX
  8
84
 10
1.5750
 20
25.6022
  0
VERTEX
  8
84
 10
1.5750
 20
25.6022
  0
VERTEX
  8
84
 10
0.0000
 20
25.5532
  0
SEQEND
  8
84
  0
POINT
  8
2
 10
35.4594
 20
23.5311
  0
POINT
  8
4
 10
35.3533
 20
23.5357
 30
0.1181
 39
0.1771
  0
POINT
  8
3
 10
35.3533
 20
23.5357
  0
POINT
  8
3
 10
34.3574
 20
23.6151
  0
POINT
  8
4
 10
33.2937
 20
23.7381
 30
0.1181
 39
0.1771
  0
POINT
  8
3
 10
33.2937
 20
23.7381
  0
POINT
  8
3
 10
30.6190
 20
24.0761
  0
POINT
  8
3
 10
27.9427
 20
24.4012
  0
POINT
  8
3
 10
25.5993
 20
24.6440
  0
POINT
  8
3
 10
23.8780
 20
24.7855
  0
POINT
  8
3
 10
22.1933
 20
24.9182
  0
POINT
  8
2
 10
20.6060
 20
25.0262
  0
POINT
  8
4
 10
20.6060
 20
25.0262
 30
0.1181
 39
0.1771
  0
POINT
  8
2
 10
20.6060
 20
25.0262
  0
POINT
  8
2
 10
1.5750
 20
25.6022
  0
POINT
  8
4
 10
1.5750
 20
25.6022
 30
0.1181
 39
0.1771
 50
91.9313
  0
POINT
  8
2
 10
1.5750
 20
25.6022
  0
POINT
  8
2
 10
0.0000
 20
25.5532
  0
POLYLINE
  8
1
 66
1
 70
0
  0
VERTEX
  8
1
 10
0.0000
 20
25.5532
  0
VERTEX
  8
1
 10
0.0000
 20
26.0532
  0
VERTEX
  8
1
 10
0.0000
 20
29.7134
  0
VERTEX
  8
1
 10
0.0000
 20
33.3736
  0
VERTEX
  8
1
 10
0.0000
 20
33.8736
  0
SEQEND
  8
1
  0
POLYLINE
  8
84
 66
1
 70
0
  0
VERTEX
  8
84
 10
0.0000
 20
25.5532
  0
VERTEX
  8
84
 10
0.0000
 20
26.0532
  0
VERTEX
  8
84
 10
0.0000
 20
29.7134
  0
VERTEX
  8
84
 10
0.0000
 20
33.3736
  0
VERTEX
  8
84
 10
0.0000
 20
33.8736
  0
SEQEND
  8
84
  0
POINT
  8
2
 10
0.0000
 20
25.5532
  0
POINT
  8
4
 10
0.0000
 20
26.0532
 30
0.1181
 39
0.1771
  0
POINT
  8
3
 10
0.0000
 20
26.0532
  0
POINT
  8
81
 10
0.0000
 20
29.7134
 30
-0.3937
 39
1.9685
  0
POINT
  8
3
 10
0.0000
 20
29.7134
  0
POINT
  8
4
 10
0.0000
 20
33.3736
 30
0.1181
 39
0.1771
  0
POINT
  8
3
 10
0.0000
 20
33.3736
  0
POINT
  8
2
 10
0.0000
 20
33.8736
  0
POLYLINE
  8
1
 66
1
 70
0
  0
VERTEX
  8
1
 10
0.0000
 20
33.8736
  0
VERTEX
  8
1
 10
1.5750
 20
33.8246
  0
VERTEX
  8
1
 10
1.5750
 20
33.8246
  0
VERTEX
  8
1
 10
20.6059
 20
34.4006
  0
VERTEX
  8
1
 10
20.6059
 20
34.4006
  0
VERTEX
  8
1
 10
22.1978
 20
34.5092
  0
VERTEX
  8
1
 10
23.8780
 20
34.6433
  0
VERTEX
  8
1
 10
25.3179
 20
34.7734
  0
VERTEX
  8
1
 10
26.4847
 20
34.9262
  0
VERTEX
  8
1
 10
27.6477
 20
35.1052
  0
VERTEX
  8
1
 10
29.0270
 20
35.3597
  0
VERTEX
  8
1
 10
30.4096
 20
35.6430
  0
VERTEX
  8
1
 10
31.8251
 20
35.9332
  0
VERTEX
  8
1
 10
33.8592
 20
36.3588
  0
SEQEND
  8
1
  0
POLYLINE
  8
84
 66
1
 70
0
  0
VERTEX
  8
84
 10
0.0000
 20
33.8736
  0
VERTEX
  8
84
 10
1.5750
 20
33.8246
  0
VERTEX
  8
84
 10
1.5750
 20
33.8246
  0
VERTEX
  8
84
 10
20.6059
 20
34.4006
  0
VERTEX
  8
84
 10
20.6059
 20
34.4006
  0
VERTEX
  8
84
 10
22.1978
 20
34.5092
  0
VERTEX
  8
84
 10
23.8780
 20
34.6433
  0
VERTEX
  8
84
 10
25.3179
 20
34.7734
  0
VERTEX
  8
84
 10
26.4847
 20
34.9262
  0
VERTEX
  8
84
 10
27.6477
 20
35.1052
  0
VERTEX
  8
84
 10
29.0270
 20
35.3597
  0
VERTEX
  8
84
 10
30.4096
 20
35.6430
  0
VERTEX
  8
84
 10
31.8251
 20
35.9332
  0
VERTEX
  8
84
 10
33.8592
 20
36.3588
  0
SEQEND
  8
84
  0
POINT
  8
2
 10
0.0000
 20
33.8736
  0
POINT
  8
2
 10
1.5750
 20
33.8246
  0
POINT
  8
4
 10
1.5750
 20
33.8246
 30
0.1181
 39
0.1771
 50
-91.9313
  0
POINT
  8
2
 10
1.5750
 20
33.8246
  0
POINT
  8
2
 10
20.6059
 20
34.4006
  0
POINT
  8
4
 10
20.6059
 20
34.4006
 30
0.1181
 39
0.1771
  0
POINT
  8
2
 10
20.6059
 20
34.4006
  0
POINT
  8
3
 10
22.1978
 20
34.5092
  0
POINT
  8
3
 10
23.8780
 20
34.6433
  0
POINT
  8
3
 10
25.3179
 20
34.7734
  0
POINT
  8
3
 10
26.4847
 20
34.9262
  0
POINT
  8
3
 10
27.6477
 20
35.1052
  0
POINT
  8
3
 10
29.0270
 20
35.3597
  0
POINT
  8
3
 10
30.4096
 20
35.6430
  0
POINT
  8
3
 10
31.8251
 20
35.9332
  0
POINT
  8
2
 10
33.8592
 20
36.3588
  0
POLYLINE
  8
1
 66
1
 70
0
  0
VERTEX
  8
1
 10
33.8592
 20
36.3588
  0
VERTEX
  8
1
 10
34.0805
 20
35.8915
  0
VERTEX
  8
1
 10
34.0805
 20
35.8915
  0
VERTEX
  8
1
 10
34.1671
 20
35.7111
  0
VERTEX
  8
1
 10
34.3126
 20
35.4425
  0
VERTEX
  8
1
 10
34.4710
 20
35.1814
  0
VERTEX
  8
1
 10
34.6489
 20
34.9463
  0
VERTEX
  8
1
 10
34.8661
 20
34.7300
  0
VERTEX
  8
1
 10
35.1374
 20
34.5394
  0
VERTEX
  8
1
 10
35.4812
 20
34.4008
  0
VERTEX
  8
1
 10
35.7010
 20
34.3486
  0
VERTEX
  8
1
 10
35.9697
 20
34.3119
  0
VERTEX
  8
1
 10
42.3297
 20
33.6937
  0
SEQEND
  8
1
  0
POLYLINE
  8
84
 66
1
 70
0
  0
VERTEX
  8
84
 10
33.8592
 20
36.3588
  0
VERTEX
  8
84
 10
34.0805
 20
35.8915
  0
VERTEX
  8
84
 10
34.0805
 20
35.8915
  0
VERTEX
  8
84
 10
34.1671
 20
35.7111
  0
VERTEX
  8
84
 10
34.3126
 20
35.4425
  0
VERTEX
  8
84
 10
34.4710
 20
35.1814
  0
VERTEX
  8
84
 10
34.6489
 20
34.9463
  0
VERTEX
  8
84
 10
34.8661
 20
34.7300
  0
VERTEX
  8
84
 10
34.9971
 20
34.6279
  0
VERTEX
  8
84
 10
35.1374
 20
34.5394
  0
VERTEX
  8
84
 10
35.3059
 20
34.4621
  0
VERTEX
  8
84
 10
35.4812
 20
34.4008
  0
VERTEX
  8
84
 10
35.7010
 20
34.3486
  0
VERTEX
  8
84
 10
35.9697
 20
34.3119
  0
VERTEX
  8
84
 10
42.3297
 20
33.6937
  0
SEQEND
  8
84
  0
POINT
  8
2
 10
33.8592
 20
36.3588
  0
POINT
  8
2
 10
34.0805
 20
35.8915
  0
POINT
  8
4
 10
34.0805
 20
35.8915
 30
0.1181
 39
0.1771
 50
-169.2924
  0
POINT
  8
2
 10
34.0805
 20
35.8915
  0
POINT
  8
3
 10
34.1671
 20
35.7111
  0
POINT
  8
3
 10
34.3126
 20
35.4425
  0
POINT
  8
3
 10
34.4710
 20
35.1814
  0
POINT
  8
3
 10
34.6489
 20
34.9463
  0
POINT
  8
3
 10
34.8661
 20
34.7300
  0
POINT
  8
3
 10
35.1374
 20
34.5394
  0
POINT
  8
3
 10
35.4812
 20
34.4008
  0
POINT
  8
3
 10
35.7010
 20
34.3486
  0
POINT
  8
4
 10
35.9697
 20
34.3119
 30
0.1181
 39
0.1771
  0
POINT
  8
2
 10
35.9697
 20
34.3119
  0
POINT
  8
2
 10
42.3297
 20
33.6937
  0
POLYLINE
  8
1
 66
1
 70
0
  0
VERTEX
  8
1
 10
42.3297
 20
33.6937
  0
VERTEX
  8
1
 10
42.2472
 20
32.7368
  0
VERTEX
  8
1
 10
42.1864
 20
31.9708
  0
VERTEX
  8
1
 10
42.1388
 20
31.2036
  0
VERTEX
  8
1
 10
42.1231
 20
30.4594
  0
VERTEX
  8
1
 10
42.1291
 20
29.7460
  0
VERTEX
  8
1
 10
42.1586
 20
29.1173
  0
VERTEX
  8
1
 10
42.2363
 20
27.8122
  0
VERTEX
  8
1
 10
42.3387
 20
26.4970
  0
VERTEX
  8
1
 10
42.3387
 20
26.4970
  0
VERTEX
  8
1
 10
42.3922
 20
25.9855
  0
SEQEND
  8
1
  0
POLYLINE
  8
84
 66
1
 70
0
  0
VERTEX
  8
84
 10
42.3297
 20
33.6937
  0
VERTEX
  8
84
 10
42.2472
 20
32.7368
  0
VERTEX
  8
84
 10
42.1864
 20
31.9708
  0
VERTEX
  8
84
 10
42.1388
 20
31.2036
  0
VERTEX
  8
84
 10
42.1231
 20
30.4594
  0
VERTEX
  8
84
 10
42.1291
 20
29.7460
  0
VERTEX
  8
84
 10
42.1586
 20
29.1173
  0
VERTEX
  8
84
 10
42.2363
 20
27.8122
  0
VERTEX
  8
84
 10
42.3387
 20
26.4970
  0
VERTEX
  8
84
 10
42.3387
 20
26.4970
  0
VERTEX
  8
84
 10
42.3922
 20
25.9855
  0
SEQEND
  8
84
  0
POINT
  8
2
 10
42.3297
 20
33.6937
  0
POINT
  8
3
 10
42.2472
 20
32.7368
  0
POINT
  8
3
 10
42.1864
 20
31.9708
  0
POINT
  8
3
 10
42.1388
 20
31.2036
  0
POINT
  8
3
 10
42.1231
 20
30.4594
  0
POINT
  8
3
 10
42.1291
 20
29.7460
  0
POINT
  8
4
 10
42.1586
 20
29.1173
 30
0.1181
 39
0.1771
  0
POINT
  8
3
 10
42.1586
 20
29.1173
  0
POINT
  8
3
 10
42.2363
 20
27.8122
  0
POINT
  8
2
 10
42.3387
 20
26.4970
  0
POINT
  8
4
 10
42.3387
 20
26.4970
 30
0.1181
 39
0.1771
 50
-160.8838
  0
POINT
  8
2
 10
42.3387
 20
26.4970
  0
POINT
  8
2
 10
42.3922
 20
25.9855
  0
POLYLINE
  8
1
 66
1
 70
0
  0
VERTEX
  8
1
 10
42.3922
 20
25.9855
  0
VERTEX
  8
1
 10
35.4594
 20
23.5311
  0
SEQEND
  8
1
  0
POLYLINE
  8
84
 66
1
 70
0
  0
VERTEX
  8
84
 10
42.3922
 20
25.9855
  0
VERTEX
  8
84
 10
35.4594
 20
23.5311
  0
SEQEND
  8
84
  0
POINT
  8
2
 10
42.3922
 20
25.9855
  0
POINT
  8
2
 10
35.4594
 20
23.5311
  0
LINE
  8
7
 10
10.1244
 20
29.7134
 11
25.7064
 21
29.7134
  0
LINE
  8
5
 10
10.1244
 20
29.7134
 11
25.7064
 21
29.7134
  0
POINT
  8
2
 10
10.1244
 20
29.7134
  0
POINT
  8
2
 10
25.7064
 20
29.7134
  0
LINE
  8
8
 10
20.6266
 20
25.5260
 11
20.6266
 21
33.9010
  0
POLYLINE
  8
85
 66
1
 70
0
  0
VERTEX
  8
85
 10
20.6266
 20
25.5260
  0
VERTEX
  8
85
 10
20.6266
 20
33.9010
  0
SEQEND
  8
85
  0
TEXT
  8
8
 10
20.6266
 20
25.5260
 40
0.250
 50
0.0000
  1
NM
  7
STANDARD
  0
TEXT
  8
85
 10
20.6266
 20
25.5260
 40
0.250
 50
0.0000
  1
NM
  7
STANDARD
  0
POINT
  8
2
 10
20.6266
 20
25.5260
  0
POINT
  8
2
 10
20.6266
 20
33.9010
  0
LINE
  8
8
 10
35.8016
 20
33.9372
 11
36.0105
 21
24.0089
  0
POLYLINE
  8
85
 66
1
 70
0
  0
VERTEX
  8
85
 10
35.8016
 20
33.9372
  0
VERTEX
  8
85
 10
36.0105
 20
24.0089
  0
SEQEND
  8
85
  0
TEXT
  8
8
 10
35.8016
 20
33.9372
 40
0.250
 50
0.0000
  1
NM
  7
STANDARD
  0
TEXT
  8
85
 10
35.8016
 20
33.9372
 40
0.250
 50
0.0000
  1
NM
  7
STANDARD
  0
POINT
  8
2
 10
35.8016
 20
33.9372
  0
POINT
  8
2
 10
36.0105
 20
24.0089
  0
LINE
  8
8
 10
33.2927
 20
35.7303
 11
33.2927
 21
24.2421
  0
POLYLINE
  8
85
 66
1
 70
0
  0
VERTEX
  8
85
 10
33.2927
 20
35.7303
  0
VERTEX
  8
85
 10
33.2927
 20
24.2421
  0
SEQEND
  8
85
  0
TEXT
  8
8
 10
33.2927
 20
35.7303
 40
0.250
 50
0.0000
  1
NM
  7
STANDARD
  0
TEXT
  8
85
 10
33.2927
 20
35.7303
 40
0.250
 50
0.0000
  1
NM
  7
STANDARD
  0
POINT
  8
2
 10
33.2927
 20
35.7303
  0
POINT
  8
2
 10
33.2927
 20
24.2421
  0
LINE
  8
8
 10
29.2833
 20
32.0025
 11
30.7833
 21
32.0025
  0
POLYLINE
  8
85
 66
1
 70
0
  0
VERTEX
  8
85
 10
29.2833
 20
32.0025
  0
VERTEX
  8
85
 10
30.7833
 20
32.0025
  0
SEQEND
  8
85
  0
TEXT
  8
8
 10
29.2833
 20
32.0025
 40
0.250
 50
0.0000
  1
NM
  7
STANDARD
  0
TEXT
  8
85
 10
29.2833
 20
32.0025
 40
0.250
 50
0.0000
  1
NM
  7
STANDARD
  0
POINT
  8
2
 10
29.2833
 20
32.0025
  0
POINT
  8
2
 10
30.7833
 20
32.0025
  0
LINE
  8
10
 10
20.6305
 20
25.5257
 11
20.6305
 21
25.0245
  0
TEXT
  8
10
 10
20.6305
 20
25.5257
 40
0.250
 50
0.0000
  1
1
  7
STANDARD
  0
POINT
  8
2
 10
20.6305
 20
25.5257
  0
POINT
  8
2
 10
20.6305
 20
25.0245
  0
LINE
  8
10
 10
1.5750
 20
25.7594
 11
1.5750
 21
25.9697
  0
TEXT
  8
10
 10
1.5750
 20
25.7594
 40
0.250
 50
0.0000
  1
6
  7
STANDARD
  0
POINT
  8
2
 10
1.5750
 20
25.7594
  0
POINT
  8
2
 10
1.5750
 20
25.9697
  0
ATTDEF
  8
14
 10
33.7248
 20
35.7219
 11
33.6803
 21
35.8158
 40
.25
  1
Link:4
  2
Dependency
  3

 70
2
 72
3
  0
ATTDEF
  8
14
 10
41.9462
 20
26.4612
 11
41.9564
 21
26.3645
 40
.25
  1
Link:4
  2
Dependency
  3

 70
2
 72
3
  0
ENDBLK
  0
BLOCK
  8
0
  2
BUY-306929-SL-T-SH-02_32
 70
64
 10
0.0000
 20
0.0000
  0
TEXT
  8
1
 10
64.8040
 20
28.0141
 40
0.250
 50
0.0000
  1
Piece Name: BUY-306929-SL-T-SH-02
  7
STANDARD
  0
TEXT
  8
1
 10
64.8040
 20
28.1541
 40
0.250
 50
0.0000
  1
Quantity: 1,0
  7
STANDARD
  0
TEXT
  8
1
 10
64.8040
 20
28.2941
 40
0.250
 50
0.0000
  1
ANNOTATION
  7
STANDARD
  0
TEXT
  8
1
 10
64.8040
 20
28.4341
 40
0.250
 50
0.0000
  1
CATEGORY: 2
  7
STANDARD
  0
TEXT
  8
1
 10
64.8040
 20
28.5741
 40
0.250
 50
0.0000
  1
SIZE: 32
  7
STANDARD
  0
POLYLINE
  8
1
 66
1
 70
0
  0
VERTEX
  8
1
 10
85.4360
 20
36.3292
  0
VERTEX
  8
1
 10
85.4840
 20
35.5396
  0
VERTEX
  8
1
 10
85.5543
 20
34.8087
  0
VERTEX
  8
1
 10
85.5693
 20
34.6915
  0
VERTEX
  8
1
 10
85.6933
 20
33.8244
  0
VERTEX
  8
1
 10
85.8940
 20
32.8579
  0
VERTEX
  8
1
 10
86.1267
 20
31.7307
  0
SEQEND
  8
1
  0
POLYLINE
  8
84
 66
1
 70
0
  0
VERTEX
  8
84
 10
85.4360
 20
36.3292
  0
VERTEX
  8
84
 10
85.4840
 20
35.5396
  0
VERTEX
  8
84
 10
85.5543
 20
34.8087
  0
VERTEX
  8
84
 10
85.5693
 20
34.6915
  0
VERTEX
  8
84
 10
85.6933
 20
33.8244
  0
VERTEX
  8
84
 10
85.8940
 20
32.8579
  0
VERTEX
  8
84
 10
86.1267
 20
31.7307
  0
SEQEND
  8
84
  0
POINT
  8
2
 10
85.4360
 20
36.3292
  0
POINT
  8
3
 10
85.4840
 20
35.5396
  0
POINT
  8
3
 10
85.5543
 20
34.8087
  0
POINT
  8
4
 10
85.5693
 20
34.6915
 30
0.1181
 39
0.1771
  0
POINT
  8
3
 10
85.5693
 20
34.6915
  0
POINT
  8
3
 10
85.6933
 20
33.8244
  0
POINT
  8
3
 10
85.8940
 20
32.8579
  0
POINT
  8
4
 10
86.1267
 20
31.7307
 30
0.1181
 39
0.0000
 50
-161.3132
  0
POINT
  8
2
 10
86.1267
 20
31.7307
  0
POLYLINE
  8
1
 66
1
 70
0
  0
VERTEX
  8
1
 10
86.1267
 20
31.7307
  0
VERTEX
  8
1
 10
86.3274
 20
31.3138
  0
VERTEX
  8
1
 10
86.2563
 20
30.8649
  0
SEQEND
  8
1
  0
POLYLINE
  8
84
 66
1
 70
0
  0
VERTEX
  8
84
 10
86.1267
 20
31.7307
  0
VERTEX
  8
84
 10
86.3274
 20
31.3138
  0
VERTEX
  8
84
 10
86.2563
 20
30.8649
  0
SEQEND
  8
84
  0
POINT
  8
4
 10
86.1267
 20
31.7307
 30
0.1181
 39
0.0000
 50
-161.3132
  0
POINT
  8
2
 10
86.1267
 20
31.7307
  0
POINT
  8
4
 10
86.3274
 20
31.3138
 30
0.1181
 39
0.0000
  0
POINT
  8
2
 10
86.3274
 20
31.3138
  0
POINT
  8
4
 10
86.2563
 20
30.8649
 30
0.1181
 39
0.0000
 50
175.6988
  0
POINT
  8
2
 10
86.2563
 20
30.8649
  0
POLYLINE
  8
1
 66
1
 70
0
  0
VERTEX
  8
1
 10
86.2563
 20
30.8649
  0
VERTEX
  8
1
 10
86.2642
 20
29.7113
  0
VERTEX
  8
1
 10
86.2898
 20
28.8426
  0
VERTEX
  8
1
 10
86.2933
 20
28.7245
  0
VERTEX
  8
1
 10
86.4003
 20
27.5613
  0
VERTEX
  8
1
 10
86.5165
 20
26.4977
  0
VERTEX
  8
1
 10
86.5165
 20
26.4977
  0
VERTEX
  8
1
 10
86.5293
 20
26.3803
  0
VERTEX
  8
1
 10
86.7159
 20
25.6356
  0
SEQEND
  8
1
  0
POLYLINE
  8
84
 66
1
 70
0
  0
VERTEX
  8
84
 10
86.2563
 20
30.8649
  0
VERTEX
  8
84
 10
86.2642
 20
29.7113
  0
VERTEX
  8
84
 10
86.2898
 20
28.8426
  0
VERTEX
  8
84
 10
86.2933
 20
28.7245
  0
VERTEX
  8
84
 10
86.4003
 20
27.5613
  0
VERTEX
  8
84
 10
86.5165
 20
26.4977
  0
VERTEX
  8
84
 10
86.5165
 20
26.4977
  0
VERTEX
  8
84
 10
86.5293
 20
26.3803
  0
VERTEX
  8
84
 10
86.7159
 20
25.6356
  0
SEQEND
  8
84
  0
POINT
  8
4
 10
86.2563
 20
30.8649
 30
0.1181
 39
0.0000
 50
175.6988
  0
POINT
  8
2
 10
86.2563
 20
30.8649
  0
POINT
  8
3
 10
86.2642
 20
29.7113
  0
POINT
  8
4
 10
86.2898
 20
28.8426
 30
0.1181
 39
0.1771
  0
POINT
  8
3
 10
86.2898
 20
28.8426
  0
POINT
  8
3
 10
86.2933
 20
28.7245
  0
POINT
  8
3
 10
86.4003
 20
27.5613
  0
POINT
  8
2
 10
86.5165
 20
26.4977
  0
POINT
  8
4
 10
86.5165
 20
26.4977
 30
0.1181
 39
0.1771
 50
-174.5254
  0
POINT
  8
2
 10
86.5165
 20
26.4977
  0
POINT
  8
2
 10
86.5293
 20
26.3803
  0
POINT
  8
2
 10
86.7159
 20
25.6356
  0
POLYLINE
  8
1
 66
1
 70
0
  0
VERTEX
  8
1
 10
86.7159
 20
25.6356
  0
VERTEX
  8
1
 10
79.6249
 20
24.6101
  0
VERTEX
  8
1
 10
78.8360
 20
24.4718
  0
VERTEX
  8
1
 10
78.3896
 20
24.3663
  0
VERTEX
  8
1
 10
77.9537
 20
24.2072
  0
VERTEX
  8
1
 10
77.7437
 20
24.0881
  0
VERTEX
  8
1
 10
77.5491
 20
23.9455
  0
VERTEX
  8
1
 10
77.3672
 20
23.7685
  0
VERTEX
  8
1
 10
77.2073
 20
23.5712
  0
VERTEX
  8
1
 10
76.9544
 20
23.1219
  0
VERTEX
  8
1
 10
76.7578
 20
22.5728
  0
VERTEX
  8
1
 10
76.6551
 20
22.1230
  0
VERTEX
  8
1
 10
76.5570
 20
21.6127
  0
VERTEX
  8
1
 10
76.4178
 20
20.7240
  0
VERTEX
  8
1
 10
76.3361
 20
20.0976
  0
VERTEX
  8
1
 10
76.0527
 20
19.6695
  0
SEQEND
  8
1
  0
POLYLINE
  8
84
 66
1
 70
0
  0
VERTEX
  8
84
 10
86.7159
 20
25.6356
  0
VERTEX
  8
84
 10
79.6249
 20
24.6101
  0
VERTEX
  8
84
 10
78.8360
 20
24.4718
  0
VERTEX
  8
84
 10
78.3896
 20
24.3663
  0
VERTEX
  8
84
 10
78.1688
 20
24.2942
  0
VERTEX
  8
84
 10
77.9537
 20
24.2072
  0
VERTEX
  8
84
 10
77.7437
 20
24.0881
  0
VERTEX
  8
84
 10
77.5491
 20
23.9455
  0
VERTEX
  8
84
 10
77.3672
 20
23.7685
  0
VERTEX
  8
84
 10
77.2073
 20
23.5712
  0
VERTEX
  8
84
 10
77.0716
 20
23.3517
  0
VERTEX
  8
84
 10
76.9544
 20
23.1219
  0
VERTEX
  8
84
 10
76.8465
 20
22.8509
  0
VERTEX
  8
84
 10
76.7578
 20
22.5728
  0
VERTEX
  8
84
 10
76.6551
 20
22.1230
  0
VERTEX
  8
84
 10
76.5570
 20
21.6127
  0
VERTEX
  8
84
 10
76.4178
 20
20.7240
  0
VERTEX
  8
84
 10
76.3361
 20
20.0976
  0
VERTEX
  8
84
 10
76.0527
 20
19.6695
  0
SEQEND
  8
84
  0
POINT
  8
2
 10
86.7159
 20
25.6356
  0
POINT
  8
4
 10
79.6249
 20
24.6101
 30
0.1181
 39
0.1771
 50
88.6190
  0
POINT
  8
2
 10
79.6249
 20
24.6101
  0
POINT
  8
3
 10
78.8360
 20
24.4718
  0
POINT
  8
3
 10
78.3896
 20
24.3663
  0
POINT
  8
3
 10
77.9537
 20
24.2072
  0
POINT
  8
3
 10
77.7437
 20
24.0881
  0
POINT
  8
3
 10
77.5491
 20
23.9455
  0
POINT
  8
3
 10
77.3672
 20
23.7685
  0
POINT
  8
3
 10
77.2073
 20
23.5712
  0
POINT
  8
3
 10
76.9544
 20
23.1219
  0
POINT
  8
3
 10
76.7578
 20
22.5728
  0
POINT
  8
3
 10
76.6551
 20
22.1230
  0
POINT
  8
3
 10
76.5570
 20
21.6127
  0
POINT
  8
3
 10
76.4178
 20
20.7240
  0
POINT
  8
2
 10
76.3361
 20
20.0976
  0
POINT
  8
2
 10
76.0527
 20
19.6695
  0
POLYLINE
  8
1
 66
1
 70
0
  0
VERTEX
  8
1
 10
76.0527
 20
19.6695
  0
VERTEX
  8
1
 10
73.3425
 20
20.6761
  0
VERTEX
  8
1
 10
71.1671
 20
21.4707
  0
VERTEX
  8
1
 10
69.3112
 20
22.0970
  0
VERTEX
  8
1
 10
68.0673
 20
22.4736
  0
VERTEX
  8
1
 10
67.0442
 20
22.7556
  0
VERTEX
  8
1
 10
66.1488
 20
22.9649
  0
VERTEX
  8
1
 10
64.3753
 20
23.2861
  0
VERTEX
  8
1
 10
63.4981
 20
23.3675
  0
VERTEX
  8
1
 10
63.4981
 20
23.3675
  0
VERTEX
  8
1
 10
44.4671
 20
23.9435
  0
VERTEX
  8
1
 10
44.4671
 20
23.9435
  0
VERTEX
  8
1
 10
42.8921
 20
23.8953
  0
SEQEND
  8
1
  0
POLYLINE
  8
84
 66
1
 70
0
  0
VERTEX
  8
84
 10
76.0527
 20
19.6695
  0
VERTEX
  8
84
 10
73.3425
 20
20.6761
  0
VERTEX
  8
84
 10
71.1671
 20
21.4707
  0
VERTEX
  8
84
 10
70.2413
 20
21.7902
  0
VERTEX
  8
84
 10
69.3112
 20
22.0970
  0
VERTEX
  8
84
 10
68.0673
 20
22.4736
  0
VERTEX
  8
84
 10
67.0442
 20
22.7556
  0
VERTEX
  8
84
 10
66.1488
 20
22.9649
  0
VERTEX
  8
84
 10
65.2646
 20
23.1404
  0
VERTEX
  8
84
 10
64.3753
 20
23.2861
  0
VERTEX
  8
84
 10
63.4981
 20
23.3675
  0
VERTEX
  8
84
 10
63.4981
 20
23.3675
  0
VERTEX
  8
84
 10
44.4671
 20
23.9435
  0
VERTEX
  8
84
 10
44.4671
 20
23.9435
  0
VERTEX
  8
84
 10
42.8921
 20
23.8953
  0
SEQEND
  8
84
  0
POINT
  8
2
 10
76.0527
 20
19.6695
  0
POINT
  8
3
 10
73.3425
 20
20.6761
  0
POINT
  8
3
 10
71.1671
 20
21.4707
  0
POINT
  8
3
 10
69.3112
 20
22.0970
  0
POINT
  8
3
 10
68.0673
 20
22.4736
  0
POINT
  8
3
 10
67.0442
 20
22.7556
  0
POINT
  8
3
 10
66.1488
 20
22.9649
  0
POINT
  8
3
 10
64.3753
 20
23.2861
  0
POINT
  8
2
 10
63.4981
 20
23.3675
  0
POINT
  8
4
 10
63.4981
 20
23.3675
 30
0.1181
 39
0.1771
  0
POINT
  8
2
 10
63.4981
 20
23.3675
  0
POINT
  8
2
 10
44.4671
 20
23.9435
  0
POINT
  8
4
 10
44.4671
 20
23.9435
 30
0.1181
 39
0.1771
 50
91.8967
  0
POINT
  8
2
 10
44.4671
 20
23.9435
  0
POINT
  8
2
 10
42.8921
 20
23.8953
  0
POLYLINE
  8
1
 66
1
 70
0
  0
VERTEX
  8
1
 10
42.8921
 20
23.8953
  0
VERTEX
  8
1
 10
42.8921
 20
24.3953
  0
VERTEX
  8
1
 10
42.8921
 20
28.6788
  0
VERTEX
  8
1
 10
42.8921
 20
32.9633
  0
VERTEX
  8
1
 10
42.8921
 20
33.4633
  0
SEQEND
  8
1
  0
POLYLINE
  8
84
 66
1
 70
0
  0
VERTEX
  8
84
 10
42.8921
 20
23.8953
  0
VERTEX
  8
84
 10
42.8921
 20
24.3953
  0
VERTEX
  8
84
 10
42.8921
 20
28.6788
  0
VERTEX
  8
84
 10
42.8921
 20
32.9633
  0
VERTEX
  8
84
 10
42.8921
 20
33.4633
  0
SEQEND
  8
84
  0
POINT
  8
2
 10
42.8921
 20
23.8953
  0
POINT
  8
4
 10
42.8921
 20
24.3953
 30
0.1181
 39
0.1771
  0
POINT
  8
3
 10
42.8921
 20
24.3953
  0
POINT
  8
81
 10
42.8921
 20
28.6788
 30
-0.3937
 39
1.9685
  0
POINT
  8
3
 10
42.8921
 20
28.6788
  0
POINT
  8
4
 10
42.8921
 20
32.9633
 30
0.1181
 39
0.1771
  0
POINT
  8
3
 10
42.8921
 20
32.9633
  0
POINT
  8
2
 10
42.8921
 20
33.4633
  0
POLYLINE
  8
1
 66
1
 70
0
  0
VERTEX
  8
1
 10
42.8921
 20
33.4633
  0
VERTEX
  8
1
 10
44.4675
 20
33.4141
  0
VERTEX
  8
1
 10
44.4675
 20
33.4141
  0
VERTEX
  8
1
 10
63.4923
 20
33.9932
  0
VERTEX
  8
1
 10
63.4923
 20
33.9932
  0
VERTEX
  8
1
 10
65.0492
 20
34.1342
  0
VERTEX
  8
1
 10
66.6585
 20
34.3295
  0
VERTEX
  8
1
 10
68.2650
 20
34.5449
  0
VERTEX
  8
1
 10
69.8697
 20
34.7739
  0
VERTEX
  8
1
 10
71.4717
 20
35.0212
  0
VERTEX
  8
1
 10
73.0240
 20
35.2937
  0
VERTEX
  8
1
 10
74.5637
 20
35.5623
  0
VERTEX
  8
1
 10
76.1368
 20
35.8214
  0
VERTEX
  8
1
 10
77.6554
 20
36.0174
  0
VERTEX
  8
1
 10
78.8537
 20
36.1554
  0
VERTEX
  8
1
 10
80.1978
 20
36.2591
  0
VERTEX
  8
1
 10
82.2659
 20
36.3473
  0
VERTEX
  8
1
 10
83.6879
 20
36.3588
  0
VERTEX
  8
1
 10
85.4360
 20
36.3292
  0
SEQEND
  8
1
  0
POLYLINE
  8
84
 66
1
 70
0
  0
VERTEX
  8
84
 10
42.8921
 20
33.4633
  0
VERTEX
  8
84
 10
44.4675
 20
33.4141
  0
VERTEX
  8
84
 10
44.4675
 20
33.4141
  0
VERTEX
  8
84
 10
63.4923
 20
33.9932
  0
VERTEX
  8
84
 10
63.4923
 20
33.9932
  0
VERTEX
  8
84
 10
65.0492
 20
34.1342
  0
VERTEX
  8
84
 10
66.6585
 20
34.3295
  0
VERTEX
  8
84
 10
68.2650
 20
34.5449
  0
VERTEX
  8
84
 10
69.8697
 20
34.7739
  0
VERTEX
  8
84
 10
71.4717
 20
35.0212
  0
VERTEX
  8
84
 10
73.0240
 20
35.2937
  0
VERTEX
  8
84
 10
74.5637
 20
35.5623
  0
VERTEX
  8
84
 10
76.1368
 20
35.8214
  0
VERTEX
  8
84
 10
77.6554
 20
36.0174
  0
VERTEX
  8
84
 10
78.8537
 20
36.1554
  0
VERTEX
  8
84
 10
80.1978
 20
36.2591
  0
VERTEX
  8
84
 10
81.2315
 20
36.3119
  0
VERTEX
  8
84
 10
82.2659
 20
36.3473
  0
VERTEX
  8
84
 10
83.6879
 20
36.3588
  0
VERTEX
  8
84
 10
85.4360
 20
36.3292
  0
SEQEND
  8
84
  0
POINT
  8
2
 10
42.8921
 20
33.4633
  0
POINT
  8
2
 10
44.4675
 20
33.4141
  0
POINT
  8
4
 10
44.4675
 20
33.4141
 30
0.1181
 39
0.1771
 50
-91.9485
  0
POINT
  8
2
 10
44.4675
 20
33.4141
  0
POINT
  8
2
 10
63.4923
 20
33.9932
  0
POINT
  8
4
 10
63.4923
 20
33.9932
 30
0.1181
 39
0.1771
  0
POINT
  8
2
 10
63.4923
 20
33.9932
  0
POINT
  8
3
 10
65.0492
 20
34.1342
  0
POINT
  8
3
 10
66.6585
 20
34.3295
  0
POINT
  8
3
 10
68.2650
 20
34.5449
  0
POINT
  8
3
 10
69.8697
 20
34.7739
  0
POINT
  8
3
 10
71.4717
 20
35.0212
  0
POINT
  8
3
 10
73.0240
 20
35.2937
  0
POINT
  8
3
 10
74.5637
 20
35.5623
  0
POINT
  8
4
 10
76.1368
 20
35.8214
 30
0.1181
 39
0.1771
  0
POINT
  8
3
 10
76.1368
 20
35.8214
  0
POINT
  8
3
 10
77.6554
 20
36.0174
  0
POINT
  8
3
 10
78.8537
 20
36.1554
  0
POINT
  8
3
 10
80.1978
 20
36.2591
  0
POINT
  8
3
 10
82.2659
 20
36.3473
  0
POINT
  8
3
 10
83.6879
 20
36.3588
  0
POINT
  8
2
 10
85.4360
 20
36.3292
  0
LINE
  8
7
 10
53.0164
 20
28.6788
 11
68.5984
 21
28.6788
  0
LINE
  8
5
 10
53.0164
 20
28.6788
 11
68.5984
 21
28.6788
  0
POINT
  8
2
 10
53.0164
 20
28.6788
  0
POINT
  8
2
 10
68.5984
 20
28.6788
  0
LINE
  8
8
 10
79.5820
 20
25.1104
 11
78.8867
 21
35.6559
  0
POLYLINE
  8
85
 66
1
 70
0
  0
VERTEX
  8
85
 10
79.5820
 20
25.1104
  0
VERTEX
  8
85
 10
78.8867
 20
35.6559
  0
SEQEND
  8
85
  0
TEXT
  8
8
 10
79.5820
 20
25.1104
 40
0.250
 50
0.0000
  1
NM
  7
STANDARD
  0
TEXT
  8
85
 10
79.5820
 20
25.1104
 40
0.250
 50
0.0000
  1
NM
  7
STANDARD
  0
POINT
  8
2
 10
79.5820
 20
25.1104
  0
POINT
  8
2
 10
78.8867
 20
35.6559
  0
LINE
  8
8
 10
75.5302
 20
20.3955
 11
76.2563
 21
35.3330
  0
POLYLINE
  8
85
 66
1
 70
0
  0
VERTEX
  8
85
 10
75.5302
 20
20.3955
  0
VERTEX
  8
85
 10
76.2563
 20
35.3330
  0
SEQEND
  8
85
  0
TEXT
  8
8
 10
75.5302
 20
20.3955
 40
0.250
 50
0.0000
  1
NM
  7
STANDARD
  0
TEXT
  8
85
 10
75.5302
 20
20.3955
 40
0.250
 50
0.0000
  1
NM
  7
STANDARD
  0
POINT
  8
2
 10
75.5302
 20
20.3955
  0
POINT
  8
2
 10
76.2563
 20
35.3330
  0
LINE
  8
8
 10
85.8991
 20
31.2634
 11
83.1670
 21
30.9420
  0
POLYLINE
  8
85
 66
1
 70
0
  0
VERTEX
  8
85
 10
85.8991
 20
31.2634
  0
VERTEX
  8
85
 10
83.1670
 20
30.9420
  0
SEQEND
  8
85
  0
TEXT
  8
8
 10
85.8991
 20
31.2634
 40
0.250
 50
0.0000
  1
NM
  7
STANDARD
  0
TEXT
  8
85
 10
85.8991
 20
31.2634
 40
0.250
 50
0.0000
  1
NM
  7
STANDARD
  0
POINT
  8
2
 10
85.8991
 20
31.2634
  0
POINT
  8
2
 10
83.1670
 20
30.9420
  0
LINE
  8
8
 10
83.1670
 20
30.9420
 11
85.7507
 21
31.6035
  0
POLYLINE
  8
85
 66
1
 70
0
  0
VERTEX
  8
85
 10
83.1670
 20
30.9420
  0
VERTEX
  8
85
 10
85.7507
 20
31.6035
  0
SEQEND
  8
85
  0
TEXT
  8
8
 10
83.1670
 20
30.9420
 40
0.250
 50
0.0000
  1
NM
  7
STANDARD
  0
TEXT
  8
85
 10
83.1670
 20
30.9420
 40
0.250
 50
0.0000
  1
NM
  7
STANDARD
  0
POINT
  8
2
 10
83.1670
 20
30.9420
  0
POINT
  8
2
 10
85.7507
 20
31.6035
  0
LINE
  8
8
 10
83.1670
 20
30.9420
 11
85.8621
 21
30.8946
  0
POLYLINE
  8
85
 66
1
 70
0
  0
VERTEX
  8
85
 10
83.1670
 20
30.9420
  0
VERTEX
  8
85
 10
85.8621
 20
30.8946
  0
SEQEND
  8
85
  0
TEXT
  8
8
 10
83.1670
 20
30.9420
 40
0.250
 50
0.0000
  1
NM
  7
STANDARD
  0
TEXT
  8
85
 10
83.1670
 20
30.9420
 40
0.250
 50
0.0000
  1
NM
  7
STANDARD
  0
POINT
  8
2
 10
83.1670
 20
30.9420
  0
POINT
  8
2
 10
85.8621
 20
30.8946
  0
LINE
  8
8
 10
82.4252
 20
33.4658
 11
82.8172
 21
33.5454
  0
POLYLINE
  8
85
 66
1
 70
0
  0
VERTEX
  8
85
 10
82.4252
 20
33.4658
  0
VERTEX
  8
85
 10
82.8172
 20
33.5454
  0
SEQEND
  8
85
  0
TEXT
  8
8
 10
82.4252
 20
33.4658
 40
0.250
 50
0.0000
  1
NM
  7
STANDARD
  0
TEXT
  8
85
 10
82.4252
 20
33.4658
 40
0.250
 50
0.0000
  1
NM
  7
STANDARD
  0
POINT
  8
2
 10
82.4252
 20
33.4658
  0
POINT
  8
2
 10
82.8172
 20
33.5454
  0
LINE
  8
8
 10
83.0311
 20
28.3150
 11
83.4309
 21
28.3285
  0
POLYLINE
  8
85
 66
1
 70
0
  0
VERTEX
  8
85
 10
83.0311
 20
28.3150
  0
VERTEX
  8
85
 10
83.4309
 20
28.3285
  0
SEQEND
  8
85
  0
TEXT
  8
8
 10
83.0311
 20
28.3150
 40
0.250
 50
0.0000
  1
NM
  7
STANDARD
  0
TEXT
  8
85
 10
83.0311
 20
28.3150
 40
0.250
 50
0.0000
  1
NM
  7
STANDARD
  0
POINT
  8
2
 10
83.0311
 20
28.3150
  0
POINT
  8
2
 10
83.4309
 20
28.3285
  0
LINE
  8
8
 10
63.5187
 20
33.4935
 11
63.5187
 21
23.8671
  0
POLYLINE
  8
85
 66
1
 70
0
  0
VERTEX
  8
85
 10
63.5187
 20
33.4935
  0
VERTEX
  8
85
 10
63.5187
 20
23.8671
  0
SEQEND
  8
85
  0
TEXT
  8
8
 10
63.5187
 20
33.4935
 40
0.250
 50
0.0000
  1
NM
  7
STANDARD
  0
TEXT
  8
85
 10
63.5187
 20
33.4935
 40
0.250
 50
0.0000
  1
NM
  7
STANDARD
  0
POINT
  8
2
 10
63.5187
 20
33.4935
  0
POINT
  8
2
 10
63.5187
 20
23.8671
  0
LINE
  8
8
 10
72.1206
 20
26.9289
 11
73.6206
 21
26.9289
  0
POLYLINE
  8
85
 66
1
 70
0
  0
VERTEX
  8
85
 10
72.1206
 20
26.9289
  0
VERTEX
  8
85
 10
73.6206
 20
26.9289
  0
SEQEND
  8
85
  0
TEXT
  8
8
 10
72.1206
 20
26.9289
 40
0.250
 50
0.0000
  1
NM
  7
STANDARD
  0
TEXT
  8
85
 10
72.1206
 20
26.9289
 40
0.250
 50
0.0000
  1
NM
  7
STANDARD
  0
POINT
  8
2
 10
72.1206
 20
26.9289
  0
POINT
  8
2
 10
73.6206
 20
26.9289
  0
LINE
  8
10
 10
63.5187
 20
33.4935
 11
63.5187
 21
33.9956
  0
TEXT
  8
10
 10
63.5187
 20
33.4935
 40
0.250
 50
0.0000
  1
1
  7
STANDARD
  0
POINT
  8
2
 10
63.5187
 20
33.4935
  0
POINT
  8
2
 10
63.5187
 20
33.9956
  0
LINE
  8
10
 10
44.4672
 20
33.0514
 11
44.4672
 21
33.2187
  0
TEXT
  8
10
 10
44.4672
 20
33.0514
 40
0.250
 50
0.0000
  1
6
  7
STANDARD
  0
POINT
  8
2
 10
44.4672
 20
33.0514
  0
POINT
  8
2
 10
44.4672
 20
33.2187
  0
ENDBLK
  0
BLOCK
  8
0
  2
BUY-306929-SL-T-SH-06_32
 70
64
 10
0.0000
 20
0.0000
  0
TEXT
  8
1
 10
4.6846
 20
16.5178
 40
0.250
 50
0.0000
  1
Piece Name: BUY-306929-SL-T-SH-06
  7
STANDARD
  0
TEXT
  8
1
 10
4.6846
 20
16.6578
 40
0.250
 50
0.0000
  1
Quantity: 1,0
  7
STANDARD
  0
TEXT
  8
1
 10
4.6846
 20
16.7978
 40
0.250
 50
0.0000
  1
ANNOTATION: CUT2
  7
STANDARD
  0
TEXT
  8
1
 10
4.6846
 20
16.9378
 40
0.250
 50
0.0000
  1
CATEGORY: 10
  7
STANDARD
  0
TEXT
  8
1
 10
4.6846
 20
17.0778
 40
0.250
 50
0.0000
  1
SIZE: 32
  7
STANDARD
  0
POLYLINE
  8
1
 66
1
 70
0
  0
VERTEX
  8
1
 10
0.2590
 20
14.0787
  0
VERTEX
  8
1
 10
0.0000
 20
16.7131
  0
SEQEND
  8
1
  0
POLYLINE
  8
84
 66
1
 70
0
  0
VERTEX
  8
84
 10
0.2590
 20
14.0787
  0
VERTEX
  8
84
 10
0.0000
 20
16.7131
  0
SEQEND
  8
84
  0
POINT
  8
2
 10
0.2590
 20
14.0787
  0
POINT
  8
2
 10
0.0000
 20
16.7131
  0
POLYLINE
  8
1
 66
1
 70
0
  0
VERTEX
  8
1
 10
0.0000
 20
16.7131
  0
VERTEX
  8
1
 10
9.0341
 20
19.1694
  0
SEQEND
  8
1
  0
POLYLINE
  8
84
 66
1
 70
0
  0
VERTEX
  8
84
 10
0.0000
 20
16.7131
  0
VERTEX
  8
84
 10
9.0341
 20
19.1694
  0
SEQEND
  8
84
  0
POINT
  8
2
 10
0.0000
 20
16.7131
  0
POINT
  8
2
 10
9.0341
 20
19.1694
  0
POLYLINE
  8
1
 66
1
 70
0
  0
VERTEX
  8
1
 10
9.0341
 20
19.1694
  0
VERTEX
  8
1
 10
9.0761
 20
18.1716
  0
VERTEX
  8
1
 10
9.1557
 20
16.8548
  0
VERTEX
  8
1
 10
9.1557
 20
16.8548
  0
VERTEX
  8
1
 10
9.3692
 20
14.8135
  0
SEQEND
  8
1
  0
POLYLINE
  8
84
 66
1
 70
0
  0
VERTEX
  8
84
 10
9.0341
 20
19.1694
  0
VERTEX
  8
84
 10
9.0761
 20
18.1716
  0
VERTEX
  8
84
 10
9.1557
 20
16.8548
  0
VERTEX
  8
84
 10
9.1557
 20
16.8548
  0
VERTEX
  8
84
 10
9.3692
 20
14.8135
  0
SEQEND
  8
84
  0
POINT
  8
2
 10
9.0341
 20
19.1694
  0
POINT
  8
3
 10
9.0761
 20
18.1716
  0
POINT
  8
2
 10
9.1557
 20
16.8548
  0
POINT
  8
4
 10
9.1557
 20
16.8548
 30
0.1181
 39
0.1771
 50
-161.3059
  0
POINT
  8
2
 10
9.1557
 20
16.8548
  0
POINT
  8
2
 10
9.3692
 20
14.8135
  0
POLYLINE
  8
1
 66
1
 70
0
  0
VERTEX
  8
1
 10
9.3692
 20
14.8135
  0
VERTEX
  8
1
 10
8.2327
 20
14.5310
  0
VERTEX
  8
1
 10
6.7696
 20
14.1968
  0
VERTEX
  8
1
 10
5.6515
 20
14.0189
  0
VERTEX
  8
1
 10
4.3750
 20
13.9034
  0
VERTEX
  8
1
 10
3.5372
 20
13.8662
  0
VERTEX
  8
1
 10
2.7862
 20
13.8667
  0
VERTEX
  8
1
 10
2.1704
 20
13.8935
  0
VERTEX
  8
1
 10
1.1744
 20
13.9729
  0
VERTEX
  8
1
 10
0.2590
 20
14.0787
  0
SEQEND
  8
1
  0
POLYLINE
  8
84
 66
1
 70
0
  0
VERTEX
  8
84
 10
9.3692
 20
14.8135
  0
VERTEX
  8
84
 10
8.2327
 20
14.5310
  0
VERTEX
  8
84
 10
7.5028
 20
14.3562
  0
VERTEX
  8
84
 10
6.7696
 20
14.1968
  0
VERTEX
  8
84
 10
6.2120
 20
14.0987
  0
VERTEX
  8
84
 10
5.6515
 20
14.0189
  0
VERTEX
  8
84
 10
5.0141
 20
13.9523
  0
VERTEX
  8
84
 10
4.3750
 20
13.9034
  0
VERTEX
  8
84
 10
3.5372
 20
13.8662
  0
VERTEX
  8
84
 10
2.7862
 20
13.8667
  0
VERTEX
  8
84
 10
2.1704
 20
13.8935
  0
VERTEX
  8
84
 10
1.1744
 20
13.9729
  0
VERTEX
  8
84
 10
0.2590
 20
14.0787
  0
SEQEND
  8
84
  0
POINT
  8
2
 10
9.3692
 20
14.8135
  0
POINT
  8
3
 10
8.2327
 20
14.5310
  0
POINT
  8
3
 10
6.7696
 20
14.1968
  0
POINT
  8
3
 10
5.6515
 20
14.0189
  0
POINT
  8
3
 10
4.3750
 20
13.9034
  0
POINT
  8
3
 10
3.5372
 20
13.8662
  0
POINT
  8
3
 10
2.7862
 20
13.8667
  0
POINT
  8
4
 10
2.1704
 20
13.8935
 30
0.1181
 39
0.1771
  0
POINT
  8
3
 10
2.1704
 20
13.8935
  0
POINT
  8
3
 10
1.1744
 20
13.9729
  0
POINT
  8
2
 10
0.2590
 20
14.0787
  0
LINE
  8
7
 10
2.4848
 20
16.2741
 11
7.1701
 21
16.2741
  0
LINE
  8
5
 10
2.4848
 20
16.2741
 11
7.1701
 21
16.2741
  0
POINT
  8
2
 10
2.4848
 20
16.2741
  0
POINT
  8
2
 10
7.1701
 20
16.2741
  0
ENDBLK
  0
BLOCK
  8
0
  2
BUY-306929-SL-T-SH-03W_32
 70
64
 10
0.0000
 20
0.0000
  0
TEXT
  8
1
 10
11.1192
 20
8.1014
 40
0.250
 50
0.0000
  1
Piece Name: BUY-306929-SL-T-SH-03W
  7
STANDARD
  0
TEXT
  8
1
 10
11.1192
 20
8.2414
 40
0.250
 50
0.0000
  1
Quantity: 1,0
  7
STANDARD
  0
TEXT
  8
1
 10
11.1192
 20
8.3814
 40
0.250
 50
0.0000
  1
ANNOTATION
  7
STANDARD
  0
TEXT
  8
1
 10
11.1192
 20
8.5214
 40
0.250
 50
0.0000
  1
CATEGORY: 4
  7
STANDARD
  0
TEXT
  8
1
 10
11.1192
 20
8.6614
 40
0.250
 50
0.0000
  1
SIZE: 32
  7
STANDARD
  0
POLYLINE
  8
1
 66
1
 70
0
  0
VERTEX
  8
1
 10
12.3692
 20
19.1694
  0
VERTEX
  8
1
 10
12.3692
 20
18.2834
  0
VERTEX
  8
1
 10
12.3692
 20
9.5338
  0
VERTEX
  8
1
 10
12.3692
 20
1.0334
  0
VERTEX
  8
1
 10
12.3692
 20
-2.9666
  0
SEQEND
  8
1
  0
POLYLINE
  8
84
 66
1
 70
0
  0
VERTEX
  8
84
 10
12.3692
 20
19.1694
  0
VERTEX
  8
84
 10
12.3692
 20
18.2834
  0
VERTEX
  8
84
 10
12.3692
 20
9.5338
  0
VERTEX
  8
84
 10
12.3692
 20
1.0334
  0
VERTEX
  8
84
 10
12.3692
 20
-2.9666
  0
SEQEND
  8
84
  0
POINT
  8
2
 10
12.3692
 20
19.1694
  0
POINT
  8
4
 10
12.3692
 20
18.2834
 30
0.1181
 39
0.1771
  0
POINT
  8
2
 10
12.3692
 20
18.2834
  0
POINT
  8
4
 10
12.3692
 20
9.5338
 30
0.1181
 39
0.1771
  0
POINT
  8
2
 10
12.3692
 20
9.5338
  0
POINT
  8
4
 10
12.3692
 20
1.0334
 30
0.1181
 39
0.1771
  0
POINT
  8
2
 10
12.3692
 20
1.0334
  0
POINT
  8
2
 10
12.3692
 20
-2.9666
  0
POLYLINE
  8
1
 66
1
 70
0
  0
VERTEX
  8
1
 10
12.3692
 20
-2.9666
  0
VERTEX
  8
1
 10
10.0193
 20
-2.9666
  0
VERTEX
  8
1
 10
9.8693
 20
-2.7666
  0
SEQEND
  8
1
  0
POLYLINE
  8
84
 66
1
 70
0
  0
VERTEX
  8
84
 10
12.3692
 20
-2.9666
  0
VERTEX
  8
84
 10
10.0193
 20
-2.9666
  0
VERTEX
  8
84
 10
9.8693
 20
-2.7666
  0
SEQEND
  8
84
  0
POINT
  8
2
 10
12.3692
 20
-2.9666
  0
POINT
  8
2
 10
10.0193
 20
-2.9666
  0
POINT
  8
2
 10
9.8693
 20
-2.7666
  0
POLYLINE
  8
1
 66
1
 70
0
  0
VERTEX
  8
1
 10
9.8693
 20
-2.7666
  0
VERTEX
  8
1
 10
9.8693
 20
1.0334
  0
VERTEX
  8
1
 10
9.8693
 20
1.0334
  0
VERTEX
  8
1
 10
9.8693
 20
1.6584
  0
VERTEX
  8
1
 10
9.8693
 20
18.2834
  0
VERTEX
  8
1
 10
9.8693
 20
19.1694
  0
SEQEND
  8
1
  0
POLYLINE
  8
84
 66
1
 70
0
  0
VERTEX
  8
84
 10
9.8693
 20
-2.7666
  0
VERTEX
  8
84
 10
9.8693
 20
1.0334
  0
VERTEX
  8
84
 10
9.8693
 20
1.0334
  0
VERTEX
  8
84
 10
9.8693
 20
1.6584
  0
VERTEX
  8
84
 10
9.8693
 20
18.2834
  0
VERTEX
  8
84
 10
9.8693
 20
19.1694
  0
SEQEND
  8
84
  0
POINT
  8
2
 10
9.8693
 20
-2.7666
  0
POINT
  8
2
 10
9.8693
 20
1.0334
  0
POINT
  8
4
 10
9.8693
 20
1.0334
 30
0.1181
 39
0.1771
  0
POINT
  8
2
 10
9.8693
 20
1.0334
  0
POINT
  8
4
 10
9.8693
 20
1.6584
 30
0.1181
 39
0.1771
  0
POINT
  8
3
 10
9.8693
 20
1.6584
  0
POINT
  8
4
 10
9.8693
 20
18.2834
 30
0.1181
 39
0.1771
  0
POINT
  8
2
 10
9.8693
 20
18.2834
  0
POINT
  8
2
 10
9.8693
 20
19.1694
  0
POLYLINE
  8
1
 66
1
 70
0
  0
VERTEX
  8
1
 10
9.8693
 20
19.1694
  0
VERTEX
  8
1
 10
12.3692
 20
19.1694
  0
SEQEND
  8
1
  0
POLYLINE
  8
84
 66
1
 70
0
  0
VERTEX
  8
84
 10
9.8693
 20
19.1694
  0
VERTEX
  8
84
 10
12.3692
 20
19.1694
  0
SEQEND
  8
84
  0
POINT
  8
2
 10
9.8693
 20
19.1694
  0
POINT
  8
2
 10
12.3692
 20
19.1694
  0
LINE
  8
7
 10
10.4943
 20
8.1014
 11
11.7442
 21
8.1014
  0
LINE
  8
5
 10
10.4943
 20
8.1014
 11
11.7442
 21
8.1014
  0
POINT
  8
2
 10
10.4943
 20
8.1014
  0
POINT
  8
2
 10
11.7442
 20
8.1014
  0
ENDBLK
  0
ENDSEC
  0
SECTION
  2
ENTITIES
  0
TEXT
  8
1
 10
0.0000
 20
0.0000
 40
0.250
 50
0.0000
  1
Style Name: BUY-306929-JF-SLIM-TRS
  7
STANDARD
  0
TEXT
  8
1
 10
0.0000
 20
0.1400
 40
0.250
 50
0.0000
  1
Creation Date: 28-08-2025
  7
STANDARD
  0
TEXT
  8
1
 10
0.0000
 20
0.2800
 40
0.250
 50
0.0000
  1
Creation Time:  8:11
  7
STANDARD
  0
TEXT
  8
1
 10
0.0000
 20
0.4200
 40
0.250
 50
0.0000
  1
Author: GERBER TECHNOLOGY ; ACCUMARK ; 10.2.0
  7
STANDARD
  0
TEXT
  8
1
 10
0.0000
 20
0.5600
 40
0.250
 50
0.0000
  1
Sample Size: 32
  7
STANDARD
  0
TEXT
  8
1
 10
0.0000
 20
0.7000
 40
0.250
 50
0.0000
  1
Grade Rule Table: JCP-REGULAR-TRS
  7
STANDARD
  0
TEXT
  8
1
 10
0.0000
 20
0.8400
 40
0.250
 50
0.0000
  1
Units: ENGLISH
  7
STANDARD
  0
TEXT
  8
1
 10
0.0000
 20
0.9800
 40
0.250
 50
0.0000
  1
Curve Tolerance: .006
  7
STANDARD
  0
TEXT
  8
1
 10
0.0000
 20
1.1200
 40
0.250
 50
0.0000
  1
ASTM/D13Proposal 1 Version: D 6673-04
  7
STANDARD
  0
INSERT
  8
1
  2
BUY-306929-SL-T-SH-01_32
 10
0.0000
 20
0.0000
  0
INSERT
  8
1
  2
BUY-306929-SL-T-SH-02_32
 10
0.0000
 20
0.0000
  0
INSERT
  8
1
  2
BUY-306929-SL-T-SH-06_32
 10
0.0000
 20
0.0000
  0
INSERT
  8
1
  2
BUY-306929-SL-T-SH-03W_32
 10
0.0000
 20
0.0000
  0
ENDSEC
  0
EOF
