  0
SECTION
  2
HEADER
  0
ENDSEC
  0
SECTION
  2
BLOCKS
  0
BLOCK
  8
0
  2
BUY-351994-STF-CL-HL-J-SH-01_40
 70
64
 10
0.0000
 20
0.0000
  0
TEXT
  8
1
 10
16.9750
 20
30.2512
 40
0.250
 50
0.0000
  1
Piece Name: BUY-351994-STF-CL-HL-J-SH-01
  7
STANDARD
  0
TEXT
  8
1
 10
16.9750
 20
30.3912
 40
0.250
 50
0.0000
  1
Quantity: 1,0
  7
STANDARD
  0
TEXT
  8
1
 10
16.9750
 20
30.5312
 40
0.250
 50
0.0000
  1
ANNOTATION
  7
STANDARD
  0
TEXT
  8
1
 10
16.9750
 20
30.6712
 40
0.250
 50
0.0000
  1
CATEGORY: 1-1
  7
STANDARD
  0
TEXT
  8
1
 10
16.9750
 20
30.8112
 40
0.250
 50
0.0000
  1
SIZE: 40
  7
STANDARD
  0
POLYLINE
  8
1
 66
1
 70
0
  0
VERTEX
  8
1
 10
12.1593
 20
25.4049
  0
VERTEX
  8
1
 10
12.0216
 20
28.9758
  0
VERTEX
  8
1
 10
12.0109
 20
30.0171
  0
VERTEX
  8
1
 10
12.0109
 20
26.1463
  0
SEQEND
  8
1
  0
POLYLINE
  8
84
 66
1
 70
0
  0
VERTEX
  8
84
 10
12.1593
 20
25.4049
  0
VERTEX
  8
84
 10
12.0216
 20
28.9758
  0
VERTEX
  8
84
 10
12.0109
 20
30.0171
  0
VERTEX
  8
84
 10
12.0109
 20
26.1463
  0
SEQEND
  8
84
  0
POINT
  8
2
 10
12.1593
 20
25.4049
  0
POINT
  8
2
 10
12.0216
 20
28.9758
  0
POINT
  8
2
 10
12.0109
 20
30.0171
  0
POINT
  8
2
 10
12.0109
 20
26.1463
  0
POLYLINE
  8
1
 66
1
 70
0
  0
VERTEX
  8
1
 10
12.0109
 20
26.1463
  0
VERTEX
  8
1
 10
10.1905
 20
26.0546
  0
VERTEX
  8
1
 10
8.0171
 20
25.9581
  0
VERTEX
  8
1
 10
5.9077
 20
25.9058
  0
VERTEX
  8
1
 10
4.1151
 20
25.8670
  0
VERTEX
  8
1
 10
1.6780
 20
25.8188
  0
VERTEX
  8
1
 10
1.6780
 20
25.8188
  0
VERTEX
  8
1
 10
0.1781
 20
25.7892
  0
SEQEND
  8
1
  0
POLYLINE
  8
84
 66
1
 70
0
  0
VERTEX
  8
84
 10
12.0109
 20
26.1463
  0
VERTEX
  8
84
 10
10.1905
 20
26.0546
  0
VERTEX
  8
84
 10
8.0171
 20
25.9581
  0
VERTEX
  8
84
 10
5.9077
 20
25.9058
  0
VERTEX
  8
84
 10
4.1151
 20
25.8670
  0
VERTEX
  8
84
 10
1.6780
 20
25.8188
  0
VERTEX
  8
84
 10
1.6780
 20
25.8188
  0
VERTEX
  8
84
 10
0.1781
 20
25.7892
  0
SEQEND
  8
84
  0
POINT
  8
2
 10
12.0109
 20
26.1463
  0
POINT
  8
3
 10
10.1905
 20
26.0546
  0
POINT
  8
3
 10
8.0171
 20
25.9581
  0
POINT
  8
3
 10
5.9077
 20
25.9058
  0
POINT
  8
3
 10
4.1151
 20
25.8670
  0
POINT
  8
3
 10
1.6780
 20
25.8188
  0
POINT
  8
4
 10
1.6780
 20
25.8188
 30
0.1181
 39
0.1771
 50
91.1345
  0
POINT
  8
2
 10
1.6780
 20
25.8188
  0
POINT
  8
2
 10
0.1781
 20
25.7892
  0
POLYLINE
  8
1
 66
1
 70
0
  0
VERTEX
  8
1
 10
0.1781
 20
25.7892
  0
VERTEX
  8
1
 10
0.0000
 20
31.4855
  0
SEQEND
  8
1
  0
POLYLINE
  8
84
 66
1
 70
0
  0
VERTEX
  8
84
 10
0.1781
 20
25.7892
  0
VERTEX
  8
84
 10
0.0000
 20
31.4855
  0
SEQEND
  8
84
  0
POINT
  8
2
 10
0.1781
 20
25.7892
  0
POINT
  8
2
 10
0.0000
 20
31.4855
  0
POLYLINE
  8
1
 66
1
 70
0
  0
VERTEX
  8
1
 10
0.0000
 20
31.4855
  0
VERTEX
  8
1
 10
0.3029
 20
31.8003
  0
SEQEND
  8
1
  0
POLYLINE
  8
84
 66
1
 70
0
  0
VERTEX
  8
84
 10
0.0000
 20
31.4855
  0
VERTEX
  8
84
 10
0.3029
 20
31.8003
  0
SEQEND
  8
84
  0
POINT
  8
2
 10
0.0000
 20
31.4855
  0
POINT
  8
2
 10
0.3029
 20
31.8003
  0
POLYLINE
  8
1
 66
1
 70
0
  0
VERTEX
  8
1
 10
0.3029
 20
31.8003
  0
VERTEX
  8
1
 10
1.2130
 20
31.8003
  0
SEQEND
  8
1
  0
POLYLINE
  8
84
 66
1
 70
0
  0
VERTEX
  8
84
 10
0.3029
 20
31.8003
  0
VERTEX
  8
84
 10
1.2130
 20
31.8003
  0
SEQEND
  8
84
  0
POINT
  8
2
 10
0.3029
 20
31.8003
  0
POINT
  8
2
 10
1.2130
 20
31.8003
  0
POLYLINE
  8
1
 66
1
 70
0
  0
VERTEX
  8
1
 10
1.2130
 20
31.8003
  0
VERTEX
  8
1
 10
1.2200
 20
32.2650
  0
VERTEX
  8
1
 10
1.2428
 20
32.6850
  0
VERTEX
  8
1
 10
1.2751
 20
32.9460
  0
VERTEX
  8
1
 10
1.3220
 20
33.1788
  0
VERTEX
  8
1
 10
1.3858
 20
33.4064
  0
VERTEX
  8
1
 10
1.4743
 20
33.6212
  0
VERTEX
  8
1
 10
1.5950
 20
33.8263
  0
VERTEX
  8
1
 10
1.7367
 20
34.0243
  0
VERTEX
  8
1
 10
1.8926
 20
34.2132
  0
VERTEX
  8
1
 10
2.0646
 20
34.3937
  0
VERTEX
  8
1
 10
2.2786
 20
34.5798
  0
VERTEX
  8
1
 10
2.5158
 20
34.7479
  0
VERTEX
  8
1
 10
2.7714
 20
34.8965
  0
VERTEX
  8
1
 10
3.0382
 20
35.0298
  0
VERTEX
  8
1
 10
3.3017
 20
35.1496
  0
VERTEX
  8
1
 10
3.6001
 20
35.2644
  0
VERTEX
  8
1
 10
4.1033
 20
35.4181
  0
VERTEX
  8
1
 10
4.6518
 20
35.5692
  0
VERTEX
  8
1
 10
5.5785
 20
35.7685
  0
VERTEX
  8
1
 10
7.2738
 20
36.0024
  0
VERTEX
  8
1
 10
9.9398
 20
36.2138
  0
VERTEX
  8
1
 10
11.1340
 20
36.2528
  0
VERTEX
  8
1
 10
12.3333
 20
36.2822
  0
VERTEX
  8
1
 10
13.5377
 20
36.2835
  0
VERTEX
  8
1
 10
14.1657
 20
36.2835
  0
VERTEX
  8
1
 10
16.1341
 20
36.2835
  0
VERTEX
  8
1
 10
17.9935
 20
36.3588
  0
VERTEX
  8
1
 10
18.1104
 20
36.3583
  0
VERTEX
  8
1
 10
20.0727
 20
36.3252
  0
VERTEX
  8
1
 10
21.4023
 20
36.2526
  0
VERTEX
  8
1
 10
22.0398
 20
36.2050
  0
VERTEX
  8
1
 10
22.8625
 20
36.1435
  0
VERTEX
  8
1
 10
23.0286
 20
36.1282
  0
VERTEX
  8
1
 10
25.6882
 20
35.8615
  0
VERTEX
  8
1
 10
29.0904
 20
35.3868
  0
VERTEX
  8
1
 10
32.4804
 20
34.8606
  0
SEQEND
  8
1
  0
POLYLINE
  8
84
 66
1
 70
0
  0
VERTEX
  8
84
 10
1.2130
 20
31.8003
  0
VERTEX
  8
84
 10
1.2200
 20
32.2650
  0
VERTEX
  8
84
 10
1.2428
 20
32.6850
  0
VERTEX
  8
84
 10
1.2751
 20
32.9460
  0
VERTEX
  8
84
 10
1.3220
 20
33.1788
  0
VERTEX
  8
84
 10
1.3858
 20
33.4064
  0
VERTEX
  8
84
 10
1.4743
 20
33.6212
  0
VERTEX
  8
84
 10
1.5950
 20
33.8263
  0
VERTEX
  8
84
 10
1.7367
 20
34.0243
  0
VERTEX
  8
84
 10
1.8926
 20
34.2132
  0
VERTEX
  8
84
 10
2.0646
 20
34.3937
  0
VERTEX
  8
84
 10
2.2786
 20
34.5798
  0
VERTEX
  8
84
 10
2.5158
 20
34.7479
  0
VERTEX
  8
84
 10
2.7714
 20
34.8965
  0
VERTEX
  8
84
 10
3.0382
 20
35.0298
  0
VERTEX
  8
84
 10
3.3017
 20
35.1496
  0
VERTEX
  8
84
 10
3.6001
 20
35.2644
  0
VERTEX
  8
84
 10
4.1033
 20
35.4181
  0
VERTEX
  8
84
 10
4.6518
 20
35.5692
  0
VERTEX
  8
84
 10
5.1136
 20
35.6763
  0
VERTEX
  8
84
 10
5.5785
 20
35.7685
  0
VERTEX
  8
84
 10
6.4242
 20
35.8992
  0
VERTEX
  8
84
 10
7.2738
 20
36.0024
  0
VERTEX
  8
84
 10
8.6054
 20
36.1251
  0
VERTEX
  8
84
 10
9.9398
 20
36.2138
  0
VERTEX
  8
84
 10
11.1340
 20
36.2528
  0
VERTEX
  8
84
 10
12.3333
 20
36.2822
  0
VERTEX
  8
84
 10
13.5377
 20
36.2835
  0
VERTEX
  8
84
 10
14.1657
 20
36.2835
  0
VERTEX
  8
84
 10
16.1341
 20
36.2835
  0
VERTEX
  8
84
 10
17.9935
 20
36.3588
  0
VERTEX
  8
84
 10
18.1104
 20
36.3583
  0
VERTEX
  8
84
 10
19.0916
 20
36.3477
  0
VERTEX
  8
84
 10
20.0727
 20
36.3252
  0
VERTEX
  8
84
 10
21.4023
 20
36.2526
  0
VERTEX
  8
84
 10
22.0398
 20
36.2050
  0
VERTEX
  8
84
 10
22.8625
 20
36.1435
  0
VERTEX
  8
84
 10
23.0286
 20
36.1282
  0
VERTEX
  8
84
 10
24.3592
 20
36.0024
  0
VERTEX
  8
84
 10
25.6882
 20
35.8615
  0
VERTEX
  8
84
 10
27.3908
 20
35.6354
  0
VERTEX
  8
84
 10
29.0904
 20
35.3868
  0
VERTEX
  8
84
 10
32.4804
 20
34.8606
  0
SEQEND
  8
84
  0
POINT
  8
2
 10
1.2130
 20
31.8003
  0
POINT
  8
3
 10
1.2200
 20
32.2650
  0
POINT
  8
3
 10
1.2428
 20
32.6850
  0
POINT
  8
3
 10
1.2751
 20
32.9460
  0
POINT
  8
3
 10
1.3220
 20
33.1788
  0
POINT
  8
3
 10
1.3858
 20
33.4064
  0
POINT
  8
3
 10
1.4743
 20
33.6212
  0
POINT
  8
3
 10
1.5950
 20
33.8263
  0
POINT
  8
3
 10
1.7367
 20
34.0243
  0
POINT
  8
3
 10
1.8926
 20
34.2132
  0
POINT
  8
3
 10
2.0646
 20
34.3937
  0
POINT
  8
3
 10
2.2786
 20
34.5798
  0
POINT
  8
3
 10
2.5158
 20
34.7479
  0
POINT
  8
3
 10
2.7714
 20
34.8965
  0
POINT
  8
3
 10
3.0382
 20
35.0298
  0
POINT
  8
3
 10
3.3017
 20
35.1496
  0
POINT
  8
3
 10
3.6001
 20
35.2644
  0
POINT
  8
3
 10
4.1033
 20
35.4181
  0
POINT
  8
3
 10
4.6518
 20
35.5692
  0
POINT
  8
3
 10
5.5785
 20
35.7685
  0
POINT
  8
3
 10
7.2738
 20
36.0024
  0
POINT
  8
4
 10
9.9398
 20
36.2138
 30
0.1181
 39
0.1771
  0
POINT
  8
3
 10
9.9398
 20
36.2138
  0
POINT
  8
3
 10
11.1340
 20
36.2528
  0
POINT
  8
3
 10
12.3333
 20
36.2822
  0
POINT
  8
3
 10
13.5377
 20
36.2835
  0
POINT
  8
4
 10
14.1657
 20
36.2835
 30
0.1181
 39
0.1771
  0
POINT
  8
3
 10
14.1657
 20
36.2835
  0
POINT
  8
4
 10
16.1341
 20
36.2835
 30
0.1181
 39
0.1771
  0
POINT
  8
2
 10
16.1341
 20
36.2835
  0
POINT
  8
3
 10
17.9935
 20
36.3588
  0
POINT
  8
4
 10
18.1104
 20
36.3583
 30
0.1181
 39
0.1771
  0
POINT
  8
3
 10
18.1104
 20
36.3583
  0
POINT
  8
3
 10
20.0727
 20
36.3252
  0
POINT
  8
3
 10
21.4023
 20
36.2526
  0
POINT
  8
3
 10
22.0398
 20
36.2050
  0
POINT
  8
3
 10
22.8625
 20
36.1435
  0
POINT
  8
4
 10
23.0286
 20
36.1282
 30
0.1181
 39
0.1771
  0
POINT
  8
3
 10
23.0286
 20
36.1282
  0
POINT
  8
3
 10
25.6882
 20
35.8615
  0
POINT
  8
4
 10
29.0904
 20
35.3868
 30
0.1181
 39
0.1771
  0
POINT
  8
3
 10
29.0904
 20
35.3868
  0
POINT
  8
2
 10
32.4804
 20
34.8606
  0
POLYLINE
  8
1
 66
1
 70
0
  0
VERTEX
  8
1
 10
32.4804
 20
34.8606
  0
VERTEX
  8
1
 10
32.4810
 20
34.4239
  0
SEQEND
  8
1
  0
POLYLINE
  8
84
 66
1
 70
0
  0
VERTEX
  8
84
 10
32.4804
 20
34.8606
  0
VERTEX
  8
84
 10
32.4810
 20
34.4239
  0
SEQEND
  8
84
  0
POINT
  8
2
 10
32.4804
 20
34.8606
  0
POINT
  8
2
 10
32.4810
 20
34.4239
  0
POLYLINE
  8
1
 66
1
 70
0
  0
VERTEX
  8
1
 10
32.4810
 20
34.4239
  0
VERTEX
  8
1
 10
32.1094
 20
34.0938
  0
VERTEX
  8
1
 10
31.8024
 20
33.8210
  0
VERTEX
  8
1
 10
31.4478
 20
33.5542
  0
VERTEX
  8
1
 10
30.9762
 20
33.1994
  0
SEQEND
  8
1
  0
POLYLINE
  8
84
 66
1
 70
0
  0
VERTEX
  8
84
 10
32.4810
 20
34.4239
  0
VERTEX
  8
84
 10
32.1094
 20
34.0938
  0
VERTEX
  8
84
 10
31.8024
 20
33.8210
  0
VERTEX
  8
84
 10
31.4478
 20
33.5542
  0
VERTEX
  8
84
 10
30.9762
 20
33.1994
  0
SEQEND
  8
84
  0
POINT
  8
2
 10
32.4810
 20
34.4239
  0
POINT
  8
3
 10
32.1094
 20
34.0938
  0
POINT
  8
3
 10
31.8024
 20
33.8210
  0
POINT
  8
3
 10
31.4478
 20
33.5542
  0
POINT
  8
2
 10
30.9762
 20
33.1994
  0
POLYLINE
  8
1
 66
1
 70
0
  0
VERTEX
  8
1
 10
30.9762
 20
33.1994
  0
VERTEX
  8
1
 10
31.6620
 20
31.4544
  0
VERTEX
  8
1
 10
31.6620
 20
31.4544
  0
VERTEX
  8
1
 10
31.9814
 20
30.6444
  0
SEQEND
  8
1
  0
POLYLINE
  8
84
 66
1
 70
0
  0
VERTEX
  8
84
 10
30.9762
 20
33.1994
  0
VERTEX
  8
84
 10
31.6620
 20
31.4544
  0
VERTEX
  8
84
 10
31.6620
 20
31.4544
  0
VERTEX
  8
84
 10
31.9814
 20
30.6444
  0
SEQEND
  8
84
  0
POINT
  8
2
 10
30.9762
 20
33.1994
  0
POINT
  8
3
 10
31.6620
 20
31.4544
  0
POINT
  8
4
 10
31.6620
 20
31.4544
 30
0.1181
 39
0.1771
 50
-158.5125
  0
POINT
  8
2
 10
31.6620
 20
31.4544
  0
POINT
  8
2
 10
31.9814
 20
30.6444
  0
POLYLINE
  8
1
 66
1
 70
0
  0
VERTEX
  8
1
 10
31.9814
 20
30.6444
  0
VERTEX
  8
1
 10
33.7197
 20
30.2100
  0
VERTEX
  8
1
 10
33.9500
 20
30.0304
  0
SEQEND
  8
1
  0
POLYLINE
  8
84
 66
1
 70
0
  0
VERTEX
  8
84
 10
31.9814
 20
30.6444
  0
VERTEX
  8
84
 10
33.7197
 20
30.2100
  0
VERTEX
  8
84
 10
33.9500
 20
30.0304
  0
SEQEND
  8
84
  0
POINT
  8
2
 10
31.9814
 20
30.6444
  0
POINT
  8
2
 10
33.7197
 20
30.2100
  0
POINT
  8
2
 10
33.9500
 20
30.0304
  0
POLYLINE
  8
1
 66
1
 70
0
  0
VERTEX
  8
1
 10
33.9500
 20
30.0304
  0
VERTEX
  8
1
 10
33.5377
 20
28.9951
  0
VERTEX
  8
1
 10
33.5377
 20
28.9951
  0
VERTEX
  8
1
 10
33.2390
 20
28.2761
  0
VERTEX
  8
1
 10
32.9496
 20
27.6030
  0
VERTEX
  8
1
 10
32.6423
 20
26.9317
  0
VERTEX
  8
1
 10
32.3139
 20
26.2947
  0
VERTEX
  8
1
 10
31.9705
 20
25.6693
  0
VERTEX
  8
1
 10
31.6925
 20
25.1897
  0
VERTEX
  8
1
 10
31.6925
 20
25.1897
  0
VERTEX
  8
1
 10
31.3971
 20
24.6990
  0
VERTEX
  8
1
 10
31.1194
 20
24.2618
  0
SEQEND
  8
1
  0
POLYLINE
  8
84
 66
1
 70
0
  0
VERTEX
  8
84
 10
33.9500
 20
30.0304
  0
VERTEX
  8
84
 10
33.5377
 20
28.9951
  0
VERTEX
  8
84
 10
33.5377
 20
28.9951
  0
VERTEX
  8
84
 10
33.2390
 20
28.2761
  0
VERTEX
  8
84
 10
32.9496
 20
27.6030
  0
VERTEX
  8
84
 10
32.6423
 20
26.9317
  0
VERTEX
  8
84
 10
32.3139
 20
26.2947
  0
VERTEX
  8
84
 10
31.9705
 20
25.6693
  0
VERTEX
  8
84
 10
31.6925
 20
25.1897
  0
VERTEX
  8
84
 10
31.6925
 20
25.1897
  0
VERTEX
  8
84
 10
31.3971
 20
24.6990
  0
VERTEX
  8
84
 10
31.1194
 20
24.2618
  0
SEQEND
  8
84
  0
POINT
  8
2
 10
33.9500
 20
30.0304
  0
POINT
  8
2
 10
33.5377
 20
28.9951
  0
POINT
  8
4
 10
33.5377
 20
28.9951
 30
0.1181
 39
0.1771
 50
157.8645
  0
POINT
  8
2
 10
33.5377
 20
28.9951
  0
POINT
  8
3
 10
33.2390
 20
28.2761
  0
POINT
  8
3
 10
32.9496
 20
27.6030
  0
POINT
  8
3
 10
32.6423
 20
26.9317
  0
POINT
  8
3
 10
32.3139
 20
26.2947
  0
POINT
  8
3
 10
31.9705
 20
25.6693
  0
POINT
  8
2
 10
31.6925
 20
25.1897
  0
POINT
  8
4
 10
31.6925
 20
25.1897
 30
0.1181
 39
0.1771
 50
149.4293
  0
POINT
  8
2
 10
31.6925
 20
25.1897
  0
POINT
  8
3
 10
31.3971
 20
24.6990
  0
POINT
  8
2
 10
31.1194
 20
24.2618
  0
POLYLINE
  8
1
 66
1
 70
0
  0
VERTEX
  8
1
 10
31.1194
 20
24.2618
  0
VERTEX
  8
1
 10
30.7517
 20
24.1437
  0
SEQEND
  8
1
  0
POLYLINE
  8
84
 66
1
 70
0
  0
VERTEX
  8
84
 10
31.1194
 20
24.2618
  0
VERTEX
  8
84
 10
30.7517
 20
24.1437
  0
SEQEND
  8
84
  0
POINT
  8
2
 10
31.1194
 20
24.2618
  0
POINT
  8
2
 10
30.7517
 20
24.1437
  0
POLYLINE
  8
1
 66
1
 70
0
  0
VERTEX
  8
1
 10
30.7517
 20
24.1437
  0
VERTEX
  8
1
 10
30.3775
 20
24.4153
  0
VERTEX
  8
1
 10
29.9311
 20
24.7123
  0
VERTEX
  8
1
 10
29.3657
 20
25.0508
  0
VERTEX
  8
1
 10
28.6968
 20
25.4111
  0
VERTEX
  8
1
 10
28.0151
 20
25.7442
  0
VERTEX
  8
1
 10
27.5003
 20
25.9780
  0
VERTEX
  8
1
 10
26.9585
 20
26.2075
  0
VERTEX
  8
1
 10
26.9362
 20
26.2149
  0
VERTEX
  8
1
 10
26.5441
 20
26.3444
  0
VERTEX
  8
1
 10
26.1185
 20
26.4695
  0
VERTEX
  8
1
 10
25.7012
 20
26.5782
  0
VERTEX
  8
1
 10
25.2817
 20
26.6644
  0
VERTEX
  8
1
 10
24.8198
 20
26.7275
  0
VERTEX
  8
1
 10
24.5013
 20
26.7497
  0
VERTEX
  8
1
 10
24.3726
 20
26.7584
  0
VERTEX
  8
1
 10
24.0697
 20
26.7567
  0
VERTEX
  8
1
 10
23.7978
 20
26.7365
  0
VERTEX
  8
1
 10
23.5721
 20
26.7013
  0
VERTEX
  8
1
 10
23.5721
 20
26.7013
  0
VERTEX
  8
1
 10
23.3973
 20
26.6471
  0
VERTEX
  8
1
 10
23.2212
 20
26.5728
  0
VERTEX
  8
1
 10
23.0286
 20
26.4597
  0
VERTEX
  8
1
 10
22.8451
 20
26.3222
  0
VERTEX
  8
1
 10
22.6964
 20
26.1828
  0
VERTEX
  8
1
 10
22.5564
 20
26.0182
  0
VERTEX
  8
1
 10
22.4587
 20
25.8751
  0
VERTEX
  8
1
 10
22.4587
 20
25.8751
  0
VERTEX
  8
1
 10
22.3995
 20
25.7622
  0
VERTEX
  8
1
 10
22.3267
 20
25.5976
  0
VERTEX
  8
1
 10
22.1452
 20
25.0814
  0
SEQEND
  8
1
  0
POLYLINE
  8
84
 66
1
 70
0
  0
VERTEX
  8
84
 10
30.7517
 20
24.1437
  0
VERTEX
  8
84
 10
30.3775
 20
24.4153
  0
VERTEX
  8
84
 10
29.9311
 20
24.7123
  0
VERTEX
  8
84
 10
29.3657
 20
25.0508
  0
VERTEX
  8
84
 10
28.6968
 20
25.4111
  0
VERTEX
  8
84
 10
28.0151
 20
25.7442
  0
VERTEX
  8
84
 10
27.5003
 20
25.9780
  0
VERTEX
  8
84
 10
26.9585
 20
26.2075
  0
VERTEX
  8
84
 10
26.9362
 20
26.2149
  0
VERTEX
  8
84
 10
26.5441
 20
26.3444
  0
VERTEX
  8
84
 10
26.1185
 20
26.4695
  0
VERTEX
  8
84
 10
25.7012
 20
26.5782
  0
VERTEX
  8
84
 10
25.2817
 20
26.6644
  0
VERTEX
  8
84
 10
24.8198
 20
26.7275
  0
VERTEX
  8
84
 10
24.5013
 20
26.7497
  0
VERTEX
  8
84
 10
24.3726
 20
26.7584
  0
VERTEX
  8
84
 10
24.0697
 20
26.7567
  0
VERTEX
  8
84
 10
23.7978
 20
26.7365
  0
VERTEX
  8
84
 10
23.5721
 20
26.7013
  0
VERTEX
  8
84
 10
23.5721
 20
26.7013
  0
VERTEX
  8
84
 10
23.3973
 20
26.6471
  0
VERTEX
  8
84
 10
23.2212
 20
26.5728
  0
VERTEX
  8
84
 10
23.0286
 20
26.4597
  0
VERTEX
  8
84
 10
22.8451
 20
26.3222
  0
VERTEX
  8
84
 10
22.6964
 20
26.1828
  0
VERTEX
  8
84
 10
22.5564
 20
26.0182
  0
VERTEX
  8
84
 10
22.4587
 20
25.8751
  0
VERTEX
  8
84
 10
22.4587
 20
25.8751
  0
VERTEX
  8
84
 10
22.3995
 20
25.7622
  0
VERTEX
  8
84
 10
22.3267
 20
25.5976
  0
VERTEX
  8
84
 10
22.1452
 20
25.0814
  0
SEQEND
  8
84
  0
POINT
  8
2
 10
30.7517
 20
24.1437
  0
POINT
  8
3
 10
30.3775
 20
24.4153
  0
POINT
  8
3
 10
29.9311
 20
24.7123
  0
POINT
  8
3
 10
29.3657
 20
25.0508
  0
POINT
  8
3
 10
28.6968
 20
25.4111
  0
POINT
  8
3
 10
28.0151
 20
25.7442
  0
POINT
  8
3
 10
27.5003
 20
25.9780
  0
POINT
  8
2
 10
26.9585
 20
26.2075
  0
POINT
  8
4
 10
26.9362
 20
26.2149
 30
0.1181
 39
0.1771
  0
POINT
  8
2
 10
26.9362
 20
26.2149
  0
POINT
  8
3
 10
26.5441
 20
26.3444
  0
POINT
  8
3
 10
26.1185
 20
26.4695
  0
POINT
  8
3
 10
25.7012
 20
26.5782
  0
POINT
  8
3
 10
25.2817
 20
26.6644
  0
POINT
  8
3
 10
24.8198
 20
26.7275
  0
POINT
  8
4
 10
24.5013
 20
26.7497
 30
0.1181
 39
0.1771
  0
POINT
  8
3
 10
24.5013
 20
26.7497
  0
POINT
  8
3
 10
24.3726
 20
26.7584
  0
POINT
  8
3
 10
24.0697
 20
26.7567
  0
POINT
  8
3
 10
23.7978
 20
26.7365
  0
POINT
  8
3
 10
23.5721
 20
26.7013
  0
POINT
  8
4
 10
23.5721
 20
26.7013
 30
0.1181
 39
0.1771
 50
103.0440
  0
POINT
  8
2
 10
23.5721
 20
26.7013
  0
POINT
  8
3
 10
23.3973
 20
26.6471
  0
POINT
  8
3
 10
23.2212
 20
26.5728
  0
POINT
  8
3
 10
23.0286
 20
26.4597
  0
POINT
  8
3
 10
22.8451
 20
26.3222
  0
POINT
  8
3
 10
22.6964
 20
26.1828
  0
POINT
  8
4
 10
22.5564
 20
26.0182
 30
0.1181
 39
0.1771
  0
POINT
  8
3
 10
22.5564
 20
26.0182
  0
POINT
  8
2
 10
22.4587
 20
25.8751
  0
POINT
  8
2
 10
22.4587
 20
25.8751
  0
POINT
  8
3
 10
22.3995
 20
25.7622
  0
POINT
  8
3
 10
22.3267
 20
25.5976
  0
POINT
  8
2
 10
22.1452
 20
25.0814
  0
POLYLINE
  8
1
 66
1
 70
0
  0
VERTEX
  8
1
 10
22.1452
 20
25.0814
  0
VERTEX
  8
1
 10
20.8020
 20
25.2746
  0
VERTEX
  8
1
 10
19.5294
 20
25.4518
  0
VERTEX
  8
1
 10
18.5878
 20
25.5566
  0
VERTEX
  8
1
 10
17.7864
 20
25.6291
  0
VERTEX
  8
1
 10
17.0242
 20
25.6710
  0
VERTEX
  8
1
 10
16.2864
 20
25.6869
  0
VERTEX
  8
1
 10
15.6678
 20
25.6704
  0
VERTEX
  8
1
 10
15.0520
 20
25.6295
  0
VERTEX
  8
1
 10
14.4087
 20
25.5958
  0
VERTEX
  8
1
 10
13.7235
 20
25.5447
  0
VERTEX
  8
1
 10
12.1593
 20
25.4049
  0
SEQEND
  8
1
  0
POLYLINE
  8
84
 66
1
 70
0
  0
VERTEX
  8
84
 10
22.1452
 20
25.0814
  0
VERTEX
  8
84
 10
20.8020
 20
25.2746
  0
VERTEX
  8
84
 10
19.5294
 20
25.4518
  0
VERTEX
  8
84
 10
18.5878
 20
25.5566
  0
VERTEX
  8
84
 10
17.7864
 20
25.6291
  0
VERTEX
  8
84
 10
17.0242
 20
25.6710
  0
VERTEX
  8
84
 10
16.2864
 20
25.6869
  0
VERTEX
  8
84
 10
15.6678
 20
25.6704
  0
VERTEX
  8
84
 10
15.0520
 20
25.6295
  0
VERTEX
  8
84
 10
14.4087
 20
25.5958
  0
VERTEX
  8
84
 10
13.7235
 20
25.5447
  0
VERTEX
  8
84
 10
12.1593
 20
25.4049
  0
SEQEND
  8
84
  0
POINT
  8
2
 10
22.1452
 20
25.0814
  0
POINT
  8
3
 10
20.8020
 20
25.2746
  0
POINT
  8
3
 10
19.5294
 20
25.4518
  0
POINT
  8
3
 10
18.5878
 20
25.5566
  0
POINT
  8
4
 10
17.7864
 20
25.6291
 30
0.1181
 39
0.1771
  0
POINT
  8
2
 10
17.7864
 20
25.6291
  0
POINT
  8
3
 10
17.0242
 20
25.6710
  0
POINT
  8
3
 10
16.2864
 20
25.6869
  0
POINT
  8
3
 10
15.6678
 20
25.6704
  0
POINT
  8
3
 10
15.0520
 20
25.6295
  0
POINT
  8
3
 10
14.4087
 20
25.5958
  0
POINT
  8
3
 10
13.7235
 20
25.5447
  0
POINT
  8
2
 10
12.1593
 20
25.4049
  0
LINE
  8
7
 10
13.9099
 20
31.1371
 11
20.1013
 21
31.1371
  0
LINE
  8
5
 10
13.9099
 20
31.1371
 11
20.1013
 21
31.1371
  0
POINT
  8
2
 10
13.9099
 20
31.1371
  0
POINT
  8
2
 10
20.1013
 20
31.1371
  0
LINE
  8
8
 10
2.2024
 20
35.3845
 11
20.8800
 21
35.3845
  0
POLYLINE
  8
85
 66
1
 70
0
  0
VERTEX
  8
85
 10
2.2024
 20
35.3845
  0
VERTEX
  8
85
 10
20.8800
 20
35.3845
  0
SEQEND
  8
85
  0
TEXT
  8
8
 10
2.2024
 20
35.3845
 40
0.250
 50
0.0000
  1
NM
  7
STANDARD
  0
TEXT
  8
85
 10
2.2024
 20
35.3845
 40
0.250
 50
0.0000
  1
NM
  7
STANDARD
  0
POINT
  8
2
 10
2.2024
 20
35.3845
  0
POINT
  8
2
 10
20.8800
 20
35.3845
  0
POLYLINE
  8
8
 66
1
 70
0
  0
VERTEX
  8
8
 10
11.9980
 20
29.9777
  0
VERTEX
  8
8
 10
15.5327
 20
29.9777
  0
VERTEX
  8
8
 10
20.9011
 20
29.6027
  0
SEQEND
  8
8
  0
POLYLINE
  8
85
 66
1
 70
0
  0
VERTEX
  8
85
 10
11.9980
 20
29.9777
  0
VERTEX
  8
85
 10
15.5327
 20
29.9777
  0
VERTEX
  8
85
 10
20.9011
 20
29.6027
  0
SEQEND
  8
85
  0
TEXT
  8
8
 10
11.9980
 20
29.9777
 40
0.250
 50
0.0000
  1
NM
  7
STANDARD
  0
TEXT
  8
85
 10
11.9980
 20
29.9777
 40
0.250
 50
0.0000
  1
NM
  7
STANDARD
  0
POINT
  8
2
 10
11.9980
 20
29.9777
  0
POINT
  8
2
 10
15.5327
 20
29.9777
  0
POINT
  8
2
 10
20.9011
 20
29.6027
  0
POLYLINE
  8
8
 66
1
 70
0
  0
VERTEX
  8
8
 10
11.9980
 20
29.2277
  0
VERTEX
  8
8
 10
15.5347
 20
29.2277
  0
VERTEX
  8
8
 10
20.9011
 20
29.6027
  0
SEQEND
  8
8
  0
POLYLINE
  8
85
 66
1
 70
0
  0
VERTEX
  8
85
 10
11.9980
 20
29.2277
  0
VERTEX
  8
85
 10
15.5347
 20
29.2277
  0
VERTEX
  8
85
 10
20.9011
 20
29.6027
  0
SEQEND
  8
85
  0
TEXT
  8
8
 10
11.9980
 20
29.2277
 40
0.250
 50
0.0000
  1
NM
  7
STANDARD
  0
TEXT
  8
85
 10
11.9980
 20
29.2277
 40
0.250
 50
0.0000
  1
NM
  7
STANDARD
  0
POINT
  8
2
 10
11.9980
 20
29.2277
  0
POINT
  8
2
 10
15.5347
 20
29.2277
  0
POINT
  8
2
 10
20.9011
 20
29.6027
  0
LINE
  8
8
 10
20.8800
 20
25.6727
 11
20.8800
 21
35.3845
  0
POLYLINE
  8
85
 66
1
 70
0
  0
VERTEX
  8
85
 10
20.8800
 20
25.6727
  0
VERTEX
  8
85
 10
20.8800
 20
35.3845
  0
SEQEND
  8
85
  0
TEXT
  8
8
 10
20.8800
 20
25.6727
 40
0.250
 50
0.0000
  1
NM
  7
STANDARD
  0
TEXT
  8
85
 10
20.8800
 20
25.6727
 40
0.250
 50
0.0000
  1
NM
  7
STANDARD
  0
POINT
  8
2
 10
20.8800
 20
25.6727
  0
POINT
  8
2
 10
20.8800
 20
35.3845
  0
LINE
  8
8
 10
15.6351
 20
35.3845
 11
15.6351
 21
34.7595
  0
POLYLINE
  8
85
 66
1
 70
0
  0
VERTEX
  8
85
 10
15.6351
 20
35.3845
  0
VERTEX
  8
85
 10
15.6351
 20
34.7595
  0
SEQEND
  8
85
  0
TEXT
  8
8
 10
15.6351
 20
35.3845
 40
0.250
 50
0.0000
  1
NM
  7
STANDARD
  0
TEXT
  8
85
 10
15.6351
 20
35.3845
 40
0.250
 50
0.0000
  1
NM
  7
STANDARD
  0
POINT
  8
2
 10
15.6351
 20
35.3845
  0
POINT
  8
2
 10
15.6351
 20
34.7595
  0
LINE
  8
8
 10
11.1351
 20
35.3845
 11
11.1351
 21
34.7595
  0
POLYLINE
  8
85
 66
1
 70
0
  0
VERTEX
  8
85
 10
11.1351
 20
35.3845
  0
VERTEX
  8
85
 10
11.1351
 20
34.7595
  0
SEQEND
  8
85
  0
TEXT
  8
8
 10
11.1351
 20
35.3845
 40
0.250
 50
0.0000
  1
NM
  7
STANDARD
  0
TEXT
  8
85
 10
11.1351
 20
35.3845
 40
0.250
 50
0.0000
  1
NM
  7
STANDARD
  0
POINT
  8
2
 10
11.1351
 20
35.3845
  0
POINT
  8
2
 10
11.1351
 20
34.7595
  0
LINE
  8
8
 10
15.2601
 20
36.0077
 11
15.2601
 21
29.9777
  0
POLYLINE
  8
85
 66
1
 70
0
  0
VERTEX
  8
85
 10
15.2601
 20
36.0077
  0
VERTEX
  8
85
 10
15.2601
 20
29.9777
  0
SEQEND
  8
85
  0
TEXT
  8
8
 10
15.2601
 20
36.0077
 40
0.250
 50
0.0000
  1
NM
  7
STANDARD
  0
TEXT
  8
85
 10
15.2601
 20
36.0077
 40
0.250
 50
0.0000
  1
NM
  7
STANDARD
  0
POINT
  8
2
 10
15.2601
 20
36.0077
  0
POINT
  8
2
 10
15.2601
 20
29.9777
  0
LINE
  8
8
 10
15.2601
 20
29.2277
 11
15.2601
 21
26.0383
  0
POLYLINE
  8
85
 66
1
 70
0
  0
VERTEX
  8
85
 10
15.2601
 20
29.2277
  0
VERTEX
  8
85
 10
15.2601
 20
26.0383
  0
SEQEND
  8
85
  0
TEXT
  8
8
 10
15.2601
 20
29.2277
 40
0.250
 50
0.0000
  1
NM
  7
STANDARD
  0
TEXT
  8
85
 10
15.2601
 20
29.2277
 40
0.250
 50
0.0000
  1
NM
  7
STANDARD
  0
POINT
  8
2
 10
15.2601
 20
29.2277
  0
POINT
  8
2
 10
15.2601
 20
26.0383
  0
LINE
  8
8
 10
16.1327
 20
36.0076
 11
33.8987
 21
30.7798
  0
POLYLINE
  8
85
 66
1
 70
0
  0
VERTEX
  8
85
 10
16.1327
 20
36.0076
  0
VERTEX
  8
85
 10
33.8987
 20
30.7798
  0
SEQEND
  8
85
  0
TEXT
  8
8
 10
16.1327
 20
36.0076
 40
0.250
 50
0.0000
  1
NM
  7
STANDARD
  0
TEXT
  8
85
 10
16.1327
 20
36.0076
 40
0.250
 50
0.0000
  1
NM
  7
STANDARD
  0
POINT
  8
2
 10
16.1327
 20
36.0076
  0
POINT
  8
2
 10
33.8987
 20
30.7798
  0
LINE
  8
8
 10
24.7326
 20
32.8311
 11
23.5915
 21
32.8311
  0
POLYLINE
  8
85
 66
1
 70
0
  0
VERTEX
  8
85
 10
24.7326
 20
32.8311
  0
VERTEX
  8
85
 10
23.5915
 20
32.8311
  0
SEQEND
  8
85
  0
TEXT
  8
8
 10
24.7326
 20
32.8311
 40
0.250
 50
0.0000
  1
NM
  7
STANDARD
  0
TEXT
  8
85
 10
24.7326
 20
32.8311
 40
0.250
 50
0.0000
  1
NM
  7
STANDARD
  0
POINT
  8
2
 10
24.7326
 20
32.8311
  0
POINT
  8
2
 10
23.5915
 20
32.8311
  0
LINE
  8
8
 10
23.5915
 20
32.8311
 11
24.3413
 21
28.3943
  0
POLYLINE
  8
85
 66
1
 70
0
  0
VERTEX
  8
85
 10
23.5915
 20
32.8311
  0
VERTEX
  8
85
 10
24.3413
 20
28.3943
  0
SEQEND
  8
85
  0
TEXT
  8
8
 10
23.5915
 20
32.8311
 40
0.250
 50
0.0000
  1
NM
  7
STANDARD
  0
TEXT
  8
85
 10
23.5915
 20
32.8311
 40
0.250
 50
0.0000
  1
NM
  7
STANDARD
  0
POINT
  8
2
 10
23.5915
 20
32.8311
  0
POINT
  8
2
 10
24.3413
 20
28.3943
  0
LINE
  8
8
 10
24.3413
 20
28.3943
 11
25.4938
 21
28.3267
  0
POLYLINE
  8
85
 66
1
 70
0
  0
VERTEX
  8
85
 10
24.3413
 20
28.3943
  0
VERTEX
  8
85
 10
25.4938
 20
28.3267
  0
SEQEND
  8
85
  0
TEXT
  8
8
 10
24.3413
 20
28.3943
 40
0.250
 50
0.0000
  1
NM
  7
STANDARD
  0
TEXT
  8
85
 10
24.3413
 20
28.3943
 40
0.250
 50
0.0000
  1
NM
  7
STANDARD
  0
POINT
  8
2
 10
24.3413
 20
28.3943
  0
POINT
  8
2
 10
25.4938
 20
28.3267
  0
LINE
  8
8
 10
2.2024
 20
26.2233
 11
2.2024
 21
35.3845
  0
POLYLINE
  8
85
 66
1
 70
0
  0
VERTEX
  8
85
 10
2.2024
 20
26.2233
  0
VERTEX
  8
85
 10
2.2024
 20
35.3845
  0
SEQEND
  8
85
  0
TEXT
  8
8
 10
2.2024
 20
26.2233
 40
0.250
 50
0.0000
  1
NM
  7
STANDARD
  0
TEXT
  8
85
 10
2.2024
 20
26.2233
 40
0.250
 50
0.0000
  1
NM
  7
STANDARD
  0
POINT
  8
2
 10
2.2024
 20
26.2233
  0
POINT
  8
2
 10
2.2024
 20
35.3845
  0
LINE
  8
8
 10
12.1859
 20
30.1277
 11
1.5529
 21
30.1277
  0
POLYLINE
  8
85
 66
1
 70
0
  0
VERTEX
  8
85
 10
12.1859
 20
30.1277
  0
VERTEX
  8
85
 10
1.5529
 20
30.1277
  0
SEQEND
  8
85
  0
TEXT
  8
8
 10
12.1859
 20
30.1277
 40
0.250
 50
0.0000
  1
NM
  7
STANDARD
  0
TEXT
  8
85
 10
12.1859
 20
30.1277
 40
0.250
 50
0.0000
  1
NM
  7
STANDARD
  0
POINT
  8
2
 10
12.1859
 20
30.1277
  0
POINT
  8
2
 10
1.5529
 20
30.1277
  0
LINE
  8
8
 10
23.5915
 20
32.8311
 11
23.5915
 21
28.3943
  0
POLYLINE
  8
85
 66
1
 70
0
  0
VERTEX
  8
85
 10
23.5915
 20
32.8311
  0
VERTEX
  8
85
 10
23.5915
 20
28.3943
  0
SEQEND
  8
85
  0
TEXT
  8
8
 10
23.5915
 20
32.8311
 40
0.250
 50
0.0000
  1
NM
  7
STANDARD
  0
TEXT
  8
85
 10
23.5915
 20
32.8311
 40
0.250
 50
0.0000
  1
NM
  7
STANDARD
  0
POINT
  8
2
 10
23.5915
 20
32.8311
  0
POINT
  8
2
 10
23.5915
 20
28.3943
  0
LINE
  8
8
 10
24.3413
 20
28.3943
 11
23.5915
 21
28.3943
  0
POLYLINE
  8
85
 66
1
 70
0
  0
VERTEX
  8
85
 10
24.3413
 20
28.3943
  0
VERTEX
  8
85
 10
23.5915
 20
28.3943
  0
SEQEND
  8
85
  0
TEXT
  8
8
 10
24.3413
 20
28.3943
 40
0.250
 50
0.0000
  1
NM
  7
STANDARD
  0
TEXT
  8
85
 10
24.3413
 20
28.3943
 40
0.250
 50
0.0000
  1
NM
  7
STANDARD
  0
POINT
  8
2
 10
24.3413
 20
28.3943
  0
POINT
  8
2
 10
23.5915
 20
28.3943
  0
LINE
  8
8
 10
25.4932
 20
28.3267
 11
25.4932
 21
27.0486
  0
POLYLINE
  8
85
 66
1
 70
0
  0
VERTEX
  8
85
 10
25.4932
 20
28.3267
  0
VERTEX
  8
85
 10
25.4932
 20
27.0486
  0
SEQEND
  8
85
  0
TEXT
  8
8
 10
25.4932
 20
28.3267
 40
0.250
 50
0.0000
  1
NM
  7
STANDARD
  0
TEXT
  8
85
 10
25.4932
 20
28.3267
 40
0.250
 50
0.0000
  1
NM
  7
STANDARD
  0
POINT
  8
2
 10
25.4932
 20
28.3267
  0
POINT
  8
2
 10
25.4932
 20
27.0486
  0
LINE
  8
8
 10
33.5421
 20
29.8461
 11
24.7326
 21
32.8311
  0
POLYLINE
  8
85
 66
1
 70
0
  0
VERTEX
  8
85
 10
33.5421
 20
29.8461
  0
VERTEX
  8
85
 10
24.7326
 20
32.8311
  0
SEQEND
  8
85
  0
TEXT
  8
8
 10
33.5421
 20
29.8461
 40
0.250
 50
0.0000
  1
NM
  7
STANDARD
  0
TEXT
  8
85
 10
33.5421
 20
29.8461
 40
0.250
 50
0.0000
  1
NM
  7
STANDARD
  0
POINT
  8
2
 10
33.5421
 20
29.8461
  0
POINT
  8
2
 10
24.7326
 20
32.8311
  0
LINE
  8
8
 10
24.7326
 20
32.8311
 11
25.4938
 21
28.3267
  0
POLYLINE
  8
85
 66
1
 70
0
  0
VERTEX
  8
85
 10
24.7326
 20
32.8311
  0
VERTEX
  8
85
 10
25.4938
 20
28.3267
  0
SEQEND
  8
85
  0
TEXT
  8
8
 10
24.7326
 20
32.8311
 40
0.250
 50
0.0000
  1
NM
  7
STANDARD
  0
TEXT
  8
85
 10
24.7326
 20
32.8311
 40
0.250
 50
0.0000
  1
NM
  7
STANDARD
  0
POINT
  8
2
 10
24.7326
 20
32.8311
  0
POINT
  8
2
 10
25.4938
 20
28.3267
  0
LINE
  8
8
 10
30.7448
 20
31.7225
 11
31.6400
 21
34.7152
  0
POLYLINE
  8
85
 66
1
 70
0
  0
VERTEX
  8
85
 10
30.7448
 20
31.7225
  0
VERTEX
  8
85
 10
31.6400
 20
34.7152
  0
SEQEND
  8
85
  0
TEXT
  8
8
 10
30.7448
 20
31.7225
 40
0.250
 50
0.0000
  1
NM
  7
STANDARD
  0
TEXT
  8
85
 10
30.7448
 20
31.7225
 40
0.250
 50
0.0000
  1
NM
  7
STANDARD
  0
POINT
  8
2
 10
30.7448
 20
31.7225
  0
POINT
  8
2
 10
31.6400
 20
34.7152
  0
LINE
  8
8
 10
30.1370
 20
34.3288
 11
29.5416
 21
33.8630
  0
POLYLINE
  8
85
 66
1
 70
0
  0
VERTEX
  8
85
 10
30.1370
 20
34.3288
  0
VERTEX
  8
85
 10
29.5416
 20
33.8630
  0
SEQEND
  8
85
  0
TEXT
  8
8
 10
30.1370
 20
34.3288
 40
0.250
 50
0.0000
  1
NM
  7
STANDARD
  0
TEXT
  8
85
 10
30.1370
 20
34.3288
 40
0.250
 50
0.0000
  1
NM
  7
STANDARD
  0
POINT
  8
2
 10
30.1370
 20
34.3288
  0
POINT
  8
2
 10
29.5416
 20
33.8630
  0
LINE
  8
8
 10
21.9984
 20
25.5163
 11
21.9984
 21
29.8461
  0
POLYLINE
  8
85
 66
1
 70
0
  0
VERTEX
  8
85
 10
21.9984
 20
25.5163
  0
VERTEX
  8
85
 10
21.9984
 20
29.8461
  0
SEQEND
  8
85
  0
TEXT
  8
8
 10
21.9984
 20
25.5163
 40
0.250
 50
0.0000
  1
NM
  7
STANDARD
  0
TEXT
  8
85
 10
21.9984
 20
25.5163
 40
0.250
 50
0.0000
  1
NM
  7
STANDARD
  0
POINT
  8
2
 10
21.9984
 20
25.5163
  0
POINT
  8
2
 10
21.9984
 20
29.8461
  0
LINE
  8
8
 10
33.5421
 20
29.8461
 11
21.9984
 21
29.8461
  0
POLYLINE
  8
85
 66
1
 70
0
  0
VERTEX
  8
85
 10
33.5421
 20
29.8461
  0
VERTEX
  8
85
 10
21.9984
 20
29.8461
  0
SEQEND
  8
85
  0
TEXT
  8
8
 10
33.5421
 20
29.8461
 40
0.250
 50
0.0000
  1
NM
  7
STANDARD
  0
TEXT
  8
85
 10
33.5421
 20
29.8461
 40
0.250
 50
0.0000
  1
NM
  7
STANDARD
  0
POINT
  8
2
 10
33.5421
 20
29.8461
  0
POINT
  8
2
 10
21.9984
 20
29.8461
  0
LINE
  8
10
 10
1.6781
 20
25.9815
 11
1.6781
 21
26.0828
  0
TEXT
  8
10
 10
1.6781
 20
25.9815
 40
0.250
 50
0.0000
  1
2
  7
STANDARD
  0
POINT
  8
2
 10
1.6781
 20
25.9815
  0
POINT
  8
2
 10
1.6781
 20
26.0828
  0
LINE
  8
10
 10
23.9306
 20
26.7750
 11
23.9306
 21
27.7497
  0
TEXT
  8
10
 10
23.9306
 20
26.7750
 40
0.250
 50
0.0000
  1
5
  7
STANDARD
  0
POINT
  8
2
 10
23.9306
 20
26.7750
  0
POINT
  8
2
 10
23.9306
 20
27.7497
  0
POLYLINE
  8
8
 66
1
 70
0
  0
VERTEX
  8
8
 10
12.0109
 20
29.6027
  0
VERTEX
  8
8
 10
15.4170
 20
29.6027
  0
VERTEX
  8
8
 10
15.5420
 20
29.7277
  0
VERTEX
  8
8
 10
15.6670
 20
29.6027
  0
VERTEX
  8
8
 10
19.4051
 20
29.6027
  0
SEQEND
  8
8
  0
POLYLINE
  8
85
 66
1
 70
0
  0
VERTEX
  8
85
 10
12.0109
 20
29.6027
  0
VERTEX
  8
85
 10
15.4170
 20
29.6027
  0
VERTEX
  8
85
 10
15.5420
 20
29.7277
  0
VERTEX
  8
85
 10
15.6670
 20
29.6027
  0
VERTEX
  8
85
 10
19.4051
 20
29.6027
  0
SEQEND
  8
85
  0
TEXT
  8
8
 10
12.0109
 20
29.6027
 40
0.250
 50
0.0000
  1
NM
  7
STANDARD
  0
TEXT
  8
85
 10
12.0109
 20
29.6027
 40
0.250
 50
0.0000
  1
NM
  7
STANDARD
  0
POINT
  8
2
 10
12.0109
 20
29.6027
  0
POINT
  8
2
 10
15.4170
 20
29.6027
  0
POINT
  8
2
 10
15.5420
 20
29.7277
  0
POINT
  8
2
 10
15.6670
 20
29.6027
  0
POINT
  8
2
 10
19.4051
 20
29.6027
  0
ENDBLK
  0
BLOCK
  8
0
  2
BUY-351994-STF-CL-HL-J-SH-02SV_40
 70
64
 10
0.0000
 20
0.0000
  0
TEXT
  8
1
 10
46.8210
 20
33.0427
 40
0.250
 50
0.0000
  1
Piece Name: BUY-351994-STF-CL-HL-J-SH-02SV
  7
STANDARD
  0
TEXT
  8
1
 10
46.8210
 20
33.1827
 40
0.250
 50
0.0000
  1
Quantity: 1,0
  7
STANDARD
  0
TEXT
  8
1
 10
46.8210
 20
33.3227
 40
0.250
 50
0.0000
  1
ANNOTATION
  7
STANDARD
  0
TEXT
  8
1
 10
46.8210
 20
33.4627
 40
0.250
 50
0.0000
  1
CATEGORY: 2
  7
STANDARD
  0
TEXT
  8
1
 10
46.8210
 20
33.6027
 40
0.250
 50
0.0000
  1
SIZE: 40
  7
STANDARD
  0
POLYLINE
  8
1
 66
1
 70
0
  0
VERTEX
  8
1
 10
59.1738
 20
30.3047
  0
VERTEX
  8
1
 10
58.2653
 20
30.3261
  0
VERTEX
  8
1
 10
57.3651
 20
30.3473
  0
VERTEX
  8
1
 10
55.9794
 20
30.3786
  0
VERTEX
  8
1
 10
54.7614
 20
30.4388
  0
VERTEX
  8
1
 10
54.7614
 20
30.4388
  0
VERTEX
  8
1
 10
53.5096
 20
30.5221
  0
VERTEX
  8
1
 10
52.0891
 20
30.6167
  0
VERTEX
  8
1
 10
50.8833
 20
30.6886
  0
VERTEX
  8
1
 10
49.4962
 20
30.7274
  0
VERTEX
  8
1
 10
49.4962
 20
30.7274
  0
VERTEX
  8
1
 10
48.0421
 20
30.6732
  0
VERTEX
  8
1
 10
46.5757
 20
30.5823
  0
VERTEX
  8
1
 10
45.4687
 20
30.4979
  0
VERTEX
  8
1
 10
44.0020
 20
30.3551
  0
VERTEX
  8
1
 10
42.0715
 20
30.1671
  0
VERTEX
  8
1
 10
40.0645
 20
30.0083
  0
VERTEX
  8
1
 10
38.4943
 20
29.9214
  0
VERTEX
  8
1
 10
37.4498
 20
29.8387
  0
VERTEX
  8
1
 10
36.0478
 20
29.7642
  0
VERTEX
  8
1
 10
34.5549
 20
29.7267
  0
SEQEND
  8
1
  0
POLYLINE
  8
84
 66
1
 70
0
  0
VERTEX
  8
84
 10
59.1738
 20
30.3047
  0
VERTEX
  8
84
 10
58.2653
 20
30.3261
  0
VERTEX
  8
84
 10
57.3651
 20
30.3473
  0
VERTEX
  8
84
 10
55.9794
 20
30.3786
  0
VERTEX
  8
84
 10
54.7614
 20
30.4388
  0
VERTEX
  8
84
 10
54.7614
 20
30.4388
  0
VERTEX
  8
84
 10
53.5096
 20
30.5221
  0
VERTEX
  8
84
 10
52.0891
 20
30.6167
  0
VERTEX
  8
84
 10
50.8833
 20
30.6886
  0
VERTEX
  8
84
 10
49.4962
 20
30.7274
  0
VERTEX
  8
84
 10
49.4962
 20
30.7274
  0
VERTEX
  8
84
 10
48.0421
 20
30.6732
  0
VERTEX
  8
84
 10
46.5757
 20
30.5823
  0
VERTEX
  8
84
 10
45.4687
 20
30.4979
  0
VERTEX
  8
84
 10
44.0020
 20
30.3551
  0
VERTEX
  8
84
 10
42.0715
 20
30.1671
  0
VERTEX
  8
84
 10
40.0645
 20
30.0083
  0
VERTEX
  8
84
 10
38.4943
 20
29.9214
  0
VERTEX
  8
84
 10
37.4498
 20
29.8387
  0
VERTEX
  8
84
 10
36.0478
 20
29.7642
  0
VERTEX
  8
84
 10
34.5549
 20
29.7267
  0
SEQEND
  8
84
  0
POINT
  8
2
 10
59.1738
 20
30.3047
  0
POINT
  8
3
 10
58.2653
 20
30.3261
  0
POINT
  8
3
 10
57.3651
 20
30.3473
  0
POINT
  8
3
 10
55.9794
 20
30.3786
  0
POINT
  8
2
 10
54.7614
 20
30.4388
  0
POINT
  8
4
 10
54.7614
 20
30.4388
 30
0.1181
 39
0.1771
 50
86.6806
  0
POINT
  8
2
 10
54.7614
 20
30.4388
  0
POINT
  8
3
 10
53.5096
 20
30.5221
  0
POINT
  8
3
 10
52.0891
 20
30.6167
  0
POINT
  8
3
 10
50.8833
 20
30.6886
  0
POINT
  8
2
 10
49.4962
 20
30.7274
  0
POINT
  8
4
 10
49.4962
 20
30.7274
 30
0.1181
 39
0.1771
 50
90.2636
  0
POINT
  8
2
 10
49.4962
 20
30.7274
  0
POINT
  8
3
 10
48.0421
 20
30.6732
  0
POINT
  8
3
 10
46.5757
 20
30.5823
  0
POINT
  8
2
 10
45.4687
 20
30.4979
  0
POINT
  8
3
 10
44.0020
 20
30.3551
  0
POINT
  8
3
 10
42.0715
 20
30.1671
  0
POINT
  8
3
 10
40.0645
 20
30.0083
  0
POINT
  8
3
 10
38.4943
 20
29.9214
  0
POINT
  8
3
 10
37.4498
 20
29.8387
  0
POINT
  8
4
 10
36.0478
 20
29.7642
 30
0.1181
 39
0.1771
  0
POINT
  8
3
 10
36.0478
 20
29.7642
  0
POINT
  8
2
 10
34.5549
 20
29.7267
  0
POLYLINE
  8
1
 66
1
 70
0
  0
VERTEX
  8
1
 10
34.5549
 20
29.7267
  0
VERTEX
  8
1
 10
34.4949
 20
33.3222
  0
VERTEX
  8
1
 10
34.4499
 20
36.2907
  0
SEQEND
  8
1
  0
POLYLINE
  8
84
 66
1
 70
0
  0
VERTEX
  8
84
 10
34.5549
 20
29.7267
  0
VERTEX
  8
84
 10
34.4949
 20
33.3222
  0
VERTEX
  8
84
 10
34.4499
 20
36.2907
  0
SEQEND
  8
84
  0
POINT
  8
2
 10
34.5549
 20
29.7267
  0
POINT
  8
4
 10
34.4949
 20
33.3222
 30
0.1181
 39
0.1771
  0
POINT
  8
3
 10
34.4949
 20
33.3222
  0
POINT
  8
2
 10
34.4499
 20
36.2907
  0
POLYLINE
  8
1
 66
1
 70
0
  0
VERTEX
  8
1
 10
34.4499
 20
36.2907
  0
VERTEX
  8
1
 10
35.9480
 20
36.3587
  0
VERTEX
  8
1
 10
35.9480
 20
36.3587
  0
VERTEX
  8
1
 10
37.8971
 20
36.2985
  0
VERTEX
  8
1
 10
40.1615
 20
36.2496
  0
VERTEX
  8
1
 10
42.2698
 20
36.1681
  0
VERTEX
  8
1
 10
44.4406
 20
36.0417
  0
VERTEX
  8
1
 10
46.2734
 20
35.9095
  0
VERTEX
  8
1
 10
46.2734
 20
35.9095
  0
VERTEX
  8
1
 10
47.9865
 20
35.7907
  0
VERTEX
  8
1
 10
48.9653
 20
35.7394
  0
VERTEX
  8
1
 10
49.9417
 20
35.7028
  0
VERTEX
  8
1
 10
50.9965
 20
35.6795
  0
VERTEX
  8
1
 10
51.9354
 20
35.6755
  0
VERTEX
  8
1
 10
51.9354
 20
35.6755
  0
VERTEX
  8
1
 10
53.2412
 20
35.6927
  0
VERTEX
  8
1
 10
54.2836
 20
35.7210
  0
VERTEX
  8
1
 10
55.2878
 20
35.7559
  0
VERTEX
  8
1
 10
56.2048
 20
35.7877
  0
SEQEND
  8
1
  0
POLYLINE
  8
84
 66
1
 70
0
  0
VERTEX
  8
84
 10
34.4499
 20
36.2907
  0
VERTEX
  8
84
 10
35.9480
 20
36.3587
  0
VERTEX
  8
84
 10
35.9480
 20
36.3587
  0
VERTEX
  8
84
 10
37.8971
 20
36.2985
  0
VERTEX
  8
84
 10
40.1615
 20
36.2496
  0
VERTEX
  8
84
 10
42.2698
 20
36.1681
  0
VERTEX
  8
84
 10
44.4406
 20
36.0417
  0
VERTEX
  8
84
 10
46.2734
 20
35.9095
  0
VERTEX
  8
84
 10
46.2734
 20
35.9095
  0
VERTEX
  8
84
 10
47.9865
 20
35.7907
  0
VERTEX
  8
84
 10
48.9653
 20
35.7394
  0
VERTEX
  8
84
 10
49.9417
 20
35.7028
  0
VERTEX
  8
84
 10
50.9965
 20
35.6795
  0
VERTEX
  8
84
 10
51.9354
 20
35.6755
  0
VERTEX
  8
84
 10
51.9354
 20
35.6755
  0
VERTEX
  8
84
 10
53.2412
 20
35.6927
  0
VERTEX
  8
84
 10
54.2836
 20
35.7210
  0
VERTEX
  8
84
 10
55.2878
 20
35.7559
  0
VERTEX
  8
84
 10
56.2048
 20
35.7877
  0
SEQEND
  8
84
  0
POINT
  8
2
 10
34.4499
 20
36.2907
  0
POINT
  8
2
 10
35.9480
 20
36.3587
  0
POINT
  8
4
 10
35.9480
 20
36.3587
 30
0.1181
 39
0.1771
 50
-89.5875
  0
POINT
  8
2
 10
35.9480
 20
36.3587
  0
POINT
  8
3
 10
37.8971
 20
36.2985
  0
POINT
  8
3
 10
40.1615
 20
36.2496
  0
POINT
  8
3
 10
42.2698
 20
36.1681
  0
POINT
  8
3
 10
44.4406
 20
36.0417
  0
POINT
  8
3
 10
46.2734
 20
35.9095
  0
POINT
  8
4
 10
46.2734
 20
35.9095
 30
0.1181
 39
0.1771
 50
-94.0485
  0
POINT
  8
2
 10
46.2734
 20
35.9095
  0
POINT
  8
3
 10
47.9865
 20
35.7907
  0
POINT
  8
3
 10
48.9653
 20
35.7394
  0
POINT
  8
3
 10
49.9417
 20
35.7028
  0
POINT
  8
3
 10
50.9965
 20
35.6795
  0
POINT
  8
3
 10
51.9354
 20
35.6755
  0
POINT
  8
4
 10
51.9354
 20
35.6755
 30
0.1181
 39
0.1771
 50
-89.7422
  0
POINT
  8
2
 10
51.9354
 20
35.6755
  0
POINT
  8
3
 10
53.2412
 20
35.6927
  0
POINT
  8
3
 10
54.2836
 20
35.7210
  0
POINT
  8
3
 10
55.2878
 20
35.7559
  0
POINT
  8
2
 10
56.2048
 20
35.7877
  0
POLYLINE
  8
1
 66
1
 70
0
  0
VERTEX
  8
1
 10
56.2048
 20
35.7877
  0
VERTEX
  8
1
 10
56.3015
 20
35.4060
  0
VERTEX
  8
1
 10
56.2672
 20
35.0398
  0
VERTEX
  8
1
 10
56.2486
 20
34.6602
  0
VERTEX
  8
1
 10
56.2635
 20
34.2317
  0
VERTEX
  8
1
 10
56.3137
 20
33.7673
  0
VERTEX
  8
1
 10
56.3937
 20
33.4005
  0
VERTEX
  8
1
 10
56.4801
 20
33.1475
  0
VERTEX
  8
1
 10
56.5839
 20
32.9018
  0
VERTEX
  8
1
 10
56.7699
 20
32.5619
  0
VERTEX
  8
1
 10
56.9202
 20
32.3511
  0
VERTEX
  8
1
 10
57.0874
 20
32.1477
  0
VERTEX
  8
1
 10
57.3005
 20
31.9327
  0
VERTEX
  8
1
 10
57.5295
 20
31.7316
  0
VERTEX
  8
1
 10
57.8617
 20
31.4852
  0
VERTEX
  8
1
 10
58.1059
 20
31.3278
  0
VERTEX
  8
1
 10
58.3586
 20
31.1855
  0
VERTEX
  8
1
 10
58.7725
 20
30.9994
  0
VERTEX
  8
1
 10
59.1921
 20
30.8254
  0
SEQEND
  8
1
  0
POLYLINE
  8
84
 66
1
 70
0
  0
VERTEX
  8
84
 10
56.2048
 20
35.7877
  0
VERTEX
  8
84
 10
56.3015
 20
35.4060
  0
VERTEX
  8
84
 10
56.2672
 20
35.0398
  0
VERTEX
  8
84
 10
56.2486
 20
34.6602
  0
VERTEX
  8
84
 10
56.2635
 20
34.2317
  0
VERTEX
  8
84
 10
56.3137
 20
33.7673
  0
VERTEX
  8
84
 10
56.3937
 20
33.4005
  0
VERTEX
  8
84
 10
56.4801
 20
33.1475
  0
VERTEX
  8
84
 10
56.5839
 20
32.9018
  0
VERTEX
  8
84
 10
56.7699
 20
32.5619
  0
VERTEX
  8
84
 10
56.9202
 20
32.3511
  0
VERTEX
  8
84
 10
57.0874
 20
32.1477
  0
VERTEX
  8
84
 10
57.3005
 20
31.9327
  0
VERTEX
  8
84
 10
57.5295
 20
31.7316
  0
VERTEX
  8
84
 10
57.8617
 20
31.4852
  0
VERTEX
  8
84
 10
58.1059
 20
31.3278
  0
VERTEX
  8
84
 10
58.3586
 20
31.1855
  0
VERTEX
  8
84
 10
58.7725
 20
30.9994
  0
VERTEX
  8
84
 10
59.1921
 20
30.8254
  0
SEQEND
  8
84
  0
POINT
  8
2
 10
56.2048
 20
35.7877
  0
POINT
  8
2
 10
56.3015
 20
35.4060
  0
POINT
  8
3
 10
56.2672
 20
35.0398
  0
POINT
  8
3
 10
56.2486
 20
34.6602
  0
POINT
  8
3
 10
56.2635
 20
34.2317
  0
POINT
  8
4
 10
56.3137
 20
33.7673
 30
0.1181
 39
0.1771
  0
POINT
  8
2
 10
56.3137
 20
33.7673
  0
POINT
  8
3
 10
56.3937
 20
33.4005
  0
POINT
  8
3
 10
56.4801
 20
33.1475
  0
POINT
  8
3
 10
56.5839
 20
32.9018
  0
POINT
  8
3
 10
56.7699
 20
32.5619
  0
POINT
  8
3
 10
56.9202
 20
32.3511
  0
POINT
  8
3
 10
57.0874
 20
32.1477
  0
POINT
  8
3
 10
57.3005
 20
31.9327
  0
POINT
  8
3
 10
57.5295
 20
31.7316
  0
POINT
  8
3
 10
57.8617
 20
31.4852
  0
POINT
  8
3
 10
58.1059
 20
31.3278
  0
POINT
  8
3
 10
58.3586
 20
31.1855
  0
POINT
  8
3
 10
58.7725
 20
30.9994
  0
POINT
  8
2
 10
59.1921
 20
30.8254
  0
POLYLINE
  8
1
 66
1
 70
0
  0
VERTEX
  8
1
 10
59.1921
 20
30.8254
  0
VERTEX
  8
1
 10
59.1738
 20
30.3047
  0
SEQEND
  8
1
  0
POLYLINE
  8
84
 66
1
 70
0
  0
VERTEX
  8
84
 10
59.1921
 20
30.8254
  0
VERTEX
  8
84
 10
59.1738
 20
30.3047
  0
SEQEND
  8
84
  0
POINT
  8
2
 10
59.1921
 20
30.8254
  0
POINT
  8
2
 10
59.1738
 20
30.3047
  0
LINE
  8
7
 10
43.9789
 20
33.4102
 11
49.7475
 21
33.4102
  0
LINE
  8
5
 10
43.9789
 20
33.4102
 11
49.7475
 21
33.4102
  0
POINT
  8
2
 10
43.9789
 20
33.4102
  0
POINT
  8
2
 10
49.7475
 20
33.4102
  0
LINE
  8
8
 10
55.0372
 20
35.3491
 11
55.0372
 21
30.9262
  0
POLYLINE
  8
85
 66
1
 70
0
  0
VERTEX
  8
85
 10
55.0372
 20
35.3491
  0
VERTEX
  8
85
 10
55.0372
 20
30.9262
  0
SEQEND
  8
85
  0
TEXT
  8
8
 10
55.0372
 20
35.3491
 40
0.250
 50
0.0000
  1
NM
  7
STANDARD
  0
TEXT
  8
85
 10
55.0372
 20
35.3491
 40
0.250
 50
0.0000
  1
NM
  7
STANDARD
  0
POINT
  8
2
 10
55.0372
 20
35.3491
  0
POINT
  8
2
 10
55.0372
 20
30.9262
  0
LINE
  8
8
 10
36.5403
 20
30.3425
 11
36.4552
 21
35.9524
  0
POLYLINE
  8
85
 66
1
 70
0
  0
VERTEX
  8
85
 10
36.5403
 20
30.3425
  0
VERTEX
  8
85
 10
36.4552
 20
35.9524
  0
SEQEND
  8
85
  0
TEXT
  8
8
 10
36.5403
 20
30.3425
 40
0.250
 50
0.0000
  1
NM
  7
STANDARD
  0
TEXT
  8
85
 10
36.5403
 20
30.3425
 40
0.250
 50
0.0000
  1
NM
  7
STANDARD
  0
POINT
  8
2
 10
36.5403
 20
30.3425
  0
POINT
  8
2
 10
36.4552
 20
35.9524
  0
LINE
  8
8
 10
49.5111
 20
35.3303
 11
49.5111
 21
31.2273
  0
POLYLINE
  8
85
 66
1
 70
0
  0
VERTEX
  8
85
 10
49.5111
 20
35.3303
  0
VERTEX
  8
85
 10
49.5111
 20
31.2273
  0
SEQEND
  8
85
  0
TEXT
  8
8
 10
49.5111
 20
35.3303
 40
0.250
 50
0.0000
  1
NM
  7
STANDARD
  0
TEXT
  8
85
 10
49.5111
 20
35.3303
 40
0.250
 50
0.0000
  1
NM
  7
STANDARD
  0
POINT
  8
2
 10
49.5111
 20
35.3303
  0
POINT
  8
2
 10
49.5111
 20
31.2273
  0
LINE
  8
10
 10
35.9476
 20
36.3444
 11
35.9476
 21
36.2135
  0
TEXT
  8
10
 10
35.9476
 20
36.3444
 40
0.250
 50
0.0000
  1
2
  7
STANDARD
  0
POINT
  8
2
 10
35.9476
 20
36.3444
  0
POINT
  8
2
 10
35.9476
 20
36.2135
  0
LINE
  8
10
 10
49.4962
 20
30.9299
 11
49.4962
 21
31.0993
  0
TEXT
  8
10
 10
49.4962
 20
30.9299
 40
0.250
 50
0.0000
  1
3
  7
STANDARD
  0
POINT
  8
2
 10
49.4962
 20
30.9299
  0
POINT
  8
2
 10
49.4962
 20
31.0993
  0
ENDBLK
  0
BLOCK
  8
0
  2
BUY-351994-STF-CL-HL-J-SH-03SV-L_40
 70
64
 10
0.0000
 20
0.0000
  0
TEXT
  8
1
 10
16.7556
 20
17.8769
 40
0.250
 50
0.0000
  1
Piece Name: BUY-351994-STF-CL-HL-J-SH-03SV-L
  7
STANDARD
  0
TEXT
  8
1
 10
16.7556
 20
18.0169
 40
0.250
 50
0.0000
  1
Quantity: 1,0
  7
STANDARD
  0
TEXT
  8
1
 10
16.7556
 20
18.1569
 40
0.250
 50
0.0000
  1
ANNOTATION
  7
STANDARD
  0
TEXT
  8
1
 10
16.7556
 20
18.2969
 40
0.250
 50
0.0000
  1
CATEGORY: 3-1
  7
STANDARD
  0
TEXT
  8
1
 10
16.7556
 20
18.4369
 40
0.250
 50
0.0000
  1
SIZE: 40
  7
STANDARD
  0
POLYLINE
  8
1
 66
1
 70
0
  0
VERTEX
  8
1
 10
0.0000
 20
12.1101
  0
VERTEX
  8
1
 10
0.0069
 20
23.0283
  0
SEQEND
  8
1
  0
POLYLINE
  8
84
 66
1
 70
0
  0
VERTEX
  8
84
 10
0.0000
 20
12.1101
  0
VERTEX
  8
84
 10
0.0069
 20
23.0283
  0
SEQEND
  8
84
  0
POINT
  8
2
 10
0.0000
 20
12.1101
  0
POINT
  8
2
 10
0.0069
 20
23.0283
  0
POLYLINE
  8
1
 66
1
 70
0
  0
VERTEX
  8
1
 10
0.0069
 20
23.0283
  0
VERTEX
  8
1
 10
1.5034
 20
22.9789
  0
VERTEX
  8
1
 10
3.3694
 20
22.9316
  0
VERTEX
  8
1
 10
5.2523
 20
22.8562
  0
VERTEX
  8
1
 10
7.3995
 20
22.6976
  0
VERTEX
  8
1
 10
8.7123
 20
22.5420
  0
VERTEX
  8
1
 10
9.8683
 20
22.4410
  0
VERTEX
  8
1
 10
10.9447
 20
22.3472
  0
VERTEX
  8
1
 10
12.0480
 20
22.2633
  0
VERTEX
  8
1
 10
13.5141
 20
22.1728
  0
VERTEX
  8
1
 10
14.9693
 20
22.1340
  0
VERTEX
  8
1
 10
16.0974
 20
22.1951
  0
VERTEX
  8
1
 10
17.0445
 20
22.2742
  0
VERTEX
  8
1
 10
17.9917
 20
22.3774
  0
VERTEX
  8
1
 10
18.7487
 20
22.4889
  0
VERTEX
  8
1
 10
19.5482
 20
22.6178
  0
VERTEX
  8
1
 10
20.1488
 20
22.7259
  0
VERTEX
  8
1
 10
20.2650
 20
22.7475
  0
VERTEX
  8
1
 10
21.1591
 20
22.9286
  0
VERTEX
  8
1
 10
21.9583
 20
23.0902
  0
VERTEX
  8
1
 10
23.1139
 20
23.3350
  0
VERTEX
  8
1
 10
24.5707
 20
23.6437
  0
SEQEND
  8
1
  0
POLYLINE
  8
84
 66
1
 70
0
  0
VERTEX
  8
84
 10
0.0069
 20
23.0283
  0
VERTEX
  8
84
 10
1.5034
 20
22.9789
  0
VERTEX
  8
84
 10
3.3694
 20
22.9316
  0
VERTEX
  8
84
 10
5.2523
 20
22.8562
  0
VERTEX
  8
84
 10
6.3266
 20
22.7871
  0
VERTEX
  8
84
 10
7.3995
 20
22.6976
  0
VERTEX
  8
84
 10
8.7123
 20
22.5420
  0
VERTEX
  8
84
 10
9.8683
 20
22.4410
  0
VERTEX
  8
84
 10
10.9447
 20
22.3472
  0
VERTEX
  8
84
 10
12.0480
 20
22.2633
  0
VERTEX
  8
84
 10
13.5141
 20
22.1728
  0
VERTEX
  8
84
 10
14.9693
 20
22.1340
  0
VERTEX
  8
84
 10
16.0974
 20
22.1951
  0
VERTEX
  8
84
 10
17.0445
 20
22.2742
  0
VERTEX
  8
84
 10
17.9917
 20
22.3774
  0
VERTEX
  8
84
 10
18.7487
 20
22.4889
  0
VERTEX
  8
84
 10
19.5482
 20
22.6178
  0
VERTEX
  8
84
 10
20.1488
 20
22.7259
  0
VERTEX
  8
84
 10
20.2650
 20
22.7475
  0
VERTEX
  8
84
 10
21.1591
 20
22.9286
  0
VERTEX
  8
84
 10
21.9583
 20
23.0902
  0
VERTEX
  8
84
 10
23.1139
 20
23.3350
  0
VERTEX
  8
84
 10
24.5707
 20
23.6437
  0
SEQEND
  8
84
  0
POINT
  8
2
 10
0.0069
 20
23.0283
  0
POINT
  8
4
 10
1.5034
 20
22.9789
 30
0.1181
 39
0.1771
  0
POINT
  8
3
 10
1.5034
 20
22.9789
  0
POINT
  8
3
 10
3.3694
 20
22.9316
  0
POINT
  8
3
 10
5.2523
 20
22.8562
  0
POINT
  8
3
 10
7.3995
 20
22.6976
  0
POINT
  8
3
 10
8.7123
 20
22.5420
  0
POINT
  8
3
 10
9.8683
 20
22.4410
  0
POINT
  8
2
 10
10.9447
 20
22.3472
  0
POINT
  8
3
 10
12.0480
 20
22.2633
  0
POINT
  8
3
 10
13.5141
 20
22.1728
  0
POINT
  8
4
 10
14.9693
 20
22.1340
 30
0.1181
 39
0.1771
  0
POINT
  8
2
 10
14.9693
 20
22.1340
  0
POINT
  8
3
 10
16.0974
 20
22.1951
  0
POINT
  8
3
 10
17.0445
 20
22.2742
  0
POINT
  8
3
 10
17.9917
 20
22.3774
  0
POINT
  8
3
 10
18.7487
 20
22.4889
  0
POINT
  8
3
 10
19.5482
 20
22.6178
  0
POINT
  8
4
 10
20.1488
 20
22.7259
 30
0.1181
 39
0.1771
  0
POINT
  8
2
 10
20.1488
 20
22.7259
  0
POINT
  8
2
 10
20.2650
 20
22.7475
  0
POINT
  8
3
 10
21.1591
 20
22.9286
  0
POINT
  8
3
 10
21.9583
 20
23.0902
  0
POINT
  8
3
 10
23.1139
 20
23.3350
  0
POINT
  8
2
 10
24.5707
 20
23.6437
  0
POLYLINE
  8
1
 66
1
 70
0
  0
VERTEX
  8
1
 10
24.5707
 20
23.6437
  0
VERTEX
  8
1
 10
24.6811
 20
23.1565
  0
SEQEND
  8
1
  0
POLYLINE
  8
84
 66
1
 70
0
  0
VERTEX
  8
84
 10
24.5707
 20
23.6437
  0
VERTEX
  8
84
 10
24.6811
 20
23.1565
  0
SEQEND
  8
84
  0
POINT
  8
2
 10
24.5707
 20
23.6437
  0
POINT
  8
2
 10
24.6811
 20
23.1565
  0
POLYLINE
  8
1
 66
1
 70
0
  0
VERTEX
  8
1
 10
24.6811
 20
23.1565
  0
VERTEX
  8
1
 10
25.2363
 20
23.1293
  0
VERTEX
  8
1
 10
25.8132
 20
23.1109
  0
VERTEX
  8
1
 10
26.2315
 20
23.1049
  0
VERTEX
  8
1
 10
26.2315
 20
23.1049
  0
VERTEX
  8
1
 10
27.0384
 20
23.1197
  0
VERTEX
  8
1
 10
27.7864
 20
23.1471
  0
VERTEX
  8
1
 10
28.5257
 20
23.1942
  0
VERTEX
  8
1
 10
29.2895
 20
23.2809
  0
VERTEX
  8
1
 10
30.2579
 20
23.4294
  0
SEQEND
  8
1
  0
POLYLINE
  8
84
 66
1
 70
0
  0
VERTEX
  8
84
 10
24.6811
 20
23.1565
  0
VERTEX
  8
84
 10
25.2363
 20
23.1293
  0
VERTEX
  8
84
 10
25.8132
 20
23.1109
  0
VERTEX
  8
84
 10
26.2315
 20
23.1049
  0
VERTEX
  8
84
 10
26.2315
 20
23.1049
  0
VERTEX
  8
84
 10
27.0384
 20
23.1197
  0
VERTEX
  8
84
 10
27.7864
 20
23.1471
  0
VERTEX
  8
84
 10
28.5257
 20
23.1942
  0
VERTEX
  8
84
 10
29.2895
 20
23.2809
  0
VERTEX
  8
84
 10
30.2579
 20
23.4294
  0
SEQEND
  8
84
  0
POINT
  8
2
 10
24.6811
 20
23.1565
  0
POINT
  8
3
 10
25.2363
 20
23.1293
  0
POINT
  8
3
 10
25.8132
 20
23.1109
  0
POINT
  8
3
 10
26.2315
 20
23.1049
  0
POINT
  8
4
 10
26.2315
 20
23.1049
 30
0.1181
 39
0.1771
 50
-89.8797
  0
POINT
  8
2
 10
26.2315
 20
23.1049
  0
POINT
  8
3
 10
27.0384
 20
23.1197
  0
POINT
  8
3
 10
27.7864
 20
23.1471
  0
POINT
  8
3
 10
28.5257
 20
23.1942
  0
POINT
  8
3
 10
29.2895
 20
23.2809
  0
POINT
  8
2
 10
30.2579
 20
23.4294
  0
POLYLINE
  8
1
 66
1
 70
0
  0
VERTEX
  8
1
 10
30.2579
 20
23.4294
  0
VERTEX
  8
1
 10
30.5725
 20
23.2731
  0
SEQEND
  8
1
  0
POLYLINE
  8
84
 66
1
 70
0
  0
VERTEX
  8
84
 10
30.2579
 20
23.4294
  0
VERTEX
  8
84
 10
30.5725
 20
23.2731
  0
SEQEND
  8
84
  0
POINT
  8
2
 10
30.2579
 20
23.4294
  0
POINT
  8
2
 10
30.5725
 20
23.2731
  0
POLYLINE
  8
1
 66
1
 70
0
  0
VERTEX
  8
1
 10
30.5725
 20
23.2731
  0
VERTEX
  8
1
 10
30.8666
 20
22.5974
  0
VERTEX
  8
1
 10
31.0068
 20
22.2783
  0
VERTEX
  8
1
 10
31.0068
 20
22.2783
  0
VERTEX
  8
1
 10
31.5930
 20
21.0428
  0
VERTEX
  8
1
 10
31.9951
 20
20.2150
  0
VERTEX
  8
1
 10
32.5156
 20
19.2240
  0
VERTEX
  8
1
 10
32.9857
 20
18.3769
  0
VERTEX
  8
1
 10
32.9857
 20
18.3769
  0
VERTEX
  8
1
 10
33.1854
 20
18.0139
  0
VERTEX
  8
1
 10
33.5112
 20
17.3986
  0
SEQEND
  8
1
  0
POLYLINE
  8
84
 66
1
 70
0
  0
VERTEX
  8
84
 10
30.5725
 20
23.2731
  0
VERTEX
  8
84
 10
30.8666
 20
22.5974
  0
VERTEX
  8
84
 10
31.0068
 20
22.2783
  0
VERTEX
  8
84
 10
31.0068
 20
22.2783
  0
VERTEX
  8
84
 10
31.5930
 20
21.0428
  0
VERTEX
  8
84
 10
31.9951
 20
20.2150
  0
VERTEX
  8
84
 10
32.5156
 20
19.2240
  0
VERTEX
  8
84
 10
32.9857
 20
18.3769
  0
VERTEX
  8
84
 10
32.9857
 20
18.3769
  0
VERTEX
  8
84
 10
33.1854
 20
18.0139
  0
VERTEX
  8
84
 10
33.5112
 20
17.3986
  0
SEQEND
  8
84
  0
POINT
  8
2
 10
30.5725
 20
23.2731
  0
POINT
  8
3
 10
30.8666
 20
22.5974
  0
POINT
  8
3
 10
31.0068
 20
22.2783
  0
POINT
  8
4
 10
31.0068
 20
22.2783
 30
0.1181
 39
0.1771
 50
-155.4441
  0
POINT
  8
2
 10
31.0068
 20
22.2783
  0
POINT
  8
3
 10
31.5930
 20
21.0428
  0
POINT
  8
3
 10
31.9951
 20
20.2150
  0
POINT
  8
3
 10
32.5156
 20
19.2240
  0
POINT
  8
3
 10
32.9857
 20
18.3769
  0
POINT
  8
4
 10
32.9857
 20
18.3769
 30
0.1181
 39
0.1771
 50
-151.0795
  0
POINT
  8
2
 10
32.9857
 20
18.3769
  0
POINT
  8
3
 10
33.1854
 20
18.0139
  0
POINT
  8
2
 10
33.5112
 20
17.3986
  0
POLYLINE
  8
1
 66
1
 70
0
  0
VERTEX
  8
1
 10
33.5112
 20
17.3986
  0
VERTEX
  8
1
 10
33.1328
 20
17.0107
  0
VERTEX
  8
1
 10
32.8311
 20
16.5621
  0
VERTEX
  8
1
 10
32.6621
 20
15.7077
  0
VERTEX
  8
1
 10
32.6526
 20
15.2399
  0
VERTEX
  8
1
 10
32.6505
 20
14.7647
  0
VERTEX
  8
1
 10
32.6503
 20
14.0443
  0
VERTEX
  8
1
 10
32.6503
 20
14.0443
  0
VERTEX
  8
1
 10
32.6501
 20
13.5432
  0
SEQEND
  8
1
  0
POLYLINE
  8
84
 66
1
 70
0
  0
VERTEX
  8
84
 10
33.5112
 20
17.3986
  0
VERTEX
  8
84
 10
33.1328
 20
17.0107
  0
VERTEX
  8
84
 10
32.9655
 20
16.7962
  0
VERTEX
  8
84
 10
32.8925
 20
16.6823
  0
VERTEX
  8
84
 10
32.8311
 20
16.5621
  0
VERTEX
  8
84
 10
32.7640
 20
16.3554
  0
VERTEX
  8
84
 10
32.7171
 20
16.1425
  0
VERTEX
  8
84
 10
32.6831
 20
15.9260
  0
VERTEX
  8
84
 10
32.6621
 20
15.7077
  0
VERTEX
  8
84
 10
32.6526
 20
15.2399
  0
VERTEX
  8
84
 10
32.6505
 20
14.7647
  0
VERTEX
  8
84
 10
32.6503
 20
14.0443
  0
VERTEX
  8
84
 10
32.6503
 20
14.0443
  0
VERTEX
  8
84
 10
32.6501
 20
13.5432
  0
SEQEND
  8
84
  0
POINT
  8
2
 10
33.5112
 20
17.3986
  0
POINT
  8
3
 10
33.1328
 20
17.0107
  0
POINT
  8
3
 10
32.8311
 20
16.5621
  0
POINT
  8
3
 10
32.6621
 20
15.7077
  0
POINT
  8
3
 10
32.6526
 20
15.2399
  0
POINT
  8
2
 10
32.6505
 20
14.7647
  0
POINT
  8
3
 10
32.6503
 20
14.0443
  0
POINT
  8
4
 10
32.6503
 20
14.0443
 30
0.1181
 39
0.1771
 50
179.9828
  0
POINT
  8
2
 10
32.6503
 20
14.0443
  0
POINT
  8
2
 10
32.6501
 20
13.5432
  0
POLYLINE
  8
1
 66
1
 70
0
  0
VERTEX
  8
1
 10
32.6501
 20
13.5432
  0
VERTEX
  8
1
 10
30.8423
 20
13.4233
  0
VERTEX
  8
1
 10
29.7862
 20
13.3558
  0
VERTEX
  8
1
 10
28.7220
 20
13.3029
  0
VERTEX
  8
1
 10
27.6239
 20
13.2835
  0
VERTEX
  8
1
 10
26.5287
 20
13.2854
  0
VERTEX
  8
1
 10
25.6008
 20
13.3058
  0
VERTEX
  8
1
 10
24.6716
 20
13.3407
  0
VERTEX
  8
1
 10
23.0873
 20
13.4437
  0
VERTEX
  8
1
 10
21.5105
 20
13.5647
  0
VERTEX
  8
1
 10
18.9750
 20
13.7625
  0
VERTEX
  8
1
 10
17.7868
 20
13.8642
  0
VERTEX
  8
1
 10
15.9984
 20
13.9445
  0
VERTEX
  8
1
 10
14.9674
 20
14.0121
  0
VERTEX
  8
1
 10
14.1538
 20
14.0033
  0
VERTEX
  8
1
 10
13.5065
 20
13.9613
  0
VERTEX
  8
1
 10
12.8677
 20
13.7931
  0
VERTEX
  8
1
 10
12.1868
 20
13.2384
  0
VERTEX
  8
1
 10
11.4891
 20
12.5911
  0
VERTEX
  8
1
 10
10.6822
 20
12.2213
  0
VERTEX
  8
1
 10
9.9514
 20
12.1379
  0
VERTEX
  8
1
 10
9.6398
 20
12.1204
  0
VERTEX
  8
1
 10
1.5003
 20
12.1101
  0
VERTEX
  8
1
 10
1.5003
 20
12.1101
  0
VERTEX
  8
1
 10
0.0000
 20
12.1101
  0
SEQEND
  8
1
  0
POLYLINE
  8
84
 66
1
 70
0
  0
VERTEX
  8
84
 10
32.6501
 20
13.5432
  0
VERTEX
  8
84
 10
30.8423
 20
13.4233
  0
VERTEX
  8
84
 10
29.7862
 20
13.3558
  0
VERTEX
  8
84
 10
28.7220
 20
13.3029
  0
VERTEX
  8
84
 10
27.6239
 20
13.2835
  0
VERTEX
  8
84
 10
26.5287
 20
13.2854
  0
VERTEX
  8
84
 10
25.6008
 20
13.3058
  0
VERTEX
  8
84
 10
24.6716
 20
13.3407
  0
VERTEX
  8
84
 10
23.0873
 20
13.4437
  0
VERTEX
  8
84
 10
21.5105
 20
13.5647
  0
VERTEX
  8
84
 10
18.9750
 20
13.7625
  0
VERTEX
  8
84
 10
17.7868
 20
13.8642
  0
VERTEX
  8
84
 10
15.9984
 20
13.9445
  0
VERTEX
  8
84
 10
14.9674
 20
14.0121
  0
VERTEX
  8
84
 10
14.1538
 20
14.0033
  0
VERTEX
  8
84
 10
13.8291
 20
13.9921
  0
VERTEX
  8
84
 10
13.5065
 20
13.9613
  0
VERTEX
  8
84
 10
13.1793
 20
13.9010
  0
VERTEX
  8
84
 10
13.0203
 20
13.8553
  0
VERTEX
  8
84
 10
12.8677
 20
13.7931
  0
VERTEX
  8
84
 10
12.6841
 20
13.6746
  0
VERTEX
  8
84
 10
12.5125
 20
13.5376
  0
VERTEX
  8
84
 10
12.1868
 20
13.2384
  0
VERTEX
  8
84
 10
11.8469
 20
12.9030
  0
VERTEX
  8
84
 10
11.6730
 20
12.7410
  0
VERTEX
  8
84
 10
11.4891
 20
12.5911
  0
VERTEX
  8
84
 10
11.2995
 20
12.4745
  0
VERTEX
  8
84
 10
11.1000
 20
12.3750
  0
VERTEX
  8
84
 10
10.8942
 20
12.2893
  0
VERTEX
  8
84
 10
10.6822
 20
12.2213
  0
VERTEX
  8
84
 10
10.5021
 20
12.1860
  0
VERTEX
  8
84
 10
10.3197
 20
12.1631
  0
VERTEX
  8
84
 10
9.9514
 20
12.1379
  0
VERTEX
  8
84
 10
9.6398
 20
12.1204
  0
VERTEX
  8
84
 10
1.5003
 20
12.1101
  0
VERTEX
  8
84
 10
1.5003
 20
12.1101
  0
VERTEX
  8
84
 10
0.0000
 20
12.1101
  0
SEQEND
  8
84
  0
POINT
  8
2
 10
32.6501
 20
13.5432
  0
POINT
  8
3
 10
30.8423
 20
13.4233
  0
POINT
  8
3
 10
29.7862
 20
13.3558
  0
POINT
  8
3
 10
28.7220
 20
13.3029
  0
POINT
  8
3
 10
27.6239
 20
13.2835
  0
POINT
  8
3
 10
26.5287
 20
13.2854
  0
POINT
  8
3
 10
25.6008
 20
13.3058
  0
POINT
  8
3
 10
24.6716
 20
13.3407
  0
POINT
  8
3
 10
23.0873
 20
13.4437
  0
POINT
  8
3
 10
21.5105
 20
13.5647
  0
POINT
  8
3
 10
18.9750
 20
13.7625
  0
POINT
  8
3
 10
17.7868
 20
13.8642
  0
POINT
  8
3
 10
15.9984
 20
13.9445
  0
POINT
  8
2
 10
14.9674
 20
14.0121
  0
POINT
  8
3
 10
14.1538
 20
14.0033
  0
POINT
  8
3
 10
13.5065
 20
13.9613
  0
POINT
  8
3
 10
12.8677
 20
13.7931
  0
POINT
  8
3
 10
12.1868
 20
13.2384
  0
POINT
  8
3
 10
11.4891
 20
12.5911
  0
POINT
  8
3
 10
10.6822
 20
12.2213
  0
POINT
  8
4
 10
9.9514
 20
12.1379
 30
0.1181
 39
0.1771
  0
POINT
  8
3
 10
9.9514
 20
12.1379
  0
POINT
  8
2
 10
9.6398
 20
12.1204
  0
POINT
  8
3
 10
1.5003
 20
12.1101
  0
POINT
  8
4
 10
1.5003
 20
12.1101
 30
0.1181
 39
0.1771
 50
90.0344
  0
POINT
  8
2
 10
1.5003
 20
12.1101
  0
POINT
  8
2
 10
0.0000
 20
12.1101
  0
LINE
  8
7
 10
9.4538
 20
18.3661
 11
25.2116
 21
18.3661
  0
LINE
  8
5
 10
9.4538
 20
18.3661
 11
25.2116
 21
18.3661
  0
POINT
  8
2
 10
9.4538
 20
18.3661
  0
POINT
  8
2
 10
25.2116
 20
18.3661
  0
LINE
  8
8
 10
25.2562
 20
13.8191
 11
25.2562
 21
22.7267
  0
POLYLINE
  8
85
 66
1
 70
0
  0
VERTEX
  8
85
 10
25.2562
 20
13.8191
  0
VERTEX
  8
85
 10
25.2562
 20
22.7267
  0
SEQEND
  8
85
  0
TEXT
  8
8
 10
25.2562
 20
13.8191
 40
0.250
 50
0.0000
  1
NM
  7
STANDARD
  0
TEXT
  8
85
 10
25.2562
 20
13.8191
 40
0.250
 50
0.0000
  1
NM
  7
STANDARD
  0
POINT
  8
2
 10
25.2562
 20
13.8191
  0
POINT
  8
2
 10
25.2562
 20
22.7267
  0
LINE
  8
8
 10
30.4500
 20
23.0217
 11
30.4377
 21
13.8985
  0
POLYLINE
  8
85
 66
1
 70
0
  0
VERTEX
  8
85
 10
30.4500
 20
23.0217
  0
VERTEX
  8
85
 10
30.4377
 20
13.8985
  0
SEQEND
  8
85
  0
TEXT
  8
8
 10
30.4500
 20
23.0217
 40
0.250
 50
0.0000
  1
NM
  7
STANDARD
  0
TEXT
  8
85
 10
30.4500
 20
23.0217
 40
0.250
 50
0.0000
  1
NM
  7
STANDARD
  0
POINT
  8
2
 10
30.4500
 20
23.0217
  0
POINT
  8
2
 10
30.4377
 20
13.8985
  0
LINE
  8
8
 10
32.2571
 20
14.8988
 11
1.5069
 21
14.8988
  0
POLYLINE
  8
85
 66
1
 70
0
  0
VERTEX
  8
85
 10
32.2571
 20
14.8988
  0
VERTEX
  8
85
 10
1.5069
 20
14.8988
  0
SEQEND
  8
85
  0
TEXT
  8
8
 10
32.2571
 20
14.8988
 40
0.250
 50
0.0000
  1
NM
  7
STANDARD
  0
TEXT
  8
85
 10
32.2571
 20
14.8988
 40
0.250
 50
0.0000
  1
NM
  7
STANDARD
  0
POINT
  8
2
 10
32.2571
 20
14.8988
  0
POINT
  8
2
 10
1.5069
 20
14.8988
  0
LINE
  8
8
 10
2.0069
 20
14.3879
 11
2.0069
 21
22.2561
  0
POLYLINE
  8
85
 66
1
 70
0
  0
VERTEX
  8
85
 10
2.0069
 20
14.3879
  0
VERTEX
  8
85
 10
2.0069
 20
22.2561
  0
SEQEND
  8
85
  0
TEXT
  8
8
 10
2.0069
 20
14.3879
 40
0.250
 50
0.0000
  1
NM
  7
STANDARD
  0
TEXT
  8
85
 10
2.0069
 20
14.3879
 40
0.250
 50
0.0000
  1
NM
  7
STANDARD
  0
POINT
  8
2
 10
2.0069
 20
14.3879
  0
POINT
  8
2
 10
2.0069
 20
22.2561
  0
LINE
  8
8
 10
14.9762
 20
21.6340
 11
14.9762
 21
14.5121
  0
POLYLINE
  8
85
 66
1
 70
0
  0
VERTEX
  8
85
 10
14.9762
 20
21.6340
  0
VERTEX
  8
85
 10
14.9762
 20
14.5121
  0
SEQEND
  8
85
  0
TEXT
  8
8
 10
14.9762
 20
21.6340
 40
0.250
 50
0.0000
  1
NM
  7
STANDARD
  0
TEXT
  8
85
 10
14.9762
 20
21.6340
 40
0.250
 50
0.0000
  1
NM
  7
STANDARD
  0
POINT
  8
2
 10
14.9762
 20
21.6340
  0
POINT
  8
2
 10
14.9762
 20
14.5121
  0
LINE
  8
8
 10
20.5023
 20
22.2753
 11
20.5023
 21
14.1449
  0
POLYLINE
  8
85
 66
1
 70
0
  0
VERTEX
  8
85
 10
20.5023
 20
22.2753
  0
VERTEX
  8
85
 10
20.5023
 20
14.1449
  0
SEQEND
  8
85
  0
TEXT
  8
8
 10
20.5023
 20
22.2753
 40
0.250
 50
0.0000
  1
NM
  7
STANDARD
  0
TEXT
  8
85
 10
20.5023
 20
22.2753
 40
0.250
 50
0.0000
  1
NM
  7
STANDARD
  0
POINT
  8
2
 10
20.5023
 20
22.2753
  0
POINT
  8
2
 10
20.5023
 20
14.1449
  0
LINE
  8
8
 10
32.2562
 20
14.0182
 11
30.4500
 21
23.0217
  0
POLYLINE
  8
85
 66
1
 70
0
  0
VERTEX
  8
85
 10
32.2562
 20
14.0182
  0
VERTEX
  8
85
 10
30.4500
 20
23.0217
  0
SEQEND
  8
85
  0
TEXT
  8
8
 10
32.2562
 20
14.0182
 40
0.250
 50
0.0000
  1
NM
  7
STANDARD
  0
TEXT
  8
85
 10
32.2562
 20
14.0182
 40
0.250
 50
0.0000
  1
NM
  7
STANDARD
  0
POINT
  8
2
 10
32.2562
 20
14.0182
  0
POINT
  8
2
 10
30.4500
 20
23.0217
  0
LINE
  8
10
 10
14.9693
 20
22.0137
 11
14.9693
 21
21.7824
  0
TEXT
  8
10
 10
14.9693
 20
22.0137
 40
0.250
 50
0.0000
  1
3
  7
STANDARD
  0
POINT
  8
2
 10
14.9693
 20
22.0137
  0
POINT
  8
2
 10
14.9693
 20
21.7824
  0
LINE
  8
9
 10
32.2014
 20
14.0184
 11
31.9941
 21
14.0184
  0
TEXT
  8
9
 10
32.2014
 20
14.0184
 40
0.250
 50
0.0000
  1
0
  7
STANDARD
  0
POINT
  8
2
 10
32.2014
 20
14.0184
  0
POINT
  8
2
 10
31.9941
 20
14.0184
  0
LINE
  8
8
 10
9.9514
 20
12.1379
 11
10.6418
 21
14.5680
  0
POLYLINE
  8
85
 66
1
 70
0
  0
VERTEX
  8
85
 10
9.9514
 20
12.1379
  0
VERTEX
  8
85
 10
10.6418
 20
14.5680
  0
SEQEND
  8
85
  0
TEXT
  8
8
 10
9.9514
 20
12.1379
 40
0.250
 50
0.0000
  1
NM
  7
STANDARD
  0
TEXT
  8
85
 10
9.9514
 20
12.1379
 40
0.250
 50
0.0000
  1
NM
  7
STANDARD
  0
POINT
  8
2
 10
9.9514
 20
12.1379
  0
POINT
  8
2
 10
10.6418
 20
14.5680
  0
LINE
  8
8
 10
1.5016
 20
14.5467
 11
14.5038
 21
14.5133
  0
POLYLINE
  8
85
 66
1
 70
0
  0
VERTEX
  8
85
 10
1.5016
 20
14.5467
  0
VERTEX
  8
85
 10
14.5038
 20
14.5133
  0
SEQEND
  8
85
  0
TEXT
  8
8
 10
1.5016
 20
14.5467
 40
0.250
 50
0.0000
  1
NM
  7
STANDARD
  0
TEXT
  8
85
 10
1.5016
 20
14.5467
 40
0.250
 50
0.0000
  1
NM
  7
STANDARD
  0
POINT
  8
2
 10
1.5016
 20
14.5467
  0
POINT
  8
2
 10
14.5038
 20
14.5133
  0
ENDBLK
  0
BLOCK
  8
0
  2
BUY-351994-STF-CL-HL-J-SH-06-N_40
 70
64
 10
0.0000
 20
0.0000
  0
TEXT
  8
1
 10
50.7933
 20
19.2102
 40
0.250
 50
0.0000
  1
Piece Name: BUY-351994-STF-CL-HL-J-SH-06-N
  7
STANDARD
  0
TEXT
  8
1
 10
50.7933
 20
19.3502
 40
0.250
 50
0.0000
  1
Quantity: 1,0
  7
STANDARD
  0
TEXT
  8
1
 10
50.7933
 20
19.4902
 40
0.250
 50
0.0000
  1
ANNOTATION
  7
STANDARD
  0
TEXT
  8
1
 10
50.7933
 20
19.6302
 40
0.250
 50
0.0000
  1
CATEGORY: 6
  7
STANDARD
  0
TEXT
  8
1
 10
50.7933
 20
19.7702
 40
0.250
 50
0.0000
  1
SIZE: 40
  7
STANDARD
  0
TEXT
  8
1
 10
57.9791
 20
23.2721
 40
0.250
 50
0.0000
  1
.F
  7
STANDARD
  0
TEXT
  8
1
 10
65.7486
 20
22.1670
 40
0.250
 50
0.0000
  1
.F
  7
STANDARD
  0
POLYLINE
  8
1
 66
1
 70
0
  0
VERTEX
  8
1
 10
66.7679
 20
14.7768
  0
VERTEX
  8
1
 10
63.5645
 20
15.7466
  0
VERTEX
  8
1
 10
63.5645
 20
15.7466
  0
VERTEX
  8
1
 10
61.6804
 20
16.2955
  0
VERTEX
  8
1
 10
59.9123
 20
16.7738
  0
VERTEX
  8
1
 10
58.1548
 20
17.2060
  0
VERTEX
  8
1
 10
56.5999
 20
17.5731
  0
VERTEX
  8
1
 10
55.5799
 20
17.7740
  0
VERTEX
  8
1
 10
54.6310
 20
17.9438
  0
VERTEX
  8
1
 10
53.4053
 20
18.1086
  0
VERTEX
  8
1
 10
53.4053
 20
18.1086
  0
VERTEX
  8
1
 10
52.0063
 20
18.2751
  0
VERTEX
  8
1
 10
49.2857
 20
18.4851
  0
VERTEX
  8
1
 10
47.3771
 20
18.5416
  0
VERTEX
  8
1
 10
44.7544
 20
18.5422
  0
VERTEX
  8
1
 10
44.7544
 20
18.5422
  0
VERTEX
  8
1
 10
43.1911
 20
18.5005
  0
VERTEX
  8
1
 10
41.6297
 20
18.4130
  0
VERTEX
  8
1
 10
38.5161
 20
18.1394
  0
VERTEX
  8
1
 10
34.0551
 20
17.7077
  0
SEQEND
  8
1
  0
POLYLINE
  8
84
 66
1
 70
0
  0
VERTEX
  8
84
 10
66.7679
 20
14.7768
  0
VERTEX
  8
84
 10
63.5645
 20
15.7466
  0
VERTEX
  8
84
 10
63.5645
 20
15.7466
  0
VERTEX
  8
84
 10
61.6804
 20
16.2955
  0
VERTEX
  8
84
 10
59.9123
 20
16.7738
  0
VERTEX
  8
84
 10
58.1548
 20
17.2060
  0
VERTEX
  8
84
 10
56.5999
 20
17.5731
  0
VERTEX
  8
84
 10
55.5799
 20
17.7740
  0
VERTEX
  8
84
 10
54.6310
 20
17.9438
  0
VERTEX
  8
84
 10
53.4053
 20
18.1086
  0
VERTEX
  8
84
 10
53.4053
 20
18.1086
  0
VERTEX
  8
84
 10
52.0063
 20
18.2751
  0
VERTEX
  8
84
 10
50.6471
 20
18.3948
  0
VERTEX
  8
84
 10
49.2857
 20
18.4851
  0
VERTEX
  8
84
 10
48.3317
 20
18.5223
  0
VERTEX
  8
84
 10
47.3771
 20
18.5416
  0
VERTEX
  8
84
 10
46.0658
 20
18.5509
  0
VERTEX
  8
84
 10
44.7544
 20
18.5422
  0
VERTEX
  8
84
 10
44.7544
 20
18.5422
  0
VERTEX
  8
84
 10
43.1911
 20
18.5005
  0
VERTEX
  8
84
 10
41.6297
 20
18.4130
  0
VERTEX
  8
84
 10
40.0723
 20
18.2839
  0
VERTEX
  8
84
 10
38.5161
 20
18.1394
  0
VERTEX
  8
84
 10
34.0551
 20
17.7077
  0
SEQEND
  8
84
  0
POINT
  8
2
 10
66.7679
 20
14.7768
  0
POINT
  8
3
 10
63.5645
 20
15.7466
  0
POINT
  8
4
 10
63.5645
 20
15.7466
 30
0.1181
 39
0.1771
 50
73.4588
  0
POINT
  8
2
 10
63.5645
 20
15.7466
  0
POINT
  8
3
 10
61.6804
 20
16.2955
  0
POINT
  8
3
 10
59.9123
 20
16.7738
  0
POINT
  8
3
 10
58.1548
 20
17.2060
  0
POINT
  8
3
 10
56.5999
 20
17.5731
  0
POINT
  8
3
 10
55.5799
 20
17.7740
  0
POINT
  8
3
 10
54.6310
 20
17.9438
  0
POINT
  8
3
 10
53.4053
 20
18.1086
  0
POINT
  8
4
 10
53.4053
 20
18.1086
 30
0.1181
 39
0.1771
 50
82.7790
  0
POINT
  8
2
 10
53.4053
 20
18.1086
  0
POINT
  8
3
 10
52.0063
 20
18.2751
  0
POINT
  8
3
 10
49.2857
 20
18.4851
  0
POINT
  8
3
 10
47.3771
 20
18.5416
  0
POINT
  8
3
 10
44.7544
 20
18.5422
  0
POINT
  8
4
 10
44.7544
 20
18.5422
 30
0.1181
 39
0.1771
 50
90.9568
  0
POINT
  8
2
 10
44.7544
 20
18.5422
  0
POINT
  8
3
 10
43.1911
 20
18.5005
  0
POINT
  8
3
 10
41.6297
 20
18.4130
  0
POINT
  8
3
 10
38.5161
 20
18.1394
  0
POINT
  8
2
 10
34.0551
 20
17.7077
  0
POLYLINE
  8
1
 66
1
 70
0
  0
VERTEX
  8
1
 10
34.0551
 20
17.7077
  0
VERTEX
  8
1
 10
34.0111
 20
18.8626
  0
SEQEND
  8
1
  0
POLYLINE
  8
84
 66
1
 70
0
  0
VERTEX
  8
84
 10
34.0551
 20
17.7077
  0
VERTEX
  8
84
 10
34.0111
 20
18.8626
  0
SEQEND
  8
84
  0
POINT
  8
2
 10
34.0551
 20
17.7077
  0
POINT
  8
2
 10
34.0111
 20
18.8626
  0
POLYLINE
  8
1
 66
1
 70
0
  0
VERTEX
  8
1
 10
34.0111
 20
18.8626
  0
VERTEX
  8
1
 10
34.3011
 20
18.8601
  0
SEQEND
  8
1
  0
POLYLINE
  8
84
 66
1
 70
0
  0
VERTEX
  8
84
 10
34.0111
 20
18.8626
  0
VERTEX
  8
84
 10
34.3011
 20
18.8601
  0
SEQEND
  8
84
  0
POINT
  8
2
 10
34.0111
 20
18.8626
  0
POINT
  8
2
 10
34.3011
 20
18.8601
  0
POLYLINE
  8
1
 66
1
 70
0
  0
VERTEX
  8
1
 10
34.3011
 20
18.8601
  0
VERTEX
  8
1
 10
34.3187
 20
19.4012
  0
VERTEX
  8
1
 10
34.3485
 20
19.8171
  0
VERTEX
  8
1
 10
34.3845
 20
20.0720
  0
VERTEX
  8
1
 10
34.4340
 20
20.2980
  0
VERTEX
  8
1
 10
34.4994
 20
20.5168
  0
VERTEX
  8
1
 10
34.5858
 20
20.7201
  0
VERTEX
  8
1
 10
34.7035
 20
20.9149
  0
VERTEX
  8
1
 10
34.8431
 20
21.1054
  0
VERTEX
  8
1
 10
34.9969
 20
21.2873
  0
VERTEX
  8
1
 10
35.1648
 20
21.4594
  0
VERTEX
  8
1
 10
35.3663
 20
21.6612
  0
VERTEX
  8
1
 10
35.6069
 20
21.8276
  0
VERTEX
  8
1
 10
35.8650
 20
21.9735
  0
VERTEX
  8
1
 10
36.1336
 20
22.1039
  0
VERTEX
  8
1
 10
36.3987
 20
22.2207
  0
VERTEX
  8
1
 10
36.6984
 20
22.3319
  0
VERTEX
  8
1
 10
37.2007
 20
22.4885
  0
VERTEX
  8
1
 10
37.7492
 20
22.6396
  0
VERTEX
  8
1
 10
38.3613
 20
22.7713
  0
VERTEX
  8
1
 10
39.0497
 20
22.8952
  0
VERTEX
  8
1
 10
39.9890
 20
23.0176
  0
VERTEX
  8
1
 10
40.9295
 20
23.1253
  0
VERTEX
  8
1
 10
42.0151
 20
23.2167
  0
VERTEX
  8
1
 10
43.0372
 20
23.2841
  0
VERTEX
  8
1
 10
43.1550
 20
23.2918
  0
VERTEX
  8
1
 10
44.3468
 20
23.3308
  0
VERTEX
  8
1
 10
45.5441
 20
23.3601
  0
VERTEX
  8
1
 10
46.7474
 20
23.3853
  0
VERTEX
  8
1
 10
47.2852
 20
23.3911
  0
VERTEX
  8
1
 10
47.3637
 20
23.3935
  0
VERTEX
  8
1
 10
47.7659
 20
23.3962
  0
VERTEX
  8
1
 10
48.4391
 20
23.3950
  0
VERTEX
  8
1
 10
48.8676
 20
23.4262
  0
VERTEX
  8
1
 10
49.3435
 20
23.4795
  0
VERTEX
  8
1
 10
49.8076
 20
23.5594
  0
VERTEX
  8
1
 10
50.2483
 20
23.6084
  0
VERTEX
  8
1
 10
50.7782
 20
23.6279
  0
VERTEX
  8
1
 10
51.3182
 20
23.6437
  0
VERTEX
  8
1
 10
51.3969
 20
23.6437
  0
VERTEX
  8
1
 10
52.0147
 20
23.6437
  0
VERTEX
  8
1
 10
53.2867
 20
23.6392
  0
VERTEX
  8
1
 10
54.6194
 20
23.5666
  0
VERTEX
  8
1
 10
56.2482
 20
23.4419
  0
VERTEX
  8
1
 10
57.9791
 20
23.2721
  0
VERTEX
  8
1
 10
59.3778
 20
23.1127
  0
VERTEX
  8
1
 10
62.3173
 20
22.6996
  0
VERTEX
  8
1
 10
65.7486
 20
22.1670
  0
SEQEND
  8
1
  0
POLYLINE
  8
84
 66
1
 70
0
  0
VERTEX
  8
84
 10
34.3011
 20
18.8601
  0
VERTEX
  8
84
 10
34.3187
 20
19.4012
  0
VERTEX
  8
84
 10
34.3485
 20
19.8171
  0
VERTEX
  8
84
 10
34.3845
 20
20.0720
  0
VERTEX
  8
84
 10
34.4340
 20
20.2980
  0
VERTEX
  8
84
 10
34.4994
 20
20.5168
  0
VERTEX
  8
84
 10
34.5858
 20
20.7201
  0
VERTEX
  8
84
 10
34.7035
 20
20.9149
  0
VERTEX
  8
84
 10
34.8431
 20
21.1054
  0
VERTEX
  8
84
 10
34.9969
 20
21.2873
  0
VERTEX
  8
84
 10
35.1648
 20
21.4594
  0
VERTEX
  8
84
 10
35.3663
 20
21.6612
  0
VERTEX
  8
84
 10
35.6069
 20
21.8276
  0
VERTEX
  8
84
 10
35.8650
 20
21.9735
  0
VERTEX
  8
84
 10
36.1336
 20
22.1039
  0
VERTEX
  8
84
 10
36.3987
 20
22.2207
  0
VERTEX
  8
84
 10
36.6984
 20
22.3319
  0
VERTEX
  8
84
 10
37.2007
 20
22.4885
  0
VERTEX
  8
84
 10
37.7492
 20
22.6396
  0
VERTEX
  8
84
 10
38.3613
 20
22.7713
  0
VERTEX
  8
84
 10
39.0497
 20
22.8952
  0
VERTEX
  8
84
 10
39.9890
 20
23.0176
  0
VERTEX
  8
84
 10
40.9295
 20
23.1253
  0
VERTEX
  8
84
 10
42.0151
 20
23.2167
  0
VERTEX
  8
84
 10
43.0372
 20
23.2841
  0
VERTEX
  8
84
 10
43.1550
 20
23.2918
  0
VERTEX
  8
84
 10
44.3468
 20
23.3308
  0
VERTEX
  8
84
 10
45.5441
 20
23.3601
  0
VERTEX
  8
84
 10
46.7474
 20
23.3853
  0
VERTEX
  8
84
 10
47.2852
 20
23.3911
  0
VERTEX
  8
84
 10
47.3637
 20
23.3935
  0
VERTEX
  8
84
 10
47.7659
 20
23.3962
  0
VERTEX
  8
84
 10
48.4391
 20
23.3950
  0
VERTEX
  8
84
 10
48.8676
 20
23.4262
  0
VERTEX
  8
84
 10
49.3435
 20
23.4795
  0
VERTEX
  8
84
 10
49.8076
 20
23.5594
  0
VERTEX
  8
84
 10
50.2483
 20
23.6084
  0
VERTEX
  8
84
 10
50.7782
 20
23.6279
  0
VERTEX
  8
84
 10
51.3182
 20
23.6437
  0
VERTEX
  8
84
 10
51.3969
 20
23.6437
  0
VERTEX
  8
84
 10
52.0147
 20
23.6437
  0
VERTEX
  8
84
 10
53.2867
 20
23.6392
  0
VERTEX
  8
84
 10
54.6194
 20
23.5666
  0
VERTEX
  8
84
 10
56.2482
 20
23.4419
  0
VERTEX
  8
84
 10
57.9791
 20
23.2721
  0
VERTEX
  8
84
 10
59.3778
 20
23.1127
  0
VERTEX
  8
84
 10
60.8486
 20
22.9134
  0
VERTEX
  8
84
 10
62.3173
 20
22.6996
  0
VERTEX
  8
84
 10
65.7486
 20
22.1670
  0
SEQEND
  8
84
  0
POINT
  8
2
 10
34.3011
 20
18.8601
  0
POINT
  8
3
 10
34.3187
 20
19.4012
  0
POINT
  8
3
 10
34.3485
 20
19.8171
  0
POINT
  8
3
 10
34.3845
 20
20.0720
  0
POINT
  8
3
 10
34.4340
 20
20.2980
  0
POINT
  8
3
 10
34.4994
 20
20.5168
  0
POINT
  8
3
 10
34.5858
 20
20.7201
  0
POINT
  8
3
 10
34.7035
 20
20.9149
  0
POINT
  8
3
 10
34.8431
 20
21.1054
  0
POINT
  8
3
 10
34.9969
 20
21.2873
  0
POINT
  8
3
 10
35.1648
 20
21.4594
  0
POINT
  8
3
 10
35.3663
 20
21.6612
  0
POINT
  8
3
 10
35.6069
 20
21.8276
  0
POINT
  8
3
 10
35.8650
 20
21.9735
  0
POINT
  8
3
 10
36.1336
 20
22.1039
  0
POINT
  8
3
 10
36.3987
 20
22.2207
  0
POINT
  8
3
 10
36.6984
 20
22.3319
  0
POINT
  8
3
 10
37.2007
 20
22.4885
  0
POINT
  8
3
 10
37.7492
 20
22.6396
  0
POINT
  8
3
 10
38.3613
 20
22.7713
  0
POINT
  8
3
 10
39.0497
 20
22.8952
  0
POINT
  8
3
 10
39.9890
 20
23.0176
  0
POINT
  8
3
 10
40.9295
 20
23.1253
  0
POINT
  8
3
 10
42.0151
 20
23.2167
  0
POINT
  8
4
 10
43.0372
 20
23.2841
 30
0.1181
 39
0.1771
  0
POINT
  8
3
 10
43.0372
 20
23.2841
  0
POINT
  8
3
 10
43.1550
 20
23.2918
  0
POINT
  8
3
 10
44.3468
 20
23.3308
  0
POINT
  8
3
 10
45.5441
 20
23.3601
  0
POINT
  8
3
 10
46.7474
 20
23.3853
  0
POINT
  8
4
 10
47.2852
 20
23.3911
 30
0.1181
 39
0.1771
  0
POINT
  8
3
 10
47.2852
 20
23.3911
  0
POINT
  8
3
 10
47.3637
 20
23.3935
  0
POINT
  8
3
 10
47.7659
 20
23.3962
  0
POINT
  8
3
 10
48.4391
 20
23.3950
  0
POINT
  8
3
 10
48.8676
 20
23.4262
  0
POINT
  8
4
 10
49.3435
 20
23.4795
 30
0.1181
 39
0.1771
  0
POINT
  8
2
 10
49.3435
 20
23.4795
  0
POINT
  8
2
 10
49.8076
 20
23.5594
  0
POINT
  8
3
 10
50.2483
 20
23.6084
  0
POINT
  8
3
 10
50.7782
 20
23.6279
  0
POINT
  8
3
 10
51.3182
 20
23.6437
  0
POINT
  8
4
 10
51.3969
 20
23.6437
 30
0.1181
 39
0.1771
  0
POINT
  8
3
 10
51.3969
 20
23.6437
  0
POINT
  8
3
 10
52.0147
 20
23.6437
  0
POINT
  8
3
 10
53.2867
 20
23.6392
  0
POINT
  8
3
 10
54.6194
 20
23.5666
  0
POINT
  8
3
 10
56.2482
 20
23.4419
  0
POINT
  8
3
 10
57.9791
 20
23.2721
  0
POINT
  8
3
 10
59.3778
 20
23.1127
  0
POINT
  8
4
 10
62.3173
 20
22.6996
 30
0.1181
 39
0.1771
  0
POINT
  8
3
 10
62.3173
 20
22.6996
  0
POINT
  8
2
 10
65.7486
 20
22.1670
  0
POLYLINE
  8
1
 66
1
 70
0
  0
VERTEX
  8
1
 10
65.7486
 20
22.1670
  0
VERTEX
  8
1
 10
65.7494
 20
21.5977
  0
SEQEND
  8
1
  0
POLYLINE
  8
84
 66
1
 70
0
  0
VERTEX
  8
84
 10
65.7486
 20
22.1670
  0
VERTEX
  8
84
 10
65.7494
 20
21.5977
  0
SEQEND
  8
84
  0
POINT
  8
2
 10
65.7486
 20
22.1670
  0
POINT
  8
2
 10
65.7494
 20
21.5977
  0
POLYLINE
  8
1
 66
1
 70
0
  0
VERTEX
  8
1
 10
65.7494
 20
21.5977
  0
VERTEX
  8
1
 10
65.3762
 20
21.2479
  0
VERTEX
  8
1
 10
64.9679
 20
20.9221
  0
VERTEX
  8
1
 10
64.5718
 20
20.6554
  0
VERTEX
  8
1
 10
64.1855
 20
20.3954
  0
SEQEND
  8
1
  0
POLYLINE
  8
84
 66
1
 70
0
  0
VERTEX
  8
84
 10
65.7494
 20
21.5977
  0
VERTEX
  8
84
 10
65.3762
 20
21.2479
  0
VERTEX
  8
84
 10
64.9679
 20
20.9221
  0
VERTEX
  8
84
 10
64.5718
 20
20.6554
  0
VERTEX
  8
84
 10
64.1855
 20
20.3954
  0
SEQEND
  8
84
  0
POINT
  8
2
 10
65.7494
 20
21.5977
  0
POINT
  8
3
 10
65.3762
 20
21.2479
  0
POINT
  8
3
 10
64.9679
 20
20.9221
  0
POINT
  8
3
 10
64.5718
 20
20.6554
  0
POINT
  8
2
 10
64.1855
 20
20.3954
  0
POLYLINE
  8
1
 66
1
 70
0
  0
VERTEX
  8
1
 10
64.1855
 20
20.3954
  0
VERTEX
  8
1
 10
65.2495
 20
17.6480
  0
SEQEND
  8
1
  0
POLYLINE
  8
84
 66
1
 70
0
  0
VERTEX
  8
84
 10
64.1855
 20
20.3954
  0
VERTEX
  8
84
 10
65.2495
 20
17.6480
  0
SEQEND
  8
84
  0
POINT
  8
2
 10
64.1855
 20
20.3954
  0
POINT
  8
2
 10
65.2495
 20
17.6480
  0
POLYLINE
  8
1
 66
1
 70
0
  0
VERTEX
  8
1
 10
65.2495
 20
17.6480
  0
VERTEX
  8
1
 10
67.2478
 20
17.1458
  0
VERTEX
  8
1
 10
67.5755
 20
16.8901
  0
SEQEND
  8
1
  0
POLYLINE
  8
84
 66
1
 70
0
  0
VERTEX
  8
84
 10
65.2495
 20
17.6480
  0
VERTEX
  8
84
 10
67.2478
 20
17.1458
  0
VERTEX
  8
84
 10
67.5755
 20
16.8901
  0
SEQEND
  8
84
  0
POINT
  8
2
 10
65.2495
 20
17.6480
  0
POINT
  8
2
 10
67.2478
 20
17.1458
  0
POINT
  8
2
 10
67.5755
 20
16.8901
  0
POLYLINE
  8
1
 66
1
 70
0
  0
VERTEX
  8
1
 10
67.5755
 20
16.8901
  0
VERTEX
  8
1
 10
66.7679
 20
14.7768
  0
SEQEND
  8
1
  0
POLYLINE
  8
84
 66
1
 70
0
  0
VERTEX
  8
84
 10
67.5755
 20
16.8901
  0
VERTEX
  8
84
 10
66.7679
 20
14.7768
  0
SEQEND
  8
84
  0
POINT
  8
2
 10
67.5755
 20
16.8901
  0
POINT
  8
2
 10
66.7679
 20
14.7768
  0
LINE
  8
7
 10
46.7929
 20
21.3432
 11
48.4026
 21
21.3432
  0
LINE
  8
5
 10
46.7929
 20
21.3432
 11
48.4026
 21
21.3432
  0
POINT
  8
2
 10
46.7929
 20
21.3432
  0
POINT
  8
2
 10
48.4026
 20
21.3432
  0
ENDBLK
  0
BLOCK
  8
0
  2
BUY-351994-STF-CL-HL-J-SH-05_40
 70
64
 10
0.0000
 20
0.0000
  0
TEXT
  8
1
 10
14.1589
 20
5.5362
 40
0.250
 50
0.0000
  1
Piece Name: BUY-351994-STF-CL-HL-J-SH-05
  7
STANDARD
  0
TEXT
  8
1
 10
14.1589
 20
5.6762
 40
0.250
 50
0.0000
  1
Quantity: 1,0
  7
STANDARD
  0
TEXT
  8
1
 10
14.1589
 20
5.8162
 40
0.250
 50
0.0000
  1
ANNOTATION
  7
STANDARD
  0
TEXT
  8
1
 10
14.1589
 20
5.9562
 40
0.250
 50
0.0000
  1
CATEGORY: 5
  7
STANDARD
  0
TEXT
  8
1
 10
14.1589
 20
6.0962
 40
0.250
 50
0.0000
  1
SIZE: 40
  7
STANDARD
  0
POLYLINE
  8
1
 66
1
 70
0
  0
VERTEX
  8
1
 10
0.0000
 20
2.8074
  0
VERTEX
  8
1
 10
0.3883
 20
4.5364
  0
VERTEX
  8
1
 10
0.3883
 20
4.5364
  0
VERTEX
  8
1
 10
1.9142
 20
11.3294
  0
SEQEND
  8
1
  0
POLYLINE
  8
84
 66
1
 70
0
  0
VERTEX
  8
84
 10
0.0000
 20
2.8074
  0
VERTEX
  8
84
 10
0.3883
 20
4.5364
  0
VERTEX
  8
84
 10
0.3883
 20
4.5364
  0
VERTEX
  8
84
 10
1.9142
 20
11.3294
  0
SEQEND
  8
84
  0
POINT
  8
2
 10
0.0000
 20
2.8074
  0
POINT
  8
3
 10
0.3883
 20
4.5364
  0
POINT
  8
4
 10
0.3883
 20
4.5364
 30
0.1181
 39
0.1771
 50
-12.6618
  0
POINT
  8
2
 10
0.3883
 20
4.5364
  0
POINT
  8
2
 10
1.9142
 20
11.3294
  0
POLYLINE
  8
1
 66
1
 70
0
  0
VERTEX
  8
1
 10
1.9142
 20
11.3294
  0
VERTEX
  8
1
 10
2.3808
 20
11.6102
  0
SEQEND
  8
1
  0
POLYLINE
  8
84
 66
1
 70
0
  0
VERTEX
  8
84
 10
1.9142
 20
11.3294
  0
VERTEX
  8
84
 10
2.3808
 20
11.6102
  0
SEQEND
  8
84
  0
POINT
  8
2
 10
1.9142
 20
11.3294
  0
POINT
  8
2
 10
2.3808
 20
11.6102
  0
POLYLINE
  8
1
 66
1
 70
0
  0
VERTEX
  8
1
 10
2.3808
 20
11.6102
  0
VERTEX
  8
1
 10
3.9969
 20
11.1886
  0
VERTEX
  8
1
 10
3.9969
 20
11.1886
  0
VERTEX
  8
1
 10
6.2070
 20
10.7773
  0
VERTEX
  8
1
 10
7.9257
 20
10.4835
  0
VERTEX
  8
1
 10
7.9257
 20
10.4835
  0
VERTEX
  8
1
 10
10.4038
 20
10.0814
  0
VERTEX
  8
1
 10
12.8812
 20
9.7874
  0
VERTEX
  8
1
 10
15.0307
 20
9.6627
  0
VERTEX
  8
1
 10
16.7761
 20
9.6708
  0
VERTEX
  8
1
 10
17.8227
 20
9.7234
  0
VERTEX
  8
1
 10
18.7120
 20
9.7707
  0
VERTEX
  8
1
 10
19.7186
 20
9.8320
  0
VERTEX
  8
1
 10
20.5554
 20
9.8875
  0
VERTEX
  8
1
 10
21.3408
 20
9.9396
  0
SEQEND
  8
1
  0
POLYLINE
  8
84
 66
1
 70
0
  0
VERTEX
  8
84
 10
2.3808
 20
11.6102
  0
VERTEX
  8
84
 10
3.1871
 20
11.3923
  0
VERTEX
  8
84
 10
3.9969
 20
11.1886
  0
VERTEX
  8
84
 10
3.9969
 20
11.1886
  0
VERTEX
  8
84
 10
5.0996
 20
10.9714
  0
VERTEX
  8
84
 10
6.2070
 20
10.7773
  0
VERTEX
  8
84
 10
7.9257
 20
10.4835
  0
VERTEX
  8
84
 10
7.9257
 20
10.4835
  0
VERTEX
  8
84
 10
9.1638
 20
10.2759
  0
VERTEX
  8
84
 10
10.4038
 20
10.0814
  0
VERTEX
  8
84
 10
11.6407
 20
9.9187
  0
VERTEX
  8
84
 10
12.8812
 20
9.7874
  0
VERTEX
  8
84
 10
13.9550
 20
9.7088
  0
VERTEX
  8
84
 10
15.0307
 20
9.6627
  0
VERTEX
  8
84
 10
15.9034
 20
9.6551
  0
VERTEX
  8
84
 10
16.7761
 20
9.6708
  0
VERTEX
  8
84
 10
17.8227
 20
9.7234
  0
VERTEX
  8
84
 10
18.7120
 20
9.7707
  0
VERTEX
  8
84
 10
19.7186
 20
9.8320
  0
VERTEX
  8
84
 10
20.5554
 20
9.8875
  0
VERTEX
  8
84
 10
21.3408
 20
9.9396
  0
SEQEND
  8
84
  0
POINT
  8
2
 10
2.3808
 20
11.6102
  0
POINT
  8
3
 10
3.9969
 20
11.1886
  0
POINT
  8
4
 10
3.9969
 20
11.1886
 30
0.1181
 39
0.1771
 50
-102.6326
  0
POINT
  8
2
 10
3.9969
 20
11.1886
  0
POINT
  8
3
 10
6.2070
 20
10.7773
  0
POINT
  8
2
 10
7.9257
 20
10.4835
  0
POINT
  8
4
 10
7.9257
 20
10.4835
 30
0.1181
 39
0.1771
 50
-99.6074
  0
POINT
  8
2
 10
7.9257
 20
10.4835
  0
POINT
  8
3
 10
10.4038
 20
10.0814
  0
POINT
  8
3
 10
12.8812
 20
9.7874
  0
POINT
  8
3
 10
15.0307
 20
9.6627
  0
POINT
  8
3
 10
16.7761
 20
9.6708
  0
POINT
  8
4
 10
17.8227
 20
9.7234
 30
0.1181
 39
0.1771
  0
POINT
  8
2
 10
17.8227
 20
9.7234
  0
POINT
  8
3
 10
18.7120
 20
9.7707
  0
POINT
  8
3
 10
19.7186
 20
9.8320
  0
POINT
  8
3
 10
20.5554
 20
9.8875
  0
POINT
  8
2
 10
21.3408
 20
9.9396
  0
POLYLINE
  8
1
 66
1
 70
0
  0
VERTEX
  8
1
 10
21.3408
 20
9.9396
  0
VERTEX
  8
1
 10
21.4686
 20
9.6513
  0
VERTEX
  8
1
 10
21.5673
 20
9.4772
  0
VERTEX
  8
1
 10
21.6807
 20
9.3228
  0
VERTEX
  8
1
 10
21.8167
 20
9.1720
  0
VERTEX
  8
1
 10
21.9877
 20
9.0207
  0
VERTEX
  8
1
 10
22.1699
 20
8.8925
  0
VERTEX
  8
1
 10
22.3390
 20
8.8043
  0
VERTEX
  8
1
 10
22.5299
 20
8.7274
  0
VERTEX
  8
1
 10
22.9716
 20
8.5580
  0
VERTEX
  8
1
 10
23.6284
 20
8.2982
  0
VERTEX
  8
1
 10
24.2081
 20
8.0521
  0
VERTEX
  8
1
 10
25.0425
 20
7.6745
  0
VERTEX
  8
1
 10
25.5437
 20
7.4222
  0
VERTEX
  8
1
 10
26.0412
 20
7.1629
  0
VERTEX
  8
1
 10
26.4848
 20
6.8704
  0
VERTEX
  8
1
 10
26.8272
 20
6.6181
  0
VERTEX
  8
1
 10
27.1278
 20
6.3671
  0
VERTEX
  8
1
 10
27.3775
 20
6.1191
  0
VERTEX
  8
1
 10
27.5755
 20
5.8831
  0
VERTEX
  8
1
 10
27.7380
 20
5.6591
  0
VERTEX
  8
1
 10
27.8746
 20
5.4457
  0
VERTEX
  8
1
 10
27.9827
 20
5.2292
  0
VERTEX
  8
1
 10
28.0793
 20
5.0031
  0
VERTEX
  8
1
 10
28.1621
 20
4.7584
  0
VERTEX
  8
1
 10
28.2306
 20
4.4857
  0
VERTEX
  8
1
 10
28.2820
 20
4.1781
  0
VERTEX
  8
1
 10
28.3110
 20
3.8385
  0
VERTEX
  8
1
 10
28.3178
 20
3.4833
  0
VERTEX
  8
1
 10
28.2858
 20
3.0832
  0
VERTEX
  8
1
 10
28.2537
 20
2.8946
  0
VERTEX
  8
1
 10
28.1961
 20
2.6571
  0
VERTEX
  8
1
 10
28.1208
 20
2.4159
  0
VERTEX
  8
1
 10
28.0246
 20
2.1796
  0
VERTEX
  8
1
 10
27.9105
 20
1.9582
  0
VERTEX
  8
1
 10
27.7732
 20
1.7352
  0
VERTEX
  8
1
 10
27.5854
 20
1.4781
  0
VERTEX
  8
1
 10
27.3526
 20
1.2016
  0
VERTEX
  8
1
 10
27.0905
 20
0.9216
  0
VERTEX
  8
1
 10
26.7791
 20
0.6233
  0
VERTEX
  8
1
 10
26.4337
 20
0.3174
  0
VERTEX
  8
1
 10
25.9755
 20
-0.0389
  0
VERTEX
  8
1
 10
25.3968
 20
-0.4679
  0
SEQEND
  8
1
  0
POLYLINE
  8
84
 66
1
 70
0
  0
VERTEX
  8
84
 10
21.3408
 20
9.9396
  0
VERTEX
  8
84
 10
21.4686
 20
9.6513
  0
VERTEX
  8
84
 10
21.5673
 20
9.4772
  0
VERTEX
  8
84
 10
21.6807
 20
9.3228
  0
VERTEX
  8
84
 10
21.8167
 20
9.1720
  0
VERTEX
  8
84
 10
21.9877
 20
9.0207
  0
VERTEX
  8
84
 10
22.1699
 20
8.8925
  0
VERTEX
  8
84
 10
22.3390
 20
8.8043
  0
VERTEX
  8
84
 10
22.5299
 20
8.7274
  0
VERTEX
  8
84
 10
22.9716
 20
8.5580
  0
VERTEX
  8
84
 10
23.6284
 20
8.2982
  0
VERTEX
  8
84
 10
24.2081
 20
8.0521
  0
VERTEX
  8
84
 10
25.0425
 20
7.6745
  0
VERTEX
  8
84
 10
25.5437
 20
7.4222
  0
VERTEX
  8
84
 10
26.0412
 20
7.1629
  0
VERTEX
  8
84
 10
26.4848
 20
6.8704
  0
VERTEX
  8
84
 10
26.8272
 20
6.6181
  0
VERTEX
  8
84
 10
27.1278
 20
6.3671
  0
VERTEX
  8
84
 10
27.3775
 20
6.1191
  0
VERTEX
  8
84
 10
27.5755
 20
5.8831
  0
VERTEX
  8
84
 10
27.7380
 20
5.6591
  0
VERTEX
  8
84
 10
27.8746
 20
5.4457
  0
VERTEX
  8
84
 10
27.9827
 20
5.2292
  0
VERTEX
  8
84
 10
28.0793
 20
5.0031
  0
VERTEX
  8
84
 10
28.1621
 20
4.7584
  0
VERTEX
  8
84
 10
28.2306
 20
4.4857
  0
VERTEX
  8
84
 10
28.2820
 20
4.1781
  0
VERTEX
  8
84
 10
28.3110
 20
3.8385
  0
VERTEX
  8
84
 10
28.3178
 20
3.4833
  0
VERTEX
  8
84
 10
28.2858
 20
3.0832
  0
VERTEX
  8
84
 10
28.2537
 20
2.8946
  0
VERTEX
  8
84
 10
28.1961
 20
2.6571
  0
VERTEX
  8
84
 10
28.1208
 20
2.4159
  0
VERTEX
  8
84
 10
28.0246
 20
2.1796
  0
VERTEX
  8
84
 10
27.9105
 20
1.9582
  0
VERTEX
  8
84
 10
27.7732
 20
1.7352
  0
VERTEX
  8
84
 10
27.5854
 20
1.4781
  0
VERTEX
  8
84
 10
27.3526
 20
1.2016
  0
VERTEX
  8
84
 10
27.0905
 20
0.9216
  0
VERTEX
  8
84
 10
26.7791
 20
0.6233
  0
VERTEX
  8
84
 10
26.4337
 20
0.3174
  0
VERTEX
  8
84
 10
25.9755
 20
-0.0389
  0
VERTEX
  8
84
 10
25.3968
 20
-0.4679
  0
SEQEND
  8
84
  0
POINT
  8
2
 10
21.3408
 20
9.9396
  0
POINT
  8
3
 10
21.4686
 20
9.6513
  0
POINT
  8
3
 10
21.5673
 20
9.4772
  0
POINT
  8
3
 10
21.6807
 20
9.3228
  0
POINT
  8
3
 10
21.8167
 20
9.1720
  0
POINT
  8
3
 10
21.9877
 20
9.0207
  0
POINT
  8
3
 10
22.1699
 20
8.8925
  0
POINT
  8
3
 10
22.3390
 20
8.8043
  0
POINT
  8
4
 10
22.5299
 20
8.7274
 30
0.1181
 39
0.1771
  0
POINT
  8
2
 10
22.5299
 20
8.7274
  0
POINT
  8
3
 10
22.9716
 20
8.5580
  0
POINT
  8
3
 10
23.6284
 20
8.2982
  0
POINT
  8
3
 10
24.2081
 20
8.0521
  0
POINT
  8
3
 10
25.0425
 20
7.6745
  0
POINT
  8
3
 10
25.5437
 20
7.4222
  0
POINT
  8
4
 10
26.0412
 20
7.1629
 30
0.1181
 39
0.1771
  0
POINT
  8
2
 10
26.0412
 20
7.1629
  0
POINT
  8
3
 10
26.4848
 20
6.8704
  0
POINT
  8
3
 10
26.8272
 20
6.6181
  0
POINT
  8
3
 10
27.1278
 20
6.3671
  0
POINT
  8
3
 10
27.3775
 20
6.1191
  0
POINT
  8
3
 10
27.5755
 20
5.8831
  0
POINT
  8
3
 10
27.7380
 20
5.6591
  0
POINT
  8
3
 10
27.8746
 20
5.4457
  0
POINT
  8
3
 10
27.9827
 20
5.2292
  0
POINT
  8
3
 10
28.0793
 20
5.0031
  0
POINT
  8
3
 10
28.1621
 20
4.7584
  0
POINT
  8
3
 10
28.2306
 20
4.4857
  0
POINT
  8
3
 10
28.2820
 20
4.1781
  0
POINT
  8
3
 10
28.3110
 20
3.8385
  0
POINT
  8
3
 10
28.3178
 20
3.4833
  0
POINT
  8
4
 10
28.2858
 20
3.0832
 30
0.1181
 39
0.1771
  0
POINT
  8
2
 10
28.2858
 20
3.0832
  0
POINT
  8
3
 10
28.2537
 20
2.8946
  0
POINT
  8
3
 10
28.1961
 20
2.6571
  0
POINT
  8
3
 10
28.1208
 20
2.4159
  0
POINT
  8
3
 10
28.0246
 20
2.1796
  0
POINT
  8
3
 10
27.9105
 20
1.9582
  0
POINT
  8
3
 10
27.7732
 20
1.7352
  0
POINT
  8
3
 10
27.5854
 20
1.4781
  0
POINT
  8
3
 10
27.3526
 20
1.2016
  0
POINT
  8
3
 10
27.0905
 20
0.9216
  0
POINT
  8
3
 10
26.7791
 20
0.6233
  0
POINT
  8
3
 10
26.4337
 20
0.3174
  0
POINT
  8
3
 10
25.9755
 20
-0.0389
  0
POINT
  8
2
 10
25.3968
 20
-0.4679
  0
POLYLINE
  8
1
 66
1
 70
0
  0
VERTEX
  8
1
 10
25.3968
 20
-0.4679
  0
VERTEX
  8
1
 10
24.6325
 20
-0.4872
  0
VERTEX
  8
1
 10
22.5777
 20
-0.5209
  0
VERTEX
  8
1
 10
20.6961
 20
-0.5378
  0
VERTEX
  8
1
 10
19.6456
 20
-0.5111
  0
VERTEX
  8
1
 10
18.7289
 20
-0.4430
  0
VERTEX
  8
1
 10
17.8104
 20
-0.3648
  0
VERTEX
  8
1
 10
16.8866
 20
-0.2684
  0
VERTEX
  8
1
 10
15.9482
 20
-0.1347
  0
VERTEX
  8
1
 10
14.9872
 20
0.0252
  0
VERTEX
  8
1
 10
14.0063
 20
0.2072
  0
VERTEX
  8
1
 10
13.0144
 20
0.4022
  0
VERTEX
  8
1
 10
11.3356
 20
0.7967
  0
VERTEX
  8
1
 10
10.0106
 20
1.1575
  0
VERTEX
  8
1
 10
9.0349
 20
1.4442
  0
VERTEX
  8
1
 10
6.8768
 20
2.1079
  0
SEQEND
  8
1
  0
POLYLINE
  8
84
 66
1
 70
0
  0
VERTEX
  8
84
 10
25.3968
 20
-0.4679
  0
VERTEX
  8
84
 10
24.6325
 20
-0.4872
  0
VERTEX
  8
84
 10
22.5777
 20
-0.5209
  0
VERTEX
  8
84
 10
20.6961
 20
-0.5378
  0
VERTEX
  8
84
 10
19.6456
 20
-0.5111
  0
VERTEX
  8
84
 10
18.7289
 20
-0.4430
  0
VERTEX
  8
84
 10
17.8104
 20
-0.3648
  0
VERTEX
  8
84
 10
16.8866
 20
-0.2684
  0
VERTEX
  8
84
 10
15.9482
 20
-0.1347
  0
VERTEX
  8
84
 10
14.9872
 20
0.0252
  0
VERTEX
  8
84
 10
14.0063
 20
0.2072
  0
VERTEX
  8
84
 10
13.0144
 20
0.4022
  0
VERTEX
  8
84
 10
12.1733
 20
0.5921
  0
VERTEX
  8
84
 10
11.3356
 20
0.7967
  0
VERTEX
  8
84
 10
10.0106
 20
1.1575
  0
VERTEX
  8
84
 10
9.0349
 20
1.4442
  0
VERTEX
  8
84
 10
6.8768
 20
2.1079
  0
SEQEND
  8
84
  0
POINT
  8
2
 10
25.3968
 20
-0.4679
  0
POINT
  8
3
 10
24.6325
 20
-0.4872
  0
POINT
  8
3
 10
22.5777
 20
-0.5209
  0
POINT
  8
3
 10
20.6961
 20
-0.5378
  0
POINT
  8
4
 10
19.6456
 20
-0.5111
 30
0.1181
 39
0.1771
  0
POINT
  8
2
 10
19.6456
 20
-0.5111
  0
POINT
  8
3
 10
18.7289
 20
-0.4430
  0
POINT
  8
3
 10
17.8104
 20
-0.3648
  0
POINT
  8
3
 10
16.8866
 20
-0.2684
  0
POINT
  8
3
 10
15.9482
 20
-0.1347
  0
POINT
  8
3
 10
14.9872
 20
0.0252
  0
POINT
  8
3
 10
14.0063
 20
0.2072
  0
POINT
  8
3
 10
13.0144
 20
0.4022
  0
POINT
  8
3
 10
11.3356
 20
0.7967
  0
POINT
  8
3
 10
10.0106
 20
1.1575
  0
POINT
  8
4
 10
9.0349
 20
1.4442
 30
0.1181
 39
0.1771
  0
POINT
  8
2
 10
9.0349
 20
1.4442
  0
POINT
  8
2
 10
6.8768
 20
2.1079
  0
POLYLINE
  8
1
 66
1
 70
0
  0
VERTEX
  8
1
 10
6.8768
 20
2.1079
  0
VERTEX
  8
1
 10
5.7529
 20
1.0177
  0
SEQEND
  8
1
  0
POLYLINE
  8
84
 66
1
 70
0
  0
VERTEX
  8
84
 10
6.8768
 20
2.1079
  0
VERTEX
  8
84
 10
5.7529
 20
1.0177
  0
SEQEND
  8
84
  0
POINT
  8
2
 10
6.8768
 20
2.1079
  0
POINT
  8
2
 10
5.7529
 20
1.0177
  0
POLYLINE
  8
1
 66
1
 70
0
  0
VERTEX
  8
1
 10
5.7529
 20
1.0177
  0
VERTEX
  8
1
 10
1.9760
 20
2.1914
  0
VERTEX
  8
1
 10
1.9760
 20
2.1914
  0
VERTEX
  8
1
 10
0.0000
 20
2.8074
  0
SEQEND
  8
1
  0
POLYLINE
  8
84
 66
1
 70
0
  0
VERTEX
  8
84
 10
5.7529
 20
1.0177
  0
VERTEX
  8
84
 10
1.9760
 20
2.1914
  0
VERTEX
  8
84
 10
1.9760
 20
2.1914
  0
VERTEX
  8
84
 10
0.0000
 20
2.8074
  0
SEQEND
  8
84
  0
POINT
  8
2
 10
5.7529
 20
1.0177
  0
POINT
  8
3
 10
1.9760
 20
2.1914
  0
POINT
  8
4
 10
1.9760
 20
2.1914
 30
0.1181
 39
0.1771
 50
72.7102
  0
POINT
  8
2
 10
1.9760
 20
2.1914
  0
POINT
  8
2
 10
0.0000
 20
2.8074
  0
LINE
  8
7
 10
8.5184
 20
5.2568
 11
21.5165
 21
5.2568
  0
LINE
  8
5
 10
8.5184
 20
5.2568
 11
21.5165
 21
5.2568
  0
POINT
  8
2
 10
8.5184
 20
5.2568
  0
POINT
  8
2
 10
21.5165
 20
5.2568
  0
LINE
  8
8
 10
19.9790
 20
-0.2325
 11
19.9790
 21
9.4545
  0
POLYLINE
  8
85
 66
1
 70
0
  0
VERTEX
  8
85
 10
19.9790
 20
-0.2325
  0
VERTEX
  8
85
 10
19.9790
 20
9.4545
  0
SEQEND
  8
85
  0
TEXT
  8
8
 10
19.9790
 20
-0.2325
 40
0.250
 50
0.0000
  1
NM
  7
STANDARD
  0
TEXT
  8
85
 10
19.9790
 20
-0.2325
 40
0.250
 50
0.0000
  1
NM
  7
STANDARD
  0
POINT
  8
2
 10
19.9790
 20
-0.2325
  0
POINT
  8
2
 10
19.9790
 20
9.4545
  0
LINE
  8
8
 10
27.9470
 20
3.0791
 11
2.7755
 21
5.7510
  0
POLYLINE
  8
85
 66
1
 70
0
  0
VERTEX
  8
85
 10
27.9470
 20
3.0791
  0
VERTEX
  8
85
 10
2.7755
 20
5.7510
  0
SEQEND
  8
85
  0
TEXT
  8
8
 10
27.9470
 20
3.0791
 40
0.250
 50
0.0000
  1
NM
  7
STANDARD
  0
TEXT
  8
85
 10
27.9470
 20
3.0791
 40
0.250
 50
0.0000
  1
NM
  7
STANDARD
  0
POINT
  8
2
 10
27.9470
 20
3.0791
  0
POINT
  8
2
 10
2.7755
 20
5.7510
  0
LINE
  8
8
 10
3.9105
 20
10.8040
 11
2.3648
 21
3.9223
  0
POLYLINE
  8
85
 66
1
 70
0
  0
VERTEX
  8
85
 10
3.9105
 20
10.8040
  0
VERTEX
  8
85
 10
2.3648
 20
3.9223
  0
SEQEND
  8
85
  0
TEXT
  8
8
 10
3.9105
 20
10.8040
 40
0.250
 50
0.0000
  1
NM
  7
STANDARD
  0
TEXT
  8
85
 10
3.9105
 20
10.8040
 40
0.250
 50
0.0000
  1
NM
  7
STANDARD
  0
POINT
  8
2
 10
3.9105
 20
10.8040
  0
POINT
  8
2
 10
2.3648
 20
3.9223
  0
LINE
  8
8
 10
4.1042
 20
4.8217
 11
3.9393
 21
4.0874
  0
POLYLINE
  8
85
 66
1
 70
0
  0
VERTEX
  8
85
 10
4.1042
 20
4.8217
  0
VERTEX
  8
85
 10
3.9393
 20
4.0874
  0
SEQEND
  8
85
  0
TEXT
  8
8
 10
4.1042
 20
4.8217
 40
0.250
 50
0.0000
  1
NM
  7
STANDARD
  0
TEXT
  8
85
 10
4.1042
 20
4.8217
 40
0.250
 50
0.0000
  1
NM
  7
STANDARD
  0
POINT
  8
2
 10
4.1042
 20
4.8217
  0
POINT
  8
2
 10
3.9393
 20
4.0874
  0
LINE
  8
8
 10
4.7049
 20
4.6350
 11
4.5400
 21
3.9007
  0
POLYLINE
  8
85
 66
1
 70
0
  0
VERTEX
  8
85
 10
4.7049
 20
4.6350
  0
VERTEX
  8
85
 10
4.5400
 20
3.9007
  0
SEQEND
  8
85
  0
TEXT
  8
8
 10
4.7049
 20
4.6350
 40
0.250
 50
0.0000
  1
NM
  7
STANDARD
  0
TEXT
  8
85
 10
4.7049
 20
4.6350
 40
0.250
 50
0.0000
  1
NM
  7
STANDARD
  0
POINT
  8
2
 10
4.7049
 20
4.6350
  0
POINT
  8
2
 10
4.5400
 20
3.9007
  0
LINE
  8
8
 10
5.3056
 20
4.4483
 11
5.1407
 21
3.7142
  0
POLYLINE
  8
85
 66
1
 70
0
  0
VERTEX
  8
85
 10
5.3056
 20
4.4483
  0
VERTEX
  8
85
 10
5.1407
 20
3.7142
  0
SEQEND
  8
85
  0
TEXT
  8
8
 10
5.3056
 20
4.4483
 40
0.250
 50
0.0000
  1
NM
  7
STANDARD
  0
TEXT
  8
85
 10
5.3056
 20
4.4483
 40
0.250
 50
0.0000
  1
NM
  7
STANDARD
  0
POINT
  8
2
 10
5.3056
 20
4.4483
  0
POINT
  8
2
 10
5.1407
 20
3.7142
  0
LINE
  8
8
 10
5.9063
 20
4.2616
 11
5.7414
 21
3.5275
  0
POLYLINE
  8
85
 66
1
 70
0
  0
VERTEX
  8
85
 10
5.9063
 20
4.2616
  0
VERTEX
  8
85
 10
5.7414
 20
3.5275
  0
SEQEND
  8
85
  0
TEXT
  8
8
 10
5.9063
 20
4.2616
 40
0.250
 50
0.0000
  1
NM
  7
STANDARD
  0
TEXT
  8
85
 10
5.9063
 20
4.2616
 40
0.250
 50
0.0000
  1
NM
  7
STANDARD
  0
POINT
  8
2
 10
5.9063
 20
4.2616
  0
POINT
  8
2
 10
5.7414
 20
3.5275
  0
POLYLINE
  8
11
 66
1
 70
0
  0
VERTEX
  8
11
 10
0.9899
 20
5.7864
  0
VERTEX
  8
11
 10
0.6900
 20
5.8793
  0
SEQEND
  8
11
  0
POLYLINE
  8
86
 66
1
 70
0
  0
VERTEX
  8
86
 10
0.9899
 20
5.7864
  0
VERTEX
  8
86
 10
0.6900
 20
5.8793
  0
SEQEND
  8
86
  0
POINT
  8
2
 10
0.9899
 20
5.7864
  0
POINT
  8
2
 10
0.6900
 20
5.8793
  0
LINE
  8
10
 10
19.6414
 20
-0.5034
 11
19.6414
 21
-0.3265
  0
TEXT
  8
10
 10
19.6414
 20
-0.5034
 40
0.250
 50
0.0000
  1
4
  7
STANDARD
  0
POINT
  8
2
 10
19.6414
 20
-0.5034
  0
POINT
  8
2
 10
19.6414
 20
-0.3265
  0
LINE
  8
10
 10
22.8098
 20
8.5740
 11
22.8098
 21
7.1600
  0
TEXT
  8
10
 10
22.8098
 20
8.5740
 40
0.250
 50
0.0000
  1
5
  7
STANDARD
  0
POINT
  8
2
 10
22.8098
 20
8.5740
  0
POINT
  8
2
 10
22.8098
 20
7.1600
  0
ENDBLK
  0
BLOCK
  8
0
  2
BUY-351994-STF-CL-HL-J-SH-04_40
 70
64
 10
0.0000
 20
0.0000
  0
TEXT
  8
1
 10
41.8950
 20
6.9312
 40
0.250
 50
0.0000
  1
Piece Name: BUY-351994-STF-CL-HL-J-SH-04
  7
STANDARD
  0
TEXT
  8
1
 10
41.8950
 20
7.0712
 40
0.250
 50
0.0000
  1
Quantity: 1,0
  7
STANDARD
  0
TEXT
  8
1
 10
41.8950
 20
7.2112
 40
0.250
 50
0.0000
  1
ANNOTATION
  7
STANDARD
  0
TEXT
  8
1
 10
41.8950
 20
7.3512
 40
0.250
 50
0.0000
  1
CATEGORY: 4
  7
STANDARD
  0
TEXT
  8
1
 10
41.8950
 20
7.4912
 40
0.250
 50
0.0000
  1
SIZE: 40
  7
STANDARD
  0
POLYLINE
  8
1
 66
1
 70
0
  0
VERTEX
  8
1
 10
50.0128
 20
4.0543
  0
VERTEX
  8
1
 10
49.2274
 20
4.1056
  0
VERTEX
  8
1
 10
48.3904
 20
4.1605
  0
VERTEX
  8
1
 10
47.3839
 20
4.2210
  0
VERTEX
  8
1
 10
46.4946
 20
4.2676
  0
VERTEX
  8
1
 10
46.4946
 20
4.2676
  0
VERTEX
  8
1
 10
45.4479
 20
4.3194
  0
VERTEX
  8
1
 10
43.7025
 20
4.3260
  0
VERTEX
  8
1
 10
41.4031
 20
4.1994
  0
VERTEX
  8
1
 10
39.0761
 20
3.9036
  0
VERTEX
  8
1
 10
36.4130
 20
3.4675
  0
VERTEX
  8
1
 10
36.4130
 20
3.4675
  0
VERTEX
  8
1
 10
34.8795
 20
3.2041
  0
VERTEX
  8
1
 10
32.4954
 20
2.7613
  0
VERTEX
  8
1
 10
32.4954
 20
2.7613
  0
VERTEX
  8
1
 10
30.9076
 20
2.2523
  0
SEQEND
  8
1
  0
POLYLINE
  8
84
 66
1
 70
0
  0
VERTEX
  8
84
 10
50.0128
 20
4.0543
  0
VERTEX
  8
84
 10
49.2274
 20
4.1056
  0
VERTEX
  8
84
 10
48.3904
 20
4.1605
  0
VERTEX
  8
84
 10
47.3839
 20
4.2210
  0
VERTEX
  8
84
 10
46.4946
 20
4.2676
  0
VERTEX
  8
84
 10
46.4946
 20
4.2676
  0
VERTEX
  8
84
 10
45.4479
 20
4.3194
  0
VERTEX
  8
84
 10
44.5752
 20
4.3339
  0
VERTEX
  8
84
 10
43.7025
 20
4.3260
  0
VERTEX
  8
84
 10
42.5517
 20
4.2810
  0
VERTEX
  8
84
 10
41.4031
 20
4.1994
  0
VERTEX
  8
84
 10
40.2377
 20
4.0668
  0
VERTEX
  8
84
 10
39.0761
 20
3.9036
  0
VERTEX
  8
84
 10
36.4130
 20
3.4675
  0
VERTEX
  8
84
 10
36.4130
 20
3.4675
  0
VERTEX
  8
84
 10
34.8795
 20
3.2041
  0
VERTEX
  8
84
 10
32.4954
 20
2.7613
  0
VERTEX
  8
84
 10
32.4954
 20
2.7613
  0
VERTEX
  8
84
 10
30.9076
 20
2.2523
  0
SEQEND
  8
84
  0
POINT
  8
2
 10
50.0128
 20
4.0543
  0
POINT
  8
3
 10
49.2274
 20
4.1056
  0
POINT
  8
3
 10
48.3904
 20
4.1605
  0
POINT
  8
3
 10
47.3839
 20
4.2210
  0
POINT
  8
2
 10
46.4946
 20
4.2676
  0
POINT
  8
4
 10
46.4946
 20
4.2676
 30
0.1181
 39
0.1771
 50
87.0824
  0
POINT
  8
2
 10
46.4946
 20
4.2676
  0
POINT
  8
3
 10
45.4479
 20
4.3194
  0
POINT
  8
3
 10
43.7025
 20
4.3260
  0
POINT
  8
3
 10
41.4031
 20
4.1994
  0
POINT
  8
3
 10
39.0761
 20
3.9036
  0
POINT
  8
2
 10
36.4130
 20
3.4675
  0
POINT
  8
4
 10
36.4130
 20
3.4675
 30
0.1181
 39
0.1771
 50
99.5207
  0
POINT
  8
2
 10
36.4130
 20
3.4675
  0
POINT
  8
3
 10
34.8795
 20
3.2041
  0
POINT
  8
2
 10
32.4954
 20
2.7613
  0
POINT
  8
4
 10
32.4954
 20
2.7613
 30
0.1181
 39
0.1771
 50
104.1460
  0
POINT
  8
2
 10
32.4954
 20
2.7613
  0
POINT
  8
2
 10
30.9076
 20
2.2523
  0
POLYLINE
  8
1
 66
1
 70
0
  0
VERTEX
  8
1
 10
30.9076
 20
2.2523
  0
VERTEX
  8
1
 10
30.4318
 20
2.5050
  0
SEQEND
  8
1
  0
POLYLINE
  8
84
 66
1
 70
0
  0
VERTEX
  8
84
 10
30.9076
 20
2.2523
  0
VERTEX
  8
84
 10
30.4318
 20
2.5050
  0
SEQEND
  8
84
  0
POINT
  8
2
 10
30.9076
 20
2.2523
  0
POINT
  8
2
 10
30.4318
 20
2.5050
  0
POLYLINE
  8
1
 66
1
 70
0
  0
VERTEX
  8
1
 10
30.4318
 20
2.5050
  0
VERTEX
  8
1
 10
28.8179
 20
8.9987
  0
SEQEND
  8
1
  0
POLYLINE
  8
84
 66
1
 70
0
  0
VERTEX
  8
84
 10
30.4318
 20
2.5050
  0
VERTEX
  8
84
 10
28.8179
 20
8.9987
  0
SEQEND
  8
84
  0
POINT
  8
2
 10
30.4318
 20
2.5050
  0
POINT
  8
2
 10
28.8179
 20
8.9987
  0
POLYLINE
  8
1
 66
1
 70
0
  0
VERTEX
  8
1
 10
28.8179
 20
8.9987
  0
VERTEX
  8
1
 10
30.8182
 20
9.5035
  0
VERTEX
  8
1
 10
30.8182
 20
9.5035
  0
VERTEX
  8
1
 10
34.7280
 20
10.5345
  0
SEQEND
  8
1
  0
POLYLINE
  8
84
 66
1
 70
0
  0
VERTEX
  8
84
 10
28.8179
 20
8.9987
  0
VERTEX
  8
84
 10
30.8182
 20
9.5035
  0
VERTEX
  8
84
 10
30.8182
 20
9.5035
  0
VERTEX
  8
84
 10
34.7280
 20
10.5345
  0
SEQEND
  8
84
  0
POINT
  8
2
 10
28.8179
 20
8.9987
  0
POINT
  8
2
 10
30.8182
 20
9.5035
  0
POINT
  8
4
 10
30.8182
 20
9.5035
 30
0.1181
 39
0.1771
 50
-75.5344
  0
POINT
  8
2
 10
30.8182
 20
9.5035
  0
POINT
  8
2
 10
34.7280
 20
10.5345
  0
POLYLINE
  8
1
 66
1
 70
0
  0
VERTEX
  8
1
 10
34.7280
 20
10.5345
  0
VERTEX
  8
1
 10
35.8255
 20
9.4022
  0
SEQEND
  8
1
  0
POLYLINE
  8
84
 66
1
 70
0
  0
VERTEX
  8
84
 10
34.7280
 20
10.5345
  0
VERTEX
  8
84
 10
35.8255
 20
9.4022
  0
SEQEND
  8
84
  0
POINT
  8
2
 10
34.7280
 20
10.5345
  0
POINT
  8
2
 10
35.8255
 20
9.4022
  0
POLYLINE
  8
1
 66
1
 70
0
  0
VERTEX
  8
1
 10
35.8255
 20
9.4022
  0
VERTEX
  8
1
 10
37.9881
 20
9.9671
  0
VERTEX
  8
1
 10
38.0101
 20
9.9725
  0
VERTEX
  8
1
 10
38.0101
 20
9.9725
  0
VERTEX
  8
1
 10
38.9753
 20
10.2113
  0
VERTEX
  8
1
 10
40.1646
 20
10.5144
  0
VERTEX
  8
1
 10
41.8591
 20
10.8403
  0
VERTEX
  8
1
 10
44.0482
 20
11.2230
  0
VERTEX
  8
1
 10
46.0510
 20
11.4488
  0
VERTEX
  8
1
 10
47.5793
 20
11.5644
  0
VERTEX
  8
1
 10
48.6739
 20
11.6101
  0
VERTEX
  8
1
 10
48.6739
 20
11.6101
  0
VERTEX
  8
1
 10
49.7291
 20
11.5712
  0
VERTEX
  8
1
 10
51.6103
 20
11.5073
  0
VERTEX
  8
1
 10
53.6634
 20
11.4224
  0
VERTEX
  8
1
 10
54.4266
 20
11.3841
  0
SEQEND
  8
1
  0
POLYLINE
  8
84
 66
1
 70
0
  0
VERTEX
  8
84
 10
35.8255
 20
9.4022
  0
VERTEX
  8
84
 10
37.9881
 20
9.9671
  0
VERTEX
  8
84
 10
38.0101
 20
9.9725
  0
VERTEX
  8
84
 10
38.0101
 20
9.9725
  0
VERTEX
  8
84
 10
38.9753
 20
10.2113
  0
VERTEX
  8
84
 10
40.1646
 20
10.5144
  0
VERTEX
  8
84
 10
41.0102
 20
10.6853
  0
VERTEX
  8
84
 10
41.8591
 20
10.8403
  0
VERTEX
  8
84
 10
42.9519
 20
11.0421
  0
VERTEX
  8
84
 10
44.0482
 20
11.2230
  0
VERTEX
  8
84
 10
45.0481
 20
11.3479
  0
VERTEX
  8
84
 10
46.0510
 20
11.4488
  0
VERTEX
  8
84
 10
46.8146
 20
11.5132
  0
VERTEX
  8
84
 10
47.5793
 20
11.5644
  0
VERTEX
  8
84
 10
48.6739
 20
11.6101
  0
VERTEX
  8
84
 10
48.6739
 20
11.6101
  0
VERTEX
  8
84
 10
49.7291
 20
11.5712
  0
VERTEX
  8
84
 10
51.6103
 20
11.5073
  0
VERTEX
  8
84
 10
53.6634
 20
11.4224
  0
VERTEX
  8
84
 10
54.4266
 20
11.3841
  0
SEQEND
  8
84
  0
POINT
  8
2
 10
35.8255
 20
9.4022
  0
POINT
  8
2
 10
37.9881
 20
9.9671
  0
POINT
  8
2
 10
38.0101
 20
9.9725
  0
POINT
  8
4
 10
38.0101
 20
9.9725
 30
0.1181
 39
0.1771
 50
-76.1555
  0
POINT
  8
2
 10
38.0101
 20
9.9725
  0
POINT
  8
3
 10
38.9753
 20
10.2113
  0
POINT
  8
3
 10
40.1646
 20
10.5144
  0
POINT
  8
3
 10
41.8591
 20
10.8403
  0
POINT
  8
3
 10
44.0482
 20
11.2230
  0
POINT
  8
3
 10
46.0510
 20
11.4488
  0
POINT
  8
3
 10
47.5793
 20
11.5644
  0
POINT
  8
2
 10
48.6739
 20
11.6101
  0
POINT
  8
4
 10
48.6739
 20
11.6101
 30
0.1181
 39
0.1771
 50
-89.8625
  0
POINT
  8
2
 10
48.6739
 20
11.6101
  0
POINT
  8
3
 10
49.7291
 20
11.5712
  0
POINT
  8
3
 10
51.6103
 20
11.5073
  0
POINT
  8
3
 10
53.6634
 20
11.4224
  0
POINT
  8
2
 10
54.4266
 20
11.3841
  0
POLYLINE
  8
1
 66
1
 70
0
  0
VERTEX
  8
1
 10
54.4266
 20
11.3841
  0
VERTEX
  8
1
 10
54.9722
 20
10.9350
  0
SEQEND
  8
1
  0
POLYLINE
  8
84
 66
1
 70
0
  0
VERTEX
  8
84
 10
54.4266
 20
11.3841
  0
VERTEX
  8
84
 10
54.9722
 20
10.9350
  0
SEQEND
  8
84
  0
POINT
  8
2
 10
54.4266
 20
11.3841
  0
POINT
  8
2
 10
54.9722
 20
10.9350
  0
POLYLINE
  8
1
 66
1
 70
0
  0
VERTEX
  8
1
 10
54.9722
 20
10.9350
  0
VERTEX
  8
1
 10
54.4714
 20
10.6529
  0
VERTEX
  8
1
 10
54.4714
 20
10.6529
  0
VERTEX
  8
1
 10
53.6432
 20
10.1863
  0
VERTEX
  8
1
 10
53.0780
 20
9.8677
  0
VERTEX
  8
1
 10
53.0780
 20
9.8677
  0
VERTEX
  8
1
 10
52.7512
 20
9.6835
  0
VERTEX
  8
1
 10
52.2964
 20
9.4034
  0
VERTEX
  8
1
 10
51.6993
 20
9.0177
  0
VERTEX
  8
1
 10
51.3582
 20
8.7778
  0
VERTEX
  8
1
 10
51.1253
 20
8.5830
  0
VERTEX
  8
1
 10
50.9080
 20
8.3746
  0
VERTEX
  8
1
 10
50.7374
 20
8.1772
  0
VERTEX
  8
1
 10
50.5836
 20
7.9723
  0
VERTEX
  8
1
 10
50.3909
 20
7.6402
  0
VERTEX
  8
1
 10
50.1911
 20
7.1532
  0
VERTEX
  8
1
 10
50.1034
 20
6.7938
  0
VERTEX
  8
1
 10
50.1034
 20
6.7938
  0
VERTEX
  8
1
 10
50.0423
 20
6.3351
  0
VERTEX
  8
1
 10
50.0171
 20
5.9121
  0
VERTEX
  8
1
 10
50.0264
 20
5.5361
  0
VERTEX
  8
1
 10
50.0468
 20
5.2411
  0
VERTEX
  8
1
 10
50.1713
 20
4.3993
  0
VERTEX
  8
1
 10
50.0128
 20
4.0543
  0
SEQEND
  8
1
  0
POLYLINE
  8
84
 66
1
 70
0
  0
VERTEX
  8
84
 10
54.9722
 20
10.9350
  0
VERTEX
  8
84
 10
54.4714
 20
10.6529
  0
VERTEX
  8
84
 10
54.4714
 20
10.6529
  0
VERTEX
  8
84
 10
53.6432
 20
10.1863
  0
VERTEX
  8
84
 10
53.0780
 20
9.8677
  0
VERTEX
  8
84
 10
53.0780
 20
9.8677
  0
VERTEX
  8
84
 10
52.7512
 20
9.6835
  0
VERTEX
  8
84
 10
52.2964
 20
9.4034
  0
VERTEX
  8
84
 10
51.6993
 20
9.0177
  0
VERTEX
  8
84
 10
51.3582
 20
8.7778
  0
VERTEX
  8
84
 10
51.1253
 20
8.5830
  0
VERTEX
  8
84
 10
50.9080
 20
8.3746
  0
VERTEX
  8
84
 10
50.7374
 20
8.1772
  0
VERTEX
  8
84
 10
50.5836
 20
7.9723
  0
VERTEX
  8
84
 10
50.3909
 20
7.6402
  0
VERTEX
  8
84
 10
50.2824
 20
7.4002
  0
VERTEX
  8
84
 10
50.1911
 20
7.1532
  0
VERTEX
  8
84
 10
50.1034
 20
6.7938
  0
VERTEX
  8
84
 10
50.1034
 20
6.7938
  0
VERTEX
  8
84
 10
50.0423
 20
6.3351
  0
VERTEX
  8
84
 10
50.0171
 20
5.9121
  0
VERTEX
  8
84
 10
50.0264
 20
5.5361
  0
VERTEX
  8
84
 10
50.0468
 20
5.2411
  0
VERTEX
  8
84
 10
50.1713
 20
4.3993
  0
VERTEX
  8
84
 10
50.0128
 20
4.0543
  0
SEQEND
  8
84
  0
POINT
  8
2
 10
54.9722
 20
10.9350
  0
POINT
  8
3
 10
54.4714
 20
10.6529
  0
POINT
  8
4
 10
54.4714
 20
10.6529
 30
0.1181
 39
0.1771
 50
119.3924
  0
POINT
  8
2
 10
54.4714
 20
10.6529
  0
POINT
  8
3
 10
53.6432
 20
10.1863
  0
POINT
  8
3
 10
53.0780
 20
9.8677
  0
POINT
  8
4
 10
53.0780
 20
9.8677
 30
0.1181
 39
0.1771
 50
119.4080
  0
POINT
  8
2
 10
53.0780
 20
9.8677
  0
POINT
  8
3
 10
52.7512
 20
9.6835
  0
POINT
  8
3
 10
52.2964
 20
9.4034
  0
POINT
  8
3
 10
51.6993
 20
9.0177
  0
POINT
  8
3
 10
51.3582
 20
8.7778
  0
POINT
  8
3
 10
51.1253
 20
8.5830
  0
POINT
  8
3
 10
50.9080
 20
8.3746
  0
POINT
  8
3
 10
50.7374
 20
8.1772
  0
POINT
  8
3
 10
50.5836
 20
7.9723
  0
POINT
  8
3
 10
50.3909
 20
7.6402
  0
POINT
  8
3
 10
50.1911
 20
7.1532
  0
POINT
  8
2
 10
50.1034
 20
6.7938
  0
POINT
  8
4
 10
50.1034
 20
6.7938
 30
0.1181
 39
0.1771
 50
169.3508
  0
POINT
  8
2
 10
50.1034
 20
6.7938
  0
POINT
  8
3
 10
50.0423
 20
6.3351
  0
POINT
  8
3
 10
50.0171
 20
5.9121
  0
POINT
  8
3
 10
50.0264
 20
5.5361
  0
POINT
  8
3
 10
50.0468
 20
5.2411
  0
POINT
  8
2
 10
50.1713
 20
4.3993
  0
POINT
  8
2
 10
50.0128
 20
4.0543
  0
LINE
  8
7
 10
36.7165
 20
7.1190
 11
48.4053
 21
7.1190
  0
LINE
  8
5
 10
36.7165
 20
7.1190
 11
48.4053
 21
7.1190
  0
POINT
  8
2
 10
36.7165
 20
7.1190
  0
POINT
  8
2
 10
48.4053
 20
7.1190
  0
LINE
  8
8
 10
48.6547
 20
11.1733
 11
48.6548
 21
4.5380
  0
POLYLINE
  8
85
 66
1
 70
0
  0
VERTEX
  8
85
 10
48.6547
 20
11.1733
  0
VERTEX
  8
85
 10
48.6548
 20
4.5380
  0
SEQEND
  8
85
  0
TEXT
  8
8
 10
48.6547
 20
11.1733
 40
0.250
 50
0.0000
  1
NM
  7
STANDARD
  0
TEXT
  8
85
 10
48.6547
 20
11.1733
 40
0.250
 50
0.0000
  1
NM
  7
STANDARD
  0
POINT
  8
2
 10
48.6547
 20
11.1733
  0
POINT
  8
2
 10
48.6548
 20
4.5380
  0
LINE
  8
8
 10
32.3999
 20
3.1402
 11
31.2178
 21
7.7798
  0
POLYLINE
  8
85
 66
1
 70
0
  0
VERTEX
  8
85
 10
32.3999
 20
3.1402
  0
VERTEX
  8
85
 10
31.2178
 20
7.7798
  0
SEQEND
  8
85
  0
TEXT
  8
8
 10
32.3999
 20
3.1402
 40
0.250
 50
0.0000
  1
NM
  7
STANDARD
  0
TEXT
  8
85
 10
32.3999
 20
3.1402
 40
0.250
 50
0.0000
  1
NM
  7
STANDARD
  0
POINT
  8
2
 10
32.3999
 20
3.1402
  0
POINT
  8
2
 10
31.2178
 20
7.7798
  0
LINE
  8
10
 10
48.6740
 20
11.4383
 11
48.6740
 21
11.2855
  0
TEXT
  8
10
 10
48.6740
 20
11.4383
 40
0.250
 50
0.0000
  1
4
  7
STANDARD
  0
POINT
  8
2
 10
48.6740
 20
11.4383
  0
POINT
  8
2
 10
48.6740
 20
11.2855
  0
ENDBLK
  0
BLOCK
  8
0
  2
BUY-351994-STF-CL-HL-J-SH-08_40
 70
64
 10
0.0000
 20
0.0000
  0
TEXT
  8
1
 10
56.6467
 20
5.2871
 40
0.250
 50
0.0000
  1
Piece Name: BUY-351994-STF-CL-HL-J-SH-08
  7
STANDARD
  0
TEXT
  8
1
 10
56.6467
 20
5.4271
 40
0.250
 50
0.0000
  1
Quantity: 1,0
  7
STANDARD
  0
TEXT
  8
1
 10
56.6467
 20
5.5671
 40
0.250
 50
0.0000
  1
ANNOTATION
  7
STANDARD
  0
TEXT
  8
1
 10
56.6467
 20
5.7071
 40
0.250
 50
0.0000
  1
CATEGORY: 51
  7
STANDARD
  0
TEXT
  8
1
 10
56.6467
 20
5.8471
 40
0.250
 50
0.0000
  1
SIZE: 40
  7
STANDARD
  0
POLYLINE
  8
1
 66
1
 70
0
  0
VERTEX
  8
1
 10
55.4721
 20
-0.7656
  0
VERTEX
  8
1
 10
55.6641
 20
-0.2249
  0
VERTEX
  8
1
 10
55.7904
 20
0.1654
  0
VERTEX
  8
1
 10
55.8906
 20
0.4767
  0
VERTEX
  8
1
 10
56.0057
 20
0.9026
  0
VERTEX
  8
1
 10
56.1097
 20
1.3498
  0
VERTEX
  8
1
 10
56.2572
 20
2.0227
  0
VERTEX
  8
1
 10
56.3321
 20
2.5100
  0
VERTEX
  8
1
 10
56.3762
 20
3.0093
  0
VERTEX
  8
1
 10
56.4005
 20
3.5124
  0
VERTEX
  8
1
 10
56.4156
 20
4.0435
  0
VERTEX
  8
1
 10
56.4438
 20
5.2871
  0
VERTEX
  8
1
 10
56.4156
 20
6.5307
  0
VERTEX
  8
1
 10
56.4005
 20
7.0618
  0
VERTEX
  8
1
 10
56.3762
 20
7.5649
  0
VERTEX
  8
1
 10
56.3321
 20
8.0642
  0
VERTEX
  8
1
 10
56.2572
 20
8.5515
  0
VERTEX
  8
1
 10
56.1097
 20
9.2244
  0
VERTEX
  8
1
 10
56.0057
 20
9.6716
  0
VERTEX
  8
1
 10
55.8906
 20
10.0975
  0
VERTEX
  8
1
 10
55.7904
 20
10.4088
  0
VERTEX
  8
1
 10
55.6641
 20
10.7991
  0
VERTEX
  8
1
 10
55.4721
 20
11.3398
  0
SEQEND
  8
1
  0
POLYLINE
  8
84
 66
1
 70
0
  0
VERTEX
  8
84
 10
55.4721
 20
-0.7656
  0
VERTEX
  8
84
 10
55.6641
 20
-0.2249
  0
VERTEX
  8
84
 10
55.7904
 20
0.1654
  0
VERTEX
  8
84
 10
55.8906
 20
0.4767
  0
VERTEX
  8
84
 10
56.0057
 20
0.9026
  0
VERTEX
  8
84
 10
56.1097
 20
1.3498
  0
VERTEX
  8
84
 10
56.2572
 20
2.0227
  0
VERTEX
  8
84
 10
56.3321
 20
2.5100
  0
VERTEX
  8
84
 10
56.3762
 20
3.0093
  0
VERTEX
  8
84
 10
56.4005
 20
3.5124
  0
VERTEX
  8
84
 10
56.4156
 20
4.0435
  0
VERTEX
  8
84
 10
56.4438
 20
5.2871
  0
VERTEX
  8
84
 10
56.4156
 20
6.5307
  0
VERTEX
  8
84
 10
56.4005
 20
7.0618
  0
VERTEX
  8
84
 10
56.3762
 20
7.5649
  0
VERTEX
  8
84
 10
56.3321
 20
8.0642
  0
VERTEX
  8
84
 10
56.2572
 20
8.5515
  0
VERTEX
  8
84
 10
56.1097
 20
9.2244
  0
VERTEX
  8
84
 10
56.0057
 20
9.6716
  0
VERTEX
  8
84
 10
55.8906
 20
10.0975
  0
VERTEX
  8
84
 10
55.7904
 20
10.4088
  0
VERTEX
  8
84
 10
55.6641
 20
10.7991
  0
VERTEX
  8
84
 10
55.4721
 20
11.3398
  0
SEQEND
  8
84
  0
POINT
  8
2
 10
55.4721
 20
-0.7656
  0
POINT
  8
3
 10
55.6641
 20
-0.2249
  0
POINT
  8
4
 10
55.7904
 20
0.1654
 30
0.1181
 39
0.0000
  0
POINT
  8
3
 10
55.7904
 20
0.1654
  0
POINT
  8
3
 10
55.8906
 20
0.4767
  0
POINT
  8
3
 10
56.0057
 20
0.9026
  0
POINT
  8
3
 10
56.1097
 20
1.3498
  0
POINT
  8
3
 10
56.2572
 20
2.0227
  0
POINT
  8
3
 10
56.3321
 20
2.5100
  0
POINT
  8
3
 10
56.3762
 20
3.0093
  0
POINT
  8
3
 10
56.4005
 20
3.5124
  0
POINT
  8
4
 10
56.4156
 20
4.0435
 30
0.1181
 39
0.0000
  0
POINT
  8
3
 10
56.4156
 20
4.0435
  0
POINT
  8
4
 10
56.4438
 20
5.2871
 30
0.1181
 39
0.0000
  0
POINT
  8
2
 10
56.4438
 20
5.2871
  0
POINT
  8
4
 10
56.4156
 20
6.5307
 30
0.1181
 39
0.0000
  0
POINT
  8
3
 10
56.4156
 20
6.5307
  0
POINT
  8
3
 10
56.4005
 20
7.0618
  0
POINT
  8
3
 10
56.3762
 20
7.5649
  0
POINT
  8
3
 10
56.3321
 20
8.0642
  0
POINT
  8
3
 10
56.2572
 20
8.5515
  0
POINT
  8
3
 10
56.1097
 20
9.2244
  0
POINT
  8
3
 10
56.0057
 20
9.6716
  0
POINT
  8
3
 10
55.8906
 20
10.0975
  0
POINT
  8
4
 10
55.7904
 20
10.4088
 30
0.1181
 39
0.0000
  0
POINT
  8
3
 10
55.7904
 20
10.4088
  0
POINT
  8
3
 10
55.6641
 20
10.7991
  0
POINT
  8
2
 10
55.4721
 20
11.3398
  0
POLYLINE
  8
1
 66
1
 70
0
  0
VERTEX
  8
1
 10
55.4721
 20
11.3398
  0
VERTEX
  8
1
 10
55.6241
 20
11.6101
  0
SEQEND
  8
1
  0
POLYLINE
  8
84
 66
1
 70
0
  0
VERTEX
  8
84
 10
55.4721
 20
11.3398
  0
VERTEX
  8
84
 10
55.6241
 20
11.6101
  0
SEQEND
  8
84
  0
POINT
  8
2
 10
55.4721
 20
11.3398
  0
POINT
  8
2
 10
55.6241
 20
11.6101
  0
POLYLINE
  8
1
 66
1
 70
0
  0
VERTEX
  8
1
 10
55.6241
 20
11.6101
  0
VERTEX
  8
1
 10
56.9586
 20
11.0977
  0
SEQEND
  8
1
  0
POLYLINE
  8
84
 66
1
 70
0
  0
VERTEX
  8
84
 10
55.6241
 20
11.6101
  0
VERTEX
  8
84
 10
56.9586
 20
11.0977
  0
SEQEND
  8
84
  0
POINT
  8
2
 10
55.6241
 20
11.6101
  0
POINT
  8
2
 10
56.9586
 20
11.0977
  0
POLYLINE
  8
1
 66
1
 70
0
  0
VERTEX
  8
1
 10
56.9586
 20
11.0977
  0
VERTEX
  8
1
 10
57.2036
 20
10.3937
  0
VERTEX
  8
1
 10
57.4151
 20
9.7253
  0
VERTEX
  8
1
 10
57.5916
 20
9.0602
  0
VERTEX
  8
1
 10
57.6416
 20
8.7800
  0
VERTEX
  8
1
 10
57.6956
 20
8.4347
  0
VERTEX
  8
1
 10
57.7414
 20
8.0498
  0
VERTEX
  8
1
 10
57.7771
 20
7.5947
  0
VERTEX
  8
1
 10
57.8013
 20
7.0346
  0
VERTEX
  8
1
 10
57.8150
 20
6.3156
  0
VERTEX
  8
1
 10
57.8213
 20
5.2871
  0
VERTEX
  8
1
 10
57.8150
 20
4.2586
  0
VERTEX
  8
1
 10
57.8013
 20
3.5396
  0
VERTEX
  8
1
 10
57.7771
 20
2.9795
  0
VERTEX
  8
1
 10
57.7414
 20
2.5244
  0
VERTEX
  8
1
 10
57.6956
 20
2.1395
  0
VERTEX
  8
1
 10
57.6416
 20
1.7942
  0
VERTEX
  8
1
 10
57.5916
 20
1.5140
  0
VERTEX
  8
1
 10
57.4151
 20
0.8489
  0
VERTEX
  8
1
 10
57.2036
 20
0.1805
  0
VERTEX
  8
1
 10
56.9586
 20
-0.5235
  0
SEQEND
  8
1
  0
POLYLINE
  8
84
 66
1
 70
0
  0
VERTEX
  8
84
 10
56.9586
 20
11.0977
  0
VERTEX
  8
84
 10
57.2036
 20
10.3937
  0
VERTEX
  8
84
 10
57.4151
 20
9.7253
  0
VERTEX
  8
84
 10
57.5916
 20
9.0602
  0
VERTEX
  8
84
 10
57.6416
 20
8.7800
  0
VERTEX
  8
84
 10
57.6956
 20
8.4347
  0
VERTEX
  8
84
 10
57.7414
 20
8.0498
  0
VERTEX
  8
84
 10
57.7771
 20
7.5947
  0
VERTEX
  8
84
 10
57.8013
 20
7.0346
  0
VERTEX
  8
84
 10
57.8150
 20
6.3156
  0
VERTEX
  8
84
 10
57.8213
 20
5.2871
  0
VERTEX
  8
84
 10
57.8150
 20
4.2586
  0
VERTEX
  8
84
 10
57.8013
 20
3.5396
  0
VERTEX
  8
84
 10
57.7771
 20
2.9795
  0
VERTEX
  8
84
 10
57.7414
 20
2.5244
  0
VERTEX
  8
84
 10
57.6956
 20
2.1395
  0
VERTEX
  8
84
 10
57.6416
 20
1.7942
  0
VERTEX
  8
84
 10
57.5916
 20
1.5140
  0
VERTEX
  8
84
 10
57.4151
 20
0.8489
  0
VERTEX
  8
84
 10
57.2036
 20
0.1805
  0
VERTEX
  8
84
 10
56.9586
 20
-0.5235
  0
SEQEND
  8
84
  0
POINT
  8
2
 10
56.9586
 20
11.0977
  0
POINT
  8
3
 10
57.2036
 20
10.3937
  0
POINT
  8
3
 10
57.4151
 20
9.7253
  0
POINT
  8
4
 10
57.5916
 20
9.0602
 30
0.1181
 39
0.0000
  0
POINT
  8
3
 10
57.5916
 20
9.0602
  0
POINT
  8
3
 10
57.6416
 20
8.7800
  0
POINT
  8
3
 10
57.6956
 20
8.4347
  0
POINT
  8
3
 10
57.7414
 20
8.0498
  0
POINT
  8
3
 10
57.7771
 20
7.5947
  0
POINT
  8
3
 10
57.8013
 20
7.0346
  0
POINT
  8
3
 10
57.8150
 20
6.3156
  0
POINT
  8
4
 10
57.8213
 20
5.2871
 30
0.1181
 39
0.0000
  0
POINT
  8
2
 10
57.8213
 20
5.2871
  0
POINT
  8
3
 10
57.8150
 20
4.2586
  0
POINT
  8
3
 10
57.8013
 20
3.5396
  0
POINT
  8
3
 10
57.7771
 20
2.9795
  0
POINT
  8
3
 10
57.7414
 20
2.5244
  0
POINT
  8
3
 10
57.6956
 20
2.1395
  0
POINT
  8
3
 10
57.6416
 20
1.7942
  0
POINT
  8
4
 10
57.5916
 20
1.5140
 30
0.1181
 39
0.0000
  0
POINT
  8
3
 10
57.5916
 20
1.5140
  0
POINT
  8
3
 10
57.4151
 20
0.8489
  0
POINT
  8
3
 10
57.2036
 20
0.1805
  0
POINT
  8
2
 10
56.9586
 20
-0.5235
  0
POLYLINE
  8
1
 66
1
 70
0
  0
VERTEX
  8
1
 10
56.9586
 20
-0.5235
  0
VERTEX
  8
1
 10
55.6241
 20
-1.0359
  0
SEQEND
  8
1
  0
POLYLINE
  8
84
 66
1
 70
0
  0
VERTEX
  8
84
 10
56.9586
 20
-0.5235
  0
VERTEX
  8
84
 10
55.6241
 20
-1.0359
  0
SEQEND
  8
84
  0
POINT
  8
2
 10
56.9586
 20
-0.5235
  0
POINT
  8
2
 10
55.6241
 20
-1.0359
  0
POLYLINE
  8
1
 66
1
 70
0
  0
VERTEX
  8
1
 10
55.6241
 20
-1.0359
  0
VERTEX
  8
1
 10
55.4721
 20
-0.7656
  0
SEQEND
  8
1
  0
POLYLINE
  8
84
 66
1
 70
0
  0
VERTEX
  8
84
 10
55.6241
 20
-1.0359
  0
VERTEX
  8
84
 10
55.4721
 20
-0.7656
  0
SEQEND
  8
84
  0
POINT
  8
2
 10
55.6241
 20
-1.0359
  0
POINT
  8
2
 10
55.4721
 20
-0.7656
  0
LINE
  8
7
 10
56.0603
 20
8.4499
 11
57.2343
 21
8.4499
  0
LINE
  8
5
 10
56.0603
 20
8.4499
 11
57.2343
 21
8.4499
  0
POINT
  8
2
 10
56.0603
 20
8.4499
  0
POINT
  8
2
 10
57.2343
 20
8.4499
  0
POLYLINE
  8
8
 66
1
 70
0
  0
VERTEX
  8
8
 10
56.9860
 20
6.0592
  0
VERTEX
  8
8
 10
56.9860
 20
5.2871
  0
SEQEND
  8
8
  0
POLYLINE
  8
85
 66
1
 70
0
  0
VERTEX
  8
85
 10
56.9860
 20
6.0592
  0
VERTEX
  8
85
 10
56.9860
 20
5.2871
  0
SEQEND
  8
85
  0
TEXT
  8
8
 10
56.9860
 20
6.0592
 40
0.250
 50
0.0000
  1
B
  7
STANDARD
  0
TEXT
  8
85
 10
56.9860
 20
6.0592
 40
0.250
 50
0.0000
  1
B
  7
STANDARD
  0
POINT
  8
2
 10
56.9860
 20
6.0592
  0
POINT
  8
2
 10
56.9860
 20
5.2871
  0
ENDBLK
  0
BLOCK
  8
0
  2
BUY-351994-STF-CL-HL-J-SH-07_40
 70
64
 10
0.0000
 20
0.0000
  0
TEXT
  8
1
 10
60.1888
 20
3.3142
 40
0.250
 50
0.0000
  1
Piece Name: BUY-351994-STF-CL-HL-J-SH-07
  7
STANDARD
  0
TEXT
  8
1
 10
60.1888
 20
3.4542
 40
0.250
 50
0.0000
  1
Quantity: 1,0
  7
STANDARD
  0
TEXT
  8
1
 10
60.1888
 20
3.5942
 40
0.250
 50
0.0000
  1
ANNOTATION
  7
STANDARD
  0
TEXT
  8
1
 10
60.1888
 20
3.7342
 40
0.250
 50
0.0000
  1
CATEGORY: 50
  7
STANDARD
  0
TEXT
  8
1
 10
60.1888
 20
3.8742
 40
0.250
 50
0.0000
  1
SIZE: 40
  7
STANDARD
  0
POLYLINE
  8
1
 66
1
 70
0
  0
VERTEX
  8
1
 10
58.6311
 20
-4.5958
  0
VERTEX
  8
1
 10
58.6450
 20
-4.2836
  0
VERTEX
  8
1
 10
58.6450
 20
-4.2836
  0
VERTEX
  8
1
 10
58.6695
 20
-3.7343
  0
VERTEX
  8
1
 10
58.6828
 20
-3.2532
  0
VERTEX
  8
1
 10
58.6813
 20
-2.7882
  0
VERTEX
  8
1
 10
58.6631
 20
-2.3443
  0
VERTEX
  8
1
 10
58.6304
 20
-1.9183
  0
VERTEX
  8
1
 10
58.5888
 20
-1.4993
  0
VERTEX
  8
1
 10
58.5068
 20
-0.9369
  0
VERTEX
  8
1
 10
58.4503
 20
-0.4177
  0
VERTEX
  8
1
 10
58.4188
 20
0.0674
  0
VERTEX
  8
1
 10
58.3922
 20
0.5523
  0
VERTEX
  8
1
 10
58.3723
 20
1.0524
  0
VERTEX
  8
1
 10
58.3569
 20
1.5474
  0
VERTEX
  8
1
 10
58.3459
 20
2.0572
  0
VERTEX
  8
1
 10
58.3213
 20
3.3136
  0
VERTEX
  8
1
 10
58.3453
 20
4.5700
  0
VERTEX
  8
1
 10
58.3560
 20
5.0797
  0
VERTEX
  8
1
 10
58.3711
 20
5.5748
  0
VERTEX
  8
1
 10
58.3908
 20
6.0748
  0
VERTEX
  8
1
 10
58.4171
 20
6.5598
  0
VERTEX
  8
1
 10
58.4484
 20
7.0450
  0
VERTEX
  8
1
 10
58.5046
 20
7.5641
  0
VERTEX
  8
1
 10
58.5863
 20
8.1266
  0
VERTEX
  8
1
 10
58.6277
 20
8.5456
  0
VERTEX
  8
1
 10
58.6602
 20
8.9716
  0
VERTEX
  8
1
 10
58.6782
 20
9.4155
  0
VERTEX
  8
1
 10
58.6794
 20
9.8804
  0
VERTEX
  8
1
 10
58.6659
 20
10.3616
  0
VERTEX
  8
1
 10
58.6411
 20
10.9110
  0
VERTEX
  8
1
 10
58.6411
 20
10.9110
  0
VERTEX
  8
1
 10
58.6271
 20
11.2232
  0
SEQEND
  8
1
  0
POLYLINE
  8
84
 66
1
 70
0
  0
VERTEX
  8
84
 10
58.6311
 20
-4.5958
  0
VERTEX
  8
84
 10
58.6450
 20
-4.2836
  0
VERTEX
  8
84
 10
58.6450
 20
-4.2836
  0
VERTEX
  8
84
 10
58.6695
 20
-3.7343
  0
VERTEX
  8
84
 10
58.6828
 20
-3.2532
  0
VERTEX
  8
84
 10
58.6813
 20
-2.7882
  0
VERTEX
  8
84
 10
58.6631
 20
-2.3443
  0
VERTEX
  8
84
 10
58.6304
 20
-1.9183
  0
VERTEX
  8
84
 10
58.5888
 20
-1.4993
  0
VERTEX
  8
84
 10
58.5068
 20
-0.9369
  0
VERTEX
  8
84
 10
58.4503
 20
-0.4177
  0
VERTEX
  8
84
 10
58.4188
 20
0.0674
  0
VERTEX
  8
84
 10
58.3922
 20
0.5523
  0
VERTEX
  8
84
 10
58.3723
 20
1.0524
  0
VERTEX
  8
84
 10
58.3569
 20
1.5474
  0
VERTEX
  8
84
 10
58.3459
 20
2.0572
  0
VERTEX
  8
84
 10
58.3213
 20
3.3136
  0
VERTEX
  8
84
 10
58.3453
 20
4.5700
  0
VERTEX
  8
84
 10
58.3560
 20
5.0797
  0
VERTEX
  8
84
 10
58.3711
 20
5.5748
  0
VERTEX
  8
84
 10
58.3908
 20
6.0748
  0
VERTEX
  8
84
 10
58.4171
 20
6.5598
  0
VERTEX
  8
84
 10
58.4484
 20
7.0450
  0
VERTEX
  8
84
 10
58.5046
 20
7.5641
  0
VERTEX
  8
84
 10
58.5863
 20
8.1266
  0
VERTEX
  8
84
 10
58.6277
 20
8.5456
  0
VERTEX
  8
84
 10
58.6602
 20
8.9716
  0
VERTEX
  8
84
 10
58.6782
 20
9.4155
  0
VERTEX
  8
84
 10
58.6794
 20
9.8804
  0
VERTEX
  8
84
 10
58.6659
 20
10.3616
  0
VERTEX
  8
84
 10
58.6411
 20
10.9110
  0
VERTEX
  8
84
 10
58.6411
 20
10.9110
  0
VERTEX
  8
84
 10
58.6271
 20
11.2232
  0
SEQEND
  8
84
  0
POINT
  8
2
 10
58.6311
 20
-4.5958
  0
POINT
  8
2
 10
58.6450
 20
-4.2836
  0
POINT
  8
4
 10
58.6450
 20
-4.2836
 30
0.1181
 39
0.0000
 50
-10.2187
  0
POINT
  8
2
 10
58.6450
 20
-4.2836
  0
POINT
  8
3
 10
58.6695
 20
-3.7343
  0
POINT
  8
3
 10
58.6828
 20
-3.2532
  0
POINT
  8
3
 10
58.6813
 20
-2.7882
  0
POINT
  8
3
 10
58.6631
 20
-2.3443
  0
POINT
  8
3
 10
58.6304
 20
-1.9183
  0
POINT
  8
4
 10
58.5888
 20
-1.4993
 30
0.1181
 39
0.0000
  0
POINT
  8
3
 10
58.5888
 20
-1.4993
  0
POINT
  8
3
 10
58.5068
 20
-0.9369
  0
POINT
  8
3
 10
58.4503
 20
-0.4177
  0
POINT
  8
3
 10
58.4188
 20
0.0674
  0
POINT
  8
3
 10
58.3922
 20
0.5523
  0
POINT
  8
2
 10
58.3723
 20
1.0524
  0
POINT
  8
3
 10
58.3569
 20
1.5474
  0
POINT
  8
4
 10
58.3459
 20
2.0572
 30
0.1181
 39
0.0000
  0
POINT
  8
3
 10
58.3459
 20
2.0572
  0
POINT
  8
4
 10
58.3213
 20
3.3136
 30
0.1181
 39
0.0000
  0
POINT
  8
2
 10
58.3213
 20
3.3136
  0
POINT
  8
4
 10
58.3453
 20
4.5700
 30
0.1181
 39
0.0000
  0
POINT
  8
3
 10
58.3453
 20
4.5700
  0
POINT
  8
3
 10
58.3560
 20
5.0797
  0
POINT
  8
2
 10
58.3711
 20
5.5748
  0
POINT
  8
3
 10
58.3908
 20
6.0748
  0
POINT
  8
3
 10
58.4171
 20
6.5598
  0
POINT
  8
3
 10
58.4484
 20
7.0450
  0
POINT
  8
3
 10
58.5046
 20
7.5641
  0
POINT
  8
4
 10
58.5863
 20
8.1266
 30
0.1181
 39
0.0000
  0
POINT
  8
3
 10
58.5863
 20
8.1266
  0
POINT
  8
3
 10
58.6277
 20
8.5456
  0
POINT
  8
3
 10
58.6602
 20
8.9716
  0
POINT
  8
3
 10
58.6782
 20
9.4155
  0
POINT
  8
3
 10
58.6794
 20
9.8804
  0
POINT
  8
3
 10
58.6659
 20
10.3616
  0
POINT
  8
2
 10
58.6411
 20
10.9110
  0
POINT
  8
4
 10
58.6411
 20
10.9110
 30
0.1181
 39
0.0000
 50
10.2413
  0
POINT
  8
2
 10
58.6411
 20
10.9110
  0
POINT
  8
2
 10
58.6271
 20
11.2232
  0
POLYLINE
  8
1
 66
1
 70
0
  0
VERTEX
  8
1
 10
58.6271
 20
11.2232
  0
VERTEX
  8
1
 10
60.7670
 20
11.6102
  0
SEQEND
  8
1
  0
POLYLINE
  8
84
 66
1
 70
0
  0
VERTEX
  8
84
 10
58.6271
 20
11.2232
  0
VERTEX
  8
84
 10
60.7670
 20
11.6102
  0
SEQEND
  8
84
  0
POINT
  8
2
 10
58.6271
 20
11.2232
  0
POINT
  8
2
 10
60.7670
 20
11.6102
  0
POLYLINE
  8
1
 66
1
 70
0
  0
VERTEX
  8
1
 10
60.7670
 20
11.6102
  0
VERTEX
  8
1
 10
60.9193
 20
11.3177
  0
VERTEX
  8
1
 10
60.9193
 20
11.3177
  0
VERTEX
  8
1
 10
62.0534
 20
9.1394
  0
SEQEND
  8
1
  0
POLYLINE
  8
84
 66
1
 70
0
  0
VERTEX
  8
84
 10
60.7670
 20
11.6102
  0
VERTEX
  8
84
 10
60.9193
 20
11.3177
  0
VERTEX
  8
84
 10
60.9193
 20
11.3177
  0
VERTEX
  8
84
 10
62.0534
 20
9.1394
  0
SEQEND
  8
84
  0
POINT
  8
2
 10
60.7670
 20
11.6102
  0
POINT
  8
2
 10
60.9193
 20
11.3177
  0
POINT
  8
4
 10
60.9193
 20
11.3177
 30
0.1181
 39
0.0000
 50
-169.7408
  0
POINT
  8
2
 10
60.9193
 20
11.3177
  0
POINT
  8
2
 10
62.0534
 20
9.1394
  0
POLYLINE
  8
1
 66
1
 70
0
  0
VERTEX
  8
1
 10
62.0534
 20
9.1394
  0
VERTEX
  8
1
 10
61.8461
 20
8.6042
  0
VERTEX
  8
1
 10
61.7064
 20
8.2185
  0
VERTEX
  8
1
 10
61.5955
 20
7.9108
  0
VERTEX
  8
1
 10
61.4657
 20
7.4891
  0
VERTEX
  8
1
 10
61.3464
 20
7.0457
  0
VERTEX
  8
1
 10
61.2440
 20
6.5789
  0
VERTEX
  8
1
 10
61.1695
 20
6.0915
  0
VERTEX
  8
1
 10
61.1255
 20
5.5921
  0
VERTEX
  8
1
 10
61.1017
 20
5.0889
  0
VERTEX
  8
1
 10
61.0867
 20
4.5580
  0
VERTEX
  8
1
 10
61.0592
 20
3.3143
  0
VERTEX
  8
1
 10
61.0873
 20
2.0705
  0
VERTEX
  8
1
 10
61.1026
 20
1.5396
  0
VERTEX
  8
1
 10
61.1267
 20
1.0365
  0
VERTEX
  8
1
 10
61.1709
 20
0.5371
  0
VERTEX
  8
1
 10
61.2457
 20
0.0498
  0
VERTEX
  8
1
 10
61.3483
 20
-0.4171
  0
VERTEX
  8
1
 10
61.4678
 20
-0.8605
  0
VERTEX
  8
1
 10
61.5979
 20
-1.2820
  0
VERTEX
  8
1
 10
61.7089
 20
-1.5896
  0
VERTEX
  8
1
 10
61.8488
 20
-1.9753
  0
VERTEX
  8
1
 10
62.0564
 20
-2.5104
  0
SEQEND
  8
1
  0
POLYLINE
  8
84
 66
1
 70
0
  0
VERTEX
  8
84
 10
62.0534
 20
9.1394
  0
VERTEX
  8
84
 10
61.8461
 20
8.6042
  0
VERTEX
  8
84
 10
61.7064
 20
8.2185
  0
VERTEX
  8
84
 10
61.5955
 20
7.9108
  0
VERTEX
  8
84
 10
61.4657
 20
7.4891
  0
VERTEX
  8
84
 10
61.3464
 20
7.0457
  0
VERTEX
  8
84
 10
61.2440
 20
6.5789
  0
VERTEX
  8
84
 10
61.1695
 20
6.0915
  0
VERTEX
  8
84
 10
61.1255
 20
5.5921
  0
VERTEX
  8
84
 10
61.1017
 20
5.0889
  0
VERTEX
  8
84
 10
61.0867
 20
4.5580
  0
VERTEX
  8
84
 10
61.0592
 20
3.3143
  0
VERTEX
  8
84
 10
61.0873
 20
2.0705
  0
VERTEX
  8
84
 10
61.1026
 20
1.5396
  0
VERTEX
  8
84
 10
61.1267
 20
1.0365
  0
VERTEX
  8
84
 10
61.1709
 20
0.5371
  0
VERTEX
  8
84
 10
61.2457
 20
0.0498
  0
VERTEX
  8
84
 10
61.3483
 20
-0.4171
  0
VERTEX
  8
84
 10
61.4678
 20
-0.8605
  0
VERTEX
  8
84
 10
61.5979
 20
-1.2820
  0
VERTEX
  8
84
 10
61.7089
 20
-1.5896
  0
VERTEX
  8
84
 10
61.8488
 20
-1.9753
  0
VERTEX
  8
84
 10
62.0564
 20
-2.5104
  0
SEQEND
  8
84
  0
POINT
  8
2
 10
62.0534
 20
9.1394
  0
POINT
  8
3
 10
61.8461
 20
8.6042
  0
POINT
  8
4
 10
61.7064
 20
8.2185
 30
0.1181
 39
0.0000
  0
POINT
  8
3
 10
61.7064
 20
8.2185
  0
POINT
  8
3
 10
61.5955
 20
7.9108
  0
POINT
  8
3
 10
61.4657
 20
7.4891
  0
POINT
  8
3
 10
61.3464
 20
7.0457
  0
POINT
  8
3
 10
61.2440
 20
6.5789
  0
POINT
  8
3
 10
61.1695
 20
6.0915
  0
POINT
  8
3
 10
61.1255
 20
5.5921
  0
POINT
  8
3
 10
61.1017
 20
5.0889
  0
POINT
  8
4
 10
61.0867
 20
4.5580
 30
0.1181
 39
0.0000
  0
POINT
  8
3
 10
61.0867
 20
4.5580
  0
POINT
  8
4
 10
61.0592
 20
3.3143
 30
0.1181
 39
0.0000
  0
POINT
  8
2
 10
61.0592
 20
3.3143
  0
POINT
  8
4
 10
61.0873
 20
2.0705
 30
0.1181
 39
0.0000
  0
POINT
  8
3
 10
61.0873
 20
2.0705
  0
POINT
  8
3
 10
61.1026
 20
1.5396
  0
POINT
  8
3
 10
61.1267
 20
1.0365
  0
POINT
  8
3
 10
61.1709
 20
0.5371
  0
POINT
  8
3
 10
61.2457
 20
0.0498
  0
POINT
  8
3
 10
61.3483
 20
-0.4171
  0
POINT
  8
3
 10
61.4678
 20
-0.8605
  0
POINT
  8
3
 10
61.5979
 20
-1.2820
  0
POINT
  8
4
 10
61.7089
 20
-1.5896
 30
0.1181
 39
0.0000
  0
POINT
  8
3
 10
61.7089
 20
-1.5896
  0
POINT
  8
3
 10
61.8488
 20
-1.9753
  0
POINT
  8
2
 10
62.0564
 20
-2.5104
  0
POLYLINE
  8
1
 66
1
 70
0
  0
VERTEX
  8
1
 10
62.0564
 20
-2.5104
  0
VERTEX
  8
1
 10
60.9234
 20
-4.6893
  0
VERTEX
  8
1
 10
60.9234
 20
-4.6893
  0
VERTEX
  8
1
 10
60.7712
 20
-4.9818
  0
SEQEND
  8
1
  0
POLYLINE
  8
84
 66
1
 70
0
  0
VERTEX
  8
84
 10
62.0564
 20
-2.5104
  0
VERTEX
  8
84
 10
60.9234
 20
-4.6893
  0
VERTEX
  8
84
 10
60.9234
 20
-4.6893
  0
VERTEX
  8
84
 10
60.7712
 20
-4.9818
  0
SEQEND
  8
84
  0
POINT
  8
2
 10
62.0564
 20
-2.5104
  0
POINT
  8
2
 10
60.9234
 20
-4.6893
  0
POINT
  8
4
 10
60.9234
 20
-4.6893
 30
0.1181
 39
0.0000
 50
169.7587
  0
POINT
  8
2
 10
60.9234
 20
-4.6893
  0
POINT
  8
2
 10
60.7712
 20
-4.9818
  0
POLYLINE
  8
1
 66
1
 70
0
  0
VERTEX
  8
1
 10
60.7712
 20
-4.9818
  0
VERTEX
  8
1
 10
58.6311
 20
-4.5958
  0
SEQEND
  8
1
  0
POLYLINE
  8
84
 66
1
 70
0
  0
VERTEX
  8
84
 10
60.7712
 20
-4.9818
  0
VERTEX
  8
84
 10
58.6311
 20
-4.5958
  0
SEQEND
  8
84
  0
POINT
  8
2
 10
60.7712
 20
-4.9818
  0
POINT
  8
2
 10
58.6311
 20
-4.5958
  0
LINE
  8
7
 10
59.2521
 20
7.4447
 11
61.1138
 21
7.4447
  0
LINE
  8
5
 10
59.2521
 20
7.4447
 11
61.1138
 21
7.4447
  0
POINT
  8
2
 10
59.2521
 20
7.4447
  0
POINT
  8
2
 10
61.1138
 20
7.4447
  0
POLYLINE
  8
8
 66
1
 70
0
  0
VERTEX
  8
8
 10
59.8346
 20
4.4621
  0
VERTEX
  8
8
 10
59.8346
 20
3.3140
  0
SEQEND
  8
8
  0
POLYLINE
  8
85
 66
1
 70
0
  0
VERTEX
  8
85
 10
59.8346
 20
4.4621
  0
VERTEX
  8
85
 10
59.8346
 20
3.3140
  0
SEQEND
  8
85
  0
TEXT
  8
8
 10
59.8346
 20
4.4621
 40
0.250
 50
0.0000
  1
B
  7
STANDARD
  0
TEXT
  8
85
 10
59.8346
 20
4.4621
 40
0.250
 50
0.0000
  1
B
  7
STANDARD
  0
POINT
  8
2
 10
59.8346
 20
4.4621
  0
POINT
  8
2
 10
59.8346
 20
3.3140
  0
LINE
  8
8
 10
60.4436
 20
11.1636
 11
61.7103
 21
8.9077
  0
POLYLINE
  8
85
 66
1
 70
0
  0
VERTEX
  8
85
 10
60.4436
 20
11.1636
  0
VERTEX
  8
85
 10
61.7103
 20
8.9077
  0
SEQEND
  8
85
  0
TEXT
  8
8
 10
60.4436
 20
11.1636
 40
0.250
 50
0.0000
  1
NM
  7
STANDARD
  0
TEXT
  8
85
 10
60.4436
 20
11.1636
 40
0.250
 50
0.0000
  1
NM
  7
STANDARD
  0
POINT
  8
2
 10
60.4436
 20
11.1636
  0
POINT
  8
2
 10
61.7103
 20
8.9077
  0
LINE
  8
8
 10
58.9571
 20
10.8948
 11
60.5460
 21
11.1822
  0
POLYLINE
  8
85
 66
1
 70
0
  0
VERTEX
  8
85
 10
58.9571
 20
10.8948
  0
VERTEX
  8
85
 10
60.5460
 20
11.1822
  0
SEQEND
  8
85
  0
TEXT
  8
8
 10
58.9571
 20
10.8948
 40
0.250
 50
0.0000
  1
NM
  7
STANDARD
  0
TEXT
  8
85
 10
58.9571
 20
10.8948
 40
0.250
 50
0.0000
  1
NM
  7
STANDARD
  0
POINT
  8
2
 10
58.9571
 20
10.8948
  0
POINT
  8
2
 10
60.5460
 20
11.1822
  0
POLYLINE
  8
8
 66
1
 70
0
  0
VERTEX
  8
8
 10
60.3206
 20
11.1414
  0
VERTEX
  8
8
 10
61.3417
 20
9.3227
  0
VERTEX
  8
8
 10
61.6550
 20
8.7648
  0
SEQEND
  8
8
  0
POLYLINE
  8
85
 66
1
 70
0
  0
VERTEX
  8
85
 10
60.3206
 20
11.1414
  0
VERTEX
  8
85
 10
61.3417
 20
9.3227
  0
VERTEX
  8
85
 10
61.6550
 20
8.7648
  0
SEQEND
  8
85
  0
TEXT
  8
8
 10
60.3206
 20
11.1414
 40
0.250
 50
0.0000
  1
NM
  7
STANDARD
  0
TEXT
  8
85
 10
60.3206
 20
11.1414
 40
0.250
 50
0.0000
  1
NM
  7
STANDARD
  0
POINT
  8
2
 10
60.3206
 20
11.1414
  0
POINT
  8
3
 10
61.3417
 20
9.3227
  0
POINT
  8
2
 10
61.6550
 20
8.7648
  0
ATTDEF
  8
14
 10
60.5700
 20
11.1358
 11
60.5136
 21
11.2442
 40
.25
  1
Link:4
  2
Dependency
  3

 70
2
 72
3
  0
ATTDEF
  8
14
 10
60.5741
 20
-4.5075
 11
60.5177
 21
-4.6160
 40
.25
  1
Link:4
  2
Dependency
  3

 70
2
 72
3
  0
ENDBLK
  0
BLOCK
  8
0
  2
BUY-339302-STF-CL-HL-J-FL-07_40
 70
64
 10
0.0000
 20
0.0000
  0
TEXT
  8
1
 10
1.8012
 20
-13.6131
 40
0.250
 50
0.0000
  1
Piece Name: BUY-339302-STF-CL-HL-J-FL-07
  7
STANDARD
  0
TEXT
  8
1
 10
1.8012
 20
-13.4731
 40
0.250
 50
0.0000
  1
Quantity: 1,0
  7
STANDARD
  0
TEXT
  8
1
 10
1.8012
 20
-13.3331
 40
0.250
 50
0.0000
  1
ANNOTATION
  7
STANDARD
  0
TEXT
  8
1
 10
1.8012
 20
-13.1931
 40
0.250
 50
0.0000
  1
CATEGORY: 52
  7
STANDARD
  0
TEXT
  8
1
 10
1.8012
 20
-13.0531
 40
0.250
 50
0.0000
  1
SIZE: 40
  7
STANDARD
  0
POLYLINE
  8
1
 66
1
 70
0
  0
VERTEX
  8
1
 10
0.0033
 20
-19.1298
  0
VERTEX
  8
1
 10
0.0888
 20
-18.2644
  0
VERTEX
  8
1
 10
0.1342
 20
-17.2916
  0
VERTEX
  8
1
 10
0.1625
 20
-16.3345
  0
VERTEX
  8
1
 10
0.1700
 20
-13.6138
  0
VERTEX
  8
1
 10
0.1608
 20
-10.8931
  0
VERTEX
  8
1
 10
0.1319
 20
-9.9360
  0
VERTEX
  8
1
 10
0.0859
 20
-8.9633
  0
VERTEX
  8
1
 10
-0.0001
 20
-8.0979
  0
SEQEND
  8
1
  0
POLYLINE
  8
84
 66
1
 70
0
  0
VERTEX
  8
84
 10
0.0033
 20
-19.1298
  0
VERTEX
  8
84
 10
0.0888
 20
-18.2644
  0
VERTEX
  8
84
 10
0.1342
 20
-17.2916
  0
VERTEX
  8
84
 10
0.1625
 20
-16.3345
  0
VERTEX
  8
84
 10
0.1700
 20
-13.6138
  0
VERTEX
  8
84
 10
0.1608
 20
-10.8931
  0
VERTEX
  8
84
 10
0.1319
 20
-9.9360
  0
VERTEX
  8
84
 10
0.0859
 20
-8.9633
  0
VERTEX
  8
84
 10
-0.0001
 20
-8.0979
  0
SEQEND
  8
84
  0
POINT
  8
2
 10
0.0033
 20
-19.1298
  0
POINT
  8
3
 10
0.0888
 20
-18.2644
  0
POINT
  8
4
 10
0.1342
 20
-17.2916
 30
0.0984
 39
0.0000
  0
POINT
  8
3
 10
0.1342
 20
-17.2916
  0
POINT
  8
3
 10
0.1625
 20
-16.3345
  0
POINT
  8
4
 10
0.1700
 20
-13.6138
 30
0.0984
 39
0.0000
  0
POINT
  8
2
 10
0.1700
 20
-13.6138
  0
POINT
  8
3
 10
0.1608
 20
-10.8931
  0
POINT
  8
4
 10
0.1319
 20
-9.9360
 30
0.0984
 39
0.0000
  0
POINT
  8
3
 10
0.1319
 20
-9.9360
  0
POINT
  8
3
 10
0.0859
 20
-8.9633
  0
POINT
  8
2
 10
-0.0001
 20
-8.0979
  0
POLYLINE
  8
1
 66
1
 70
0
  0
VERTEX
  8
1
 10
-0.0001
 20
-8.0979
  0
VERTEX
  8
1
 10
0.8240
 20
-7.2206
  0
VERTEX
  8
1
 10
1.6486
 20
-6.3427
  0
SEQEND
  8
1
  0
POLYLINE
  8
84
 66
1
 70
0
  0
VERTEX
  8
84
 10
-0.0001
 20
-8.0979
  0
VERTEX
  8
84
 10
0.8240
 20
-7.2206
  0
VERTEX
  8
84
 10
1.6486
 20
-6.3427
  0
SEQEND
  8
84
  0
POINT
  8
2
 10
-0.0001
 20
-8.0979
  0
POINT
  8
4
 10
0.8240
 20
-7.2206
 30
0.0984
 39
0.0000
  0
POINT
  8
3
 10
0.8240
 20
-7.2206
  0
POINT
  8
2
 10
1.6486
 20
-6.3427
  0
POLYLINE
  8
1
 66
1
 70
0
  0
VERTEX
  8
1
 10
1.6486
 20
-6.3427
  0
VERTEX
  8
1
 10
1.4835
 20
-5.9434
  0
SEQEND
  8
1
  0
POLYLINE
  8
84
 66
1
 70
0
  0
VERTEX
  8
84
 10
1.6486
 20
-6.3427
  0
VERTEX
  8
84
 10
1.4835
 20
-5.9434
  0
SEQEND
  8
84
  0
POINT
  8
2
 10
1.6486
 20
-6.3427
  0
POINT
  8
2
 10
1.4835
 20
-5.9434
  0
POLYLINE
  8
1
 66
1
 70
0
  0
VERTEX
  8
1
 10
1.4835
 20
-5.9434
  0
VERTEX
  8
1
 10
1.8490
 20
-5.5544
  0
SEQEND
  8
1
  0
POLYLINE
  8
84
 66
1
 70
0
  0
VERTEX
  8
84
 10
1.4835
 20
-5.9434
  0
VERTEX
  8
84
 10
1.8490
 20
-5.5544
  0
SEQEND
  8
84
  0
POINT
  8
2
 10
1.4835
 20
-5.9434
  0
POINT
  8
2
 10
1.8490
 20
-5.5544
  0
POLYLINE
  8
1
 66
1
 70
0
  0
VERTEX
  8
1
 10
1.8490
 20
-5.5544
  0
VERTEX
  8
1
 10
2.2292
 20
-5.7247
  0
SEQEND
  8
1
  0
POLYLINE
  8
84
 66
1
 70
0
  0
VERTEX
  8
84
 10
1.8490
 20
-5.5544
  0
VERTEX
  8
84
 10
2.2292
 20
-5.7247
  0
SEQEND
  8
84
  0
POINT
  8
2
 10
1.8490
 20
-5.5544
  0
POINT
  8
2
 10
2.2292
 20
-5.7247
  0
POLYLINE
  8
1
 66
1
 70
0
  0
VERTEX
  8
1
 10
2.2292
 20
-5.7247
  0
VERTEX
  8
1
 10
2.4574
 20
-5.4818
  0
SEQEND
  8
1
  0
POLYLINE
  8
84
 66
1
 70
0
  0
VERTEX
  8
84
 10
2.2292
 20
-5.7247
  0
VERTEX
  8
84
 10
2.4574
 20
-5.4818
  0
SEQEND
  8
84
  0
POINT
  8
2
 10
2.2292
 20
-5.7247
  0
POINT
  8
2
 10
2.4574
 20
-5.4818
  0
POLYLINE
  8
1
 66
1
 70
0
  0
VERTEX
  8
1
 10
2.4574
 20
-5.4818
  0
VERTEX
  8
1
 10
3.5979
 20
-5.9931
  0
SEQEND
  8
1
  0
POLYLINE
  8
84
 66
1
 70
0
  0
VERTEX
  8
84
 10
2.4574
 20
-5.4818
  0
VERTEX
  8
84
 10
3.5979
 20
-5.9931
  0
SEQEND
  8
84
  0
POINT
  8
2
 10
2.4574
 20
-5.4818
  0
POINT
  8
2
 10
3.5979
 20
-5.9931
  0
POLYLINE
  8
1
 66
1
 70
0
  0
VERTEX
  8
1
 10
3.5979
 20
-5.9931
  0
VERTEX
  8
1
 10
3.5076
 20
-6.2978
  0
VERTEX
  8
1
 10
3.3683
 20
-6.7680
  0
VERTEX
  8
1
 10
3.2377
 20
-7.2390
  0
VERTEX
  8
1
 10
3.1245
 20
-7.7011
  0
VERTEX
  8
1
 10
3.0332
 20
-8.1477
  0
VERTEX
  8
1
 10
2.9603
 20
-8.5820
  0
VERTEX
  8
1
 10
2.8989
 20
-9.0054
  0
VERTEX
  8
1
 10
2.8427
 20
-9.7001
  0
VERTEX
  8
1
 10
2.8059
 20
-10.3762
  0
VERTEX
  8
1
 10
2.7848
 20
-11.0374
  0
VERTEX
  8
1
 10
2.7721
 20
-11.6945
  0
VERTEX
  8
1
 10
2.7734
 20
-12.3630
  0
VERTEX
  8
1
 10
2.7734
 20
-13.6130
  0
VERTEX
  8
1
 10
2.7742
 20
-14.8630
  0
VERTEX
  8
1
 10
2.7734
 20
-15.5315
  0
VERTEX
  8
1
 10
2.7863
 20
-16.1886
  0
VERTEX
  8
1
 10
2.8080
 20
-16.8498
  0
VERTEX
  8
1
 10
2.8452
 20
-17.5259
  0
VERTEX
  8
1
 10
2.9018
 20
-18.2205
  0
VERTEX
  8
1
 10
2.9634
 20
-18.6439
  0
VERTEX
  8
1
 10
3.0366
 20
-19.0781
  0
VERTEX
  8
1
 10
3.1282
 20
-19.5247
  0
VERTEX
  8
1
 10
3.2416
 20
-19.9867
  0
VERTEX
  8
1
 10
3.3725
 20
-20.4576
  0
VERTEX
  8
1
 10
3.5122
 20
-20.9277
  0
VERTEX
  8
1
 10
3.6026
 20
-21.2324
  0
SEQEND
  8
1
  0
POLYLINE
  8
84
 66
1
 70
0
  0
VERTEX
  8
84
 10
3.5979
 20
-5.9931
  0
VERTEX
  8
84
 10
3.5076
 20
-6.2978
  0
VERTEX
  8
84
 10
3.3683
 20
-6.7680
  0
VERTEX
  8
84
 10
3.2377
 20
-7.2390
  0
VERTEX
  8
84
 10
3.1245
 20
-7.7011
  0
VERTEX
  8
84
 10
3.0332
 20
-8.1477
  0
VERTEX
  8
84
 10
2.9603
 20
-8.5820
  0
VERTEX
  8
84
 10
2.8989
 20
-9.0054
  0
VERTEX
  8
84
 10
2.8427
 20
-9.7001
  0
VERTEX
  8
84
 10
2.8059
 20
-10.3762
  0
VERTEX
  8
84
 10
2.7848
 20
-11.0374
  0
VERTEX
  8
84
 10
2.7721
 20
-11.6945
  0
VERTEX
  8
84
 10
2.7734
 20
-12.3630
  0
VERTEX
  8
84
 10
2.7734
 20
-13.6130
  0
VERTEX
  8
84
 10
2.7742
 20
-14.8630
  0
VERTEX
  8
84
 10
2.7734
 20
-15.5315
  0
VERTEX
  8
84
 10
2.7863
 20
-16.1886
  0
VERTEX
  8
84
 10
2.8080
 20
-16.8498
  0
VERTEX
  8
84
 10
2.8452
 20
-17.5259
  0
VERTEX
  8
84
 10
2.9018
 20
-18.2205
  0
VERTEX
  8
84
 10
2.9634
 20
-18.6439
  0
VERTEX
  8
84
 10
3.0366
 20
-19.0781
  0
VERTEX
  8
84
 10
3.1282
 20
-19.5247
  0
VERTEX
  8
84
 10
3.2416
 20
-19.9867
  0
VERTEX
  8
84
 10
3.3725
 20
-20.4576
  0
VERTEX
  8
84
 10
3.5122
 20
-20.9277
  0
VERTEX
  8
84
 10
3.6026
 20
-21.2324
  0
SEQEND
  8
84
  0
POINT
  8
2
 10
3.5979
 20
-5.9931
  0
POINT
  8
3
 10
3.5076
 20
-6.2978
  0
POINT
  8
3
 10
3.3683
 20
-6.7680
  0
POINT
  8
3
 10
3.2377
 20
-7.2390
  0
POINT
  8
3
 10
3.1245
 20
-7.7011
  0
POINT
  8
3
 10
3.0332
 20
-8.1477
  0
POINT
  8
3
 10
2.9603
 20
-8.5820
  0
POINT
  8
4
 10
2.8989
 20
-9.0054
 30
0.0984
 39
0.0000
  0
POINT
  8
3
 10
2.8989
 20
-9.0054
  0
POINT
  8
3
 10
2.8427
 20
-9.7001
  0
POINT
  8
3
 10
2.8059
 20
-10.3762
  0
POINT
  8
3
 10
2.7848
 20
-11.0374
  0
POINT
  8
3
 10
2.7721
 20
-11.6945
  0
POINT
  8
4
 10
2.7734
 20
-12.3630
 30
0.0984
 39
0.0000
  0
POINT
  8
3
 10
2.7734
 20
-12.3630
  0
POINT
  8
4
 10
2.7734
 20
-13.6130
 30
0.0984
 39
0.0000
  0
POINT
  8
2
 10
2.7734
 20
-13.6130
  0
POINT
  8
4
 10
2.7742
 20
-14.8630
 30
0.0984
 39
0.0000
  0
POINT
  8
3
 10
2.7742
 20
-14.8630
  0
POINT
  8
3
 10
2.7734
 20
-15.5315
  0
POINT
  8
3
 10
2.7863
 20
-16.1886
  0
POINT
  8
3
 10
2.8080
 20
-16.8498
  0
POINT
  8
3
 10
2.8452
 20
-17.5259
  0
POINT
  8
4
 10
2.9018
 20
-18.2205
 30
0.0984
 39
0.0000
  0
POINT
  8
3
 10
2.9018
 20
-18.2205
  0
POINT
  8
3
 10
2.9634
 20
-18.6439
  0
POINT
  8
3
 10
3.0366
 20
-19.0781
  0
POINT
  8
3
 10
3.1282
 20
-19.5247
  0
POINT
  8
3
 10
3.2416
 20
-19.9867
  0
POINT
  8
3
 10
3.3725
 20
-20.4576
  0
POINT
  8
3
 10
3.5122
 20
-20.9277
  0
POINT
  8
2
 10
3.6026
 20
-21.2324
  0
POLYLINE
  8
1
 66
1
 70
0
  0
VERTEX
  8
1
 10
3.6026
 20
-21.2324
  0
VERTEX
  8
1
 10
2.4624
 20
-21.7444
  0
SEQEND
  8
1
  0
POLYLINE
  8
84
 66
1
 70
0
  0
VERTEX
  8
84
 10
3.6026
 20
-21.2324
  0
VERTEX
  8
84
 10
2.4624
 20
-21.7444
  0
SEQEND
  8
84
  0
POINT
  8
2
 10
3.6026
 20
-21.2324
  0
POINT
  8
2
 10
2.4624
 20
-21.7444
  0
POLYLINE
  8
1
 66
1
 70
0
  0
VERTEX
  8
1
 10
2.4624
 20
-21.7444
  0
VERTEX
  8
1
 10
2.2340
 20
-21.5016
  0
SEQEND
  8
1
  0
POLYLINE
  8
84
 66
1
 70
0
  0
VERTEX
  8
84
 10
2.4624
 20
-21.7444
  0
VERTEX
  8
84
 10
2.2340
 20
-21.5016
  0
SEQEND
  8
84
  0
POINT
  8
2
 10
2.4624
 20
-21.7444
  0
POINT
  8
2
 10
2.2340
 20
-21.5016
  0
POLYLINE
  8
1
 66
1
 70
0
  0
VERTEX
  8
1
 10
2.2340
 20
-21.5016
  0
VERTEX
  8
1
 10
1.8539
 20
-21.6722
  0
SEQEND
  8
1
  0
POLYLINE
  8
84
 66
1
 70
0
  0
VERTEX
  8
84
 10
2.2340
 20
-21.5016
  0
VERTEX
  8
84
 10
1.8539
 20
-21.6722
  0
SEQEND
  8
84
  0
POINT
  8
2
 10
2.2340
 20
-21.5016
  0
POINT
  8
2
 10
1.8539
 20
-21.6722
  0
POLYLINE
  8
1
 66
1
 70
0
  0
VERTEX
  8
1
 10
1.8539
 20
-21.6722
  0
VERTEX
  8
1
 10
1.4883
 20
-21.2834
  0
SEQEND
  8
1
  0
POLYLINE
  8
84
 66
1
 70
0
  0
VERTEX
  8
84
 10
1.8539
 20
-21.6722
  0
VERTEX
  8
84
 10
1.4883
 20
-21.2834
  0
SEQEND
  8
84
  0
POINT
  8
2
 10
1.8539
 20
-21.6722
  0
POINT
  8
2
 10
1.4883
 20
-21.2834
  0
POLYLINE
  8
1
 66
1
 70
0
  0
VERTEX
  8
1
 10
1.4883
 20
-21.2834
  0
VERTEX
  8
1
 10
1.6531
 20
-20.8840
  0
SEQEND
  8
1
  0
POLYLINE
  8
84
 66
1
 70
0
  0
VERTEX
  8
84
 10
1.4883
 20
-21.2834
  0
VERTEX
  8
84
 10
1.6531
 20
-20.8840
  0
SEQEND
  8
84
  0
POINT
  8
2
 10
1.4883
 20
-21.2834
  0
POINT
  8
2
 10
1.6531
 20
-20.8840
  0
POLYLINE
  8
1
 66
1
 70
0
  0
VERTEX
  8
1
 10
1.6531
 20
-20.8840
  0
VERTEX
  8
1
 10
0.8280
 20
-20.0066
  0
VERTEX
  8
1
 10
0.0033
 20
-19.1298
  0
SEQEND
  8
1
  0
POLYLINE
  8
84
 66
1
 70
0
  0
VERTEX
  8
84
 10
1.6531
 20
-20.8840
  0
VERTEX
  8
84
 10
0.8280
 20
-20.0066
  0
VERTEX
  8
84
 10
0.0033
 20
-19.1298
  0
SEQEND
  8
84
  0
POINT
  8
2
 10
1.6531
 20
-20.8840
  0
POINT
  8
4
 10
0.8280
 20
-20.0066
 30
0.0984
 39
0.0000
  0
POINT
  8
3
 10
0.8280
 20
-20.0066
  0
POINT
  8
2
 10
0.0033
 20
-19.1298
  0
LINE
  8
7
 10
0.8770
 20
-9.6692
 11
2.6308
 21
-9.6692
  0
LINE
  8
5
 10
0.8770
 20
-9.6692
 11
2.6308
 21
-9.6692
  0
POINT
  8
2
 10
0.8770
 20
-9.6692
  0
POINT
  8
2
 10
2.6308
 20
-9.6692
  0
POLYLINE
  8
8
 66
1
 70
0
  0
VERTEX
  8
8
 10
1.4609
 20
-14.9211
  0
VERTEX
  8
8
 10
1.4609
 20
-13.1202
  0
SEQEND
  8
8
  0
POLYLINE
  8
85
 66
1
 70
0
  0
VERTEX
  8
85
 10
1.4609
 20
-14.9211
  0
VERTEX
  8
85
 10
1.4609
 20
-13.1202
  0
SEQEND
  8
85
  0
TEXT
  8
8
 10
1.4609
 20
-14.9211
 40
0.250
 50
0.0000
  1
B
  7
STANDARD
  0
TEXT
  8
85
 10
1.4609
 20
-14.9211
 40
0.250
 50
0.0000
  1
B
  7
STANDARD
  0
POINT
  8
2
 10
1.4609
 20
-14.9211
  0
POINT
  8
2
 10
1.4609
 20
-13.1202
  0
ENDBLK
  0
ENDSEC
  0
SECTION
  2
ENTITIES
  0
TEXT
  8
1
 10
0.0000
 20
0.0000
 40
0.250
 50
0.0000
  1
Style Name: BUY-351994-STF-CLASSIC-JKT
  7
STANDARD
  0
TEXT
  8
1
 10
0.0000
 20
0.1400
 40
0.250
 50
0.0000
  1
Creation Date: 13-08-2025
  7
STANDARD
  0
TEXT
  8
1
 10
0.0000
 20
0.2800
 40
0.250
 50
0.0000
  1
Creation Time: 14:18
  7
STANDARD
  0
TEXT
  8
1
 10
0.0000
 20
0.4200
 40
0.250
 50
0.0000
  1
Author: GERBER TECHNOLOGY ; ACCUMARK ; 10.2.0
  7
STANDARD
  0
TEXT
  8
1
 10
0.0000
 20
0.5600
 40
0.250
 50
0.0000
  1
Sample Size: 40
  7
STANDARD
  0
TEXT
  8
1
 10
0.0000
 20
0.7000
 40
0.250
 50
0.0000
  1
Grade Rule Table: CLASSIC
  7
STANDARD
  0
TEXT
  8
1
 10
0.0000
 20
0.8400
 40
0.250
 50
0.0000
  1
Units: ENGLISH
  7
STANDARD
  0
TEXT
  8
1
 10
0.0000
 20
0.9800
 40
0.250
 50
0.0000
  1
Curve Tolerance: .006
  7
STANDARD
  0
TEXT
  8
1
 10
0.0000
 20
1.1200
 40
0.250
 50
0.0000
  1
ASTM/D13Proposal 1 Version: D 6673-04
  7
STANDARD
  0
INSERT
  8
1
  2
BUY-351994-STF-CL-HL-J-SH-01_40
 10
0.0000
 20
0.0000
  0
INSERT
  8
1
  2
BUY-351994-STF-CL-HL-J-SH-02SV_40
 10
0.0000
 20
0.0000
  0
INSERT
  8
1
  2
BUY-351994-STF-CL-HL-J-SH-03SV-L_40
 10
0.0000
 20
0.0000
  0
INSERT
  8
1
  2
BUY-351994-STF-CL-HL-J-SH-06-N_40
 10
0.0000
 20
0.0000
  0
INSERT
  8
1
  2
BUY-351994-STF-CL-HL-J-SH-05_40
 10
0.0000
 20
0.0000
  0
INSERT
  8
1
  2
BUY-351994-STF-CL-HL-J-SH-04_40
 10
0.0000
 20
0.0000
  0
INSERT
  8
1
  2
BUY-351994-STF-CL-HL-J-SH-08_40
 10
0.0000
 20
0.0000
  0
INSERT
  8
1
  2
BUY-351994-STF-CL-HL-J-SH-07_40
 10
0.0000
 20
0.0000
  0
INSERT
  8
1
  2
BUY-339302-STF-CL-HL-J-FL-07_40
 10
0.0000
 20
0.0000
  0
ENDSEC
  0
EOF
