  0
SECTION
  2
HEADER
  0
ENDSEC
  0
SECTION
  2
BLOCKS
  0
BLOCK
  8
0
  2
BUY-383396-STF-CL-HL-J-SH-01-R_40
 70
64
 10
0.0000
 20
0.0000
  0
TEXT
  8
1
 10
16.9751
 20
6.0669
 40
0.250
 50
0.0000
  1
Piece Name: BUY-383396-STF-CL-HL-J-SH-01-R
  7
STANDARD
  0
TEXT
  8
1
 10
16.9751
 20
6.2069
 40
0.250
 50
0.0000
  1
Quantity: 1,0
  7
STANDARD
  0
TEXT
  8
1
 10
16.9751
 20
6.3469
 40
0.250
 50
0.0000
  1
ANNOTATION
  7
STANDARD
  0
TEXT
  8
1
 10
16.9751
 20
6.4869
 40
0.250
 50
0.0000
  1
CATEGORY: 1-1
  7
STANDARD
  0
TEXT
  8
1
 10
16.9751
 20
6.6269
 40
0.250
 50
0.0000
  1
SIZE: 40
  7
STANDARD
  0
TEXT
  8
15
 10
28.3427
 20
2.7827
 40
0.197
 50
0.0000
  1
without shoulder pad
  7
STANDARD
  0
POLYLINE
  8
1
 66
1
 70
0
  0
VERTEX
  8
1
 10
12.0414
 20
1.2551
  0
VERTEX
  8
1
 10
11.9035
 20
4.8260
  0
VERTEX
  8
1
 10
11.8928
 20
5.8673
  0
VERTEX
  8
1
 10
11.8928
 20
1.9965
  0
SEQEND
  8
1
  0
POLYLINE
  8
84
 66
1
 70
0
  0
VERTEX
  8
84
 10
12.0414
 20
1.2551
  0
VERTEX
  8
84
 10
11.9035
 20
4.8260
  0
VERTEX
  8
84
 10
11.8928
 20
5.8673
  0
VERTEX
  8
84
 10
11.8928
 20
1.9965
  0
SEQEND
  8
84
  0
POINT
  8
2
 10
12.0414
 20
1.2551
  0
POINT
  8
2
 10
11.9035
 20
4.8260
  0
POINT
  8
2
 10
11.8928
 20
5.8673
  0
POINT
  8
2
 10
11.8928
 20
1.9965
  0
POLYLINE
  8
1
 66
1
 70
0
  0
VERTEX
  8
1
 10
11.8928
 20
1.9965
  0
VERTEX
  8
1
 10
10.1906
 20
1.9048
  0
VERTEX
  8
1
 10
8.0171
 20
1.8083
  0
VERTEX
  8
1
 10
5.9078
 20
1.7560
  0
VERTEX
  8
1
 10
4.1152
 20
1.7172
  0
VERTEX
  8
1
 10
1.6781
 20
1.6690
  0
VERTEX
  8
1
 10
1.6781
 20
1.6690
  0
VERTEX
  8
1
 10
0.1782
 20
1.6394
  0
SEQEND
  8
1
  0
POLYLINE
  8
84
 66
1
 70
0
  0
VERTEX
  8
84
 10
11.8928
 20
1.9965
  0
VERTEX
  8
84
 10
10.1906
 20
1.9048
  0
VERTEX
  8
84
 10
8.0171
 20
1.8083
  0
VERTEX
  8
84
 10
5.9078
 20
1.7560
  0
VERTEX
  8
84
 10
4.1152
 20
1.7172
  0
VERTEX
  8
84
 10
1.6781
 20
1.6690
  0
VERTEX
  8
84
 10
1.6781
 20
1.6690
  0
VERTEX
  8
84
 10
0.1782
 20
1.6394
  0
SEQEND
  8
84
  0
POINT
  8
2
 10
11.8928
 20
1.9965
  0
POINT
  8
3
 10
10.1906
 20
1.9048
  0
POINT
  8
3
 10
8.0171
 20
1.8083
  0
POINT
  8
3
 10
5.9078
 20
1.7560
  0
POINT
  8
3
 10
4.1152
 20
1.7172
  0
POINT
  8
3
 10
1.6781
 20
1.6690
  0
POINT
  8
4
 10
1.6781
 20
1.6690
 30
0.1181
 39
0.1771
 50
91.1345
  0
POINT
  8
2
 10
1.6781
 20
1.6690
  0
POINT
  8
2
 10
0.1782
 20
1.6394
  0
POLYLINE
  8
1
 66
1
 70
0
  0
VERTEX
  8
1
 10
0.1782
 20
1.6394
  0
VERTEX
  8
1
 10
0.0001
 20
7.3357
  0
SEQEND
  8
1
  0
POLYLINE
  8
84
 66
1
 70
0
  0
VERTEX
  8
84
 10
0.1782
 20
1.6394
  0
VERTEX
  8
84
 10
0.0001
 20
7.3357
  0
SEQEND
  8
84
  0
POINT
  8
2
 10
0.1782
 20
1.6394
  0
POINT
  8
2
 10
0.0001
 20
7.3357
  0
POLYLINE
  8
1
 66
1
 70
0
  0
VERTEX
  8
1
 10
0.0001
 20
7.3357
  0
VERTEX
  8
1
 10
0.3030
 20
7.6505
  0
SEQEND
  8
1
  0
POLYLINE
  8
84
 66
1
 70
0
  0
VERTEX
  8
84
 10
0.0001
 20
7.3357
  0
VERTEX
  8
84
 10
0.3030
 20
7.6505
  0
SEQEND
  8
84
  0
POINT
  8
2
 10
0.0001
 20
7.3357
  0
POINT
  8
2
 10
0.3030
 20
7.6505
  0
POLYLINE
  8
1
 66
1
 70
0
  0
VERTEX
  8
1
 10
0.3030
 20
7.6505
  0
VERTEX
  8
1
 10
1.2131
 20
7.6505
  0
SEQEND
  8
1
  0
POLYLINE
  8
84
 66
1
 70
0
  0
VERTEX
  8
84
 10
0.3030
 20
7.6505
  0
VERTEX
  8
84
 10
1.2131
 20
7.6505
  0
SEQEND
  8
84
  0
POINT
  8
2
 10
0.3030
 20
7.6505
  0
POINT
  8
2
 10
1.2131
 20
7.6505
  0
POLYLINE
  8
1
 66
1
 70
0
  0
VERTEX
  8
1
 10
1.2131
 20
7.6505
  0
VERTEX
  8
1
 10
1.2201
 20
8.1152
  0
VERTEX
  8
1
 10
1.2429
 20
8.5352
  0
VERTEX
  8
1
 10
1.2752
 20
8.7962
  0
VERTEX
  8
1
 10
1.3221
 20
9.0290
  0
VERTEX
  8
1
 10
1.3859
 20
9.2566
  0
VERTEX
  8
1
 10
1.4744
 20
9.4714
  0
VERTEX
  8
1
 10
1.5951
 20
9.6765
  0
VERTEX
  8
1
 10
1.7368
 20
9.8745
  0
VERTEX
  8
1
 10
1.8927
 20
10.0634
  0
VERTEX
  8
1
 10
2.0647
 20
10.2439
  0
VERTEX
  8
1
 10
2.2787
 20
10.4300
  0
VERTEX
  8
1
 10
2.5159
 20
10.5981
  0
VERTEX
  8
1
 10
2.7715
 20
10.7467
  0
VERTEX
  8
1
 10
3.0383
 20
10.8800
  0
VERTEX
  8
1
 10
3.3018
 20
10.9998
  0
VERTEX
  8
1
 10
3.6002
 20
11.1146
  0
VERTEX
  8
1
 10
4.1034
 20
11.2683
  0
VERTEX
  8
1
 10
4.6519
 20
11.4194
  0
VERTEX
  8
1
 10
5.2640
 20
11.5511
  0
VERTEX
  8
1
 10
5.9524
 20
11.6750
  0
VERTEX
  8
1
 10
6.7629
 20
11.7887
  0
VERTEX
  8
1
 10
7.7085
 20
11.8969
  0
VERTEX
  8
1
 10
8.7970
 20
11.9887
  0
VERTEX
  8
1
 10
9.9399
 20
12.0640
  0
VERTEX
  8
1
 10
11.1341
 20
12.1030
  0
VERTEX
  8
1
 10
12.3334
 20
12.1324
  0
VERTEX
  8
1
 10
13.5378
 20
12.1337
  0
VERTEX
  8
1
 10
14.1658
 20
12.1337
  0
VERTEX
  8
1
 10
16.1342
 20
12.1337
  0
VERTEX
  8
1
 10
18.1024
 20
12.1039
  0
VERTEX
  8
1
 10
20.1768
 20
12.0296
  0
VERTEX
  8
1
 10
21.5487
 20
11.9312
  0
VERTEX
  8
1
 10
22.9174
 20
11.8075
  0
VERTEX
  8
1
 10
23.1638
 20
11.7813
  0
VERTEX
  8
1
 10
25.7903
 20
11.4934
  0
VERTEX
  8
1
 10
29.1064
 20
11.0475
  0
VERTEX
  8
1
 10
31.4458
 20
10.7201
  0
SEQEND
  8
1
  0
POLYLINE
  8
84
 66
1
 70
0
  0
VERTEX
  8
84
 10
1.2131
 20
7.6505
  0
VERTEX
  8
84
 10
1.2201
 20
8.1152
  0
VERTEX
  8
84
 10
1.2429
 20
8.5352
  0
VERTEX
  8
84
 10
1.2752
 20
8.7962
  0
VERTEX
  8
84
 10
1.3221
 20
9.0290
  0
VERTEX
  8
84
 10
1.3859
 20
9.2566
  0
VERTEX
  8
84
 10
1.4744
 20
9.4714
  0
VERTEX
  8
84
 10
1.5951
 20
9.6765
  0
VERTEX
  8
84
 10
1.7368
 20
9.8745
  0
VERTEX
  8
84
 10
1.8927
 20
10.0634
  0
VERTEX
  8
84
 10
2.0647
 20
10.2439
  0
VERTEX
  8
84
 10
2.2787
 20
10.4300
  0
VERTEX
  8
84
 10
2.5159
 20
10.5981
  0
VERTEX
  8
84
 10
2.7715
 20
10.7467
  0
VERTEX
  8
84
 10
3.0383
 20
10.8800
  0
VERTEX
  8
84
 10
3.3018
 20
10.9998
  0
VERTEX
  8
84
 10
3.6002
 20
11.1146
  0
VERTEX
  8
84
 10
4.1034
 20
11.2683
  0
VERTEX
  8
84
 10
4.6519
 20
11.4194
  0
VERTEX
  8
84
 10
5.2640
 20
11.5511
  0
VERTEX
  8
84
 10
5.9524
 20
11.6750
  0
VERTEX
  8
84
 10
6.7629
 20
11.7887
  0
VERTEX
  8
84
 10
7.7085
 20
11.8969
  0
VERTEX
  8
84
 10
8.7970
 20
11.9887
  0
VERTEX
  8
84
 10
9.9399
 20
12.0640
  0
VERTEX
  8
84
 10
11.1341
 20
12.1030
  0
VERTEX
  8
84
 10
12.3334
 20
12.1324
  0
VERTEX
  8
84
 10
13.5378
 20
12.1337
  0
VERTEX
  8
84
 10
14.1658
 20
12.1337
  0
VERTEX
  8
84
 10
16.1342
 20
12.1337
  0
VERTEX
  8
84
 10
18.1024
 20
12.1039
  0
VERTEX
  8
84
 10
19.1399
 20
12.0739
  0
VERTEX
  8
84
 10
20.1768
 20
12.0296
  0
VERTEX
  8
84
 10
21.5487
 20
11.9312
  0
VERTEX
  8
84
 10
22.9174
 20
11.8075
  0
VERTEX
  8
84
 10
23.1638
 20
11.7813
  0
VERTEX
  8
84
 10
25.7903
 20
11.4934
  0
VERTEX
  8
84
 10
27.4491
 20
11.2765
  0
VERTEX
  8
84
 10
29.1064
 20
11.0475
  0
VERTEX
  8
84
 10
31.4458
 20
10.7201
  0
SEQEND
  8
84
  0
POINT
  8
2
 10
1.2131
 20
7.6505
  0
POINT
  8
3
 10
1.2201
 20
8.1152
  0
POINT
  8
3
 10
1.2429
 20
8.5352
  0
POINT
  8
3
 10
1.2752
 20
8.7962
  0
POINT
  8
3
 10
1.3221
 20
9.0290
  0
POINT
  8
3
 10
1.3859
 20
9.2566
  0
POINT
  8
3
 10
1.4744
 20
9.4714
  0
POINT
  8
3
 10
1.5951
 20
9.6765
  0
POINT
  8
3
 10
1.7368
 20
9.8745
  0
POINT
  8
3
 10
1.8927
 20
10.0634
  0
POINT
  8
3
 10
2.0647
 20
10.2439
  0
POINT
  8
3
 10
2.2787
 20
10.4300
  0
POINT
  8
3
 10
2.5159
 20
10.5981
  0
POINT
  8
3
 10
2.7715
 20
10.7467
  0
POINT
  8
3
 10
3.0383
 20
10.8800
  0
POINT
  8
3
 10
3.3018
 20
10.9998
  0
POINT
  8
3
 10
3.6002
 20
11.1146
  0
POINT
  8
3
 10
4.1034
 20
11.2683
  0
POINT
  8
3
 10
4.6519
 20
11.4194
  0
POINT
  8
3
 10
5.2640
 20
11.5511
  0
POINT
  8
3
 10
5.9524
 20
11.6750
  0
POINT
  8
3
 10
6.7629
 20
11.7887
  0
POINT
  8
3
 10
7.7085
 20
11.8969
  0
POINT
  8
3
 10
8.7970
 20
11.9887
  0
POINT
  8
4
 10
9.9399
 20
12.0640
 30
0.1181
 39
0.1771
  0
POINT
  8
3
 10
9.9399
 20
12.0640
  0
POINT
  8
3
 10
11.1341
 20
12.1030
  0
POINT
  8
3
 10
12.3334
 20
12.1324
  0
POINT
  8
3
 10
13.5378
 20
12.1337
  0
POINT
  8
4
 10
14.1658
 20
12.1337
 30
0.1181
 39
0.1771
  0
POINT
  8
3
 10
14.1658
 20
12.1337
  0
POINT
  8
4
 10
16.1342
 20
12.1337
 30
0.1181
 39
0.1771
  0
POINT
  8
2
 10
16.1342
 20
12.1337
  0
POINT
  8
4
 10
18.1024
 20
12.1039
 30
0.1181
 39
0.1771
  0
POINT
  8
3
 10
18.1024
 20
12.1039
  0
POINT
  8
3
 10
20.1768
 20
12.0296
  0
POINT
  8
3
 10
21.5487
 20
11.9312
  0
POINT
  8
3
 10
22.9174
 20
11.8075
  0
POINT
  8
4
 10
23.1638
 20
11.7813
 30
0.1181
 39
0.1771
  0
POINT
  8
3
 10
23.1638
 20
11.7813
  0
POINT
  8
3
 10
25.7903
 20
11.4934
  0
POINT
  8
4
 10
29.1064
 20
11.0475
 30
0.1181
 39
0.1771
  0
POINT
  8
3
 10
29.1064
 20
11.0475
  0
POINT
  8
2
 10
31.4458
 20
10.7201
  0
POLYLINE
  8
1
 66
1
 70
0
  0
VERTEX
  8
1
 10
31.4458
 20
10.7201
  0
VERTEX
  8
1
 10
31.6773
 20
9.0838
  0
VERTEX
  8
1
 10
31.6773
 20
9.0838
  0
VERTEX
  8
1
 10
32.1714
 20
7.1382
  0
VERTEX
  8
1
 10
32.1714
 20
7.1382
  0
VERTEX
  8
1
 10
32.3680
 20
6.3645
  0
SEQEND
  8
1
  0
POLYLINE
  8
84
 66
1
 70
0
  0
VERTEX
  8
84
 10
31.4458
 20
10.7201
  0
VERTEX
  8
84
 10
31.6773
 20
9.0838
  0
VERTEX
  8
84
 10
31.6773
 20
9.0838
  0
VERTEX
  8
84
 10
32.1714
 20
7.1382
  0
VERTEX
  8
84
 10
32.1714
 20
7.1382
  0
VERTEX
  8
84
 10
32.3680
 20
6.3645
  0
SEQEND
  8
84
  0
POINT
  8
2
 10
31.4458
 20
10.7201
  0
POINT
  8
2
 10
31.6773
 20
9.0838
  0
POINT
  8
4
 10
31.6773
 20
9.0838
 30
0.1181
 39
0.1771
 50
-168.8485
  0
POINT
  8
2
 10
31.6773
 20
9.0838
  0
POINT
  8
3
 10
32.1714
 20
7.1382
  0
POINT
  8
4
 10
32.1714
 20
7.1382
 30
0.1181
 39
0.1771
 50
-165.7470
  0
POINT
  8
2
 10
32.1714
 20
7.1382
  0
POINT
  8
2
 10
32.3680
 20
6.3645
  0
POLYLINE
  8
1
 66
1
 70
0
  0
VERTEX
  8
1
 10
32.3680
 20
6.3645
  0
VERTEX
  8
1
 10
33.7198
 20
6.0602
  0
VERTEX
  8
1
 10
33.9501
 20
5.8806
  0
SEQEND
  8
1
  0
POLYLINE
  8
84
 66
1
 70
0
  0
VERTEX
  8
84
 10
32.3680
 20
6.3645
  0
VERTEX
  8
84
 10
33.7198
 20
6.0602
  0
VERTEX
  8
84
 10
33.9501
 20
5.8806
  0
SEQEND
  8
84
  0
POINT
  8
2
 10
32.3680
 20
6.3645
  0
POINT
  8
2
 10
33.7198
 20
6.0602
  0
POINT
  8
2
 10
33.9501
 20
5.8806
  0
POLYLINE
  8
1
 66
1
 70
0
  0
VERTEX
  8
1
 10
33.9501
 20
5.8806
  0
VERTEX
  8
1
 10
33.5118
 20
4.8557
  0
VERTEX
  8
1
 10
33.5118
 20
4.8557
  0
VERTEX
  8
1
 10
33.1950
 20
4.1445
  0
VERTEX
  8
1
 10
32.8999
 20
3.4745
  0
VERTEX
  8
1
 10
32.5897
 20
2.8056
  0
VERTEX
  8
1
 10
32.2746
 20
2.1631
  0
VERTEX
  8
1
 10
31.9437
 20
1.5312
  0
VERTEX
  8
1
 10
31.6751
 20
1.0462
  0
VERTEX
  8
1
 10
31.6751
 20
1.0462
  0
VERTEX
  8
1
 10
31.3788
 20
0.5554
  0
VERTEX
  8
1
 10
31.1006
 20
0.1182
  0
SEQEND
  8
1
  0
POLYLINE
  8
84
 66
1
 70
0
  0
VERTEX
  8
84
 10
33.9501
 20
5.8806
  0
VERTEX
  8
84
 10
33.5118
 20
4.8557
  0
VERTEX
  8
84
 10
33.5118
 20
4.8557
  0
VERTEX
  8
84
 10
33.1950
 20
4.1445
  0
VERTEX
  8
84
 10
32.8999
 20
3.4745
  0
VERTEX
  8
84
 10
32.5897
 20
2.8056
  0
VERTEX
  8
84
 10
32.2746
 20
2.1631
  0
VERTEX
  8
84
 10
31.9437
 20
1.5312
  0
VERTEX
  8
84
 10
31.6751
 20
1.0462
  0
VERTEX
  8
84
 10
31.6751
 20
1.0462
  0
VERTEX
  8
84
 10
31.3788
 20
0.5554
  0
VERTEX
  8
84
 10
31.1006
 20
0.1182
  0
SEQEND
  8
84
  0
POINT
  8
2
 10
33.9501
 20
5.8806
  0
POINT
  8
2
 10
33.5118
 20
4.8557
  0
POINT
  8
4
 10
33.5118
 20
4.8557
 30
0.1181
 39
0.1771
 50
156.4215
  0
POINT
  8
2
 10
33.5118
 20
4.8557
  0
POINT
  8
3
 10
33.1950
 20
4.1445
  0
POINT
  8
3
 10
32.8999
 20
3.4745
  0
POINT
  8
3
 10
32.5897
 20
2.8056
  0
POINT
  8
3
 10
32.2746
 20
2.1631
  0
POINT
  8
3
 10
31.9437
 20
1.5312
  0
POINT
  8
2
 10
31.6751
 20
1.0462
  0
POINT
  8
4
 10
31.6751
 20
1.0462
 30
0.1181
 39
0.1771
 50
149.9481
  0
POINT
  8
2
 10
31.6751
 20
1.0462
  0
POINT
  8
3
 10
31.3788
 20
0.5554
  0
POINT
  8
2
 10
31.1006
 20
0.1182
  0
POLYLINE
  8
1
 66
1
 70
0
  0
VERTEX
  8
1
 10
31.1006
 20
0.1182
  0
VERTEX
  8
1
 10
30.7329
 20
0.0001
  0
SEQEND
  8
1
  0
POLYLINE
  8
84
 66
1
 70
0
  0
VERTEX
  8
84
 10
31.1006
 20
0.1182
  0
VERTEX
  8
84
 10
30.7329
 20
0.0001
  0
SEQEND
  8
84
  0
POINT
  8
2
 10
31.1006
 20
0.1182
  0
POINT
  8
2
 10
30.7329
 20
0.0001
  0
POLYLINE
  8
1
 66
1
 70
0
  0
VERTEX
  8
1
 10
30.7329
 20
0.0001
  0
VERTEX
  8
1
 10
30.3768
 20
0.2718
  0
VERTEX
  8
1
 10
29.9514
 20
0.5688
  0
VERTEX
  8
1
 10
29.4118
 20
0.9072
  0
VERTEX
  8
1
 10
28.7727
 20
1.2673
  0
VERTEX
  8
1
 10
28.1206
 20
1.5999
  0
VERTEX
  8
1
 10
27.6280
 20
1.8333
  0
VERTEX
  8
1
 10
27.1091
 20
2.0623
  0
VERTEX
  8
1
 10
26.6960
 20
2.1986
  0
VERTEX
  8
1
 10
26.2716
 20
2.3231
  0
VERTEX
  8
1
 10
25.8554
 20
2.4311
  0
VERTEX
  8
1
 10
25.4371
 20
2.5164
  0
VERTEX
  8
1
 10
24.9764
 20
2.5785
  0
VERTEX
  8
1
 10
24.6587
 20
2.5999
  0
VERTEX
  8
1
 10
24.5301
 20
2.6086
  0
VERTEX
  8
1
 10
24.2271
 20
2.6069
  0
VERTEX
  8
1
 10
23.9552
 20
2.5867
  0
VERTEX
  8
1
 10
23.7295
 20
2.5515
  0
VERTEX
  8
1
 10
23.7295
 20
2.5515
  0
VERTEX
  8
1
 10
23.5547
 20
2.4973
  0
VERTEX
  8
1
 10
23.3787
 20
2.4230
  0
VERTEX
  8
1
 10
23.1859
 20
2.3099
  0
VERTEX
  8
1
 10
23.0025
 20
2.1723
  0
VERTEX
  8
1
 10
22.8537
 20
2.0330
  0
VERTEX
  8
1
 10
22.7140
 20
1.8684
  0
VERTEX
  8
1
 10
22.6161
 20
1.7253
  0
VERTEX
  8
1
 10
22.6161
 20
1.7253
  0
VERTEX
  8
1
 10
22.5571
 20
1.6124
  0
VERTEX
  8
1
 10
22.4842
 20
1.4477
  0
VERTEX
  8
1
 10
22.3028
 20
0.9315
  0
SEQEND
  8
1
  0
POLYLINE
  8
84
 66
1
 70
0
  0
VERTEX
  8
84
 10
30.7329
 20
0.0001
  0
VERTEX
  8
84
 10
30.3768
 20
0.2718
  0
VERTEX
  8
84
 10
29.9514
 20
0.5688
  0
VERTEX
  8
84
 10
29.4118
 20
0.9072
  0
VERTEX
  8
84
 10
28.7727
 20
1.2673
  0
VERTEX
  8
84
 10
28.1206
 20
1.5999
  0
VERTEX
  8
84
 10
27.6280
 20
1.8333
  0
VERTEX
  8
84
 10
27.1091
 20
2.0623
  0
VERTEX
  8
84
 10
26.6960
 20
2.1986
  0
VERTEX
  8
84
 10
26.2716
 20
2.3231
  0
VERTEX
  8
84
 10
25.8554
 20
2.4311
  0
VERTEX
  8
84
 10
25.4371
 20
2.5164
  0
VERTEX
  8
84
 10
24.9764
 20
2.5785
  0
VERTEX
  8
84
 10
24.6587
 20
2.5999
  0
VERTEX
  8
84
 10
24.5301
 20
2.6086
  0
VERTEX
  8
84
 10
24.2271
 20
2.6069
  0
VERTEX
  8
84
 10
23.9552
 20
2.5867
  0
VERTEX
  8
84
 10
23.7295
 20
2.5515
  0
VERTEX
  8
84
 10
23.7295
 20
2.5515
  0
VERTEX
  8
84
 10
23.5547
 20
2.4973
  0
VERTEX
  8
84
 10
23.3787
 20
2.4230
  0
VERTEX
  8
84
 10
23.1859
 20
2.3099
  0
VERTEX
  8
84
 10
23.0025
 20
2.1723
  0
VERTEX
  8
84
 10
22.8537
 20
2.0330
  0
VERTEX
  8
84
 10
22.7140
 20
1.8684
  0
VERTEX
  8
84
 10
22.6161
 20
1.7253
  0
VERTEX
  8
84
 10
22.6161
 20
1.7253
  0
VERTEX
  8
84
 10
22.5571
 20
1.6124
  0
VERTEX
  8
84
 10
22.4842
 20
1.4477
  0
VERTEX
  8
84
 10
22.3028
 20
0.9315
  0
SEQEND
  8
84
  0
POINT
  8
2
 10
30.7329
 20
0.0001
  0
POINT
  8
3
 10
30.3768
 20
0.2718
  0
POINT
  8
3
 10
29.9514
 20
0.5688
  0
POINT
  8
3
 10
29.4118
 20
0.9072
  0
POINT
  8
3
 10
28.7727
 20
1.2673
  0
POINT
  8
3
 10
28.1206
 20
1.5999
  0
POINT
  8
3
 10
27.6280
 20
1.8333
  0
POINT
  8
4
 10
27.1091
 20
2.0623
 30
0.1181
 39
0.1771
  0
POINT
  8
2
 10
27.1091
 20
2.0623
  0
POINT
  8
3
 10
26.6960
 20
2.1986
  0
POINT
  8
3
 10
26.2716
 20
2.3231
  0
POINT
  8
3
 10
25.8554
 20
2.4311
  0
POINT
  8
3
 10
25.4371
 20
2.5164
  0
POINT
  8
3
 10
24.9764
 20
2.5785
  0
POINT
  8
4
 10
24.6587
 20
2.5999
 30
0.1181
 39
0.1771
  0
POINT
  8
3
 10
24.6587
 20
2.5999
  0
POINT
  8
3
 10
24.5301
 20
2.6086
  0
POINT
  8
3
 10
24.2271
 20
2.6069
  0
POINT
  8
3
 10
23.9552
 20
2.5867
  0
POINT
  8
3
 10
23.7295
 20
2.5515
  0
POINT
  8
4
 10
23.7295
 20
2.5515
 30
0.1181
 39
0.1771
 50
103.0440
  0
POINT
  8
2
 10
23.7295
 20
2.5515
  0
POINT
  8
3
 10
23.5547
 20
2.4973
  0
POINT
  8
3
 10
23.3787
 20
2.4230
  0
POINT
  8
3
 10
23.1859
 20
2.3099
  0
POINT
  8
3
 10
23.0025
 20
2.1723
  0
POINT
  8
3
 10
22.8537
 20
2.0330
  0
POINT
  8
4
 10
22.7140
 20
1.8684
 30
0.1181
 39
0.1771
  0
POINT
  8
3
 10
22.7140
 20
1.8684
  0
POINT
  8
2
 10
22.6161
 20
1.7253
  0
POINT
  8
2
 10
22.6161
 20
1.7253
  0
POINT
  8
3
 10
22.5571
 20
1.6124
  0
POINT
  8
3
 10
22.4842
 20
1.4477
  0
POINT
  8
2
 10
22.3028
 20
0.9315
  0
POLYLINE
  8
1
 66
1
 70
0
  0
VERTEX
  8
1
 10
22.3028
 20
0.9315
  0
VERTEX
  8
1
 10
20.9111
 20
1.1248
  0
VERTEX
  8
1
 10
19.5923
 20
1.3020
  0
VERTEX
  8
1
 10
18.6167
 20
1.4068
  0
VERTEX
  8
1
 10
17.7865
 20
1.4793
  0
VERTEX
  8
1
 10
17.0243
 20
1.5212
  0
VERTEX
  8
1
 10
16.2865
 20
1.5371
  0
VERTEX
  8
1
 10
15.6679
 20
1.5205
  0
VERTEX
  8
1
 10
15.0521
 20
1.4797
  0
VERTEX
  8
1
 10
14.4088
 20
1.4459
  0
VERTEX
  8
1
 10
13.7236
 20
1.3949
  0
VERTEX
  8
1
 10
12.9680
 20
1.3256
  0
VERTEX
  8
1
 10
12.0414
 20
1.2551
  0
SEQEND
  8
1
  0
POLYLINE
  8
84
 66
1
 70
0
  0
VERTEX
  8
84
 10
22.3028
 20
0.9315
  0
VERTEX
  8
84
 10
20.9111
 20
1.1248
  0
VERTEX
  8
84
 10
19.5923
 20
1.3020
  0
VERTEX
  8
84
 10
18.6167
 20
1.4068
  0
VERTEX
  8
84
 10
17.7865
 20
1.4793
  0
VERTEX
  8
84
 10
17.0243
 20
1.5212
  0
VERTEX
  8
84
 10
16.2865
 20
1.5371
  0
VERTEX
  8
84
 10
15.6679
 20
1.5205
  0
VERTEX
  8
84
 10
15.0521
 20
1.4797
  0
VERTEX
  8
84
 10
14.4088
 20
1.4459
  0
VERTEX
  8
84
 10
13.7236
 20
1.3949
  0
VERTEX
  8
84
 10
12.9680
 20
1.3256
  0
VERTEX
  8
84
 10
12.0414
 20
1.2551
  0
SEQEND
  8
84
  0
POINT
  8
2
 10
22.3028
 20
0.9315
  0
POINT
  8
3
 10
20.9111
 20
1.1248
  0
POINT
  8
3
 10
19.5923
 20
1.3020
  0
POINT
  8
3
 10
18.6167
 20
1.4068
  0
POINT
  8
4
 10
17.7865
 20
1.4793
 30
0.1181
 39
0.1771
  0
POINT
  8
2
 10
17.7865
 20
1.4793
  0
POINT
  8
3
 10
17.0243
 20
1.5212
  0
POINT
  8
3
 10
16.2865
 20
1.5371
  0
POINT
  8
3
 10
15.6679
 20
1.5205
  0
POINT
  8
3
 10
15.0521
 20
1.4797
  0
POINT
  8
3
 10
14.4088
 20
1.4459
  0
POINT
  8
3
 10
13.7236
 20
1.3949
  0
POINT
  8
3
 10
12.9680
 20
1.3256
  0
POINT
  8
2
 10
12.0414
 20
1.2551
  0
LINE
  8
7
 10
13.9099
 20
6.9873
 11
20.1014
 21
6.9873
  0
LINE
  8
5
 10
13.9099
 20
6.9873
 11
20.1014
 21
6.9873
  0
POINT
  8
2
 10
13.9099
 20
6.9873
  0
POINT
  8
2
 10
20.1014
 20
6.9873
  0
LINE
  8
8
 10
2.2025
 20
11.2347
 11
20.8801
 21
11.2347
  0
POLYLINE
  8
85
 66
1
 70
0
  0
VERTEX
  8
85
 10
2.2025
 20
11.2347
  0
VERTEX
  8
85
 10
20.8801
 20
11.2347
  0
SEQEND
  8
85
  0
TEXT
  8
8
 10
2.2025
 20
11.2347
 40
0.250
 50
0.0000
  1
NM
  7
STANDARD
  0
TEXT
  8
85
 10
2.2025
 20
11.2347
 40
0.250
 50
0.0000
  1
NM
  7
STANDARD
  0
POINT
  8
2
 10
2.2025
 20
11.2347
  0
POINT
  8
2
 10
20.8801
 20
11.2347
  0
POLYLINE
  8
8
 66
1
 70
0
  0
VERTEX
  8
8
 10
11.8799
 20
5.8279
  0
VERTEX
  8
8
 10
15.5328
 20
5.8279
  0
VERTEX
  8
8
 10
20.9012
 20
5.4529
  0
SEQEND
  8
8
  0
POLYLINE
  8
85
 66
1
 70
0
  0
VERTEX
  8
85
 10
11.8799
 20
5.8279
  0
VERTEX
  8
85
 10
15.5328
 20
5.8279
  0
VERTEX
  8
85
 10
20.9012
 20
5.4529
  0
SEQEND
  8
85
  0
TEXT
  8
8
 10
11.8799
 20
5.8279
 40
0.250
 50
0.0000
  1
NM
  7
STANDARD
  0
TEXT
  8
85
 10
11.8799
 20
5.8279
 40
0.250
 50
0.0000
  1
NM
  7
STANDARD
  0
POINT
  8
2
 10
11.8799
 20
5.8279
  0
POINT
  8
2
 10
15.5328
 20
5.8279
  0
POINT
  8
2
 10
20.9012
 20
5.4529
  0
POLYLINE
  8
8
 66
1
 70
0
  0
VERTEX
  8
8
 10
11.8799
 20
5.0779
  0
VERTEX
  8
8
 10
15.5348
 20
5.0779
  0
VERTEX
  8
8
 10
20.9012
 20
5.4529
  0
SEQEND
  8
8
  0
POLYLINE
  8
85
 66
1
 70
0
  0
VERTEX
  8
85
 10
11.8799
 20
5.0779
  0
VERTEX
  8
85
 10
15.5348
 20
5.0779
  0
VERTEX
  8
85
 10
20.9012
 20
5.4529
  0
SEQEND
  8
85
  0
TEXT
  8
8
 10
11.8799
 20
5.0779
 40
0.250
 50
0.0000
  1
NM
  7
STANDARD
  0
TEXT
  8
85
 10
11.8799
 20
5.0779
 40
0.250
 50
0.0000
  1
NM
  7
STANDARD
  0
POINT
  8
2
 10
11.8799
 20
5.0779
  0
POINT
  8
2
 10
15.5348
 20
5.0779
  0
POINT
  8
2
 10
20.9012
 20
5.4529
  0
LINE
  8
8
 10
20.8801
 20
1.5229
 11
20.8801
 21
11.2347
  0
POLYLINE
  8
85
 66
1
 70
0
  0
VERTEX
  8
85
 10
20.8801
 20
1.5229
  0
VERTEX
  8
85
 10
20.8801
 20
11.2347
  0
SEQEND
  8
85
  0
TEXT
  8
8
 10
20.8801
 20
1.5229
 40
0.250
 50
0.0000
  1
NM
  7
STANDARD
  0
TEXT
  8
85
 10
20.8801
 20
1.5229
 40
0.250
 50
0.0000
  1
NM
  7
STANDARD
  0
POINT
  8
2
 10
20.8801
 20
1.5229
  0
POINT
  8
2
 10
20.8801
 20
11.2347
  0
LINE
  8
8
 10
15.6352
 20
11.2347
 11
15.6352
 21
10.6097
  0
POLYLINE
  8
85
 66
1
 70
0
  0
VERTEX
  8
85
 10
15.6352
 20
11.2347
  0
VERTEX
  8
85
 10
15.6352
 20
10.6097
  0
SEQEND
  8
85
  0
TEXT
  8
8
 10
15.6352
 20
11.2347
 40
0.250
 50
0.0000
  1
NM
  7
STANDARD
  0
TEXT
  8
85
 10
15.6352
 20
11.2347
 40
0.250
 50
0.0000
  1
NM
  7
STANDARD
  0
POINT
  8
2
 10
15.6352
 20
11.2347
  0
POINT
  8
2
 10
15.6352
 20
10.6097
  0
LINE
  8
8
 10
11.1352
 20
11.2347
 11
11.1352
 21
10.6097
  0
POLYLINE
  8
85
 66
1
 70
0
  0
VERTEX
  8
85
 10
11.1352
 20
11.2347
  0
VERTEX
  8
85
 10
11.1352
 20
10.6097
  0
SEQEND
  8
85
  0
TEXT
  8
8
 10
11.1352
 20
11.2347
 40
0.250
 50
0.0000
  1
NM
  7
STANDARD
  0
TEXT
  8
85
 10
11.1352
 20
11.2347
 40
0.250
 50
0.0000
  1
NM
  7
STANDARD
  0
POINT
  8
2
 10
11.1352
 20
11.2347
  0
POINT
  8
2
 10
11.1352
 20
10.6097
  0
LINE
  8
8
 10
15.2602
 20
11.8579
 11
15.2602
 21
5.8279
  0
POLYLINE
  8
85
 66
1
 70
0
  0
VERTEX
  8
85
 10
15.2602
 20
11.8579
  0
VERTEX
  8
85
 10
15.2602
 20
5.8279
  0
SEQEND
  8
85
  0
TEXT
  8
8
 10
15.2602
 20
11.8579
 40
0.250
 50
0.0000
  1
NM
  7
STANDARD
  0
TEXT
  8
85
 10
15.2602
 20
11.8579
 40
0.250
 50
0.0000
  1
NM
  7
STANDARD
  0
POINT
  8
2
 10
15.2602
 20
11.8579
  0
POINT
  8
2
 10
15.2602
 20
5.8279
  0
LINE
  8
8
 10
15.2602
 20
5.0779
 11
15.2602
 21
1.8885
  0
POLYLINE
  8
85
 66
1
 70
0
  0
VERTEX
  8
85
 10
15.2602
 20
5.0779
  0
VERTEX
  8
85
 10
15.2602
 20
1.8885
  0
SEQEND
  8
85
  0
TEXT
  8
8
 10
15.2602
 20
5.0779
 40
0.250
 50
0.0000
  1
NM
  7
STANDARD
  0
TEXT
  8
85
 10
15.2602
 20
5.0779
 40
0.250
 50
0.0000
  1
NM
  7
STANDARD
  0
POINT
  8
2
 10
15.2602
 20
5.0779
  0
POINT
  8
2
 10
15.2602
 20
1.8885
  0
LINE
  8
8
 10
16.1328
 20
11.8578
 11
33.8988
 21
6.6300
  0
POLYLINE
  8
85
 66
1
 70
0
  0
VERTEX
  8
85
 10
16.1328
 20
11.8578
  0
VERTEX
  8
85
 10
33.8988
 20
6.6300
  0
SEQEND
  8
85
  0
TEXT
  8
8
 10
16.1328
 20
11.8578
 40
0.250
 50
0.0000
  1
NM
  7
STANDARD
  0
TEXT
  8
85
 10
16.1328
 20
11.8578
 40
0.250
 50
0.0000
  1
NM
  7
STANDARD
  0
POINT
  8
2
 10
16.1328
 20
11.8578
  0
POINT
  8
2
 10
33.8988
 20
6.6300
  0
LINE
  8
8
 10
24.7327
 20
8.6813
 11
23.5916
 21
8.6813
  0
POLYLINE
  8
85
 66
1
 70
0
  0
VERTEX
  8
85
 10
24.7327
 20
8.6813
  0
VERTEX
  8
85
 10
23.5916
 20
8.6813
  0
SEQEND
  8
85
  0
TEXT
  8
8
 10
24.7327
 20
8.6813
 40
0.250
 50
0.0000
  1
NM
  7
STANDARD
  0
TEXT
  8
85
 10
24.7327
 20
8.6813
 40
0.250
 50
0.0000
  1
NM
  7
STANDARD
  0
POINT
  8
2
 10
24.7327
 20
8.6813
  0
POINT
  8
2
 10
23.5916
 20
8.6813
  0
LINE
  8
8
 10
23.5916
 20
8.6813
 11
24.3414
 21
4.2445
  0
POLYLINE
  8
85
 66
1
 70
0
  0
VERTEX
  8
85
 10
23.5916
 20
8.6813
  0
VERTEX
  8
85
 10
24.3414
 20
4.2445
  0
SEQEND
  8
85
  0
TEXT
  8
8
 10
23.5916
 20
8.6813
 40
0.250
 50
0.0000
  1
NM
  7
STANDARD
  0
TEXT
  8
85
 10
23.5916
 20
8.6813
 40
0.250
 50
0.0000
  1
NM
  7
STANDARD
  0
POINT
  8
2
 10
23.5916
 20
8.6813
  0
POINT
  8
2
 10
24.3414
 20
4.2445
  0
LINE
  8
8
 10
24.3414
 20
4.2445
 11
25.4938
 21
4.1769
  0
POLYLINE
  8
85
 66
1
 70
0
  0
VERTEX
  8
85
 10
24.3414
 20
4.2445
  0
VERTEX
  8
85
 10
25.4938
 20
4.1769
  0
SEQEND
  8
85
  0
TEXT
  8
8
 10
24.3414
 20
4.2445
 40
0.250
 50
0.0000
  1
NM
  7
STANDARD
  0
TEXT
  8
85
 10
24.3414
 20
4.2445
 40
0.250
 50
0.0000
  1
NM
  7
STANDARD
  0
POINT
  8
2
 10
24.3414
 20
4.2445
  0
POINT
  8
2
 10
25.4938
 20
4.1769
  0
LINE
  8
8
 10
2.2025
 20
2.0734
 11
2.2025
 21
11.2347
  0
POLYLINE
  8
85
 66
1
 70
0
  0
VERTEX
  8
85
 10
2.2025
 20
2.0734
  0
VERTEX
  8
85
 10
2.2025
 20
11.2347
  0
SEQEND
  8
85
  0
TEXT
  8
8
 10
2.2025
 20
2.0734
 40
0.250
 50
0.0000
  1
NM
  7
STANDARD
  0
TEXT
  8
85
 10
2.2025
 20
2.0734
 40
0.250
 50
0.0000
  1
NM
  7
STANDARD
  0
POINT
  8
2
 10
2.2025
 20
2.0734
  0
POINT
  8
2
 10
2.2025
 20
11.2347
  0
LINE
  8
8
 10
12.0679
 20
5.9779
 11
1.5530
 21
5.9779
  0
POLYLINE
  8
85
 66
1
 70
0
  0
VERTEX
  8
85
 10
12.0679
 20
5.9779
  0
VERTEX
  8
85
 10
1.5530
 20
5.9779
  0
SEQEND
  8
85
  0
TEXT
  8
8
 10
12.0679
 20
5.9779
 40
0.250
 50
0.0000
  1
NM
  7
STANDARD
  0
TEXT
  8
85
 10
12.0679
 20
5.9779
 40
0.250
 50
0.0000
  1
NM
  7
STANDARD
  0
POINT
  8
2
 10
12.0679
 20
5.9779
  0
POINT
  8
2
 10
1.5530
 20
5.9779
  0
LINE
  8
8
 10
23.5916
 20
8.6813
 11
23.5916
 21
4.2445
  0
POLYLINE
  8
85
 66
1
 70
0
  0
VERTEX
  8
85
 10
23.5916
 20
8.6813
  0
VERTEX
  8
85
 10
23.5916
 20
4.2445
  0
SEQEND
  8
85
  0
TEXT
  8
8
 10
23.5916
 20
8.6813
 40
0.250
 50
0.0000
  1
NM
  7
STANDARD
  0
TEXT
  8
85
 10
23.5916
 20
8.6813
 40
0.250
 50
0.0000
  1
NM
  7
STANDARD
  0
POINT
  8
2
 10
23.5916
 20
8.6813
  0
POINT
  8
2
 10
23.5916
 20
4.2445
  0
LINE
  8
8
 10
24.3414
 20
4.2445
 11
23.5916
 21
4.2445
  0
POLYLINE
  8
85
 66
1
 70
0
  0
VERTEX
  8
85
 10
24.3414
 20
4.2445
  0
VERTEX
  8
85
 10
23.5916
 20
4.2445
  0
SEQEND
  8
85
  0
TEXT
  8
8
 10
24.3414
 20
4.2445
 40
0.250
 50
0.0000
  1
NM
  7
STANDARD
  0
TEXT
  8
85
 10
24.3414
 20
4.2445
 40
0.250
 50
0.0000
  1
NM
  7
STANDARD
  0
POINT
  8
2
 10
24.3414
 20
4.2445
  0
POINT
  8
2
 10
23.5916
 20
4.2445
  0
LINE
  8
8
 10
25.4933
 20
4.1769
 11
25.4933
 21
2.8988
  0
POLYLINE
  8
85
 66
1
 70
0
  0
VERTEX
  8
85
 10
25.4933
 20
4.1769
  0
VERTEX
  8
85
 10
25.4933
 20
2.8988
  0
SEQEND
  8
85
  0
TEXT
  8
8
 10
25.4933
 20
4.1769
 40
0.250
 50
0.0000
  1
NM
  7
STANDARD
  0
TEXT
  8
85
 10
25.4933
 20
4.1769
 40
0.250
 50
0.0000
  1
NM
  7
STANDARD
  0
POINT
  8
2
 10
25.4933
 20
4.1769
  0
POINT
  8
2
 10
25.4933
 20
2.8988
  0
LINE
  8
8
 10
33.5422
 20
5.6963
 11
24.7327
 21
8.6813
  0
POLYLINE
  8
85
 66
1
 70
0
  0
VERTEX
  8
85
 10
33.5422
 20
5.6963
  0
VERTEX
  8
85
 10
24.7327
 20
8.6813
  0
SEQEND
  8
85
  0
TEXT
  8
8
 10
33.5422
 20
5.6963
 40
0.250
 50
0.0000
  1
NM
  7
STANDARD
  0
TEXT
  8
85
 10
33.5422
 20
5.6963
 40
0.250
 50
0.0000
  1
NM
  7
STANDARD
  0
POINT
  8
2
 10
33.5422
 20
5.6963
  0
POINT
  8
2
 10
24.7327
 20
8.6813
  0
LINE
  8
8
 10
24.7327
 20
8.6813
 11
25.4938
 21
4.1769
  0
POLYLINE
  8
85
 66
1
 70
0
  0
VERTEX
  8
85
 10
24.7327
 20
8.6813
  0
VERTEX
  8
85
 10
25.4938
 20
4.1769
  0
SEQEND
  8
85
  0
TEXT
  8
8
 10
24.7327
 20
8.6813
 40
0.250
 50
0.0000
  1
NM
  7
STANDARD
  0
TEXT
  8
85
 10
24.7327
 20
8.6813
 40
0.250
 50
0.0000
  1
NM
  7
STANDARD
  0
POINT
  8
2
 10
24.7327
 20
8.6813
  0
POINT
  8
2
 10
25.4938
 20
4.1769
  0
LINE
  8
8
 10
30.1935
 20
7.7203
 11
31.0132
 21
10.5058
  0
POLYLINE
  8
85
 66
1
 70
0
  0
VERTEX
  8
85
 10
30.1935
 20
7.7203
  0
VERTEX
  8
85
 10
31.0132
 20
10.5058
  0
SEQEND
  8
85
  0
TEXT
  8
8
 10
30.1935
 20
7.7203
 40
0.250
 50
0.0000
  1
NM
  7
STANDARD
  0
TEXT
  8
85
 10
30.1935
 20
7.7203
 40
0.250
 50
0.0000
  1
NM
  7
STANDARD
  0
POINT
  8
2
 10
30.1935
 20
7.7203
  0
POINT
  8
2
 10
31.0132
 20
10.5058
  0
LINE
  8
8
 10
29.7544
 20
10.0471
 11
29.8638
 21
9.2745
  0
POLYLINE
  8
85
 66
1
 70
0
  0
VERTEX
  8
85
 10
29.7544
 20
10.0471
  0
VERTEX
  8
85
 10
29.8638
 20
9.2745
  0
SEQEND
  8
85
  0
TEXT
  8
8
 10
29.7544
 20
10.0471
 40
0.250
 50
0.0000
  1
NM
  7
STANDARD
  0
TEXT
  8
85
 10
29.7544
 20
10.0471
 40
0.250
 50
0.0000
  1
NM
  7
STANDARD
  0
POINT
  8
2
 10
29.7544
 20
10.0471
  0
POINT
  8
2
 10
29.8638
 20
9.2745
  0
LINE
  8
8
 10
21.9985
 20
1.3665
 11
21.9985
 21
5.6963
  0
POLYLINE
  8
85
 66
1
 70
0
  0
VERTEX
  8
85
 10
21.9985
 20
1.3665
  0
VERTEX
  8
85
 10
21.9985
 20
5.6963
  0
SEQEND
  8
85
  0
TEXT
  8
8
 10
21.9985
 20
1.3665
 40
0.250
 50
0.0000
  1
NM
  7
STANDARD
  0
TEXT
  8
85
 10
21.9985
 20
1.3665
 40
0.250
 50
0.0000
  1
NM
  7
STANDARD
  0
POINT
  8
2
 10
21.9985
 20
1.3665
  0
POINT
  8
2
 10
21.9985
 20
5.6963
  0
LINE
  8
8
 10
33.5422
 20
5.6963
 11
21.9985
 21
5.6963
  0
POLYLINE
  8
85
 66
1
 70
0
  0
VERTEX
  8
85
 10
33.5422
 20
5.6963
  0
VERTEX
  8
85
 10
21.9985
 20
5.6963
  0
SEQEND
  8
85
  0
TEXT
  8
8
 10
33.5422
 20
5.6963
 40
0.250
 50
0.0000
  1
NM
  7
STANDARD
  0
TEXT
  8
85
 10
33.5422
 20
5.6963
 40
0.250
 50
0.0000
  1
NM
  7
STANDARD
  0
POINT
  8
2
 10
33.5422
 20
5.6963
  0
POINT
  8
2
 10
21.9985
 20
5.6963
  0
LINE
  8
10
 10
1.6782
 20
1.8317
 11
1.6782
 21
1.9330
  0
TEXT
  8
10
 10
1.6782
 20
1.8317
 40
0.250
 50
0.0000
  1
2
  7
STANDARD
  0
POINT
  8
2
 10
1.6782
 20
1.8317
  0
POINT
  8
2
 10
1.6782
 20
1.9330
  0
LINE
  8
10
 10
23.9276
 20
2.6272
 11
23.9276
 21
3.6019
  0
TEXT
  8
10
 10
23.9276
 20
2.6272
 40
0.250
 50
0.0000
  1
5
  7
STANDARD
  0
POINT
  8
2
 10
23.9276
 20
2.6272
  0
POINT
  8
2
 10
23.9276
 20
3.6019
  0
POLYLINE
  8
8
 66
1
 70
0
  0
VERTEX
  8
8
 10
11.8928
 20
5.4529
  0
VERTEX
  8
8
 10
15.4171
 20
5.4529
  0
VERTEX
  8
8
 10
15.5421
 20
5.5779
  0
VERTEX
  8
8
 10
15.6671
 20
5.4529
  0
VERTEX
  8
8
 10
19.4052
 20
5.4529
  0
SEQEND
  8
8
  0
POLYLINE
  8
85
 66
1
 70
0
  0
VERTEX
  8
85
 10
11.8928
 20
5.4529
  0
VERTEX
  8
85
 10
15.4171
 20
5.4529
  0
VERTEX
  8
85
 10
15.5421
 20
5.5779
  0
VERTEX
  8
85
 10
15.6671
 20
5.4529
  0
VERTEX
  8
85
 10
19.4052
 20
5.4529
  0
SEQEND
  8
85
  0
TEXT
  8
8
 10
11.8928
 20
5.4529
 40
0.250
 50
0.0000
  1
NM
  7
STANDARD
  0
TEXT
  8
85
 10
11.8928
 20
5.4529
 40
0.250
 50
0.0000
  1
NM
  7
STANDARD
  0
POINT
  8
2
 10
11.8928
 20
5.4529
  0
POINT
  8
2
 10
15.4171
 20
5.4529
  0
POINT
  8
2
 10
15.5421
 20
5.5779
  0
POINT
  8
2
 10
15.6671
 20
5.4529
  0
POINT
  8
2
 10
19.4052
 20
5.4529
  0
ENDBLK
  0
BLOCK
  8
0
  2
BUY-383396-STF-CL-HL-J-SH-02SV_40
 70
64
 10
0.0000
 20
0.0000
  0
TEXT
  8
1
 10
18.8476
 20
29.7491
 40
0.250
 50
0.0000
  1
Piece Name: BUY-383396-STF-CL-HL-J-SH-02SV
  7
STANDARD
  0
TEXT
  8
1
 10
18.8476
 20
29.8891
 40
0.250
 50
0.0000
  1
Quantity: 1,0
  7
STANDARD
  0
TEXT
  8
1
 10
18.8476
 20
30.0291
 40
0.250
 50
0.0000
  1
ANNOTATION
  7
STANDARD
  0
TEXT
  8
1
 10
18.8476
 20
30.1691
 40
0.250
 50
0.0000
  1
CATEGORY: 2
  7
STANDARD
  0
TEXT
  8
1
 10
18.8476
 20
30.3091
 40
0.250
 50
0.0000
  1
SIZE: 40
  7
STANDARD
  0
POLYLINE
  8
1
 66
1
 70
0
  0
VERTEX
  8
1
 10
31.2792
 20
27.8465
  0
VERTEX
  8
1
 10
30.3383
 20
27.8679
  0
VERTEX
  8
1
 10
29.4059
 20
27.8891
  0
VERTEX
  8
1
 10
27.9708
 20
27.9204
  0
VERTEX
  8
1
 10
26.7093
 20
27.9806
  0
VERTEX
  8
1
 10
26.7093
 20
27.9806
  0
VERTEX
  8
1
 10
25.4575
 20
28.0639
  0
VERTEX
  8
1
 10
24.0370
 20
28.1585
  0
VERTEX
  8
1
 10
22.8312
 20
28.2304
  0
VERTEX
  8
1
 10
21.4441
 20
28.2692
  0
VERTEX
  8
1
 10
21.4441
 20
28.2692
  0
VERTEX
  8
1
 10
20.9705
 20
28.2627
  0
VERTEX
  8
1
 10
20.4535
 20
28.2443
  0
VERTEX
  8
1
 10
19.9826
 20
28.1868
  0
VERTEX
  8
1
 10
19.5091
 20
28.0285
  0
VERTEX
  8
1
 10
19.1878
 20
27.8518
  0
VERTEX
  8
1
 10
18.6721
 20
27.5092
  0
VERTEX
  8
1
 10
18.2679
 20
27.1788
  0
VERTEX
  8
1
 10
17.8716
 20
26.8727
  0
VERTEX
  8
1
 10
17.4738
 20
26.5994
  0
VERTEX
  8
1
 10
17.0064
 20
26.4133
  0
VERTEX
  8
1
 10
16.4074
 20
26.3340
  0
VERTEX
  8
1
 10
15.7188
 20
26.2741
  0
VERTEX
  8
1
 10
13.9225
 20
26.1178
  0
VERTEX
  8
1
 10
12.1736
 20
25.9658
  0
VERTEX
  8
1
 10
10.6164
 20
25.8303
  0
VERTEX
  8
1
 10
9.1658
 20
25.7141
  0
VERTEX
  8
1
 10
8.4551
 20
25.6654
  0
VERTEX
  8
1
 10
8.2938
 20
25.6560
  0
VERTEX
  8
1
 10
6.7321
 20
25.5978
  0
SEQEND
  8
1
  0
POLYLINE
  8
84
 66
1
 70
0
  0
VERTEX
  8
84
 10
31.2792
 20
27.8465
  0
VERTEX
  8
84
 10
30.3383
 20
27.8679
  0
VERTEX
  8
84
 10
29.4059
 20
27.8891
  0
VERTEX
  8
84
 10
27.9708
 20
27.9204
  0
VERTEX
  8
84
 10
26.7093
 20
27.9806
  0
VERTEX
  8
84
 10
26.7093
 20
27.9806
  0
VERTEX
  8
84
 10
25.4575
 20
28.0639
  0
VERTEX
  8
84
 10
24.0370
 20
28.1585
  0
VERTEX
  8
84
 10
22.8312
 20
28.2304
  0
VERTEX
  8
84
 10
21.4441
 20
28.2692
  0
VERTEX
  8
84
 10
21.4441
 20
28.2692
  0
VERTEX
  8
84
 10
20.9705
 20
28.2627
  0
VERTEX
  8
84
 10
20.4535
 20
28.2443
  0
VERTEX
  8
84
 10
20.2168
 20
28.2237
  0
VERTEX
  8
84
 10
19.9826
 20
28.1868
  0
VERTEX
  8
84
 10
19.7422
 20
28.1187
  0
VERTEX
  8
84
 10
19.5091
 20
28.0285
  0
VERTEX
  8
84
 10
19.1878
 20
27.8518
  0
VERTEX
  8
84
 10
18.9261
 20
27.6862
  0
VERTEX
  8
84
 10
18.6721
 20
27.5092
  0
VERTEX
  8
84
 10
18.2679
 20
27.1788
  0
VERTEX
  8
84
 10
17.8716
 20
26.8727
  0
VERTEX
  8
84
 10
17.6770
 20
26.7290
  0
VERTEX
  8
84
 10
17.4738
 20
26.5994
  0
VERTEX
  8
84
 10
17.2429
 20
26.5001
  0
VERTEX
  8
84
 10
17.0064
 20
26.4133
  0
VERTEX
  8
84
 10
16.4074
 20
26.3340
  0
VERTEX
  8
84
 10
15.7188
 20
26.2741
  0
VERTEX
  8
84
 10
13.9225
 20
26.1178
  0
VERTEX
  8
84
 10
12.1736
 20
25.9658
  0
VERTEX
  8
84
 10
10.6164
 20
25.8303
  0
VERTEX
  8
84
 10
9.1658
 20
25.7141
  0
VERTEX
  8
84
 10
8.4551
 20
25.6654
  0
VERTEX
  8
84
 10
8.2938
 20
25.6560
  0
VERTEX
  8
84
 10
6.7321
 20
25.5978
  0
SEQEND
  8
84
  0
POINT
  8
2
 10
31.2792
 20
27.8465
  0
POINT
  8
3
 10
30.3383
 20
27.8679
  0
POINT
  8
3
 10
29.4059
 20
27.8891
  0
POINT
  8
3
 10
27.9708
 20
27.9204
  0
POINT
  8
2
 10
26.7093
 20
27.9806
  0
POINT
  8
4
 10
26.7093
 20
27.9806
 30
0.1181
 39
0.1771
 50
86.7325
  0
POINT
  8
2
 10
26.7093
 20
27.9806
  0
POINT
  8
3
 10
25.4575
 20
28.0639
  0
POINT
  8
3
 10
24.0370
 20
28.1585
  0
POINT
  8
3
 10
22.8312
 20
28.2304
  0
POINT
  8
2
 10
21.4441
 20
28.2692
  0
POINT
  8
4
 10
21.4441
 20
28.2692
 30
0.1181
 39
0.1771
 50
89.5932
  0
POINT
  8
2
 10
21.4441
 20
28.2692
  0
POINT
  8
3
 10
20.9705
 20
28.2627
  0
POINT
  8
3
 10
20.4535
 20
28.2443
  0
POINT
  8
3
 10
19.9826
 20
28.1868
  0
POINT
  8
3
 10
19.5091
 20
28.0285
  0
POINT
  8
3
 10
19.1878
 20
27.8518
  0
POINT
  8
3
 10
18.6721
 20
27.5092
  0
POINT
  8
3
 10
18.2679
 20
27.1788
  0
POINT
  8
3
 10
17.8716
 20
26.8727
  0
POINT
  8
3
 10
17.4738
 20
26.5994
  0
POINT
  8
2
 10
17.0064
 20
26.4133
  0
POINT
  8
4
 10
16.4074
 20
26.3340
 30
0.1181
 39
0.1771
  0
POINT
  8
2
 10
16.4074
 20
26.3340
  0
POINT
  8
3
 10
15.7188
 20
26.2741
  0
POINT
  8
3
 10
13.9225
 20
26.1178
  0
POINT
  8
3
 10
12.1736
 20
25.9658
  0
POINT
  8
3
 10
10.6164
 20
25.8303
  0
POINT
  8
3
 10
9.1658
 20
25.7141
  0
POINT
  8
3
 10
8.4551
 20
25.6654
  0
POINT
  8
4
 10
8.2938
 20
25.6560
 30
0.1181
 39
0.1771
  0
POINT
  8
3
 10
8.2938
 20
25.6560
  0
POINT
  8
2
 10
6.7321
 20
25.5978
  0
POLYLINE
  8
1
 66
1
 70
0
  0
VERTEX
  8
1
 10
6.7321
 20
25.5978
  0
VERTEX
  8
1
 10
6.4951
 20
27.7269
  0
VERTEX
  8
1
 10
6.4876
 20
28.1764
  0
VERTEX
  8
1
 10
6.4699
 20
29.2395
  0
VERTEX
  8
1
 10
6.4428
 20
30.8640
  0
VERTEX
  8
1
 10
6.3978
 20
33.8325
  0
SEQEND
  8
1
  0
POLYLINE
  8
84
 66
1
 70
0
  0
VERTEX
  8
84
 10
6.7321
 20
25.5978
  0
VERTEX
  8
84
 10
6.6012
 20
26.6612
  0
VERTEX
  8
84
 10
6.5412
 20
27.1935
  0
VERTEX
  8
84
 10
6.4951
 20
27.7269
  0
VERTEX
  8
84
 10
6.4876
 20
28.1764
  0
VERTEX
  8
84
 10
6.4699
 20
29.2395
  0
VERTEX
  8
84
 10
6.4428
 20
30.8640
  0
VERTEX
  8
84
 10
6.3978
 20
33.8325
  0
SEQEND
  8
84
  0
POINT
  8
2
 10
6.7321
 20
25.5978
  0
POINT
  8
4
 10
6.4951
 20
27.7269
 30
0.1181
 39
0.1771
  0
POINT
  8
3
 10
6.4951
 20
27.7269
  0
POINT
  8
2
 10
6.4876
 20
28.1764
  0
POINT
  8
2
 10
6.4699
 20
29.2395
  0
POINT
  8
4
 10
6.4428
 20
30.8640
 30
0.1181
 39
0.1771
  0
POINT
  8
3
 10
6.4428
 20
30.8640
  0
POINT
  8
2
 10
6.3978
 20
33.8325
  0
POLYLINE
  8
1
 66
1
 70
0
  0
VERTEX
  8
1
 10
6.3978
 20
33.8325
  0
VERTEX
  8
1
 10
7.8959
 20
33.9005
  0
VERTEX
  8
1
 10
7.8959
 20
33.9005
  0
VERTEX
  8
1
 10
9.8450
 20
33.8403
  0
VERTEX
  8
1
 10
12.1094
 20
33.7914
  0
VERTEX
  8
1
 10
14.2177
 20
33.7099
  0
VERTEX
  8
1
 10
16.3885
 20
33.5835
  0
VERTEX
  8
1
 10
17.9071
 20
33.4740
  0
VERTEX
  8
1
 10
17.9071
 20
33.4740
  0
VERTEX
  8
1
 10
19.9344
 20
33.3325
  0
VERTEX
  8
1
 10
20.9132
 20
33.2812
  0
VERTEX
  8
1
 10
21.8896
 20
33.2446
  0
VERTEX
  8
1
 10
22.9444
 20
33.2213
  0
VERTEX
  8
1
 10
23.8833
 20
33.2173
  0
VERTEX
  8
1
 10
23.8833
 20
33.2173
  0
VERTEX
  8
1
 10
25.2373
 20
33.2345
  0
VERTEX
  8
1
 10
26.3181
 20
33.2628
  0
VERTEX
  8
1
 10
27.3593
 20
33.2977
  0
VERTEX
  8
1
 10
28.3102
 20
33.3295
  0
SEQEND
  8
1
  0
POLYLINE
  8
84
 66
1
 70
0
  0
VERTEX
  8
84
 10
6.3978
 20
33.8325
  0
VERTEX
  8
84
 10
7.8959
 20
33.9005
  0
VERTEX
  8
84
 10
7.8959
 20
33.9005
  0
VERTEX
  8
84
 10
9.8450
 20
33.8403
  0
VERTEX
  8
84
 10
12.1094
 20
33.7914
  0
VERTEX
  8
84
 10
14.2177
 20
33.7099
  0
VERTEX
  8
84
 10
16.3885
 20
33.5835
  0
VERTEX
  8
84
 10
17.9071
 20
33.4740
  0
VERTEX
  8
84
 10
17.9071
 20
33.4740
  0
VERTEX
  8
84
 10
19.9344
 20
33.3325
  0
VERTEX
  8
84
 10
20.9132
 20
33.2812
  0
VERTEX
  8
84
 10
21.8896
 20
33.2446
  0
VERTEX
  8
84
 10
22.9444
 20
33.2213
  0
VERTEX
  8
84
 10
23.8833
 20
33.2173
  0
VERTEX
  8
84
 10
23.8833
 20
33.2173
  0
VERTEX
  8
84
 10
25.2373
 20
33.2345
  0
VERTEX
  8
84
 10
26.3181
 20
33.2628
  0
VERTEX
  8
84
 10
27.3593
 20
33.2977
  0
VERTEX
  8
84
 10
28.3102
 20
33.3295
  0
SEQEND
  8
84
  0
POINT
  8
2
 10
6.3978
 20
33.8325
  0
POINT
  8
2
 10
7.8959
 20
33.9005
  0
POINT
  8
4
 10
7.8959
 20
33.9005
 30
0.1181
 39
0.1771
 50
-89.5875
  0
POINT
  8
2
 10
7.8959
 20
33.9005
  0
POINT
  8
3
 10
9.8450
 20
33.8403
  0
POINT
  8
3
 10
12.1094
 20
33.7914
  0
POINT
  8
3
 10
14.2177
 20
33.7099
  0
POINT
  8
3
 10
16.3885
 20
33.5835
  0
POINT
  8
3
 10
17.9071
 20
33.4740
  0
POINT
  8
4
 10
17.9071
 20
33.4740
 30
0.1181
 39
0.1771
 50
-94.0599
  0
POINT
  8
2
 10
17.9071
 20
33.4740
  0
POINT
  8
3
 10
19.9344
 20
33.3325
  0
POINT
  8
3
 10
20.9132
 20
33.2812
  0
POINT
  8
3
 10
21.8896
 20
33.2446
  0
POINT
  8
3
 10
22.9444
 20
33.2213
  0
POINT
  8
3
 10
23.8833
 20
33.2173
  0
POINT
  8
4
 10
23.8833
 20
33.2173
 30
0.1181
 39
0.1771
 50
-89.7594
  0
POINT
  8
2
 10
23.8833
 20
33.2173
  0
POINT
  8
3
 10
25.2373
 20
33.2345
  0
POINT
  8
3
 10
26.3181
 20
33.2628
  0
POINT
  8
3
 10
27.3593
 20
33.2977
  0
POINT
  8
2
 10
28.3102
 20
33.3295
  0
POLYLINE
  8
1
 66
1
 70
0
  0
VERTEX
  8
1
 10
28.3102
 20
33.3295
  0
VERTEX
  8
1
 10
28.4069
 20
32.9478
  0
VERTEX
  8
1
 10
28.3728
 20
32.5816
  0
VERTEX
  8
1
 10
28.3543
 20
32.2020
  0
VERTEX
  8
1
 10
28.3693
 20
31.7735
  0
VERTEX
  8
1
 10
28.4196
 20
31.3091
  0
VERTEX
  8
1
 10
28.4997
 20
30.9423
  0
VERTEX
  8
1
 10
28.5861
 20
30.6893
  0
VERTEX
  8
1
 10
28.6899
 20
30.4436
  0
VERTEX
  8
1
 10
28.8759
 20
30.1037
  0
VERTEX
  8
1
 10
29.0262
 20
29.8929
  0
VERTEX
  8
1
 10
29.1934
 20
29.6895
  0
VERTEX
  8
1
 10
29.4064
 20
29.4745
  0
VERTEX
  8
1
 10
29.6354
 20
29.2734
  0
VERTEX
  8
1
 10
29.9675
 20
29.0270
  0
VERTEX
  8
1
 10
30.2116
 20
28.8696
  0
VERTEX
  8
1
 10
30.4642
 20
28.7273
  0
VERTEX
  8
1
 10
30.8780
 20
28.5412
  0
VERTEX
  8
1
 10
31.2975
 20
28.3672
  0
SEQEND
  8
1
  0
POLYLINE
  8
84
 66
1
 70
0
  0
VERTEX
  8
84
 10
28.3102
 20
33.3295
  0
VERTEX
  8
84
 10
28.4069
 20
32.9478
  0
VERTEX
  8
84
 10
28.3728
 20
32.5816
  0
VERTEX
  8
84
 10
28.3543
 20
32.2020
  0
VERTEX
  8
84
 10
28.3693
 20
31.7735
  0
VERTEX
  8
84
 10
28.4196
 20
31.3091
  0
VERTEX
  8
84
 10
28.4997
 20
30.9423
  0
VERTEX
  8
84
 10
28.5861
 20
30.6893
  0
VERTEX
  8
84
 10
28.6899
 20
30.4436
  0
VERTEX
  8
84
 10
28.8759
 20
30.1037
  0
VERTEX
  8
84
 10
29.0262
 20
29.8929
  0
VERTEX
  8
84
 10
29.1934
 20
29.6895
  0
VERTEX
  8
84
 10
29.4064
 20
29.4745
  0
VERTEX
  8
84
 10
29.6354
 20
29.2734
  0
VERTEX
  8
84
 10
29.9675
 20
29.0270
  0
VERTEX
  8
84
 10
30.2116
 20
28.8696
  0
VERTEX
  8
84
 10
30.4642
 20
28.7273
  0
VERTEX
  8
84
 10
30.8780
 20
28.5412
  0
VERTEX
  8
84
 10
31.2975
 20
28.3672
  0
SEQEND
  8
84
  0
POINT
  8
2
 10
28.3102
 20
33.3295
  0
POINT
  8
2
 10
28.4069
 20
32.9478
  0
POINT
  8
3
 10
28.3728
 20
32.5816
  0
POINT
  8
3
 10
28.3543
 20
32.2020
  0
POINT
  8
3
 10
28.3693
 20
31.7735
  0
POINT
  8
4
 10
28.4196
 20
31.3091
 30
0.1181
 39
0.1771
  0
POINT
  8
2
 10
28.4196
 20
31.3091
  0
POINT
  8
3
 10
28.4997
 20
30.9423
  0
POINT
  8
3
 10
28.5861
 20
30.6893
  0
POINT
  8
3
 10
28.6899
 20
30.4436
  0
POINT
  8
3
 10
28.8759
 20
30.1037
  0
POINT
  8
3
 10
29.0262
 20
29.8929
  0
POINT
  8
3
 10
29.1934
 20
29.6895
  0
POINT
  8
3
 10
29.4064
 20
29.4745
  0
POINT
  8
3
 10
29.6354
 20
29.2734
  0
POINT
  8
3
 10
29.9675
 20
29.0270
  0
POINT
  8
3
 10
30.2116
 20
28.8696
  0
POINT
  8
4
 10
30.4642
 20
28.7273
 30
0.1181
 39
0.1771
  0
POINT
  8
3
 10
30.4642
 20
28.7273
  0
POINT
  8
3
 10
30.8780
 20
28.5412
  0
POINT
  8
2
 10
31.2975
 20
28.3672
  0
POLYLINE
  8
1
 66
1
 70
0
  0
VERTEX
  8
1
 10
31.2975
 20
28.3672
  0
VERTEX
  8
1
 10
31.2792
 20
27.8465
  0
SEQEND
  8
1
  0
POLYLINE
  8
84
 66
1
 70
0
  0
VERTEX
  8
84
 10
31.2975
 20
28.3672
  0
VERTEX
  8
84
 10
31.2792
 20
27.8465
  0
SEQEND
  8
84
  0
POINT
  8
2
 10
31.2975
 20
28.3672
  0
POINT
  8
2
 10
31.2792
 20
27.8465
  0
LINE
  8
7
 10
15.9268
 20
30.9520
 11
21.6954
 21
30.9520
  0
LINE
  8
5
 10
15.9268
 20
30.9520
 11
21.6954
 21
30.9520
  0
POINT
  8
2
 10
15.9268
 20
30.9520
  0
POINT
  8
2
 10
21.6954
 20
30.9520
  0
LINE
  8
8
 10
26.9851
 20
32.8909
 11
26.9851
 21
28.4680
  0
POLYLINE
  8
85
 66
1
 70
0
  0
VERTEX
  8
85
 10
26.9851
 20
32.8909
  0
VERTEX
  8
85
 10
26.9851
 20
28.4680
  0
SEQEND
  8
85
  0
TEXT
  8
8
 10
26.9851
 20
32.8909
 40
0.250
 50
0.0000
  1
NM
  7
STANDARD
  0
TEXT
  8
85
 10
26.9851
 20
32.8909
 40
0.250
 50
0.0000
  1
NM
  7
STANDARD
  0
POINT
  8
2
 10
26.9851
 20
32.8909
  0
POINT
  8
2
 10
26.9851
 20
28.4680
  0
LINE
  8
8
 10
8.4882
 20
27.8843
 11
8.4031
 21
33.4942
  0
POLYLINE
  8
85
 66
1
 70
0
  0
VERTEX
  8
85
 10
8.4882
 20
27.8843
  0
VERTEX
  8
85
 10
8.4031
 20
33.4942
  0
SEQEND
  8
85
  0
TEXT
  8
8
 10
8.4882
 20
27.8843
 40
0.250
 50
0.0000
  1
NM
  7
STANDARD
  0
TEXT
  8
85
 10
8.4882
 20
27.8843
 40
0.250
 50
0.0000
  1
NM
  7
STANDARD
  0
POINT
  8
2
 10
8.4882
 20
27.8843
  0
POINT
  8
2
 10
8.4031
 20
33.4942
  0
LINE
  8
8
 10
21.4590
 20
32.8721
 11
21.4590
 21
28.7691
  0
POLYLINE
  8
85
 66
1
 70
0
  0
VERTEX
  8
85
 10
21.4590
 20
32.8721
  0
VERTEX
  8
85
 10
21.4590
 20
28.7691
  0
SEQEND
  8
85
  0
TEXT
  8
8
 10
21.4590
 20
32.8721
 40
0.250
 50
0.0000
  1
NM
  7
STANDARD
  0
TEXT
  8
85
 10
21.4590
 20
32.8721
 40
0.250
 50
0.0000
  1
NM
  7
STANDARD
  0
POINT
  8
2
 10
21.4590
 20
32.8721
  0
POINT
  8
2
 10
21.4590
 20
28.7691
  0
LINE
  8
10
 10
7.8955
 20
33.8862
 11
7.8955
 21
33.7553
  0
TEXT
  8
10
 10
7.8955
 20
33.8862
 40
0.250
 50
0.0000
  1
2
  7
STANDARD
  0
POINT
  8
2
 10
7.8955
 20
33.8862
  0
POINT
  8
2
 10
7.8955
 20
33.7553
  0
LINE
  8
10
 10
21.4441
 20
28.4717
 11
21.4441
 21
28.6411
  0
TEXT
  8
10
 10
21.4441
 20
28.4717
 40
0.250
 50
0.0000
  1
3
  7
STANDARD
  0
POINT
  8
2
 10
21.4441
 20
28.4717
  0
POINT
  8
2
 10
21.4441
 20
28.6411
  0
LINE
  8
8
 10
16.4537
 20
26.5626
 11
17.0238
 21
28.5126
  0
POLYLINE
  8
85
 66
1
 70
0
  0
VERTEX
  8
85
 10
16.4537
 20
26.5626
  0
VERTEX
  8
85
 10
17.0238
 20
28.5126
  0
SEQEND
  8
85
  0
TEXT
  8
8
 10
16.4537
 20
26.5626
 40
0.250
 50
0.0000
  1
NM
  7
STANDARD
  0
TEXT
  8
85
 10
16.4537
 20
26.5626
 40
0.250
 50
0.0000
  1
NM
  7
STANDARD
  0
POINT
  8
2
 10
16.4537
 20
26.5626
  0
POINT
  8
2
 10
17.0238
 20
28.5126
  0
LINE
  8
8
 10
6.4951
 20
27.7269
 11
17.0238
 21
28.5126
  0
POLYLINE
  8
85
 66
1
 70
0
  0
VERTEX
  8
85
 10
6.4951
 20
27.7269
  0
VERTEX
  8
85
 10
17.0238
 20
28.5126
  0
SEQEND
  8
85
  0
TEXT
  8
8
 10
6.4951
 20
27.7269
 40
0.250
 50
0.0000
  1
NM
  7
STANDARD
  0
TEXT
  8
85
 10
6.4951
 20
27.7269
 40
0.250
 50
0.0000
  1
NM
  7
STANDARD
  0
POINT
  8
2
 10
6.4951
 20
27.7269
  0
POINT
  8
2
 10
17.0238
 20
28.5126
  0
LINE
  8
8
 10
17.0238
 20
28.5126
 11
21.4448
 21
28.7694
  0
POLYLINE
  8
85
 66
1
 70
0
  0
VERTEX
  8
85
 10
17.0238
 20
28.5126
  0
VERTEX
  8
85
 10
21.4448
 20
28.7694
  0
SEQEND
  8
85
  0
TEXT
  8
8
 10
17.0238
 20
28.5126
 40
0.250
 50
0.0000
  1
NM
  7
STANDARD
  0
TEXT
  8
85
 10
17.0238
 20
28.5126
 40
0.250
 50
0.0000
  1
NM
  7
STANDARD
  0
POINT
  8
2
 10
17.0238
 20
28.5126
  0
POINT
  8
2
 10
21.4448
 20
28.7694
  0
ENDBLK
  0
BLOCK
  8
0
  2
BUY-383396-STF-CL-HL-J-SH-03SV-R_40
 70
64
 10
0.0000
 20
0.0000
  0
TEXT
  8
1
 10
16.7552
 20
5.8019
 40
0.250
 50
0.0000
  1
Piece Name: BUY-383396-STF-CL-HL-J-SH-03SV-R
  7
STANDARD
  0
TEXT
  8
1
 10
16.7552
 20
5.9419
 40
0.250
 50
0.0000
  1
Quantity: 1,0
  7
STANDARD
  0
TEXT
  8
1
 10
16.7552
 20
6.0819
 40
0.250
 50
0.0000
  1
ANNOTATION
  7
STANDARD
  0
TEXT
  8
1
 10
16.7552
 20
6.2219
 40
0.250
 50
0.0000
  1
CATEGORY: 3-1
  7
STANDARD
  0
TEXT
  8
1
 10
16.7552
 20
6.3619
 40
0.250
 50
0.0000
  1
SIZE: 40
  7
STANDARD
  0
POLYLINE
  8
1
 66
1
 70
0
  0
VERTEX
  8
1
 10
32.6491
 20
0.3024
  0
VERTEX
  8
1
 10
30.8639
 20
0.1707
  0
VERTEX
  8
1
 10
29.8057
 20
0.0952
  0
VERTEX
  8
1
 10
28.7343
 20
0.0340
  0
VERTEX
  8
1
 10
27.6279
 20
0.0063
  0
VERTEX
  8
1
 10
26.5259
 20
0.0001
  0
VERTEX
  8
1
 10
25.5916
 20
0.0137
  0
VERTEX
  8
1
 10
24.6518
 20
0.0420
  0
VERTEX
  8
1
 10
23.0591
 20
0.1621
  0
VERTEX
  8
1
 10
21.4812
 20
0.2997
  0
VERTEX
  8
1
 10
18.9477
 20
0.5186
  0
VERTEX
  8
1
 10
17.7635
 20
0.6177
  0
VERTEX
  8
1
 10
16.4503
 20
0.6952
  0
VERTEX
  8
1
 10
15.4287
 20
0.7600
  0
VERTEX
  8
1
 10
1.5003
 20
0.7326
  0
VERTEX
  8
1
 10
0.0001
 20
0.7326
  0
SEQEND
  8
1
  0
POLYLINE
  8
84
 66
1
 70
0
  0
VERTEX
  8
84
 10
32.6491
 20
0.3024
  0
VERTEX
  8
84
 10
30.8639
 20
0.1707
  0
VERTEX
  8
84
 10
29.8057
 20
0.0952
  0
VERTEX
  8
84
 10
28.7343
 20
0.0340
  0
VERTEX
  8
84
 10
27.6279
 20
0.0063
  0
VERTEX
  8
84
 10
26.5259
 20
0.0001
  0
VERTEX
  8
84
 10
25.5916
 20
0.0137
  0
VERTEX
  8
84
 10
24.6518
 20
0.0420
  0
VERTEX
  8
84
 10
23.0591
 20
0.1621
  0
VERTEX
  8
84
 10
21.4812
 20
0.2997
  0
VERTEX
  8
84
 10
18.9477
 20
0.5186
  0
VERTEX
  8
84
 10
17.7635
 20
0.6177
  0
VERTEX
  8
84
 10
16.4503
 20
0.6952
  0
VERTEX
  8
84
 10
15.4287
 20
0.7600
  0
VERTEX
  8
84
 10
1.5003
 20
0.7326
  0
VERTEX
  8
84
 10
0.0001
 20
0.7326
  0
SEQEND
  8
84
  0
POINT
  8
2
 10
32.6491
 20
0.3024
  0
POINT
  8
3
 10
30.8639
 20
0.1707
  0
POINT
  8
3
 10
29.8057
 20
0.0952
  0
POINT
  8
3
 10
28.7343
 20
0.0340
  0
POINT
  8
3
 10
27.6279
 20
0.0063
  0
POINT
  8
3
 10
26.5259
 20
0.0001
  0
POINT
  8
3
 10
25.5916
 20
0.0137
  0
POINT
  8
3
 10
24.6518
 20
0.0420
  0
POINT
  8
3
 10
23.0591
 20
0.1621
  0
POINT
  8
3
 10
21.4812
 20
0.2997
  0
POINT
  8
3
 10
18.9477
 20
0.5186
  0
POINT
  8
3
 10
17.7635
 20
0.6177
  0
POINT
  8
3
 10
16.4503
 20
0.6952
  0
POINT
  8
2
 10
15.4287
 20
0.7600
  0
POINT
  8
4
 10
1.5003
 20
0.7326
 30
0.1181
 39
0.1771
  0
POINT
  8
3
 10
1.5003
 20
0.7326
  0
POINT
  8
2
 10
0.0001
 20
0.7326
  0
POLYLINE
  8
1
 66
1
 70
0
  0
VERTEX
  8
1
 10
0.0001
 20
0.7326
  0
VERTEX
  8
1
 10
0.0006
 20
1.5318
  0
VERTEX
  8
1
 10
0.0014
 20
2.8045
  0
VERTEX
  8
1
 10
0.0041
 20
7.3079
  0
VERTEX
  8
1
 10
0.0052
 20
9.0650
  0
SEQEND
  8
1
  0
POLYLINE
  8
84
 66
1
 70
0
  0
VERTEX
  8
84
 10
0.0001
 20
0.7326
  0
VERTEX
  8
84
 10
0.0006
 20
1.5318
  0
VERTEX
  8
84
 10
0.0014
 20
2.8045
  0
VERTEX
  8
84
 10
0.0041
 20
7.3079
  0
VERTEX
  8
84
 10
0.0052
 20
9.0650
  0
SEQEND
  8
84
  0
POINT
  8
2
 10
0.0001
 20
0.7326
  0
POINT
  8
4
 10
0.0006
 20
1.5318
 30
0.1181
 39
0.1771
  0
POINT
  8
3
 10
0.0006
 20
1.5318
  0
POINT
  8
3
 10
0.0014
 20
2.8045
  0
POINT
  8
4
 10
0.0041
 20
7.3079
 30
0.1181
 39
0.1771
  0
POINT
  8
3
 10
0.0041
 20
7.3079
  0
POINT
  8
2
 10
0.0052
 20
9.0650
  0
POLYLINE
  8
1
 66
1
 70
0
  0
VERTEX
  8
1
 10
0.0052
 20
9.0650
  0
VERTEX
  8
1
 10
0.7682
 20
10.0560
  0
VERTEX
  8
1
 10
1.9598
 20
11.6037
  0
SEQEND
  8
1
  0
POLYLINE
  8
84
 66
1
 70
0
  0
VERTEX
  8
84
 10
0.0052
 20
9.0650
  0
VERTEX
  8
84
 10
0.7682
 20
10.0560
  0
VERTEX
  8
84
 10
1.9598
 20
11.6037
  0
SEQEND
  8
84
  0
POINT
  8
2
 10
0.0052
 20
9.0650
  0
POINT
  8
4
 10
0.7682
 20
10.0560
 30
0.1181
 39
0.1771
  0
POINT
  8
3
 10
0.7682
 20
10.0560
  0
POINT
  8
2
 10
1.9598
 20
11.6037
  0
POLYLINE
  8
1
 66
1
 70
0
  0
VERTEX
  8
1
 10
1.9598
 20
11.6037
  0
VERTEX
  8
1
 10
3.2125
 20
11.5442
  0
VERTEX
  8
1
 10
4.1203
 20
11.4845
  0
VERTEX
  8
1
 10
5.6792
 20
11.3819
  0
VERTEX
  8
1
 10
7.9062
 20
11.2355
  0
VERTEX
  8
1
 10
9.2298
 20
11.1484
  0
VERTEX
  8
1
 10
9.9302
 20
11.1109
  0
VERTEX
  8
1
 10
10.5297
 20
11.0370
  0
VERTEX
  8
1
 10
10.9971
 20
10.8509
  0
VERTEX
  8
1
 10
11.3949
 20
10.5776
  0
VERTEX
  8
1
 10
11.7912
 20
10.2715
  0
VERTEX
  8
1
 10
12.1955
 20
9.9411
  0
VERTEX
  8
1
 10
12.7112
 20
9.5985
  0
VERTEX
  8
1
 10
13.0324
 20
9.4218
  0
VERTEX
  8
1
 10
13.5059
 20
9.2635
  0
VERTEX
  8
1
 10
13.9659
 20
9.2074
  0
VERTEX
  8
1
 10
14.4939
 20
9.1876
  0
VERTEX
  8
1
 10
14.9684
 20
9.1932
  0
VERTEX
  8
1
 10
16.0768
 20
9.2383
  0
VERTEX
  8
1
 10
17.0059
 20
9.3039
  0
VERTEX
  8
1
 10
17.9333
 20
9.3934
  0
VERTEX
  8
1
 10
18.6733
 20
9.4936
  0
VERTEX
  8
1
 10
19.4551
 20
9.6107
  0
VERTEX
  8
1
 10
20.1577
 20
9.7294
  0
VERTEX
  8
1
 10
21.1047
 20
9.9261
  0
VERTEX
  8
1
 10
21.9529
 20
10.1021
  0
VERTEX
  8
1
 10
23.1800
 20
10.3677
  0
VERTEX
  8
1
 10
24.7274
 20
10.7028
  0
SEQEND
  8
1
  0
POLYLINE
  8
84
 66
1
 70
0
  0
VERTEX
  8
84
 10
1.9598
 20
11.6037
  0
VERTEX
  8
84
 10
3.2125
 20
11.5442
  0
VERTEX
  8
84
 10
4.1203
 20
11.4845
  0
VERTEX
  8
84
 10
5.6792
 20
11.3819
  0
VERTEX
  8
84
 10
7.9062
 20
11.2355
  0
VERTEX
  8
84
 10
9.2298
 20
11.1484
  0
VERTEX
  8
84
 10
9.9302
 20
11.1109
  0
VERTEX
  8
84
 10
10.2320
 20
11.0858
  0
VERTEX
  8
84
 10
10.5297
 20
11.0370
  0
VERTEX
  8
84
 10
10.7658
 20
10.9515
  0
VERTEX
  8
84
 10
10.9971
 20
10.8509
  0
VERTEX
  8
84
 10
11.3949
 20
10.5776
  0
VERTEX
  8
84
 10
11.7912
 20
10.2715
  0
VERTEX
  8
84
 10
12.1955
 20
9.9411
  0
VERTEX
  8
84
 10
12.4495
 20
9.7641
  0
VERTEX
  8
84
 10
12.7112
 20
9.5985
  0
VERTEX
  8
84
 10
13.0324
 20
9.4218
  0
VERTEX
  8
84
 10
13.2655
 20
9.3316
  0
VERTEX
  8
84
 10
13.5059
 20
9.2635
  0
VERTEX
  8
84
 10
13.7347
 20
9.2275
  0
VERTEX
  8
84
 10
13.9659
 20
9.2074
  0
VERTEX
  8
84
 10
14.4939
 20
9.1876
  0
VERTEX
  8
84
 10
14.9684
 20
9.1932
  0
VERTEX
  8
84
 10
16.0768
 20
9.2383
  0
VERTEX
  8
84
 10
17.0059
 20
9.3039
  0
VERTEX
  8
84
 10
17.9333
 20
9.3934
  0
VERTEX
  8
84
 10
18.6733
 20
9.4936
  0
VERTEX
  8
84
 10
19.4551
 20
9.6107
  0
VERTEX
  8
84
 10
20.1577
 20
9.7294
  0
VERTEX
  8
84
 10
21.1047
 20
9.9261
  0
VERTEX
  8
84
 10
21.9529
 20
10.1021
  0
VERTEX
  8
84
 10
23.1800
 20
10.3677
  0
VERTEX
  8
84
 10
24.7274
 20
10.7028
  0
SEQEND
  8
84
  0
POINT
  8
2
 10
1.9598
 20
11.6037
  0
POINT
  8
4
 10
3.2125
 20
11.5442
 30
0.1181
 39
0.1771
  0
POINT
  8
3
 10
3.2125
 20
11.5442
  0
POINT
  8
3
 10
4.1203
 20
11.4845
  0
POINT
  8
3
 10
5.6792
 20
11.3819
  0
POINT
  8
3
 10
7.9062
 20
11.2355
  0
POINT
  8
3
 10
9.2298
 20
11.1484
  0
POINT
  8
4
 10
9.9302
 20
11.1109
 30
0.1181
 39
0.1771
  0
POINT
  8
3
 10
9.9302
 20
11.1109
  0
POINT
  8
3
 10
10.5297
 20
11.0370
  0
POINT
  8
2
 10
10.9971
 20
10.8509
  0
POINT
  8
3
 10
11.3949
 20
10.5776
  0
POINT
  8
3
 10
11.7912
 20
10.2715
  0
POINT
  8
3
 10
12.1955
 20
9.9411
  0
POINT
  8
3
 10
12.7112
 20
9.5985
  0
POINT
  8
3
 10
13.0324
 20
9.4218
  0
POINT
  8
3
 10
13.5059
 20
9.2635
  0
POINT
  8
3
 10
13.9659
 20
9.2074
  0
POINT
  8
3
 10
14.4939
 20
9.1876
  0
POINT
  8
4
 10
14.9684
 20
9.1932
 30
0.1181
 39
0.1771
  0
POINT
  8
2
 10
14.9684
 20
9.1932
  0
POINT
  8
3
 10
16.0768
 20
9.2383
  0
POINT
  8
3
 10
17.0059
 20
9.3039
  0
POINT
  8
3
 10
17.9333
 20
9.3934
  0
POINT
  8
3
 10
18.6733
 20
9.4936
  0
POINT
  8
3
 10
19.4551
 20
9.6107
  0
POINT
  8
4
 10
20.1577
 20
9.7294
 30
0.1181
 39
0.1771
  0
POINT
  8
2
 10
20.1577
 20
9.7294
  0
POINT
  8
3
 10
21.1047
 20
9.9261
  0
POINT
  8
3
 10
21.9529
 20
10.1021
  0
POINT
  8
3
 10
23.1800
 20
10.3677
  0
POINT
  8
2
 10
24.7274
 20
10.7028
  0
POLYLINE
  8
1
 66
1
 70
0
  0
VERTEX
  8
1
 10
24.7274
 20
10.7028
  0
VERTEX
  8
1
 10
24.8378
 20
10.2156
  0
SEQEND
  8
1
  0
POLYLINE
  8
84
 66
1
 70
0
  0
VERTEX
  8
84
 10
24.7274
 20
10.7028
  0
VERTEX
  8
84
 10
24.8378
 20
10.2156
  0
SEQEND
  8
84
  0
POINT
  8
2
 10
24.7274
 20
10.7028
  0
POINT
  8
2
 10
24.8378
 20
10.2156
  0
POLYLINE
  8
1
 66
1
 70
0
  0
VERTEX
  8
1
 10
24.8378
 20
10.2156
  0
VERTEX
  8
1
 10
25.3890
 20
10.1884
  0
VERTEX
  8
1
 10
26.2448
 20
10.1658
  0
VERTEX
  8
1
 10
26.3770
 20
10.1639
  0
VERTEX
  8
1
 10
26.6505
 20
10.1690
  0
VERTEX
  8
1
 10
26.6505
 20
10.1690
  0
VERTEX
  8
1
 10
27.1560
 20
10.1788
  0
VERTEX
  8
1
 10
27.8674
 20
10.2062
  0
VERTEX
  8
1
 10
28.5705
 20
10.2533
  0
VERTEX
  8
1
 10
29.2969
 20
10.3400
  0
VERTEX
  8
1
 10
30.2178
 20
10.4884
  0
VERTEX
  8
1
 10
30.5324
 20
10.3322
  0
SEQEND
  8
1
  0
POLYLINE
  8
84
 66
1
 70
0
  0
VERTEX
  8
84
 10
24.8378
 20
10.2156
  0
VERTEX
  8
84
 10
25.3890
 20
10.1884
  0
VERTEX
  8
84
 10
26.2448
 20
10.1658
  0
VERTEX
  8
84
 10
26.3770
 20
10.1639
  0
VERTEX
  8
84
 10
26.6505
 20
10.1690
  0
VERTEX
  8
84
 10
26.6505
 20
10.1690
  0
VERTEX
  8
84
 10
27.1560
 20
10.1788
  0
VERTEX
  8
84
 10
27.8674
 20
10.2062
  0
VERTEX
  8
84
 10
28.5705
 20
10.2533
  0
VERTEX
  8
84
 10
29.2969
 20
10.3400
  0
VERTEX
  8
84
 10
30.2178
 20
10.4884
  0
VERTEX
  8
84
 10
30.5324
 20
10.3322
  0
SEQEND
  8
84
  0
POINT
  8
2
 10
24.8378
 20
10.2156
  0
POINT
  8
3
 10
25.3890
 20
10.1884
  0
POINT
  8
4
 10
26.2448
 20
10.1658
 30
0.1181
 39
0.1771
  0
POINT
  8
3
 10
26.2448
 20
10.1658
  0
POINT
  8
3
 10
26.3770
 20
10.1639
  0
POINT
  8
3
 10
26.6505
 20
10.1690
  0
POINT
  8
4
 10
26.6505
 20
10.1690
 30
0.1181
 39
0.1771
 50
-88.9113
  0
POINT
  8
2
 10
26.6505
 20
10.1690
  0
POINT
  8
3
 10
27.1560
 20
10.1788
  0
POINT
  8
3
 10
27.8674
 20
10.2062
  0
POINT
  8
3
 10
28.5705
 20
10.2533
  0
POINT
  8
3
 10
29.2969
 20
10.3400
  0
POINT
  8
2
 10
30.2178
 20
10.4884
  0
POINT
  8
2
 10
30.5324
 20
10.3322
  0
POLYLINE
  8
1
 66
1
 70
0
  0
VERTEX
  8
1
 10
30.5324
 20
10.3322
  0
VERTEX
  8
1
 10
30.8307
 20
9.6565
  0
VERTEX
  8
1
 10
30.9731
 20
9.3375
  0
VERTEX
  8
1
 10
30.9731
 20
9.3375
  0
VERTEX
  8
1
 10
31.5674
 20
8.1019
  0
VERTEX
  8
1
 10
31.9750
 20
7.2742
  0
VERTEX
  8
1
 10
32.5022
 20
6.2832
  0
VERTEX
  8
1
 10
32.9782
 20
5.4361
  0
VERTEX
  8
1
 10
32.9782
 20
5.4361
  0
VERTEX
  8
1
 10
33.1804
 20
5.0731
  0
VERTEX
  8
1
 10
33.5103
 20
4.4578
  0
SEQEND
  8
1
  0
POLYLINE
  8
84
 66
1
 70
0
  0
VERTEX
  8
84
 10
30.5324
 20
10.3322
  0
VERTEX
  8
84
 10
30.8307
 20
9.6565
  0
VERTEX
  8
84
 10
30.9731
 20
9.3375
  0
VERTEX
  8
84
 10
30.9731
 20
9.3375
  0
VERTEX
  8
84
 10
31.5674
 20
8.1019
  0
VERTEX
  8
84
 10
31.9750
 20
7.2742
  0
VERTEX
  8
84
 10
32.5022
 20
6.2832
  0
VERTEX
  8
84
 10
32.9782
 20
5.4361
  0
VERTEX
  8
84
 10
32.9782
 20
5.4361
  0
VERTEX
  8
84
 10
33.1804
 20
5.0731
  0
VERTEX
  8
84
 10
33.5103
 20
4.4578
  0
SEQEND
  8
84
  0
POINT
  8
2
 10
30.5324
 20
10.3322
  0
POINT
  8
3
 10
30.8307
 20
9.6565
  0
POINT
  8
3
 10
30.9731
 20
9.3375
  0
POINT
  8
4
 10
30.9731
 20
9.3375
 30
0.1181
 39
0.1771
 50
-155.1288
  0
POINT
  8
2
 10
30.9731
 20
9.3375
  0
POINT
  8
3
 10
31.5674
 20
8.1019
  0
POINT
  8
3
 10
31.9750
 20
7.2742
  0
POINT
  8
3
 10
32.5022
 20
6.2832
  0
POINT
  8
3
 10
32.9782
 20
5.4361
  0
POINT
  8
4
 10
32.9782
 20
5.4361
 30
0.1181
 39
0.1771
 50
-150.7718
  0
POINT
  8
2
 10
32.9782
 20
5.4361
  0
POINT
  8
3
 10
33.1804
 20
5.0731
  0
POINT
  8
2
 10
33.5103
 20
4.4578
  0
POLYLINE
  8
1
 66
1
 70
0
  0
VERTEX
  8
1
 10
33.5103
 20
4.4578
  0
VERTEX
  8
1
 10
33.1319
 20
4.0699
  0
VERTEX
  8
1
 10
32.8302
 20
3.6213
  0
VERTEX
  8
1
 10
32.6612
 20
2.7669
  0
VERTEX
  8
1
 10
32.6517
 20
2.2991
  0
VERTEX
  8
1
 10
32.6496
 20
1.8239
  0
VERTEX
  8
1
 10
32.6494
 20
1.1035
  0
VERTEX
  8
1
 10
32.6494
 20
1.1035
  0
VERTEX
  8
1
 10
32.6491
 20
0.3024
  0
SEQEND
  8
1
  0
POLYLINE
  8
84
 66
1
 70
0
  0
VERTEX
  8
84
 10
33.5103
 20
4.4578
  0
VERTEX
  8
84
 10
33.1319
 20
4.0699
  0
VERTEX
  8
84
 10
32.9647
 20
3.8554
  0
VERTEX
  8
84
 10
32.8917
 20
3.7414
  0
VERTEX
  8
84
 10
32.8302
 20
3.6213
  0
VERTEX
  8
84
 10
32.7632
 20
3.4145
  0
VERTEX
  8
84
 10
32.7163
 20
3.2016
  0
VERTEX
  8
84
 10
32.6822
 20
2.9852
  0
VERTEX
  8
84
 10
32.6612
 20
2.7669
  0
VERTEX
  8
84
 10
32.6517
 20
2.2991
  0
VERTEX
  8
84
 10
32.6496
 20
1.8239
  0
VERTEX
  8
84
 10
32.6494
 20
1.1035
  0
VERTEX
  8
84
 10
32.6494
 20
1.1035
  0
VERTEX
  8
84
 10
32.6491
 20
0.3024
  0
SEQEND
  8
84
  0
POINT
  8
2
 10
33.5103
 20
4.4578
  0
POINT
  8
3
 10
33.1319
 20
4.0699
  0
POINT
  8
3
 10
32.8302
 20
3.6213
  0
POINT
  8
3
 10
32.6612
 20
2.7669
  0
POINT
  8
3
 10
32.6517
 20
2.2991
  0
POINT
  8
2
 10
32.6496
 20
1.8239
  0
POINT
  8
3
 10
32.6494
 20
1.1035
  0
POINT
  8
4
 10
32.6494
 20
1.1035
 30
0.1181
 39
0.1771
 50
179.9828
  0
POINT
  8
2
 10
32.6494
 20
1.1035
  0
POINT
  8
2
 10
32.6491
 20
0.3024
  0
LINE
  8
7
 10
9.4529
 20
5.4253
 11
25.2107
 21
5.4253
  0
LINE
  8
5
 10
9.4529
 20
5.4253
 11
25.2107
 21
5.4253
  0
POINT
  8
2
 10
9.4529
 20
5.4253
  0
POINT
  8
2
 10
25.2107
 20
5.4253
  0
LINE
  8
8
 10
25.2553
 20
0.8783
 11
25.2553
 21
9.3934
  0
POLYLINE
  8
85
 66
1
 70
0
  0
VERTEX
  8
85
 10
25.2553
 20
0.8783
  0
VERTEX
  8
85
 10
25.2553
 20
9.3934
  0
SEQEND
  8
85
  0
TEXT
  8
8
 10
25.2553
 20
0.8783
 40
0.250
 50
0.0000
  1
NM
  7
STANDARD
  0
TEXT
  8
85
 10
25.2553
 20
0.8783
 40
0.250
 50
0.0000
  1
NM
  7
STANDARD
  0
POINT
  8
2
 10
25.2553
 20
0.8783
  0
POINT
  8
2
 10
25.2553
 20
9.3934
  0
LINE
  8
8
 10
30.4485
 20
9.6288
 11
30.4368
 21
0.9577
  0
POLYLINE
  8
85
 66
1
 70
0
  0
VERTEX
  8
85
 10
30.4485
 20
9.6288
  0
VERTEX
  8
85
 10
30.4368
 20
0.9577
  0
SEQEND
  8
85
  0
TEXT
  8
8
 10
30.4485
 20
9.6288
 40
0.250
 50
0.0000
  1
NM
  7
STANDARD
  0
TEXT
  8
85
 10
30.4485
 20
9.6288
 40
0.250
 50
0.0000
  1
NM
  7
STANDARD
  0
POINT
  8
2
 10
30.4485
 20
9.6288
  0
POINT
  8
2
 10
30.4368
 20
0.9577
  0
LINE
  8
8
 10
32.2562
 20
1.9580
 11
1.5059
 21
1.9580
  0
POLYLINE
  8
85
 66
1
 70
0
  0
VERTEX
  8
85
 10
32.2562
 20
1.9580
  0
VERTEX
  8
85
 10
1.5059
 20
1.9580
  0
SEQEND
  8
85
  0
TEXT
  8
8
 10
32.2562
 20
1.9580
 40
0.250
 50
0.0000
  1
NM
  7
STANDARD
  0
TEXT
  8
85
 10
32.2562
 20
1.9580
 40
0.250
 50
0.0000
  1
NM
  7
STANDARD
  0
POINT
  8
2
 10
32.2562
 20
1.9580
  0
POINT
  8
2
 10
1.5059
 20
1.9580
  0
LINE
  8
8
 10
2.0059
 20
1.4471
 11
2.0059
 21
9.3153
  0
POLYLINE
  8
85
 66
1
 70
0
  0
VERTEX
  8
85
 10
2.0059
 20
1.4471
  0
VERTEX
  8
85
 10
2.0059
 20
9.3153
  0
SEQEND
  8
85
  0
TEXT
  8
8
 10
2.0059
 20
1.4471
 40
0.250
 50
0.0000
  1
NM
  7
STANDARD
  0
TEXT
  8
85
 10
2.0059
 20
1.4471
 40
0.250
 50
0.0000
  1
NM
  7
STANDARD
  0
POINT
  8
2
 10
2.0059
 20
1.4471
  0
POINT
  8
2
 10
2.0059
 20
9.3153
  0
LINE
  8
8
 10
14.9753
 20
8.6931
 11
14.9753
 21
1.5713
  0
POLYLINE
  8
85
 66
1
 70
0
  0
VERTEX
  8
85
 10
14.9753
 20
8.6931
  0
VERTEX
  8
85
 10
14.9753
 20
1.5713
  0
SEQEND
  8
85
  0
TEXT
  8
8
 10
14.9753
 20
8.6931
 40
0.250
 50
0.0000
  1
NM
  7
STANDARD
  0
TEXT
  8
85
 10
14.9753
 20
8.6931
 40
0.250
 50
0.0000
  1
NM
  7
STANDARD
  0
POINT
  8
2
 10
14.9753
 20
8.6931
  0
POINT
  8
2
 10
14.9753
 20
1.5713
  0
LINE
  8
8
 10
20.5014
 20
9.1929
 11
20.5014
 21
1.2041
  0
POLYLINE
  8
85
 66
1
 70
0
  0
VERTEX
  8
85
 10
20.5014
 20
9.1929
  0
VERTEX
  8
85
 10
20.5014
 20
1.2041
  0
SEQEND
  8
85
  0
TEXT
  8
8
 10
20.5014
 20
9.1929
 40
0.250
 50
0.0000
  1
NM
  7
STANDARD
  0
TEXT
  8
85
 10
20.5014
 20
9.1929
 40
0.250
 50
0.0000
  1
NM
  7
STANDARD
  0
POINT
  8
2
 10
20.5014
 20
9.1929
  0
POINT
  8
2
 10
20.5014
 20
1.2041
  0
LINE
  8
8
 10
32.2553
 20
1.0774
 11
30.4485
 21
9.6288
  0
POLYLINE
  8
85
 66
1
 70
0
  0
VERTEX
  8
85
 10
32.2553
 20
1.0774
  0
VERTEX
  8
85
 10
30.4485
 20
9.6288
  0
SEQEND
  8
85
  0
TEXT
  8
8
 10
32.2553
 20
1.0774
 40
0.250
 50
0.0000
  1
NM
  7
STANDARD
  0
TEXT
  8
85
 10
32.2553
 20
1.0774
 40
0.250
 50
0.0000
  1
NM
  7
STANDARD
  0
POINT
  8
2
 10
32.2553
 20
1.0774
  0
POINT
  8
2
 10
30.4485
 20
9.6288
  0
LINE
  8
10
 10
14.9684
 20
9.0729
 11
14.9684
 21
8.8416
  0
TEXT
  8
10
 10
14.9684
 20
9.0729
 40
0.250
 50
0.0000
  1
3
  7
STANDARD
  0
POINT
  8
2
 10
14.9684
 20
9.0729
  0
POINT
  8
2
 10
14.9684
 20
8.8416
  0
LINE
  8
9
 10
32.2005
 20
1.0776
 11
31.9932
 21
1.0776
  0
TEXT
  8
9
 10
32.2005
 20
1.0776
 40
0.250
 50
0.0000
  1
0
  7
STANDARD
  0
POINT
  8
2
 10
32.2005
 20
1.0776
  0
POINT
  8
2
 10
31.9932
 20
1.0776
  0
LINE
  8
8
 10
1.5054
 20
9.4883
 11
10.5471
 21
8.9377
  0
POLYLINE
  8
85
 66
1
 70
0
  0
VERTEX
  8
85
 10
1.5054
 20
9.4883
  0
VERTEX
  8
85
 10
10.5471
 20
8.9377
  0
SEQEND
  8
85
  0
TEXT
  8
8
 10
1.5054
 20
9.4883
 40
0.250
 50
0.0000
  1
NM
  7
STANDARD
  0
TEXT
  8
85
 10
1.5054
 20
9.4883
 40
0.250
 50
0.0000
  1
NM
  7
STANDARD
  0
POINT
  8
2
 10
1.5054
 20
9.4883
  0
POINT
  8
2
 10
10.5471
 20
8.9377
  0
LINE
  8
8
 10
9.9672
 20
10.9004
 11
10.5471
 21
8.9377
  0
POLYLINE
  8
85
 66
1
 70
0
  0
VERTEX
  8
85
 10
9.9672
 20
10.9004
  0
VERTEX
  8
85
 10
10.5471
 20
8.9377
  0
SEQEND
  8
85
  0
TEXT
  8
8
 10
9.9672
 20
10.9004
 40
0.250
 50
0.0000
  1
NM
  7
STANDARD
  0
TEXT
  8
85
 10
9.9672
 20
10.9004
 40
0.250
 50
0.0000
  1
NM
  7
STANDARD
  0
POINT
  8
2
 10
9.9672
 20
10.9004
  0
POINT
  8
2
 10
10.5471
 20
8.9377
  0
LINE
  8
8
 10
10.5471
 20
8.9377
 11
15.0433
 21
8.6949
  0
POLYLINE
  8
85
 66
1
 70
0
  0
VERTEX
  8
85
 10
10.5471
 20
8.9377
  0
VERTEX
  8
85
 10
15.0433
 20
8.6949
  0
SEQEND
  8
85
  0
TEXT
  8
8
 10
10.5471
 20
8.9377
 40
0.250
 50
0.0000
  1
NM
  7
STANDARD
  0
TEXT
  8
85
 10
10.5471
 20
8.9377
 40
0.250
 50
0.0000
  1
NM
  7
STANDARD
  0
POINT
  8
2
 10
10.5471
 20
8.9377
  0
POINT
  8
2
 10
15.0433
 20
8.6949
  0
ENDBLK
  0
BLOCK
  8
0
  2
BUY-383396-STF-CL-HL-J-SH-06_40
 70
64
 10
0.0000
 20
0.0000
  0
TEXT
  8
1
 10
16.6803
 20
4.3045
 40
0.250
 50
0.0000
  1
Piece Name: BUY-383396-STF-CL-HL-J-SH-06
  7
STANDARD
  0
TEXT
  8
1
 10
16.6803
 20
4.4445
 40
0.250
 50
0.0000
  1
Quantity: 1,0
  7
STANDARD
  0
TEXT
  8
1
 10
16.6803
 20
4.5845
 40
0.250
 50
0.0000
  1
ANNOTATION
  7
STANDARD
  0
TEXT
  8
1
 10
16.6803
 20
4.7245
 40
0.250
 50
0.0000
  1
CATEGORY: 6
  7
STANDARD
  0
TEXT
  8
1
 10
16.6803
 20
4.8645
 40
0.250
 50
0.0000
  1
SIZE: 40
  7
STANDARD
  0
TEXT
  8
1
 10
22.2917
 20
8.3192
 40
0.250
 50
0.0000
  1
.F
  7
STANDARD
  0
TEXT
  8
1
 10
30.8703
 20
7.2248
 40
0.250
 50
0.0000
  1
.F
  7
STANDARD
  0
POLYLINE
  8
1
 66
1
 70
0
  0
VERTEX
  8
1
 10
32.5659
 20
0.0001
  0
VERTEX
  8
1
 10
29.7782
 20
0.8441
  0
VERTEX
  8
1
 10
29.7782
 20
0.8441
  0
VERTEX
  8
1
 10
27.8941
 20
1.3930
  0
VERTEX
  8
1
 10
26.1260
 20
1.8714
  0
VERTEX
  8
1
 10
24.3685
 20
2.3034
  0
VERTEX
  8
1
 10
22.8136
 20
2.6707
  0
VERTEX
  8
1
 10
21.7936
 20
2.8715
  0
VERTEX
  8
1
 10
20.8447
 20
3.0414
  0
VERTEX
  8
1
 10
19.6190
 20
3.2061
  0
VERTEX
  8
1
 10
19.6190
 20
3.2061
  0
VERTEX
  8
1
 10
18.2200
 20
3.3726
  0
VERTEX
  8
1
 10
15.4994
 20
3.5826
  0
VERTEX
  8
1
 10
13.5908
 20
3.6392
  0
VERTEX
  8
1
 10
10.9681
 20
3.6397
  0
VERTEX
  8
1
 10
10.9681
 20
3.6397
  0
VERTEX
  8
1
 10
9.4048
 20
3.5981
  0
VERTEX
  8
1
 10
7.8434
 20
3.5106
  0
VERTEX
  8
1
 10
4.7298
 20
3.2369
  0
VERTEX
  8
1
 10
0.0450
 20
2.7836
  0
SEQEND
  8
1
  0
POLYLINE
  8
84
 66
1
 70
0
  0
VERTEX
  8
84
 10
32.5659
 20
0.0001
  0
VERTEX
  8
84
 10
29.7782
 20
0.8441
  0
VERTEX
  8
84
 10
29.7782
 20
0.8441
  0
VERTEX
  8
84
 10
27.8941
 20
1.3930
  0
VERTEX
  8
84
 10
26.1260
 20
1.8714
  0
VERTEX
  8
84
 10
24.3685
 20
2.3034
  0
VERTEX
  8
84
 10
22.8136
 20
2.6707
  0
VERTEX
  8
84
 10
21.7936
 20
2.8715
  0
VERTEX
  8
84
 10
20.8447
 20
3.0414
  0
VERTEX
  8
84
 10
19.6190
 20
3.2061
  0
VERTEX
  8
84
 10
19.6190
 20
3.2061
  0
VERTEX
  8
84
 10
18.2200
 20
3.3726
  0
VERTEX
  8
84
 10
16.8608
 20
3.4923
  0
VERTEX
  8
84
 10
15.4994
 20
3.5826
  0
VERTEX
  8
84
 10
14.5454
 20
3.6198
  0
VERTEX
  8
84
 10
13.5908
 20
3.6392
  0
VERTEX
  8
84
 10
12.2794
 20
3.6484
  0
VERTEX
  8
84
 10
10.9681
 20
3.6397
  0
VERTEX
  8
84
 10
10.9681
 20
3.6397
  0
VERTEX
  8
84
 10
9.4048
 20
3.5981
  0
VERTEX
  8
84
 10
7.8434
 20
3.5106
  0
VERTEX
  8
84
 10
6.2859
 20
3.3814
  0
VERTEX
  8
84
 10
4.7298
 20
3.2369
  0
VERTEX
  8
84
 10
0.0450
 20
2.7836
  0
SEQEND
  8
84
  0
POINT
  8
2
 10
32.5659
 20
0.0001
  0
POINT
  8
3
 10
29.7782
 20
0.8441
  0
POINT
  8
4
 10
29.7782
 20
0.8441
 30
0.1181
 39
0.1771
 50
73.4588
  0
POINT
  8
2
 10
29.7782
 20
0.8441
  0
POINT
  8
3
 10
27.8941
 20
1.3930
  0
POINT
  8
3
 10
26.1260
 20
1.8714
  0
POINT
  8
3
 10
24.3685
 20
2.3034
  0
POINT
  8
3
 10
22.8136
 20
2.6707
  0
POINT
  8
3
 10
21.7936
 20
2.8715
  0
POINT
  8
3
 10
20.8447
 20
3.0414
  0
POINT
  8
3
 10
19.6190
 20
3.2061
  0
POINT
  8
4
 10
19.6190
 20
3.2061
 30
0.1181
 39
0.1771
 50
82.7790
  0
POINT
  8
2
 10
19.6190
 20
3.2061
  0
POINT
  8
3
 10
18.2200
 20
3.3726
  0
POINT
  8
3
 10
15.4994
 20
3.5826
  0
POINT
  8
3
 10
13.5908
 20
3.6392
  0
POINT
  8
3
 10
10.9681
 20
3.6397
  0
POINT
  8
4
 10
10.9681
 20
3.6397
 30
0.1181
 39
0.1771
 50
90.9568
  0
POINT
  8
2
 10
10.9681
 20
3.6397
  0
POINT
  8
3
 10
9.4048
 20
3.5981
  0
POINT
  8
3
 10
7.8434
 20
3.5106
  0
POINT
  8
3
 10
4.7298
 20
3.2369
  0
POINT
  8
2
 10
0.0450
 20
2.7836
  0
POLYLINE
  8
1
 66
1
 70
0
  0
VERTEX
  8
1
 10
0.0450
 20
2.7836
  0
VERTEX
  8
1
 10
0.0002
 20
3.9621
  0
SEQEND
  8
1
  0
POLYLINE
  8
84
 66
1
 70
0
  0
VERTEX
  8
84
 10
0.0450
 20
2.7836
  0
VERTEX
  8
84
 10
0.0002
 20
3.9621
  0
SEQEND
  8
84
  0
POINT
  8
2
 10
0.0450
 20
2.7836
  0
POINT
  8
2
 10
0.0002
 20
3.9621
  0
POLYLINE
  8
1
 66
1
 70
0
  0
VERTEX
  8
1
 10
0.0002
 20
3.9621
  0
VERTEX
  8
1
 10
0.3968
 20
3.9586
  0
SEQEND
  8
1
  0
POLYLINE
  8
84
 66
1
 70
0
  0
VERTEX
  8
84
 10
0.0002
 20
3.9621
  0
VERTEX
  8
84
 10
0.3968
 20
3.9586
  0
SEQEND
  8
84
  0
POINT
  8
2
 10
0.0002
 20
3.9621
  0
POINT
  8
2
 10
0.3968
 20
3.9586
  0
POLYLINE
  8
1
 66
1
 70
0
  0
VERTEX
  8
1
 10
0.3968
 20
3.9586
  0
VERTEX
  8
1
 10
0.4219
 20
4.5038
  0
VERTEX
  8
1
 10
0.4577
 20
4.9249
  0
VERTEX
  8
1
 10
0.4983
 20
5.1867
  0
VERTEX
  8
1
 10
0.5527
 20
5.4194
  0
VERTEX
  8
1
 10
0.6238
 20
5.6459
  0
VERTEX
  8
1
 10
0.7191
 20
5.8584
  0
VERTEX
  8
1
 10
0.8460
 20
6.0596
  0
VERTEX
  8
1
 10
0.9933
 20
6.2525
  0
VERTEX
  8
1
 10
1.1541
 20
6.4356
  0
VERTEX
  8
1
 10
1.3302
 20
6.6093
  0
VERTEX
  8
1
 10
1.5474
 20
6.7867
  0
VERTEX
  8
1
 10
1.7864
 20
6.9452
  0
VERTEX
  8
1
 10
2.0432
 20
7.0840
  0
VERTEX
  8
1
 10
2.3094
 20
7.2120
  0
VERTEX
  8
1
 10
2.5720
 20
7.3266
  0
VERTEX
  8
1
 10
2.8680
 20
7.4353
  0
VERTEX
  8
1
 10
3.3702
 20
7.5804
  0
VERTEX
  8
1
 10
3.9175
 20
7.7223
  0
VERTEX
  8
1
 10
4.5277
 20
7.8439
  0
VERTEX
  8
1
 10
5.2143
 20
7.9568
  0
VERTEX
  8
1
 10
6.0230
 20
8.0578
  0
VERTEX
  8
1
 10
6.9654
 20
8.1657
  0
VERTEX
  8
1
 10
8.0510
 20
8.2572
  0
VERTEX
  8
1
 10
9.1125
 20
8.3272
  0
VERTEX
  8
1
 10
10.5009
 20
8.3726
  0
VERTEX
  8
1
 10
11.6987
 20
8.3941
  0
VERTEX
  8
1
 10
12.9019
 20
8.4135
  0
VERTEX
  8
1
 10
13.4131
 20
8.4152
  0
VERTEX
  8
1
 10
14.1539
 20
8.4148
  0
VERTEX
  8
1
 10
14.6076
 20
8.4352
  0
VERTEX
  8
1
 10
15.0221
 20
8.4743
  0
VERTEX
  8
1
 10
15.4585
 20
8.5206
  0
VERTEX
  8
1
 10
15.8719
 20
8.5645
  0
VERTEX
  8
1
 10
16.2950
 20
8.5949
  0
VERTEX
  8
1
 10
16.7799
 20
8.6089
  0
VERTEX
  8
1
 10
17.5138
 20
8.5990
  0
VERTEX
  8
1
 10
18.1724
 20
8.5789
  0
VERTEX
  8
1
 10
19.5460
 20
8.5337
  0
VERTEX
  8
1
 10
20.9213
 20
8.4430
  0
VERTEX
  8
1
 10
22.2917
 20
8.3192
  0
VERTEX
  8
1
 10
23.7306
 20
8.1695
  0
VERTEX
  8
1
 10
25.1678
 20
8.0047
  0
VERTEX
  8
1
 10
28.4075
 20
7.5695
  0
VERTEX
  8
1
 10
28.4465
 20
7.5640
  0
VERTEX
  8
1
 10
30.8703
 20
7.2248
  0
SEQEND
  8
1
  0
POLYLINE
  8
84
 66
1
 70
0
  0
VERTEX
  8
84
 10
0.3968
 20
3.9586
  0
VERTEX
  8
84
 10
0.4219
 20
4.5038
  0
VERTEX
  8
84
 10
0.4577
 20
4.9249
  0
VERTEX
  8
84
 10
0.4983
 20
5.1867
  0
VERTEX
  8
84
 10
0.5527
 20
5.4194
  0
VERTEX
  8
84
 10
0.6238
 20
5.6459
  0
VERTEX
  8
84
 10
0.7191
 20
5.8584
  0
VERTEX
  8
84
 10
0.8460
 20
6.0596
  0
VERTEX
  8
84
 10
0.9933
 20
6.2525
  0
VERTEX
  8
84
 10
1.1541
 20
6.4356
  0
VERTEX
  8
84
 10
1.3302
 20
6.6093
  0
VERTEX
  8
84
 10
1.5474
 20
6.7867
  0
VERTEX
  8
84
 10
1.7864
 20
6.9452
  0
VERTEX
  8
84
 10
2.0432
 20
7.0840
  0
VERTEX
  8
84
 10
2.3094
 20
7.2120
  0
VERTEX
  8
84
 10
2.5720
 20
7.3266
  0
VERTEX
  8
84
 10
2.8680
 20
7.4353
  0
VERTEX
  8
84
 10
3.3702
 20
7.5804
  0
VERTEX
  8
84
 10
3.9175
 20
7.7223
  0
VERTEX
  8
84
 10
4.5277
 20
7.8439
  0
VERTEX
  8
84
 10
5.2143
 20
7.9568
  0
VERTEX
  8
84
 10
6.0230
 20
8.0578
  0
VERTEX
  8
84
 10
6.9654
 20
8.1657
  0
VERTEX
  8
84
 10
8.0510
 20
8.2572
  0
VERTEX
  8
84
 10
9.1125
 20
8.3272
  0
VERTEX
  8
84
 10
10.5009
 20
8.3726
  0
VERTEX
  8
84
 10
11.6987
 20
8.3941
  0
VERTEX
  8
84
 10
12.9019
 20
8.4135
  0
VERTEX
  8
84
 10
13.4131
 20
8.4152
  0
VERTEX
  8
84
 10
14.1539
 20
8.4148
  0
VERTEX
  8
84
 10
14.6076
 20
8.4352
  0
VERTEX
  8
84
 10
15.0221
 20
8.4743
  0
VERTEX
  8
84
 10
15.4585
 20
8.5206
  0
VERTEX
  8
84
 10
15.8719
 20
8.5645
  0
VERTEX
  8
84
 10
16.2950
 20
8.5949
  0
VERTEX
  8
84
 10
16.7799
 20
8.6089
  0
VERTEX
  8
84
 10
17.5138
 20
8.5990
  0
VERTEX
  8
84
 10
18.1724
 20
8.5789
  0
VERTEX
  8
84
 10
19.5460
 20
8.5337
  0
VERTEX
  8
84
 10
20.9213
 20
8.4430
  0
VERTEX
  8
84
 10
22.2917
 20
8.3192
  0
VERTEX
  8
84
 10
23.7306
 20
8.1695
  0
VERTEX
  8
84
 10
25.1678
 20
8.0047
  0
VERTEX
  8
84
 10
28.4075
 20
7.5695
  0
VERTEX
  8
84
 10
28.4465
 20
7.5640
  0
VERTEX
  8
84
 10
30.8703
 20
7.2248
  0
SEQEND
  8
84
  0
POINT
  8
2
 10
0.3968
 20
3.9586
  0
POINT
  8
3
 10
0.4219
 20
4.5038
  0
POINT
  8
3
 10
0.4577
 20
4.9249
  0
POINT
  8
3
 10
0.4983
 20
5.1867
  0
POINT
  8
3
 10
0.5527
 20
5.4194
  0
POINT
  8
3
 10
0.6238
 20
5.6459
  0
POINT
  8
3
 10
0.7191
 20
5.8584
  0
POINT
  8
3
 10
0.8460
 20
6.0596
  0
POINT
  8
3
 10
0.9933
 20
6.2525
  0
POINT
  8
3
 10
1.1541
 20
6.4356
  0
POINT
  8
3
 10
1.3302
 20
6.6093
  0
POINT
  8
3
 10
1.5474
 20
6.7867
  0
POINT
  8
3
 10
1.7864
 20
6.9452
  0
POINT
  8
3
 10
2.0432
 20
7.0840
  0
POINT
  8
3
 10
2.3094
 20
7.2120
  0
POINT
  8
3
 10
2.5720
 20
7.3266
  0
POINT
  8
3
 10
2.8680
 20
7.4353
  0
POINT
  8
3
 10
3.3702
 20
7.5804
  0
POINT
  8
3
 10
3.9175
 20
7.7223
  0
POINT
  8
3
 10
4.5277
 20
7.8439
  0
POINT
  8
3
 10
5.2143
 20
7.9568
  0
POINT
  8
3
 10
6.0230
 20
8.0578
  0
POINT
  8
3
 10
6.9654
 20
8.1657
  0
POINT
  8
3
 10
8.0510
 20
8.2572
  0
POINT
  8
4
 10
9.1125
 20
8.3272
 30
0.1181
 39
0.1771
  0
POINT
  8
3
 10
9.1125
 20
8.3272
  0
POINT
  8
3
 10
10.5009
 20
8.3726
  0
POINT
  8
3
 10
11.6987
 20
8.3941
  0
POINT
  8
3
 10
12.9019
 20
8.4135
  0
POINT
  8
4
 10
13.4131
 20
8.4152
 30
0.1181
 39
0.1771
  0
POINT
  8
3
 10
13.4131
 20
8.4152
  0
POINT
  8
3
 10
14.1539
 20
8.4148
  0
POINT
  8
3
 10
14.6076
 20
8.4352
  0
POINT
  8
3
 10
15.0221
 20
8.4743
  0
POINT
  8
4
 10
15.4585
 20
8.5206
 30
0.1181
 39
0.1771
  0
POINT
  8
2
 10
15.4585
 20
8.5206
  0
POINT
  8
2
 10
15.8719
 20
8.5645
  0
POINT
  8
3
 10
16.2950
 20
8.5949
  0
POINT
  8
3
 10
16.7799
 20
8.6089
  0
POINT
  8
4
 10
17.5138
 20
8.5990
 30
0.1181
 39
0.1771
  0
POINT
  8
3
 10
17.5138
 20
8.5990
  0
POINT
  8
3
 10
18.1724
 20
8.5789
  0
POINT
  8
3
 10
19.5460
 20
8.5337
  0
POINT
  8
3
 10
20.9213
 20
8.4430
  0
POINT
  8
3
 10
22.2917
 20
8.3192
  0
POINT
  8
3
 10
23.7306
 20
8.1695
  0
POINT
  8
3
 10
25.1678
 20
8.0047
  0
POINT
  8
3
 10
28.4075
 20
7.5695
  0
POINT
  8
4
 10
28.4465
 20
7.5640
 30
0.1181
 39
0.1771
  0
POINT
  8
3
 10
28.4465
 20
7.5640
  0
POINT
  8
2
 10
30.8703
 20
7.2248
  0
POLYLINE
  8
1
 66
1
 70
0
  0
VERTEX
  8
1
 10
30.8703
 20
7.2248
  0
VERTEX
  8
1
 10
31.0015
 20
5.4707
  0
VERTEX
  8
1
 10
31.7134
 20
2.5668
  0
SEQEND
  8
1
  0
POLYLINE
  8
84
 66
1
 70
0
  0
VERTEX
  8
84
 10
30.8703
 20
7.2248
  0
VERTEX
  8
84
 10
31.0015
 20
5.4707
  0
VERTEX
  8
84
 10
31.7134
 20
2.5668
  0
SEQEND
  8
84
  0
POINT
  8
2
 10
30.8703
 20
7.2248
  0
POINT
  8
4
 10
31.0015
 20
5.4707
 30
0.1181
 39
0.1771
  0
POINT
  8
2
 10
31.0015
 20
5.4707
  0
POINT
  8
2
 10
31.7134
 20
2.5668
  0
POLYLINE
  8
1
 66
1
 70
0
  0
VERTEX
  8
1
 10
31.7134
 20
2.5668
  0
VERTEX
  8
1
 10
33.0651
 20
2.2625
  0
VERTEX
  8
1
 10
33.3605
 20
2.0322
  0
SEQEND
  8
1
  0
POLYLINE
  8
84
 66
1
 70
0
  0
VERTEX
  8
84
 10
31.7134
 20
2.5668
  0
VERTEX
  8
84
 10
33.0651
 20
2.2625
  0
VERTEX
  8
84
 10
33.3605
 20
2.0322
  0
SEQEND
  8
84
  0
POINT
  8
2
 10
31.7134
 20
2.5668
  0
POINT
  8
2
 10
33.0651
 20
2.2625
  0
POINT
  8
2
 10
33.3605
 20
2.0322
  0
POLYLINE
  8
1
 66
1
 70
0
  0
VERTEX
  8
1
 10
33.3605
 20
2.0322
  0
VERTEX
  8
1
 10
32.8150
 20
0.6215
  0
VERTEX
  8
1
 10
32.5659
 20
0.0001
  0
SEQEND
  8
1
  0
POLYLINE
  8
84
 66
1
 70
0
  0
VERTEX
  8
84
 10
33.3605
 20
2.0322
  0
VERTEX
  8
84
 10
32.8150
 20
0.6215
  0
VERTEX
  8
84
 10
32.5659
 20
0.0001
  0
SEQEND
  8
84
  0
POINT
  8
2
 10
33.3605
 20
2.0322
  0
POINT
  8
3
 10
32.8150
 20
0.6215
  0
POINT
  8
2
 10
32.5659
 20
0.0001
  0
LINE
  8
7
 10
13.0066
 20
6.4408
 11
14.6163
 21
6.4408
  0
LINE
  8
5
 10
13.0066
 20
6.4408
 11
14.6163
 21
6.4408
  0
POINT
  8
2
 10
13.0066
 20
6.4408
  0
POINT
  8
2
 10
14.6163
 20
6.4408
  0
ENDBLK
  0
BLOCK
  8
0
  2
BUY-383396-STF-CL-HL-J-SH-05-R_40
 70
64
 10
0.0000
 20
0.0000
  0
TEXT
  8
1
 10
29.3151
 20
33.9560
 40
0.250
 50
0.0000
  1
Piece Name: BUY-383396-STF-CL-HL-J-SH-05-R
  7
STANDARD
  0
TEXT
  8
1
 10
29.3151
 20
34.0960
 40
0.250
 50
0.0000
  1
Quantity: 1,0
  7
STANDARD
  0
TEXT
  8
1
 10
29.3151
 20
34.2360
 40
0.250
 50
0.0000
  1
ANNOTATION
  7
STANDARD
  0
TEXT
  8
1
 10
29.3151
 20
34.3760
 40
0.250
 50
0.0000
  1
CATEGORY: 5
  7
STANDARD
  0
TEXT
  8
1
 10
29.3151
 20
34.5160
 40
0.250
 50
0.0000
  1
SIZE: 40
  7
STANDARD
  0
TEXT
  8
15
 10
39.3958
 20
32.7155
 40
0.197
 50
0.0000
  1
without shoulder pad
  7
STANDARD
  0
POLYLINE
  8
1
 66
1
 70
0
  0
VERTEX
  8
1
 10
15.1536
 20
31.2743
  0
VERTEX
  8
1
 10
15.5418
 20
33.0032
  0
VERTEX
  8
1
 10
15.5418
 20
33.0032
  0
VERTEX
  8
1
 10
17.0678
 20
39.7962
  0
SEQEND
  8
1
  0
POLYLINE
  8
84
 66
1
 70
0
  0
VERTEX
  8
84
 10
15.1536
 20
31.2743
  0
VERTEX
  8
84
 10
15.5418
 20
33.0032
  0
VERTEX
  8
84
 10
15.5418
 20
33.0032
  0
VERTEX
  8
84
 10
17.0678
 20
39.7962
  0
SEQEND
  8
84
  0
POINT
  8
2
 10
15.1536
 20
31.2743
  0
POINT
  8
3
 10
15.5418
 20
33.0032
  0
POINT
  8
4
 10
15.5418
 20
33.0032
 30
0.1181
 39
0.1771
 50
-12.6618
  0
POINT
  8
2
 10
15.5418
 20
33.0032
  0
POINT
  8
2
 10
17.0678
 20
39.7962
  0
POLYLINE
  8
1
 66
1
 70
0
  0
VERTEX
  8
1
 10
17.0678
 20
39.7962
  0
VERTEX
  8
1
 10
17.5344
 20
40.0770
  0
SEQEND
  8
1
  0
POLYLINE
  8
84
 66
1
 70
0
  0
VERTEX
  8
84
 10
17.0678
 20
39.7962
  0
VERTEX
  8
84
 10
17.5344
 20
40.0770
  0
SEQEND
  8
84
  0
POINT
  8
2
 10
17.0678
 20
39.7962
  0
POINT
  8
2
 10
17.5344
 20
40.0770
  0
POLYLINE
  8
1
 66
1
 70
0
  0
VERTEX
  8
1
 10
17.5344
 20
40.0770
  0
VERTEX
  8
1
 10
19.1505
 20
39.6555
  0
VERTEX
  8
1
 10
19.1505
 20
39.6555
  0
VERTEX
  8
1
 10
21.3606
 20
39.2442
  0
VERTEX
  8
1
 10
23.0792
 20
38.9503
  0
VERTEX
  8
1
 10
23.0792
 20
38.9503
  0
VERTEX
  8
1
 10
25.5574
 20
38.5482
  0
VERTEX
  8
1
 10
28.1923
 20
38.2542
  0
VERTEX
  8
1
 10
30.5387
 20
38.1295
  0
VERTEX
  8
1
 10
32.2840
 20
38.1376
  0
VERTEX
  8
1
 10
33.3307
 20
38.1902
  0
VERTEX
  8
1
 10
34.2200
 20
38.2375
  0
VERTEX
  8
1
 10
35.2266
 20
38.2989
  0
VERTEX
  8
1
 10
36.0634
 20
38.3543
  0
VERTEX
  8
1
 10
36.8487
 20
38.4064
  0
SEQEND
  8
1
  0
POLYLINE
  8
84
 66
1
 70
0
  0
VERTEX
  8
84
 10
17.5344
 20
40.0770
  0
VERTEX
  8
84
 10
18.3407
 20
39.8592
  0
VERTEX
  8
84
 10
19.1505
 20
39.6555
  0
VERTEX
  8
84
 10
19.1505
 20
39.6555
  0
VERTEX
  8
84
 10
20.2532
 20
39.4383
  0
VERTEX
  8
84
 10
21.3606
 20
39.2442
  0
VERTEX
  8
84
 10
23.0792
 20
38.9503
  0
VERTEX
  8
84
 10
23.0792
 20
38.9503
  0
VERTEX
  8
84
 10
24.3172
 20
38.7417
  0
VERTEX
  8
84
 10
25.5574
 20
38.5482
  0
VERTEX
  8
84
 10
26.8729
 20
38.3838
  0
VERTEX
  8
84
 10
28.1923
 20
38.2542
  0
VERTEX
  8
84
 10
29.3646
 20
38.1752
  0
VERTEX
  8
84
 10
30.5387
 20
38.1295
  0
VERTEX
  8
84
 10
31.4114
 20
38.1225
  0
VERTEX
  8
84
 10
32.2840
 20
38.1376
  0
VERTEX
  8
84
 10
33.3307
 20
38.1902
  0
VERTEX
  8
84
 10
34.2200
 20
38.2375
  0
VERTEX
  8
84
 10
35.2266
 20
38.2989
  0
VERTEX
  8
84
 10
36.0634
 20
38.3543
  0
VERTEX
  8
84
 10
36.8487
 20
38.4064
  0
SEQEND
  8
84
  0
POINT
  8
2
 10
17.5344
 20
40.0770
  0
POINT
  8
3
 10
19.1505
 20
39.6555
  0
POINT
  8
4
 10
19.1505
 20
39.6555
 30
0.1181
 39
0.1771
 50
-102.6326
  0
POINT
  8
2
 10
19.1505
 20
39.6555
  0
POINT
  8
3
 10
21.3606
 20
39.2442
  0
POINT
  8
2
 10
23.0792
 20
38.9503
  0
POINT
  8
4
 10
23.0792
 20
38.9503
 30
0.1181
 39
0.1771
 50
-99.6366
  0
POINT
  8
2
 10
23.0792
 20
38.9503
  0
POINT
  8
3
 10
25.5574
 20
38.5482
  0
POINT
  8
3
 10
28.1923
 20
38.2542
  0
POINT
  8
3
 10
30.5387
 20
38.1295
  0
POINT
  8
3
 10
32.2840
 20
38.1376
  0
POINT
  8
4
 10
33.3307
 20
38.1902
 30
0.1181
 39
0.1771
  0
POINT
  8
2
 10
33.3307
 20
38.1902
  0
POINT
  8
3
 10
34.2200
 20
38.2375
  0
POINT
  8
3
 10
35.2266
 20
38.2989
  0
POINT
  8
3
 10
36.0634
 20
38.3543
  0
POINT
  8
2
 10
36.8487
 20
38.4064
  0
POLYLINE
  8
1
 66
1
 70
0
  0
VERTEX
  8
1
 10
36.8487
 20
38.4064
  0
VERTEX
  8
1
 10
36.9766
 20
38.1181
  0
VERTEX
  8
1
 10
37.0752
 20
37.9440
  0
VERTEX
  8
1
 10
37.1886
 20
37.7897
  0
VERTEX
  8
1
 10
37.3247
 20
37.6389
  0
VERTEX
  8
1
 10
37.4957
 20
37.4875
  0
VERTEX
  8
1
 10
37.6779
 20
37.3593
  0
VERTEX
  8
1
 10
37.8470
 20
37.2711
  0
VERTEX
  8
1
 10
38.0379
 20
37.1942
  0
VERTEX
  8
1
 10
38.4796
 20
37.0248
  0
VERTEX
  8
1
 10
39.7141
 20
36.5144
  0
VERTEX
  8
1
 10
40.5559
 20
36.1510
  0
VERTEX
  8
1
 10
41.0584
 20
35.9000
  0
VERTEX
  8
1
 10
41.5368
 20
35.6081
  0
VERTEX
  8
1
 10
41.9608
 20
35.2927
  0
VERTEX
  8
1
 10
42.2857
 20
35.0233
  0
VERTEX
  8
1
 10
42.5524
 20
34.7462
  0
VERTEX
  8
1
 10
42.7659
 20
34.4818
  0
VERTEX
  8
1
 10
42.9294
 20
34.2370
  0
VERTEX
  8
1
 10
43.0602
 20
34.0076
  0
VERTEX
  8
1
 10
43.1638
 20
33.7978
  0
VERTEX
  8
1
 10
43.2402
 20
33.5903
  0
VERTEX
  8
1
 10
43.3036
 20
33.3705
  0
VERTEX
  8
1
 10
43.3567
 20
33.1397
  0
VERTEX
  8
1
 10
43.4037
 20
32.8878
  0
VERTEX
  8
1
 10
43.4423
 20
32.6038
  0
VERTEX
  8
1
 10
43.4639
 20
32.2854
  0
VERTEX
  8
1
 10
43.4767
 20
31.9574
  0
VERTEX
  8
1
 10
43.4471
 20
31.5551
  0
VERTEX
  8
1
 10
43.4349
 20
31.4068
  0
VERTEX
  8
1
 10
43.3910
 20
31.1836
  0
VERTEX
  8
1
 10
43.3344
 20
30.9513
  0
VERTEX
  8
1
 10
43.2597
 20
30.7261
  0
VERTEX
  8
1
 10
43.1727
 20
30.5097
  0
VERTEX
  8
1
 10
43.0629
 20
30.2862
  0
VERTEX
  8
1
 10
42.9054
 20
30.0197
  0
VERTEX
  8
1
 10
42.7029
 20
29.7246
  0
VERTEX
  8
1
 10
42.4701
 20
29.4199
  0
VERTEX
  8
1
 10
42.1882
 20
29.0892
  0
VERTEX
  8
1
 10
41.8725
 20
28.7460
  0
VERTEX
  8
1
 10
41.4469
 20
28.3381
  0
VERTEX
  8
1
 10
40.9048
 20
27.8415
  0
SEQEND
  8
1
  0
POLYLINE
  8
84
 66
1
 70
0
  0
VERTEX
  8
84
 10
36.8487
 20
38.4064
  0
VERTEX
  8
84
 10
36.9766
 20
38.1181
  0
VERTEX
  8
84
 10
37.0752
 20
37.9440
  0
VERTEX
  8
84
 10
37.1886
 20
37.7897
  0
VERTEX
  8
84
 10
37.3247
 20
37.6389
  0
VERTEX
  8
84
 10
37.4957
 20
37.4875
  0
VERTEX
  8
84
 10
37.6779
 20
37.3593
  0
VERTEX
  8
84
 10
37.8470
 20
37.2711
  0
VERTEX
  8
84
 10
38.0379
 20
37.1942
  0
VERTEX
  8
84
 10
38.4796
 20
37.0248
  0
VERTEX
  8
84
 10
39.7141
 20
36.5144
  0
VERTEX
  8
84
 10
40.5559
 20
36.1510
  0
VERTEX
  8
84
 10
41.0584
 20
35.9000
  0
VERTEX
  8
84
 10
41.5368
 20
35.6081
  0
VERTEX
  8
84
 10
41.9608
 20
35.2927
  0
VERTEX
  8
84
 10
42.2857
 20
35.0233
  0
VERTEX
  8
84
 10
42.5524
 20
34.7462
  0
VERTEX
  8
84
 10
42.7659
 20
34.4818
  0
VERTEX
  8
84
 10
42.9294
 20
34.2370
  0
VERTEX
  8
84
 10
43.0602
 20
34.0076
  0
VERTEX
  8
84
 10
43.1638
 20
33.7978
  0
VERTEX
  8
84
 10
43.2402
 20
33.5903
  0
VERTEX
  8
84
 10
43.3036
 20
33.3705
  0
VERTEX
  8
84
 10
43.3567
 20
33.1397
  0
VERTEX
  8
84
 10
43.4037
 20
32.8878
  0
VERTEX
  8
84
 10
43.4423
 20
32.6038
  0
VERTEX
  8
84
 10
43.4639
 20
32.2854
  0
VERTEX
  8
84
 10
43.4767
 20
31.9574
  0
VERTEX
  8
84
 10
43.4471
 20
31.5551
  0
VERTEX
  8
84
 10
43.4349
 20
31.4068
  0
VERTEX
  8
84
 10
43.3910
 20
31.1836
  0
VERTEX
  8
84
 10
43.3344
 20
30.9513
  0
VERTEX
  8
84
 10
43.2597
 20
30.7261
  0
VERTEX
  8
84
 10
43.1727
 20
30.5097
  0
VERTEX
  8
84
 10
43.0629
 20
30.2862
  0
VERTEX
  8
84
 10
42.9054
 20
30.0197
  0
VERTEX
  8
84
 10
42.7029
 20
29.7246
  0
VERTEX
  8
84
 10
42.4701
 20
29.4199
  0
VERTEX
  8
84
 10
42.1882
 20
29.0892
  0
VERTEX
  8
84
 10
41.8725
 20
28.7460
  0
VERTEX
  8
84
 10
41.4469
 20
28.3381
  0
VERTEX
  8
84
 10
40.9048
 20
27.8415
  0
SEQEND
  8
84
  0
POINT
  8
2
 10
36.8487
 20
38.4064
  0
POINT
  8
3
 10
36.9766
 20
38.1181
  0
POINT
  8
3
 10
37.0752
 20
37.9440
  0
POINT
  8
3
 10
37.1886
 20
37.7897
  0
POINT
  8
3
 10
37.3247
 20
37.6389
  0
POINT
  8
3
 10
37.4957
 20
37.4875
  0
POINT
  8
3
 10
37.6779
 20
37.3593
  0
POINT
  8
3
 10
37.8470
 20
37.2711
  0
POINT
  8
4
 10
38.0379
 20
37.1942
 30
0.1181
 39
0.1771
  0
POINT
  8
2
 10
38.0379
 20
37.1942
  0
POINT
  8
3
 10
38.4796
 20
37.0248
  0
POINT
  8
3
 10
39.7141
 20
36.5144
  0
POINT
  8
3
 10
40.5559
 20
36.1510
  0
POINT
  8
3
 10
41.0584
 20
35.9000
  0
POINT
  8
4
 10
41.5368
 20
35.6081
 30
0.1181
 39
0.1771
  0
POINT
  8
2
 10
41.5368
 20
35.6081
  0
POINT
  8
3
 10
41.9608
 20
35.2927
  0
POINT
  8
3
 10
42.2857
 20
35.0233
  0
POINT
  8
3
 10
42.5524
 20
34.7462
  0
POINT
  8
3
 10
42.7659
 20
34.4818
  0
POINT
  8
3
 10
42.9294
 20
34.2370
  0
POINT
  8
3
 10
43.0602
 20
34.0076
  0
POINT
  8
3
 10
43.1638
 20
33.7978
  0
POINT
  8
3
 10
43.2402
 20
33.5903
  0
POINT
  8
3
 10
43.3036
 20
33.3705
  0
POINT
  8
3
 10
43.3567
 20
33.1397
  0
POINT
  8
3
 10
43.4037
 20
32.8878
  0
POINT
  8
3
 10
43.4423
 20
32.6038
  0
POINT
  8
3
 10
43.4639
 20
32.2854
  0
POINT
  8
3
 10
43.4767
 20
31.9574
  0
POINT
  8
4
 10
43.4471
 20
31.5551
 30
0.1181
 39
0.1771
  0
POINT
  8
2
 10
43.4471
 20
31.5551
  0
POINT
  8
3
 10
43.4349
 20
31.4068
  0
POINT
  8
3
 10
43.3910
 20
31.1836
  0
POINT
  8
3
 10
43.3344
 20
30.9513
  0
POINT
  8
3
 10
43.2597
 20
30.7261
  0
POINT
  8
3
 10
43.1727
 20
30.5097
  0
POINT
  8
3
 10
43.0629
 20
30.2862
  0
POINT
  8
3
 10
42.9054
 20
30.0197
  0
POINT
  8
3
 10
42.7029
 20
29.7246
  0
POINT
  8
3
 10
42.4701
 20
29.4199
  0
POINT
  8
3
 10
42.1882
 20
29.0892
  0
POINT
  8
3
 10
41.8725
 20
28.7460
  0
POINT
  8
3
 10
41.4469
 20
28.3381
  0
POINT
  8
2
 10
40.9048
 20
27.8415
  0
POLYLINE
  8
1
 66
1
 70
0
  0
VERTEX
  8
1
 10
40.9048
 20
27.8415
  0
VERTEX
  8
1
 10
40.1405
 20
27.8350
  0
VERTEX
  8
1
 10
38.0857
 20
27.8358
  0
VERTEX
  8
1
 10
36.2040
 20
27.8505
  0
VERTEX
  8
1
 10
35.1535
 20
27.8948
  0
VERTEX
  8
1
 10
34.2369
 20
27.9783
  0
VERTEX
  8
1
 10
33.3176
 20
28.0644
  0
VERTEX
  8
1
 10
32.3926
 20
28.1688
  0
VERTEX
  8
1
 10
31.4525
 20
28.3019
  0
VERTEX
  8
1
 10
30.4897
 20
28.4614
  0
VERTEX
  8
1
 10
29.5075
 20
28.6353
  0
VERTEX
  8
1
 10
28.3212
 20
28.8455
  0
VERTEX
  8
1
 10
26.4892
 20
29.2636
  0
VERTEX
  8
1
 10
25.1642
 20
29.6244
  0
VERTEX
  8
1
 10
24.1885
 20
29.9111
  0
VERTEX
  8
1
 10
22.0304
 20
30.5748
  0
SEQEND
  8
1
  0
POLYLINE
  8
84
 66
1
 70
0
  0
VERTEX
  8
84
 10
40.9048
 20
27.8415
  0
VERTEX
  8
84
 10
40.1405
 20
27.8350
  0
VERTEX
  8
84
 10
38.0857
 20
27.8358
  0
VERTEX
  8
84
 10
36.2040
 20
27.8505
  0
VERTEX
  8
84
 10
35.1535
 20
27.8948
  0
VERTEX
  8
84
 10
34.2369
 20
27.9783
  0
VERTEX
  8
84
 10
33.3176
 20
28.0644
  0
VERTEX
  8
84
 10
32.3926
 20
28.1688
  0
VERTEX
  8
84
 10
31.4525
 20
28.3019
  0
VERTEX
  8
84
 10
30.4897
 20
28.4614
  0
VERTEX
  8
84
 10
29.5075
 20
28.6353
  0
VERTEX
  8
84
 10
28.3212
 20
28.8455
  0
VERTEX
  8
84
 10
27.4029
 20
29.0444
  0
VERTEX
  8
84
 10
26.4892
 20
29.2636
  0
VERTEX
  8
84
 10
25.1642
 20
29.6244
  0
VERTEX
  8
84
 10
24.1885
 20
29.9111
  0
VERTEX
  8
84
 10
22.0304
 20
30.5748
  0
SEQEND
  8
84
  0
POINT
  8
2
 10
40.9048
 20
27.8415
  0
POINT
  8
3
 10
40.1405
 20
27.8350
  0
POINT
  8
3
 10
38.0857
 20
27.8358
  0
POINT
  8
3
 10
36.2040
 20
27.8505
  0
POINT
  8
4
 10
35.1535
 20
27.8948
 30
0.1181
 39
0.1771
  0
POINT
  8
2
 10
35.1535
 20
27.8948
  0
POINT
  8
3
 10
34.2369
 20
27.9783
  0
POINT
  8
3
 10
33.3176
 20
28.0644
  0
POINT
  8
3
 10
32.3926
 20
28.1688
  0
POINT
  8
3
 10
31.4525
 20
28.3019
  0
POINT
  8
3
 10
30.4897
 20
28.4614
  0
POINT
  8
3
 10
29.5075
 20
28.6353
  0
POINT
  8
3
 10
28.3212
 20
28.8455
  0
POINT
  8
3
 10
26.4892
 20
29.2636
  0
POINT
  8
3
 10
25.1642
 20
29.6244
  0
POINT
  8
4
 10
24.1885
 20
29.9111
 30
0.1181
 39
0.1771
  0
POINT
  8
2
 10
24.1885
 20
29.9111
  0
POINT
  8
2
 10
22.0304
 20
30.5748
  0
POLYLINE
  8
1
 66
1
 70
0
  0
VERTEX
  8
1
 10
22.0304
 20
30.5748
  0
VERTEX
  8
1
 10
20.9065
 20
29.4846
  0
SEQEND
  8
1
  0
POLYLINE
  8
84
 66
1
 70
0
  0
VERTEX
  8
84
 10
22.0304
 20
30.5748
  0
VERTEX
  8
84
 10
20.9065
 20
29.4846
  0
SEQEND
  8
84
  0
POINT
  8
2
 10
22.0304
 20
30.5748
  0
POINT
  8
2
 10
20.9065
 20
29.4846
  0
POLYLINE
  8
1
 66
1
 70
0
  0
VERTEX
  8
1
 10
20.9065
 20
29.4846
  0
VERTEX
  8
1
 10
17.1295
 20
30.6582
  0
VERTEX
  8
1
 10
17.1295
 20
30.6582
  0
VERTEX
  8
1
 10
15.1536
 20
31.2743
  0
SEQEND
  8
1
  0
POLYLINE
  8
84
 66
1
 70
0
  0
VERTEX
  8
84
 10
20.9065
 20
29.4846
  0
VERTEX
  8
84
 10
17.1295
 20
30.6582
  0
VERTEX
  8
84
 10
17.1295
 20
30.6582
  0
VERTEX
  8
84
 10
15.1536
 20
31.2743
  0
SEQEND
  8
84
  0
POINT
  8
2
 10
20.9065
 20
29.4846
  0
POINT
  8
3
 10
17.1295
 20
30.6582
  0
POINT
  8
4
 10
17.1295
 20
30.6582
 30
0.1181
 39
0.1771
 50
72.7102
  0
POINT
  8
2
 10
17.1295
 20
30.6582
  0
POINT
  8
2
 10
15.1536
 20
31.2743
  0
LINE
  8
7
 10
23.6720
 20
33.7237
 11
37.0245
 21
33.7237
  0
LINE
  8
5
 10
23.6720
 20
33.7237
 11
37.0245
 21
33.7237
  0
POINT
  8
2
 10
23.6720
 20
33.7237
  0
POINT
  8
2
 10
37.0245
 20
33.7237
  0
LINE
  8
8
 10
35.4869
 20
28.2344
 11
35.4869
 21
37.9213
  0
POLYLINE
  8
85
 66
1
 70
0
  0
VERTEX
  8
85
 10
35.4869
 20
28.2344
  0
VERTEX
  8
85
 10
35.4869
 20
37.9213
  0
SEQEND
  8
85
  0
TEXT
  8
8
 10
35.4869
 20
28.2344
 40
0.250
 50
0.0000
  1
NM
  7
STANDARD
  0
TEXT
  8
85
 10
35.4869
 20
28.2344
 40
0.250
 50
0.0000
  1
NM
  7
STANDARD
  0
POINT
  8
2
 10
35.4869
 20
28.2344
  0
POINT
  8
2
 10
35.4869
 20
37.9213
  0
LINE
  8
8
 10
43.2108
 20
31.5719
 11
17.9291
 21
34.2178
  0
POLYLINE
  8
85
 66
1
 70
0
  0
VERTEX
  8
85
 10
43.2108
 20
31.5719
  0
VERTEX
  8
85
 10
17.9291
 20
34.2178
  0
SEQEND
  8
85
  0
TEXT
  8
8
 10
43.2108
 20
31.5719
 40
0.250
 50
0.0000
  1
NM
  7
STANDARD
  0
TEXT
  8
85
 10
43.2108
 20
31.5719
 40
0.250
 50
0.0000
  1
NM
  7
STANDARD
  0
POINT
  8
2
 10
43.2108
 20
31.5719
  0
POINT
  8
2
 10
17.9291
 20
34.2178
  0
LINE
  8
8
 10
19.0640
 20
39.2708
 11
17.5183
 21
32.3891
  0
POLYLINE
  8
85
 66
1
 70
0
  0
VERTEX
  8
85
 10
19.0640
 20
39.2708
  0
VERTEX
  8
85
 10
17.5183
 20
32.3891
  0
SEQEND
  8
85
  0
TEXT
  8
8
 10
19.0640
 20
39.2708
 40
0.250
 50
0.0000
  1
NM
  7
STANDARD
  0
TEXT
  8
85
 10
19.0640
 20
39.2708
 40
0.250
 50
0.0000
  1
NM
  7
STANDARD
  0
POINT
  8
2
 10
19.0640
 20
39.2708
  0
POINT
  8
2
 10
17.5183
 20
32.3891
  0
LINE
  8
8
 10
19.2577
 20
33.2885
 11
19.0929
 21
32.5543
  0
POLYLINE
  8
85
 66
1
 70
0
  0
VERTEX
  8
85
 10
19.2577
 20
33.2885
  0
VERTEX
  8
85
 10
19.0929
 20
32.5543
  0
SEQEND
  8
85
  0
TEXT
  8
8
 10
19.2577
 20
33.2885
 40
0.250
 50
0.0000
  1
NM
  7
STANDARD
  0
TEXT
  8
85
 10
19.2577
 20
33.2885
 40
0.250
 50
0.0000
  1
NM
  7
STANDARD
  0
POINT
  8
2
 10
19.2577
 20
33.2885
  0
POINT
  8
2
 10
19.0929
 20
32.5543
  0
LINE
  8
8
 10
19.8584
 20
33.1018
 11
19.6935
 21
32.3676
  0
POLYLINE
  8
85
 66
1
 70
0
  0
VERTEX
  8
85
 10
19.8584
 20
33.1018
  0
VERTEX
  8
85
 10
19.6935
 20
32.3676
  0
SEQEND
  8
85
  0
TEXT
  8
8
 10
19.8584
 20
33.1018
 40
0.250
 50
0.0000
  1
NM
  7
STANDARD
  0
TEXT
  8
85
 10
19.8584
 20
33.1018
 40
0.250
 50
0.0000
  1
NM
  7
STANDARD
  0
POINT
  8
2
 10
19.8584
 20
33.1018
  0
POINT
  8
2
 10
19.6935
 20
32.3676
  0
LINE
  8
8
 10
20.4591
 20
32.9152
 11
20.2942
 21
32.1810
  0
POLYLINE
  8
85
 66
1
 70
0
  0
VERTEX
  8
85
 10
20.4591
 20
32.9152
  0
VERTEX
  8
85
 10
20.2942
 20
32.1810
  0
SEQEND
  8
85
  0
TEXT
  8
8
 10
20.4591
 20
32.9152
 40
0.250
 50
0.0000
  1
NM
  7
STANDARD
  0
TEXT
  8
85
 10
20.4591
 20
32.9152
 40
0.250
 50
0.0000
  1
NM
  7
STANDARD
  0
POINT
  8
2
 10
20.4591
 20
32.9152
  0
POINT
  8
2
 10
20.2942
 20
32.1810
  0
LINE
  8
8
 10
21.0599
 20
32.7285
 11
20.8949
 21
31.9943
  0
POLYLINE
  8
85
 66
1
 70
0
  0
VERTEX
  8
85
 10
21.0599
 20
32.7285
  0
VERTEX
  8
85
 10
20.8949
 20
31.9943
  0
SEQEND
  8
85
  0
TEXT
  8
8
 10
21.0599
 20
32.7285
 40
0.250
 50
0.0000
  1
NM
  7
STANDARD
  0
TEXT
  8
85
 10
21.0599
 20
32.7285
 40
0.250
 50
0.0000
  1
NM
  7
STANDARD
  0
POINT
  8
2
 10
21.0599
 20
32.7285
  0
POINT
  8
2
 10
20.8949
 20
31.9943
  0
POLYLINE
  8
11
 66
1
 70
0
  0
VERTEX
  8
11
 10
16.1434
 20
34.2533
  0
VERTEX
  8
11
 10
15.8436
 20
34.3462
  0
SEQEND
  8
11
  0
POLYLINE
  8
86
 66
1
 70
0
  0
VERTEX
  8
86
 10
16.1434
 20
34.2533
  0
VERTEX
  8
86
 10
15.8436
 20
34.3462
  0
SEQEND
  8
86
  0
POINT
  8
2
 10
16.1434
 20
34.2533
  0
POINT
  8
2
 10
15.8436
 20
34.3462
  0
LINE
  8
10
 10
35.1494
 20
27.9635
 11
35.1494
 21
28.1404
  0
TEXT
  8
10
 10
35.1494
 20
27.9635
 40
0.250
 50
0.0000
  1
4
  7
STANDARD
  0
POINT
  8
2
 10
35.1494
 20
27.9635
  0
POINT
  8
2
 10
35.1494
 20
28.1404
  0
LINE
  8
10
 10
38.1687
 20
37.0871
 11
38.1687
 21
35.6732
  0
TEXT
  8
10
 10
38.1687
 20
37.0871
 40
0.250
 50
0.0000
  1
5
  7
STANDARD
  0
POINT
  8
2
 10
38.1687
 20
37.0871
  0
POINT
  8
2
 10
38.1687
 20
35.6732
  0
ENDBLK
  0
BLOCK
  8
0
  2
BUY-383396-STF-CL-HL-J-SH-04-R_40
 70
64
 10
0.0000
 20
0.0000
  0
TEXT
  8
1
 10
28.7334
 20
45.4683
 40
0.250
 50
0.0000
  1
Piece Name: BUY-383396-STF-CL-HL-J-SH-04-R
  7
STANDARD
  0
TEXT
  8
1
 10
28.7334
 20
45.6083
 40
0.250
 50
0.0000
  1
Quantity: 1,0
  7
STANDARD
  0
TEXT
  8
1
 10
28.7334
 20
45.7483
 40
0.250
 50
0.0000
  1
ANNOTATION
  7
STANDARD
  0
TEXT
  8
1
 10
28.7334
 20
45.8883
 40
0.250
 50
0.0000
  1
CATEGORY: 4
  7
STANDARD
  0
TEXT
  8
1
 10
28.7334
 20
46.0283
 40
0.250
 50
0.0000
  1
SIZE: 40
  7
STANDARD
  0
POLYLINE
  8
1
 66
1
 70
0
  0
VERTEX
  8
1
 10
37.0601
 20
42.5943
  0
VERTEX
  8
1
 10
36.2747
 20
42.6456
  0
VERTEX
  8
1
 10
35.4377
 20
42.7005
  0
VERTEX
  8
1
 10
34.4312
 20
42.7610
  0
VERTEX
  8
1
 10
33.5419
 20
42.8076
  0
VERTEX
  8
1
 10
33.5419
 20
42.8076
  0
VERTEX
  8
1
 10
32.4952
 20
42.8594
  0
VERTEX
  8
1
 10
30.7498
 20
42.8660
  0
VERTEX
  8
1
 10
28.4504
 20
42.7394
  0
VERTEX
  8
1
 10
25.7690
 20
42.4436
  0
VERTEX
  8
1
 10
23.1059
 20
42.0075
  0
VERTEX
  8
1
 10
23.1059
 20
42.0075
  0
VERTEX
  8
1
 10
21.5724
 20
41.7441
  0
VERTEX
  8
1
 10
19.1883
 20
41.3013
  0
VERTEX
  8
1
 10
19.1883
 20
41.3013
  0
VERTEX
  8
1
 10
17.6005
 20
40.7923
  0
SEQEND
  8
1
  0
POLYLINE
  8
84
 66
1
 70
0
  0
VERTEX
  8
84
 10
37.0601
 20
42.5943
  0
VERTEX
  8
84
 10
36.2747
 20
42.6456
  0
VERTEX
  8
84
 10
35.4377
 20
42.7005
  0
VERTEX
  8
84
 10
34.4312
 20
42.7610
  0
VERTEX
  8
84
 10
33.5419
 20
42.8076
  0
VERTEX
  8
84
 10
33.5419
 20
42.8076
  0
VERTEX
  8
84
 10
32.4952
 20
42.8594
  0
VERTEX
  8
84
 10
31.6225
 20
42.8738
  0
VERTEX
  8
84
 10
30.7498
 20
42.8660
  0
VERTEX
  8
84
 10
29.5992
 20
42.8187
  0
VERTEX
  8
84
 10
28.4504
 20
42.7394
  0
VERTEX
  8
84
 10
27.1078
 20
42.6091
  0
VERTEX
  8
84
 10
25.7690
 20
42.4436
  0
VERTEX
  8
84
 10
24.4362
 20
42.2341
  0
VERTEX
  8
84
 10
23.1059
 20
42.0075
  0
VERTEX
  8
84
 10
23.1059
 20
42.0075
  0
VERTEX
  8
84
 10
21.5724
 20
41.7441
  0
VERTEX
  8
84
 10
19.1883
 20
41.3013
  0
VERTEX
  8
84
 10
19.1883
 20
41.3013
  0
VERTEX
  8
84
 10
17.6005
 20
40.7923
  0
SEQEND
  8
84
  0
POINT
  8
2
 10
37.0601
 20
42.5943
  0
POINT
  8
3
 10
36.2747
 20
42.6456
  0
POINT
  8
3
 10
35.4377
 20
42.7005
  0
POINT
  8
3
 10
34.4312
 20
42.7610
  0
POINT
  8
2
 10
33.5419
 20
42.8076
  0
POINT
  8
4
 10
33.5419
 20
42.8076
 30
0.1181
 39
0.1771
 50
87.0824
  0
POINT
  8
2
 10
33.5419
 20
42.8076
  0
POINT
  8
3
 10
32.4952
 20
42.8594
  0
POINT
  8
3
 10
30.7498
 20
42.8660
  0
POINT
  8
3
 10
28.4504
 20
42.7394
  0
POINT
  8
3
 10
25.7690
 20
42.4436
  0
POINT
  8
2
 10
23.1059
 20
42.0075
  0
POINT
  8
4
 10
23.1059
 20
42.0075
 30
0.1181
 39
0.1771
 50
99.7063
  0
POINT
  8
2
 10
23.1059
 20
42.0075
  0
POINT
  8
3
 10
21.5724
 20
41.7441
  0
POINT
  8
2
 10
19.1883
 20
41.3013
  0
POINT
  8
4
 10
19.1883
 20
41.3013
 30
0.1181
 39
0.1771
 50
104.1460
  0
POINT
  8
2
 10
19.1883
 20
41.3013
  0
POINT
  8
2
 10
17.6005
 20
40.7923
  0
POLYLINE
  8
1
 66
1
 70
0
  0
VERTEX
  8
1
 10
17.6005
 20
40.7923
  0
VERTEX
  8
1
 10
17.1247
 20
41.0450
  0
SEQEND
  8
1
  0
POLYLINE
  8
84
 66
1
 70
0
  0
VERTEX
  8
84
 10
17.6005
 20
40.7923
  0
VERTEX
  8
84
 10
17.1247
 20
41.0450
  0
SEQEND
  8
84
  0
POINT
  8
2
 10
17.6005
 20
40.7923
  0
POINT
  8
2
 10
17.1247
 20
41.0450
  0
POLYLINE
  8
1
 66
1
 70
0
  0
VERTEX
  8
1
 10
17.1247
 20
41.0450
  0
VERTEX
  8
1
 10
15.5108
 20
47.5387
  0
SEQEND
  8
1
  0
POLYLINE
  8
84
 66
1
 70
0
  0
VERTEX
  8
84
 10
17.1247
 20
41.0450
  0
VERTEX
  8
84
 10
15.5108
 20
47.5387
  0
SEQEND
  8
84
  0
POINT
  8
2
 10
17.1247
 20
41.0450
  0
POINT
  8
2
 10
15.5108
 20
47.5387
  0
POLYLINE
  8
1
 66
1
 70
0
  0
VERTEX
  8
1
 10
15.5108
 20
47.5387
  0
VERTEX
  8
1
 10
17.5111
 20
48.0435
  0
VERTEX
  8
1
 10
17.5111
 20
48.0435
  0
VERTEX
  8
1
 10
21.4209
 20
49.0745
  0
SEQEND
  8
1
  0
POLYLINE
  8
84
 66
1
 70
0
  0
VERTEX
  8
84
 10
15.5108
 20
47.5387
  0
VERTEX
  8
84
 10
17.5111
 20
48.0435
  0
VERTEX
  8
84
 10
17.5111
 20
48.0435
  0
VERTEX
  8
84
 10
21.4209
 20
49.0745
  0
SEQEND
  8
84
  0
POINT
  8
2
 10
15.5108
 20
47.5387
  0
POINT
  8
2
 10
17.5111
 20
48.0435
  0
POINT
  8
4
 10
17.5111
 20
48.0435
 30
0.1181
 39
0.1771
 50
-75.5344
  0
POINT
  8
2
 10
17.5111
 20
48.0435
  0
POINT
  8
2
 10
21.4209
 20
49.0745
  0
POLYLINE
  8
1
 66
1
 70
0
  0
VERTEX
  8
1
 10
21.4209
 20
49.0745
  0
VERTEX
  8
1
 10
22.5184
 20
47.9422
  0
SEQEND
  8
1
  0
POLYLINE
  8
84
 66
1
 70
0
  0
VERTEX
  8
84
 10
21.4209
 20
49.0745
  0
VERTEX
  8
84
 10
22.5184
 20
47.9422
  0
SEQEND
  8
84
  0
POINT
  8
2
 10
21.4209
 20
49.0745
  0
POINT
  8
2
 10
22.5184
 20
47.9422
  0
POLYLINE
  8
1
 66
1
 70
0
  0
VERTEX
  8
1
 10
22.5184
 20
47.9422
  0
VERTEX
  8
1
 10
24.6810
 20
48.5071
  0
VERTEX
  8
1
 10
24.7030
 20
48.5125
  0
VERTEX
  8
1
 10
24.7030
 20
48.5125
  0
VERTEX
  8
1
 10
25.6682
 20
48.7513
  0
VERTEX
  8
1
 10
27.0150
 20
49.0544
  0
VERTEX
  8
1
 10
28.8995
 20
49.4191
  0
VERTEX
  8
1
 10
31.0955
 20
49.7630
  0
VERTEX
  8
1
 10
33.0983
 20
49.9888
  0
VERTEX
  8
1
 10
34.6266
 20
50.1044
  0
VERTEX
  8
1
 10
35.7209
 20
50.1444
  0
VERTEX
  8
1
 10
35.7209
 20
50.1444
  0
VERTEX
  8
1
 10
36.7773
 20
50.1141
  0
VERTEX
  8
1
 10
38.6593
 20
50.0405
  0
VERTEX
  8
1
 10
39.2170
 20
49.9992
  0
VERTEX
  8
1
 10
40.6692
 20
49.9170
  0
VERTEX
  8
1
 10
41.4104
 20
49.8683
  0
SEQEND
  8
1
  0
POLYLINE
  8
84
 66
1
 70
0
  0
VERTEX
  8
84
 10
22.5184
 20
47.9422
  0
VERTEX
  8
84
 10
24.6810
 20
48.5071
  0
VERTEX
  8
84
 10
24.7030
 20
48.5125
  0
VERTEX
  8
84
 10
24.7030
 20
48.5125
  0
VERTEX
  8
84
 10
25.6682
 20
48.7513
  0
VERTEX
  8
84
 10
27.0150
 20
49.0544
  0
VERTEX
  8
84
 10
27.9558
 20
49.2443
  0
VERTEX
  8
84
 10
28.8995
 20
49.4191
  0
VERTEX
  8
84
 10
29.9959
 20
49.6016
  0
VERTEX
  8
84
 10
31.0955
 20
49.7630
  0
VERTEX
  8
84
 10
32.0958
 20
49.8856
  0
VERTEX
  8
84
 10
33.0983
 20
49.9888
  0
VERTEX
  8
84
 10
33.8619
 20
50.0536
  0
VERTEX
  8
84
 10
34.6266
 20
50.1044
  0
VERTEX
  8
84
 10
35.7209
 20
50.1444
  0
VERTEX
  8
84
 10
35.7209
 20
50.1444
  0
VERTEX
  8
84
 10
36.7773
 20
50.1141
  0
VERTEX
  8
84
 10
38.6593
 20
50.0405
  0
VERTEX
  8
84
 10
39.2170
 20
49.9992
  0
VERTEX
  8
84
 10
40.6692
 20
49.9170
  0
VERTEX
  8
84
 10
41.4104
 20
49.8683
  0
SEQEND
  8
84
  0
POINT
  8
2
 10
22.5184
 20
47.9422
  0
POINT
  8
2
 10
24.6810
 20
48.5071
  0
POINT
  8
2
 10
24.7030
 20
48.5125
  0
POINT
  8
4
 10
24.7030
 20
48.5125
 30
0.1181
 39
0.1771
 50
-76.1555
  0
POINT
  8
2
 10
24.7030
 20
48.5125
  0
POINT
  8
3
 10
25.6682
 20
48.7513
  0
POINT
  8
3
 10
27.0150
 20
49.0544
  0
POINT
  8
3
 10
28.8995
 20
49.4191
  0
POINT
  8
3
 10
31.0955
 20
49.7630
  0
POINT
  8
3
 10
33.0983
 20
49.9888
  0
POINT
  8
3
 10
34.6266
 20
50.1044
  0
POINT
  8
2
 10
35.7209
 20
50.1444
  0
POINT
  8
4
 10
35.7209
 20
50.1444
 30
0.1181
 39
0.1771
 50
-89.7765
  0
POINT
  8
2
 10
35.7209
 20
50.1444
  0
POINT
  8
3
 10
36.7773
 20
50.1141
  0
POINT
  8
3
 10
38.6593
 20
50.0405
  0
POINT
  8
3
 10
39.2170
 20
49.9992
  0
POINT
  8
3
 10
40.6692
 20
49.9170
  0
POINT
  8
2
 10
41.4104
 20
49.8683
  0
POLYLINE
  8
1
 66
1
 70
0
  0
VERTEX
  8
1
 10
41.4104
 20
49.8683
  0
VERTEX
  8
1
 10
41.9560
 20
49.4192
  0
SEQEND
  8
1
  0
POLYLINE
  8
84
 66
1
 70
0
  0
VERTEX
  8
84
 10
41.4104
 20
49.8683
  0
VERTEX
  8
84
 10
41.9560
 20
49.4192
  0
SEQEND
  8
84
  0
POINT
  8
2
 10
41.4104
 20
49.8683
  0
POINT
  8
2
 10
41.9560
 20
49.4192
  0
POLYLINE
  8
1
 66
1
 70
0
  0
VERTEX
  8
1
 10
41.9560
 20
49.4192
  0
VERTEX
  8
1
 10
40.6980
 20
48.6192
  0
VERTEX
  8
1
 10
40.2605
 20
48.3407
  0
VERTEX
  8
1
 10
40.2605
 20
48.3407
  0
VERTEX
  8
1
 10
40.2277
 20
48.3199
  0
VERTEX
  8
1
 10
40.0247
 20
48.2018
  0
VERTEX
  8
1
 10
39.8400
 20
48.1016
  0
VERTEX
  8
1
 10
39.4878
 20
47.8932
  0
VERTEX
  8
1
 10
39.3866
 20
47.8366
  0
VERTEX
  8
1
 10
38.8277
 20
47.5022
  0
VERTEX
  8
1
 10
38.5294
 20
47.3049
  0
VERTEX
  8
1
 10
38.2650
 20
47.1006
  0
VERTEX
  8
1
 10
38.0266
 20
46.8998
  0
VERTEX
  8
1
 10
37.8107
 20
46.6975
  0
VERTEX
  8
1
 10
37.6339
 20
46.4658
  0
VERTEX
  8
1
 10
37.4582
 20
46.1826
  0
VERTEX
  8
1
 10
37.3415
 20
45.9412
  0
VERTEX
  8
1
 10
37.2430
 20
45.6918
  0
VERTEX
  8
1
 10
37.1507
 20
45.3338
  0
VERTEX
  8
1
 10
37.1507
 20
45.3338
  0
VERTEX
  8
1
 10
37.0896
 20
44.8751
  0
VERTEX
  8
1
 10
37.0644
 20
44.4521
  0
VERTEX
  8
1
 10
37.0737
 20
44.0761
  0
VERTEX
  8
1
 10
37.0941
 20
43.7811
  0
VERTEX
  8
1
 10
37.2186
 20
42.9393
  0
VERTEX
  8
1
 10
37.0601
 20
42.5943
  0
SEQEND
  8
1
  0
POLYLINE
  8
84
 66
1
 70
0
  0
VERTEX
  8
84
 10
41.9560
 20
49.4192
  0
VERTEX
  8
84
 10
40.6980
 20
48.6192
  0
VERTEX
  8
84
 10
40.2605
 20
48.3407
  0
VERTEX
  8
84
 10
40.2605
 20
48.3407
  0
VERTEX
  8
84
 10
40.2277
 20
48.3199
  0
VERTEX
  8
84
 10
40.0247
 20
48.2018
  0
VERTEX
  8
84
 10
39.8400
 20
48.1016
  0
VERTEX
  8
84
 10
39.4878
 20
47.8932
  0
VERTEX
  8
84
 10
39.3866
 20
47.8366
  0
VERTEX
  8
84
 10
38.8277
 20
47.5022
  0
VERTEX
  8
84
 10
38.5294
 20
47.3049
  0
VERTEX
  8
84
 10
38.2650
 20
47.1006
  0
VERTEX
  8
84
 10
38.0266
 20
46.8998
  0
VERTEX
  8
84
 10
37.8107
 20
46.6975
  0
VERTEX
  8
84
 10
37.6339
 20
46.4658
  0
VERTEX
  8
84
 10
37.4582
 20
46.1826
  0
VERTEX
  8
84
 10
37.3415
 20
45.9412
  0
VERTEX
  8
84
 10
37.2430
 20
45.6918
  0
VERTEX
  8
84
 10
37.1507
 20
45.3338
  0
VERTEX
  8
84
 10
37.1507
 20
45.3338
  0
VERTEX
  8
84
 10
37.0896
 20
44.8751
  0
VERTEX
  8
84
 10
37.0644
 20
44.4521
  0
VERTEX
  8
84
 10
37.0737
 20
44.0761
  0
VERTEX
  8
84
 10
37.0941
 20
43.7811
  0
VERTEX
  8
84
 10
37.2186
 20
42.9393
  0
VERTEX
  8
84
 10
37.0601
 20
42.5943
  0
SEQEND
  8
84
  0
POINT
  8
2
 10
41.9560
 20
49.4192
  0
POINT
  8
3
 10
40.6980
 20
48.6192
  0
POINT
  8
3
 10
40.2605
 20
48.3407
  0
POINT
  8
4
 10
40.2605
 20
48.3407
 30
0.1181
 39
0.1771
 50
122.4330
  0
POINT
  8
2
 10
40.2605
 20
48.3407
  0
POINT
  8
3
 10
40.2277
 20
48.3199
  0
POINT
  8
3
 10
40.0247
 20
48.2018
  0
POINT
  8
3
 10
39.8400
 20
48.1016
  0
POINT
  8
4
 10
39.4878
 20
47.8932
 30
0.1181
 39
0.1771
  0
POINT
  8
3
 10
39.4878
 20
47.8932
  0
POINT
  8
3
 10
39.3866
 20
47.8366
  0
POINT
  8
3
 10
38.8277
 20
47.5022
  0
POINT
  8
3
 10
38.5294
 20
47.3049
  0
POINT
  8
3
 10
38.2650
 20
47.1006
  0
POINT
  8
3
 10
38.0266
 20
46.8998
  0
POINT
  8
3
 10
37.8107
 20
46.6975
  0
POINT
  8
3
 10
37.6339
 20
46.4658
  0
POINT
  8
3
 10
37.4582
 20
46.1826
  0
POINT
  8
3
 10
37.3415
 20
45.9412
  0
POINT
  8
3
 10
37.2430
 20
45.6918
  0
POINT
  8
2
 10
37.1507
 20
45.3338
  0
POINT
  8
4
 10
37.1507
 20
45.3338
 30
0.1181
 39
0.1771
 50
168.9777
  0
POINT
  8
2
 10
37.1507
 20
45.3338
  0
POINT
  8
3
 10
37.0896
 20
44.8751
  0
POINT
  8
3
 10
37.0644
 20
44.4521
  0
POINT
  8
3
 10
37.0737
 20
44.0761
  0
POINT
  8
3
 10
37.0941
 20
43.7811
  0
POINT
  8
2
 10
37.2186
 20
42.9393
  0
POINT
  8
2
 10
37.0601
 20
42.5943
  0
LINE
  8
7
 10
23.4094
 20
45.6590
 11
35.4526
 21
45.6590
  0
LINE
  8
5
 10
23.4094
 20
45.6590
 11
35.4526
 21
45.6590
  0
POINT
  8
2
 10
23.4094
 20
45.6590
  0
POINT
  8
2
 10
35.4526
 20
45.6590
  0
LINE
  8
8
 10
35.7020
 20
49.7133
 11
35.7021
 21
43.0780
  0
POLYLINE
  8
85
 66
1
 70
0
  0
VERTEX
  8
85
 10
35.7020
 20
49.7133
  0
VERTEX
  8
85
 10
35.7021
 20
43.0780
  0
SEQEND
  8
85
  0
TEXT
  8
8
 10
35.7020
 20
49.7133
 40
0.250
 50
0.0000
  1
NM
  7
STANDARD
  0
TEXT
  8
85
 10
35.7020
 20
49.7133
 40
0.250
 50
0.0000
  1
NM
  7
STANDARD
  0
POINT
  8
2
 10
35.7020
 20
49.7133
  0
POINT
  8
2
 10
35.7021
 20
43.0780
  0
LINE
  8
8
 10
19.0928
 20
41.6802
 11
17.9107
 21
46.3198
  0
POLYLINE
  8
85
 66
1
 70
0
  0
VERTEX
  8
85
 10
19.0928
 20
41.6802
  0
VERTEX
  8
85
 10
17.9107
 20
46.3198
  0
SEQEND
  8
85
  0
TEXT
  8
8
 10
19.0928
 20
41.6802
 40
0.250
 50
0.0000
  1
NM
  7
STANDARD
  0
TEXT
  8
85
 10
19.0928
 20
41.6802
 40
0.250
 50
0.0000
  1
NM
  7
STANDARD
  0
POINT
  8
2
 10
19.0928
 20
41.6802
  0
POINT
  8
2
 10
17.9107
 20
46.3198
  0
LINE
  8
10
 10
35.7213
 20
49.9783
 11
35.7213
 21
49.8255
  0
TEXT
  8
10
 10
35.7213
 20
49.9783
 40
0.250
 50
0.0000
  1
4
  7
STANDARD
  0
POINT
  8
2
 10
35.7213
 20
49.9783
  0
POINT
  8
2
 10
35.7213
 20
49.8255
  0
ENDBLK
  0
BLOCK
  8
0
  2
BUY-383396-STF-CL-HL-J-SH-07_40
 70
64
 10
0.0000
 20
0.0000
  0
TEXT
  8
1
 10
53.7051
 20
65.9667
 40
0.250
 50
0.0000
  1
Piece Name: BUY-383396-STF-CL-HL-J-SH-07
  7
STANDARD
  0
TEXT
  8
1
 10
53.7051
 20
66.1067
 40
0.250
 50
0.0000
  1
Quantity: 1,0
  7
STANDARD
  0
TEXT
  8
1
 10
53.7051
 20
66.2467
 40
0.250
 50
0.0000
  1
ANNOTATION
  7
STANDARD
  0
TEXT
  8
1
 10
53.7051
 20
66.3867
 40
0.250
 50
0.0000
  1
CATEGORY: 8
  7
STANDARD
  0
TEXT
  8
1
 10
53.7051
 20
66.5267
 40
0.250
 50
0.0000
  1
SIZE: 40
  7
STANDARD
  0
POLYLINE
  8
1
 66
1
 70
0
  0
VERTEX
  8
1
 10
52.2527
 20
59.1189
  0
VERTEX
  8
1
 10
52.2504
 20
59.4618
  0
VERTEX
  8
1
 10
52.2474
 20
59.8854
  0
VERTEX
  8
1
 10
52.2403
 20
60.2925
  0
VERTEX
  8
1
 10
52.2142
 20
60.7243
  0
VERTEX
  8
1
 10
52.1732
 20
61.1486
  0
VERTEX
  8
1
 10
52.1096
 20
61.6362
  0
VERTEX
  8
1
 10
52.0737
 20
61.9105
  0
VERTEX
  8
1
 10
51.9823
 20
62.6526
  0
VERTEX
  8
1
 10
51.9208
 20
63.3365
  0
VERTEX
  8
1
 10
51.8773
 20
63.9364
  0
VERTEX
  8
1
 10
51.8474
 20
64.5800
  0
VERTEX
  8
1
 10
51.8293
 20
65.3063
  0
VERTEX
  8
1
 10
51.8196
 20
65.9668
  0
VERTEX
  8
1
 10
51.8196
 20
65.9668
  0
VERTEX
  8
1
 10
51.8293
 20
66.6272
  0
VERTEX
  8
1
 10
51.8474
 20
67.3535
  0
VERTEX
  8
1
 10
51.8773
 20
67.9972
  0
VERTEX
  8
1
 10
51.9208
 20
68.5971
  0
VERTEX
  8
1
 10
51.9823
 20
69.2810
  0
VERTEX
  8
1
 10
52.0737
 20
70.0230
  0
VERTEX
  8
1
 10
52.1096
 20
70.2973
  0
VERTEX
  8
1
 10
52.1732
 20
70.7849
  0
VERTEX
  8
1
 10
52.2142
 20
71.2092
  0
VERTEX
  8
1
 10
52.2403
 20
71.6410
  0
VERTEX
  8
1
 10
52.2474
 20
72.0481
  0
VERTEX
  8
1
 10
52.2504
 20
72.4718
  0
VERTEX
  8
1
 10
52.2527
 20
72.8147
  0
SEQEND
  8
1
  0
POLYLINE
  8
84
 66
1
 70
0
  0
VERTEX
  8
84
 10
52.2527
 20
59.1189
  0
VERTEX
  8
84
 10
52.2504
 20
59.4618
  0
VERTEX
  8
84
 10
52.2474
 20
59.8854
  0
VERTEX
  8
84
 10
52.2403
 20
60.2925
  0
VERTEX
  8
84
 10
52.2142
 20
60.7243
  0
VERTEX
  8
84
 10
52.1732
 20
61.1486
  0
VERTEX
  8
84
 10
52.1096
 20
61.6362
  0
VERTEX
  8
84
 10
52.0737
 20
61.9105
  0
VERTEX
  8
84
 10
51.9823
 20
62.6526
  0
VERTEX
  8
84
 10
51.9208
 20
63.3365
  0
VERTEX
  8
84
 10
51.8773
 20
63.9364
  0
VERTEX
  8
84
 10
51.8474
 20
64.5800
  0
VERTEX
  8
84
 10
51.8293
 20
65.3063
  0
VERTEX
  8
84
 10
51.8196
 20
65.9668
  0
VERTEX
  8
84
 10
51.8196
 20
65.9668
  0
VERTEX
  8
84
 10
51.8293
 20
66.6272
  0
VERTEX
  8
84
 10
51.8474
 20
67.3535
  0
VERTEX
  8
84
 10
51.8773
 20
67.9972
  0
VERTEX
  8
84
 10
51.9208
 20
68.5971
  0
VERTEX
  8
84
 10
51.9823
 20
69.2810
  0
VERTEX
  8
84
 10
52.0737
 20
70.0230
  0
VERTEX
  8
84
 10
52.1096
 20
70.2973
  0
VERTEX
  8
84
 10
52.1732
 20
70.7849
  0
VERTEX
  8
84
 10
52.2142
 20
71.2092
  0
VERTEX
  8
84
 10
52.2403
 20
71.6410
  0
VERTEX
  8
84
 10
52.2474
 20
72.0481
  0
VERTEX
  8
84
 10
52.2504
 20
72.4718
  0
VERTEX
  8
84
 10
52.2527
 20
72.8147
  0
SEQEND
  8
84
  0
POINT
  8
2
 10
52.2527
 20
59.1189
  0
POINT
  8
4
 10
52.2504
 20
59.4618
 30
0.1181
 39
0.0000
 50
-22.8623
  0
POINT
  8
3
 10
52.2504
 20
59.4618
  0
POINT
  8
3
 10
52.2474
 20
59.8854
  0
POINT
  8
3
 10
52.2403
 20
60.2925
  0
POINT
  8
3
 10
52.2142
 20
60.7243
  0
POINT
  8
2
 10
52.1732
 20
61.1486
  0
POINT
  8
4
 10
52.1096
 20
61.6362
 30
0.1181
 39
0.0000
  0
POINT
  8
3
 10
52.1096
 20
61.6362
  0
POINT
  8
3
 10
52.0737
 20
61.9105
  0
POINT
  8
3
 10
51.9823
 20
62.6526
  0
POINT
  8
3
 10
51.9208
 20
63.3365
  0
POINT
  8
3
 10
51.8773
 20
63.9364
  0
POINT
  8
4
 10
51.8474
 20
64.5800
 30
0.1181
 39
0.0000
  0
POINT
  8
3
 10
51.8474
 20
64.5800
  0
POINT
  8
3
 10
51.8293
 20
65.3063
  0
POINT
  8
2
 10
51.8196
 20
65.9668
  0
POINT
  8
4
 10
51.8196
 20
65.9668
 30
0.1181
 39
0.0000
  0
POINT
  8
2
 10
51.8196
 20
65.9668
  0
POINT
  8
3
 10
51.8293
 20
66.6272
  0
POINT
  8
4
 10
51.8474
 20
67.3535
 30
0.1181
 39
0.0000
  0
POINT
  8
3
 10
51.8474
 20
67.3535
  0
POINT
  8
3
 10
51.8773
 20
67.9972
  0
POINT
  8
3
 10
51.9208
 20
68.5971
  0
POINT
  8
3
 10
51.9823
 20
69.2810
  0
POINT
  8
3
 10
52.0737
 20
70.0230
  0
POINT
  8
4
 10
52.1096
 20
70.2973
 30
0.1181
 39
0.0000
  0
POINT
  8
3
 10
52.1096
 20
70.2973
  0
POINT
  8
2
 10
52.1732
 20
70.7849
  0
POINT
  8
3
 10
52.2142
 20
71.2092
  0
POINT
  8
3
 10
52.2403
 20
71.6410
  0
POINT
  8
3
 10
52.2474
 20
72.0481
  0
POINT
  8
4
 10
52.2504
 20
72.4718
 30
0.1181
 39
0.0000
 50
22.8623
  0
POINT
  8
3
 10
52.2504
 20
72.4718
  0
POINT
  8
2
 10
52.2527
 20
72.8147
  0
POLYLINE
  8
1
 66
1
 70
0
  0
VERTEX
  8
1
 10
52.2527
 20
72.8147
  0
VERTEX
  8
1
 10
54.0854
 20
73.5865
  0
SEQEND
  8
1
  0
POLYLINE
  8
84
 66
1
 70
0
  0
VERTEX
  8
84
 10
52.2527
 20
72.8147
  0
VERTEX
  8
84
 10
54.0854
 20
73.5865
  0
SEQEND
  8
84
  0
POINT
  8
2
 10
52.2527
 20
72.8147
  0
POINT
  8
2
 10
54.0854
 20
73.5865
  0
POLYLINE
  8
1
 66
1
 70
0
  0
VERTEX
  8
1
 10
54.0854
 20
73.5865
  0
VERTEX
  8
1
 10
54.2586
 20
73.3176
  0
VERTEX
  8
1
 10
55.5906
 20
71.2464
  0
SEQEND
  8
1
  0
POLYLINE
  8
84
 66
1
 70
0
  0
VERTEX
  8
84
 10
54.0854
 20
73.5865
  0
VERTEX
  8
84
 10
54.2586
 20
73.3176
  0
VERTEX
  8
84
 10
55.5906
 20
71.2464
  0
SEQEND
  8
84
  0
POINT
  8
2
 10
54.0854
 20
73.5865
  0
POINT
  8
4
 10
54.2586
 20
73.3176
 30
0.1181
 39
0.0000
 50
-157.1889
  0
POINT
  8
3
 10
54.2586
 20
73.3176
  0
POINT
  8
2
 10
55.5906
 20
71.2464
  0
POLYLINE
  8
1
 66
1
 70
0
  0
VERTEX
  8
1
 10
55.5906
 20
71.2464
  0
VERTEX
  8
1
 10
55.3660
 20
70.7267
  0
VERTEX
  8
1
 10
55.2088
 20
70.3396
  0
VERTEX
  8
1
 10
55.2088
 20
70.3396
  0
VERTEX
  8
1
 10
55.0905
 20
69.9951
  0
VERTEX
  8
1
 10
54.9518
 20
69.5743
  0
VERTEX
  8
1
 10
54.8294
 20
69.1524
  0
VERTEX
  8
1
 10
54.7272
 20
68.7207
  0
VERTEX
  8
1
 10
54.6495
 20
68.2603
  0
VERTEX
  8
1
 10
54.6010
 20
67.7712
  0
VERTEX
  8
1
 10
54.5806
 20
67.3343
  0
VERTEX
  8
1
 10
54.5673
 20
66.6842
  0
VERTEX
  8
1
 10
54.5572
 20
65.9668
  0
VERTEX
  8
1
 10
54.5572
 20
65.9668
  0
VERTEX
  8
1
 10
54.5673
 20
65.2493
  0
VERTEX
  8
1
 10
54.5806
 20
64.5992
  0
VERTEX
  8
1
 10
54.6010
 20
64.1623
  0
VERTEX
  8
1
 10
54.6495
 20
63.6732
  0
VERTEX
  8
1
 10
54.7272
 20
63.2128
  0
VERTEX
  8
1
 10
54.8294
 20
62.7811
  0
VERTEX
  8
1
 10
54.9518
 20
62.3593
  0
VERTEX
  8
1
 10
55.0905
 20
61.9384
  0
VERTEX
  8
1
 10
55.2088
 20
61.5939
  0
VERTEX
  8
1
 10
55.2088
 20
61.5939
  0
VERTEX
  8
1
 10
55.3660
 20
61.2069
  0
VERTEX
  8
1
 10
55.5906
 20
60.6871
  0
SEQEND
  8
1
  0
POLYLINE
  8
84
 66
1
 70
0
  0
VERTEX
  8
84
 10
55.5906
 20
71.2464
  0
VERTEX
  8
84
 10
55.3660
 20
70.7267
  0
VERTEX
  8
84
 10
55.2088
 20
70.3396
  0
VERTEX
  8
84
 10
55.2088
 20
70.3396
  0
VERTEX
  8
84
 10
55.0905
 20
69.9951
  0
VERTEX
  8
84
 10
54.9518
 20
69.5743
  0
VERTEX
  8
84
 10
54.8294
 20
69.1524
  0
VERTEX
  8
84
 10
54.7272
 20
68.7207
  0
VERTEX
  8
84
 10
54.6495
 20
68.2603
  0
VERTEX
  8
84
 10
54.6010
 20
67.7712
  0
VERTEX
  8
84
 10
54.5806
 20
67.3343
  0
VERTEX
  8
84
 10
54.5673
 20
66.6842
  0
VERTEX
  8
84
 10
54.5572
 20
65.9668
  0
VERTEX
  8
84
 10
54.5572
 20
65.9668
  0
VERTEX
  8
84
 10
54.5673
 20
65.2493
  0
VERTEX
  8
84
 10
54.5806
 20
64.5992
  0
VERTEX
  8
84
 10
54.6010
 20
64.1623
  0
VERTEX
  8
84
 10
54.6495
 20
63.6732
  0
VERTEX
  8
84
 10
54.7272
 20
63.2128
  0
VERTEX
  8
84
 10
54.8294
 20
62.7811
  0
VERTEX
  8
84
 10
54.9518
 20
62.3593
  0
VERTEX
  8
84
 10
55.0905
 20
61.9384
  0
VERTEX
  8
84
 10
55.2088
 20
61.5939
  0
VERTEX
  8
84
 10
55.2088
 20
61.5939
  0
VERTEX
  8
84
 10
55.3660
 20
61.2069
  0
VERTEX
  8
84
 10
55.5906
 20
60.6871
  0
SEQEND
  8
84
  0
POINT
  8
2
 10
55.5906
 20
71.2464
  0
POINT
  8
3
 10
55.3660
 20
70.7267
  0
POINT
  8
3
 10
55.2088
 20
70.3396
  0
POINT
  8
4
 10
55.2088
 20
70.3396
 30
0.1181
 39
0.0000
 50
159.4701
  0
POINT
  8
2
 10
55.2088
 20
70.3396
  0
POINT
  8
3
 10
55.0905
 20
69.9951
  0
POINT
  8
3
 10
54.9518
 20
69.5743
  0
POINT
  8
3
 10
54.8294
 20
69.1524
  0
POINT
  8
3
 10
54.7272
 20
68.7207
  0
POINT
  8
3
 10
54.6495
 20
68.2603
  0
POINT
  8
3
 10
54.6010
 20
67.7712
  0
POINT
  8
4
 10
54.5806
 20
67.3343
 30
0.1181
 39
0.0000
  0
POINT
  8
3
 10
54.5806
 20
67.3343
  0
POINT
  8
3
 10
54.5673
 20
66.6842
  0
POINT
  8
2
 10
54.5572
 20
65.9668
  0
POINT
  8
4
 10
54.5572
 20
65.9668
 30
0.1181
 39
0.0000
  0
POINT
  8
2
 10
54.5572
 20
65.9668
  0
POINT
  8
3
 10
54.5673
 20
65.2493
  0
POINT
  8
4
 10
54.5806
 20
64.5992
 30
0.1181
 39
0.0000
  0
POINT
  8
3
 10
54.5806
 20
64.5992
  0
POINT
  8
3
 10
54.6010
 20
64.1623
  0
POINT
  8
3
 10
54.6495
 20
63.6732
  0
POINT
  8
3
 10
54.7272
 20
63.2128
  0
POINT
  8
3
 10
54.8294
 20
62.7811
  0
POINT
  8
3
 10
54.9518
 20
62.3593
  0
POINT
  8
3
 10
55.0905
 20
61.9384
  0
POINT
  8
3
 10
55.2088
 20
61.5939
  0
POINT
  8
4
 10
55.2088
 20
61.5939
 30
0.1181
 39
0.0000
 50
-159.4701
  0
POINT
  8
2
 10
55.2088
 20
61.5939
  0
POINT
  8
3
 10
55.3660
 20
61.2069
  0
POINT
  8
2
 10
55.5906
 20
60.6871
  0
POLYLINE
  8
1
 66
1
 70
0
  0
VERTEX
  8
1
 10
55.5906
 20
60.6871
  0
VERTEX
  8
1
 10
54.2586
 20
58.6159
  0
VERTEX
  8
1
 10
54.0854
 20
58.3470
  0
SEQEND
  8
1
  0
POLYLINE
  8
84
 66
1
 70
0
  0
VERTEX
  8
84
 10
55.5906
 20
60.6871
  0
VERTEX
  8
84
 10
54.2586
 20
58.6159
  0
VERTEX
  8
84
 10
54.0854
 20
58.3470
  0
SEQEND
  8
84
  0
POINT
  8
2
 10
55.5906
 20
60.6871
  0
POINT
  8
4
 10
54.2586
 20
58.6159
 30
0.1181
 39
0.0000
 50
157.1889
  0
POINT
  8
3
 10
54.2586
 20
58.6159
  0
POINT
  8
2
 10
54.0854
 20
58.3470
  0
POLYLINE
  8
1
 66
1
 70
0
  0
VERTEX
  8
1
 10
54.0854
 20
58.3470
  0
VERTEX
  8
1
 10
52.2527
 20
59.1189
  0
SEQEND
  8
1
  0
POLYLINE
  8
84
 66
1
 70
0
  0
VERTEX
  8
84
 10
54.0854
 20
58.3470
  0
VERTEX
  8
84
 10
52.2527
 20
59.1189
  0
SEQEND
  8
84
  0
POINT
  8
2
 10
54.0854
 20
58.3470
  0
POINT
  8
2
 10
52.2527
 20
59.1189
  0
LINE
  8
7
 10
52.9131
 20
69.5647
 11
54.4701
 21
69.5647
  0
LINE
  8
5
 10
52.9131
 20
69.5647
 11
54.4701
 21
69.5647
  0
POINT
  8
2
 10
52.9131
 20
69.5647
  0
POINT
  8
2
 10
54.4701
 20
69.5647
  0
LINE
  8
8
 10
54.3210
 20
65.9668
 11
52.1347
 21
65.9668
  0
POLYLINE
  8
85
 66
1
 70
0
  0
VERTEX
  8
85
 10
54.3210
 20
65.9668
  0
VERTEX
  8
85
 10
52.1347
 20
65.9668
  0
SEQEND
  8
85
  0
TEXT
  8
8
 10
54.3210
 20
65.9668
 40
0.250
 50
0.0000
  1
W
  7
STANDARD
  0
TEXT
  8
85
 10
54.3210
 20
65.9668
 40
0.250
 50
0.0000
  1
W
  7
STANDARD
  0
POINT
  8
2
 10
54.3210
 20
65.9668
  0
POINT
  8
2
 10
52.1347
 20
65.9668
  0
ENDBLK
  0
BLOCK
  8
0
  2
BUY-383396-STF-CL-HL-J-SH-08_40
 70
64
 10
0.0000
 20
0.0000
  0
TEXT
  8
1
 10
48.2968
 20
65.1320
 40
0.250
 50
0.0000
  1
Piece Name: BUY-383396-STF-CL-HL-J-SH-08
  7
STANDARD
  0
TEXT
  8
1
 10
48.2968
 20
65.2720
 40
0.250
 50
0.0000
  1
Quantity: 1,0
  7
STANDARD
  0
TEXT
  8
1
 10
48.2968
 20
65.4120
 40
0.250
 50
0.0000
  1
ANNOTATION
  7
STANDARD
  0
TEXT
  8
1
 10
48.2968
 20
65.5520
 40
0.250
 50
0.0000
  1
CATEGORY: 9
  7
STANDARD
  0
TEXT
  8
1
 10
48.2968
 20
65.6920
 40
0.250
 50
0.0000
  1
SIZE: 40
  7
STANDARD
  0
POLYLINE
  8
1
 66
1
 70
0
  0
VERTEX
  8
1
 10
47.1703
 20
59.5413
  0
VERTEX
  8
1
 10
47.3241
 20
60.0791
  0
VERTEX
  8
1
 10
47.4365
 20
60.4888
  0
VERTEX
  8
1
 10
47.4365
 20
60.4888
  0
VERTEX
  8
1
 10
47.6229
 20
61.3108
  0
VERTEX
  8
1
 10
47.7663
 20
62.0451
  0
VERTEX
  8
1
 10
47.8564
 20
62.7001
  0
VERTEX
  8
1
 10
47.9181
 20
63.2589
  0
VERTEX
  8
1
 10
47.9628
 20
63.7631
  0
VERTEX
  8
1
 10
47.9855
 20
64.4144
  0
VERTEX
  8
1
 10
48.0058
 20
65.1320
  0
VERTEX
  8
1
 10
48.0058
 20
65.1320
  0
VERTEX
  8
1
 10
47.9855
 20
65.8496
  0
VERTEX
  8
1
 10
47.9628
 20
66.5010
  0
VERTEX
  8
1
 10
47.9181
 20
67.0052
  0
VERTEX
  8
1
 10
47.8564
 20
67.5640
  0
VERTEX
  8
1
 10
47.7663
 20
68.2190
  0
VERTEX
  8
1
 10
47.6229
 20
68.9533
  0
VERTEX
  8
1
 10
47.4365
 20
69.7752
  0
VERTEX
  8
1
 10
47.4365
 20
69.7752
  0
VERTEX
  8
1
 10
47.3241
 20
70.1850
  0
VERTEX
  8
1
 10
47.1703
 20
70.7228
  0
SEQEND
  8
1
  0
POLYLINE
  8
84
 66
1
 70
0
  0
VERTEX
  8
84
 10
47.1703
 20
59.5413
  0
VERTEX
  8
84
 10
47.3241
 20
60.0791
  0
VERTEX
  8
84
 10
47.4365
 20
60.4888
  0
VERTEX
  8
84
 10
47.4365
 20
60.4888
  0
VERTEX
  8
84
 10
47.6229
 20
61.3108
  0
VERTEX
  8
84
 10
47.7663
 20
62.0451
  0
VERTEX
  8
84
 10
47.8564
 20
62.7001
  0
VERTEX
  8
84
 10
47.9181
 20
63.2589
  0
VERTEX
  8
84
 10
47.9628
 20
63.7631
  0
VERTEX
  8
84
 10
47.9855
 20
64.4144
  0
VERTEX
  8
84
 10
48.0058
 20
65.1320
  0
VERTEX
  8
84
 10
48.0058
 20
65.1320
  0
VERTEX
  8
84
 10
47.9855
 20
65.8496
  0
VERTEX
  8
84
 10
47.9628
 20
66.5010
  0
VERTEX
  8
84
 10
47.9181
 20
67.0052
  0
VERTEX
  8
84
 10
47.8564
 20
67.5640
  0
VERTEX
  8
84
 10
47.7663
 20
68.2190
  0
VERTEX
  8
84
 10
47.6229
 20
68.9533
  0
VERTEX
  8
84
 10
47.4365
 20
69.7752
  0
VERTEX
  8
84
 10
47.4365
 20
69.7752
  0
VERTEX
  8
84
 10
47.3241
 20
70.1850
  0
VERTEX
  8
84
 10
47.1703
 20
70.7228
  0
SEQEND
  8
84
  0
POINT
  8
2
 10
47.1703
 20
59.5413
  0
POINT
  8
3
 10
47.3241
 20
60.0791
  0
POINT
  8
3
 10
47.4365
 20
60.4888
  0
POINT
  8
4
 10
47.4365
 20
60.4888
 30
0.1181
 39
0.0000
 50
-14.0585
  0
POINT
  8
2
 10
47.4365
 20
60.4888
  0
POINT
  8
3
 10
47.6229
 20
61.3108
  0
POINT
  8
3
 10
47.7663
 20
62.0451
  0
POINT
  8
3
 10
47.8564
 20
62.7001
  0
POINT
  8
3
 10
47.9181
 20
63.2589
  0
POINT
  8
4
 10
47.9628
 20
63.7631
 30
0.1181
 39
0.0000
  0
POINT
  8
3
 10
47.9628
 20
63.7631
  0
POINT
  8
3
 10
47.9855
 20
64.4144
  0
POINT
  8
2
 10
48.0058
 20
65.1320
  0
POINT
  8
4
 10
48.0058
 20
65.1320
 30
0.1181
 39
0.0000
  0
POINT
  8
2
 10
48.0058
 20
65.1320
  0
POINT
  8
3
 10
47.9855
 20
65.8496
  0
POINT
  8
4
 10
47.9628
 20
66.5010
 30
0.1181
 39
0.0000
  0
POINT
  8
3
 10
47.9628
 20
66.5010
  0
POINT
  8
3
 10
47.9181
 20
67.0052
  0
POINT
  8
3
 10
47.8564
 20
67.5640
  0
POINT
  8
3
 10
47.7663
 20
68.2190
  0
POINT
  8
3
 10
47.6229
 20
68.9533
  0
POINT
  8
3
 10
47.4365
 20
69.7752
  0
POINT
  8
4
 10
47.4365
 20
69.7752
 30
0.1181
 39
0.0000
 50
14.0571
  0
POINT
  8
2
 10
47.4365
 20
69.7752
  0
POINT
  8
3
 10
47.3241
 20
70.1850
  0
POINT
  8
2
 10
47.1703
 20
70.7228
  0
POLYLINE
  8
1
 66
1
 70
0
  0
VERTEX
  8
1
 10
47.1703
 20
70.7228
  0
VERTEX
  8
1
 10
47.3594
 20
70.9539
  0
SEQEND
  8
1
  0
POLYLINE
  8
84
 66
1
 70
0
  0
VERTEX
  8
84
 10
47.1703
 20
70.7228
  0
VERTEX
  8
84
 10
47.3594
 20
70.9539
  0
SEQEND
  8
84
  0
POINT
  8
2
 10
47.1703
 20
70.7228
  0
POINT
  8
2
 10
47.3594
 20
70.9539
  0
POLYLINE
  8
1
 66
1
 70
0
  0
VERTEX
  8
1
 10
47.3594
 20
70.9539
  0
VERTEX
  8
1
 10
48.6285
 20
70.5648
  0
SEQEND
  8
1
  0
POLYLINE
  8
84
 66
1
 70
0
  0
VERTEX
  8
84
 10
47.3594
 20
70.9539
  0
VERTEX
  8
84
 10
48.6285
 20
70.5648
  0
SEQEND
  8
84
  0
POINT
  8
2
 10
47.3594
 20
70.9539
  0
POINT
  8
2
 10
48.6285
 20
70.5648
  0
POLYLINE
  8
1
 66
1
 70
0
  0
VERTEX
  8
1
 10
48.6285
 20
70.5648
  0
VERTEX
  8
1
 10
48.8910
 20
69.6670
  0
VERTEX
  8
1
 10
49.0763
 20
68.9175
  0
VERTEX
  8
1
 10
49.0763
 20
68.9175
  0
VERTEX
  8
1
 10
49.1638
 20
68.4773
  0
VERTEX
  8
1
 10
49.2756
 20
67.6977
  0
VERTEX
  8
1
 10
49.3435
 20
67.0704
  0
VERTEX
  8
1
 10
49.3779
 20
66.5071
  0
VERTEX
  8
1
 10
49.4027
 20
65.8740
  0
VERTEX
  8
1
 10
49.4233
 20
65.1320
  0
VERTEX
  8
1
 10
49.4233
 20
65.1320
  0
VERTEX
  8
1
 10
49.4027
 20
64.3901
  0
VERTEX
  8
1
 10
49.3779
 20
63.7569
  0
VERTEX
  8
1
 10
49.3435
 20
63.1936
  0
VERTEX
  8
1
 10
49.2756
 20
62.5664
  0
VERTEX
  8
1
 10
49.1638
 20
61.7868
  0
VERTEX
  8
1
 10
49.0763
 20
61.3465
  0
VERTEX
  8
1
 10
49.0763
 20
61.3465
  0
VERTEX
  8
1
 10
48.8910
 20
60.5971
  0
VERTEX
  8
1
 10
48.6285
 20
59.6992
  0
SEQEND
  8
1
  0
POLYLINE
  8
84
 66
1
 70
0
  0
VERTEX
  8
84
 10
48.6285
 20
70.5648
  0
VERTEX
  8
84
 10
48.8910
 20
69.6670
  0
VERTEX
  8
84
 10
49.0763
 20
68.9175
  0
VERTEX
  8
84
 10
49.0763
 20
68.9175
  0
VERTEX
  8
84
 10
49.1638
 20
68.4773
  0
VERTEX
  8
84
 10
49.2756
 20
67.6977
  0
VERTEX
  8
84
 10
49.3435
 20
67.0704
  0
VERTEX
  8
84
 10
49.3779
 20
66.5071
  0
VERTEX
  8
84
 10
49.4027
 20
65.8740
  0
VERTEX
  8
84
 10
49.4233
 20
65.1320
  0
VERTEX
  8
84
 10
49.4233
 20
65.1320
  0
VERTEX
  8
84
 10
49.4027
 20
64.3901
  0
VERTEX
  8
84
 10
49.3779
 20
63.7569
  0
VERTEX
  8
84
 10
49.3435
 20
63.1936
  0
VERTEX
  8
84
 10
49.2756
 20
62.5664
  0
VERTEX
  8
84
 10
49.1638
 20
61.7868
  0
VERTEX
  8
84
 10
49.0763
 20
61.3465
  0
VERTEX
  8
84
 10
49.0763
 20
61.3465
  0
VERTEX
  8
84
 10
48.8910
 20
60.5971
  0
VERTEX
  8
84
 10
48.6285
 20
59.6992
  0
SEQEND
  8
84
  0
POINT
  8
2
 10
48.6285
 20
70.5648
  0
POINT
  8
3
 10
48.8910
 20
69.6670
  0
POINT
  8
3
 10
49.0763
 20
68.9175
  0
POINT
  8
4
 10
49.0763
 20
68.9175
 30
0.1181
 39
0.0000
 50
-167.4383
  0
POINT
  8
2
 10
49.0763
 20
68.9175
  0
POINT
  8
3
 10
49.1638
 20
68.4773
  0
POINT
  8
3
 10
49.2756
 20
67.6977
  0
POINT
  8
3
 10
49.3435
 20
67.0704
  0
POINT
  8
3
 10
49.3779
 20
66.5071
  0
POINT
  8
3
 10
49.4027
 20
65.8740
  0
POINT
  8
2
 10
49.4233
 20
65.1320
  0
POINT
  8
4
 10
49.4233
 20
65.1320
 30
0.1181
 39
0.0000
  0
POINT
  8
2
 10
49.4233
 20
65.1320
  0
POINT
  8
3
 10
49.4027
 20
64.3901
  0
POINT
  8
3
 10
49.3779
 20
63.7569
  0
POINT
  8
3
 10
49.3435
 20
63.1936
  0
POINT
  8
3
 10
49.2756
 20
62.5664
  0
POINT
  8
3
 10
49.1638
 20
61.7868
  0
POINT
  8
3
 10
49.0763
 20
61.3465
  0
POINT
  8
4
 10
49.0763
 20
61.3465
 30
0.1181
 39
0.0000
 50
167.4383
  0
POINT
  8
2
 10
49.0763
 20
61.3465
  0
POINT
  8
3
 10
48.8910
 20
60.5971
  0
POINT
  8
2
 10
48.6285
 20
59.6992
  0
POLYLINE
  8
1
 66
1
 70
0
  0
VERTEX
  8
1
 10
48.6285
 20
59.6992
  0
VERTEX
  8
1
 10
47.3594
 20
59.3101
  0
SEQEND
  8
1
  0
POLYLINE
  8
84
 66
1
 70
0
  0
VERTEX
  8
84
 10
48.6285
 20
59.6992
  0
VERTEX
  8
84
 10
47.3594
 20
59.3101
  0
SEQEND
  8
84
  0
POINT
  8
2
 10
48.6285
 20
59.6992
  0
POINT
  8
2
 10
47.3594
 20
59.3101
  0
POLYLINE
  8
1
 66
1
 70
0
  0
VERTEX
  8
1
 10
47.3594
 20
59.3101
  0
VERTEX
  8
1
 10
47.1703
 20
59.5413
  0
SEQEND
  8
1
  0
POLYLINE
  8
84
 66
1
 70
0
  0
VERTEX
  8
84
 10
47.3594
 20
59.3101
  0
VERTEX
  8
84
 10
47.1703
 20
59.5413
  0
SEQEND
  8
84
  0
POINT
  8
2
 10
47.3594
 20
59.3101
  0
POINT
  8
2
 10
47.1703
 20
59.5413
  0
LINE
  8
7
 10
47.8656
 20
67.8160
 11
48.6285
 21
67.8160
  0
LINE
  8
5
 10
47.8656
 20
67.8160
 11
48.6285
 21
67.8160
  0
POINT
  8
2
 10
47.8656
 20
67.8160
  0
POINT
  8
2
 10
48.6285
 20
67.8160
  0
LINE
  8
8
 10
49.0295
 20
65.1320
 11
48.2421
 21
65.1320
  0
POLYLINE
  8
85
 66
1
 70
0
  0
VERTEX
  8
85
 10
49.0295
 20
65.1320
  0
VERTEX
  8
85
 10
48.2421
 20
65.1320
  0
SEQEND
  8
85
  0
TEXT
  8
8
 10
49.0295
 20
65.1320
 40
0.250
 50
0.0000
  1
W
  7
STANDARD
  0
TEXT
  8
85
 10
49.0295
 20
65.1320
 40
0.250
 50
0.0000
  1
W
  7
STANDARD
  0
POINT
  8
2
 10
49.0295
 20
65.1320
  0
POINT
  8
2
 10
48.2421
 20
65.1320
  0
ENDBLK
  0
BLOCK
  8
0
  2
BUY-383396-STF-CL-HL-J-FL-07_40
 70
64
 10
0.0000
 20
0.0000
  0
TEXT
  8
1
 10
58.5777
 20
67.1298
 40
0.250
 50
0.0000
  1
Piece Name: BUY-383396-STF-CL-HL-J-FL-07
  7
STANDARD
  0
TEXT
  8
1
 10
58.5777
 20
67.2698
 40
0.250
 50
0.0000
  1
Quantity: 1,0
  7
STANDARD
  0
TEXT
  8
1
 10
58.5777
 20
67.4098
 40
0.250
 50
0.0000
  1
ANNOTATION
  7
STANDARD
  0
TEXT
  8
1
 10
58.5777
 20
67.5498
 40
0.250
 50
0.0000
  1
CATEGORY: 10
  7
STANDARD
  0
TEXT
  8
1
 10
58.5777
 20
67.6898
 40
0.250
 50
0.0000
  1
SIZE: 40
  7
STANDARD
  0
POLYLINE
  8
1
 66
1
 70
0
  0
VERTEX
  8
1
 10
56.8455
 20
61.9691
  0
VERTEX
  8
1
 10
56.9233
 20
62.8245
  0
VERTEX
  8
1
 10
56.9625
 20
63.4385
  0
VERTEX
  8
1
 10
56.9898
 20
64.2540
  0
VERTEX
  8
1
 10
56.9927
 20
65.4079
  0
VERTEX
  8
1
 10
56.9971
 20
67.1298
  0
VERTEX
  8
1
 10
56.9971
 20
67.1298
  0
VERTEX
  8
1
 10
56.9927
 20
68.8517
  0
VERTEX
  8
1
 10
56.9898
 20
70.0056
  0
VERTEX
  8
1
 10
56.9625
 20
70.8211
  0
VERTEX
  8
1
 10
56.9233
 20
71.4351
  0
VERTEX
  8
1
 10
56.8455
 20
72.2905
  0
SEQEND
  8
1
  0
POLYLINE
  8
84
 66
1
 70
0
  0
VERTEX
  8
84
 10
56.8455
 20
61.9691
  0
VERTEX
  8
84
 10
56.9233
 20
62.8245
  0
VERTEX
  8
84
 10
56.9625
 20
63.4385
  0
VERTEX
  8
84
 10
56.9898
 20
64.2540
  0
VERTEX
  8
84
 10
56.9927
 20
65.4079
  0
VERTEX
  8
84
 10
56.9971
 20
67.1298
  0
VERTEX
  8
84
 10
56.9971
 20
67.1298
  0
VERTEX
  8
84
 10
56.9927
 20
68.8517
  0
VERTEX
  8
84
 10
56.9898
 20
70.0056
  0
VERTEX
  8
84
 10
56.9625
 20
70.8211
  0
VERTEX
  8
84
 10
56.9233
 20
71.4351
  0
VERTEX
  8
84
 10
56.8455
 20
72.2905
  0
SEQEND
  8
84
  0
POINT
  8
2
 10
56.8455
 20
61.9691
  0
POINT
  8
3
 10
56.9233
 20
62.8245
  0
POINT
  8
4
 10
56.9625
 20
63.4385
 30
0.0984
 39
0.0000
  0
POINT
  8
2
 10
56.9625
 20
63.4385
  0
POINT
  8
3
 10
56.9898
 20
64.2540
  0
POINT
  8
3
 10
56.9927
 20
65.4079
  0
POINT
  8
2
 10
56.9971
 20
67.1298
  0
POINT
  8
4
 10
56.9971
 20
67.1298
 30
0.0984
 39
0.0000
  0
POINT
  8
2
 10
56.9971
 20
67.1298
  0
POINT
  8
3
 10
56.9927
 20
68.8517
  0
POINT
  8
3
 10
56.9898
 20
70.0056
  0
POINT
  8
4
 10
56.9625
 20
70.8211
 30
0.0984
 39
0.0000
  0
POINT
  8
2
 10
56.9625
 20
70.8211
  0
POINT
  8
3
 10
56.9233
 20
71.4351
  0
POINT
  8
2
 10
56.8455
 20
72.2905
  0
POLYLINE
  8
1
 66
1
 70
0
  0
VERTEX
  8
1
 10
56.8455
 20
72.2905
  0
VERTEX
  8
1
 10
57.7379
 20
73.0274
  0
VERTEX
  8
1
 10
57.7379
 20
73.0274
  0
VERTEX
  8
1
 10
58.5136
 20
73.6679
  0
SEQEND
  8
1
  0
POLYLINE
  8
84
 66
1
 70
0
  0
VERTEX
  8
84
 10
56.8455
 20
72.2905
  0
VERTEX
  8
84
 10
57.7379
 20
73.0274
  0
VERTEX
  8
84
 10
57.7379
 20
73.0274
  0
VERTEX
  8
84
 10
58.5136
 20
73.6679
  0
SEQEND
  8
84
  0
POINT
  8
2
 10
56.8455
 20
72.2905
  0
POINT
  8
3
 10
57.7379
 20
73.0274
  0
POINT
  8
4
 10
57.7379
 20
73.0274
 30
0.0984
 39
0.0000
 50
-50.4534
  0
POINT
  8
2
 10
57.7379
 20
73.0274
  0
POINT
  8
2
 10
58.5136
 20
73.6679
  0
POLYLINE
  8
1
 66
1
 70
0
  0
VERTEX
  8
1
 10
58.5136
 20
73.6679
  0
VERTEX
  8
1
 10
58.4450
 20
74.1218
  0
SEQEND
  8
1
  0
POLYLINE
  8
84
 66
1
 70
0
  0
VERTEX
  8
84
 10
58.5136
 20
73.6679
  0
VERTEX
  8
84
 10
58.4450
 20
74.1218
  0
SEQEND
  8
84
  0
POINT
  8
2
 10
58.5136
 20
73.6679
  0
POINT
  8
2
 10
58.4450
 20
74.1218
  0
POLYLINE
  8
1
 66
1
 70
0
  0
VERTEX
  8
1
 10
58.4450
 20
74.1218
  0
VERTEX
  8
1
 10
58.8969
 20
74.4949
  0
SEQEND
  8
1
  0
POLYLINE
  8
84
 66
1
 70
0
  0
VERTEX
  8
84
 10
58.4450
 20
74.1218
  0
VERTEX
  8
84
 10
58.8969
 20
74.4949
  0
SEQEND
  8
84
  0
POINT
  8
2
 10
58.4450
 20
74.1218
  0
POINT
  8
2
 10
58.8969
 20
74.4949
  0
POLYLINE
  8
1
 66
1
 70
0
  0
VERTEX
  8
1
 10
58.8969
 20
74.4949
  0
VERTEX
  8
1
 10
59.2118
 20
74.2444
  0
SEQEND
  8
1
  0
POLYLINE
  8
84
 66
1
 70
0
  0
VERTEX
  8
84
 10
58.8969
 20
74.4949
  0
VERTEX
  8
84
 10
59.2118
 20
74.2444
  0
SEQEND
  8
84
  0
POINT
  8
2
 10
58.8969
 20
74.4949
  0
POINT
  8
2
 10
59.2118
 20
74.2444
  0
POLYLINE
  8
1
 66
1
 70
0
  0
VERTEX
  8
1
 10
59.2118
 20
74.2444
  0
VERTEX
  8
1
 10
59.4601
 20
74.4494
  0
SEQEND
  8
1
  0
POLYLINE
  8
84
 66
1
 70
0
  0
VERTEX
  8
84
 10
59.2118
 20
74.2444
  0
VERTEX
  8
84
 10
59.4601
 20
74.4494
  0
SEQEND
  8
84
  0
POINT
  8
2
 10
59.2118
 20
74.2444
  0
POINT
  8
2
 10
59.4601
 20
74.4494
  0
POLYLINE
  8
1
 66
1
 70
0
  0
VERTEX
  8
1
 10
59.4601
 20
74.4494
  0
VERTEX
  8
1
 10
60.3100
 20
73.7733
  0
SEQEND
  8
1
  0
POLYLINE
  8
84
 66
1
 70
0
  0
VERTEX
  8
84
 10
59.4601
 20
74.4494
  0
VERTEX
  8
84
 10
60.3100
 20
73.7733
  0
SEQEND
  8
84
  0
POINT
  8
2
 10
59.4601
 20
74.4494
  0
POINT
  8
2
 10
60.3100
 20
73.7733
  0
POLYLINE
  8
1
 66
1
 70
0
  0
VERTEX
  8
1
 10
60.3100
 20
73.7733
  0
VERTEX
  8
1
 10
60.2198
 20
73.4426
  0
VERTEX
  8
1
 10
60.1004
 20
73.0050
  0
VERTEX
  8
1
 10
59.9953
 20
72.6030
  0
VERTEX
  8
1
 10
59.9011
 20
72.1681
  0
VERTEX
  8
1
 10
59.8242
 20
71.7376
  0
VERTEX
  8
1
 10
59.7666
 20
71.2451
  0
VERTEX
  8
1
 10
59.7429
 20
71.0428
  0
VERTEX
  8
1
 10
59.6957
 20
70.2981
  0
VERTEX
  8
1
 10
59.6803
 20
69.4803
  0
VERTEX
  8
1
 10
59.6782
 20
68.5048
  0
VERTEX
  8
1
 10
59.6782
 20
68.5048
  0
VERTEX
  8
1
 10
59.6791
 20
67.1298
  0
VERTEX
  8
1
 10
59.6791
 20
67.1298
  0
VERTEX
  8
1
 10
59.6782
 20
65.7548
  0
VERTEX
  8
1
 10
59.6782
 20
65.7548
  0
VERTEX
  8
1
 10
59.6803
 20
64.7793
  0
VERTEX
  8
1
 10
59.6957
 20
63.9615
  0
VERTEX
  8
1
 10
59.7429
 20
63.2168
  0
VERTEX
  8
1
 10
59.7666
 20
63.0145
  0
VERTEX
  8
1
 10
59.8242
 20
62.5220
  0
VERTEX
  8
1
 10
59.9011
 20
62.0915
  0
VERTEX
  8
1
 10
59.9953
 20
61.6566
  0
VERTEX
  8
1
 10
60.1004
 20
61.2546
  0
VERTEX
  8
1
 10
60.2198
 20
60.8170
  0
VERTEX
  8
1
 10
60.3100
 20
60.4863
  0
SEQEND
  8
1
  0
POLYLINE
  8
84
 66
1
 70
0
  0
VERTEX
  8
84
 10
60.3100
 20
73.7733
  0
VERTEX
  8
84
 10
60.2198
 20
73.4426
  0
VERTEX
  8
84
 10
60.1004
 20
73.0050
  0
VERTEX
  8
84
 10
59.9953
 20
72.6030
  0
VERTEX
  8
84
 10
59.9011
 20
72.1681
  0
VERTEX
  8
84
 10
59.8242
 20
71.7376
  0
VERTEX
  8
84
 10
59.7666
 20
71.2451
  0
VERTEX
  8
84
 10
59.7429
 20
71.0428
  0
VERTEX
  8
84
 10
59.6957
 20
70.2981
  0
VERTEX
  8
84
 10
59.6803
 20
69.4803
  0
VERTEX
  8
84
 10
59.6782
 20
68.5048
  0
VERTEX
  8
84
 10
59.6782
 20
68.5048
  0
VERTEX
  8
84
 10
59.6791
 20
67.1298
  0
VERTEX
  8
84
 10
59.6791
 20
67.1298
  0
VERTEX
  8
84
 10
59.6782
 20
65.7548
  0
VERTEX
  8
84
 10
59.6782
 20
65.7548
  0
VERTEX
  8
84
 10
59.6803
 20
64.7793
  0
VERTEX
  8
84
 10
59.6957
 20
63.9615
  0
VERTEX
  8
84
 10
59.7429
 20
63.2168
  0
VERTEX
  8
84
 10
59.7666
 20
63.0145
  0
VERTEX
  8
84
 10
59.8242
 20
62.5220
  0
VERTEX
  8
84
 10
59.9011
 20
62.0915
  0
VERTEX
  8
84
 10
59.9953
 20
61.6566
  0
VERTEX
  8
84
 10
60.1004
 20
61.2546
  0
VERTEX
  8
84
 10
60.2198
 20
60.8170
  0
VERTEX
  8
84
 10
60.3100
 20
60.4863
  0
SEQEND
  8
84
  0
POINT
  8
2
 10
60.3100
 20
73.7733
  0
POINT
  8
3
 10
60.2198
 20
73.4426
  0
POINT
  8
3
 10
60.1004
 20
73.0050
  0
POINT
  8
3
 10
59.9953
 20
72.6030
  0
POINT
  8
3
 10
59.9011
 20
72.1681
  0
POINT
  8
2
 10
59.8242
 20
71.7376
  0
POINT
  8
4
 10
59.7666
 20
71.2451
 30
0.0984
 39
0.0000
  0
POINT
  8
3
 10
59.7666
 20
71.2451
  0
POINT
  8
3
 10
59.7429
 20
71.0428
  0
POINT
  8
3
 10
59.6957
 20
70.2981
  0
POINT
  8
3
 10
59.6803
 20
69.4803
  0
POINT
  8
3
 10
59.6782
 20
68.5048
  0
POINT
  8
4
 10
59.6782
 20
68.5048
 30
0.0984
 39
0.0000
 50
179.9599
  0
POINT
  8
2
 10
59.6782
 20
68.5048
  0
POINT
  8
2
 10
59.6791
 20
67.1298
  0
POINT
  8
4
 10
59.6791
 20
67.1298
 30
0.0984
 39
0.0000
  0
POINT
  8
2
 10
59.6791
 20
67.1298
  0
POINT
  8
3
 10
59.6782
 20
65.7548
  0
POINT
  8
4
 10
59.6782
 20
65.7548
 30
0.0984
 39
0.0000
 50
-179.9599
  0
POINT
  8
2
 10
59.6782
 20
65.7548
  0
POINT
  8
3
 10
59.6803
 20
64.7793
  0
POINT
  8
3
 10
59.6957
 20
63.9615
  0
POINT
  8
3
 10
59.7429
 20
63.2168
  0
POINT
  8
4
 10
59.7666
 20
63.0145
 30
0.0984
 39
0.0000
  0
POINT
  8
3
 10
59.7666
 20
63.0145
  0
POINT
  8
2
 10
59.8242
 20
62.5220
  0
POINT
  8
3
 10
59.9011
 20
62.0915
  0
POINT
  8
3
 10
59.9953
 20
61.6566
  0
POINT
  8
3
 10
60.1004
 20
61.2546
  0
POINT
  8
3
 10
60.2198
 20
60.8170
  0
POINT
  8
2
 10
60.3100
 20
60.4863
  0
POLYLINE
  8
1
 66
1
 70
0
  0
VERTEX
  8
1
 10
60.3100
 20
60.4863
  0
VERTEX
  8
1
 10
59.4601
 20
59.8102
  0
SEQEND
  8
1
  0
POLYLINE
  8
84
 66
1
 70
0
  0
VERTEX
  8
84
 10
60.3100
 20
60.4863
  0
VERTEX
  8
84
 10
59.4601
 20
59.8102
  0
SEQEND
  8
84
  0
POINT
  8
2
 10
60.3100
 20
60.4863
  0
POINT
  8
2
 10
59.4601
 20
59.8102
  0
POLYLINE
  8
1
 66
1
 70
0
  0
VERTEX
  8
1
 10
59.4601
 20
59.8102
  0
VERTEX
  8
1
 10
59.2118
 20
60.0152
  0
SEQEND
  8
1
  0
POLYLINE
  8
84
 66
1
 70
0
  0
VERTEX
  8
84
 10
59.4601
 20
59.8102
  0
VERTEX
  8
84
 10
59.2118
 20
60.0152
  0
SEQEND
  8
84
  0
POINT
  8
2
 10
59.4601
 20
59.8102
  0
POINT
  8
2
 10
59.2118
 20
60.0152
  0
POLYLINE
  8
1
 66
1
 70
0
  0
VERTEX
  8
1
 10
59.2118
 20
60.0152
  0
VERTEX
  8
1
 10
58.8969
 20
59.7647
  0
SEQEND
  8
1
  0
POLYLINE
  8
84
 66
1
 70
0
  0
VERTEX
  8
84
 10
59.2118
 20
60.0152
  0
VERTEX
  8
84
 10
58.8969
 20
59.7647
  0
SEQEND
  8
84
  0
POINT
  8
2
 10
59.2118
 20
60.0152
  0
POINT
  8
2
 10
58.8969
 20
59.7647
  0
POLYLINE
  8
1
 66
1
 70
0
  0
VERTEX
  8
1
 10
58.8969
 20
59.7647
  0
VERTEX
  8
1
 10
58.4450
 20
60.1378
  0
SEQEND
  8
1
  0
POLYLINE
  8
84
 66
1
 70
0
  0
VERTEX
  8
84
 10
58.8969
 20
59.7647
  0
VERTEX
  8
84
 10
58.4450
 20
60.1378
  0
SEQEND
  8
84
  0
POINT
  8
2
 10
58.8969
 20
59.7647
  0
POINT
  8
2
 10
58.4450
 20
60.1378
  0
POLYLINE
  8
1
 66
1
 70
0
  0
VERTEX
  8
1
 10
58.4450
 20
60.1378
  0
VERTEX
  8
1
 10
58.5136
 20
60.5917
  0
SEQEND
  8
1
  0
POLYLINE
  8
84
 66
1
 70
0
  0
VERTEX
  8
84
 10
58.4450
 20
60.1378
  0
VERTEX
  8
84
 10
58.5136
 20
60.5917
  0
SEQEND
  8
84
  0
POINT
  8
2
 10
58.4450
 20
60.1378
  0
POINT
  8
2
 10
58.5136
 20
60.5917
  0
POLYLINE
  8
1
 66
1
 70
0
  0
VERTEX
  8
1
 10
58.5136
 20
60.5917
  0
VERTEX
  8
1
 10
57.7379
 20
61.2322
  0
VERTEX
  8
1
 10
57.7379
 20
61.2322
  0
VERTEX
  8
1
 10
56.8455
 20
61.9691
  0
SEQEND
  8
1
  0
POLYLINE
  8
84
 66
1
 70
0
  0
VERTEX
  8
84
 10
58.5136
 20
60.5917
  0
VERTEX
  8
84
 10
57.7379
 20
61.2322
  0
VERTEX
  8
84
 10
57.7379
 20
61.2322
  0
VERTEX
  8
84
 10
56.8455
 20
61.9691
  0
SEQEND
  8
84
  0
POINT
  8
2
 10
58.5136
 20
60.5917
  0
POINT
  8
3
 10
57.7379
 20
61.2322
  0
POINT
  8
4
 10
57.7379
 20
61.2322
 30
0.0984
 39
0.0000
 50
50.4534
  0
POINT
  8
2
 10
57.7379
 20
61.2322
  0
POINT
  8
2
 10
56.8455
 20
61.9691
  0
LINE
  8
7
 10
57.6523
 20
67.9554
 11
59.3144
 21
67.9554
  0
LINE
  8
5
 10
57.6523
 20
67.9554
 11
59.3144
 21
67.9554
  0
POINT
  8
2
 10
57.6523
 20
67.9554
  0
POINT
  8
2
 10
59.3144
 20
67.9554
  0
POLYLINE
  8
8
 66
1
 70
0
  0
VERTEX
  8
8
 10
58.3600
 20
68.6236
  0
VERTEX
  8
8
 10
58.3600
 20
67.5453
  0
SEQEND
  8
8
  0
POLYLINE
  8
85
 66
1
 70
0
  0
VERTEX
  8
85
 10
58.3600
 20
68.6236
  0
VERTEX
  8
85
 10
58.3600
 20
67.5453
  0
SEQEND
  8
85
  0
TEXT
  8
8
 10
58.3600
 20
68.6236
 40
0.250
 50
0.0000
  1
B
  7
STANDARD
  0
TEXT
  8
85
 10
58.3600
 20
68.6236
 40
0.250
 50
0.0000
  1
B
  7
STANDARD
  0
POINT
  8
2
 10
58.3600
 20
68.6236
  0
POINT
  8
2
 10
58.3600
 20
67.5453
  0
LINE
  8
8
 10
57.8276
 20
73.1014
 11
58.7582
 21
67.1559
  0
POLYLINE
  8
85
 66
1
 70
0
  0
VERTEX
  8
85
 10
57.8276
 20
73.1014
  0
VERTEX
  8
85
 10
58.7582
 20
67.1559
  0
SEQEND
  8
85
  0
TEXT
  8
8
 10
57.8276
 20
73.1014
 40
0.250
 50
0.0000
  1
NM
  7
STANDARD
  0
TEXT
  8
85
 10
57.8276
 20
73.1014
 40
0.250
 50
0.0000
  1
NM
  7
STANDARD
  0
POINT
  8
2
 10
57.8276
 20
73.1014
  0
POINT
  8
2
 10
58.7582
 20
67.1559
  0
POLYLINE
  8
8
 66
1
 70
0
  0
VERTEX
  8
8
 10
57.9937
 20
72.0403
  0
VERTEX
  8
8
 10
58.0409
 20
71.5216
  0
VERTEX
  8
8
 10
58.0821
 20
70.8756
  0
VERTEX
  8
8
 10
58.1106
 20
70.0258
  0
VERTEX
  8
8
 10
58.1135
 20
68.8546
  0
VERTEX
  8
8
 10
58.1179
 20
67.1298
  0
SEQEND
  8
8
  0
POLYLINE
  8
85
 66
1
 70
0
  0
VERTEX
  8
85
 10
57.9937
 20
72.0403
  0
VERTEX
  8
85
 10
58.0409
 20
71.5216
  0
VERTEX
  8
85
 10
58.0821
 20
70.8756
  0
VERTEX
  8
85
 10
58.1106
 20
70.0258
  0
VERTEX
  8
85
 10
58.1135
 20
68.8546
  0
VERTEX
  8
85
 10
58.1179
 20
67.1298
  0
SEQEND
  8
85
  0
TEXT
  8
8
 10
57.9937
 20
72.0403
 40
0.250
 50
0.0000
  1
NM
  7
STANDARD
  0
TEXT
  8
85
 10
57.9937
 20
72.0403
 40
0.250
 50
0.0000
  1
NM
  7
STANDARD
  0
POINT
  8
2
 10
57.9937
 20
72.0403
  0
POINT
  8
3
 10
58.0409
 20
71.5216
  0
POINT
  8
2
 10
58.0821
 20
70.8756
  0
POINT
  8
3
 10
58.1106
 20
70.0258
  0
POINT
  8
3
 10
58.1135
 20
68.8546
  0
POINT
  8
2
 10
58.1179
 20
67.1298
  0
LINE
  8
8
 10
60.2198
 20
73.4426
 11
59.2118
 21
74.2444
  0
POLYLINE
  8
85
 66
1
 70
0
  0
VERTEX
  8
85
 10
60.2198
 20
73.4426
  0
VERTEX
  8
85
 10
59.2118
 20
74.2444
  0
SEQEND
  8
85
  0
TEXT
  8
8
 10
60.2198
 20
73.4426
 40
0.250
 50
0.0000
  1
NM
  7
STANDARD
  0
TEXT
  8
85
 10
60.2198
 20
73.4426
 40
0.250
 50
0.0000
  1
NM
  7
STANDARD
  0
POINT
  8
2
 10
60.2198
 20
73.4426
  0
POINT
  8
2
 10
59.2118
 20
74.2444
  0
LINE
  8
8
 10
59.2118
 20
74.2444
 11
58.5136
 21
73.6679
  0
POLYLINE
  8
85
 66
1
 70
0
  0
VERTEX
  8
85
 10
59.2118
 20
74.2444
  0
VERTEX
  8
85
 10
58.5136
 20
73.6679
  0
SEQEND
  8
85
  0
TEXT
  8
8
 10
59.2118
 20
74.2444
 40
0.250
 50
0.0000
  1
NM
  7
STANDARD
  0
TEXT
  8
85
 10
59.2118
 20
74.2444
 40
0.250
 50
0.0000
  1
NM
  7
STANDARD
  0
POINT
  8
2
 10
59.2118
 20
74.2444
  0
POINT
  8
2
 10
58.5136
 20
73.6679
  0
LINE
  8
8
 10
60.2198
 20
73.4426
 11
59.2118
 21
74.2444
  0
POLYLINE
  8
85
 66
1
 70
0
  0
VERTEX
  8
85
 10
60.2198
 20
73.4426
  0
VERTEX
  8
85
 10
59.2118
 20
74.2444
  0
SEQEND
  8
85
  0
TEXT
  8
8
 10
60.2198
 20
73.4426
 40
0.250
 50
0.0000
  1
NM
  7
STANDARD
  0
TEXT
  8
85
 10
60.2198
 20
73.4426
 40
0.250
 50
0.0000
  1
NM
  7
STANDARD
  0
POINT
  8
2
 10
60.2198
 20
73.4426
  0
POINT
  8
2
 10
59.2118
 20
74.2444
  0
ENDBLK
  0
BLOCK
  8
0
  2
BUY-383396-STF-CL-HL-J-CP-07_40
 70
64
 10
0.0000
 20
0.0000
  0
TEXT
  8
1
 10
26.8032
 20
48.9529
 40
0.250
 50
0.0000
  1
Piece Name: BUY-383396-STF-CL-HL-J-CP-07
  7
STANDARD
  0
TEXT
  8
1
 10
26.8032
 20
49.0929
 40
0.250
 50
0.0000
  1
Quantity: 1,0
  7
STANDARD
  0
TEXT
  8
1
 10
26.8032
 20
49.2329
 40
0.250
 50
0.0000
  1
ANNOTATION: TOP-SLV
  7
STANDARD
  0
TEXT
  8
1
 10
26.8032
 20
49.3729
 40
0.250
 50
0.0000
  1
CATEGORY: 1
  7
STANDARD
  0
TEXT
  8
1
 10
26.8032
 20
49.5129
 40
0.250
 50
0.0000
  1
SIZE: 40
  7
STANDARD
  0
TEXT
  8
8
 10
26.4573
 20
47.5478
 40
0.250
 50
0.0000
  1
.F
  7
STANDARD
  0
TEXT
  8
8
 10
26.5162
 20
48.0683
 40
0.250
 50
0.0000
  1
.F
  7
STANDARD
  0
POLYLINE
  8
1
 66
1
 70
0
  0
VERTEX
  8
1
 10
29.3753
 20
52.7133
  0
VERTEX
  8
1
 10
29.4959
 20
52.1999
  0
VERTEX
  8
1
 10
29.5671
 20
51.5354
  0
SEQEND
  8
1
  0
POLYLINE
  8
84
 66
1
 70
0
  0
VERTEX
  8
84
 10
29.3753
 20
52.7133
  0
VERTEX
  8
84
 10
29.4959
 20
52.1999
  0
VERTEX
  8
84
 10
29.5422
 20
51.8688
  0
VERTEX
  8
84
 10
29.5671
 20
51.5354
  0
SEQEND
  8
84
  0
POINT
  8
2
 10
29.3753
 20
52.7133
  0
POINT
  8
3
 10
29.4959
 20
52.1999
  0
POINT
  8
4
 10
29.5671
 20
51.5354
 30
0.1181
 39
0.1771
  0
POINT
  8
3
 10
29.5671
 20
51.5354
  0
POLYLINE
  8
1
 66
1
 70
0
  0
VERTEX
  8
1
 10
29.5671
 20
51.5354
  0
VERTEX
  8
1
 10
29.5591
 20
51.2900
  0
VERTEX
  8
1
 10
29.5423
 20
50.9649
  0
VERTEX
  8
1
 10
29.4891
 20
50.6598
  0
VERTEX
  8
1
 10
29.4103
 20
50.3728
  0
VERTEX
  8
1
 10
29.2150
 20
49.9159
  0
VERTEX
  8
1
 10
29.0424
 20
49.6168
  0
VERTEX
  8
1
 10
28.8720
 20
49.3680
  0
VERTEX
  8
1
 10
28.6484
 20
49.0286
  0
VERTEX
  8
1
 10
28.3805
 20
48.6693
  0
VERTEX
  8
1
 10
28.0729
 20
48.3078
  0
VERTEX
  8
1
 10
27.7208
 20
47.9289
  0
VERTEX
  8
1
 10
27.2735
 20
47.4478
  0
VERTEX
  8
1
 10
26.1890
 20
46.2813
  0
VERTEX
  8
1
 10
25.8162
 20
45.8584
  0
VERTEX
  8
1
 10
25.3705
 20
45.3044
  0
VERTEX
  8
1
 10
25.2918
 20
45.1925
  0
SEQEND
  8
1
  0
POLYLINE
  8
84
 66
1
 70
0
  0
VERTEX
  8
84
 10
29.5671
 20
51.5354
  0
VERTEX
  8
84
 10
29.5591
 20
51.2900
  0
VERTEX
  8
84
 10
29.5423
 20
50.9649
  0
VERTEX
  8
84
 10
29.4891
 20
50.6598
  0
VERTEX
  8
84
 10
29.4103
 20
50.3728
  0
VERTEX
  8
84
 10
29.3198
 20
50.1413
  0
VERTEX
  8
84
 10
29.2150
 20
49.9159
  0
VERTEX
  8
84
 10
29.0424
 20
49.6168
  0
VERTEX
  8
84
 10
28.8720
 20
49.3680
  0
VERTEX
  8
84
 10
28.6484
 20
49.0286
  0
VERTEX
  8
84
 10
28.3805
 20
48.6693
  0
VERTEX
  8
84
 10
28.0729
 20
48.3078
  0
VERTEX
  8
84
 10
27.7208
 20
47.9289
  0
VERTEX
  8
84
 10
27.2735
 20
47.4478
  0
VERTEX
  8
84
 10
26.1890
 20
46.2813
  0
VERTEX
  8
84
 10
25.8162
 20
45.8584
  0
VERTEX
  8
84
 10
25.3705
 20
45.3044
  0
VERTEX
  8
84
 10
25.2918
 20
45.1925
  0
SEQEND
  8
84
  0
POINT
  8
4
 10
29.5671
 20
51.5354
 30
0.1181
 39
0.1771
  0
POINT
  8
3
 10
29.5671
 20
51.5354
  0
POINT
  8
3
 10
29.5591
 20
51.2900
  0
POINT
  8
3
 10
29.5423
 20
50.9649
  0
POINT
  8
3
 10
29.4891
 20
50.6598
  0
POINT
  8
3
 10
29.4103
 20
50.3728
  0
POINT
  8
3
 10
29.2150
 20
49.9159
  0
POINT
  8
3
 10
29.0424
 20
49.6168
  0
POINT
  8
3
 10
28.8720
 20
49.3680
  0
POINT
  8
3
 10
28.6484
 20
49.0286
  0
POINT
  8
3
 10
28.3805
 20
48.6693
  0
POINT
  8
2
 10
28.0729
 20
48.3078
  0
POINT
  8
2
 10
27.7208
 20
47.9289
  0
POINT
  8
4
 10
27.2735
 20
47.4478
 30
0.1181
 39
0.1771
  0
POINT
  8
2
 10
27.2735
 20
47.4478
  0
POINT
  8
4
 10
26.1890
 20
46.2813
 30
0.1181
 39
0.1771
  0
POINT
  8
3
 10
26.1890
 20
46.2813
  0
POINT
  8
3
 10
25.8162
 20
45.8584
  0
POINT
  8
3
 10
25.3705
 20
45.3044
  0
POINT
  8
2
 10
25.2918
 20
45.1925
  0
POLYLINE
  8
1
 66
1
 70
0
  0
VERTEX
  8
1
 10
25.2918
 20
45.1925
  0
VERTEX
  8
1
 10
24.9697
 20
45.3704
  0
VERTEX
  8
1
 10
24.7090
 20
45.5285
  0
VERTEX
  8
1
 10
24.5707
 20
45.6287
  0
VERTEX
  8
1
 10
24.3798
 20
45.8319
  0
VERTEX
  8
1
 10
24.2508
 20
45.9962
  0
VERTEX
  8
1
 10
24.1452
 20
46.1553
  0
VERTEX
  8
1
 10
24.0824
 20
46.3211
  0
VERTEX
  8
1
 10
24.0394
 20
46.4905
  0
VERTEX
  8
1
 10
24.0738
 20
46.9545
  0
VERTEX
  8
1
 10
24.3577
 20
47.5141
  0
VERTEX
  8
1
 10
25.0179
 20
48.0332
  0
VERTEX
  8
1
 10
25.5333
 20
48.3861
  0
VERTEX
  8
1
 10
26.2473
 20
48.8976
  0
VERTEX
  8
1
 10
26.7189
 20
49.2659
  0
VERTEX
  8
1
 10
27.1704
 20
49.6489
  0
VERTEX
  8
1
 10
27.6526
 20
50.1204
  0
VERTEX
  8
1
 10
28.1997
 20
50.8673
  0
VERTEX
  8
1
 10
28.5362
 20
51.8249
  0
VERTEX
  8
1
 10
28.7747
 20
52.2761
  0
VERTEX
  8
1
 10
29.0677
 20
52.5531
  0
VERTEX
  8
1
 10
29.3753
 20
52.7133
  0
SEQEND
  8
1
  0
POLYLINE
  8
84
 66
1
 70
0
  0
VERTEX
  8
84
 10
25.2918
 20
45.1925
  0
VERTEX
  8
84
 10
24.9697
 20
45.3704
  0
VERTEX
  8
84
 10
24.7090
 20
45.5285
  0
VERTEX
  8
84
 10
24.5707
 20
45.6287
  0
VERTEX
  8
84
 10
24.3798
 20
45.8319
  0
VERTEX
  8
84
 10
24.2508
 20
45.9962
  0
VERTEX
  8
84
 10
24.1452
 20
46.1553
  0
VERTEX
  8
84
 10
24.0824
 20
46.3211
  0
VERTEX
  8
84
 10
24.0394
 20
46.4905
  0
VERTEX
  8
84
 10
24.0363
 20
46.7244
  0
VERTEX
  8
84
 10
24.0738
 20
46.9545
  0
VERTEX
  8
84
 10
24.1233
 20
47.1045
  0
VERTEX
  8
84
 10
24.1876
 20
47.2489
  0
VERTEX
  8
84
 10
24.2650
 20
47.3866
  0
VERTEX
  8
84
 10
24.3577
 20
47.5141
  0
VERTEX
  8
84
 10
24.5069
 20
47.6605
  0
VERTEX
  8
84
 10
24.6701
 20
47.7923
  0
VERTEX
  8
84
 10
25.0179
 20
48.0332
  0
VERTEX
  8
84
 10
25.5333
 20
48.3861
  0
VERTEX
  8
84
 10
26.2473
 20
48.8976
  0
VERTEX
  8
84
 10
26.7189
 20
49.2659
  0
VERTEX
  8
84
 10
27.1704
 20
49.6489
  0
VERTEX
  8
84
 10
27.4184
 20
49.8779
  0
VERTEX
  8
84
 10
27.6526
 20
50.1204
  0
VERTEX
  8
84
 10
27.9475
 20
50.4792
  0
VERTEX
  8
84
 10
28.0816
 20
50.6683
  0
VERTEX
  8
84
 10
28.1997
 20
50.8673
  0
VERTEX
  8
84
 10
28.2952
 20
51.1016
  0
VERTEX
  8
84
 10
28.3761
 20
51.3422
  0
VERTEX
  8
84
 10
28.5362
 20
51.8249
  0
VERTEX
  8
84
 10
28.6426
 20
52.0580
  0
VERTEX
  8
84
 10
28.7747
 20
52.2761
  0
VERTEX
  8
84
 10
28.9108
 20
52.4253
  0
VERTEX
  8
84
 10
29.0677
 20
52.5531
  0
VERTEX
  8
84
 10
29.3753
 20
52.7133
  0
SEQEND
  8
84
  0
POINT
  8
2
 10
25.2918
 20
45.1925
  0
POINT
  8
3
 10
24.9697
 20
45.3704
  0
POINT
  8
4
 10
24.7090
 20
45.5285
 30
0.1181
 39
0.1771
  0
POINT
  8
3
 10
24.7090
 20
45.5285
  0
POINT
  8
3
 10
24.5707
 20
45.6287
  0
POINT
  8
4
 10
24.3798
 20
45.8319
 30
0.1181
 39
0.1771
  0
POINT
  8
3
 10
24.3798
 20
45.8319
  0
POINT
  8
3
 10
24.2508
 20
45.9962
  0
POINT
  8
3
 10
24.1452
 20
46.1553
  0
POINT
  8
3
 10
24.0824
 20
46.3211
  0
POINT
  8
3
 10
24.0394
 20
46.4905
  0
POINT
  8
3
 10
24.0738
 20
46.9545
  0
POINT
  8
3
 10
24.3577
 20
47.5141
  0
POINT
  8
3
 10
25.0179
 20
48.0332
  0
POINT
  8
3
 10
25.5333
 20
48.3861
  0
POINT
  8
3
 10
26.2473
 20
48.8976
  0
POINT
  8
3
 10
26.7189
 20
49.2659
  0
POINT
  8
3
 10
27.1704
 20
49.6489
  0
POINT
  8
3
 10
27.6526
 20
50.1204
  0
POINT
  8
3
 10
28.1997
 20
50.8673
  0
POINT
  8
3
 10
28.5362
 20
51.8249
  0
POINT
  8
3
 10
28.7747
 20
52.2761
  0
POINT
  8
3
 10
29.0677
 20
52.5531
  0
POINT
  8
2
 10
29.3753
 20
52.7133
  0
LINE
  8
7
 10
25.4229
 20
48.6354
 11
28.1900
 21
48.6354
  0
LINE
  8
5
 10
25.4229
 20
48.6354
 11
28.1900
 21
48.6354
  0
POINT
  8
2
 10
25.4229
 20
48.6354
  0
POINT
  8
2
 10
28.1900
 20
48.6354
  0
LINE
  8
8
 10
26.4573
 20
47.5478
 11
26.5162
 21
48.0683
  0
POLYLINE
  8
85
 66
1
 70
0
  0
VERTEX
  8
85
 10
26.4573
 20
47.5478
  0
VERTEX
  8
85
 10
26.5162
 20
48.0683
  0
SEQEND
  8
85
  0
TEXT
  8
8
 10
26.4573
 20
47.5478
 40
0.250
 50
0.0000
  1
NM
  7
STANDARD
  0
TEXT
  8
85
 10
26.4573
 20
47.5478
 40
0.250
 50
0.0000
  1
NM
  7
STANDARD
  0
POINT
  8
2
 10
26.4573
 20
47.5478
  0
POINT
  8
2
 10
26.5162
 20
48.0683
  0
POLYLINE
  8
8
 66
1
 70
0
  0
VERTEX
  8
8
 10
25.2179
 20
46.8837
  0
VERTEX
  8
8
 10
26.9517
 20
48.3831
  0
SEQEND
  8
8
  0
POLYLINE
  8
85
 66
1
 70
0
  0
VERTEX
  8
85
 10
25.2179
 20
46.8837
  0
VERTEX
  8
85
 10
26.9517
 20
48.3831
  0
SEQEND
  8
85
  0
TEXT
  8
8
 10
25.2179
 20
46.8837
 40
0.250
 50
0.0000
  1
B
  7
STANDARD
  0
TEXT
  8
85
 10
25.2179
 20
46.8837
 40
0.250
 50
0.0000
  1
B
  7
STANDARD
  0
POINT
  8
2
 10
25.2179
 20
46.8837
  0
POINT
  8
2
 10
26.9517
 20
48.3831
  0
ENDBLK
  0
BLOCK
  8
0
  2
BUY-383396-STF-CL-HL-J-CP-05_40
 70
64
 10
0.0000
 20
0.0000
  0
TEXT
  8
1
 10
19.5601
 20
49.3826
 40
0.250
 50
0.0000
  1
Piece Name: BUY-383396-STF-CL-HL-J-CP-05
  7
STANDARD
  0
TEXT
  8
1
 10
19.5601
 20
49.5226
 40
0.250
 50
0.0000
  1
Quantity: 1,0
  7
STANDARD
  0
TEXT
  8
1
 10
19.5601
 20
49.6626
 40
0.250
 50
0.0000
  1
ANNOTATION: TOP-SLV
  7
STANDARD
  0
TEXT
  8
1
 10
19.5601
 20
49.8026
 40
0.250
 50
0.0000
  1
CATEGORY: 2
  7
STANDARD
  0
TEXT
  8
1
 10
19.5601
 20
49.9426
 40
0.250
 50
0.0000
  1
SIZE: 40
  7
STANDARD
  0
TEXT
  8
8
 10
17.7101
 20
51.4823
 40
0.250
 50
0.0000
  1
.F
  7
STANDARD
  0
TEXT
  8
8
 10
18.3735
 20
50.1353
 40
0.250
 50
0.0000
  1
.F
  7
STANDARD
  0
POLYLINE
  8
1
 66
1
 70
0
  0
VERTEX
  8
1
 10
23.2784
 20
46.0519
  0
VERTEX
  8
1
 10
22.9510
 20
46.2742
  0
VERTEX
  8
1
 10
22.4901
 20
46.8166
  0
VERTEX
  8
1
 10
22.2344
 20
47.3384
  0
VERTEX
  8
1
 10
22.0980
 20
47.7606
  0
VERTEX
  8
1
 10
21.8530
 20
48.3236
  0
VERTEX
  8
1
 10
21.5486
 20
48.7708
  0
VERTEX
  8
1
 10
20.8655
 20
49.2564
  0
VERTEX
  8
1
 10
19.8200
 20
49.6650
  0
SEQEND
  8
1
  0
POLYLINE
  8
84
 66
1
 70
0
  0
VERTEX
  8
84
 10
23.2784
 20
46.0519
  0
VERTEX
  8
84
 10
23.1106
 20
46.1579
  0
VERTEX
  8
84
 10
22.9510
 20
46.2742
  0
VERTEX
  8
84
 10
22.8225
 20
46.3979
  0
VERTEX
  8
84
 10
22.7034
 20
46.5307
  0
VERTEX
  8
84
 10
22.4901
 20
46.8166
  0
VERTEX
  8
84
 10
22.3499
 20
47.0710
  0
VERTEX
  8
84
 10
22.2344
 20
47.3384
  0
VERTEX
  8
84
 10
22.0980
 20
47.7606
  0
VERTEX
  8
84
 10
21.9852
 20
48.0466
  0
VERTEX
  8
84
 10
21.8530
 20
48.3236
  0
VERTEX
  8
84
 10
21.7151
 20
48.5579
  0
VERTEX
  8
84
 10
21.5486
 20
48.7708
  0
VERTEX
  8
84
 10
21.3931
 20
48.9115
  0
VERTEX
  8
84
 10
21.2255
 20
49.0381
  0
VERTEX
  8
84
 10
21.0493
 20
49.1536
  0
VERTEX
  8
84
 10
20.8655
 20
49.2564
  0
VERTEX
  8
84
 10
20.6105
 20
49.3725
  0
VERTEX
  8
84
 10
20.3498
 20
49.4760
  0
VERTEX
  8
84
 10
19.8200
 20
49.6650
  0
SEQEND
  8
84
  0
POINT
  8
2
 10
23.2784
 20
46.0519
  0
POINT
  8
3
 10
22.9510
 20
46.2742
  0
POINT
  8
3
 10
22.4901
 20
46.8166
  0
POINT
  8
3
 10
22.2344
 20
47.3384
  0
POINT
  8
3
 10
22.0980
 20
47.7606
  0
POINT
  8
3
 10
21.8530
 20
48.3236
  0
POINT
  8
3
 10
21.5486
 20
48.7708
  0
POINT
  8
3
 10
20.8655
 20
49.2564
  0
POINT
  8
2
 10
19.8200
 20
49.6650
  0
POLYLINE
  8
1
 66
1
 70
0
  0
VERTEX
  8
1
 10
19.8200
 20
49.6650
  0
VERTEX
  8
1
 10
18.6373
 20
49.8849
  0
VERTEX
  8
1
 10
17.2062
 20
50.1606
  0
VERTEX
  8
1
 10
16.2973
 20
50.4443
  0
VERTEX
  8
1
 10
16.0046
 20
50.6251
  0
VERTEX
  8
1
 10
15.8536
 20
50.7701
  0
VERTEX
  8
1
 10
15.7361
 20
50.9437
  0
VERTEX
  8
1
 10
15.5809
 20
51.4749
  0
VERTEX
  8
1
 10
15.7679
 20
52.0359
  0
VERTEX
  8
1
 10
15.9209
 20
52.2392
  0
VERTEX
  8
1
 10
16.1003
 20
52.4133
  0
VERTEX
  8
1
 10
16.5023
 20
52.7133
  0
SEQEND
  8
1
  0
POLYLINE
  8
84
 66
1
 70
0
  0
VERTEX
  8
84
 10
19.8200
 20
49.6650
  0
VERTEX
  8
84
 10
18.6373
 20
49.8849
  0
VERTEX
  8
84
 10
17.9194
 20
50.0124
  0
VERTEX
  8
84
 10
17.2062
 20
50.1606
  0
VERTEX
  8
84
 10
16.7447
 20
50.2825
  0
VERTEX
  8
84
 10
16.5185
 20
50.3569
  0
VERTEX
  8
84
 10
16.2973
 20
50.4443
  0
VERTEX
  8
84
 10
16.1459
 20
50.5264
  0
VERTEX
  8
84
 10
16.0046
 20
50.6251
  0
VERTEX
  8
84
 10
15.8536
 20
50.7701
  0
VERTEX
  8
84
 10
15.7892
 20
50.8533
  0
VERTEX
  8
84
 10
15.7361
 20
50.9437
  0
VERTEX
  8
84
 10
15.6765
 20
51.0710
  0
VERTEX
  8
84
 10
15.6283
 20
51.2029
  0
VERTEX
  8
84
 10
15.5945
 20
51.3375
  0
VERTEX
  8
84
 10
15.5809
 20
51.4749
  0
VERTEX
  8
84
 10
15.6007
 20
51.6211
  0
VERTEX
  8
84
 10
15.6420
 20
51.7637
  0
VERTEX
  8
84
 10
15.6986
 20
51.9026
  0
VERTEX
  8
84
 10
15.7679
 20
52.0359
  0
VERTEX
  8
84
 10
15.8382
 20
52.1418
  0
VERTEX
  8
84
 10
15.9209
 20
52.2392
  0
VERTEX
  8
84
 10
16.1003
 20
52.4133
  0
VERTEX
  8
84
 10
16.5023
 20
52.7133
  0
SEQEND
  8
84
  0
POINT
  8
2
 10
19.8200
 20
49.6650
  0
POINT
  8
3
 10
18.6373
 20
49.8849
  0
POINT
  8
3
 10
17.2062
 20
50.1606
  0
POINT
  8
3
 10
16.2973
 20
50.4443
  0
POINT
  8
3
 10
16.0046
 20
50.6251
  0
POINT
  8
3
 10
15.8536
 20
50.7701
  0
POINT
  8
3
 10
15.7361
 20
50.9437
  0
POINT
  8
3
 10
15.5809
 20
51.4749
  0
POINT
  8
3
 10
15.7679
 20
52.0359
  0
POINT
  8
3
 10
15.9209
 20
52.2392
  0
POINT
  8
3
 10
16.1003
 20
52.4133
  0
POINT
  8
2
 10
16.5023
 20
52.7133
  0
POLYLINE
  8
1
 66
1
 70
0
  0
VERTEX
  8
1
 10
16.5023
 20
52.7133
  0
VERTEX
  8
1
 10
16.6868
 20
52.5758
  0
VERTEX
  8
1
 10
16.9050
 20
52.4604
  0
VERTEX
  8
1
 10
17.1887
 20
52.3509
  0
VERTEX
  8
1
 10
18.0583
 20
52.1137
  0
VERTEX
  8
1
 10
18.9600
 20
51.8520
  0
VERTEX
  8
1
 10
19.7490
 20
51.5959
  0
VERTEX
  8
1
 10
20.2943
 20
51.4056
  0
VERTEX
  8
1
 10
20.8361
 20
51.1949
  0
VERTEX
  8
1
 10
20.8361
 20
51.1949
  0
VERTEX
  8
1
 10
21.2870
 20
50.9703
  0
VERTEX
  8
1
 10
21.6227
 20
50.7810
  0
VERTEX
  8
1
 10
21.9372
 20
50.5755
  0
VERTEX
  8
1
 10
22.3018
 20
50.3064
  0
VERTEX
  8
1
 10
22.6101
 20
49.9998
  0
VERTEX
  8
1
 10
22.8426
 20
49.7267
  0
VERTEX
  8
1
 10
22.9976
 20
49.5075
  0
VERTEX
  8
1
 10
23.1297
 20
49.2853
  0
VERTEX
  8
1
 10
23.2509
 20
49.0259
  0
VERTEX
  8
1
 10
23.3532
 20
48.7278
  0
VERTEX
  8
1
 10
23.4423
 20
48.3940
  0
VERTEX
  8
1
 10
23.5073
 20
48.0323
  0
VERTEX
  8
1
 10
23.5220
 20
47.8492
  0
VERTEX
  8
1
 10
23.5358
 20
47.5943
  0
VERTEX
  8
1
 10
23.5394
 20
47.2777
  0
VERTEX
  8
1
 10
23.5394
 20
47.2777
  0
VERTEX
  8
1
 10
23.5279
 20
47.1307
  0
VERTEX
  8
1
 10
23.5131
 20
46.9944
  0
VERTEX
  8
1
 10
23.4279
 20
46.4884
  0
VERTEX
  8
1
 10
23.2784
 20
46.0519
  0
SEQEND
  8
1
  0
POLYLINE
  8
84
 66
1
 70
0
  0
VERTEX
  8
84
 10
16.5023
 20
52.7133
  0
VERTEX
  8
84
 10
16.6868
 20
52.5758
  0
VERTEX
  8
84
 10
16.9050
 20
52.4604
  0
VERTEX
  8
84
 10
17.1887
 20
52.3509
  0
VERTEX
  8
84
 10
18.0583
 20
52.1137
  0
VERTEX
  8
84
 10
18.9600
 20
51.8520
  0
VERTEX
  8
84
 10
19.7490
 20
51.5959
  0
VERTEX
  8
84
 10
20.2943
 20
51.4056
  0
VERTEX
  8
84
 10
20.8361
 20
51.1949
  0
VERTEX
  8
84
 10
20.8361
 20
51.1949
  0
VERTEX
  8
84
 10
21.2870
 20
50.9703
  0
VERTEX
  8
84
 10
21.6227
 20
50.7810
  0
VERTEX
  8
84
 10
21.9372
 20
50.5755
  0
VERTEX
  8
84
 10
22.3018
 20
50.3064
  0
VERTEX
  8
84
 10
22.4601
 20
50.1575
  0
VERTEX
  8
84
 10
22.6101
 20
49.9998
  0
VERTEX
  8
84
 10
22.8426
 20
49.7267
  0
VERTEX
  8
84
 10
22.9976
 20
49.5075
  0
VERTEX
  8
84
 10
23.1297
 20
49.2853
  0
VERTEX
  8
84
 10
23.2509
 20
49.0259
  0
VERTEX
  8
84
 10
23.3532
 20
48.7278
  0
VERTEX
  8
84
 10
23.4423
 20
48.3940
  0
VERTEX
  8
84
 10
23.5073
 20
48.0323
  0
VERTEX
  8
84
 10
23.5220
 20
47.8492
  0
VERTEX
  8
84
 10
23.5358
 20
47.5943
  0
VERTEX
  8
84
 10
23.5394
 20
47.2777
  0
VERTEX
  8
84
 10
23.5394
 20
47.2777
  0
VERTEX
  8
84
 10
23.5279
 20
47.1307
  0
VERTEX
  8
84
 10
23.5131
 20
46.9944
  0
VERTEX
  8
84
 10
23.4773
 20
46.7401
  0
VERTEX
  8
84
 10
23.4279
 20
46.4884
  0
VERTEX
  8
84
 10
23.2784
 20
46.0519
  0
SEQEND
  8
84
  0
POINT
  8
2
 10
16.5023
 20
52.7133
  0
POINT
  8
3
 10
16.6868
 20
52.5758
  0
POINT
  8
3
 10
16.9050
 20
52.4604
  0
POINT
  8
4
 10
17.1887
 20
52.3509
 30
0.1181
 39
0.1771
  0
POINT
  8
3
 10
17.1887
 20
52.3509
  0
POINT
  8
3
 10
18.0583
 20
52.1137
  0
POINT
  8
3
 10
18.9600
 20
51.8520
  0
POINT
  8
3
 10
19.7490
 20
51.5959
  0
POINT
  8
3
 10
20.2943
 20
51.4056
  0
POINT
  8
3
 10
20.8361
 20
51.1949
  0
POINT
  8
4
 10
20.8361
 20
51.1949
 30
0.1181
 39
0.1771
  0
POINT
  8
2
 10
20.8361
 20
51.1949
  0
POINT
  8
3
 10
21.2870
 20
50.9703
  0
POINT
  8
3
 10
21.6227
 20
50.7810
  0
POINT
  8
3
 10
21.9372
 20
50.5755
  0
POINT
  8
3
 10
22.3018
 20
50.3064
  0
POINT
  8
3
 10
22.6101
 20
49.9998
  0
POINT
  8
3
 10
22.8426
 20
49.7267
  0
POINT
  8
3
 10
22.9976
 20
49.5075
  0
POINT
  8
3
 10
23.1297
 20
49.2853
  0
POINT
  8
3
 10
23.2509
 20
49.0259
  0
POINT
  8
3
 10
23.3532
 20
48.7278
  0
POINT
  8
3
 10
23.4423
 20
48.3940
  0
POINT
  8
3
 10
23.5073
 20
48.0323
  0
POINT
  8
3
 10
23.5220
 20
47.8492
  0
POINT
  8
3
 10
23.5358
 20
47.5943
  0
POINT
  8
3
 10
23.5394
 20
47.2777
  0
POINT
  8
4
 10
23.5394
 20
47.2777
 30
0.1181
 39
0.1771
  0
POINT
  8
2
 10
23.5394
 20
47.2777
  0
POINT
  8
3
 10
23.5279
 20
47.1307
  0
POINT
  8
3
 10
23.5131
 20
46.9944
  0
POINT
  8
3
 10
23.4279
 20
46.4884
  0
POINT
  8
2
 10
23.2784
 20
46.0519
  0
LINE
  8
7
 10
21.0912
 20
49.3363
 11
22.3771
 21
49.3363
  0
LINE
  8
5
 10
21.0912
 20
49.3363
 11
22.3771
 21
49.3363
  0
POINT
  8
2
 10
21.0912
 20
49.3363
  0
POINT
  8
2
 10
22.3771
 20
49.3363
  0
LINE
  8
8
 10
17.7101
 20
51.4823
 11
18.3735
 21
50.1353
  0
POLYLINE
  8
85
 66
1
 70
0
  0
VERTEX
  8
85
 10
17.7101
 20
51.4823
  0
VERTEX
  8
85
 10
18.3735
 20
50.1353
  0
SEQEND
  8
85
  0
TEXT
  8
8
 10
17.7101
 20
51.4823
 40
0.250
 50
0.0000
  1
NM
  7
STANDARD
  0
TEXT
  8
85
 10
17.7101
 20
51.4823
 40
0.250
 50
0.0000
  1
NM
  7
STANDARD
  0
POINT
  8
2
 10
17.7101
 20
51.4823
  0
POINT
  8
2
 10
18.3735
 20
50.1353
  0
POLYLINE
  8
8
 66
1
 70
0
  0
VERTEX
  8
8
 10
17.2495
 20
51.2920
  0
VERTEX
  8
8
 10
18.7990
 20
50.9159
  0
SEQEND
  8
8
  0
POLYLINE
  8
85
 66
1
 70
0
  0
VERTEX
  8
85
 10
17.2495
 20
51.2920
  0
VERTEX
  8
85
 10
18.7990
 20
50.9159
  0
SEQEND
  8
85
  0
TEXT
  8
8
 10
17.2495
 20
51.2920
 40
0.250
 50
0.0000
  1
B
  7
STANDARD
  0
TEXT
  8
85
 10
17.2495
 20
51.2920
 40
0.250
 50
0.0000
  1
B
  7
STANDARD
  0
POINT
  8
2
 10
17.2495
 20
51.2920
  0
POINT
  8
2
 10
18.7990
 20
50.9159
  0
ENDBLK
  0
ENDSEC
  0
SECTION
  2
ENTITIES
  0
TEXT
  8
1
 10
0.0000
 20
0.0000
 40
0.250
 50
0.0000
  1
Style Name: BUY-383396-STF-CAL-SV-HL-REV
  7
STANDARD
  0
TEXT
  8
1
 10
0.0000
 20
0.1400
 40
0.250
 50
0.0000
  1
Creation Date:  1-10-2025
  7
STANDARD
  0
TEXT
  8
1
 10
0.0000
 20
0.2800
 40
0.250
 50
0.0000
  1
Creation Time: 10:37
  7
STANDARD
  0
TEXT
  8
1
 10
0.0000
 20
0.4200
 40
0.250
 50
0.0000
  1
Author: GERBER TECHNOLOGY ; ACCUMARK ; 10.2.0
  7
STANDARD
  0
TEXT
  8
1
 10
0.0000
 20
0.5600
 40
0.250
 50
0.0000
  1
Sample Size: 40
  7
STANDARD
  0
TEXT
  8
1
 10
0.0000
 20
0.7000
 40
0.250
 50
0.0000
  1
Grade Rule Table: CLASSIC
  7
STANDARD
  0
TEXT
  8
1
 10
0.0000
 20
0.8400
 40
0.250
 50
0.0000
  1
Units: ENGLISH
  7
STANDARD
  0
TEXT
  8
1
 10
0.0000
 20
0.9800
 40
0.250
 50
0.0000
  1
Curve Tolerance: .006
  7
STANDARD
  0
TEXT
  8
1
 10
0.0000
 20
1.1200
 40
0.250
 50
0.0000
  1
ASTM/D13Proposal 1 Version: D 6673-04
  7
STANDARD
  0
INSERT
  8
1
  2
BUY-383396-STF-CL-HL-J-SH-01-R_40
 10
0.0000
 20
0.0000
  0
INSERT
  8
1
  2
BUY-383396-STF-CL-HL-J-SH-02SV_40
 10
0.0000
 20
0.0000
  0
INSERT
  8
1
  2
BUY-383396-STF-CL-HL-J-SH-03SV-R_40
 10
0.0000
 20
0.0000
  0
INSERT
  8
1
  2
BUY-383396-STF-CL-HL-J-SH-06_40
 10
0.0000
 20
0.0000
  0
INSERT
  8
1
  2
BUY-383396-STF-CL-HL-J-SH-05-R_40
 10
0.0000
 20
0.0000
  0
INSERT
  8
1
  2
BUY-383396-STF-CL-HL-J-SH-04-R_40
 10
0.0000
 20
0.0000
  0
INSERT
  8
1
  2
BUY-383396-STF-CL-HL-J-SH-07_40
 10
0.0000
 20
0.0000
  0
INSERT
  8
1
  2
BUY-383396-STF-CL-HL-J-SH-08_40
 10
0.0000
 20
0.0000
  0
INSERT
  8
1
  2
BUY-383396-STF-CL-HL-J-FL-07_40
 10
0.0000
 20
0.0000
  0
INSERT
  8
1
  2
BUY-383396-STF-CL-HL-J-CP-07_40
 10
0.0000
 20
0.0000
  0
INSERT
  8
1
  2
BUY-383396-STF-CL-HL-J-CP-05_40
 10
0.0000
 20
0.0000
  0
ENDSEC
  0
EOF
