  0
SECTION
  2
HEADER
  0
ENDSEC
  0
SECTION
  2
BLOCKS
  0
BLOCK
  8
0
  2
BUY-P332084-JF-FA25-BIG-J-SH-01_2XL
 70
64
 10
0.0000
 20
0.0000
  0
TEXT
  8
1
 10
19.8763
 20
25.5160
 40
0.250
 50
0.0000
  1
Piece Name: BUY-P332084-JF-FA25-BIG-J-SH-01
  7
STANDARD
  0
TEXT
  8
1
 10
19.8763
 20
25.6560
 40
0.250
 50
0.0000
  1
Quantity: 1
  7
STANDARD
  0
TEXT
  8
1
 10
19.8763
 20
25.7960
 40
0.250
 50
0.0000
  1
ANNOTATION: F
  7
STANDARD
  0
TEXT
  8
1
 10
19.8763
 20
25.9360
 40
0.250
 50
0.0000
  1
CATEGORY: 1
  7
STANDARD
  0
TEXT
  8
1
 10
19.8763
 20
26.0760
 40
0.250
 50
0.0000
  1
SIZE: 2XL
  7
STANDARD
  0
POLYLINE
  8
1
 66
1
 70
0
  0
VERTEX
  8
1
 10
2.5244
 20
20.0047
  0
VERTEX
  8
1
 10
2.3794
 20
29.5562
  0
SEQEND
  8
1
  0
TEXT
  8
12
 10
2.5244
 20
20.0047
 40
0.250
 50
0.0000
  1
M21
  7
STANDARD
  0
POINT
  8
2
 10
2.5244
 20
20.0047
  0
TEXT
  8
12
 10
2.3794
 20
29.5562
 40
0.250
 50
0.0000
  1
M21
  7
STANDARD
  0
POINT
  8
2
 10
2.3794
 20
29.5562
  0
POLYLINE
  8
1
 66
1
 70
0
  0
VERTEX
  8
1
 10
2.3794
 20
29.5562
  0
VERTEX
  8
1
 10
3.6006
 20
29.5562
  0
SEQEND
  8
1
  0
TEXT
  8
12
 10
2.3794
 20
29.5562
 40
0.250
 50
0.0000
  1
M21
  7
STANDARD
  0
POINT
  8
2
 10
2.3794
 20
29.5562
  0
TEXT
  8
12
 10
3.6006
 20
29.5562
 40
0.250
 50
0.0000
  1
M21
  7
STANDARD
  0
POINT
  8
2
 10
3.6006
 20
29.5562
  0
POLYLINE
  8
1
 66
1
 70
0
  0
VERTEX
  8
1
 10
3.6006
 20
29.5562
  0
VERTEX
  8
1
 10
3.6149
 20
29.8981
  0
VERTEX
  8
1
 10
3.6640
 20
30.2820
  0
VERTEX
  8
1
 10
3.7871
 20
30.6465
  0
VERTEX
  8
1
 10
4.0032
 20
31.0015
  0
VERTEX
  8
1
 10
4.3282
 20
31.3428
  0
VERTEX
  8
1
 10
4.7223
 20
31.6524
  0
VERTEX
  8
1
 10
5.3260
 20
32.0034
  0
VERTEX
  8
1
 10
6.0107
 20
32.3005
  0
VERTEX
  8
1
 10
6.8021
 20
32.5562
  0
VERTEX
  8
1
 10
7.7458
 20
32.7871
  0
VERTEX
  8
1
 10
8.9559
 20
33.0162
  0
VERTEX
  8
1
 10
10.0682
 20
33.1723
  0
VERTEX
  8
1
 10
11.1861
 20
33.2800
  0
VERTEX
  8
1
 10
12.3296
 20
33.3345
  0
VERTEX
  8
1
 10
13.4742
 20
33.3552
  0
VERTEX
  8
1
 10
15.1966
 20
33.3551
  0
VERTEX
  8
1
 10
16.7564
 20
33.3541
  0
VERTEX
  8
1
 10
18.9873
 20
33.3541
  0
VERTEX
  8
1
 10
18.9873
 20
33.3541
  0
VERTEX
  8
1
 10
20.7130
 20
33.2484
  0
VERTEX
  8
1
 10
22.4969
 20
33.0315
  0
VERTEX
  8
1
 10
23.9179
 20
32.8041
  0
VERTEX
  8
1
 10
25.5033
 20
32.5141
  0
VERTEX
  8
1
 10
27.0839
 20
32.1972
  0
VERTEX
  8
1
 10
28.5751
 20
31.8508
  0
VERTEX
  8
1
 10
31.2057
 20
31.2043
  0
VERTEX
  8
1
 10
34.8777
 20
30.3075
  0
SEQEND
  8
1
  0
TEXT
  8
12
 10
3.6006
 20
29.5562
 40
0.250
 50
0.0000
  1
M21
  7
STANDARD
  0
POINT
  8
2
 10
3.6006
 20
29.5562
  0
POINT
  8
3
 10
3.6149
 20
29.8981
  0
POINT
  8
3
 10
3.6640
 20
30.2820
  0
POINT
  8
3
 10
3.7871
 20
30.6465
  0
POINT
  8
3
 10
4.0032
 20
31.0015
  0
POINT
  8
3
 10
4.3282
 20
31.3428
  0
POINT
  8
3
 10
4.7223
 20
31.6524
  0
POINT
  8
3
 10
5.3260
 20
32.0034
  0
POINT
  8
3
 10
6.0107
 20
32.3005
  0
POINT
  8
3
 10
6.8021
 20
32.5562
  0
POINT
  8
3
 10
7.7458
 20
32.7871
  0
POINT
  8
3
 10
8.9559
 20
33.0162
  0
POINT
  8
3
 10
10.0682
 20
33.1723
  0
POINT
  8
3
 10
11.1861
 20
33.2800
  0
POINT
  8
3
 10
12.3296
 20
33.3345
  0
POINT
  8
3
 10
13.4742
 20
33.3552
  0
POINT
  8
3
 10
15.1966
 20
33.3551
  0
POINT
  8
3
 10
16.7564
 20
33.3541
  0
POINT
  8
2
 10
18.9873
 20
33.3541
  0
POINT
  8
4
 10
18.9873
 20
33.3541
 30
0.1181
 39
0.1771
  0
POINT
  8
2
 10
18.9873
 20
33.3541
  0
POINT
  8
2
 10
20.7130
 20
33.2484
  0
POINT
  8
3
 10
22.4969
 20
33.0315
  0
POINT
  8
3
 10
23.9179
 20
32.8041
  0
POINT
  8
3
 10
25.5033
 20
32.5141
  0
POINT
  8
3
 10
27.0839
 20
32.1972
  0
POINT
  8
3
 10
28.5751
 20
31.8508
  0
POINT
  8
3
 10
31.2057
 20
31.2043
  0
TEXT
  8
12
 10
34.8777
 20
30.3075
 40
0.250
 50
0.0000
  1
M21
  7
STANDARD
  0
POINT
  8
2
 10
34.8777
 20
30.3075
  0
POLYLINE
  8
1
 66
1
 70
0
  0
VERTEX
  8
1
 10
34.8777
 20
30.3075
  0
VERTEX
  8
1
 10
34.8137
 20
28.6391
  0
VERTEX
  8
1
 10
34.9785
 20
27.0136
  0
VERTEX
  8
1
 10
35.0754
 20
26.0707
  0
SEQEND
  8
1
  0
TEXT
  8
12
 10
34.8777
 20
30.3075
 40
0.250
 50
0.0000
  1
M21
  7
STANDARD
  0
POINT
  8
2
 10
34.8777
 20
30.3075
  0
POINT
  8
4
 10
34.8137
 20
28.6391
 30
0.1181
 39
0.1771
  0
POINT
  8
2
 10
34.8137
 20
28.6391
  0
POINT
  8
4
 10
34.9785
 20
27.0136
 30
0.1181
 39
0.1771
  0
POINT
  8
3
 10
34.9785
 20
27.0136
  0
TEXT
  8
12
 10
35.0754
 20
26.0707
 40
0.250
 50
0.0000
  1
M21
  7
STANDARD
  0
POINT
  8
2
 10
35.0754
 20
26.0707
  0
POLYLINE
  8
1
 66
1
 70
0
  0
VERTEX
  8
1
 10
35.0754
 20
26.0707
  0
VERTEX
  8
1
 10
37.1963
 20
25.3092
  0
SEQEND
  8
1
  0
TEXT
  8
12
 10
35.0754
 20
26.0707
 40
0.250
 50
0.0000
  1
M21
  7
STANDARD
  0
POINT
  8
2
 10
35.0754
 20
26.0707
  0
TEXT
  8
12
 10
37.1963
 20
25.3092
 40
0.250
 50
0.0000
  1
M21
  7
STANDARD
  0
POINT
  8
2
 10
37.1963
 20
25.3092
  0
POLYLINE
  8
1
 66
1
 70
0
  0
VERTEX
  8
1
 10
37.1963
 20
25.3092
  0
VERTEX
  8
1
 10
37.3732
 20
25.1522
  0
SEQEND
  8
1
  0
TEXT
  8
12
 10
37.1963
 20
25.3092
 40
0.250
 50
0.0000
  1
M21
  7
STANDARD
  0
POINT
  8
2
 10
37.1963
 20
25.3092
  0
TEXT
  8
12
 10
37.3732
 20
25.1522
 40
0.250
 50
0.0000
  1
M21
  7
STANDARD
  0
POINT
  8
2
 10
37.3732
 20
25.1522
  0
POLYLINE
  8
1
 66
1
 70
0
  0
VERTEX
  8
1
 10
37.3732
 20
25.1522
  0
VERTEX
  8
1
 10
37.0967
 20
24.2123
  0
VERTEX
  8
1
 10
36.8846
 20
23.5153
  0
VERTEX
  8
1
 10
36.6589
 20
22.7948
  0
VERTEX
  8
1
 10
36.3791
 20
21.9690
  0
VERTEX
  8
1
 10
36.0821
 20
21.1538
  0
VERTEX
  8
1
 10
35.8085
 20
20.4606
  0
VERTEX
  8
1
 10
35.5547
 20
19.8508
  0
VERTEX
  8
1
 10
35.2979
 20
19.3043
  0
VERTEX
  8
1
 10
35.0264
 20
18.7971
  0
VERTEX
  8
1
 10
34.6794
 20
18.2258
  0
VERTEX
  8
1
 10
34.3173
 20
17.6769
  0
SEQEND
  8
1
  0
TEXT
  8
12
 10
37.3732
 20
25.1522
 40
0.250
 50
0.0000
  1
M21
  7
STANDARD
  0
POINT
  8
2
 10
37.3732
 20
25.1522
  0
POINT
  8
4
 10
37.0967
 20
24.2123
 30
0.1181
 39
0.1771
  0
POINT
  8
3
 10
37.0967
 20
24.2123
  0
POINT
  8
3
 10
36.8846
 20
23.5153
  0
POINT
  8
3
 10
36.6589
 20
22.7948
  0
POINT
  8
3
 10
36.3791
 20
21.9690
  0
POINT
  8
3
 10
36.0821
 20
21.1538
  0
POINT
  8
3
 10
35.8085
 20
20.4606
  0
POINT
  8
3
 10
35.5547
 20
19.8508
  0
POINT
  8
3
 10
35.2979
 20
19.3043
  0
POINT
  8
4
 10
35.0264
 20
18.7971
 30
0.1181
 39
0.1771
  0
POINT
  8
3
 10
35.0264
 20
18.7971
  0
POINT
  8
3
 10
34.6794
 20
18.2258
  0
TEXT
  8
12
 10
34.3173
 20
17.6769
 40
0.250
 50
0.0000
  1
M21
  7
STANDARD
  0
POINT
  8
2
 10
34.3173
 20
17.6769
  0
POLYLINE
  8
1
 66
1
 70
0
  0
VERTEX
  8
1
 10
34.3173
 20
17.6769
  0
VERTEX
  8
1
 10
33.5159
 20
18.1203
  0
VERTEX
  8
1
 10
32.8376
 20
18.4830
  0
VERTEX
  8
1
 10
32.1788
 20
18.8106
  0
VERTEX
  8
1
 10
31.4550
 20
19.1378
  0
VERTEX
  8
1
 10
30.7359
 20
19.4364
  0
VERTEX
  8
1
 10
30.1052
 20
19.6741
  0
VERTEX
  8
1
 10
29.5479
 20
19.8613
  0
VERTEX
  8
1
 10
29.0346
 20
20.0227
  0
VERTEX
  8
1
 10
29.0346
 20
20.0227
  0
VERTEX
  8
1
 10
28.5272
 20
20.1599
  0
VERTEX
  8
1
 10
28.0503
 20
20.2690
  0
VERTEX
  8
1
 10
27.5986
 20
20.3550
  0
VERTEX
  8
1
 10
27.1668
 20
20.4215
  0
VERTEX
  8
1
 10
26.7873
 20
20.4608
  0
VERTEX
  8
1
 10
26.4277
 20
20.4766
  0
VERTEX
  8
1
 10
26.0876
 20
20.4539
  0
VERTEX
  8
1
 10
25.7518
 20
20.4159
  0
VERTEX
  8
1
 10
25.4818
 20
20.3547
  0
VERTEX
  8
1
 10
25.1896
 20
20.2721
  0
VERTEX
  8
1
 10
24.9624
 20
20.1823
  0
VERTEX
  8
1
 10
24.6826
 20
20.0094
  0
VERTEX
  8
1
 10
24.4304
 20
19.7696
  0
VERTEX
  8
1
 10
24.3283
 20
19.6232
  0
VERTEX
  8
1
 10
24.2278
 20
19.4429
  0
VERTEX
  8
1
 10
24.1305
 20
19.2393
  0
VERTEX
  8
1
 10
24.0769
 20
19.0847
  0
VERTEX
  8
1
 10
23.9889
 20
18.8307
  0
SEQEND
  8
1
  0
TEXT
  8
12
 10
34.3173
 20
17.6769
 40
0.250
 50
0.0000
  1
M21
  7
STANDARD
  0
POINT
  8
2
 10
34.3173
 20
17.6769
  0
POINT
  8
3
 10
33.5159
 20
18.1203
  0
POINT
  8
3
 10
32.8376
 20
18.4830
  0
POINT
  8
3
 10
32.1788
 20
18.8106
  0
POINT
  8
3
 10
31.4550
 20
19.1378
  0
POINT
  8
3
 10
30.7359
 20
19.4364
  0
POINT
  8
3
 10
30.1052
 20
19.6741
  0
POINT
  8
3
 10
29.5479
 20
19.8613
  0
POINT
  8
2
 10
29.0346
 20
20.0227
  0
POINT
  8
4
 10
29.0346
 20
20.0227
 30
0.1181
 39
0.1771
  0
POINT
  8
2
 10
29.0346
 20
20.0227
  0
POINT
  8
3
 10
28.5272
 20
20.1599
  0
POINT
  8
3
 10
28.0503
 20
20.2690
  0
POINT
  8
3
 10
27.5986
 20
20.3550
  0
POINT
  8
3
 10
27.1668
 20
20.4215
  0
POINT
  8
3
 10
26.7873
 20
20.4608
  0
POINT
  8
3
 10
26.4277
 20
20.4766
  0
POINT
  8
3
 10
26.0876
 20
20.4539
  0
POINT
  8
3
 10
25.7518
 20
20.4159
  0
POINT
  8
4
 10
25.4818
 20
20.3547
 30
0.1181
 39
0.1771
  0
POINT
  8
3
 10
25.4818
 20
20.3547
  0
POINT
  8
3
 10
25.1896
 20
20.2721
  0
POINT
  8
3
 10
24.9624
 20
20.1823
  0
POINT
  8
3
 10
24.6826
 20
20.0094
  0
POINT
  8
3
 10
24.4304
 20
19.7696
  0
POINT
  8
3
 10
24.3283
 20
19.6232
  0
POINT
  8
4
 10
24.2278
 20
19.4429
 30
0.1181
 39
0.1771
  0
POINT
  8
3
 10
24.2278
 20
19.4429
  0
POINT
  8
3
 10
24.1305
 20
19.2393
  0
POINT
  8
3
 10
24.0769
 20
19.0847
  0
TEXT
  8
12
 10
23.9889
 20
18.8307
 40
0.250
 50
0.0000
  1
M21
  7
STANDARD
  0
POINT
  8
2
 10
23.9889
 20
18.8307
  0
POLYLINE
  8
1
 66
1
 70
0
  0
VERTEX
  8
1
 10
23.9889
 20
18.8307
  0
VERTEX
  8
1
 10
22.2719
 20
19.1376
  0
VERTEX
  8
1
 10
20.9127
 20
19.3670
  0
VERTEX
  8
1
 10
19.6063
 20
19.5674
  0
VERTEX
  8
1
 10
18.7080
 20
19.6581
  0
VERTEX
  8
1
 10
17.9061
 20
19.7195
  0
VERTEX
  8
1
 10
17.1171
 20
19.7442
  0
VERTEX
  8
1
 10
16.4658
 20
19.7181
  0
VERTEX
  8
1
 10
15.6339
 20
19.6593
  0
VERTEX
  8
1
 10
14.6819
 20
19.5705
  0
SEQEND
  8
1
  0
TEXT
  8
12
 10
23.9889
 20
18.8307
 40
0.250
 50
0.0000
  1
M21
  7
STANDARD
  0
POINT
  8
2
 10
23.9889
 20
18.8307
  0
POINT
  8
3
 10
22.2719
 20
19.1376
  0
POINT
  8
3
 10
20.9127
 20
19.3670
  0
POINT
  8
4
 10
19.6063
 20
19.5674
 30
0.1181
 39
0.1771
  0
POINT
  8
3
 10
19.6063
 20
19.5674
  0
POINT
  8
3
 10
18.7080
 20
19.6581
  0
POINT
  8
3
 10
17.9061
 20
19.7195
  0
POINT
  8
3
 10
17.1171
 20
19.7442
  0
POINT
  8
3
 10
16.4658
 20
19.7181
  0
POINT
  8
3
 10
15.6339
 20
19.6593
  0
TEXT
  8
12
 10
14.6819
 20
19.5705
 40
0.250
 50
0.0000
  1
M21
  7
STANDARD
  0
POINT
  8
2
 10
14.6819
 20
19.5705
  0
POLYLINE
  8
1
 66
1
 70
0
  0
VERTEX
  8
1
 10
14.6819
 20
19.5705
  0
VERTEX
  8
1
 10
14.3839
 20
23.8175
  0
VERTEX
  8
1
 10
14.3839
 20
24.6456
  0
SEQEND
  8
1
  0
TEXT
  8
12
 10
14.6819
 20
19.5705
 40
0.250
 50
0.0000
  1
M21
  7
STANDARD
  0
POINT
  8
2
 10
14.6819
 20
19.5705
  0
POINT
  8
2
 10
14.3839
 20
23.8175
  0
POINT
  8
2
 10
14.3839
 20
24.6456
  0
POLYLINE
  8
1
 66
1
 70
0
  0
VERTEX
  8
1
 10
14.3839
 20
24.6456
  0
VERTEX
  8
1
 10
14.3839
 20
20.3185
  0
SEQEND
  8
1
  0
POINT
  8
2
 10
14.3839
 20
24.6456
  0
TEXT
  8
12
 10
14.3839
 20
20.3185
 40
0.250
 50
0.0000
  1
M21
  7
STANDARD
  0
POINT
  8
2
 10
14.3839
 20
20.3185
  0
POLYLINE
  8
1
 66
1
 70
0
  0
VERTEX
  8
1
 10
14.3839
 20
20.3185
  0
VERTEX
  8
1
 10
12.7984
 20
20.2338
  0
VERTEX
  8
1
 10
11.2364
 20
20.1459
  0
VERTEX
  8
1
 10
9.4497
 20
20.0767
  0
VERTEX
  8
1
 10
7.6217
 20
20.0372
  0
VERTEX
  8
1
 10
5.8516
 20
20.0225
  0
VERTEX
  8
1
 10
4.0239
 20
20.0418
  0
VERTEX
  8
1
 10
2.5244
 20
20.0047
  0
SEQEND
  8
1
  0
TEXT
  8
12
 10
14.3839
 20
20.3185
 40
0.250
 50
0.0000
  1
M21
  7
STANDARD
  0
POINT
  8
2
 10
14.3839
 20
20.3185
  0
POINT
  8
3
 10
12.7984
 20
20.2338
  0
POINT
  8
3
 10
11.2364
 20
20.1459
  0
POINT
  8
3
 10
9.4497
 20
20.0767
  0
POINT
  8
3
 10
7.6217
 20
20.0372
  0
POINT
  8
3
 10
5.8516
 20
20.0225
  0
POINT
  8
4
 10
4.0239
 20
20.0418
 30
0.1181
 39
0.1771
  0
POINT
  8
3
 10
4.0239
 20
20.0418
  0
TEXT
  8
12
 10
2.5244
 20
20.0047
 40
0.250
 50
0.0000
  1
M21
  7
STANDARD
  0
POINT
  8
2
 10
2.5244
 20
20.0047
  0
LINE
  8
7
 10
11.1376
 20
25.4325
 11
28.4353
 21
25.4325
  0
LINE
  8
5
 10
11.1376
 20
25.4325
 11
28.4353
 21
25.4325
  0
POINT
  8
2
 10
11.1376
 20
25.4325
  0
POINT
  8
2
 10
28.4353
 20
25.4325
  0
LINE
  8
8
 10
22.5743
 20
19.4835
 11
22.5743
 21
32.4531
  0
TEXT
  8
8
 10
22.5743
 20
19.4835
 40
0.250
 50
0.0000
  1
NM
  7
STANDARD
  0
POINT
  8
2
 10
22.5743
 20
19.4835
  0
POINT
  8
2
 10
22.5743
 20
32.4531
  0
LINE
  8
8
 10
17.7067
 20
33.0781
 11
17.7067
 21
24.5681
  0
TEXT
  8
8
 10
17.7067
 20
33.0781
 40
0.250
 50
0.0000
  1
NM
  7
STANDARD
  0
POINT
  8
2
 10
17.7067
 20
33.0781
  0
POINT
  8
2
 10
17.7067
 20
24.5681
  0
LINE
  8
8
 10
17.7067
 20
23.8175
 11
17.7067
 21
20.1196
  0
TEXT
  8
8
 10
17.7067
 20
23.8175
 40
0.250
 50
0.0000
  1
NM
  7
STANDARD
  0
POINT
  8
2
 10
17.7067
 20
23.8175
  0
POINT
  8
2
 10
17.7067
 20
20.1196
  0
POLYLINE
  8
8
 66
1
 70
0
  0
VERTEX
  8
8
 10
14.3839
 20
24.1928
  0
VERTEX
  8
8
 10
17.9578
 20
24.1928
  0
VERTEX
  8
8
 10
22.4311
 20
24.1928
  0
SEQEND
  8
8
  0
TEXT
  8
8
 10
14.3839
 20
24.1928
 40
0.250
 50
0.0000
  1
NM
  7
STANDARD
  0
POINT
  8
2
 10
14.3839
 20
24.1928
  0
POINT
  8
2
 10
17.9578
 20
24.1928
  0
POINT
  8
2
 10
22.4311
 20
24.1928
  0
POLYLINE
  8
8
 66
1
 70
0
  0
VERTEX
  8
8
 10
14.3824
 20
24.5681
  0
VERTEX
  8
8
 10
17.9615
 20
24.5681
  0
VERTEX
  8
8
 10
22.4311
 20
24.1928
  0
SEQEND
  8
8
  0
TEXT
  8
8
 10
14.3824
 20
24.5681
 40
0.250
 50
0.0000
  1
NM
  7
STANDARD
  0
POINT
  8
2
 10
14.3824
 20
24.5681
  0
POINT
  8
2
 10
17.9615
 20
24.5681
  0
POINT
  8
2
 10
22.4311
 20
24.1928
  0
POLYLINE
  8
8
 66
1
 70
0
  0
VERTEX
  8
8
 10
14.3839
 20
23.8175
  0
VERTEX
  8
8
 10
17.9615
 20
23.8175
  0
VERTEX
  8
8
 10
22.4311
 20
24.1928
  0
SEQEND
  8
8
  0
TEXT
  8
8
 10
14.3839
 20
23.8175
 40
0.250
 50
0.0000
  1
NM
  7
STANDARD
  0
POINT
  8
2
 10
14.3839
 20
23.8175
  0
POINT
  8
2
 10
17.9615
 20
23.8175
  0
POINT
  8
2
 10
22.4311
 20
24.1928
  0
LINE
  8
8
 10
18.3621
 20
32.4531
 11
18.3621
 21
31.7471
  0
TEXT
  8
8
 10
18.3621
 20
32.4531
 40
0.250
 50
0.0000
  1
NM
  7
STANDARD
  0
POINT
  8
2
 10
18.3621
 20
32.4531
  0
POINT
  8
2
 10
18.3621
 20
31.7471
  0
LINE
  8
8
 10
13.5121
 20
32.4531
 11
13.5121
 21
31.7471
  0
TEXT
  8
8
 10
13.5121
 20
32.4531
 40
0.250
 50
0.0000
  1
NM
  7
STANDARD
  0
POINT
  8
2
 10
13.5121
 20
32.4531
  0
POINT
  8
2
 10
13.5121
 20
31.7471
  0
LINE
  8
8
 10
4.6295
 20
32.4531
 11
22.6626
 21
32.4531
  0
TEXT
  8
8
 10
4.6295
 20
32.4531
 40
0.250
 50
0.0000
  1
NM
  7
STANDARD
  0
POINT
  8
2
 10
4.6295
 20
32.4531
  0
POINT
  8
2
 10
22.6626
 20
32.4531
  0
LINE
  8
8
 10
26.5889
 20
22.4228
 11
27.5827
 21
22.3584
  0
TEXT
  8
8
 10
26.5889
 20
22.4228
 40
0.250
 50
0.0000
  1
NM
  7
STANDARD
  0
POINT
  8
2
 10
26.5889
 20
22.4228
  0
POINT
  8
2
 10
27.5827
 20
22.3584
  0
LINE
  8
8
 10
25.8389
 20
26.8600
 11
26.5889
 21
22.4228
  0
TEXT
  8
8
 10
25.8389
 20
26.8600
 40
0.250
 50
0.0000
  1
NM
  7
STANDARD
  0
POINT
  8
2
 10
25.8389
 20
26.8600
  0
POINT
  8
2
 10
26.5889
 20
22.4228
  0
LINE
  8
8
 10
26.8439
 20
26.8600
 11
25.8389
 21
26.8600
  0
TEXT
  8
8
 10
26.8439
 20
26.8600
 40
0.250
 50
0.0000
  1
NM
  7
STANDARD
  0
POINT
  8
2
 10
26.8439
 20
26.8600
  0
POINT
  8
2
 10
25.8389
 20
26.8600
  0
LINE
  8
8
 10
27.5827
 20
22.3584
 11
26.8439
 21
26.8600
  0
TEXT
  8
8
 10
27.5827
 20
22.3584
 40
0.250
 50
0.0000
  1
NM
  7
STANDARD
  0
POINT
  8
2
 10
27.5827
 20
22.3584
  0
POINT
  8
2
 10
26.8439
 20
26.8600
  0
LINE
  8
8
 10
14.5719
 20
24.6456
 11
3.9473
 21
24.6456
  0
TEXT
  8
8
 10
14.5719
 20
24.6456
 40
0.250
 50
0.0000
  1
NM
  7
STANDARD
  0
POINT
  8
2
 10
14.5719
 20
24.6456
  0
POINT
  8
2
 10
3.9473
 20
24.6456
  0
LINE
  8
8
 10
34.2624
 20
30.1807
 11
33.2729
 21
27.6457
  0
TEXT
  8
8
 10
34.2624
 20
30.1807
 40
0.250
 50
0.0000
  1
NM
  7
STANDARD
  0
POINT
  8
2
 10
34.2624
 20
30.1807
  0
POINT
  8
2
 10
33.2729
 20
27.6457
  0
LINE
  8
8
 10
36.9900
 20
24.9658
 11
37.3253
 21
26.1055
  0
TEXT
  8
8
 10
36.9900
 20
24.9658
 40
0.250
 50
0.0000
  1
NM
  7
STANDARD
  0
POINT
  8
2
 10
36.9900
 20
24.9658
  0
POINT
  8
2
 10
37.3253
 20
26.1055
  0
LINE
  8
8
 10
37.3331
 20
26.1025
 11
18.9791
 21
33.0785
  0
TEXT
  8
8
 10
37.3331
 20
26.1025
 40
0.250
 50
0.0000
  1
NM
  7
STANDARD
  0
POINT
  8
2
 10
37.3331
 20
26.1025
  0
POINT
  8
2
 10
18.9791
 20
33.0785
  0
ENDBLK
  0
BLOCK
  8
0
  2
BUY-P332084-JF-FA25-BIG-J-SH-02CV_2XL
 70
64
 10
0.0000
 20
0.0000
  0
TEXT
  8
1
 10
12.1689
 20
32.1451
 40
0.250
 50
0.0000
  1
Piece Name: BUY-P332084-JF-FA25-BIG-J-SH-02CV
  7
STANDARD
  0
TEXT
  8
1
 10
12.1689
 20
32.2851
 40
0.250
 50
0.0000
  1
Quantity: 1
  7
STANDARD
  0
TEXT
  8
1
 10
12.1689
 20
32.4251
 40
0.250
 50
0.0000
  1
ANNOTATION: SP
  7
STANDARD
  0
TEXT
  8
1
 10
12.1689
 20
32.5651
 40
0.250
 50
0.0000
  1
CATEGORY: 2
  7
STANDARD
  0
TEXT
  8
1
 10
12.1689
 20
32.7051
 40
0.250
 50
0.0000
  1
SIZE: 2XL
  7
STANDARD
  0
POLYLINE
  8
1
 66
1
 70
0
  0
VERTEX
  8
1
 10
0.1102
 20
28.5486
  0
VERTEX
  8
1
 10
0.0001
 20
36.3273
  0
SEQEND
  8
1
  0
TEXT
  8
12
 10
0.1102
 20
28.5486
 40
0.250
 50
0.0000
  1
M21
  7
STANDARD
  0
POINT
  8
2
 10
0.1102
 20
28.5486
  0
POINT
  8
2
 10
0.0001
 20
36.3273
  0
POLYLINE
  8
1
 66
1
 70
0
  0
VERTEX
  8
1
 10
0.0001
 20
36.3273
  0
VERTEX
  8
1
 10
1.5211
 20
36.3588
  0
VERTEX
  8
1
 10
1.5211
 20
36.3588
  0
VERTEX
  8
1
 10
3.3489
 20
36.3480
  0
VERTEX
  8
1
 10
5.1185
 20
36.3042
  0
VERTEX
  8
1
 10
6.9456
 20
36.2347
  0
VERTEX
  8
1
 10
8.7308
 20
36.1361
  0
VERTEX
  8
1
 10
10.2912
 20
36.0225
  0
VERTEX
  8
1
 10
11.8751
 20
35.9118
  0
VERTEX
  8
1
 10
11.8751
 20
35.9118
  0
VERTEX
  8
1
 10
13.6631
 20
35.7415
  0
VERTEX
  8
1
 10
15.2595
 20
35.5831
  0
VERTEX
  8
1
 10
16.8661
 20
35.4756
  0
VERTEX
  8
1
 10
18.3362
 20
35.4090
  0
VERTEX
  8
1
 10
19.7180
 20
35.3473
  0
VERTEX
  8
1
 10
21.2139
 20
35.2815
  0
SEQEND
  8
1
  0
POINT
  8
2
 10
0.0001
 20
36.3273
  0
POINT
  8
2
 10
1.5211
 20
36.3588
  0
POINT
  8
4
 10
1.5211
 20
36.3588
 30
0.1181
 39
0.1771
 50
-92.0573
  0
POINT
  8
2
 10
1.5211
 20
36.3588
  0
POINT
  8
3
 10
3.3489
 20
36.3480
  0
POINT
  8
3
 10
5.1185
 20
36.3042
  0
POINT
  8
3
 10
6.9456
 20
36.2347
  0
POINT
  8
3
 10
8.7308
 20
36.1361
  0
POINT
  8
3
 10
10.2912
 20
36.0225
  0
POINT
  8
2
 10
11.8751
 20
35.9118
  0
POINT
  8
4
 10
11.8751
 20
35.9118
 30
0.1181
 39
0.1771
  0
POINT
  8
2
 10
11.8751
 20
35.9118
  0
POINT
  8
3
 10
13.6631
 20
35.7415
  0
POINT
  8
3
 10
15.2595
 20
35.5831
  0
POINT
  8
4
 10
16.8661
 20
35.4756
 30
0.1181
 39
0.1771
  0
POINT
  8
3
 10
16.8661
 20
35.4756
  0
POINT
  8
3
 10
18.3362
 20
35.4090
  0
POINT
  8
3
 10
19.7180
 20
35.3473
  0
TEXT
  8
12
 10
21.2139
 20
35.2815
 40
0.250
 50
0.0000
  1
M21
  7
STANDARD
  0
POINT
  8
2
 10
21.2139
 20
35.2815
  0
POLYLINE
  8
1
 66
1
 70
0
  0
VERTEX
  8
1
 10
21.2139
 20
35.2815
  0
VERTEX
  8
1
 10
21.2713
 20
34.9134
  0
VERTEX
  8
1
 10
21.1813
 20
34.3264
  0
VERTEX
  8
1
 10
21.1255
 20
33.7046
  0
VERTEX
  8
1
 10
21.1150
 20
33.1055
  0
VERTEX
  8
1
 10
21.1311
 20
32.7132
  0
VERTEX
  8
1
 10
21.1311
 20
32.7132
  0
VERTEX
  8
1
 10
21.2448
 20
31.9795
  0
VERTEX
  8
1
 10
21.5004
 20
31.1885
  0
VERTEX
  8
1
 10
21.9338
 20
30.4155
  0
VERTEX
  8
1
 10
22.6016
 20
29.6530
  0
VERTEX
  8
1
 10
23.2002
 20
29.1621
  0
VERTEX
  8
1
 10
23.7691
 20
28.7929
  0
VERTEX
  8
1
 10
24.3378
 20
28.4359
  0
SEQEND
  8
1
  0
TEXT
  8
12
 10
21.2139
 20
35.2815
 40
0.250
 50
0.0000
  1
M21
  7
STANDARD
  0
POINT
  8
2
 10
21.2139
 20
35.2815
  0
POINT
  8
2
 10
21.2713
 20
34.9134
  0
POINT
  8
3
 10
21.1813
 20
34.3264
  0
POINT
  8
3
 10
21.1255
 20
33.7046
  0
POINT
  8
3
 10
21.1150
 20
33.1055
  0
POINT
  8
2
 10
21.1311
 20
32.7132
  0
POINT
  8
4
 10
21.1311
 20
32.7132
 30
0.1181
 39
0.1771
  0
POINT
  8
2
 10
21.1311
 20
32.7132
  0
POINT
  8
3
 10
21.2448
 20
31.9795
  0
POINT
  8
3
 10
21.5004
 20
31.1885
  0
POINT
  8
3
 10
21.9338
 20
30.4155
  0
POINT
  8
3
 10
22.6016
 20
29.6530
  0
POINT
  8
3
 10
23.2002
 20
29.1621
  0
POINT
  8
3
 10
23.7691
 20
28.7929
  0
TEXT
  8
12
 10
24.3378
 20
28.4359
 40
0.250
 50
0.0000
  1
M21
  7
STANDARD
  0
POINT
  8
2
 10
24.3378
 20
28.4359
  0
POLYLINE
  8
1
 66
1
 70
0
  0
VERTEX
  8
1
 10
24.3378
 20
28.4359
  0
VERTEX
  8
1
 10
24.2623
 20
27.9315
  0
SEQEND
  8
1
  0
TEXT
  8
12
 10
24.3378
 20
28.4359
 40
0.250
 50
0.0000
  1
M21
  7
STANDARD
  0
POINT
  8
2
 10
24.3378
 20
28.4359
  0
TEXT
  8
12
 10
24.2623
 20
27.9315
 40
0.250
 50
0.0000
  1
M21
  7
STANDARD
  0
POINT
  8
2
 10
24.2623
 20
27.9315
  0
POLYLINE
  8
1
 66
1
 70
0
  0
VERTEX
  8
1
 10
24.2623
 20
27.9315
  0
VERTEX
  8
1
 10
23.0031
 20
28.0784
  0
VERTEX
  8
1
 10
21.4653
 20
28.2869
  0
VERTEX
  8
1
 10
19.9460
 20
28.5095
  0
VERTEX
  8
1
 10
18.8925
 20
28.6721
  0
VERTEX
  8
1
 10
17.4663
 20
28.8703
  0
VERTEX
  8
1
 10
16.1527
 20
29.0066
  0
VERTEX
  8
1
 10
14.9973
 20
29.1055
  0
VERTEX
  8
1
 10
14.9973
 20
29.1055
  0
VERTEX
  8
1
 10
14.0295
 20
29.1246
  0
VERTEX
  8
1
 10
13.1842
 20
29.1117
  0
VERTEX
  8
1
 10
12.3446
 20
29.0733
  0
VERTEX
  8
1
 10
10.4567
 20
28.9553
  0
VERTEX
  8
1
 10
9.0155
 20
28.8709
  0
VERTEX
  8
1
 10
6.8895
 20
28.7531
  0
VERTEX
  8
1
 10
4.9577
 20
28.6591
  0
VERTEX
  8
1
 10
3.2810
 20
28.5895
  0
VERTEX
  8
1
 10
1.6132
 20
28.5486
  0
VERTEX
  8
1
 10
0.1102
 20
28.5486
  0
SEQEND
  8
1
  0
TEXT
  8
12
 10
24.2623
 20
27.9315
 40
0.250
 50
0.0000
  1
M21
  7
STANDARD
  0
POINT
  8
2
 10
24.2623
 20
27.9315
  0
POINT
  8
3
 10
23.0031
 20
28.0784
  0
POINT
  8
3
 10
21.4653
 20
28.2869
  0
POINT
  8
4
 10
19.9460
 20
28.5095
 30
0.1181
 39
0.1771
  0
POINT
  8
3
 10
19.9460
 20
28.5095
  0
POINT
  8
3
 10
18.8925
 20
28.6721
  0
POINT
  8
3
 10
17.4663
 20
28.8703
  0
POINT
  8
3
 10
16.1527
 20
29.0066
  0
POINT
  8
2
 10
14.9973
 20
29.1055
  0
POINT
  8
4
 10
14.9973
 20
29.1055
 30
0.1181
 39
0.1771
  0
POINT
  8
2
 10
14.9973
 20
29.1055
  0
POINT
  8
3
 10
14.0295
 20
29.1246
  0
POINT
  8
2
 10
13.1842
 20
29.1117
  0
POINT
  8
3
 10
12.3446
 20
29.0733
  0
TEXT
  8
12
 10
10.4567
 20
28.9553
 40
0.250
 50
0.0000
  1
M21
  7
STANDARD
  0
POINT
  8
2
 10
10.4567
 20
28.9553
  0
POINT
  8
3
 10
9.0155
 20
28.8709
  0
POINT
  8
3
 10
6.8895
 20
28.7531
  0
POINT
  8
4
 10
4.9577
 20
28.6591
 30
0.1181
 39
0.1771
  0
POINT
  8
3
 10
4.9577
 20
28.6591
  0
POINT
  8
3
 10
3.2810
 20
28.5895
  0
POINT
  8
4
 10
1.6132
 20
28.5486
 30
0.1181
 39
0.1771
  0
POINT
  8
2
 10
1.6132
 20
28.5486
  0
POINT
  8
2
 10
0.1102
 20
28.5486
  0
LINE
  8
7
 10
5.8565
 20
33.2640
 11
17.9971
 21
33.2640
  0
LINE
  8
5
 10
5.8565
 20
33.2640
 11
17.9971
 21
33.2640
  0
POINT
  8
2
 10
5.8565
 20
33.2640
  0
POINT
  8
2
 10
17.9971
 20
33.2640
  0
LINE
  8
8
 10
15.0026
 20
35.2188
 11
15.0026
 21
29.6057
  0
TEXT
  8
8
 10
15.0026
 20
35.2188
 40
0.250
 50
0.0000
  1
NM
  7
STANDARD
  0
POINT
  8
2
 10
15.0026
 20
35.2188
  0
POINT
  8
2
 10
15.0026
 20
29.6057
  0
LINE
  8
8
 10
19.8530
 20
34.9536
 11
19.8530
 21
29.0356
  0
TEXT
  8
8
 10
19.8530
 20
34.9536
 40
0.250
 50
0.0000
  1
NM
  7
STANDARD
  0
POINT
  8
2
 10
19.8530
 20
34.9536
  0
POINT
  8
2
 10
19.8530
 20
29.0356
  0
ENDBLK
  0
BLOCK
  8
0
  2
BUY-P332084-JF-FA25-BIG-J-SH-03CV-L_2XL
 70
64
 10
0.0000
 20
0.0000
  0
TEXT
  8
1
 10
42.2535
 20
29.2082
 40
0.250
 50
0.0000
  1
Piece Name: BUY-P332084-JF-FA25-BIG-J-SH-03CV-L
  7
STANDARD
  0
TEXT
  8
1
 10
42.2535
 20
29.3482
 40
0.250
 50
0.0000
  1
Quantity: 1
  7
STANDARD
  0
TEXT
  8
1
 10
42.2535
 20
29.4882
 40
0.250
 50
0.0000
  1
ANNOTATION: B
  7
STANDARD
  0
TEXT
  8
1
 10
42.2535
 20
29.6282
 40
0.250
 50
0.0000
  1
CATEGORY: 3
  7
STANDARD
  0
TEXT
  8
1
 10
42.2535
 20
29.7682
 40
0.250
 50
0.0000
  1
SIZE: 2XL
  7
STANDARD
  0
POLYLINE
  8
1
 66
1
 70
0
  0
VERTEX
  8
1
 10
58.7469
 20
23.8204
  0
VERTEX
  8
1
 10
56.9551
 20
23.6540
  0
VERTEX
  8
1
 10
54.8666
 20
23.5043
  0
VERTEX
  8
1
 10
53.5262
 20
23.4563
  0
VERTEX
  8
1
 10
52.1911
 20
23.4334
  0
VERTEX
  8
1
 10
50.3030
 20
23.4725
  0
VERTEX
  8
1
 10
48.3651
 20
23.5600
  0
VERTEX
  8
1
 10
46.2241
 20
23.6809
  0
VERTEX
  8
1
 10
44.6130
 20
23.7852
  0
VERTEX
  8
1
 10
43.6724
 20
23.8461
  0
VERTEX
  8
1
 10
41.8070
 20
23.9355
  0
VERTEX
  8
1
 10
39.7411
 20
24.0124
  0
VERTEX
  8
1
 10
38.9795
 20
23.9769
  0
VERTEX
  8
1
 10
38.4106
 20
23.9323
  0
VERTEX
  8
1
 10
38.0690
 20
23.8719
  0
VERTEX
  8
1
 10
37.8741
 20
23.8113
  0
VERTEX
  8
1
 10
37.6952
 20
23.7312
  0
VERTEX
  8
1
 10
37.5287
 20
23.6312
  0
VERTEX
  8
1
 10
37.3356
 20
23.4778
  0
VERTEX
  8
1
 10
37.1492
 20
23.2991
  0
VERTEX
  8
1
 10
36.9509
 20
23.1025
  0
VERTEX
  8
1
 10
36.6834
 20
22.8386
  0
VERTEX
  8
1
 10
36.4224
 20
22.6101
  0
VERTEX
  8
1
 10
36.1566
 20
22.4329
  0
VERTEX
  8
1
 10
35.8804
 20
22.3004
  0
VERTEX
  8
1
 10
35.5902
 20
22.1919
  0
VERTEX
  8
1
 10
35.2709
 20
22.1092
  0
VERTEX
  8
1
 10
34.8691
 20
22.0577
  0
VERTEX
  8
1
 10
34.8691
 20
22.0577
  0
VERTEX
  8
1
 10
26.3380
 20
22.0577
  0
VERTEX
  8
1
 10
24.8377
 20
22.0577
  0
SEQEND
  8
1
  0
TEXT
  8
12
 10
58.7469
 20
23.8204
 40
0.250
 50
0.0000
  1
M21
  7
STANDARD
  0
POINT
  8
2
 10
58.7469
 20
23.8204
  0
POINT
  8
3
 10
56.9551
 20
23.6540
  0
POINT
  8
3
 10
54.8666
 20
23.5043
  0
POINT
  8
3
 10
53.5262
 20
23.4563
  0
POINT
  8
3
 10
52.1911
 20
23.4334
  0
POINT
  8
3
 10
50.3030
 20
23.4725
  0
POINT
  8
3
 10
48.3651
 20
23.5600
  0
POINT
  8
3
 10
46.2241
 20
23.6809
  0
POINT
  8
3
 10
44.6130
 20
23.7852
  0
POINT
  8
3
 10
43.6724
 20
23.8461
  0
POINT
  8
3
 10
41.8070
 20
23.9355
  0
POINT
  8
4
 10
39.7411
 20
24.0124
 30
0.1181
 39
0.1771
  0
POINT
  8
2
 10
39.7411
 20
24.0124
  0
POINT
  8
3
 10
38.9795
 20
23.9769
  0
POINT
  8
2
 10
38.4106
 20
23.9323
  0
POINT
  8
3
 10
38.0690
 20
23.8719
  0
POINT
  8
3
 10
37.8741
 20
23.8113
  0
POINT
  8
3
 10
37.6952
 20
23.7312
  0
POINT
  8
3
 10
37.5287
 20
23.6312
  0
POINT
  8
3
 10
37.3356
 20
23.4778
  0
POINT
  8
3
 10
37.1492
 20
23.2991
  0
POINT
  8
3
 10
36.9509
 20
23.1025
  0
POINT
  8
3
 10
36.6834
 20
22.8386
  0
POINT
  8
3
 10
36.4224
 20
22.6101
  0
POINT
  8
3
 10
36.1566
 20
22.4329
  0
POINT
  8
3
 10
35.8804
 20
22.3004
  0
POINT
  8
3
 10
35.5902
 20
22.1919
  0
POINT
  8
3
 10
35.2709
 20
22.1092
  0
POINT
  8
2
 10
34.8691
 20
22.0577
  0
POINT
  8
4
 10
34.8691
 20
22.0577
 30
0.1181
 39
0.1771
  0
POINT
  8
2
 10
34.8691
 20
22.0577
  0
POINT
  8
4
 10
26.3380
 20
22.0577
 30
0.1181
 39
0.1771
  0
POINT
  8
3
 10
26.3380
 20
22.0577
  0
POINT
  8
2
 10
24.8377
 20
22.0577
  0
POLYLINE
  8
1
 66
1
 70
0
  0
VERTEX
  8
1
 10
24.8377
 20
22.0577
  0
VERTEX
  8
1
 10
24.8406
 20
24.5129
  0
VERTEX
  8
1
 10
24.8591
 20
35.1370
  0
SEQEND
  8
1
  0
POINT
  8
2
 10
24.8377
 20
22.0577
  0
POINT
  8
4
 10
24.8406
 20
24.5129
 30
0.1181
 39
0.1771
  0
POINT
  8
2
 10
24.8406
 20
24.5129
  0
POINT
  8
2
 10
24.8591
 20
35.1370
  0
POLYLINE
  8
1
 66
1
 70
0
  0
VERTEX
  8
1
 10
24.8591
 20
35.1370
  0
VERTEX
  8
1
 10
26.3620
 20
35.1370
  0
VERTEX
  8
1
 10
28.0298
 20
35.0961
  0
VERTEX
  8
1
 10
29.7065
 20
35.0264
  0
VERTEX
  8
1
 10
31.6383
 20
34.9324
  0
VERTEX
  8
1
 10
33.7643
 20
34.8146
  0
VERTEX
  8
1
 10
35.2055
 20
34.7303
  0
VERTEX
  8
1
 10
37.0934
 20
34.6123
  0
VERTEX
  8
1
 10
37.9331
 20
34.5739
  0
VERTEX
  8
1
 10
38.7783
 20
34.5610
  0
VERTEX
  8
1
 10
39.7461
 20
34.5801
  0
VERTEX
  8
1
 10
39.7461
 20
34.5801
  0
VERTEX
  8
1
 10
40.9108
 20
34.6790
  0
VERTEX
  8
1
 10
42.1845
 20
34.8437
  0
VERTEX
  8
1
 10
43.4222
 20
35.0759
  0
VERTEX
  8
1
 10
44.6728
 20
35.3419
  0
VERTEX
  8
1
 10
46.0478
 20
35.6682
  0
VERTEX
  8
1
 10
47.4675
 20
36.0053
  0
VERTEX
  8
1
 10
48.9563
 20
36.3588
  0
SEQEND
  8
1
  0
POINT
  8
2
 10
24.8591
 20
35.1370
  0
POINT
  8
4
 10
26.3620
 20
35.1370
 30
0.1181
 39
0.1771
  0
POINT
  8
3
 10
26.3620
 20
35.1370
  0
POINT
  8
3
 10
28.0298
 20
35.0961
  0
POINT
  8
4
 10
29.7065
 20
35.0264
 30
0.1181
 39
0.1771
  0
POINT
  8
3
 10
29.7065
 20
35.0264
  0
POINT
  8
3
 10
31.6383
 20
34.9324
  0
POINT
  8
2
 10
33.7643
 20
34.8146
  0
POINT
  8
3
 10
35.2055
 20
34.7303
  0
POINT
  8
3
 10
37.0934
 20
34.6123
  0
POINT
  8
3
 10
37.9331
 20
34.5739
  0
POINT
  8
2
 10
38.7783
 20
34.5610
  0
POINT
  8
2
 10
39.7461
 20
34.5801
  0
POINT
  8
4
 10
39.7461
 20
34.5801
 30
0.1181
 39
0.1771
  0
POINT
  8
2
 10
39.7461
 20
34.5801
  0
POINT
  8
3
 10
40.9108
 20
34.6790
  0
POINT
  8
3
 10
42.1845
 20
34.8437
  0
POINT
  8
3
 10
43.4222
 20
35.0759
  0
POINT
  8
4
 10
44.6728
 20
35.3419
 30
0.1181
 39
0.1771
  0
POINT
  8
3
 10
44.6728
 20
35.3419
  0
POINT
  8
3
 10
46.0478
 20
35.6682
  0
POINT
  8
3
 10
47.4675
 20
36.0053
  0
TEXT
  8
12
 10
48.9563
 20
36.3588
 40
0.250
 50
0.0000
  1
M21
  7
STANDARD
  0
POINT
  8
2
 10
48.9563
 20
36.3588
  0
POLYLINE
  8
1
 66
1
 70
0
  0
VERTEX
  8
1
 10
48.9563
 20
36.3588
  0
VERTEX
  8
1
 10
49.0836
 20
35.8653
  0
SEQEND
  8
1
  0
TEXT
  8
12
 10
48.9563
 20
36.3588
 40
0.250
 50
0.0000
  1
M21
  7
STANDARD
  0
POINT
  8
2
 10
48.9563
 20
36.3588
  0
POINT
  8
2
 10
49.0836
 20
35.8653
  0
POLYLINE
  8
1
 66
1
 70
0
  0
VERTEX
  8
1
 10
49.0836
 20
35.8653
  0
VERTEX
  8
1
 10
49.8631
 20
35.8218
  0
VERTEX
  8
1
 10
50.6505
 20
35.7827
  0
VERTEX
  8
1
 10
51.3494
 20
35.7579
  0
VERTEX
  8
1
 10
51.9300
 20
35.7453
  0
VERTEX
  8
1
 10
52.7908
 20
35.7338
  0
VERTEX
  8
1
 10
53.4742
 20
35.7482
  0
VERTEX
  8
1
 10
54.2682
 20
35.7951
  0
VERTEX
  8
1
 10
55.0596
 20
35.8709
  0
VERTEX
  8
1
 10
55.8236
 20
35.9765
  0
VERTEX
  8
1
 10
56.5745
 20
36.1042
  0
SEQEND
  8
1
  0
POINT
  8
2
 10
49.0836
 20
35.8653
  0
POINT
  8
3
 10
49.8631
 20
35.8218
  0
POINT
  8
3
 10
50.6505
 20
35.7827
  0
POINT
  8
3
 10
51.3494
 20
35.7579
  0
POINT
  8
4
 10
51.9300
 20
35.7453
 30
0.1181
 39
0.1771
  0
POINT
  8
3
 10
51.9300
 20
35.7453
  0
POINT
  8
3
 10
52.7908
 20
35.7338
  0
POINT
  8
3
 10
53.4742
 20
35.7482
  0
POINT
  8
3
 10
54.2682
 20
35.7951
  0
POINT
  8
3
 10
55.0596
 20
35.8709
  0
POINT
  8
3
 10
55.8236
 20
35.9765
  0
TEXT
  8
12
 10
56.5745
 20
36.1042
 40
0.250
 50
0.0000
  1
M21
  7
STANDARD
  0
POINT
  8
2
 10
56.5745
 20
36.1042
  0
POLYLINE
  8
1
 66
1
 70
0
  0
VERTEX
  8
1
 10
56.5745
 20
36.1042
  0
VERTEX
  8
1
 10
56.7765
 20
35.4827
  0
VERTEX
  8
1
 10
56.9767
 20
34.8681
  0
VERTEX
  8
1
 10
57.2546
 20
34.0851
  0
VERTEX
  8
1
 10
57.5654
 20
33.2545
  0
VERTEX
  8
1
 10
57.9035
 20
32.3965
  0
VERTEX
  8
1
 10
58.2840
 20
31.4721
  0
VERTEX
  8
1
 10
58.7398
 20
30.4106
  0
VERTEX
  8
1
 10
59.2565
 20
29.2414
  0
VERTEX
  8
1
 10
59.6693
 20
28.3508
  0
SEQEND
  8
1
  0
TEXT
  8
12
 10
56.5745
 20
36.1042
 40
0.250
 50
0.0000
  1
M21
  7
STANDARD
  0
POINT
  8
2
 10
56.5745
 20
36.1042
  0
POINT
  8
3
 10
56.7765
 20
35.4827
  0
POINT
  8
4
 10
56.9767
 20
34.8681
 30
0.1181
 39
0.1771
  0
POINT
  8
3
 10
56.9767
 20
34.8681
  0
POINT
  8
3
 10
57.2546
 20
34.0851
  0
POINT
  8
3
 10
57.5654
 20
33.2545
  0
POINT
  8
3
 10
57.9035
 20
32.3965
  0
POINT
  8
3
 10
58.2840
 20
31.4721
  0
POINT
  8
3
 10
58.7398
 20
30.4106
  0
POINT
  8
4
 10
59.2565
 20
29.2414
 30
0.1181
 39
0.1771
  0
POINT
  8
3
 10
59.2565
 20
29.2414
  0
TEXT
  8
12
 10
59.6693
 20
28.3508
 40
0.250
 50
0.0000
  1
M21
  7
STANDARD
  0
POINT
  8
2
 10
59.6693
 20
28.3508
  0
POLYLINE
  8
1
 66
1
 70
0
  0
VERTEX
  8
1
 10
59.6693
 20
28.3508
  0
VERTEX
  8
1
 10
59.3567
 20
28.0029
  0
VERTEX
  8
1
 10
59.1883
 20
27.7816
  0
VERTEX
  8
1
 10
59.0369
 20
27.5493
  0
VERTEX
  8
1
 10
58.9343
 20
27.3288
  0
VERTEX
  8
1
 10
58.8549
 20
27.0991
  0
VERTEX
  8
1
 10
58.7833
 20
26.7339
  0
VERTEX
  8
1
 10
58.7418
 20
26.3638
  0
VERTEX
  8
1
 10
58.7291
 20
25.9134
  0
VERTEX
  8
1
 10
58.7285
 20
25.3820
  0
VERTEX
  8
1
 10
58.7410
 20
24.3189
  0
VERTEX
  8
1
 10
58.7469
 20
23.8204
  0
SEQEND
  8
1
  0
TEXT
  8
12
 10
59.6693
 20
28.3508
 40
0.250
 50
0.0000
  1
M21
  7
STANDARD
  0
POINT
  8
2
 10
59.6693
 20
28.3508
  0
POINT
  8
3
 10
59.3567
 20
28.0029
  0
POINT
  8
3
 10
59.1883
 20
27.7816
  0
POINT
  8
3
 10
59.0369
 20
27.5493
  0
POINT
  8
3
 10
58.9343
 20
27.3288
  0
POINT
  8
3
 10
58.8549
 20
27.0991
  0
POINT
  8
3
 10
58.7833
 20
26.7339
  0
POINT
  8
3
 10
58.7418
 20
26.3638
  0
POINT
  8
3
 10
58.7291
 20
25.9134
  0
POINT
  8
3
 10
58.7285
 20
25.3820
  0
POINT
  8
4
 10
58.7410
 20
24.3189
 30
0.1181
 39
0.1771
  0
POINT
  8
3
 10
58.7410
 20
24.3189
  0
TEXT
  8
12
 10
58.7469
 20
23.8204
 40
0.250
 50
0.0000
  1
M21
  7
STANDARD
  0
POINT
  8
2
 10
58.7469
 20
23.8204
  0
LINE
  8
7
 10
33.6289
 20
29.8826
 11
50.9892
 21
29.8826
  0
LINE
  8
5
 10
33.6289
 20
29.8826
 11
50.9892
 21
29.8826
  0
POINT
  8
2
 10
33.6289
 20
29.8826
  0
POINT
  8
2
 10
50.9892
 20
29.8826
  0
LINE
  8
8
 10
39.7411
 20
34.0799
 11
39.7411
 21
24.5124
  0
TEXT
  8
8
 10
39.7411
 20
34.0799
 40
0.250
 50
0.0000
  1
NM
  7
STANDARD
  0
POINT
  8
2
 10
39.7411
 20
34.0799
  0
POINT
  8
2
 10
39.7411
 20
24.5124
  0
LINE
  8
8
 10
44.7165
 20
34.8400
 11
44.7165
 21
24.2796
  0
TEXT
  8
8
 10
44.7165
 20
34.8400
 40
0.250
 50
0.0000
  1
NM
  7
STANDARD
  0
POINT
  8
2
 10
44.7165
 20
34.8400
  0
POINT
  8
2
 10
44.7165
 20
24.2796
  0
LINE
  8
8
 10
50.3022
 20
23.9730
 11
50.2850
 21
35.4114
  0
TEXT
  8
8
 10
50.3022
 20
23.9730
 40
0.250
 50
0.0000
  1
NM
  7
STANDARD
  0
POINT
  8
2
 10
50.3022
 20
23.9730
  0
POINT
  8
2
 10
50.2850
 20
35.4114
  0
LINE
  8
8
 10
56.3808
 20
35.6712
 11
56.3648
 21
24.1111
  0
TEXT
  8
8
 10
56.3808
 20
35.6712
 40
0.250
 50
0.0000
  1
NM
  7
STANDARD
  0
POINT
  8
2
 10
56.3808
 20
35.6712
  0
POINT
  8
2
 10
56.3648
 20
24.1111
  0
LINE
  8
8
 10
58.3418
 20
24.7629
 11
26.3415
 21
24.7629
  0
TEXT
  8
8
 10
58.3418
 20
24.7629
 40
0.250
 50
0.0000
  1
NM
  7
STANDARD
  0
POINT
  8
2
 10
58.3418
 20
24.7629
  0
POINT
  8
2
 10
26.3415
 20
24.7629
  0
LINE
  8
8
 10
58.3474
 20
24.2854
 11
56.3808
 21
35.6712
  0
TEXT
  8
8
 10
58.3474
 20
24.2854
 40
0.250
 50
0.0000
  1
NM
  7
STANDARD
  0
POINT
  8
2
 10
58.3474
 20
24.2854
  0
POINT
  8
2
 10
56.3808
 20
35.6712
  0
LINE
  8
9
 10
58.3474
 20
24.2854
 11
57.9549
 21
24.2854
  0
TEXT
  8
9
 10
58.3474
 20
24.2854
 40
0.250
 50
0.0000
  1
0
  7
STANDARD
  0
POINT
  8
2
 10
58.3474
 20
24.2854
  0
POINT
  8
2
 10
57.9549
 20
24.2854
  0
LINE
  8
8
 10
26.3380
 20
24.5129
 11
39.7388
 21
24.5129
  0
TEXT
  8
8
 10
26.3380
 20
24.5129
 40
0.250
 50
0.0000
  1
NM
  7
STANDARD
  0
POINT
  8
2
 10
26.3380
 20
24.5129
  0
POINT
  8
2
 10
39.7388
 20
24.5129
  0
LINE
  8
8
 10
35.3813
 20
24.5127
 11
34.8614
 21
22.6877
  0
TEXT
  8
8
 10
35.3813
 20
24.5127
 40
0.250
 50
0.0000
  1
NM
  7
STANDARD
  0
POINT
  8
2
 10
35.3813
 20
24.5127
  0
POINT
  8
2
 10
34.8614
 20
22.6877
  0
LINE
  8
8
 10
24.8383
 20
22.5577
 11
36.3438
 21
22.5577
  0
TEXT
  8
8
 10
24.8383
 20
22.5577
 40
0.250
 50
0.0000
  1
NM
  7
STANDARD
  0
POINT
  8
2
 10
24.8383
 20
22.5577
  0
POINT
  8
2
 10
36.3438
 20
22.5577
  0
ENDBLK
  0
BLOCK
  8
0
  2
BUY-P332084-JF-FA25-BIG-J-SH-05_2XL
 70
64
 10
0.0000
 20
0.0000
  0
TEXT
  8
1
 10
14.5463
 20
15.4751
 40
0.250
 50
0.0000
  1
Piece Name: BUY-P332084-JF-FA25-BIG-J-SH-05
  7
STANDARD
  0
TEXT
  8
1
 10
14.5463
 20
15.6151
 40
0.250
 50
0.0000
  1
Quantity: 1
  7
STANDARD
  0
TEXT
  8
1
 10
14.5463
 20
15.7551
 40
0.250
 50
0.0000
  1
ANNOTATION: SL
  7
STANDARD
  0
TEXT
  8
1
 10
14.5463
 20
15.8951
 40
0.250
 50
0.0000
  1
CATEGORY: 5
  7
STANDARD
  0
TEXT
  8
1
 10
14.5463
 20
16.0351
 40
0.250
 50
0.0000
  1
SIZE: 2XL
  7
STANDARD
  0
POLYLINE
  8
1
 66
1
 70
0
  0
VERTEX
  8
1
 10
25.9678
 20
9.3926
  0
VERTEX
  8
1
 10
24.2034
 20
9.4169
  0
VERTEX
  8
1
 10
22.9626
 20
9.4407
  0
VERTEX
  8
1
 10
21.6673
 20
9.4808
  0
VERTEX
  8
1
 10
20.3184
 20
9.5384
  0
VERTEX
  8
1
 10
18.9076
 20
9.6088
  0
VERTEX
  8
1
 10
17.6748
 20
9.7056
  0
VERTEX
  8
1
 10
16.4722
 20
9.8183
  0
VERTEX
  8
1
 10
15.2339
 20
9.9706
  0
VERTEX
  8
1
 10
13.8862
 20
10.1776
  0
VERTEX
  8
1
 10
12.6040
 20
10.4112
  0
VERTEX
  8
1
 10
11.1906
 20
10.6848
  0
VERTEX
  8
1
 10
9.7861
 20
10.9739
  0
VERTEX
  8
1
 10
8.3943
 20
11.2993
  0
VERTEX
  8
1
 10
6.8737
 20
11.6610
  0
SEQEND
  8
1
  0
POINT
  8
2
 10
25.9678
 20
9.3926
  0
POINT
  8
3
 10
24.2034
 20
9.4169
  0
POINT
  8
3
 10
22.9626
 20
9.4407
  0
POINT
  8
3
 10
21.6673
 20
9.4808
  0
POINT
  8
3
 10
20.3184
 20
9.5384
  0
POINT
  8
4
 10
18.9076
 20
9.6088
 30
0.1181
 39
0.1771
  0
POINT
  8
3
 10
18.9076
 20
9.6088
  0
POINT
  8
3
 10
17.6748
 20
9.7056
  0
POINT
  8
3
 10
16.4722
 20
9.8183
  0
POINT
  8
3
 10
15.2339
 20
9.9706
  0
POINT
  8
3
 10
13.8862
 20
10.1776
  0
POINT
  8
3
 10
12.6040
 20
10.4112
  0
POINT
  8
3
 10
11.1906
 20
10.6848
  0
POINT
  8
4
 10
9.7861
 20
10.9739
 30
0.1181
 39
0.1771
  0
POINT
  8
3
 10
9.7861
 20
10.9739
  0
POINT
  8
3
 10
8.3943
 20
11.2993
  0
POINT
  8
2
 10
6.8737
 20
11.6610
  0
POLYLINE
  8
1
 66
1
 70
0
  0
VERTEX
  8
1
 10
6.8737
 20
11.6610
  0
VERTEX
  8
1
 10
6.2953
 20
10.5772
  0
SEQEND
  8
1
  0
POINT
  8
2
 10
6.8737
 20
11.6610
  0
TEXT
  8
12
 10
6.2953
 20
10.5772
 40
0.250
 50
0.0000
  1
M21
  7
STANDARD
  0
POINT
  8
2
 10
6.2953
 20
10.5772
  0
POLYLINE
  8
1
 66
1
 70
0
  0
VERTEX
  8
1
 10
6.2953
 20
10.5772
  0
VERTEX
  8
1
 10
2.0162
 20
11.6345
  0
VERTEX
  8
1
 10
0.0000
 20
12.1327
  0
SEQEND
  8
1
  0
TEXT
  8
12
 10
6.2953
 20
10.5772
 40
0.250
 50
0.0000
  1
M21
  7
STANDARD
  0
POINT
  8
2
 10
6.2953
 20
10.5772
  0
POINT
  8
4
 10
2.0162
 20
11.6345
 30
0.1181
 39
0.1771
  0
POINT
  8
3
 10
2.0162
 20
11.6345
  0
POINT
  8
2
 10
0.0000
 20
12.1327
  0
POLYLINE
  8
1
 66
1
 70
0
  0
VERTEX
  8
1
 10
0.0000
 20
12.1327
  0
VERTEX
  8
1
 10
0.2027
 20
13.7224
  0
VERTEX
  8
1
 10
1.2017
 20
21.5576
  0
SEQEND
  8
1
  0
POINT
  8
2
 10
0.0000
 20
12.1327
  0
POINT
  8
4
 10
0.2027
 20
13.7224
 30
0.1181
 39
0.1771
  0
POINT
  8
3
 10
0.2027
 20
13.7224
  0
POINT
  8
2
 10
1.2017
 20
21.5576
  0
TEXT
  8
12
 10
1.2017
 20
21.5576
 40
0.250
 50
0.0000
  1
M21
  7
STANDARD
  0
POLYLINE
  8
1
 66
1
 70
0
  0
VERTEX
  8
1
 10
1.2017
 20
21.5576
  0
VERTEX
  8
1
 10
3.2399
 20
21.2324
  0
VERTEX
  8
1
 10
3.2399
 20
21.2324
  0
VERTEX
  8
1
 10
5.5005
 20
21.0240
  0
VERTEX
  8
1
 10
7.2204
 20
20.8821
  0
VERTEX
  8
1
 10
8.9882
 20
20.7738
  0
VERTEX
  8
1
 10
10.5650
 20
20.7103
  0
VERTEX
  8
1
 10
12.1149
 20
20.6678
  0
VERTEX
  8
1
 10
13.6649
 20
20.6598
  0
VERTEX
  8
1
 10
15.3353
 20
20.7067
  0
VERTEX
  8
1
 10
17.0048
 20
20.7861
  0
VERTEX
  8
1
 10
17.0048
 20
20.7861
  0
VERTEX
  8
1
 10
18.8311
 20
20.9167
  0
VERTEX
  8
1
 10
20.4538
 20
21.0509
  0
SEQEND
  8
1
  0
POINT
  8
2
 10
1.2017
 20
21.5576
  0
TEXT
  8
12
 10
1.2017
 20
21.5576
 40
0.250
 50
0.0000
  1
M21
  7
STANDARD
  0
POINT
  8
2
 10
3.2399
 20
21.2324
  0
POINT
  8
4
 10
3.2399
 20
21.2324
 30
0.1181
 39
0.1771
  0
POINT
  8
2
 10
3.2399
 20
21.2324
  0
POINT
  8
3
 10
5.5005
 20
21.0240
  0
POINT
  8
4
 10
7.2204
 20
20.8821
 30
0.1181
 39
0.1771
  0
POINT
  8
3
 10
7.2204
 20
20.8821
  0
POINT
  8
3
 10
8.9882
 20
20.7738
  0
POINT
  8
3
 10
10.5650
 20
20.7103
  0
POINT
  8
3
 10
12.1149
 20
20.6678
  0
POINT
  8
3
 10
13.6649
 20
20.6598
  0
POINT
  8
3
 10
15.3353
 20
20.7067
  0
POINT
  8
2
 10
17.0048
 20
20.7861
  0
POINT
  8
4
 10
17.0048
 20
20.7861
 30
0.1181
 39
0.1771
  0
POINT
  8
2
 10
17.0048
 20
20.7861
  0
POINT
  8
3
 10
18.8311
 20
20.9167
  0
TEXT
  8
12
 10
20.4538
 20
21.0509
 40
0.250
 50
0.0000
  1
M21
  7
STANDARD
  0
POINT
  8
2
 10
20.4538
 20
21.0509
  0
POLYLINE
  8
1
 66
1
 70
0
  0
VERTEX
  8
1
 10
20.4538
 20
21.0509
  0
VERTEX
  8
1
 10
20.6271
 20
20.6085
  0
VERTEX
  8
1
 10
20.8045
 20
20.2817
  0
VERTEX
  8
1
 10
21.0225
 20
20.0249
  0
VERTEX
  8
1
 10
21.2717
 20
19.8311
  0
VERTEX
  8
1
 10
21.4805
 20
19.7215
  0
VERTEX
  8
1
 10
21.7563
 20
19.6106
  0
VERTEX
  8
1
 10
21.7563
 20
19.6106
  0
VERTEX
  8
1
 10
22.2432
 20
19.4490
  0
VERTEX
  8
1
 10
22.7348
 20
19.3020
  0
VERTEX
  8
1
 10
23.2978
 20
19.1405
  0
VERTEX
  8
1
 10
23.9578
 20
18.9362
  0
VERTEX
  8
1
 10
24.5667
 20
18.7476
  0
VERTEX
  8
1
 10
25.4471
 20
18.4272
  0
VERTEX
  8
1
 10
26.0750
 20
18.1541
  0
VERTEX
  8
1
 10
26.6361
 20
17.8751
  0
VERTEX
  8
1
 10
27.1025
 20
17.5747
  0
VERTEX
  8
1
 10
27.4610
 20
17.3045
  0
VERTEX
  8
1
 10
27.7342
 20
17.0627
  0
VERTEX
  8
1
 10
27.9573
 20
16.8268
  0
VERTEX
  8
1
 10
28.1838
 20
16.5617
  0
VERTEX
  8
1
 10
28.5163
 20
16.0934
  0
VERTEX
  8
1
 10
28.7777
 20
15.6075
  0
VERTEX
  8
1
 10
28.8683
 20
15.3503
  0
VERTEX
  8
1
 10
28.9519
 20
15.0862
  0
VERTEX
  8
1
 10
29.0171
 20
14.8047
  0
VERTEX
  8
1
 10
29.0663
 20
14.5192
  0
VERTEX
  8
1
 10
29.0887
 20
14.2230
  0
VERTEX
  8
1
 10
29.0926
 20
13.9256
  0
VERTEX
  8
1
 10
29.0666
 20
13.6668
  0
VERTEX
  8
1
 10
29.0666
 20
13.6668
  0
VERTEX
  8
1
 10
29.0137
 20
13.3450
  0
VERTEX
  8
1
 10
28.9327
 20
13.0323
  0
VERTEX
  8
1
 10
28.7957
 20
12.6775
  0
VERTEX
  8
1
 10
28.6300
 20
12.3361
  0
VERTEX
  8
1
 10
28.4439
 20
12.0421
  0
VERTEX
  8
1
 10
28.2395
 20
11.7613
  0
VERTEX
  8
1
 10
27.8663
 20
11.3333
  0
VERTEX
  8
1
 10
27.4715
 20
10.9259
  0
VERTEX
  8
1
 10
27.0311
 20
10.5448
  0
VERTEX
  8
1
 10
26.5695
 20
10.1898
  0
VERTEX
  8
1
 10
25.9730
 20
9.7896
  0
SEQEND
  8
1
  0
TEXT
  8
12
 10
20.4538
 20
21.0509
 40
0.250
 50
0.0000
  1
M21
  7
STANDARD
  0
POINT
  8
2
 10
20.4538
 20
21.0509
  0
POINT
  8
3
 10
20.6271
 20
20.6085
  0
POINT
  8
3
 10
20.8045
 20
20.2817
  0
POINT
  8
3
 10
21.0225
 20
20.0249
  0
POINT
  8
3
 10
21.2717
 20
19.8311
  0
POINT
  8
3
 10
21.4805
 20
19.7215
  0
POINT
  8
2
 10
21.7563
 20
19.6106
  0
POINT
  8
4
 10
21.7563
 20
19.6106
 30
0.1181
 39
0.1771
  0
POINT
  8
2
 10
21.7563
 20
19.6106
  0
POINT
  8
3
 10
22.2432
 20
19.4490
  0
POINT
  8
3
 10
22.7348
 20
19.3020
  0
POINT
  8
3
 10
23.2978
 20
19.1405
  0
POINT
  8
3
 10
23.9578
 20
18.9362
  0
POINT
  8
3
 10
24.5667
 20
18.7476
  0
POINT
  8
4
 10
25.4471
 20
18.4272
 30
0.1181
 39
0.1771
  0
POINT
  8
2
 10
25.4471
 20
18.4272
  0
POINT
  8
3
 10
26.0750
 20
18.1541
  0
POINT
  8
3
 10
26.6361
 20
17.8751
  0
POINT
  8
3
 10
27.1025
 20
17.5747
  0
POINT
  8
3
 10
27.4610
 20
17.3045
  0
POINT
  8
3
 10
27.7342
 20
17.0627
  0
POINT
  8
3
 10
27.9573
 20
16.8268
  0
POINT
  8
3
 10
28.1838
 20
16.5617
  0
POINT
  8
3
 10
28.5163
 20
16.0934
  0
POINT
  8
3
 10
28.7777
 20
15.6075
  0
POINT
  8
3
 10
28.8683
 20
15.3503
  0
POINT
  8
3
 10
28.9519
 20
15.0862
  0
POINT
  8
3
 10
29.0171
 20
14.8047
  0
POINT
  8
3
 10
29.0663
 20
14.5192
  0
POINT
  8
3
 10
29.0887
 20
14.2230
  0
POINT
  8
3
 10
29.0926
 20
13.9256
  0
POINT
  8
3
 10
29.0666
 20
13.6668
  0
POINT
  8
4
 10
29.0666
 20
13.6668
 30
0.1181
 39
0.1771
  0
POINT
  8
2
 10
29.0666
 20
13.6668
  0
POINT
  8
3
 10
29.0137
 20
13.3450
  0
POINT
  8
3
 10
28.9327
 20
13.0323
  0
POINT
  8
3
 10
28.7957
 20
12.6775
  0
POINT
  8
3
 10
28.6300
 20
12.3361
  0
POINT
  8
3
 10
28.4439
 20
12.0421
  0
POINT
  8
3
 10
28.2395
 20
11.7613
  0
POINT
  8
3
 10
27.8663
 20
11.3333
  0
POINT
  8
3
 10
27.4715
 20
10.9259
  0
POINT
  8
3
 10
27.0311
 20
10.5448
  0
POINT
  8
3
 10
26.5695
 20
10.1898
  0
TEXT
  8
12
 10
25.9730
 20
9.7896
 40
0.250
 50
0.0000
  1
M21
  7
STANDARD
  0
POINT
  8
2
 10
25.9730
 20
9.7896
  0
POLYLINE
  8
1
 66
1
 70
0
  0
VERTEX
  8
1
 10
25.9730
 20
9.7896
  0
VERTEX
  8
1
 10
25.9678
 20
9.3926
  0
SEQEND
  8
1
  0
TEXT
  8
12
 10
25.9730
 20
9.7896
 40
0.250
 50
0.0000
  1
M21
  7
STANDARD
  0
POINT
  8
2
 10
25.9730
 20
9.7896
  0
POINT
  8
2
 10
25.9678
 20
9.3926
  0
LINE
  8
7
 10
7.4824
 20
15.4650
 11
17.2667
 21
15.4650
  0
LINE
  8
5
 10
7.4824
 20
15.4650
 11
17.2667
 21
15.4650
  0
POINT
  8
2
 10
7.4824
 20
15.4650
  0
POINT
  8
2
 10
17.2667
 20
15.4650
  0
LINE
  8
8
 10
18.9109
 20
20.5280
 11
18.9109
 21
10.0038
  0
TEXT
  8
8
 10
18.9109
 20
20.5280
 40
0.250
 50
0.0000
  1
NM
  7
STANDARD
  0
POINT
  8
2
 10
18.9109
 20
20.5280
  0
POINT
  8
2
 10
18.9109
 20
10.0038
  0
LINE
  8
8
 10
3.1901
 20
20.8414
 11
2.2176
 21
13.2145
  0
TEXT
  8
8
 10
3.1901
 20
20.8414
 40
0.250
 50
0.0000
  1
NM
  7
STANDARD
  0
POINT
  8
2
 10
3.1901
 20
20.8414
  0
POINT
  8
2
 10
2.2176
 20
13.2145
  0
LINE
  8
8
 10
3.8586
 20
14.2254
 11
3.7632
 21
13.4764
  0
TEXT
  8
8
 10
3.8586
 20
14.2254
 40
0.250
 50
0.0000
  1
NM
  7
STANDARD
  0
POINT
  8
2
 10
3.8586
 20
14.2254
  0
POINT
  8
2
 10
3.7632
 20
13.4764
  0
LINE
  8
8
 10
4.4742
 20
14.0733
 11
4.3787
 21
13.3244
  0
TEXT
  8
8
 10
4.4742
 20
14.0733
 40
0.250
 50
0.0000
  1
NM
  7
STANDARD
  0
POINT
  8
2
 10
4.4742
 20
14.0733
  0
POINT
  8
2
 10
4.3787
 20
13.3244
  0
LINE
  8
8
 10
5.0899
 20
13.9212
 11
4.9944
 21
13.1723
  0
TEXT
  8
8
 10
5.0899
 20
13.9212
 40
0.250
 50
0.0000
  1
NM
  7
STANDARD
  0
POINT
  8
2
 10
5.0899
 20
13.9212
  0
POINT
  8
2
 10
4.9944
 20
13.1723
  0
LINE
  8
8
 10
5.7055
 20
13.7691
 11
5.6100
 21
13.0202
  0
TEXT
  8
8
 10
5.7055
 20
13.7691
 40
0.250
 50
0.0000
  1
NM
  7
STANDARD
  0
POINT
  8
2
 10
5.7055
 20
13.7691
  0
POINT
  8
2
 10
5.6100
 20
13.0202
  0
POLYLINE
  8
11
 66
1
 70
0
  0
VERTEX
  8
11
 10
0.2910
 20
14.4151
  0
VERTEX
  8
11
 10
0.5644
 20
14.3803
  0
SEQEND
  8
11
  0
POINT
  8
2
 10
0.2910
 20
14.4151
  0
POINT
  8
2
 10
0.5644
 20
14.3803
  0
LINE
  8
8
 10
28.6758
 20
13.7185
 11
2.6352
 21
16.4895
  0
TEXT
  8
8
 10
28.6758
 20
13.7185
 40
0.250
 50
0.0000
  1
NM
  7
STANDARD
  0
POINT
  8
2
 10
28.6758
 20
13.7185
  0
POINT
  8
2
 10
2.6352
 20
16.4895
  0
LINE
  8
8
 10
6.7208
 20
17.9372
 11
18.2208
 21
17.9372
  0
TEXT
  8
8
 10
6.7208
 20
17.9372
 40
0.250
 50
0.0000
  1
NM
  7
STANDARD
  0
POINT
  8
2
 10
6.7208
 20
17.9372
  0
POINT
  8
2
 10
18.2208
 20
17.9372
  0
ENDBLK
  0
BLOCK
  8
0
  2
BUY-P332084-JF-FA25-BIG-J-SH-04_2XL
 70
64
 10
0.0000
 20
0.0000
  0
TEXT
  8
1
 10
42.6072
 20
16.5837
 40
0.250
 50
0.0000
  1
Piece Name: BUY-P332084-JF-FA25-BIG-J-SH-04
  7
STANDARD
  0
TEXT
  8
1
 10
42.6072
 20
16.7237
 40
0.250
 50
0.0000
  1
Quantity: 1
  7
STANDARD
  0
TEXT
  8
1
 10
42.6072
 20
16.8637
 40
0.250
 50
0.0000
  1
ANNOTATION: SL
  7
STANDARD
  0
TEXT
  8
1
 10
42.6072
 20
17.0037
 40
0.250
 50
0.0000
  1
CATEGORY: 4
  7
STANDARD
  0
TEXT
  8
1
 10
42.6072
 20
17.1437
 40
0.250
 50
0.0000
  1
SIZE: 2XL
  7
STANDARD
  0
POLYLINE
  8
1
 66
1
 70
0
  0
VERTEX
  8
1
 10
30.6248
 20
11.6099
  0
VERTEX
  8
1
 10
29.5927
 20
19.2683
  0
SEQEND
  8
1
  0
POINT
  8
2
 10
30.6248
 20
11.6099
  0
TEXT
  8
12
 10
29.5927
 20
19.2683
 40
0.250
 50
0.0000
  1
M21
  7
STANDARD
  0
POINT
  8
2
 10
29.5927
 20
19.2683
  0
POLYLINE
  8
1
 66
1
 70
0
  0
VERTEX
  8
1
 10
29.5927
 20
19.2683
  0
VERTEX
  8
1
 10
31.6698
 20
19.3156
  0
VERTEX
  8
1
 10
31.6698
 20
19.3156
  0
VERTEX
  8
1
 10
35.9493
 20
20.3730
  0
SEQEND
  8
1
  0
TEXT
  8
12
 10
29.5927
 20
19.2683
 40
0.250
 50
0.0000
  1
M21
  7
STANDARD
  0
POINT
  8
2
 10
29.5927
 20
19.2683
  0
POINT
  8
2
 10
31.6698
 20
19.3156
  0
POINT
  8
4
 10
31.6698
 20
19.3156
 30
0.1181
 39
0.1771
  0
POINT
  8
2
 10
31.6698
 20
19.3156
  0
TEXT
  8
12
 10
35.9493
 20
20.3730
 40
0.250
 50
0.0000
  1
M21
  7
STANDARD
  0
POINT
  8
2
 10
35.9493
 20
20.3730
  0
POLYLINE
  8
1
 66
1
 70
0
  0
VERTEX
  8
1
 10
35.9493
 20
20.3730
  0
VERTEX
  8
1
 10
36.5277
 20
19.2892
  0
SEQEND
  8
1
  0
TEXT
  8
12
 10
35.9493
 20
20.3730
 40
0.250
 50
0.0000
  1
M21
  7
STANDARD
  0
POINT
  8
2
 10
35.9493
 20
20.3730
  0
POINT
  8
2
 10
36.5277
 20
19.2892
  0
POLYLINE
  8
1
 66
1
 70
0
  0
VERTEX
  8
1
 10
36.5277
 20
19.2892
  0
VERTEX
  8
1
 10
38.0483
 20
19.6509
  0
VERTEX
  8
1
 10
39.4401
 20
19.9763
  0
VERTEX
  8
1
 10
40.8446
 20
20.2655
  0
VERTEX
  8
1
 10
42.2580
 20
20.5391
  0
VERTEX
  8
1
 10
43.5402
 20
20.7727
  0
VERTEX
  8
1
 10
44.8879
 20
20.9797
  0
VERTEX
  8
1
 10
46.1262
 20
21.1320
  0
VERTEX
  8
1
 10
47.3288
 20
21.2447
  0
VERTEX
  8
1
 10
48.5616
 20
21.3414
  0
VERTEX
  8
1
 10
49.9724
 20
21.4119
  0
VERTEX
  8
1
 10
51.3213
 20
21.4694
  0
VERTEX
  8
1
 10
52.6167
 20
21.5095
  0
VERTEX
  8
1
 10
53.8575
 20
21.5335
  0
VERTEX
  8
1
 10
55.6218
 20
21.5576
  0
SEQEND
  8
1
  0
POINT
  8
2
 10
36.5277
 20
19.2892
  0
POINT
  8
3
 10
38.0483
 20
19.6509
  0
POINT
  8
4
 10
39.4401
 20
19.9763
 30
0.1181
 39
0.1771
  0
POINT
  8
3
 10
39.4401
 20
19.9763
  0
POINT
  8
3
 10
40.8446
 20
20.2655
  0
POINT
  8
3
 10
42.2580
 20
20.5391
  0
POINT
  8
3
 10
43.5402
 20
20.7727
  0
POINT
  8
3
 10
44.8879
 20
20.9797
  0
POINT
  8
3
 10
46.1262
 20
21.1320
  0
POINT
  8
3
 10
47.3288
 20
21.2447
  0
POINT
  8
4
 10
48.5616
 20
21.3414
 30
0.1181
 39
0.1771
  0
POINT
  8
3
 10
48.5616
 20
21.3414
  0
POINT
  8
3
 10
49.9724
 20
21.4119
  0
POINT
  8
3
 10
51.3213
 20
21.4694
  0
POINT
  8
3
 10
52.6167
 20
21.5095
  0
POINT
  8
3
 10
53.8575
 20
21.5335
  0
TEXT
  8
12
 10
55.6218
 20
21.5576
 40
0.250
 50
0.0000
  1
M21
  7
STANDARD
  0
POINT
  8
2
 10
55.6218
 20
21.5576
  0
POLYLINE
  8
1
 66
1
 70
0
  0
VERTEX
  8
1
 10
55.6218
 20
21.5576
  0
VERTEX
  8
1
 10
55.6218
 20
21.1261
  0
SEQEND
  8
1
  0
TEXT
  8
12
 10
55.6218
 20
21.5576
 40
0.250
 50
0.0000
  1
M21
  7
STANDARD
  0
POINT
  8
2
 10
55.6218
 20
21.5576
  0
TEXT
  8
12
 10
55.6218
 20
21.1261
 40
0.250
 50
0.0000
  1
M21
  7
STANDARD
  0
POINT
  8
2
 10
55.6218
 20
21.1261
  0
POLYLINE
  8
1
 66
1
 70
0
  0
VERTEX
  8
1
 10
55.6218
 20
21.1261
  0
VERTEX
  8
1
 10
55.1318
 20
20.8145
  0
VERTEX
  8
1
 10
54.1732
 20
20.2497
  0
VERTEX
  8
1
 10
53.0885
 20
19.6222
  0
VERTEX
  8
1
 10
52.4776
 20
19.2451
  0
VERTEX
  8
1
 10
51.9566
 20
18.8925
  0
VERTEX
  8
1
 10
51.6155
 20
18.6280
  0
VERTEX
  8
1
 10
51.3078
 20
18.3491
  0
VERTEX
  8
1
 10
50.9835
 20
17.9968
  0
VERTEX
  8
1
 10
50.6847
 20
17.6231
  0
VERTEX
  8
1
 10
50.4303
 20
17.2079
  0
VERTEX
  8
1
 10
50.2624
 20
16.8481
  0
VERTEX
  8
1
 10
50.1214
 20
16.4565
  0
VERTEX
  8
1
 10
49.9884
 20
15.9527
  0
VERTEX
  8
1
 10
49.9006
 20
15.2246
  0
VERTEX
  8
1
 10
49.9006
 20
15.2246
  0
VERTEX
  8
1
 10
49.8801
 20
14.5201
  0
VERTEX
  8
1
 10
49.8947
 20
14.0668
  0
VERTEX
  8
1
 10
49.9548
 20
13.5567
  0
VERTEX
  8
1
 10
50.0372
 20
13.0496
  0
VERTEX
  8
1
 10
50.1579
 20
12.5020
  0
VERTEX
  8
1
 10
50.0126
 20
12.1195
  0
SEQEND
  8
1
  0
TEXT
  8
12
 10
55.6218
 20
21.1261
 40
0.250
 50
0.0000
  1
M21
  7
STANDARD
  0
POINT
  8
2
 10
55.6218
 20
21.1261
  0
POINT
  8
3
 10
55.1318
 20
20.8145
  0
POINT
  8
3
 10
54.1732
 20
20.2497
  0
POINT
  8
4
 10
53.0885
 20
19.6222
 30
0.1181
 39
0.1771
  0
POINT
  8
3
 10
53.0885
 20
19.6222
  0
POINT
  8
3
 10
52.4776
 20
19.2451
  0
POINT
  8
3
 10
51.9566
 20
18.8925
  0
POINT
  8
3
 10
51.6155
 20
18.6280
  0
POINT
  8
3
 10
51.3078
 20
18.3491
  0
POINT
  8
3
 10
50.9835
 20
17.9968
  0
POINT
  8
3
 10
50.6847
 20
17.6231
  0
POINT
  8
3
 10
50.4303
 20
17.2079
  0
POINT
  8
3
 10
50.2624
 20
16.8481
  0
POINT
  8
3
 10
50.1214
 20
16.4565
  0
POINT
  8
3
 10
49.9884
 20
15.9527
  0
POINT
  8
2
 10
49.9006
 20
15.2246
  0
POINT
  8
4
 10
49.9006
 20
15.2246
 30
0.1181
 39
0.1771
  0
POINT
  8
2
 10
49.9006
 20
15.2246
  0
POINT
  8
3
 10
49.8801
 20
14.5201
  0
POINT
  8
3
 10
49.8947
 20
14.0668
  0
POINT
  8
3
 10
49.9548
 20
13.5567
  0
POINT
  8
3
 10
50.0372
 20
13.0496
  0
POINT
  8
2
 10
50.1579
 20
12.5020
  0
TEXT
  8
12
 10
50.0126
 20
12.1195
 40
0.250
 50
0.0000
  1
M21
  7
STANDARD
  0
POINT
  8
2
 10
50.0126
 20
12.1195
  0
POLYLINE
  8
1
 66
1
 70
0
  0
VERTEX
  8
1
 10
50.0126
 20
12.1195
  0
VERTEX
  8
1
 10
48.3899
 20
12.2537
  0
VERTEX
  8
1
 10
46.5636
 20
12.3843
  0
VERTEX
  8
1
 10
46.5636
 20
12.3843
  0
VERTEX
  8
1
 10
44.8941
 20
12.4637
  0
VERTEX
  8
1
 10
43.2237
 20
12.5105
  0
VERTEX
  8
1
 10
41.6737
 20
12.5025
  0
VERTEX
  8
1
 10
40.1237
 20
12.4599
  0
VERTEX
  8
1
 10
38.5471
 20
12.3964
  0
VERTEX
  8
1
 10
36.6502
 20
12.2861
  0
VERTEX
  8
1
 10
34.9285
 20
12.1440
  0
VERTEX
  8
1
 10
32.6634
 20
11.9351
  0
VERTEX
  8
1
 10
32.6634
 20
11.9351
  0
VERTEX
  8
1
 10
30.6248
 20
11.6099
  0
SEQEND
  8
1
  0
TEXT
  8
12
 10
50.0126
 20
12.1195
 40
0.250
 50
0.0000
  1
M21
  7
STANDARD
  0
POINT
  8
2
 10
50.0126
 20
12.1195
  0
POINT
  8
3
 10
48.3899
 20
12.2537
  0
POINT
  8
2
 10
46.5636
 20
12.3843
  0
POINT
  8
4
 10
46.5636
 20
12.3843
 30
0.1181
 39
0.1771
  0
POINT
  8
2
 10
46.5636
 20
12.3843
  0
POINT
  8
3
 10
44.8941
 20
12.4637
  0
POINT
  8
3
 10
43.2237
 20
12.5105
  0
POINT
  8
3
 10
41.6737
 20
12.5025
  0
POINT
  8
3
 10
40.1237
 20
12.4599
  0
POINT
  8
3
 10
38.5471
 20
12.3964
  0
POINT
  8
4
 10
36.6502
 20
12.2861
 30
0.1181
 39
0.1771
  0
POINT
  8
3
 10
36.6502
 20
12.2861
  0
POINT
  8
3
 10
34.9285
 20
12.1440
  0
POINT
  8
2
 10
32.6634
 20
11.9351
  0
POINT
  8
4
 10
32.6634
 20
11.9351
 30
0.1181
 39
0.1771
  0
POINT
  8
2
 10
32.6634
 20
11.9351
  0
POINT
  8
2
 10
30.6248
 20
11.6099
  0
LINE
  8
7
 10
35.1032
 20
16.2243
 11
45.1691
 21
16.2243
  0
LINE
  8
5
 10
35.1032
 20
16.2243
 11
45.1691
 21
16.2243
  0
POINT
  8
2
 10
35.1032
 20
16.2243
  0
POINT
  8
2
 10
45.1691
 20
16.2243
  0
LINE
  8
8
 10
48.4880
 20
12.6408
 11
48.4879
 21
20.9403
  0
TEXT
  8
8
 10
48.4880
 20
12.6408
 40
0.250
 50
0.0000
  1
NM
  7
STANDARD
  0
POINT
  8
2
 10
48.4880
 20
12.6408
  0
POINT
  8
2
 10
48.4879
 20
20.9403
  0
LINE
  8
8
 10
32.6100
 20
12.3256
 11
31.8804
 21
17.7378
  0
TEXT
  8
8
 10
32.6100
 20
12.3256
 40
0.250
 50
0.0000
  1
NM
  7
STANDARD
  0
POINT
  8
2
 10
32.6100
 20
12.3256
  0
POINT
  8
2
 10
31.8804
 20
17.7378
  0
ENDBLK
  0
BLOCK
  8
0
  2
BUY-P332084-JF-FA25-BIG-J-SH-06_2XL
 70
64
 10
0.0000
 20
0.0000
  0
TEXT
  8
1
 10
35.7111
 20
0.3600
 40
0.250
 50
0.0000
  1
Piece Name: BUY-P332084-JF-FA25-BIG-J-SH-06
  7
STANDARD
  0
TEXT
  8
1
 10
35.7111
 20
0.5000
 40
0.250
 50
0.0000
  1
Quantity: 1
  7
STANDARD
  0
TEXT
  8
1
 10
35.7111
 20
0.6400
 40
0.250
 50
0.0000
  1
ANNOTATION: F
  7
STANDARD
  0
TEXT
  8
1
 10
35.7111
 20
0.7800
 40
0.250
 50
0.0000
  1
CATEGORY: 6
  7
STANDARD
  0
TEXT
  8
1
 10
35.7111
 20
0.9200
 40
0.250
 50
0.0000
  1
SIZE: 2XL
  7
STANDARD
  0
POLYLINE
  8
1
 66
1
 70
0
  0
VERTEX
  8
1
 10
52.5463
 20
-4.8976
  0
VERTEX
  8
1
 10
48.4745
 20
-3.3806
  0
VERTEX
  8
1
 10
46.2297
 20
-2.5368
  0
VERTEX
  8
1
 10
43.8057
 20
-1.6959
  0
VERTEX
  8
1
 10
41.8298
 20
-1.0715
  0
VERTEX
  8
1
 10
39.8402
 20
-0.4913
  0
VERTEX
  8
1
 10
37.9817
 20
-0.0171
  0
VERTEX
  8
1
 10
37.2950
 20
0.1187
  0
VERTEX
  8
1
 10
36.8817
 20
0.2004
  0
VERTEX
  8
1
 10
35.6758
 20
0.3989
  0
VERTEX
  8
1
 10
34.4611
 20
0.5429
  0
VERTEX
  8
1
 10
33.2406
 20
0.6431
  0
VERTEX
  8
1
 10
31.8888
 20
0.6927
  0
VERTEX
  8
1
 10
30.5957
 20
0.7325
  0
VERTEX
  8
1
 10
29.3611
 20
0.7527
  0
VERTEX
  8
1
 10
26.5632
 20
0.6822
  0
VERTEX
  8
1
 10
23.8651
 20
0.6142
  0
VERTEX
  8
1
 10
21.7573
 20
0.5506
  0
VERTEX
  8
1
 10
19.4178
 20
0.4806
  0
VERTEX
  8
1
 10
18.2832
 20
0.4494
  0
SEQEND
  8
1
  0
TEXT
  8
12
 10
52.5463
 20
-4.8976
 40
0.250
 50
0.0000
  1
M21
  7
STANDARD
  0
POINT
  8
2
 10
52.5463
 20
-4.8976
  0
POINT
  8
4
 10
48.4745
 20
-3.3806
 30
0.1181
 39
0.1771
  0
POINT
  8
3
 10
48.4745
 20
-3.3806
  0
POINT
  8
3
 10
46.2297
 20
-2.5368
  0
POINT
  8
3
 10
43.8057
 20
-1.6959
  0
POINT
  8
3
 10
41.8298
 20
-1.0715
  0
POINT
  8
3
 10
39.8402
 20
-0.4913
  0
POINT
  8
3
 10
37.9817
 20
-0.0171
  0
POINT
  8
4
 10
37.2950
 20
0.1187
 30
0.1181
 39
0.1771
  0
POINT
  8
3
 10
37.2950
 20
0.1187
  0
POINT
  8
3
 10
36.8817
 20
0.2004
  0
POINT
  8
3
 10
35.6758
 20
0.3989
  0
POINT
  8
3
 10
34.4611
 20
0.5429
  0
POINT
  8
3
 10
33.2406
 20
0.6431
  0
POINT
  8
3
 10
31.8888
 20
0.6927
  0
POINT
  8
3
 10
30.5957
 20
0.7325
  0
POINT
  8
4
 10
29.3611
 20
0.7527
 30
0.1181
 39
0.1771
  0
POINT
  8
2
 10
29.3611
 20
0.7527
  0
POINT
  8
3
 10
26.5632
 20
0.6822
  0
POINT
  8
3
 10
23.8651
 20
0.6142
  0
POINT
  8
3
 10
21.7573
 20
0.5506
  0
POINT
  8
4
 10
19.4178
 20
0.4806
 30
0.1181
 39
0.1771
  0
POINT
  8
3
 10
19.4178
 20
0.4806
  0
TEXT
  8
12
 10
18.2832
 20
0.4494
 40
0.250
 50
0.0000
  1
M21
  7
STANDARD
  0
POINT
  8
2
 10
18.2832
 20
0.4494
  0
POLYLINE
  8
1
 66
1
 70
0
  0
VERTEX
  8
1
 10
18.2832
 20
0.4494
  0
VERTEX
  8
1
 10
18.2605
 20
1.8965
  0
SEQEND
  8
1
  0
TEXT
  8
12
 10
18.2832
 20
0.4494
 40
0.250
 50
0.0000
  1
M21
  7
STANDARD
  0
POINT
  8
2
 10
18.2832
 20
0.4494
  0
TEXT
  8
12
 10
18.2605
 20
1.8965
 40
0.250
 50
0.0000
  1
M21
  7
STANDARD
  0
POINT
  8
2
 10
18.2605
 20
1.8965
  0
POLYLINE
  8
1
 66
1
 70
0
  0
VERTEX
  8
1
 10
18.2605
 20
1.8965
  0
VERTEX
  8
1
 10
18.7730
 20
1.8965
  0
SEQEND
  8
1
  0
TEXT
  8
12
 10
18.2605
 20
1.8965
 40
0.250
 50
0.0000
  1
M21
  7
STANDARD
  0
POINT
  8
2
 10
18.2605
 20
1.8965
  0
TEXT
  8
12
 10
18.7730
 20
1.8965
 40
0.250
 50
0.0000
  1
M21
  7
STANDARD
  0
POINT
  8
2
 10
18.7730
 20
1.8965
  0
POLYLINE
  8
1
 66
1
 70
0
  0
VERTEX
  8
1
 10
18.7730
 20
1.8965
  0
VERTEX
  8
1
 10
18.7991
 20
2.2381
  0
VERTEX
  8
1
 10
18.8614
 20
2.6204
  0
VERTEX
  8
1
 10
18.9968
 20
2.9814
  0
VERTEX
  8
1
 10
19.2247
 20
3.3310
  0
VERTEX
  8
1
 10
19.5619
 20
3.6660
  0
VERTEX
  8
1
 10
19.9681
 20
3.9689
  0
VERTEX
  8
1
 10
20.5882
 20
4.3109
  0
VERTEX
  8
1
 10
21.2894
 20
4.5984
  0
VERTEX
  8
1
 10
22.0987
 20
4.8437
  0
VERTEX
  8
1
 10
23.0638
 20
5.0629
  0
VERTEX
  8
1
 10
24.3012
 20
5.2775
  0
VERTEX
  8
1
 10
25.4372
 20
5.4203
  0
VERTEX
  8
1
 10
26.5767
 20
5.5147
  0
VERTEX
  8
1
 10
27.7435
 20
5.5559
  0
VERTEX
  8
1
 10
28.9116
 20
5.5635
  0
VERTEX
  8
1
 10
30.6723
 20
5.5437
  0
VERTEX
  8
1
 10
32.2715
 20
5.5231
  0
VERTEX
  8
1
 10
34.5478
 20
5.4975
  0
VERTEX
  8
1
 10
35.1410
 20
5.6176
  0
VERTEX
  8
1
 10
36.2798
 20
5.5973
  0
VERTEX
  8
1
 10
38.0662
 20
5.3937
  0
VERTEX
  8
1
 10
39.4897
 20
5.1770
  0
VERTEX
  8
1
 10
41.0780
 20
4.8988
  0
VERTEX
  8
1
 10
42.6621
 20
4.5936
  0
VERTEX
  8
1
 10
44.1573
 20
4.2582
  0
VERTEX
  8
1
 10
46.7931
 20
3.6315
  0
VERTEX
  8
1
 10
50.4486
 20
2.7705
  0
SEQEND
  8
1
  0
TEXT
  8
12
 10
18.7730
 20
1.8965
 40
0.250
 50
0.0000
  1
M21
  7
STANDARD
  0
POINT
  8
2
 10
18.7730
 20
1.8965
  0
POINT
  8
3
 10
18.7991
 20
2.2381
  0
POINT
  8
3
 10
18.8614
 20
2.6204
  0
POINT
  8
3
 10
18.9968
 20
2.9814
  0
POINT
  8
3
 10
19.2247
 20
3.3310
  0
POINT
  8
3
 10
19.5619
 20
3.6660
  0
POINT
  8
3
 10
19.9681
 20
3.9689
  0
POINT
  8
3
 10
20.5882
 20
4.3109
  0
POINT
  8
3
 10
21.2894
 20
4.5984
  0
POINT
  8
3
 10
22.0987
 20
4.8437
  0
POINT
  8
3
 10
23.0638
 20
5.0629
  0
POINT
  8
3
 10
24.3012
 20
5.2775
  0
POINT
  8
3
 10
25.4372
 20
5.4203
  0
POINT
  8
3
 10
26.5767
 20
5.5147
  0
POINT
  8
3
 10
27.7435
 20
5.5559
  0
POINT
  8
3
 10
28.9116
 20
5.5635
  0
POINT
  8
3
 10
30.6723
 20
5.5437
  0
POINT
  8
3
 10
32.2715
 20
5.5231
  0
POINT
  8
2
 10
34.5478
 20
5.4975
  0
POINT
  8
2
 10
35.1410
 20
5.6176
  0
POINT
  8
2
 10
36.2798
 20
5.5973
  0
POINT
  8
3
 10
38.0662
 20
5.3937
  0
POINT
  8
3
 10
39.4897
 20
5.1770
  0
POINT
  8
3
 10
41.0780
 20
4.8988
  0
POINT
  8
2
 10
42.6621
 20
4.5936
  0
POINT
  8
3
 10
44.1573
 20
4.2582
  0
POINT
  8
3
 10
46.7931
 20
3.6315
  0
POINT
  8
2
 10
50.4486
 20
2.7705
  0
POLYLINE
  8
1
 66
1
 70
0
  0
VERTEX
  8
1
 10
50.4486
 20
2.7705
  0
VERTEX
  8
1
 10
50.3799
 20
0.9794
  0
VERTEX
  8
1
 10
50.6347
 20
-1.7535
  0
SEQEND
  8
1
  0
POINT
  8
2
 10
50.4486
 20
2.7705
  0
POINT
  8
4
 10
50.3799
 20
0.9794
 30
0.1181
 39
0.1771
  0
POINT
  8
2
 10
50.3799
 20
0.9794
  0
POINT
  8
2
 10
50.6347
 20
-1.7535
  0
POLYLINE
  8
1
 66
1
 70
0
  0
VERTEX
  8
1
 10
50.6347
 20
-1.7535
  0
VERTEX
  8
1
 10
52.7557
 20
-2.5149
  0
VERTEX
  8
1
 10
53.1617
 20
-2.8629
  0
SEQEND
  8
1
  0
POINT
  8
2
 10
50.6347
 20
-1.7535
  0
TEXT
  8
12
 10
52.7557
 20
-2.5149
 40
0.250
 50
0.0000
  1
M21
  7
STANDARD
  0
POINT
  8
2
 10
52.7557
 20
-2.5149
  0
POINT
  8
2
 10
53.1617
 20
-2.8629
  0
POLYLINE
  8
1
 66
1
 70
0
  0
VERTEX
  8
1
 10
53.1617
 20
-2.8629
  0
VERTEX
  8
1
 10
52.9179
 20
-3.6916
  0
VERTEX
  8
1
 10
52.7052
 20
-4.3906
  0
VERTEX
  8
1
 10
52.5463
 20
-4.8976
  0
SEQEND
  8
1
  0
POINT
  8
2
 10
53.1617
 20
-2.8629
  0
POINT
  8
3
 10
52.9179
 20
-3.6916
  0
POINT
  8
3
 10
52.7052
 20
-4.3906
  0
TEXT
  8
12
 10
52.5463
 20
-4.8976
 40
0.250
 50
0.0000
  1
M21
  7
STANDARD
  0
POINT
  8
2
 10
52.5463
 20
-4.8976
  0
LINE
  8
7
 10
29.0782
 20
4.0874
 11
33.9283
 21
4.0874
  0
LINE
  8
5
 10
29.0782
 20
4.0874
 11
33.9283
 21
4.0874
  0
POINT
  8
2
 10
29.0782
 20
4.0874
  0
POINT
  8
2
 10
33.9283
 20
4.0874
  0
ENDBLK
  0
BLOCK
  8
0
  2
BUY-P332084-JF-FA25-BIG-J-SH-08_2XL
 70
64
 10
0.0000
 20
0.0000
  0
TEXT
  8
1
 10
0.8841
 20
1.3144
 40
0.250
 50
0.0000
  1
Piece Name: BUY-P332084-JF-FA25-BIG-J-SH-08
  7
STANDARD
  0
TEXT
  8
1
 10
0.8841
 20
1.4544
 40
0.250
 50
0.0000
  1
Quantity: 1
  7
STANDARD
  0
TEXT
  8
1
 10
0.8841
 20
1.5944
 40
0.250
 50
0.0000
  1
ANNOTATION: F
  7
STANDARD
  0
TEXT
  8
1
 10
0.8841
 20
1.7344
 40
0.250
 50
0.0000
  1
CATEGORY: 68
  7
STANDARD
  0
TEXT
  8
1
 10
0.8841
 20
1.8744
 40
0.250
 50
0.0000
  1
SIZE: 2XL
  7
STANDARD
  0
POLYLINE
  8
1
 66
1
 70
0
  0
VERTEX
  8
1
 10
0.2169
 20
-6.2638
  0
VERTEX
  8
1
 10
-0.0001
 20
-6.1033
  0
VERTEX
  8
1
 10
0.1105
 20
-4.9339
  0
VERTEX
  8
1
 10
0.1820
 20
-4.1851
  0
VERTEX
  8
1
 10
0.2323
 20
-3.5644
  0
VERTEX
  8
1
 10
0.2660
 20
-2.9809
  0
VERTEX
  8
1
 10
0.2878
 20
-2.3633
  0
VERTEX
  8
1
 10
0.3081
 20
-1.7123
  0
VERTEX
  8
1
 10
0.3266
 20
-1.0439
  0
VERTEX
  8
1
 10
0.3392
 20
-0.1605
  0
VERTEX
  8
1
 10
0.3510
 20
1.3144
  0
VERTEX
  8
1
 10
0.3392
 20
2.7893
  0
VERTEX
  8
1
 10
0.3266
 20
3.6727
  0
VERTEX
  8
1
 10
0.3081
 20
4.3411
  0
VERTEX
  8
1
 10
0.2878
 20
4.9921
  0
VERTEX
  8
1
 10
0.2660
 20
5.6097
  0
VERTEX
  8
1
 10
0.2323
 20
6.1932
  0
VERTEX
  8
1
 10
0.1820
 20
6.8139
  0
VERTEX
  8
1
 10
0.1105
 20
7.5627
  0
VERTEX
  8
1
 10
-0.0001
 20
8.7321
  0
VERTEX
  8
1
 10
0.2169
 20
8.8926
  0
SEQEND
  8
1
  0
POINT
  8
2
 10
0.2169
 20
-6.2638
  0
POINT
  8
2
 10
-0.0001
 20
-6.1033
  0
POINT
  8
4
 10
0.1105
 20
-4.9339
 30
0.1181
 39
0.0000
  0
POINT
  8
3
 10
0.1105
 20
-4.9339
  0
POINT
  8
2
 10
0.1820
 20
-4.1851
  0
POINT
  8
3
 10
0.2323
 20
-3.5644
  0
POINT
  8
3
 10
0.2660
 20
-2.9809
  0
POINT
  8
3
 10
0.2878
 20
-2.3633
  0
POINT
  8
3
 10
0.3081
 20
-1.7123
  0
POINT
  8
3
 10
0.3266
 20
-1.0439
  0
POINT
  8
4
 10
0.3392
 20
-0.1605
 30
0.1181
 39
0.0000
  0
POINT
  8
3
 10
0.3392
 20
-0.1605
  0
POINT
  8
4
 10
0.3510
 20
1.3144
 30
0.1181
 39
0.1771
  0
POINT
  8
2
 10
0.3510
 20
1.3144
  0
POINT
  8
4
 10
0.3392
 20
2.7893
 30
0.1181
 39
0.0000
  0
POINT
  8
3
 10
0.3392
 20
2.7893
  0
POINT
  8
3
 10
0.3266
 20
3.6727
  0
POINT
  8
3
 10
0.3081
 20
4.3411
  0
POINT
  8
3
 10
0.2878
 20
4.9921
  0
POINT
  8
3
 10
0.2660
 20
5.6097
  0
POINT
  8
3
 10
0.2323
 20
6.1932
  0
POINT
  8
2
 10
0.1820
 20
6.8139
  0
POINT
  8
4
 10
0.1105
 20
7.5627
 30
0.1181
 39
0.0000
  0
POINT
  8
3
 10
0.1105
 20
7.5627
  0
POINT
  8
2
 10
-0.0001
 20
8.7321
  0
POINT
  8
2
 10
0.2169
 20
8.8926
  0
POLYLINE
  8
1
 66
1
 70
0
  0
VERTEX
  8
1
 10
0.2169
 20
8.8926
  0
VERTEX
  8
1
 10
1.2676
 20
8.4092
  0
SEQEND
  8
1
  0
POINT
  8
2
 10
0.2169
 20
8.8926
  0
POINT
  8
2
 10
1.2676
 20
8.4092
  0
POLYLINE
  8
1
 66
1
 70
0
  0
VERTEX
  8
1
 10
1.2676
 20
8.4092
  0
VERTEX
  8
1
 10
1.3870
 20
7.5872
  0
VERTEX
  8
1
 10
1.5012
 20
6.8488
  0
VERTEX
  8
1
 10
1.5623
 20
6.3345
  0
VERTEX
  8
1
 10
1.6090
 20
5.7781
  0
VERTEX
  8
1
 10
1.6676
 20
5.1107
  0
VERTEX
  8
1
 10
1.7133
 20
4.4250
  0
VERTEX
  8
1
 10
1.7429
 20
3.7178
  0
VERTEX
  8
1
 10
1.7599
 20
2.9626
  0
VERTEX
  8
1
 10
1.7684
 20
1.3144
  0
VERTEX
  8
1
 10
1.7599
 20
-0.3338
  0
VERTEX
  8
1
 10
1.7429
 20
-1.0890
  0
VERTEX
  8
1
 10
1.7133
 20
-1.7962
  0
VERTEX
  8
1
 10
1.6676
 20
-2.4819
  0
VERTEX
  8
1
 10
1.6090
 20
-3.1493
  0
VERTEX
  8
1
 10
1.5623
 20
-3.7057
  0
VERTEX
  8
1
 10
1.5012
 20
-4.2200
  0
VERTEX
  8
1
 10
1.3870
 20
-4.9584
  0
VERTEX
  8
1
 10
1.2676
 20
-5.7804
  0
SEQEND
  8
1
  0
POINT
  8
2
 10
1.2676
 20
8.4092
  0
POINT
  8
3
 10
1.3870
 20
7.5872
  0
POINT
  8
2
 10
1.5012
 20
6.8488
  0
POINT
  8
3
 10
1.5623
 20
6.3345
  0
POINT
  8
4
 10
1.6090
 20
5.7781
 30
0.1181
 39
0.0000
  0
POINT
  8
3
 10
1.6090
 20
5.7781
  0
POINT
  8
3
 10
1.6676
 20
5.1107
  0
POINT
  8
3
 10
1.7133
 20
4.4250
  0
POINT
  8
3
 10
1.7429
 20
3.7178
  0
POINT
  8
2
 10
1.7599
 20
2.9626
  0
POINT
  8
4
 10
1.7684
 20
1.3144
 30
0.1181
 39
0.1771
  0
POINT
  8
2
 10
1.7684
 20
1.3144
  0
POINT
  8
2
 10
1.7599
 20
-0.3338
  0
POINT
  8
3
 10
1.7429
 20
-1.0890
  0
POINT
  8
3
 10
1.7133
 20
-1.7962
  0
POINT
  8
3
 10
1.6676
 20
-2.4819
  0
POINT
  8
4
 10
1.6090
 20
-3.1493
 30
0.1181
 39
0.0000
  0
POINT
  8
3
 10
1.6090
 20
-3.1493
  0
POINT
  8
3
 10
1.5623
 20
-3.7057
  0
POINT
  8
2
 10
1.5012
 20
-4.2200
  0
POINT
  8
3
 10
1.3870
 20
-4.9584
  0
POINT
  8
2
 10
1.2676
 20
-5.7804
  0
POLYLINE
  8
1
 66
1
 70
0
  0
VERTEX
  8
1
 10
1.2676
 20
-5.7804
  0
VERTEX
  8
1
 10
0.2169
 20
-6.2638
  0
SEQEND
  8
1
  0
POINT
  8
2
 10
1.2676
 20
-5.7804
  0
POINT
  8
2
 10
0.2169
 20
-6.2638
  0
LINE
  8
7
 10
0.5792
 20
5.2383
 11
1.0023
 21
5.2383
  0
LINE
  8
5
 10
0.5792
 20
5.2383
 11
1.0023
 21
5.2383
  0
POINT
  8
2
 10
0.5792
 20
5.2383
  0
POINT
  8
2
 10
1.0023
 20
5.2383
  0
ENDBLK
  0
BLOCK
  8
0
  2
BUY-P332084-JF-FA25-BIG-J-SH-07_2XL
 70
64
 10
0.0000
 20
0.0000
  0
TEXT
  8
1
 10
4.2443
 20
-0.0889
 40
0.250
 50
0.0000
  1
Piece Name: BUY-P332084-JF-FA25-BIG-J-SH-07
  7
STANDARD
  0
TEXT
  8
1
 10
4.2443
 20
0.0511
 40
0.250
 50
0.0000
  1
Quantity: 1
  7
STANDARD
  0
TEXT
  8
1
 10
4.2443
 20
0.1911
 40
0.250
 50
0.0000
  1
ANNOTATION: F
  7
STANDARD
  0
TEXT
  8
1
 10
4.2443
 20
0.3311
 40
0.250
 50
0.0000
  1
CATEGORY: 67-1
  7
STANDARD
  0
TEXT
  8
1
 10
4.2443
 20
0.4711
 40
0.250
 50
0.0000
  1
SIZE: 2XL
  7
STANDARD
  0
POLYLINE
  8
1
 66
1
 70
0
  0
VERTEX
  8
1
 10
2.7707
 20
-8.3905
  0
VERTEX
  8
1
 10
2.7849
 20
-8.0976
  0
VERTEX
  8
1
 10
2.8192
 20
-7.3886
  0
VERTEX
  8
1
 10
2.8222
 20
-6.8877
  0
VERTEX
  8
1
 10
2.7882
 20
-6.2970
  0
VERTEX
  8
1
 10
2.7534
 20
-5.9442
  0
VERTEX
  8
1
 10
2.7147
 20
-5.5518
  0
VERTEX
  8
1
 10
2.6677
 20
-5.1797
  0
VERTEX
  8
1
 10
2.6015
 20
-4.7256
  0
VERTEX
  8
1
 10
2.5006
 20
-4.0167
  0
VERTEX
  8
1
 10
2.4157
 20
-3.3023
  0
VERTEX
  8
1
 10
2.3466
 20
-2.5638
  0
VERTEX
  8
1
 10
2.3023
 20
-2.0851
  0
VERTEX
  8
1
 10
2.2885
 20
-1.5764
  0
VERTEX
  8
1
 10
2.2836
 20
-1.3915
  0
VERTEX
  8
1
 10
2.2685
 20
-0.0889
  0
VERTEX
  8
1
 10
2.2836
 20
1.2137
  0
VERTEX
  8
1
 10
2.2885
 20
1.3986
  0
VERTEX
  8
1
 10
2.3023
 20
1.9073
  0
VERTEX
  8
1
 10
2.3466
 20
2.3860
  0
VERTEX
  8
1
 10
2.4157
 20
3.1245
  0
VERTEX
  8
1
 10
2.5006
 20
3.8389
  0
VERTEX
  8
1
 10
2.6015
 20
4.5478
  0
VERTEX
  8
1
 10
2.6677
 20
5.0019
  0
VERTEX
  8
1
 10
2.7147
 20
5.3740
  0
VERTEX
  8
1
 10
2.7534
 20
5.7664
  0
VERTEX
  8
1
 10
2.7882
 20
6.1192
  0
VERTEX
  8
1
 10
2.8222
 20
6.7099
  0
VERTEX
  8
1
 10
2.8192
 20
7.2108
  0
VERTEX
  8
1
 10
2.7849
 20
7.9198
  0
VERTEX
  8
1
 10
2.7707
 20
8.2127
  0
SEQEND
  8
1
  0
POINT
  8
2
 10
2.7707
 20
-8.3905
  0
POINT
  8
4
 10
2.7849
 20
-8.0976
 30
0.1181
 39
0.1771
 50
-22.5388
  0
POINT
  8
3
 10
2.7849
 20
-8.0976
  0
POINT
  8
3
 10
2.8192
 20
-7.3886
  0
POINT
  8
3
 10
2.8222
 20
-6.8877
  0
POINT
  8
3
 10
2.7882
 20
-6.2970
  0
POINT
  8
3
 10
2.7534
 20
-5.9442
  0
POINT
  8
4
 10
2.7147
 20
-5.5518
 30
0.1181
 39
0.0000
  0
POINT
  8
2
 10
2.7147
 20
-5.5518
  0
POINT
  8
3
 10
2.6677
 20
-5.1797
  0
POINT
  8
3
 10
2.6015
 20
-4.7256
  0
POINT
  8
3
 10
2.5006
 20
-4.0167
  0
POINT
  8
3
 10
2.4157
 20
-3.3023
  0
POINT
  8
3
 10
2.3466
 20
-2.5638
  0
POINT
  8
2
 10
2.3023
 20
-2.0851
  0
POINT
  8
4
 10
2.2885
 20
-1.5764
 30
0.1181
 39
0.0000
  0
POINT
  8
2
 10
2.2885
 20
-1.5764
  0
POINT
  8
3
 10
2.2836
 20
-1.3915
  0
POINT
  8
4
 10
2.2685
 20
-0.0889
 30
0.1181
 39
0.1771
  0
POINT
  8
2
 10
2.2685
 20
-0.0889
  0
POINT
  8
3
 10
2.2836
 20
1.2137
  0
POINT
  8
4
 10
2.2885
 20
1.3986
 30
0.1181
 39
0.0000
  0
POINT
  8
2
 10
2.2885
 20
1.3986
  0
POINT
  8
2
 10
2.3023
 20
1.9073
  0
POINT
  8
3
 10
2.3466
 20
2.3860
  0
POINT
  8
3
 10
2.4157
 20
3.1245
  0
POINT
  8
3
 10
2.5006
 20
3.8389
  0
POINT
  8
3
 10
2.6015
 20
4.5478
  0
POINT
  8
3
 10
2.6677
 20
5.0019
  0
POINT
  8
4
 10
2.7147
 20
5.3740
 30
0.1181
 39
0.0000
  0
POINT
  8
2
 10
2.7147
 20
5.3740
  0
POINT
  8
3
 10
2.7534
 20
5.7664
  0
POINT
  8
3
 10
2.7882
 20
6.1192
  0
POINT
  8
3
 10
2.8222
 20
6.7099
  0
POINT
  8
3
 10
2.8192
 20
7.2108
  0
POINT
  8
4
 10
2.7849
 20
7.9198
 30
0.1181
 39
0.1771
 50
22.5388
  0
POINT
  8
3
 10
2.7849
 20
7.9198
  0
POINT
  8
2
 10
2.7707
 20
8.2127
  0
POLYLINE
  8
1
 66
1
 70
0
  0
VERTEX
  8
1
 10
2.7707
 20
8.2127
  0
VERTEX
  8
1
 10
4.4097
 20
8.8926
  0
SEQEND
  8
1
  0
POINT
  8
2
 10
2.7707
 20
8.2127
  0
POINT
  8
2
 10
4.4097
 20
8.8926
  0
POLYLINE
  8
1
 66
1
 70
0
  0
VERTEX
  8
1
 10
4.4097
 20
8.8926
  0
VERTEX
  8
1
 10
4.6211
 20
8.6815
  0
VERTEX
  8
1
 10
6.2201
 20
7.0852
  0
SEQEND
  8
1
  0
POINT
  8
2
 10
4.4097
 20
8.8926
  0
POINT
  8
4
 10
4.6211
 20
8.6815
 30
0.1181
 39
0.1771
 50
-157.4740
  0
POINT
  8
3
 10
4.6211
 20
8.6815
  0
POINT
  8
2
 10
6.2201
 20
7.0852
  0
POLYLINE
  8
1
 66
1
 70
0
  0
VERTEX
  8
1
 10
6.2201
 20
7.0852
  0
VERTEX
  8
1
 10
5.9388
 20
5.9447
  0
VERTEX
  8
1
 10
5.8762
 20
5.6910
  0
VERTEX
  8
1
 10
5.7224
 20
5.0272
  0
VERTEX
  8
1
 10
5.6430
 20
4.6060
  0
VERTEX
  8
1
 10
5.5509
 20
4.0698
  0
VERTEX
  8
1
 10
5.4607
 20
3.4501
  0
VERTEX
  8
1
 10
5.3879
 20
2.8108
  0
VERTEX
  8
1
 10
5.3383
 20
2.1503
  0
VERTEX
  8
1
 10
5.3067
 20
1.3895
  0
VERTEX
  8
1
 10
5.2945
 20
-0.0889
  0
VERTEX
  8
1
 10
5.3067
 20
-1.5673
  0
VERTEX
  8
1
 10
5.3383
 20
-2.3281
  0
VERTEX
  8
1
 10
5.3879
 20
-2.9886
  0
VERTEX
  8
1
 10
5.4607
 20
-3.6279
  0
VERTEX
  8
1
 10
5.5509
 20
-4.2476
  0
VERTEX
  8
1
 10
5.6430
 20
-4.7838
  0
VERTEX
  8
1
 10
5.7224
 20
-5.2050
  0
VERTEX
  8
1
 10
5.8762
 20
-5.8688
  0
VERTEX
  8
1
 10
5.9388
 20
-6.1225
  0
VERTEX
  8
1
 10
6.2201
 20
-7.2630
  0
SEQEND
  8
1
  0
POINT
  8
2
 10
6.2201
 20
7.0852
  0
POINT
  8
4
 10
5.9388
 20
5.9447
 30
0.1181
 39
0.0000
  0
POINT
  8
3
 10
5.9388
 20
5.9447
  0
POINT
  8
3
 10
5.8762
 20
5.6910
  0
POINT
  8
2
 10
5.7224
 20
5.0272
  0
POINT
  8
3
 10
5.6430
 20
4.6060
  0
POINT
  8
3
 10
5.5509
 20
4.0698
  0
POINT
  8
3
 10
5.4607
 20
3.4501
  0
POINT
  8
3
 10
5.3879
 20
2.8108
  0
POINT
  8
3
 10
5.3383
 20
2.1503
  0
POINT
  8
4
 10
5.3067
 20
1.3895
 30
0.1181
 39
0.0000
  0
POINT
  8
3
 10
5.3067
 20
1.3895
  0
POINT
  8
4
 10
5.2945
 20
-0.0889
 30
0.1181
 39
0.1771
  0
POINT
  8
2
 10
5.2945
 20
-0.0889
  0
POINT
  8
4
 10
5.3067
 20
-1.5673
 30
0.1181
 39
0.0000
  0
POINT
  8
3
 10
5.3067
 20
-1.5673
  0
POINT
  8
3
 10
5.3383
 20
-2.3281
  0
POINT
  8
3
 10
5.3879
 20
-2.9886
  0
POINT
  8
3
 10
5.4607
 20
-3.6279
  0
POINT
  8
3
 10
5.5509
 20
-4.2476
  0
POINT
  8
3
 10
5.6430
 20
-4.7838
  0
POINT
  8
2
 10
5.7224
 20
-5.2050
  0
POINT
  8
3
 10
5.8762
 20
-5.8688
  0
POINT
  8
4
 10
5.9388
 20
-6.1225
 30
0.1181
 39
0.0000
  0
POINT
  8
3
 10
5.9388
 20
-6.1225
  0
POINT
  8
2
 10
6.2201
 20
-7.2630
  0
POLYLINE
  8
1
 66
1
 70
0
  0
VERTEX
  8
1
 10
6.2201
 20
-7.2630
  0
VERTEX
  8
1
 10
4.6211
 20
-8.8593
  0
VERTEX
  8
1
 10
4.4097
 20
-9.0704
  0
SEQEND
  8
1
  0
POINT
  8
2
 10
6.2201
 20
-7.2630
  0
POINT
  8
4
 10
4.6211
 20
-8.8593
 30
0.1181
 39
0.1771
 50
157.4740
  0
POINT
  8
3
 10
4.6211
 20
-8.8593
  0
POINT
  8
2
 10
4.4097
 20
-9.0704
  0
POLYLINE
  8
1
 66
1
 70
0
  0
VERTEX
  8
1
 10
4.4097
 20
-9.0704
  0
VERTEX
  8
1
 10
2.7707
 20
-8.3905
  0
SEQEND
  8
1
  0
POINT
  8
2
 10
4.4097
 20
-9.0704
  0
POINT
  8
2
 10
2.7707
 20
-8.3905
  0
LINE
  8
7
 10
3.3926
 20
4.2323
 11
5.0886
 21
4.2323
  0
LINE
  8
5
 10
3.3926
 20
4.2323
 11
5.0886
 21
4.2323
  0
POINT
  8
2
 10
3.3926
 20
4.2323
  0
POINT
  8
2
 10
5.0886
 20
4.2323
  0
LINE
  8
8
 10
4.2785
 20
8.4669
 11
3.0592
 21
7.9611
  0
TEXT
  8
8
 10
4.2785
 20
8.4669
 40
0.250
 50
0.0000
  1
NM
  7
STANDARD
  0
POINT
  8
2
 10
4.2785
 20
8.4669
  0
POINT
  8
2
 10
3.0592
 20
7.9611
  0
ENDBLK
  0
BLOCK
  8
0
  2
BUY-P332084-JF-FA25-BIG-J-SH-07-T_2XL
 70
64
 10
0.0000
 20
0.0000
  0
TEXT
  8
1
 10
8.3053
 20
0.0101
 40
0.250
 50
0.0000
  1
Piece Name: BUY-P332084-JF-FA25-BIG-J-SH-07-T
  7
STANDARD
  0
TEXT
  8
1
 10
8.3053
 20
0.1501
 40
0.250
 50
0.0000
  1
Quantity: 1
  7
STANDARD
  0
TEXT
  8
1
 10
8.3053
 20
0.2901
 40
0.250
 50
0.0000
  1
ANNOTATION: F
  7
STANDARD
  0
TEXT
  8
1
 10
8.3053
 20
0.4301
 40
0.250
 50
0.0000
  1
CATEGORY: 69-2
  7
STANDARD
  0
TEXT
  8
1
 10
8.3053
 20
0.5701
 40
0.250
 50
0.0000
  1
SIZE: 2XL
  7
STANDARD
  0
POLYLINE
  8
1
 66
1
 70
0
  0
VERTEX
  8
1
 10
6.7207
 20
-7.5999
  0
VERTEX
  8
1
 10
6.9272
 20
-6.5972
  0
VERTEX
  8
1
 10
7.0337
 20
-6.0311
  0
VERTEX
  8
1
 10
7.1018
 20
-5.5803
  0
VERTEX
  8
1
 10
7.1525
 20
-5.1608
  0
VERTEX
  8
1
 10
7.1987
 20
-4.4263
  0
VERTEX
  8
1
 10
7.2245
 20
-3.5634
  0
VERTEX
  8
1
 10
7.2404
 20
-2.4244
  0
VERTEX
  8
1
 10
7.2438
 20
0.0100
  0
VERTEX
  8
1
 10
7.2402
 20
2.4444
  0
VERTEX
  8
1
 10
7.2242
 20
3.5835
  0
VERTEX
  8
1
 10
7.1984
 20
4.4464
  0
VERTEX
  8
1
 10
7.1521
 20
5.1809
  0
VERTEX
  8
1
 10
7.1014
 20
5.6004
  0
VERTEX
  8
1
 10
7.0332
 20
6.0512
  0
VERTEX
  8
1
 10
6.9267
 20
6.6174
  0
VERTEX
  8
1
 10
6.7201
 20
7.6200
  0
SEQEND
  8
1
  0
POINT
  8
2
 10
6.7207
 20
-7.5999
  0
POINT
  8
3
 10
6.9272
 20
-6.5972
  0
POINT
  8
3
 10
7.0337
 20
-6.0311
  0
POINT
  8
3
 10
7.1018
 20
-5.5803
  0
POINT
  8
4
 10
7.1525
 20
-5.1608
 30
0.1181
 39
0.0000
  0
POINT
  8
3
 10
7.1525
 20
-5.1608
  0
POINT
  8
3
 10
7.1987
 20
-4.4263
  0
POINT
  8
3
 10
7.2245
 20
-3.5634
  0
POINT
  8
3
 10
7.2404
 20
-2.4244
  0
POINT
  8
4
 10
7.2438
 20
0.0100
 30
0.1181
 39
0.1771
  0
POINT
  8
2
 10
7.2438
 20
0.0100
  0
POINT
  8
3
 10
7.2402
 20
2.4444
  0
POINT
  8
3
 10
7.2242
 20
3.5835
  0
POINT
  8
3
 10
7.1984
 20
4.4464
  0
POINT
  8
4
 10
7.1521
 20
5.1809
 30
0.1181
 39
0.0000
  0
POINT
  8
3
 10
7.1521
 20
5.1809
  0
POINT
  8
3
 10
7.1014
 20
5.6004
  0
POINT
  8
3
 10
7.0332
 20
6.0512
  0
POINT
  8
3
 10
6.9267
 20
6.6174
  0
POINT
  8
2
 10
6.7201
 20
7.6200
  0
POLYLINE
  8
1
 66
1
 70
0
  0
VERTEX
  8
1
 10
6.7201
 20
7.6200
  0
VERTEX
  8
1
 10
7.0435
 20
7.8633
  0
VERTEX
  8
1
 10
8.1741
 20
8.7133
  0
VERTEX
  8
1
 10
8.4127
 20
8.8927
  0
SEQEND
  8
1
  0
POINT
  8
2
 10
6.7201
 20
7.6200
  0
POINT
  8
4
 10
7.0435
 20
7.8633
 30
0.1181
 39
0.0000
  0
POINT
  8
3
 10
7.0435
 20
7.8633
  0
POINT
  8
4
 10
8.1741
 20
8.7133
 30
0.1181
 39
0.1771
 50
-30.6886
  0
POINT
  8
3
 10
8.1741
 20
8.7133
  0
POINT
  8
2
 10
8.4127
 20
8.8927
  0
POLYLINE
  8
1
 66
1
 70
0
  0
VERTEX
  8
1
 10
8.4127
 20
8.8927
  0
VERTEX
  8
1
 10
9.8899
 20
8.0160
  0
SEQEND
  8
1
  0
POINT
  8
2
 10
8.4127
 20
8.8927
  0
POINT
  8
2
 10
9.8899
 20
8.0160
  0
POLYLINE
  8
1
 66
1
 70
0
  0
VERTEX
  8
1
 10
9.8899
 20
8.0160
  0
VERTEX
  8
1
 10
9.8336
 20
7.7283
  0
VERTEX
  8
1
 10
9.7189
 20
7.1420
  0
VERTEX
  8
1
 10
9.6437
 20
6.6468
  0
VERTEX
  8
1
 10
9.5921
 20
6.0573
  0
VERTEX
  8
1
 10
9.5756
 20
5.7032
  0
VERTEX
  8
1
 10
9.5575
 20
5.3145
  0
VERTEX
  8
1
 10
9.5633
 20
4.9934
  0
VERTEX
  8
1
 10
9.5666
 20
4.5939
  0
VERTEX
  8
1
 10
9.5884
 20
3.9718
  0
VERTEX
  8
1
 10
9.6152
 20
3.3443
  0
VERTEX
  8
1
 10
9.6474
 20
2.6975
  0
VERTEX
  8
1
 10
9.6824
 20
2.0172
  0
VERTEX
  8
1
 10
9.6960
 20
1.5140
  0
VERTEX
  8
1
 10
9.7013
 20
1.3203
  0
VERTEX
  8
1
 10
9.7163
 20
0.0101
  0
VERTEX
  8
1
 10
9.7014
 20
-1.2999
  0
VERTEX
  8
1
 10
9.6961
 20
-1.4936
  0
VERTEX
  8
1
 10
9.6825
 20
-1.9969
  0
VERTEX
  8
1
 10
9.6476
 20
-2.6772
  0
VERTEX
  8
1
 10
9.6154
 20
-3.3240
  0
VERTEX
  8
1
 10
9.5887
 20
-3.9515
  0
VERTEX
  8
1
 10
9.5669
 20
-4.5737
  0
VERTEX
  8
1
 10
9.5637
 20
-4.9732
  0
VERTEX
  8
1
 10
9.5579
 20
-5.2942
  0
VERTEX
  8
1
 10
9.5760
 20
-5.6829
  0
VERTEX
  8
1
 10
9.5926
 20
-6.0370
  0
VERTEX
  8
1
 10
9.6442
 20
-6.6265
  0
VERTEX
  8
1
 10
9.7194
 20
-7.1216
  0
VERTEX
  8
1
 10
9.8342
 20
-7.7080
  0
VERTEX
  8
1
 10
9.8905
 20
-7.9957
  0
SEQEND
  8
1
  0
POINT
  8
2
 10
9.8899
 20
8.0160
  0
POINT
  8
4
 10
9.8336
 20
7.7283
 30
0.1181
 39
0.1771
 50
149.3084
  0
POINT
  8
3
 10
9.8336
 20
7.7283
  0
POINT
  8
3
 10
9.7189
 20
7.1420
  0
POINT
  8
3
 10
9.6437
 20
6.6468
  0
POINT
  8
3
 10
9.5921
 20
6.0573
  0
POINT
  8
3
 10
9.5756
 20
5.7032
  0
POINT
  8
4
 10
9.5575
 20
5.3145
 30
0.1181
 39
0.0000
  0
POINT
  8
3
 10
9.5575
 20
5.3145
  0
POINT
  8
3
 10
9.5633
 20
4.9934
  0
POINT
  8
3
 10
9.5666
 20
4.5939
  0
POINT
  8
3
 10
9.5884
 20
3.9718
  0
POINT
  8
3
 10
9.6152
 20
3.3443
  0
POINT
  8
3
 10
9.6474
 20
2.6975
  0
POINT
  8
3
 10
9.6824
 20
2.0172
  0
POINT
  8
4
 10
9.6960
 20
1.5140
 30
0.1181
 39
0.0000
  0
POINT
  8
3
 10
9.6960
 20
1.5140
  0
POINT
  8
3
 10
9.7013
 20
1.3203
  0
POINT
  8
4
 10
9.7163
 20
0.0101
 30
0.1181
 39
0.1771
  0
POINT
  8
2
 10
9.7163
 20
0.0101
  0
POINT
  8
3
 10
9.7014
 20
-1.2999
  0
POINT
  8
4
 10
9.6961
 20
-1.4936
 30
0.1181
 39
0.0000
  0
POINT
  8
3
 10
9.6961
 20
-1.4936
  0
POINT
  8
3
 10
9.6825
 20
-1.9969
  0
POINT
  8
3
 10
9.6476
 20
-2.6772
  0
POINT
  8
3
 10
9.6154
 20
-3.3240
  0
POINT
  8
3
 10
9.5887
 20
-3.9515
  0
POINT
  8
3
 10
9.5669
 20
-4.5737
  0
POINT
  8
3
 10
9.5637
 20
-4.9732
  0
POINT
  8
4
 10
9.5579
 20
-5.2942
 30
0.1181
 39
0.0000
  0
POINT
  8
3
 10
9.5579
 20
-5.2942
  0
POINT
  8
3
 10
9.5760
 20
-5.6829
  0
POINT
  8
3
 10
9.5926
 20
-6.0370
  0
POINT
  8
3
 10
9.6442
 20
-6.6265
  0
POINT
  8
3
 10
9.7194
 20
-7.1216
  0
POINT
  8
4
 10
9.8342
 20
-7.7080
 30
0.1181
 39
0.1771
 50
-149.3035
  0
POINT
  8
3
 10
9.8342
 20
-7.7080
  0
POINT
  8
2
 10
9.8905
 20
-7.9957
  0
POLYLINE
  8
1
 66
1
 70
0
  0
VERTEX
  8
1
 10
9.8905
 20
-7.9957
  0
VERTEX
  8
1
 10
8.4134
 20
-8.8724
  0
SEQEND
  8
1
  0
POINT
  8
2
 10
9.8905
 20
-7.9957
  0
POINT
  8
2
 10
8.4134
 20
-8.8724
  0
POLYLINE
  8
1
 66
1
 70
0
  0
VERTEX
  8
1
 10
8.4134
 20
-8.8724
  0
VERTEX
  8
1
 10
8.1748
 20
-8.6931
  0
VERTEX
  8
1
 10
7.0441
 20
-7.8432
  0
VERTEX
  8
1
 10
6.7207
 20
-7.5999
  0
SEQEND
  8
1
  0
POINT
  8
2
 10
8.4134
 20
-8.8724
  0
POINT
  8
4
 10
8.1748
 20
-8.6931
 30
0.1181
 39
0.1771
 50
30.6916
  0
POINT
  8
3
 10
8.1748
 20
-8.6931
  0
POINT
  8
4
 10
7.0441
 20
-7.8432
 30
0.1181
 39
0.0000
  0
POINT
  8
3
 10
7.0441
 20
-7.8432
  0
POINT
  8
2
 10
6.7207
 20
-7.5999
  0
LINE
  8
7
 10
7.6701
 20
4.2529
 11
8.9771
 21
4.2529
  0
LINE
  8
5
 10
7.6701
 20
4.2529
 11
8.9771
 21
4.2529
  0
POINT
  8
2
 10
7.6701
 20
4.2529
  0
POINT
  8
2
 10
8.9771
 20
4.2529
  0
ENDBLK
  0
BLOCK
  8
0
  2
BUY-P332084-JF-FA25-BIG-J-SH-07-B_2XL
 70
64
 10
0.0000
 20
0.0000
  0
TEXT
  8
1
 10
11.3259
 20
1.1257
 40
0.250
 50
0.0000
  1
Piece Name: BUY-P332084-JF-FA25-BIG-J-SH-07-B
  7
STANDARD
  0
TEXT
  8
1
 10
11.3259
 20
1.2657
 40
0.250
 50
0.0000
  1
Quantity: 1
  7
STANDARD
  0
TEXT
  8
1
 10
11.3259
 20
1.4057
 40
0.250
 50
0.0000
  1
ANNOTATION: F
  7
STANDARD
  0
TEXT
  8
1
 10
11.3259
 20
1.5457
 40
0.250
 50
0.0000
  1
CATEGORY: 70
  7
STANDARD
  0
TEXT
  8
1
 10
11.3259
 20
1.6857
 40
0.250
 50
0.0000
  1
SIZE: 2XL
  7
STANDARD
  0
POLYLINE
  8
1
 66
1
 70
0
  0
VERTEX
  8
1
 10
10.3913
 20
-5.8264
  0
VERTEX
  8
1
 10
10.4824
 20
-4.8051
  0
VERTEX
  8
1
 10
10.5321
 20
-4.0009
  0
VERTEX
  8
1
 10
10.5572
 20
-3.2568
  0
VERTEX
  8
1
 10
10.5771
 20
-2.6672
  0
VERTEX
  8
1
 10
10.5961
 20
-1.4703
  0
VERTEX
  8
1
 10
10.5951
 20
1.1257
  0
VERTEX
  8
1
 10
10.5958
 20
3.7217
  0
VERTEX
  8
1
 10
10.5766
 20
4.9186
  0
VERTEX
  8
1
 10
10.5567
 20
5.5082
  0
VERTEX
  8
1
 10
10.5315
 20
6.2523
  0
VERTEX
  8
1
 10
10.4817
 20
7.0565
  0
VERTEX
  8
1
 10
10.3905
 20
8.0778
  0
SEQEND
  8
1
  0
POINT
  8
2
 10
10.3913
 20
-5.8264
  0
POINT
  8
3
 10
10.4824
 20
-4.8051
  0
POINT
  8
3
 10
10.5321
 20
-4.0009
  0
POINT
  8
4
 10
10.5572
 20
-3.2568
 30
0.1181
 39
0.0000
  0
POINT
  8
3
 10
10.5572
 20
-3.2568
  0
POINT
  8
3
 10
10.5771
 20
-2.6672
  0
POINT
  8
3
 10
10.5961
 20
-1.4703
  0
POINT
  8
4
 10
10.5951
 20
1.1257
 30
0.1181
 39
0.0000
  0
POINT
  8
2
 10
10.5951
 20
1.1257
  0
POINT
  8
3
 10
10.5958
 20
3.7217
  0
POINT
  8
3
 10
10.5766
 20
4.9186
  0
POINT
  8
4
 10
10.5567
 20
5.5082
 30
0.1181
 39
0.0000
  0
POINT
  8
3
 10
10.5567
 20
5.5082
  0
POINT
  8
3
 10
10.5315
 20
6.2523
  0
POINT
  8
3
 10
10.4817
 20
7.0565
  0
POINT
  8
2
 10
10.3905
 20
8.0778
  0
POLYLINE
  8
1
 66
1
 70
0
  0
VERTEX
  8
1
 10
10.3905
 20
8.0778
  0
VERTEX
  8
1
 10
11.4743
 20
8.8927
  0
SEQEND
  8
1
  0
POINT
  8
2
 10
10.3905
 20
8.0778
  0
POINT
  8
2
 10
11.4743
 20
8.8927
  0
POLYLINE
  8
1
 66
1
 70
0
  0
VERTEX
  8
1
 10
11.4743
 20
8.8927
  0
VERTEX
  8
1
 10
11.7279
 20
8.8311
  0
SEQEND
  8
1
  0
POINT
  8
2
 10
11.4743
 20
8.8927
  0
POINT
  8
2
 10
11.7279
 20
8.8311
  0
POLYLINE
  8
1
 66
1
 70
0
  0
VERTEX
  8
1
 10
11.7279
 20
8.8311
  0
VERTEX
  8
1
 10
11.9353
 20
7.8243
  0
VERTEX
  8
1
 10
12.0441
 20
7.2460
  0
VERTEX
  8
1
 10
12.1146
 20
6.7799
  0
VERTEX
  8
1
 10
12.1678
 20
6.3399
  0
VERTEX
  8
1
 10
12.2154
 20
5.5841
  0
VERTEX
  8
1
 10
12.2416
 20
4.7097
  0
VERTEX
  8
1
 10
12.2577
 20
3.5639
  0
VERTEX
  8
1
 10
12.2613
 20
1.1258
  0
VERTEX
  8
1
 10
12.2580
 20
-1.3123
  0
VERTEX
  8
1
 10
12.2420
 20
-2.4581
  0
VERTEX
  8
1
 10
12.2159
 20
-3.3325
  0
VERTEX
  8
1
 10
12.1684
 20
-4.0883
  0
VERTEX
  8
1
 10
12.1153
 20
-4.5283
  0
VERTEX
  8
1
 10
12.0448
 20
-4.9944
  0
VERTEX
  8
1
 10
11.9361
 20
-5.5727
  0
VERTEX
  8
1
 10
11.7288
 20
-6.5795
  0
SEQEND
  8
1
  0
POINT
  8
2
 10
11.7279
 20
8.8311
  0
POINT
  8
3
 10
11.9353
 20
7.8243
  0
POINT
  8
3
 10
12.0441
 20
7.2460
  0
POINT
  8
3
 10
12.1146
 20
6.7799
  0
POINT
  8
4
 10
12.1678
 20
6.3399
 30
0.1181
 39
0.0000
  0
POINT
  8
3
 10
12.1678
 20
6.3399
  0
POINT
  8
3
 10
12.2154
 20
5.5841
  0
POINT
  8
3
 10
12.2416
 20
4.7097
  0
POINT
  8
3
 10
12.2577
 20
3.5639
  0
POINT
  8
4
 10
12.2613
 20
1.1258
 30
0.1181
 39
0.0000
  0
POINT
  8
2
 10
12.2613
 20
1.1258
  0
POINT
  8
3
 10
12.2580
 20
-1.3123
  0
POINT
  8
3
 10
12.2420
 20
-2.4581
  0
POINT
  8
3
 10
12.2159
 20
-3.3325
  0
POINT
  8
4
 10
12.1684
 20
-4.0883
 30
0.1181
 39
0.0000
  0
POINT
  8
3
 10
12.1684
 20
-4.0883
  0
POINT
  8
3
 10
12.1153
 20
-4.5283
  0
POINT
  8
3
 10
12.0448
 20
-4.9944
  0
POINT
  8
3
 10
11.9361
 20
-5.5727
  0
POINT
  8
2
 10
11.7288
 20
-6.5795
  0
POLYLINE
  8
1
 66
1
 70
0
  0
VERTEX
  8
1
 10
11.7288
 20
-6.5795
  0
VERTEX
  8
1
 10
11.4752
 20
-6.6412
  0
SEQEND
  8
1
  0
POINT
  8
2
 10
11.7288
 20
-6.5795
  0
POINT
  8
2
 10
11.4752
 20
-6.6412
  0
POLYLINE
  8
1
 66
1
 70
0
  0
VERTEX
  8
1
 10
11.4752
 20
-6.6412
  0
VERTEX
  8
1
 10
10.3913
 20
-5.8264
  0
SEQEND
  8
1
  0
POINT
  8
2
 10
11.4752
 20
-6.6412
  0
POINT
  8
2
 10
10.3913
 20
-5.8264
  0
LINE
  8
7
 10
11.6743
 20
5.7893
 11
11.9660
 21
5.7893
  0
LINE
  8
5
 10
11.6743
 20
5.7893
 11
11.9660
 21
5.7893
  0
POINT
  8
2
 10
11.6743
 20
5.7893
  0
POINT
  8
2
 10
11.9660
 20
5.7893
  0
ENDBLK
  0
ENDSEC
  0
SECTION
  2
ENTITIES
  0
TEXT
  8
1
 10
0.0000
 20
0.0000
 40
0.250
 50
0.0000
  1
Style Name: BUY-381512-BIG
  7
STANDARD
  0
TEXT
  8
1
 10
0.0000
 20
0.1400
 40
0.250
 50
0.0000
  1
Creation Date: 13-08-2025
  7
STANDARD
  0
TEXT
  8
1
 10
0.0000
 20
0.2800
 40
0.250
 50
0.0000
  1
Creation Time: 14:15
  7
STANDARD
  0
TEXT
  8
1
 10
0.0000
 20
0.4200
 40
0.250
 50
0.0000
  1
Author: GERBER TECHNOLOGY
  7
STANDARD
  0
TEXT
  8
1
 10
0.0000
 20
0.5600
 40
0.250
 50
0.0000
  1
PRODUCT: ACCUMARK
  7
STANDARD
  0
TEXT
  8
1
 10
0.0000
 20
0.7000
 40
0.250
 50
0.0000
  1
VERSION: 10.2.0
  7
STANDARD
  0
TEXT
  8
1
 10
0.0000
 20
0.8400
 40
0.250
 50
0.0000
  1
Sample Size: 2XL
  7
STANDARD
  0
TEXT
  8
1
 10
0.0000
 20
0.9800
 40
0.250
 50
0.0000
  1
Grade Rule Table: ALPHA-NUMARIC-JKT-BIG
  7
STANDARD
  0
TEXT
  8
1
 10
0.0000
 20
1.1200
 40
0.250
 50
0.0000
  1
Units: ENGLISH
  7
STANDARD
  0
TEXT
  8
1
 10
0.0000
 20
1.2600
 40
0.250
 50
0.0000
  1
TOLERANCE: .006
  7
STANDARD
  0
INSERT
  8
1
  2
BUY-P332084-JF-FA25-BIG-J-SH-01_2XL
 10
0.0000
 20
0.0000
  0
INSERT
  8
1
  2
BUY-P332084-JF-FA25-BIG-J-SH-02CV_2XL
 10
0.0000
 20
0.0000
  0
INSERT
  8
1
  2
BUY-P332084-JF-FA25-BIG-J-SH-03CV-L_2XL
 10
0.0000
 20
0.0000
  0
INSERT
  8
1
  2
BUY-P332084-JF-FA25-BIG-J-SH-05_2XL
 10
0.0000
 20
0.0000
  0
INSERT
  8
1
  2
BUY-P332084-JF-FA25-BIG-J-SH-04_2XL
 10
0.0000
 20
0.0000
  0
INSERT
  8
1
  2
BUY-P332084-JF-FA25-BIG-J-SH-06_2XL
 10
0.0000
 20
0.0000
  0
INSERT
  8
1
  2
BUY-P332084-JF-FA25-BIG-J-SH-08_2XL
 10
0.0000
 20
0.0000
  0
INSERT
  8
1
  2
BUY-P332084-JF-FA25-BIG-J-SH-07_2XL
 10
0.0000
 20
0.0000
  0
INSERT
  8
1
  2
BUY-P332084-JF-FA25-BIG-J-SH-07-T_2XL
 10
0.0000
 20
0.0000
  0
INSERT
  8
1
  2
BUY-P332084-JF-FA25-BIG-J-SH-07-B_2XL
 10
0.0000
 20
0.0000
  0
ENDSEC
  0
EOF
