  0
SECTION
  2
HEADER
  0
ENDSEC
  0
SECTION
  2
BLOCKS
  0
BLOCK
  8
0
  2
BUY-381877-STF-CLA-T-SH-03_32
 70
64
 10
0.0000
 20
0.0000
  0
TEXT
  8
1
 10
11.0710
 20
36.1404
 40
0.250
 50
0.0000
  1
Piece Name: BUY-381877-STF-CLA-T-SH-03
  7
STANDARD
  0
TEXT
  8
1
 10
11.0710
 20
36.2804
 40
0.250
 50
0.0000
  1
Quantity: 1,0
  7
STANDARD
  0
TEXT
  8
1
 10
11.0710
 20
36.4204
 40
0.250
 50
0.0000
  1
ANNOTATION
  7
STANDARD
  0
TEXT
  8
1
 10
11.0710
 20
36.5604
 40
0.250
 50
0.0000
  1
CATEGORY: 3RW
  7
STANDARD
  0
TEXT
  8
1
 10
11.0710
 20
36.7004
 40
0.250
 50
0.0000
  1
SIZE: 32
  7
STANDARD
  0
POLYLINE
  8
1
 66
1
 70
0
  0
VERTEX
  8
1
 10
0.0000
 20
34.8905
  0
VERTEX
  8
1
 10
0.0000
 20
37.3904
  0
SEQEND
  8
1
  0
POLYLINE
  8
84
 66
1
 70
0
  0
VERTEX
  8
84
 10
0.0000
 20
34.8905
  0
VERTEX
  8
84
 10
0.0000
 20
37.3904
  0
SEQEND
  8
84
  0
POINT
  8
2
 10
0.0000
 20
34.8905
  0
POINT
  8
2
 10
0.0000
 20
37.3904
  0
POLYLINE
  8
1
 66
1
 70
0
  0
VERTEX
  8
1
 10
0.0000
 20
37.3904
  0
VERTEX
  8
1
 10
0.8861
 20
37.3904
  0
VERTEX
  8
1
 10
18.1420
 20
37.3904
  0
VERTEX
  8
1
 10
18.1420
 20
37.3904
  0
VERTEX
  8
1
 10
18.7670
 20
37.3904
  0
VERTEX
  8
1
 10
21.9419
 20
37.3904
  0
SEQEND
  8
1
  0
POLYLINE
  8
84
 66
1
 70
0
  0
VERTEX
  8
84
 10
0.0000
 20
37.3904
  0
VERTEX
  8
84
 10
0.8861
 20
37.3904
  0
VERTEX
  8
84
 10
18.1420
 20
37.3904
  0
VERTEX
  8
84
 10
18.1420
 20
37.3904
  0
VERTEX
  8
84
 10
18.7670
 20
37.3904
  0
VERTEX
  8
84
 10
21.9419
 20
37.3904
  0
SEQEND
  8
84
  0
POINT
  8
2
 10
0.0000
 20
37.3904
  0
POINT
  8
4
 10
0.8861
 20
37.3904
 30
0.1181
 39
0.1771
  0
POINT
  8
2
 10
0.8861
 20
37.3904
  0
POINT
  8
2
 10
18.1420
 20
37.3904
  0
POINT
  8
4
 10
18.1420
 20
37.3904
 30
0.1181
 39
0.1771
  0
POINT
  8
2
 10
18.1420
 20
37.3904
  0
POINT
  8
4
 10
18.7670
 20
37.3904
 30
0.1181
 39
0.1771
  0
POINT
  8
3
 10
18.7670
 20
37.3904
  0
POINT
  8
2
 10
21.9419
 20
37.3904
  0
POLYLINE
  8
1
 66
1
 70
0
  0
VERTEX
  8
1
 10
21.9419
 20
37.3904
  0
VERTEX
  8
1
 10
22.1420
 20
37.2404
  0
VERTEX
  8
1
 10
22.1420
 20
34.8905
  0
SEQEND
  8
1
  0
POLYLINE
  8
84
 66
1
 70
0
  0
VERTEX
  8
84
 10
21.9419
 20
37.3904
  0
VERTEX
  8
84
 10
22.1420
 20
37.2404
  0
VERTEX
  8
84
 10
22.1420
 20
34.8905
  0
SEQEND
  8
84
  0
POINT
  8
2
 10
21.9419
 20
37.3904
  0
POINT
  8
2
 10
22.1420
 20
37.2404
  0
POINT
  8
2
 10
22.1420
 20
34.8905
  0
POLYLINE
  8
1
 66
1
 70
0
  0
VERTEX
  8
1
 10
22.1420
 20
34.8905
  0
VERTEX
  8
1
 10
18.1420
 20
34.8905
  0
SEQEND
  8
1
  0
POLYLINE
  8
84
 66
1
 70
0
  0
VERTEX
  8
84
 10
22.1420
 20
34.8905
  0
VERTEX
  8
84
 10
18.1420
 20
34.8905
  0
SEQEND
  8
84
  0
POINT
  8
2
 10
22.1420
 20
34.8905
  0
POINT
  8
4
 10
18.1420
 20
34.8905
 30
0.1181
 39
0.1771
  0
POINT
  8
2
 10
18.1420
 20
34.8905
  0
POLYLINE
  8
1
 66
1
 70
0
  0
VERTEX
  8
1
 10
18.1420
 20
34.8905
  0
VERTEX
  8
1
 10
9.6426
 20
34.8905
  0
SEQEND
  8
1
  0
POLYLINE
  8
84
 66
1
 70
0
  0
VERTEX
  8
84
 10
18.1420
 20
34.8905
  0
VERTEX
  8
84
 10
9.6426
 20
34.8905
  0
SEQEND
  8
84
  0
POINT
  8
4
 10
18.1420
 20
34.8905
 30
0.1181
 39
0.1771
  0
POINT
  8
2
 10
18.1420
 20
34.8905
  0
POINT
  8
4
 10
9.6426
 20
34.8905
 30
0.1181
 39
0.1771
  0
POINT
  8
2
 10
9.6426
 20
34.8905
  0
POLYLINE
  8
1
 66
1
 70
0
  0
VERTEX
  8
1
 10
9.6426
 20
34.8905
  0
VERTEX
  8
1
 10
0.8861
 20
34.8905
  0
SEQEND
  8
1
  0
POLYLINE
  8
84
 66
1
 70
0
  0
VERTEX
  8
84
 10
9.6426
 20
34.8905
  0
VERTEX
  8
84
 10
0.8861
 20
34.8905
  0
SEQEND
  8
84
  0
POINT
  8
4
 10
9.6426
 20
34.8905
 30
0.1181
 39
0.1771
  0
POINT
  8
2
 10
9.6426
 20
34.8905
  0
POINT
  8
4
 10
0.8861
 20
34.8905
 30
0.1181
 39
0.1771
  0
POINT
  8
2
 10
0.8861
 20
34.8905
  0
POLYLINE
  8
1
 66
1
 70
0
  0
VERTEX
  8
1
 10
0.8861
 20
34.8905
  0
VERTEX
  8
1
 10
0.0000
 20
34.8905
  0
SEQEND
  8
1
  0
POLYLINE
  8
84
 66
1
 70
0
  0
VERTEX
  8
84
 10
0.8861
 20
34.8905
  0
VERTEX
  8
84
 10
0.0000
 20
34.8905
  0
SEQEND
  8
84
  0
POINT
  8
4
 10
0.8861
 20
34.8905
 30
0.1181
 39
0.1771
  0
POINT
  8
2
 10
0.8861
 20
34.8905
  0
POINT
  8
2
 10
0.0000
 20
34.8905
  0
LINE
  8
7
 10
5.5356
 20
36.1405
 11
16.6065
 21
36.1405
  0
LINE
  8
5
 10
5.5356
 20
36.1405
 11
16.6065
 21
36.1405
  0
POINT
  8
2
 10
5.5356
 20
36.1405
  0
POINT
  8
2
 10
16.6065
 20
36.1405
  0
ENDBLK
  0
BLOCK
  8
0
  2
BUY-381877-STF-CLA-T-SH-06_32
 70
64
 10
0.0000
 20
0.0000
  0
TEXT
  8
1
 10
27.4176
 20
34.6509
 40
0.250
 50
0.0000
  1
Piece Name: BUY-381877-STF-CLA-T-SH-06
  7
STANDARD
  0
TEXT
  8
1
 10
27.4176
 20
34.7909
 40
0.250
 50
0.0000
  1
Quantity: 1,0
  7
STANDARD
  0
TEXT
  8
1
 10
27.4176
 20
34.9309
 40
0.250
 50
0.0000
  1
ANNOTATION: CUT2
  7
STANDARD
  0
TEXT
  8
1
 10
27.4176
 20
35.0709
 40
0.250
 50
0.0000
  1
CATEGORY: 7
  7
STANDARD
  0
TEXT
  8
1
 10
27.4176
 20
35.2109
 40
0.250
 50
0.0000
  1
SIZE: 32
  7
STANDARD
  0
POLYLINE
  8
1
 66
1
 70
0
  0
VERTEX
  8
1
 10
22.9387
 20
32.0321
  0
VERTEX
  8
1
 10
22.6419
 20
34.9317
  0
SEQEND
  8
1
  0
POLYLINE
  8
84
 66
1
 70
0
  0
VERTEX
  8
84
 10
22.9387
 20
32.0321
  0
VERTEX
  8
84
 10
22.6419
 20
34.9317
  0
SEQEND
  8
84
  0
POINT
  8
2
 10
22.9387
 20
32.0321
  0
POINT
  8
2
 10
22.6419
 20
34.9317
  0
POLYLINE
  8
1
 66
1
 70
0
  0
VERTEX
  8
1
 10
22.6419
 20
34.9317
  0
VERTEX
  8
1
 10
31.6605
 20
37.3904
  0
SEQEND
  8
1
  0
POLYLINE
  8
84
 66
1
 70
0
  0
VERTEX
  8
84
 10
22.6419
 20
34.9317
  0
VERTEX
  8
84
 10
31.6605
 20
37.3904
  0
SEQEND
  8
84
  0
POINT
  8
2
 10
22.6419
 20
34.9317
  0
POINT
  8
2
 10
31.6605
 20
37.3904
  0
POLYLINE
  8
1
 66
1
 70
0
  0
VERTEX
  8
1
 10
31.6605
 20
37.3904
  0
VERTEX
  8
1
 10
31.7050
 20
36.7417
  0
VERTEX
  8
1
 10
31.7885
 20
35.7828
  0
VERTEX
  8
1
 10
31.9119
 20
34.8402
  0
VERTEX
  8
1
 10
31.9119
 20
34.8402
  0
VERTEX
  8
1
 10
32.1933
 20
33.0362
  0
SEQEND
  8
1
  0
POLYLINE
  8
84
 66
1
 70
0
  0
VERTEX
  8
84
 10
31.6605
 20
37.3904
  0
VERTEX
  8
84
 10
31.7050
 20
36.7417
  0
VERTEX
  8
84
 10
31.7885
 20
35.7828
  0
VERTEX
  8
84
 10
31.9119
 20
34.8402
  0
VERTEX
  8
84
 10
31.9119
 20
34.8402
  0
VERTEX
  8
84
 10
32.1933
 20
33.0362
  0
SEQEND
  8
84
  0
POINT
  8
2
 10
31.6605
 20
37.3904
  0
POINT
  8
3
 10
31.7050
 20
36.7417
  0
POINT
  8
3
 10
31.7885
 20
35.7828
  0
POINT
  8
2
 10
31.9119
 20
34.8402
  0
POINT
  8
4
 10
31.9119
 20
34.8402
 30
0.1181
 39
0.1771
 50
-162.1340
  0
POINT
  8
2
 10
31.9119
 20
34.8402
  0
POINT
  8
2
 10
32.1933
 20
33.0362
  0
POLYLINE
  8
1
 66
1
 70
0
  0
VERTEX
  8
1
 10
32.1933
 20
33.0362
  0
VERTEX
  8
1
 10
30.7741
 20
32.6761
  0
VERTEX
  8
1
 10
29.6852
 20
32.4213
  0
VERTEX
  8
1
 10
28.2418
 20
32.1391
  0
VERTEX
  8
1
 10
27.0540
 20
31.9905
  0
VERTEX
  8
1
 10
25.8403
 20
31.9115
  0
VERTEX
  8
1
 10
24.5041
 20
31.9210
  0
VERTEX
  8
1
 10
24.5041
 20
31.9210
  0
VERTEX
  8
1
 10
23.1313
 20
32.0125
  0
VERTEX
  8
1
 10
22.9387
 20
32.0321
  0
SEQEND
  8
1
  0
POLYLINE
  8
84
 66
1
 70
0
  0
VERTEX
  8
84
 10
32.1933
 20
33.0362
  0
VERTEX
  8
84
 10
30.7741
 20
32.6761
  0
VERTEX
  8
84
 10
29.6852
 20
32.4213
  0
VERTEX
  8
84
 10
28.9652
 20
32.2708
  0
VERTEX
  8
84
 10
28.2418
 20
32.1391
  0
VERTEX
  8
84
 10
27.6491
 20
32.0554
  0
VERTEX
  8
84
 10
27.0540
 20
31.9905
  0
VERTEX
  8
84
 10
26.4478
 20
31.9412
  0
VERTEX
  8
84
 10
25.8403
 20
31.9115
  0
VERTEX
  8
84
 10
25.1722
 20
31.9054
  0
VERTEX
  8
84
 10
24.5041
 20
31.9210
  0
VERTEX
  8
84
 10
24.5041
 20
31.9210
  0
VERTEX
  8
84
 10
23.8172
 20
31.9588
  0
VERTEX
  8
84
 10
23.1313
 20
32.0125
  0
VERTEX
  8
84
 10
22.9387
 20
32.0321
  0
SEQEND
  8
84
  0
POINT
  8
2
 10
32.1933
 20
33.0362
  0
POINT
  8
3
 10
30.7741
 20
32.6761
  0
POINT
  8
3
 10
29.6852
 20
32.4213
  0
POINT
  8
3
 10
28.2418
 20
32.1391
  0
POINT
  8
3
 10
27.0540
 20
31.9905
  0
POINT
  8
3
 10
25.8403
 20
31.9115
  0
POINT
  8
2
 10
24.5041
 20
31.9210
  0
POINT
  8
4
 10
24.5041
 20
31.9210
 30
0.1181
 39
0.1771
  0
POINT
  8
2
 10
24.5041
 20
31.9210
  0
POINT
  8
3
 10
23.1313
 20
32.0125
  0
POINT
  8
2
 10
22.9387
 20
32.0321
  0
LINE
  8
7
 10
24.7333
 20
34.7773
 11
29.4186
 21
34.7773
  0
LINE
  8
5
 10
24.7333
 20
34.7773
 11
29.4186
 21
34.7773
  0
POINT
  8
2
 10
24.7333
 20
34.7773
  0
POINT
  8
2
 10
29.4186
 20
34.7773
  0
ENDBLK
  0
BLOCK
  8
0
  2
BUY-381877-STF-CLA-T-SH-02_32
 70
64
 10
0.0000
 20
0.0000
  0
TEXT
  8
1
 10
55.0139
 20
28.8145
 40
0.250
 50
0.0000
  1
Piece Name: BUY-381877-STF-CLA-T-SH-02
  7
STANDARD
  0
TEXT
  8
1
 10
55.0139
 20
28.9545
 40
0.250
 50
0.0000
  1
Quantity: 1,0
  7
STANDARD
  0
TEXT
  8
1
 10
55.0139
 20
29.0945
 40
0.250
 50
0.0000
  1
ANNOTATION
  7
STANDARD
  0
TEXT
  8
1
 10
55.0139
 20
29.2345
 40
0.250
 50
0.0000
  1
CATEGORY: 2
  7
STANDARD
  0
TEXT
  8
1
 10
55.0139
 20
29.3745
 40
0.250
 50
0.0000
  1
SIZE: 32
  7
STANDARD
  0
POLYLINE
  8
1
 66
1
 70
0
  0
VERTEX
  8
1
 10
76.0209
 20
37.2958
  0
VERTEX
  8
1
 10
76.0751
 20
36.4032
  0
VERTEX
  8
1
 10
76.1455
 20
35.6723
  0
VERTEX
  8
1
 10
76.2630
 20
34.8707
  0
VERTEX
  8
1
 10
76.4691
 20
33.8595
  0
VERTEX
  8
1
 10
76.6185
 20
33.1970
  0
VERTEX
  8
1
 10
76.7071
 20
32.8037
  0
SEQEND
  8
1
  0
POLYLINE
  8
84
 66
1
 70
0
  0
VERTEX
  8
84
 10
76.0209
 20
37.2958
  0
VERTEX
  8
84
 10
76.0751
 20
36.4032
  0
VERTEX
  8
84
 10
76.1455
 20
35.6723
  0
VERTEX
  8
84
 10
76.2630
 20
34.8707
  0
VERTEX
  8
84
 10
76.4691
 20
33.8595
  0
VERTEX
  8
84
 10
76.6185
 20
33.1970
  0
VERTEX
  8
84
 10
76.7071
 20
32.8037
  0
SEQEND
  8
84
  0
POINT
  8
2
 10
76.0209
 20
37.2958
  0
POINT
  8
3
 10
76.0751
 20
36.4032
  0
POINT
  8
4
 10
76.1455
 20
35.6723
 30
0.1181
 39
0.1771
  0
POINT
  8
3
 10
76.1455
 20
35.6723
  0
POINT
  8
3
 10
76.2630
 20
34.8707
  0
POINT
  8
3
 10
76.4691
 20
33.8595
  0
POINT
  8
4
 10
76.6185
 20
33.1970
 30
0.1181
 39
0.1771
  0
POINT
  8
3
 10
76.6185
 20
33.1970
  0
POINT
  8
4
 10
76.7071
 20
32.8037
 30
0.1181
 39
0.1771
 50
-163.3628
  0
POINT
  8
2
 10
76.7071
 20
32.8037
  0
POLYLINE
  8
1
 66
1
 70
0
  0
VERTEX
  8
1
 10
76.7071
 20
32.8037
  0
VERTEX
  8
1
 10
76.9079
 20
32.2687
  0
VERTEX
  8
1
 10
76.8368
 20
31.7017
  0
SEQEND
  8
1
  0
POLYLINE
  8
84
 66
1
 70
0
  0
VERTEX
  8
84
 10
76.7071
 20
32.8037
  0
VERTEX
  8
84
 10
76.9079
 20
32.2687
  0
VERTEX
  8
84
 10
76.8368
 20
31.7017
  0
SEQEND
  8
84
  0
POINT
  8
4
 10
76.7071
 20
32.8037
 30
0.1181
 39
0.1771
 50
-163.3628
  0
POINT
  8
2
 10
76.7071
 20
32.8037
  0
POINT
  8
4
 10
76.9079
 20
32.2687
 30
0.1181
 39
0.0000
  0
POINT
  8
2
 10
76.9079
 20
32.2687
  0
POINT
  8
4
 10
76.8368
 20
31.7017
 30
0.1181
 39
0.1771
 50
176.7782
  0
POINT
  8
2
 10
76.8368
 20
31.7017
  0
POLYLINE
  8
1
 66
1
 70
0
  0
VERTEX
  8
1
 10
76.8368
 20
31.7017
  0
VERTEX
  8
1
 10
76.8501
 20
30.6194
  0
VERTEX
  8
1
 10
76.8844
 20
29.5881
  0
VERTEX
  8
1
 10
76.9914
 20
28.4249
  0
VERTEX
  8
1
 10
77.1204
 20
27.2439
  0
VERTEX
  8
1
 10
77.1204
 20
27.2439
  0
VERTEX
  8
1
 10
77.3345
 20
26.3899
  0
SEQEND
  8
1
  0
POLYLINE
  8
84
 66
1
 70
0
  0
VERTEX
  8
84
 10
76.8368
 20
31.7017
  0
VERTEX
  8
84
 10
76.8501
 20
30.6194
  0
VERTEX
  8
84
 10
76.8844
 20
29.5881
  0
VERTEX
  8
84
 10
76.9914
 20
28.4249
  0
VERTEX
  8
84
 10
77.1204
 20
27.2439
  0
VERTEX
  8
84
 10
77.1204
 20
27.2439
  0
VERTEX
  8
84
 10
77.3345
 20
26.3899
  0
SEQEND
  8
84
  0
POINT
  8
4
 10
76.8368
 20
31.7017
 30
0.1181
 39
0.1771
 50
176.7782
  0
POINT
  8
2
 10
76.8368
 20
31.7017
  0
POINT
  8
3
 10
76.8501
 20
30.6194
  0
POINT
  8
4
 10
76.8844
 20
29.5881
 30
0.1181
 39
0.1771
  0
POINT
  8
3
 10
76.8844
 20
29.5881
  0
POINT
  8
3
 10
76.9914
 20
28.4249
  0
POINT
  8
2
 10
77.1204
 20
27.2439
  0
POINT
  8
4
 10
77.1204
 20
27.2439
 30
0.1181
 39
0.1771
 50
-170.6366
  0
POINT
  8
2
 10
77.1204
 20
27.2439
  0
POINT
  8
2
 10
77.3345
 20
26.3899
  0
POLYLINE
  8
1
 66
1
 70
0
  0
VERTEX
  8
1
 10
77.3345
 20
26.3899
  0
VERTEX
  8
1
 10
69.5861
 20
25.2496
  0
VERTEX
  8
1
 10
69.1313
 20
25.1734
  0
VERTEX
  8
1
 10
68.6434
 20
25.0776
  0
VERTEX
  8
1
 10
68.2799
 20
24.9807
  0
VERTEX
  8
1
 10
67.9522
 20
24.8628
  0
VERTEX
  8
1
 10
67.7048
 20
24.7317
  0
VERTEX
  8
1
 10
67.5031
 20
24.5820
  0
VERTEX
  8
1
 10
67.3250
 20
24.4123
  0
VERTEX
  8
1
 10
67.1677
 20
24.2143
  0
VERTEX
  8
1
 10
67.0252
 20
23.9908
  0
VERTEX
  8
1
 10
66.8951
 20
23.7391
  0
VERTEX
  8
1
 10
66.7859
 20
23.4520
  0
VERTEX
  8
1
 10
66.6797
 20
23.1138
  0
VERTEX
  8
1
 10
66.5566
 20
22.5538
  0
VERTEX
  8
1
 10
66.4560
 20
22.0269
  0
VERTEX
  8
1
 10
66.3588
 20
21.4316
  0
VERTEX
  8
1
 10
66.2401
 20
20.6573
  0
VERTEX
  8
1
 10
65.9876
 20
20.2387
  0
SEQEND
  8
1
  0
POLYLINE
  8
84
 66
1
 70
0
  0
VERTEX
  8
84
 10
77.3345
 20
26.3899
  0
VERTEX
  8
84
 10
69.5861
 20
25.2496
  0
VERTEX
  8
84
 10
69.1313
 20
25.1734
  0
VERTEX
  8
84
 10
68.6434
 20
25.0776
  0
VERTEX
  8
84
 10
68.2799
 20
24.9807
  0
VERTEX
  8
84
 10
67.9522
 20
24.8628
  0
VERTEX
  8
84
 10
67.7048
 20
24.7317
  0
VERTEX
  8
84
 10
67.5031
 20
24.5820
  0
VERTEX
  8
84
 10
67.3250
 20
24.4123
  0
VERTEX
  8
84
 10
67.1677
 20
24.2143
  0
VERTEX
  8
84
 10
67.0252
 20
23.9908
  0
VERTEX
  8
84
 10
66.8951
 20
23.7391
  0
VERTEX
  8
84
 10
66.7859
 20
23.4520
  0
VERTEX
  8
84
 10
66.6797
 20
23.1138
  0
VERTEX
  8
84
 10
66.5566
 20
22.5538
  0
VERTEX
  8
84
 10
66.4560
 20
22.0269
  0
VERTEX
  8
84
 10
66.3588
 20
21.4316
  0
VERTEX
  8
84
 10
66.2401
 20
20.6573
  0
VERTEX
  8
84
 10
65.9876
 20
20.2387
  0
SEQEND
  8
84
  0
POINT
  8
2
 10
77.3345
 20
26.3899
  0
POINT
  8
4
 10
69.5861
 20
25.2496
 30
0.1181
 39
0.1771
  0
POINT
  8
2
 10
69.5861
 20
25.2496
  0
POINT
  8
3
 10
69.1313
 20
25.1734
  0
POINT
  8
3
 10
68.6434
 20
25.0776
  0
POINT
  8
3
 10
68.2799
 20
24.9807
  0
POINT
  8
3
 10
67.9522
 20
24.8628
  0
POINT
  8
3
 10
67.7048
 20
24.7317
  0
POINT
  8
3
 10
67.5031
 20
24.5820
  0
POINT
  8
3
 10
67.3250
 20
24.4123
  0
POINT
  8
3
 10
67.1677
 20
24.2143
  0
POINT
  8
3
 10
67.0252
 20
23.9908
  0
POINT
  8
3
 10
66.8951
 20
23.7391
  0
POINT
  8
3
 10
66.7859
 20
23.4520
  0
POINT
  8
3
 10
66.6797
 20
23.1138
  0
POINT
  8
3
 10
66.5566
 20
22.5538
  0
POINT
  8
3
 10
66.4560
 20
22.0269
  0
POINT
  8
3
 10
66.3588
 20
21.4316
  0
POINT
  8
2
 10
66.2401
 20
20.6573
  0
POINT
  8
2
 10
65.9876
 20
20.2387
  0
POLYLINE
  8
1
 66
1
 70
0
  0
VERTEX
  8
1
 10
65.9876
 20
20.2387
  0
VERTEX
  8
1
 10
64.5582
 20
20.7215
  0
VERTEX
  8
1
 10
62.8839
 20
21.2871
  0
VERTEX
  8
1
 10
61.3233
 20
21.8023
  0
VERTEX
  8
1
 10
59.9563
 20
22.2291
  0
VERTEX
  8
1
 10
58.7204
 20
22.5938
  0
VERTEX
  8
1
 10
57.6722
 20
22.8666
  0
VERTEX
  8
1
 10
56.6965
 20
23.0898
  0
VERTEX
  8
1
 10
55.7398
 20
23.2701
  0
VERTEX
  8
1
 10
54.7602
 20
23.4240
  0
VERTEX
  8
1
 10
53.3009
 20
23.5740
  0
VERTEX
  8
1
 10
53.3009
 20
23.5740
  0
VERTEX
  8
1
 10
34.2687
 20
24.3431
  0
VERTEX
  8
1
 10
34.2687
 20
24.3431
  0
VERTEX
  8
1
 10
32.6934
 20
24.2800
  0
SEQEND
  8
1
  0
POLYLINE
  8
84
 66
1
 70
0
  0
VERTEX
  8
84
 10
65.9876
 20
20.2387
  0
VERTEX
  8
84
 10
64.5582
 20
20.7215
  0
VERTEX
  8
84
 10
62.8839
 20
21.2871
  0
VERTEX
  8
84
 10
61.3233
 20
21.8023
  0
VERTEX
  8
84
 10
59.9563
 20
22.2291
  0
VERTEX
  8
84
 10
58.7204
 20
22.5938
  0
VERTEX
  8
84
 10
57.6722
 20
22.8666
  0
VERTEX
  8
84
 10
56.6965
 20
23.0898
  0
VERTEX
  8
84
 10
55.7398
 20
23.2701
  0
VERTEX
  8
84
 10
54.7602
 20
23.4240
  0
VERTEX
  8
84
 10
53.3009
 20
23.5740
  0
VERTEX
  8
84
 10
53.3009
 20
23.5740
  0
VERTEX
  8
84
 10
34.2687
 20
24.3431
  0
VERTEX
  8
84
 10
34.2687
 20
24.3431
  0
VERTEX
  8
84
 10
32.6934
 20
24.2800
  0
SEQEND
  8
84
  0
POINT
  8
2
 10
65.9876
 20
20.2387
  0
POINT
  8
3
 10
64.5582
 20
20.7215
  0
POINT
  8
3
 10
62.8839
 20
21.2871
  0
POINT
  8
3
 10
61.3233
 20
21.8023
  0
POINT
  8
3
 10
59.9563
 20
22.2291
  0
POINT
  8
3
 10
58.7204
 20
22.5938
  0
POINT
  8
3
 10
57.6722
 20
22.8666
  0
POINT
  8
3
 10
56.6965
 20
23.0898
  0
POINT
  8
3
 10
55.7398
 20
23.2701
  0
POINT
  8
3
 10
54.7602
 20
23.4240
  0
POINT
  8
2
 10
53.3009
 20
23.5740
  0
POINT
  8
4
 10
53.3009
 20
23.5740
 30
0.1181
 39
0.1771
  0
POINT
  8
2
 10
53.3009
 20
23.5740
  0
POINT
  8
2
 10
34.2687
 20
24.3431
  0
POINT
  8
4
 10
34.2687
 20
24.3431
 30
0.1181
 39
0.1771
 50
92.5906
  0
POINT
  8
2
 10
34.2687
 20
24.3431
  0
POINT
  8
2
 10
32.6934
 20
24.2800
  0
POLYLINE
  8
1
 66
1
 70
0
  0
VERTEX
  8
1
 10
32.6934
 20
24.2800
  0
VERTEX
  8
1
 10
32.6933
 20
29.2605
  0
VERTEX
  8
1
 10
32.6933
 20
34.2410
  0
SEQEND
  8
1
  0
POLYLINE
  8
84
 66
1
 70
0
  0
VERTEX
  8
84
 10
32.6934
 20
24.2800
  0
VERTEX
  8
84
 10
32.6933
 20
29.2605
  0
VERTEX
  8
84
 10
32.6933
 20
34.2410
  0
SEQEND
  8
84
  0
POINT
  8
2
 10
32.6934
 20
24.2800
  0
POINT
  8
81
 10
32.6933
 20
29.2605
 30
-0.3937
 39
1.9685
  0
POINT
  8
3
 10
32.6933
 20
29.2605
  0
POINT
  8
2
 10
32.6933
 20
34.2410
  0
POLYLINE
  8
1
 66
1
 70
0
  0
VERTEX
  8
1
 10
32.6933
 20
34.2410
  0
VERTEX
  8
1
 10
34.2689
 20
34.1779
  0
VERTEX
  8
1
 10
34.2689
 20
34.1779
  0
VERTEX
  8
1
 10
53.3039
 20
34.9476
  0
VERTEX
  8
1
 10
54.9580
 20
35.1090
  0
VERTEX
  8
1
 10
57.3879
 20
35.3853
  0
VERTEX
  8
1
 10
59.5774
 20
35.7115
  0
VERTEX
  8
1
 10
61.6525
 20
36.0643
  0
VERTEX
  8
1
 10
63.9024
 20
36.4601
  0
VERTEX
  8
1
 10
65.8090
 20
36.7957
  0
VERTEX
  8
1
 10
67.1438
 20
36.9902
  0
VERTEX
  8
1
 10
68.3439
 20
37.1406
  0
VERTEX
  8
1
 10
69.3151
 20
37.2438
  0
VERTEX
  8
1
 10
71.3743
 20
37.3723
  0
VERTEX
  8
1
 10
73.2003
 20
37.3903
  0
VERTEX
  8
1
 10
74.5613
 20
37.3567
  0
VERTEX
  8
1
 10
76.0209
 20
37.2958
  0
SEQEND
  8
1
  0
POLYLINE
  8
84
 66
1
 70
0
  0
VERTEX
  8
84
 10
32.6933
 20
34.2410
  0
VERTEX
  8
84
 10
34.2689
 20
34.1779
  0
VERTEX
  8
84
 10
34.2689
 20
34.1779
  0
VERTEX
  8
84
 10
53.3039
 20
34.9476
  0
VERTEX
  8
84
 10
54.9580
 20
35.1090
  0
VERTEX
  8
84
 10
56.1739
 20
35.2396
  0
VERTEX
  8
84
 10
57.3879
 20
35.3853
  0
VERTEX
  8
84
 10
58.4837
 20
35.5410
  0
VERTEX
  8
84
 10
59.5774
 20
35.7115
  0
VERTEX
  8
84
 10
61.6525
 20
36.0643
  0
VERTEX
  8
84
 10
63.9024
 20
36.4601
  0
VERTEX
  8
84
 10
65.8090
 20
36.7957
  0
VERTEX
  8
84
 10
67.1438
 20
36.9902
  0
VERTEX
  8
84
 10
68.3439
 20
37.1406
  0
VERTEX
  8
84
 10
69.3151
 20
37.2438
  0
VERTEX
  8
84
 10
70.3440
 20
37.3202
  0
VERTEX
  8
84
 10
71.3743
 20
37.3723
  0
VERTEX
  8
84
 10
72.2872
 20
37.3910
  0
VERTEX
  8
84
 10
73.2003
 20
37.3903
  0
VERTEX
  8
84
 10
74.5613
 20
37.3567
  0
VERTEX
  8
84
 10
76.0209
 20
37.2958
  0
SEQEND
  8
84
  0
POINT
  8
2
 10
32.6933
 20
34.2410
  0
POINT
  8
2
 10
34.2689
 20
34.1779
  0
POINT
  8
4
 10
34.2689
 20
34.1779
 30
0.1181
 39
0.1771
 50
-92.5906
  0
POINT
  8
2
 10
34.2689
 20
34.1779
  0
POINT
  8
4
 10
53.3039
 20
34.9476
 30
0.1181
 39
0.1771
  0
POINT
  8
2
 10
53.3039
 20
34.9476
  0
POINT
  8
3
 10
54.9580
 20
35.1090
  0
POINT
  8
3
 10
57.3879
 20
35.3853
  0
POINT
  8
3
 10
59.5774
 20
35.7115
  0
POINT
  8
3
 10
61.6525
 20
36.0643
  0
POINT
  8
3
 10
63.9024
 20
36.4601
  0
POINT
  8
4
 10
65.8090
 20
36.7957
 30
0.1181
 39
0.1771
  0
POINT
  8
3
 10
65.8090
 20
36.7957
  0
POINT
  8
3
 10
67.1438
 20
36.9902
  0
POINT
  8
3
 10
68.3439
 20
37.1406
  0
POINT
  8
3
 10
69.3151
 20
37.2438
  0
POINT
  8
3
 10
71.3743
 20
37.3723
  0
POINT
  8
3
 10
73.2003
 20
37.3903
  0
POINT
  8
3
 10
74.5613
 20
37.3567
  0
POINT
  8
2
 10
76.0209
 20
37.2958
  0
LINE
  8
7
 10
42.0668
 20
29.2605
 11
61.6031
 21
29.2605
  0
LINE
  8
5
 10
42.0668
 20
29.2605
 11
61.6031
 21
29.2605
  0
POINT
  8
2
 10
42.0668
 20
29.2605
  0
POINT
  8
2
 10
61.6031
 20
29.2605
  0
LINE
  8
8
 10
53.3271
 20
23.9483
 11
53.3271
 21
34.3231
  0
POLYLINE
  8
85
 66
1
 70
0
  0
VERTEX
  8
85
 10
53.3271
 20
23.9483
  0
VERTEX
  8
85
 10
53.3271
 20
34.3231
  0
SEQEND
  8
85
  0
TEXT
  8
8
 10
53.3271
 20
23.9483
 40
0.250
 50
0.0000
  1
NM
  7
STANDARD
  0
TEXT
  8
85
 10
53.3271
 20
23.9483
 40
0.250
 50
0.0000
  1
NM
  7
STANDARD
  0
POINT
  8
2
 10
53.3271
 20
23.9483
  0
POINT
  8
2
 10
53.3271
 20
34.3231
  0
LINE
  8
8
 10
65.8571
 20
20.8105
 11
65.8488
 21
36.2949
  0
POLYLINE
  8
85
 66
1
 70
0
  0
VERTEX
  8
85
 10
65.8571
 20
20.8105
  0
VERTEX
  8
85
 10
65.8488
 20
36.2949
  0
SEQEND
  8
85
  0
TEXT
  8
8
 10
65.8571
 20
20.8105
 40
0.250
 50
0.0000
  1
NM
  7
STANDARD
  0
TEXT
  8
85
 10
65.8571
 20
20.8105
 40
0.250
 50
0.0000
  1
NM
  7
STANDARD
  0
POINT
  8
2
 10
65.8571
 20
20.8105
  0
POINT
  8
2
 10
65.8488
 20
36.2949
  0
LINE
  8
8
 10
69.5357
 20
25.7490
 11
68.4404
 21
36.6480
  0
POLYLINE
  8
85
 66
1
 70
0
  0
VERTEX
  8
85
 10
69.5357
 20
25.7490
  0
VERTEX
  8
85
 10
68.4404
 20
36.6480
  0
SEQEND
  8
85
  0
TEXT
  8
8
 10
69.5357
 20
25.7490
 40
0.250
 50
0.0000
  1
NM
  7
STANDARD
  0
TEXT
  8
85
 10
69.5357
 20
25.7490
 40
0.250
 50
0.0000
  1
NM
  7
STANDARD
  0
POINT
  8
2
 10
69.5357
 20
25.7490
  0
POINT
  8
2
 10
68.4404
 20
36.6480
  0
LINE
  8
8
 10
67.6918
 20
31.0079
 11
69.1918
 21
31.0079
  0
POLYLINE
  8
85
 66
1
 70
0
  0
VERTEX
  8
85
 10
67.6918
 20
31.0079
  0
VERTEX
  8
85
 10
69.1918
 20
31.0079
  0
SEQEND
  8
85
  0
TEXT
  8
8
 10
67.6918
 20
31.0079
 40
0.250
 50
0.0000
  1
NM
  7
STANDARD
  0
TEXT
  8
85
 10
67.6918
 20
31.0079
 40
0.250
 50
0.0000
  1
NM
  7
STANDARD
  0
POINT
  8
2
 10
67.6918
 20
31.0079
  0
POINT
  8
2
 10
69.1918
 20
31.0079
  0
LINE
  8
8
 10
73.7474
 20
31.8969
 11
76.3295
 21
32.6873
  0
POLYLINE
  8
85
 66
1
 70
0
  0
VERTEX
  8
85
 10
73.7474
 20
31.8969
  0
VERTEX
  8
85
 10
76.3295
 20
32.6873
  0
SEQEND
  8
85
  0
TEXT
  8
8
 10
73.7474
 20
31.8969
 40
0.250
 50
0.0000
  1
NM
  7
STANDARD
  0
TEXT
  8
85
 10
73.7474
 20
31.8969
 40
0.250
 50
0.0000
  1
NM
  7
STANDARD
  0
POINT
  8
2
 10
73.7474
 20
31.8969
  0
POINT
  8
2
 10
76.3295
 20
32.6873
  0
LINE
  8
8
 10
76.4795
 20
32.2183
 11
73.7474
 21
31.8969
  0
POLYLINE
  8
85
 66
1
 70
0
  0
VERTEX
  8
85
 10
76.4795
 20
32.2183
  0
VERTEX
  8
85
 10
73.7474
 20
31.8969
  0
SEQEND
  8
85
  0
TEXT
  8
8
 10
76.4795
 20
32.2183
 40
0.250
 50
0.0000
  1
NM
  7
STANDARD
  0
TEXT
  8
85
 10
76.4795
 20
32.2183
 40
0.250
 50
0.0000
  1
NM
  7
STANDARD
  0
POINT
  8
2
 10
76.4795
 20
32.2183
  0
POINT
  8
2
 10
73.7474
 20
31.8969
  0
LINE
  8
8
 10
73.7474
 20
31.8969
 11
76.4423
 21
31.7273
  0
POLYLINE
  8
85
 66
1
 70
0
  0
VERTEX
  8
85
 10
73.7474
 20
31.8969
  0
VERTEX
  8
85
 10
76.4423
 20
31.7273
  0
SEQEND
  8
85
  0
TEXT
  8
8
 10
73.7474
 20
31.8969
 40
0.250
 50
0.0000
  1
NM
  7
STANDARD
  0
TEXT
  8
85
 10
73.7474
 20
31.8969
 40
0.250
 50
0.0000
  1
NM
  7
STANDARD
  0
POINT
  8
2
 10
73.7474
 20
31.8969
  0
POINT
  8
2
 10
76.4423
 20
31.7273
  0
LINE
  8
8
 10
73.0057
 20
34.4207
 11
73.3977
 21
34.5003
  0
POLYLINE
  8
85
 66
1
 70
0
  0
VERTEX
  8
85
 10
73.0057
 20
34.4207
  0
VERTEX
  8
85
 10
73.3977
 20
34.5003
  0
SEQEND
  8
85
  0
TEXT
  8
8
 10
73.0057
 20
34.4207
 40
0.250
 50
0.0000
  1
NM
  7
STANDARD
  0
TEXT
  8
85
 10
73.0057
 20
34.4207
 40
0.250
 50
0.0000
  1
NM
  7
STANDARD
  0
POINT
  8
2
 10
73.0057
 20
34.4207
  0
POINT
  8
2
 10
73.3977
 20
34.5003
  0
LINE
  8
8
 10
73.6115
 20
29.2699
 11
74.0113
 21
29.2834
  0
POLYLINE
  8
85
 66
1
 70
0
  0
VERTEX
  8
85
 10
73.6115
 20
29.2699
  0
VERTEX
  8
85
 10
74.0113
 20
29.2834
  0
SEQEND
  8
85
  0
TEXT
  8
8
 10
73.6115
 20
29.2699
 40
0.250
 50
0.0000
  1
NM
  7
STANDARD
  0
TEXT
  8
85
 10
73.6115
 20
29.2699
 40
0.250
 50
0.0000
  1
NM
  7
STANDARD
  0
POINT
  8
2
 10
73.6115
 20
29.2699
  0
POINT
  8
2
 10
74.0113
 20
29.2834
  0
ENDBLK
  0
BLOCK
  8
0
  2
BUY-381877-STF-CLA-T-SH-01_32
 70
64
 10
0.0000
 20
0.0000
  0
TEXT
  8
1
 10
21.5216
 20
12.9713
 40
0.250
 50
0.0000
  1
Piece Name: BUY-381877-STF-CLA-T-SH-01
  7
STANDARD
  0
TEXT
  8
1
 10
21.5216
 20
13.1113
 40
0.250
 50
0.0000
  1
Quantity: 1,0
  7
STANDARD
  0
TEXT
  8
1
 10
21.5216
 20
13.2513
 40
0.250
 50
0.0000
  1
ANNOTATION
  7
STANDARD
  0
TEXT
  8
1
 10
21.5216
 20
13.3913
 40
0.250
 50
0.0000
  1
CATEGORY: 1
  7
STANDARD
  0
TEXT
  8
1
 10
21.5216
 20
13.5313
 40
0.250
 50
0.0000
  1
SIZE: 32
  7
STANDARD
  0
POLYLINE
  8
1
 66
1
 70
0
  0
VERTEX
  8
1
 10
35.6755
 20
6.2039
  0
VERTEX
  8
1
 10
35.5751
 20
6.2055
  0
VERTEX
  8
1
 10
35.5751
 20
6.2055
  0
VERTEX
  8
1
 10
34.3483
 20
6.2944
  0
VERTEX
  8
1
 10
33.0723
 20
6.4245
  0
VERTEX
  8
1
 10
31.1376
 20
6.6423
  0
VERTEX
  8
1
 10
29.1297
 20
6.8616
  0
VERTEX
  8
1
 10
27.0550
 20
7.0829
  0
VERTEX
  8
1
 10
25.1061
 20
7.2858
  0
VERTEX
  8
1
 10
22.2111
 20
7.4948
  0
VERTEX
  8
1
 10
20.6983
 20
7.5804
  0
VERTEX
  8
1
 10
20.6983
 20
7.5804
  0
VERTEX
  8
1
 10
1.5751
 20
8.3459
  0
VERTEX
  8
1
 10
1.5751
 20
8.3459
  0
VERTEX
  8
1
 10
0.0000
 20
8.2860
  0
SEQEND
  8
1
  0
POLYLINE
  8
84
 66
1
 70
0
  0
VERTEX
  8
84
 10
35.6755
 20
6.2039
  0
VERTEX
  8
84
 10
35.5751
 20
6.2055
  0
VERTEX
  8
84
 10
35.5751
 20
6.2055
  0
VERTEX
  8
84
 10
34.9613
 20
6.2435
  0
VERTEX
  8
84
 10
34.3483
 20
6.2944
  0
VERTEX
  8
84
 10
33.0723
 20
6.4245
  0
VERTEX
  8
84
 10
31.1376
 20
6.6423
  0
VERTEX
  8
84
 10
29.1297
 20
6.8616
  0
VERTEX
  8
84
 10
27.0550
 20
7.0829
  0
VERTEX
  8
84
 10
25.1061
 20
7.2858
  0
VERTEX
  8
84
 10
23.6592
 20
7.3986
  0
VERTEX
  8
84
 10
22.2111
 20
7.4948
  0
VERTEX
  8
84
 10
20.6983
 20
7.5804
  0
VERTEX
  8
84
 10
20.6983
 20
7.5804
  0
VERTEX
  8
84
 10
15.9184
 20
7.7922
  0
VERTEX
  8
84
 10
11.1376
 20
7.9824
  0
VERTEX
  8
84
 10
1.5751
 20
8.3459
  0
VERTEX
  8
84
 10
1.5751
 20
8.3459
  0
VERTEX
  8
84
 10
0.0000
 20
8.2860
  0
SEQEND
  8
84
  0
POINT
  8
2
 10
35.6755
 20
6.2039
  0
POINT
  8
2
 10
35.5751
 20
6.2055
  0
POINT
  8
4
 10
35.5751
 20
6.2055
 30
0.1181
 39
0.1771
  0
POINT
  8
2
 10
35.5751
 20
6.2055
  0
POINT
  8
3
 10
34.3483
 20
6.2944
  0
POINT
  8
4
 10
33.0723
 20
6.4245
 30
0.1181
 39
0.1771
  0
POINT
  8
3
 10
33.0723
 20
6.4245
  0
POINT
  8
3
 10
31.1376
 20
6.6423
  0
POINT
  8
3
 10
29.1297
 20
6.8616
  0
POINT
  8
3
 10
27.0550
 20
7.0829
  0
POINT
  8
3
 10
25.1061
 20
7.2858
  0
POINT
  8
3
 10
22.2111
 20
7.4948
  0
POINT
  8
2
 10
20.6983
 20
7.5804
  0
POINT
  8
4
 10
20.6983
 20
7.5804
 30
0.1181
 39
0.1771
  0
POINT
  8
2
 10
20.6983
 20
7.5804
  0
POINT
  8
2
 10
1.5751
 20
8.3459
  0
POINT
  8
4
 10
1.5751
 20
8.3459
 30
0.1181
 39
0.1771
 50
92.2121
  0
POINT
  8
2
 10
1.5751
 20
8.3459
  0
POINT
  8
2
 10
0.0000
 20
8.2860
  0
POLYLINE
  8
1
 66
1
 70
0
  0
VERTEX
  8
1
 10
0.0000
 20
8.2860
  0
VERTEX
  8
1
 10
0.0000
 20
12.7009
  0
VERTEX
  8
1
 10
0.0000
 20
17.1158
  0
SEQEND
  8
1
  0
POLYLINE
  8
84
 66
1
 70
0
  0
VERTEX
  8
84
 10
0.0000
 20
8.2860
  0
VERTEX
  8
84
 10
0.0000
 20
12.7009
  0
VERTEX
  8
84
 10
0.0000
 20
17.1158
  0
SEQEND
  8
84
  0
POINT
  8
2
 10
0.0000
 20
8.2860
  0
POINT
  8
81
 10
0.0000
 20
12.7009
 30
-0.3937
 39
1.9685
  0
POINT
  8
3
 10
0.0000
 20
12.7009
  0
POINT
  8
2
 10
0.0000
 20
17.1158
  0
POLYLINE
  8
1
 66
1
 70
0
  0
VERTEX
  8
1
 10
0.0000
 20
17.1158
  0
VERTEX
  8
1
 10
1.5751
 20
17.0559
  0
VERTEX
  8
1
 10
1.5751
 20
17.0559
  0
VERTEX
  8
1
 10
20.6983
 20
17.8214
  0
VERTEX
  8
1
 10
20.6983
 20
17.8214
  0
VERTEX
  8
1
 10
22.2118
 20
17.8996
  0
VERTEX
  8
1
 10
24.4303
 20
18.1134
  0
VERTEX
  8
1
 10
26.7237
 20
18.4055
  0
VERTEX
  8
1
 10
29.0572
 20
18.7896
  0
VERTEX
  8
1
 10
31.1578
 20
19.2000
  0
VERTEX
  8
1
 10
32.5879
 20
19.4844
  0
VERTEX
  8
1
 10
33.8595
 20
19.7388
  0
SEQEND
  8
1
  0
POLYLINE
  8
84
 66
1
 70
0
  0
VERTEX
  8
84
 10
0.0000
 20
17.1158
  0
VERTEX
  8
84
 10
1.5751
 20
17.0559
  0
VERTEX
  8
84
 10
1.5751
 20
17.0559
  0
VERTEX
  8
84
 10
11.1373
 20
17.4250
  0
VERTEX
  8
84
 10
15.9181
 20
17.6155
  0
VERTEX
  8
84
 10
20.6983
 20
17.8214
  0
VERTEX
  8
84
 10
20.6983
 20
17.8214
  0
VERTEX
  8
84
 10
22.2118
 20
17.8996
  0
VERTEX
  8
84
 10
23.3220
 20
17.9962
  0
VERTEX
  8
84
 10
24.4303
 20
18.1134
  0
VERTEX
  8
84
 10
25.5782
 20
18.2500
  0
VERTEX
  8
84
 10
26.7237
 20
18.4055
  0
VERTEX
  8
84
 10
27.8920
 20
18.5880
  0
VERTEX
  8
84
 10
29.0572
 20
18.7896
  0
VERTEX
  8
84
 10
31.1578
 20
19.2000
  0
VERTEX
  8
84
 10
32.5879
 20
19.4844
  0
VERTEX
  8
84
 10
33.8595
 20
19.7388
  0
SEQEND
  8
84
  0
POINT
  8
2
 10
0.0000
 20
17.1158
  0
POINT
  8
2
 10
1.5751
 20
17.0559
  0
POINT
  8
4
 10
1.5751
 20
17.0559
 30
0.1181
 39
0.1771
 50
-92.1949
  0
POINT
  8
2
 10
1.5751
 20
17.0559
  0
POINT
  8
2
 10
20.6983
 20
17.8214
  0
POINT
  8
4
 10
20.6983
 20
17.8214
 30
0.1181
 39
0.1771
  0
POINT
  8
2
 10
20.6983
 20
17.8214
  0
POINT
  8
3
 10
22.2118
 20
17.8996
  0
POINT
  8
3
 10
24.4303
 20
18.1134
  0
POINT
  8
3
 10
26.7237
 20
18.4055
  0
POINT
  8
3
 10
29.0572
 20
18.7896
  0
POINT
  8
3
 10
31.1578
 20
19.2000
  0
POINT
  8
3
 10
32.5879
 20
19.4844
  0
POINT
  8
2
 10
33.8595
 20
19.7388
  0
POLYLINE
  8
1
 66
1
 70
0
  0
VERTEX
  8
1
 10
33.8595
 20
19.7388
  0
VERTEX
  8
1
 10
34.0604
 20
19.2682
  0
VERTEX
  8
1
 10
34.0604
 20
19.2682
  0
VERTEX
  8
1
 10
34.1757
 20
18.9981
  0
VERTEX
  8
1
 10
34.3193
 20
18.6917
  0
VERTEX
  8
1
 10
34.4630
 20
18.4220
  0
VERTEX
  8
1
 10
34.6069
 20
18.1921
  0
VERTEX
  8
1
 10
34.7627
 20
17.9863
  0
VERTEX
  8
1
 10
34.9501
 20
17.7954
  0
VERTEX
  8
1
 10
35.1554
 20
17.6279
  0
VERTEX
  8
1
 10
35.3234
 20
17.5280
  0
VERTEX
  8
1
 10
35.5140
 20
17.4510
  0
VERTEX
  8
1
 10
35.7776
 20
17.3732
  0
VERTEX
  8
1
 10
42.8217
 20
16.5318
  0
SEQEND
  8
1
  0
POLYLINE
  8
84
 66
1
 70
0
  0
VERTEX
  8
84
 10
33.8595
 20
19.7388
  0
VERTEX
  8
84
 10
34.0604
 20
19.2682
  0
VERTEX
  8
84
 10
34.0604
 20
19.2682
  0
VERTEX
  8
84
 10
34.1757
 20
18.9981
  0
VERTEX
  8
84
 10
34.3193
 20
18.6917
  0
VERTEX
  8
84
 10
34.4630
 20
18.4220
  0
VERTEX
  8
84
 10
34.6069
 20
18.1921
  0
VERTEX
  8
84
 10
34.7627
 20
17.9863
  0
VERTEX
  8
84
 10
34.9501
 20
17.7954
  0
VERTEX
  8
84
 10
35.1554
 20
17.6279
  0
VERTEX
  8
84
 10
35.3234
 20
17.5280
  0
VERTEX
  8
84
 10
35.5140
 20
17.4510
  0
VERTEX
  8
84
 10
35.7776
 20
17.3732
  0
VERTEX
  8
84
 10
42.8217
 20
16.5318
  0
SEQEND
  8
84
  0
POINT
  8
2
 10
33.8595
 20
19.7388
  0
POINT
  8
2
 10
34.0604
 20
19.2682
  0
POINT
  8
4
 10
34.0604
 20
19.2682
 30
0.1181
 39
0.1771
 50
-168.6204
  0
POINT
  8
2
 10
34.0604
 20
19.2682
  0
POINT
  8
3
 10
34.1757
 20
18.9981
  0
POINT
  8
3
 10
34.3193
 20
18.6917
  0
POINT
  8
3
 10
34.4630
 20
18.4220
  0
POINT
  8
3
 10
34.6069
 20
18.1921
  0
POINT
  8
3
 10
34.7627
 20
17.9863
  0
POINT
  8
3
 10
34.9501
 20
17.7954
  0
POINT
  8
3
 10
35.1554
 20
17.6279
  0
POINT
  8
3
 10
35.3234
 20
17.5280
  0
POINT
  8
3
 10
35.5140
 20
17.4510
  0
POINT
  8
4
 10
35.7776
 20
17.3732
 30
0.1181
 39
0.1771
  0
POINT
  8
2
 10
35.7776
 20
17.3732
  0
POINT
  8
2
 10
42.8217
 20
16.5318
  0
POLYLINE
  8
1
 66
1
 70
0
  0
VERTEX
  8
1
 10
42.8217
 20
16.5318
  0
VERTEX
  8
1
 10
42.7933
 20
16.1437
  0
VERTEX
  8
1
 10
42.7062
 20
14.9576
  0
VERTEX
  8
1
 10
42.6538
 20
13.4170
  0
VERTEX
  8
1
 10
42.6974
 20
11.9742
  0
VERTEX
  8
1
 10
42.8531
 20
10.0490
  0
VERTEX
  8
1
 10
42.9594
 20
9.1057
  0
VERTEX
  8
1
 10
42.9594
 20
9.1057
  0
VERTEX
  8
1
 10
43.0432
 20
8.6105
  0
SEQEND
  8
1
  0
POLYLINE
  8
84
 66
1
 70
0
  0
VERTEX
  8
84
 10
42.8217
 20
16.5318
  0
VERTEX
  8
84
 10
42.7933
 20
16.1437
  0
VERTEX
  8
84
 10
42.7062
 20
14.9576
  0
VERTEX
  8
84
 10
42.6702
 20
14.1875
  0
VERTEX
  8
84
 10
42.6538
 20
13.4170
  0
VERTEX
  8
84
 10
42.6655
 20
12.6953
  0
VERTEX
  8
84
 10
42.6974
 20
11.9742
  0
VERTEX
  8
84
 10
42.7656
 20
11.0108
  0
VERTEX
  8
84
 10
42.8531
 20
10.0490
  0
VERTEX
  8
84
 10
42.9594
 20
9.1057
  0
VERTEX
  8
84
 10
42.9594
 20
9.1057
  0
VERTEX
  8
84
 10
43.0432
 20
8.6105
  0
SEQEND
  8
84
  0
POINT
  8
2
 10
42.8217
 20
16.5318
  0
POINT
  8
3
 10
42.7933
 20
16.1437
  0
POINT
  8
3
 10
42.7062
 20
14.9576
  0
POINT
  8
3
 10
42.6538
 20
13.4170
  0
POINT
  8
4
 10
42.6974
 20
11.9742
 30
0.1181
 39
0.1771
  0
POINT
  8
3
 10
42.6974
 20
11.9742
  0
POINT
  8
3
 10
42.8531
 20
10.0490
  0
POINT
  8
2
 10
42.9594
 20
9.1057
  0
POINT
  8
4
 10
42.9594
 20
9.1057
 30
0.1181
 39
0.1771
 50
-162.1268
  0
POINT
  8
2
 10
42.9594
 20
9.1057
  0
POINT
  8
2
 10
43.0432
 20
8.6105
  0
POLYLINE
  8
1
 66
1
 70
0
  0
VERTEX
  8
1
 10
43.0432
 20
8.6105
  0
VERTEX
  8
1
 10
35.6755
 20
6.2039
  0
SEQEND
  8
1
  0
POLYLINE
  8
84
 66
1
 70
0
  0
VERTEX
  8
84
 10
43.0432
 20
8.6105
  0
VERTEX
  8
84
 10
35.6755
 20
6.2039
  0
SEQEND
  8
84
  0
POINT
  8
2
 10
43.0432
 20
8.6105
  0
POINT
  8
2
 10
35.6755
 20
6.2039
  0
LINE
  8
7
 10
9.9562
 20
12.7009
 11
30.4631
 21
12.7009
  0
LINE
  8
5
 10
9.9562
 20
12.7009
 11
30.4631
 21
12.7009
  0
POINT
  8
2
 10
9.9562
 20
12.7009
  0
POINT
  8
2
 10
30.4631
 20
12.7009
  0
LINE
  8
8
 10
20.7216
 20
17.3219
 11
20.7216
 21
8.0799
  0
POLYLINE
  8
85
 66
1
 70
0
  0
VERTEX
  8
85
 10
20.7216
 20
17.3219
  0
VERTEX
  8
85
 10
20.7216
 20
8.0799
  0
SEQEND
  8
85
  0
TEXT
  8
8
 10
20.7216
 20
17.3219
 40
0.250
 50
0.0000
  1
NM
  7
STANDARD
  0
TEXT
  8
85
 10
20.7216
 20
17.3219
 40
0.250
 50
0.0000
  1
NM
  7
STANDARD
  0
POINT
  8
2
 10
20.7216
 20
17.3219
  0
POINT
  8
2
 10
20.7216
 20
8.0799
  0
LINE
  8
8
 10
33.6654
 20
19.1901
 11
33.6099
 21
6.8723
  0
POLYLINE
  8
85
 66
1
 70
0
  0
VERTEX
  8
85
 10
33.6654
 20
19.1901
  0
VERTEX
  8
85
 10
33.6099
 20
6.8723
  0
SEQEND
  8
85
  0
TEXT
  8
8
 10
33.6654
 20
19.1901
 40
0.250
 50
0.0000
  1
NM
  7
STANDARD
  0
TEXT
  8
85
 10
33.6654
 20
19.1901
 40
0.250
 50
0.0000
  1
NM
  7
STANDARD
  0
POINT
  8
2
 10
33.6654
 20
19.1901
  0
POINT
  8
2
 10
33.6099
 20
6.8723
  0
LINE
  8
8
 10
35.7031
 20
16.9853
 11
35.8996
 21
6.6960
  0
POLYLINE
  8
85
 66
1
 70
0
  0
VERTEX
  8
85
 10
35.7031
 20
16.9853
  0
VERTEX
  8
85
 10
35.8996
 20
6.6960
  0
SEQEND
  8
85
  0
TEXT
  8
8
 10
35.7031
 20
16.9853
 40
0.250
 50
0.0000
  1
NM
  7
STANDARD
  0
TEXT
  8
85
 10
35.7031
 20
16.9853
 40
0.250
 50
0.0000
  1
NM
  7
STANDARD
  0
POINT
  8
2
 10
35.7031
 20
16.9853
  0
POINT
  8
2
 10
35.8996
 20
6.6960
  0
LINE
  8
8
 10
37.2729
 20
13.4594
 11
38.7729
 21
13.4594
  0
POLYLINE
  8
85
 66
1
 70
0
  0
VERTEX
  8
85
 10
37.2729
 20
13.4594
  0
VERTEX
  8
85
 10
38.7729
 20
13.4594
  0
SEQEND
  8
85
  0
TEXT
  8
8
 10
37.2729
 20
13.4594
 40
0.250
 50
0.0000
  1
NM
  7
STANDARD
  0
TEXT
  8
85
 10
37.2729
 20
13.4594
 40
0.250
 50
0.0000
  1
NM
  7
STANDARD
  0
POINT
  8
2
 10
37.2729
 20
13.4594
  0
POINT
  8
2
 10
38.7729
 20
13.4594
  0
ENDBLK
  0
ENDSEC
  0
SECTION
  2
ENTITIES
  0
TEXT
  8
1
 10
0.0000
 20
0.0000
 40
0.250
 50
0.0000
  1
Style Name: BUY-381877-STF-CLASSIC
  7
STANDARD
  0
TEXT
  8
1
 10
0.0000
 20
0.1400
 40
0.250
 50
0.0000
  1
Creation Date: 18-09-2025
  7
STANDARD
  0
TEXT
  8
1
 10
0.0000
 20
0.2800
 40
0.250
 50
0.0000
  1
Creation Time: 14:51
  7
STANDARD
  0
TEXT
  8
1
 10
0.0000
 20
0.4200
 40
0.250
 50
0.0000
  1
Author: GERBER TECHNOLOGY ; ACCUMARK ; 10.2.0
  7
STANDARD
  0
TEXT
  8
1
 10
0.0000
 20
0.5600
 40
0.250
 50
0.0000
  1
Sample Size: 32
  7
STANDARD
  0
TEXT
  8
1
 10
0.0000
 20
0.7000
 40
0.250
 50
0.0000
  1
Grade Rule Table: JC-PENNEY-TRS-NEW
  7
STANDARD
  0
TEXT
  8
1
 10
0.0000
 20
0.8400
 40
0.250
 50
0.0000
  1
Units: ENGLISH
  7
STANDARD
  0
TEXT
  8
1
 10
0.0000
 20
0.9800
 40
0.250
 50
0.0000
  1
Curve Tolerance: .006
  7
STANDARD
  0
TEXT
  8
1
 10
0.0000
 20
1.1200
 40
0.250
 50
0.0000
  1
ASTM/D13Proposal 1 Version: D 6673-04
  7
STANDARD
  0
INSERT
  8
1
  2
BUY-381877-STF-CLA-T-SH-03_32
 10
0.0000
 20
0.0000
  0
INSERT
  8
1
  2
BUY-381877-STF-CLA-T-SH-06_32
 10
0.0000
 20
0.0000
  0
INSERT
  8
1
  2
BUY-381877-STF-CLA-T-SH-02_32
 10
0.0000
 20
0.0000
  0
INSERT
  8
1
  2
BUY-381877-STF-CLA-T-SH-01_32
 10
0.0000
 20
0.0000
  0
ENDSEC
  0
EOF
