  0
SECTION
  2
HEADER
  0
ENDSEC
  0
SECTION
  2
BLOCKS
  0
BLOCK
  8
0
  2
BUY-388884-JF-SP26-SL-J-SH-01_40
 70
64
 10
0.0000
 20
0.0000
  0
TEXT
  8
1
 10
16.0967
 20
31.4403
 40
0.250
 50
0.0000
  1
Piece Name: BUY-388884-JF-SP26-SL-J-SH-01
  7
STANDARD
  0
TEXT
  8
1
 10
16.0967
 20
31.5803
 40
0.250
 50
0.0000
  1
Quantity: 1,0
  7
STANDARD
  0
TEXT
  8
1
 10
16.0967
 20
31.7203
 40
0.250
 50
0.0000
  1
ANNOTATION: FRONT
  7
STANDARD
  0
TEXT
  8
1
 10
16.0967
 20
31.8603
 40
0.250
 50
0.0000
  1
CATEGORY: 1-1123
  7
STANDARD
  0
TEXT
  8
1
 10
16.0967
 20
32.0003
 40
0.250
 50
0.0000
  1
SIZE: 40
  7
STANDARD
  0
TEXT
  8
15
 10
26.1481
 20
28.2665
 40
0.236
 50
0.0000
  1
Without Shoulder Pad
  7
STANDARD
  0
POLYLINE
  8
1
 66
1
 70
0
  0
VERTEX
  8
1
 10
11.4862
 20
27.3405
  0
VERTEX
  8
1
 10
9.3385
 20
27.1408
  0
VERTEX
  8
1
 10
7.2634
 20
26.9716
  0
VERTEX
  8
1
 10
5.8148
 20
26.8893
  0
VERTEX
  8
1
 10
4.3652
 20
26.8260
  0
VERTEX
  8
1
 10
1.9323
 20
26.7578
  0
VERTEX
  8
1
 10
1.9323
 20
26.7578
  0
VERTEX
  8
1
 10
0.4333
 20
26.7179
  0
SEQEND
  8
1
  0
POLYLINE
  8
84
 66
1
 70
0
  0
VERTEX
  8
84
 10
11.4862
 20
27.3405
  0
VERTEX
  8
84
 10
9.3385
 20
27.1408
  0
VERTEX
  8
84
 10
7.2634
 20
26.9716
  0
VERTEX
  8
84
 10
5.8148
 20
26.8893
  0
VERTEX
  8
84
 10
4.3652
 20
26.8260
  0
VERTEX
  8
84
 10
1.9323
 20
26.7578
  0
VERTEX
  8
84
 10
1.9323
 20
26.7578
  0
VERTEX
  8
84
 10
0.4333
 20
26.7179
  0
SEQEND
  8
84
  0
POINT
  8
2
 10
11.4862
 20
27.3405
  0
POINT
  8
3
 10
9.3385
 20
27.1408
  0
POINT
  8
3
 10
7.2634
 20
26.9716
  0
POINT
  8
3
 10
5.8148
 20
26.8893
  0
POINT
  8
3
 10
4.3652
 20
26.8260
  0
POINT
  8
2
 10
1.9323
 20
26.7578
  0
POINT
  8
4
 10
1.9323
 20
26.7578
 30
0.1181
 39
0.1771
 50
94.1750
  0
POINT
  8
2
 10
1.9323
 20
26.7578
  0
POINT
  8
2
 10
0.4333
 20
26.7179
  0
POLYLINE
  8
1
 66
1
 70
0
  0
VERTEX
  8
1
 10
0.4333
 20
26.7179
  0
VERTEX
  8
1
 10
0.0000
 20
32.5254
  0
SEQEND
  8
1
  0
POLYLINE
  8
84
 66
1
 70
0
  0
VERTEX
  8
84
 10
0.4333
 20
26.7179
  0
VERTEX
  8
84
 10
0.0000
 20
32.5254
  0
SEQEND
  8
84
  0
POINT
  8
2
 10
0.4333
 20
26.7179
  0
POINT
  8
2
 10
0.0000
 20
32.5254
  0
POLYLINE
  8
1
 66
1
 70
0
  0
VERTEX
  8
1
 10
0.0000
 20
32.5254
  0
VERTEX
  8
1
 10
0.2916
 20
32.8395
  0
VERTEX
  8
1
 10
1.2035
 20
32.8395
  0
SEQEND
  8
1
  0
POLYLINE
  8
84
 66
1
 70
0
  0
VERTEX
  8
84
 10
0.0000
 20
32.5254
  0
VERTEX
  8
84
 10
0.2916
 20
32.8395
  0
VERTEX
  8
84
 10
1.2035
 20
32.8395
  0
SEQEND
  8
84
  0
POINT
  8
2
 10
0.0000
 20
32.5254
  0
POINT
  8
2
 10
0.2916
 20
32.8395
  0
POINT
  8
2
 10
1.2035
 20
32.8395
  0
POLYLINE
  8
1
 66
1
 70
0
  0
VERTEX
  8
1
 10
1.2035
 20
32.8395
  0
VERTEX
  8
1
 10
1.2596
 20
33.8748
  0
VERTEX
  8
1
 10
1.7503
 20
34.9284
  0
VERTEX
  8
1
 10
2.3394
 20
35.5161
  0
VERTEX
  8
1
 10
3.0404
 20
35.9955
  0
VERTEX
  8
1
 10
4.5432
 20
36.6204
  0
VERTEX
  8
1
 10
6.9909
 20
37.1449
  0
VERTEX
  8
1
 10
7.5167
 20
37.2145
  0
VERTEX
  8
1
 10
8.6180
 20
37.3194
  0
VERTEX
  8
1
 10
9.6192
 20
37.3773
  0
VERTEX
  8
1
 10
10.5366
 20
37.3903
  0
VERTEX
  8
1
 10
12.9979
 20
37.3865
  0
VERTEX
  8
1
 10
14.9663
 20
37.3831
  0
VERTEX
  8
1
 10
15.6615
 20
37.3534
  0
VERTEX
  8
1
 10
16.1198
 20
37.3339
  0
VERTEX
  8
1
 10
16.9328
 20
37.2929
  0
VERTEX
  8
1
 10
18.2757
 20
37.1989
  0
VERTEX
  8
1
 10
20.1391
 20
36.9662
  0
VERTEX
  8
1
 10
22.0510
 20
36.6309
  0
VERTEX
  8
1
 10
24.5077
 20
36.1925
  0
VERTEX
  8
1
 10
27.1652
 20
35.6920
  0
VERTEX
  8
1
 10
28.4767
 20
35.4282
  0
VERTEX
  8
1
 10
30.4065
 20
35.0399
  0
SEQEND
  8
1
  0
POLYLINE
  8
84
 66
1
 70
0
  0
VERTEX
  8
84
 10
1.2035
 20
32.8395
  0
VERTEX
  8
84
 10
1.2077
 20
33.3608
  0
VERTEX
  8
84
 10
1.2230
 20
33.6193
  0
VERTEX
  8
84
 10
1.2596
 20
33.8748
  0
VERTEX
  8
84
 10
1.3444
 20
34.1539
  0
VERTEX
  8
84
 10
1.4578
 20
34.4231
  0
VERTEX
  8
84
 10
1.5926
 20
34.6825
  0
VERTEX
  8
84
 10
1.7503
 20
34.9284
  0
VERTEX
  8
84
 10
1.8813
 20
35.0899
  0
VERTEX
  8
84
 10
2.0249
 20
35.2407
  0
VERTEX
  8
84
 10
2.3394
 20
35.5161
  0
VERTEX
  8
84
 10
2.6786
 20
35.7726
  0
VERTEX
  8
84
 10
3.0404
 20
35.9955
  0
VERTEX
  8
84
 10
3.4042
 20
36.1788
  0
VERTEX
  8
84
 10
3.7768
 20
36.3436
  0
VERTEX
  8
84
 10
4.1567
 20
36.4913
  0
VERTEX
  8
84
 10
4.5432
 20
36.6204
  0
VERTEX
  8
84
 10
5.1472
 20
36.7835
  0
VERTEX
  8
84
 10
5.7577
 20
36.9217
  0
VERTEX
  8
84
 10
6.3727
 20
37.0417
  0
VERTEX
  8
84
 10
6.9909
 20
37.1449
  0
VERTEX
  8
84
 10
7.5167
 20
37.2145
  0
VERTEX
  8
84
 10
8.6180
 20
37.3194
  0
VERTEX
  8
84
 10
9.6192
 20
37.3773
  0
VERTEX
  8
84
 10
10.5366
 20
37.3903
  0
VERTEX
  8
84
 10
12.9979
 20
37.3865
  0
VERTEX
  8
84
 10
14.9663
 20
37.3831
  0
VERTEX
  8
84
 10
15.6615
 20
37.3534
  0
VERTEX
  8
84
 10
16.1198
 20
37.3339
  0
VERTEX
  8
84
 10
16.9328
 20
37.2929
  0
VERTEX
  8
84
 10
17.6047
 20
37.2520
  0
VERTEX
  8
84
 10
18.2757
 20
37.1989
  0
VERTEX
  8
84
 10
19.2088
 20
37.0944
  0
VERTEX
  8
84
 10
20.1391
 20
36.9662
  0
VERTEX
  8
84
 10
21.0960
 20
36.8047
  0
VERTEX
  8
84
 10
22.0510
 20
36.6309
  0
VERTEX
  8
84
 10
24.5077
 20
36.1925
  0
VERTEX
  8
84
 10
27.1652
 20
35.6920
  0
VERTEX
  8
84
 10
28.4767
 20
35.4282
  0
VERTEX
  8
84
 10
30.4065
 20
35.0399
  0
SEQEND
  8
84
  0
POINT
  8
2
 10
1.2035
 20
32.8395
  0
POINT
  8
3
 10
1.2596
 20
33.8748
  0
POINT
  8
3
 10
1.7503
 20
34.9284
  0
POINT
  8
3
 10
2.3394
 20
35.5161
  0
POINT
  8
3
 10
3.0404
 20
35.9955
  0
POINT
  8
3
 10
4.5432
 20
36.6204
  0
POINT
  8
3
 10
6.9909
 20
37.1449
  0
POINT
  8
4
 10
7.5167
 20
37.2145
 30
0.1181
 39
0.1771
  0
POINT
  8
3
 10
7.5167
 20
37.2145
  0
POINT
  8
3
 10
8.6180
 20
37.3194
  0
POINT
  8
3
 10
9.6192
 20
37.3773
  0
POINT
  8
2
 10
10.5366
 20
37.3903
  0
POINT
  8
4
 10
12.9979
 20
37.3865
 30
0.1181
 39
0.1771
  0
POINT
  8
3
 10
12.9979
 20
37.3865
  0
POINT
  8
4
 10
14.9663
 20
37.3831
 30
0.1181
 39
0.1771
  0
POINT
  8
2
 10
14.9663
 20
37.3831
  0
POINT
  8
3
 10
15.6615
 20
37.3534
  0
POINT
  8
3
 10
16.1198
 20
37.3339
  0
POINT
  8
4
 10
16.9328
 20
37.2929
 30
0.1181
 39
0.1771
  0
POINT
  8
3
 10
16.9328
 20
37.2929
  0
POINT
  8
3
 10
18.2757
 20
37.1989
  0
POINT
  8
3
 10
20.1391
 20
36.9662
  0
POINT
  8
4
 10
22.0510
 20
36.6309
 30
0.1181
 39
0.1771
  0
POINT
  8
3
 10
22.0510
 20
36.6309
  0
POINT
  8
3
 10
24.5077
 20
36.1925
  0
POINT
  8
2
 10
27.1652
 20
35.6920
  0
POINT
  8
4
 10
28.4767
 20
35.4282
 30
0.1181
 39
0.1771
  0
POINT
  8
3
 10
28.4767
 20
35.4282
  0
POINT
  8
2
 10
30.4065
 20
35.0399
  0
POLYLINE
  8
1
 66
1
 70
0
  0
VERTEX
  8
1
 10
30.4065
 20
35.0399
  0
VERTEX
  8
1
 10
30.5025
 20
33.7591
  0
VERTEX
  8
1
 10
30.5025
 20
33.7591
  0
VERTEX
  8
1
 10
30.7493
 20
32.3377
  0
VERTEX
  8
1
 10
30.8837
 20
31.5639
  0
SEQEND
  8
1
  0
POLYLINE
  8
84
 66
1
 70
0
  0
VERTEX
  8
84
 10
30.4065
 20
35.0399
  0
VERTEX
  8
84
 10
30.5025
 20
33.7591
  0
VERTEX
  8
84
 10
30.5025
 20
33.7591
  0
VERTEX
  8
84
 10
30.7493
 20
32.3377
  0
VERTEX
  8
84
 10
30.8837
 20
31.5639
  0
SEQEND
  8
84
  0
POINT
  8
2
 10
30.4065
 20
35.0399
  0
POINT
  8
2
 10
30.5025
 20
33.7591
  0
POINT
  8
4
 10
30.5025
 20
33.7591
 30
0.1181
 39
0.1771
  0
POINT
  8
2
 10
30.5025
 20
33.7591
  0
POINT
  8
4
 10
30.7493
 20
32.3377
 30
0.1181
 39
0.1771
  0
POINT
  8
2
 10
30.7493
 20
32.3377
  0
POINT
  8
2
 10
30.8837
 20
31.5639
  0
POLYLINE
  8
1
 66
1
 70
0
  0
VERTEX
  8
1
 10
30.8837
 20
31.5639
  0
VERTEX
  8
1
 10
31.9813
 20
31.3022
  0
VERTEX
  8
1
 10
32.1934
 20
31.1286
  0
SEQEND
  8
1
  0
POLYLINE
  8
84
 66
1
 70
0
  0
VERTEX
  8
84
 10
30.8837
 20
31.5639
  0
VERTEX
  8
84
 10
31.9813
 20
31.3022
  0
VERTEX
  8
84
 10
32.1934
 20
31.1286
  0
SEQEND
  8
84
  0
POINT
  8
2
 10
30.8837
 20
31.5639
  0
POINT
  8
2
 10
31.9813
 20
31.3022
  0
POINT
  8
2
 10
32.1934
 20
31.1286
  0
POLYLINE
  8
1
 66
1
 70
0
  0
VERTEX
  8
1
 10
32.1934
 20
31.1286
  0
VERTEX
  8
1
 10
31.8126
 20
30.1933
  0
VERTEX
  8
1
 10
31.3743
 20
29.1035
  0
VERTEX
  8
1
 10
30.9967
 20
28.2075
  0
VERTEX
  8
1
 10
30.6788
 20
27.5050
  0
VERTEX
  8
1
 10
30.4008
 20
26.9566
  0
VERTEX
  8
1
 10
30.0791
 20
26.3839
  0
VERTEX
  8
1
 10
29.8163
 20
25.9419
  0
VERTEX
  8
1
 10
29.5463
 20
25.5292
  0
VERTEX
  8
1
 10
29.1709
 20
25.4903
  0
SEQEND
  8
1
  0
POLYLINE
  8
84
 66
1
 70
0
  0
VERTEX
  8
84
 10
32.1934
 20
31.1286
  0
VERTEX
  8
84
 10
31.8126
 20
30.1933
  0
VERTEX
  8
84
 10
31.3743
 20
29.1035
  0
VERTEX
  8
84
 10
30.9967
 20
28.2075
  0
VERTEX
  8
84
 10
30.6788
 20
27.5050
  0
VERTEX
  8
84
 10
30.4008
 20
26.9566
  0
VERTEX
  8
84
 10
30.0791
 20
26.3839
  0
VERTEX
  8
84
 10
29.8163
 20
25.9419
  0
VERTEX
  8
84
 10
29.5463
 20
25.5292
  0
VERTEX
  8
84
 10
29.1709
 20
25.4903
  0
SEQEND
  8
84
  0
POINT
  8
2
 10
32.1934
 20
31.1286
  0
POINT
  8
4
 10
31.8126
 20
30.1933
 30
0.1181
 39
0.1771
  0
POINT
  8
2
 10
31.8126
 20
30.1933
  0
POINT
  8
3
 10
31.3743
 20
29.1035
  0
POINT
  8
3
 10
30.9967
 20
28.2075
  0
POINT
  8
3
 10
30.6788
 20
27.5050
  0
POINT
  8
3
 10
30.4008
 20
26.9566
  0
POINT
  8
4
 10
30.0791
 20
26.3839
 30
0.1181
 39
0.1771
  0
POINT
  8
2
 10
30.0791
 20
26.3839
  0
POINT
  8
3
 10
29.8163
 20
25.9419
  0
POINT
  8
2
 10
29.5463
 20
25.5292
  0
POINT
  8
2
 10
29.1709
 20
25.4903
  0
POLYLINE
  8
1
 66
1
 70
0
  0
VERTEX
  8
1
 10
29.1709
 20
25.4903
  0
VERTEX
  8
1
 10
28.6872
 20
25.7836
  0
VERTEX
  8
1
 10
28.0669
 20
26.1333
  0
VERTEX
  8
1
 10
27.4938
 20
26.4276
  0
VERTEX
  8
1
 10
26.9302
 20
26.6956
  0
VERTEX
  8
1
 10
26.4099
 20
26.9173
  0
VERTEX
  8
1
 10
25.8372
 20
27.1379
  0
VERTEX
  8
1
 10
25.8372
 20
27.1379
  0
VERTEX
  8
1
 10
25.4129
 20
27.2663
  0
VERTEX
  8
1
 10
24.9922
 20
27.3675
  0
VERTEX
  8
1
 10
24.5606
 20
27.4476
  0
VERTEX
  8
1
 10
24.1350
 20
27.5022
  0
VERTEX
  8
1
 10
23.9127
 20
27.5138
  0
VERTEX
  8
1
 10
23.7037
 20
27.5247
  0
VERTEX
  8
1
 10
23.2717
 20
27.5283
  0
VERTEX
  8
1
 10
22.9069
 20
27.5037
  0
VERTEX
  8
1
 10
22.6351
 20
27.4655
  0
VERTEX
  8
1
 10
22.4306
 20
27.4226
  0
VERTEX
  8
1
 10
22.4306
 20
27.4226
  0
VERTEX
  8
1
 10
22.2373
 20
27.3641
  0
VERTEX
  8
1
 10
22.0624
 20
27.2934
  0
VERTEX
  8
1
 10
21.9169
 20
27.2199
  0
VERTEX
  8
1
 10
21.7810
 20
27.1345
  0
VERTEX
  8
1
 10
21.6463
 20
27.0265
  0
VERTEX
  8
1
 10
21.5086
 20
26.8835
  0
VERTEX
  8
1
 10
21.3944
 20
26.7225
  0
VERTEX
  8
1
 10
21.2919
 20
26.5492
  0
VERTEX
  8
1
 10
21.2919
 20
26.5492
  0
VERTEX
  8
1
 10
21.2118
 20
26.3858
  0
VERTEX
  8
1
 10
21.1130
 20
26.1366
  0
VERTEX
  8
1
 10
21.0269
 20
25.8982
  0
SEQEND
  8
1
  0
POLYLINE
  8
84
 66
1
 70
0
  0
VERTEX
  8
84
 10
29.1709
 20
25.4903
  0
VERTEX
  8
84
 10
28.6872
 20
25.7836
  0
VERTEX
  8
84
 10
28.0669
 20
26.1333
  0
VERTEX
  8
84
 10
27.4938
 20
26.4276
  0
VERTEX
  8
84
 10
26.9302
 20
26.6956
  0
VERTEX
  8
84
 10
26.4099
 20
26.9173
  0
VERTEX
  8
84
 10
25.8372
 20
27.1379
  0
VERTEX
  8
84
 10
25.8372
 20
27.1379
  0
VERTEX
  8
84
 10
25.4129
 20
27.2663
  0
VERTEX
  8
84
 10
24.9922
 20
27.3675
  0
VERTEX
  8
84
 10
24.5606
 20
27.4476
  0
VERTEX
  8
84
 10
24.1350
 20
27.5022
  0
VERTEX
  8
84
 10
23.9127
 20
27.5138
  0
VERTEX
  8
84
 10
23.7037
 20
27.5247
  0
VERTEX
  8
84
 10
23.2717
 20
27.5283
  0
VERTEX
  8
84
 10
22.9069
 20
27.5037
  0
VERTEX
  8
84
 10
22.6351
 20
27.4655
  0
VERTEX
  8
84
 10
22.4306
 20
27.4226
  0
VERTEX
  8
84
 10
22.4306
 20
27.4226
  0
VERTEX
  8
84
 10
22.2373
 20
27.3641
  0
VERTEX
  8
84
 10
22.0624
 20
27.2934
  0
VERTEX
  8
84
 10
21.9169
 20
27.2199
  0
VERTEX
  8
84
 10
21.7810
 20
27.1345
  0
VERTEX
  8
84
 10
21.6463
 20
27.0265
  0
VERTEX
  8
84
 10
21.5086
 20
26.8835
  0
VERTEX
  8
84
 10
21.3944
 20
26.7225
  0
VERTEX
  8
84
 10
21.2919
 20
26.5492
  0
VERTEX
  8
84
 10
21.2919
 20
26.5492
  0
VERTEX
  8
84
 10
21.2118
 20
26.3858
  0
VERTEX
  8
84
 10
21.1130
 20
26.1366
  0
VERTEX
  8
84
 10
21.0269
 20
25.8982
  0
SEQEND
  8
84
  0
POINT
  8
2
 10
29.1709
 20
25.4903
  0
POINT
  8
3
 10
28.6872
 20
25.7836
  0
POINT
  8
3
 10
28.0669
 20
26.1333
  0
POINT
  8
3
 10
27.4938
 20
26.4276
  0
POINT
  8
3
 10
26.9302
 20
26.6956
  0
POINT
  8
3
 10
26.4099
 20
26.9173
  0
POINT
  8
3
 10
25.8372
 20
27.1379
  0
POINT
  8
4
 10
25.8372
 20
27.1379
 30
0.1181
 39
0.1771
  0
POINT
  8
2
 10
25.8372
 20
27.1379
  0
POINT
  8
3
 10
25.4129
 20
27.2663
  0
POINT
  8
3
 10
24.9922
 20
27.3675
  0
POINT
  8
3
 10
24.5606
 20
27.4476
  0
POINT
  8
3
 10
24.1350
 20
27.5022
  0
POINT
  8
4
 10
23.9127
 20
27.5138
 30
0.1181
 39
0.1771
  0
POINT
  8
3
 10
23.9127
 20
27.5138
  0
POINT
  8
3
 10
23.7037
 20
27.5247
  0
POINT
  8
3
 10
23.2717
 20
27.5283
  0
POINT
  8
3
 10
22.9069
 20
27.5037
  0
POINT
  8
3
 10
22.6351
 20
27.4655
  0
POINT
  8
3
 10
22.4306
 20
27.4226
  0
POINT
  8
4
 10
22.4306
 20
27.4226
 30
0.1181
 39
0.1771
  0
POINT
  8
2
 10
22.4306
 20
27.4226
  0
POINT
  8
3
 10
22.2373
 20
27.3641
  0
POINT
  8
3
 10
22.0624
 20
27.2934
  0
POINT
  8
3
 10
21.9169
 20
27.2199
  0
POINT
  8
3
 10
21.7810
 20
27.1345
  0
POINT
  8
3
 10
21.6463
 20
27.0265
  0
POINT
  8
3
 10
21.5086
 20
26.8835
  0
POINT
  8
3
 10
21.3944
 20
26.7225
  0
POINT
  8
3
 10
21.2919
 20
26.5492
  0
POINT
  8
4
 10
21.2919
 20
26.5492
 30
0.1181
 39
0.1771
  0
POINT
  8
2
 10
21.2919
 20
26.5492
  0
POINT
  8
3
 10
21.2118
 20
26.3858
  0
POINT
  8
3
 10
21.1130
 20
26.1366
  0
POINT
  8
2
 10
21.0269
 20
25.8982
  0
POLYLINE
  8
1
 66
1
 70
0
  0
VERTEX
  8
1
 10
21.0269
 20
25.8982
  0
VERTEX
  8
1
 10
18.7586
 20
26.3026
  0
VERTEX
  8
1
 10
17.6564
 20
26.4758
  0
VERTEX
  8
1
 10
16.5517
 20
26.6292
  0
VERTEX
  8
1
 10
15.5890
 20
26.7189
  0
VERTEX
  8
1
 10
14.4889
 20
26.7721
  0
VERTEX
  8
1
 10
13.4844
 20
26.7367
  0
VERTEX
  8
1
 10
11.7878
 20
26.5994
  0
SEQEND
  8
1
  0
POLYLINE
  8
84
 66
1
 70
0
  0
VERTEX
  8
84
 10
21.0269
 20
25.8982
  0
VERTEX
  8
84
 10
18.7586
 20
26.3026
  0
VERTEX
  8
84
 10
17.6564
 20
26.4758
  0
VERTEX
  8
84
 10
16.5517
 20
26.6292
  0
VERTEX
  8
84
 10
15.5890
 20
26.7189
  0
VERTEX
  8
84
 10
15.0392
 20
26.7541
  0
VERTEX
  8
84
 10
14.4889
 20
26.7721
  0
VERTEX
  8
84
 10
13.9864
 20
26.7623
  0
VERTEX
  8
84
 10
13.4844
 20
26.7367
  0
VERTEX
  8
84
 10
11.7878
 20
26.5994
  0
SEQEND
  8
84
  0
POINT
  8
2
 10
21.0269
 20
25.8982
  0
POINT
  8
3
 10
18.7586
 20
26.3026
  0
POINT
  8
3
 10
17.6564
 20
26.4758
  0
POINT
  8
4
 10
16.5517
 20
26.6292
 30
0.1181
 39
0.1771
  0
POINT
  8
3
 10
16.5517
 20
26.6292
  0
POINT
  8
3
 10
15.5890
 20
26.7189
  0
POINT
  8
3
 10
14.4889
 20
26.7721
  0
POINT
  8
3
 10
13.4844
 20
26.7367
  0
POINT
  8
2
 10
11.7878
 20
26.5994
  0
POLYLINE
  8
1
 66
1
 70
0
  0
VERTEX
  8
1
 10
11.7878
 20
26.5994
  0
VERTEX
  8
1
 10
11.4989
 20
30.6916
  0
VERTEX
  8
1
 10
11.5008
 20
31.5987
  0
SEQEND
  8
1
  0
POLYLINE
  8
84
 66
1
 70
0
  0
VERTEX
  8
84
 10
11.7878
 20
26.5994
  0
VERTEX
  8
84
 10
11.4989
 20
30.6916
  0
VERTEX
  8
84
 10
11.5008
 20
31.5987
  0
SEQEND
  8
84
  0
POINT
  8
2
 10
11.7878
 20
26.5994
  0
POINT
  8
2
 10
11.4989
 20
30.6916
  0
POINT
  8
2
 10
11.5008
 20
31.5987
  0
POLYLINE
  8
1
 66
1
 70
0
  0
VERTEX
  8
1
 10
11.5008
 20
31.5987
  0
VERTEX
  8
1
 10
11.4862
 20
27.3405
  0
SEQEND
  8
1
  0
POLYLINE
  8
84
 66
1
 70
0
  0
VERTEX
  8
84
 10
11.5008
 20
31.5987
  0
VERTEX
  8
84
 10
11.4862
 20
27.3405
  0
SEQEND
  8
84
  0
POINT
  8
2
 10
11.5008
 20
31.5987
  0
POINT
  8
2
 10
11.4862
 20
27.3405
  0
LINE
  8
7
 10
5.5334
 20
33.5105
 11
21.6400
 21
33.5105
  0
LINE
  8
5
 10
5.5334
 20
33.5105
 11
21.6400
 21
33.5105
  0
POINT
  8
2
 10
5.5334
 20
33.5105
  0
POINT
  8
2
 10
21.6400
 20
33.5105
  0
LINE
  8
8
 10
2.5002
 20
27.1679
 11
2.5002
 21
36.4700
  0
POLYLINE
  8
85
 66
1
 70
0
  0
VERTEX
  8
85
 10
2.5002
 20
27.1679
  0
VERTEX
  8
85
 10
2.5002
 20
36.4700
  0
SEQEND
  8
85
  0
TEXT
  8
8
 10
2.5002
 20
27.1679
 40
0.250
 50
0.0000
  1
NM
  7
STANDARD
  0
TEXT
  8
85
 10
2.5002
 20
27.1679
 40
0.250
 50
0.0000
  1
NM
  7
STANDARD
  0
POINT
  8
2
 10
2.5002
 20
27.1679
  0
POINT
  8
2
 10
2.5002
 20
36.4700
  0
LINE
  8
8
 10
13.9610
 20
27.1558
 11
13.9610
 21
30.7260
  0
POLYLINE
  8
85
 66
1
 70
0
  0
VERTEX
  8
85
 10
13.9610
 20
27.1558
  0
VERTEX
  8
85
 10
13.9610
 20
30.7260
  0
SEQEND
  8
85
  0
TEXT
  8
8
 10
13.9610
 20
27.1558
 40
0.250
 50
0.0000
  1
NM
  7
STANDARD
  0
TEXT
  8
85
 10
13.9610
 20
27.1558
 40
0.250
 50
0.0000
  1
NM
  7
STANDARD
  0
POINT
  8
2
 10
13.9610
 20
27.1558
  0
POINT
  8
2
 10
13.9610
 20
30.7260
  0
POLYLINE
  8
11
 66
1
 70
0
  0
VERTEX
  8
11
 10
11.4988
 20
31.1010
  0
VERTEX
  8
11
 10
13.9020
 20
31.1010
  0
VERTEX
  8
11
 10
13.9610
 20
31.1994
  0
VERTEX
  8
11
 10
14.0201
 20
31.1010
  0
VERTEX
  8
11
 10
14.3595
 20
31.1010
  0
VERTEX
  8
11
 10
17.6164
 20
31.1010
  0
SEQEND
  8
11
  0
POLYLINE
  8
86
 66
1
 70
0
  0
VERTEX
  8
86
 10
11.4988
 20
31.1010
  0
VERTEX
  8
86
 10
13.9020
 20
31.1010
  0
VERTEX
  8
86
 10
13.9610
 20
31.1994
  0
VERTEX
  8
86
 10
14.0201
 20
31.1010
  0
VERTEX
  8
86
 10
14.3595
 20
31.1010
  0
VERTEX
  8
86
 10
17.6164
 20
31.1010
  0
SEQEND
  8
86
  0
POINT
  8
2
 10
11.4988
 20
31.1010
  0
POINT
  8
2
 10
13.9020
 20
31.1010
  0
POINT
  8
2
 10
13.9610
 20
31.1994
  0
POINT
  8
2
 10
14.0201
 20
31.1010
  0
POINT
  8
2
 10
14.3595
 20
31.1010
  0
POINT
  8
2
 10
17.6164
 20
31.1010
  0
LINE
  8
8
 10
22.7917
 20
33.0032
 11
23.5428
 21
29.3244
  0
POLYLINE
  8
85
 66
1
 70
0
  0
VERTEX
  8
85
 10
22.7917
 20
33.0032
  0
VERTEX
  8
85
 10
23.5428
 20
29.3244
  0
SEQEND
  8
85
  0
TEXT
  8
8
 10
22.7917
 20
33.0032
 40
0.250
 50
0.0000
  1
NM
  7
STANDARD
  0
TEXT
  8
85
 10
22.7917
 20
33.0032
 40
0.250
 50
0.0000
  1
NM
  7
STANDARD
  0
POINT
  8
2
 10
22.7917
 20
33.0032
  0
POINT
  8
2
 10
23.5428
 20
29.3244
  0
LINE
  8
8
 10
23.5428
 20
29.3244
 11
24.3063
 21
29.2549
  0
POLYLINE
  8
85
 66
1
 70
0
  0
VERTEX
  8
85
 10
23.5428
 20
29.3244
  0
VERTEX
  8
85
 10
24.3063
 20
29.2549
  0
SEQEND
  8
85
  0
TEXT
  8
8
 10
23.5428
 20
29.3244
 40
0.250
 50
0.0000
  1
NM
  7
STANDARD
  0
TEXT
  8
85
 10
23.5428
 20
29.3244
 40
0.250
 50
0.0000
  1
NM
  7
STANDARD
  0
POINT
  8
2
 10
23.5428
 20
29.3244
  0
POINT
  8
2
 10
24.3063
 20
29.2549
  0
LINE
  8
8
 10
14.9602
 20
37.1071
 11
30.3358
 21
32.4560
  0
POLYLINE
  8
85
 66
1
 70
0
  0
VERTEX
  8
85
 10
14.9602
 20
37.1071
  0
VERTEX
  8
85
 10
30.3358
 20
32.4560
  0
SEQEND
  8
85
  0
TEXT
  8
8
 10
14.9602
 20
37.1071
 40
0.250
 50
0.0000
  1
NM
  7
STANDARD
  0
TEXT
  8
85
 10
14.9602
 20
37.1071
 40
0.250
 50
0.0000
  1
NM
  7
STANDARD
  0
POINT
  8
2
 10
14.9602
 20
37.1071
  0
POINT
  8
2
 10
30.3358
 20
32.4560
  0
LINE
  8
8
 10
14.4679
 20
36.4700
 11
14.4679
 21
35.6824
  0
POLYLINE
  8
85
 66
1
 70
0
  0
VERTEX
  8
85
 10
14.4679
 20
36.4700
  0
VERTEX
  8
85
 10
14.4679
 20
35.6824
  0
SEQEND
  8
85
  0
TEXT
  8
8
 10
14.4679
 20
36.4700
 40
0.250
 50
0.0000
  1
NM
  7
STANDARD
  0
TEXT
  8
85
 10
14.4679
 20
36.4700
 40
0.250
 50
0.0000
  1
NM
  7
STANDARD
  0
POINT
  8
2
 10
14.4679
 20
36.4700
  0
POINT
  8
2
 10
14.4679
 20
35.6824
  0
LINE
  8
8
 10
2.5002
 20
36.4700
 11
19.6212
 21
36.4700
  0
POLYLINE
  8
85
 66
1
 70
0
  0
VERTEX
  8
85
 10
2.5002
 20
36.4700
  0
VERTEX
  8
85
 10
19.6212
 20
36.4700
  0
SEQEND
  8
85
  0
TEXT
  8
8
 10
2.5002
 20
36.4700
 40
0.250
 50
0.0000
  1
NM
  7
STANDARD
  0
TEXT
  8
85
 10
2.5002
 20
36.4700
 40
0.250
 50
0.0000
  1
NM
  7
STANDARD
  0
POINT
  8
2
 10
2.5002
 20
36.4700
  0
POINT
  8
2
 10
19.6212
 20
36.4700
  0
LINE
  8
8
 10
13.9610
 20
31.4760
 11
13.9610
 21
37.1007
  0
POLYLINE
  8
85
 66
1
 70
0
  0
VERTEX
  8
85
 10
13.9610
 20
31.4760
  0
VERTEX
  8
85
 10
13.9610
 20
37.1007
  0
SEQEND
  8
85
  0
TEXT
  8
8
 10
13.9610
 20
31.4760
 40
0.250
 50
0.0000
  1
NM
  7
STANDARD
  0
TEXT
  8
85
 10
13.9610
 20
31.4760
 40
0.250
 50
0.0000
  1
NM
  7
STANDARD
  0
POINT
  8
2
 10
13.9610
 20
31.4760
  0
POINT
  8
2
 10
13.9610
 20
37.1007
  0
LINE
  8
8
 10
11.6888
 20
31.7237
 11
1.5640
 21
31.7237
  0
POLYLINE
  8
85
 66
1
 70
0
  0
VERTEX
  8
85
 10
11.6888
 20
31.7237
  0
VERTEX
  8
85
 10
1.5640
 20
31.7237
  0
SEQEND
  8
85
  0
TEXT
  8
8
 10
11.6888
 20
31.7237
 40
0.250
 50
0.0000
  1
NM
  7
STANDARD
  0
TEXT
  8
85
 10
11.6888
 20
31.7237
 40
0.250
 50
0.0000
  1
NM
  7
STANDARD
  0
POINT
  8
2
 10
11.6888
 20
31.7237
  0
POINT
  8
2
 10
1.5640
 20
31.7237
  0
LINE
  8
8
 10
23.5418
 20
33.0032
 11
24.3063
 21
29.2549
  0
POLYLINE
  8
85
 66
1
 70
0
  0
VERTEX
  8
85
 10
23.5418
 20
33.0032
  0
VERTEX
  8
85
 10
24.3063
 20
29.2549
  0
SEQEND
  8
85
  0
TEXT
  8
8
 10
23.5418
 20
33.0032
 40
0.250
 50
0.0000
  1
NM
  7
STANDARD
  0
TEXT
  8
85
 10
23.5418
 20
33.0032
 40
0.250
 50
0.0000
  1
NM
  7
STANDARD
  0
POINT
  8
2
 10
23.5418
 20
33.0032
  0
POINT
  8
2
 10
24.3063
 20
29.2549
  0
LINE
  8
8
 10
22.7917
 20
33.0032
 11
23.5418
 21
33.0032
  0
POLYLINE
  8
85
 66
1
 70
0
  0
VERTEX
  8
85
 10
22.7917
 20
33.0032
  0
VERTEX
  8
85
 10
23.5418
 20
33.0032
  0
SEQEND
  8
85
  0
TEXT
  8
8
 10
22.7917
 20
33.0032
 40
0.250
 50
0.0000
  1
NM
  7
STANDARD
  0
TEXT
  8
85
 10
22.7917
 20
33.0032
 40
0.250
 50
0.0000
  1
NM
  7
STANDARD
  0
POINT
  8
2
 10
22.7917
 20
33.0032
  0
POINT
  8
2
 10
23.5418
 20
33.0032
  0
LINE
  8
8
 10
24.3063
 20
29.2549
 11
24.2818
 21
27.8806
  0
POLYLINE
  8
85
 66
1
 70
0
  0
VERTEX
  8
85
 10
24.3063
 20
29.2549
  0
VERTEX
  8
85
 10
24.2818
 20
27.8806
  0
SEQEND
  8
85
  0
TEXT
  8
8
 10
24.3063
 20
29.2549
 40
0.250
 50
0.0000
  1
NM
  7
STANDARD
  0
TEXT
  8
85
 10
24.3063
 20
29.2549
 40
0.250
 50
0.0000
  1
NM
  7
STANDARD
  0
POINT
  8
2
 10
24.3063
 20
29.2549
  0
POINT
  8
2
 10
24.2818
 20
27.8806
  0
LINE
  8
8
 10
23.5428
 20
29.3244
 11
22.7917
 21
29.3244
  0
POLYLINE
  8
85
 66
1
 70
0
  0
VERTEX
  8
85
 10
23.5428
 20
29.3244
  0
VERTEX
  8
85
 10
22.7917
 20
29.3244
  0
SEQEND
  8
85
  0
TEXT
  8
8
 10
23.5428
 20
29.3244
 40
0.250
 50
0.0000
  1
NM
  7
STANDARD
  0
TEXT
  8
85
 10
23.5428
 20
29.3244
 40
0.250
 50
0.0000
  1
NM
  7
STANDARD
  0
POINT
  8
2
 10
23.5428
 20
29.3244
  0
POINT
  8
2
 10
22.7917
 20
29.3244
  0
LINE
  8
8
 10
19.6212
 20
26.5491
 11
19.6212
 21
36.4700
  0
POLYLINE
  8
85
 66
1
 70
0
  0
VERTEX
  8
85
 10
19.6212
 20
26.5491
  0
VERTEX
  8
85
 10
19.6212
 20
36.4700
  0
SEQEND
  8
85
  0
TEXT
  8
8
 10
19.6212
 20
26.5491
 40
0.250
 50
0.0000
  1
NM
  7
STANDARD
  0
TEXT
  8
85
 10
19.6212
 20
26.5491
 40
0.250
 50
0.0000
  1
NM
  7
STANDARD
  0
POINT
  8
2
 10
19.6212
 20
26.5491
  0
POINT
  8
2
 10
19.6212
 20
36.4700
  0
LINE
  8
8
 10
29.2208
 20
32.7829
 11
29.8524
 21
34.8703
  0
POLYLINE
  8
85
 66
1
 70
0
  0
VERTEX
  8
85
 10
29.2208
 20
32.7829
  0
VERTEX
  8
85
 10
29.8524
 20
34.8703
  0
SEQEND
  8
85
  0
TEXT
  8
8
 10
29.2208
 20
32.7829
 40
0.250
 50
0.0000
  1
NM
  7
STANDARD
  0
TEXT
  8
85
 10
29.2208
 20
32.7829
 40
0.250
 50
0.0000
  1
NM
  7
STANDARD
  0
POINT
  8
2
 10
29.2208
 20
32.7829
  0
POINT
  8
2
 10
29.8524
 20
34.8703
  0
LINE
  8
10
 10
22.4306
 20
27.7116
 11
22.4306
 21
28.3190
  0
TEXT
  8
10
 10
22.4306
 20
27.7116
 40
0.250
 50
0.0000
  1
3
  7
STANDARD
  0
POINT
  8
2
 10
22.4306
 20
27.7116
  0
POINT
  8
2
 10
22.4306
 20
28.3190
  0
LINE
  8
10
 10
1.9323
 20
27.0134
 11
1.9323
 21
27.1518
  0
TEXT
  8
10
 10
1.9323
 20
27.0134
 40
0.250
 50
0.0000
  1
2
  7
STANDARD
  0
POINT
  8
2
 10
1.9323
 20
27.0134
  0
POINT
  8
2
 10
1.9323
 20
27.1518
  0
LINE
  8
10
 10
10.1249
 20
31.1739
 11
10.1249
 21
30.6159
  0
TEXT
  8
10
 10
10.1249
 20
31.1739
 40
0.250
 50
0.0000
  1
:
  7
STANDARD
  0
POINT
  8
2
 10
10.1249
 20
31.1739
  0
POINT
  8
2
 10
10.1249
 20
30.6159
  0
LINE
  8
9
 10
10.7591
 20
31.1739
 11
10.1249
 21
31.1739
  0
TEXT
  8
9
 10
10.7591
 20
31.1739
 40
0.250
 50
0.0000
  1
9
  7
STANDARD
  0
POINT
  8
2
 10
10.7591
 20
31.1739
  0
POINT
  8
2
 10
10.1249
 20
31.1739
  0
LINE
  8
9
 10
22.7917
 20
33.0032
 11
23.9168
 21
33.0032
  0
TEXT
  8
9
 10
22.7917
 20
33.0032
 40
0.250
 50
0.0000
  1
7
  7
STANDARD
  0
POINT
  8
2
 10
22.7917
 20
33.0032
  0
POINT
  8
2
 10
23.9168
 20
33.0032
  0
LINE
  8
10
 10
22.7917
 20
33.0032
 11
22.7917
 21
32.0032
  0
TEXT
  8
10
 10
22.7917
 20
33.0032
 40
0.250
 50
0.0000
  1
8
  7
STANDARD
  0
POINT
  8
2
 10
22.7917
 20
33.0032
  0
POINT
  8
2
 10
22.7917
 20
32.0032
  0
ENDBLK
  0
BLOCK
  8
0
  2
BUY-388884-JF-SP26-SL-J-SH-02_40
 70
64
 10
0.0000
 20
0.0000
  0
TEXT
  8
1
 10
44.0702
 20
34.4257
 40
0.250
 50
0.0000
  1
Piece Name: BUY-388884-JF-SP26-SL-J-SH-02
  7
STANDARD
  0
TEXT
  8
1
 10
44.0702
 20
34.5657
 40
0.250
 50
0.0000
  1
Quantity: 1,0
  7
STANDARD
  0
TEXT
  8
1
 10
44.0702
 20
34.7057
 40
0.250
 50
0.0000
  1
ANNOTATION: SIDE PANEL CUT-2
  7
STANDARD
  0
TEXT
  8
1
 10
44.0702
 20
34.8457
 40
0.250
 50
0.0000
  1
CATEGORY: 2
  7
STANDARD
  0
TEXT
  8
1
 10
44.0702
 20
34.9857
 40
0.250
 50
0.0000
  1
SIZE: 40
  7
STANDARD
  0
POLYLINE
  8
1
 66
1
 70
0
  0
VERTEX
  8
1
 10
55.4471
 20
31.9580
  0
VERTEX
  8
1
 10
55.3913
 20
31.4611
  0
SEQEND
  8
1
  0
POLYLINE
  8
84
 66
1
 70
0
  0
VERTEX
  8
84
 10
55.4471
 20
31.9580
  0
VERTEX
  8
84
 10
55.3913
 20
31.4611
  0
SEQEND
  8
84
  0
POINT
  8
2
 10
55.4471
 20
31.9580
  0
POINT
  8
2
 10
55.3913
 20
31.4611
  0
POLYLINE
  8
1
 66
1
 70
0
  0
VERTEX
  8
1
 10
55.3913
 20
31.4611
  0
VERTEX
  8
1
 10
53.2130
 20
31.6981
  0
VERTEX
  8
1
 10
51.2245
 20
31.9481
  0
VERTEX
  8
1
 10
49.4978
 20
32.1787
  0
VERTEX
  8
1
 10
48.6258
 20
32.2907
  0
VERTEX
  8
1
 10
47.7519
 20
32.3858
  0
VERTEX
  8
1
 10
46.8686
 20
32.4476
  0
VERTEX
  8
1
 10
45.9835
 20
32.4725
  0
VERTEX
  8
1
 10
45.9835
 20
32.4725
  0
VERTEX
  8
1
 10
45.0012
 20
32.4340
  0
VERTEX
  8
1
 10
44.0207
 20
32.3570
  0
VERTEX
  8
1
 10
42.7844
 20
32.2437
  0
VERTEX
  8
1
 10
41.9502
 20
32.1677
  0
VERTEX
  8
1
 10
40.0385
 20
31.9935
  0
VERTEX
  8
1
 10
37.5845
 20
31.8063
  0
VERTEX
  8
1
 10
35.5330
 20
31.7196
  0
VERTEX
  8
1
 10
34.3072
 20
31.6679
  0
VERTEX
  8
1
 10
33.6346
 20
31.6622
  0
VERTEX
  8
1
 10
32.8122
 20
31.6551
  0
SEQEND
  8
1
  0
POLYLINE
  8
84
 66
1
 70
0
  0
VERTEX
  8
84
 10
55.3913
 20
31.4611
  0
VERTEX
  8
84
 10
53.2130
 20
31.6981
  0
VERTEX
  8
84
 10
51.2245
 20
31.9481
  0
VERTEX
  8
84
 10
49.4978
 20
32.1787
  0
VERTEX
  8
84
 10
48.6258
 20
32.2907
  0
VERTEX
  8
84
 10
47.7519
 20
32.3858
  0
VERTEX
  8
84
 10
46.8686
 20
32.4476
  0
VERTEX
  8
84
 10
45.9835
 20
32.4725
  0
VERTEX
  8
84
 10
45.9835
 20
32.4725
  0
VERTEX
  8
84
 10
45.4921
 20
32.4596
  0
VERTEX
  8
84
 10
45.0012
 20
32.4340
  0
VERTEX
  8
84
 10
44.0207
 20
32.3570
  0
VERTEX
  8
84
 10
42.7844
 20
32.2437
  0
VERTEX
  8
84
 10
41.9502
 20
32.1677
  0
VERTEX
  8
84
 10
40.0385
 20
31.9935
  0
VERTEX
  8
84
 10
38.8120
 20
31.8925
  0
VERTEX
  8
84
 10
37.5845
 20
31.8063
  0
VERTEX
  8
84
 10
35.5330
 20
31.7196
  0
VERTEX
  8
84
 10
34.3072
 20
31.6679
  0
VERTEX
  8
84
 10
33.6346
 20
31.6622
  0
VERTEX
  8
84
 10
32.8122
 20
31.6551
  0
SEQEND
  8
84
  0
POINT
  8
2
 10
55.3913
 20
31.4611
  0
POINT
  8
3
 10
53.2130
 20
31.6981
  0
POINT
  8
4
 10
51.2245
 20
31.9481
 30
0.1181
 39
0.1771
  0
POINT
  8
3
 10
51.2245
 20
31.9481
  0
POINT
  8
3
 10
49.4978
 20
32.1787
  0
POINT
  8
3
 10
48.6258
 20
32.2907
  0
POINT
  8
3
 10
47.7519
 20
32.3858
  0
POINT
  8
3
 10
46.8686
 20
32.4476
  0
POINT
  8
3
 10
45.9835
 20
32.4725
  0
POINT
  8
4
 10
45.9835
 20
32.4725
 30
0.1181
 39
0.1771
  0
POINT
  8
2
 10
45.9835
 20
32.4725
  0
POINT
  8
3
 10
45.0012
 20
32.4340
  0
POINT
  8
3
 10
44.0207
 20
32.3570
  0
POINT
  8
2
 10
42.7844
 20
32.2437
  0
POINT
  8
3
 10
41.9502
 20
32.1677
  0
POINT
  8
3
 10
40.0385
 20
31.9935
  0
POINT
  8
3
 10
37.5845
 20
31.8063
  0
POINT
  8
3
 10
35.5330
 20
31.7196
  0
POINT
  8
4
 10
34.3072
 20
31.6679
 30
0.1181
 39
0.1771
  0
POINT
  8
3
 10
34.3072
 20
31.6679
  0
POINT
  8
3
 10
33.6346
 20
31.6622
  0
POINT
  8
2
 10
32.8122
 20
31.6551
  0
POLYLINE
  8
1
 66
1
 70
0
  0
VERTEX
  8
1
 10
32.8122
 20
31.6551
  0
VERTEX
  8
1
 10
32.7439
 20
34.7494
  0
VERTEX
  8
1
 10
32.6933
 20
36.9935
  0
VERTEX
  8
1
 10
32.7197
 20
37.3874
  0
SEQEND
  8
1
  0
POLYLINE
  8
84
 66
1
 70
0
  0
VERTEX
  8
84
 10
32.8122
 20
31.6551
  0
VERTEX
  8
84
 10
32.7439
 20
34.7494
  0
VERTEX
  8
84
 10
32.6933
 20
36.9935
  0
VERTEX
  8
84
 10
32.7197
 20
37.3874
  0
SEQEND
  8
84
  0
POINT
  8
2
 10
32.8122
 20
31.6551
  0
POINT
  8
4
 10
32.7439
 20
34.7494
 30
0.1181
 39
0.1771
  0
POINT
  8
3
 10
32.7439
 20
34.7494
  0
POINT
  8
2
 10
32.6933
 20
36.9935
  0
POINT
  8
2
 10
32.7197
 20
37.3874
  0
POLYLINE
  8
1
 66
1
 70
0
  0
VERTEX
  8
1
 10
32.7197
 20
37.3874
  0
VERTEX
  8
1
 10
34.2194
 20
37.3904
  0
VERTEX
  8
1
 10
34.2194
 20
37.3904
  0
VERTEX
  8
1
 10
36.6591
 20
37.3286
  0
VERTEX
  8
1
 10
38.1089
 20
37.2691
  0
VERTEX
  8
1
 10
39.5577
 20
37.1907
  0
VERTEX
  8
1
 10
41.6333
 20
37.0270
  0
VERTEX
  8
1
 10
43.8207
 20
36.8298
  0
VERTEX
  8
1
 10
44.8063
 20
36.7478
  0
VERTEX
  8
1
 10
45.9906
 20
36.6674
  0
VERTEX
  8
1
 10
47.3952
 20
36.6089
  0
VERTEX
  8
1
 10
48.6282
 20
36.5878
  0
VERTEX
  8
1
 10
50.5701
 20
36.6118
  0
VERTEX
  8
1
 10
53.0551
 20
36.6197
  0
SEQEND
  8
1
  0
POLYLINE
  8
84
 66
1
 70
0
  0
VERTEX
  8
84
 10
32.7197
 20
37.3874
  0
VERTEX
  8
84
 10
34.2194
 20
37.3904
  0
VERTEX
  8
84
 10
34.2194
 20
37.3904
  0
VERTEX
  8
84
 10
36.6591
 20
37.3286
  0
VERTEX
  8
84
 10
38.1089
 20
37.2691
  0
VERTEX
  8
84
 10
39.5577
 20
37.1907
  0
VERTEX
  8
84
 10
41.6333
 20
37.0270
  0
VERTEX
  8
84
 10
43.8207
 20
36.8298
  0
VERTEX
  8
84
 10
44.8063
 20
36.7478
  0
VERTEX
  8
84
 10
45.9906
 20
36.6674
  0
VERTEX
  8
84
 10
47.3952
 20
36.6089
  0
VERTEX
  8
84
 10
48.6282
 20
36.5878
  0
VERTEX
  8
84
 10
50.5701
 20
36.6118
  0
VERTEX
  8
84
 10
53.0551
 20
36.6197
  0
SEQEND
  8
84
  0
POINT
  8
2
 10
32.7197
 20
37.3874
  0
POINT
  8
2
 10
34.2194
 20
37.3904
  0
POINT
  8
4
 10
34.2194
 20
37.3904
 30
0.1181
 39
0.1771
  0
POINT
  8
2
 10
34.2194
 20
37.3904
  0
POINT
  8
3
 10
36.6591
 20
37.3286
  0
POINT
  8
3
 10
38.1089
 20
37.2691
  0
POINT
  8
3
 10
39.5577
 20
37.1907
  0
POINT
  8
3
 10
41.6333
 20
37.0270
  0
POINT
  8
4
 10
43.8207
 20
36.8298
 30
0.1181
 39
0.1771
  0
POINT
  8
3
 10
43.8207
 20
36.8298
  0
POINT
  8
3
 10
44.8063
 20
36.7478
  0
POINT
  8
3
 10
45.9906
 20
36.6674
  0
POINT
  8
3
 10
47.3952
 20
36.6089
  0
POINT
  8
4
 10
48.6282
 20
36.5878
 30
0.1181
 39
0.1771
  0
POINT
  8
3
 10
48.6282
 20
36.5878
  0
POINT
  8
3
 10
50.5701
 20
36.6118
  0
POINT
  8
2
 10
53.0551
 20
36.6197
  0
POLYLINE
  8
1
 66
1
 70
0
  0
VERTEX
  8
1
 10
53.0551
 20
36.6197
  0
VERTEX
  8
1
 10
53.1321
 20
36.2314
  0
VERTEX
  8
1
 10
53.1024
 20
35.9808
  0
VERTEX
  8
1
 10
53.0780
 20
35.6543
  0
VERTEX
  8
1
 10
53.0663
 20
35.3273
  0
VERTEX
  8
1
 10
53.0827
 20
34.9280
  0
VERTEX
  8
1
 10
53.0827
 20
34.9280
  0
VERTEX
  8
1
 10
53.1201
 20
34.6346
  0
VERTEX
  8
1
 10
53.1853
 20
34.3610
  0
VERTEX
  8
1
 10
53.2721
 20
34.1110
  0
VERTEX
  8
1
 10
53.4925
 20
33.6523
  0
VERTEX
  8
1
 10
53.6530
 20
33.3911
  0
VERTEX
  8
1
 10
53.8752
 20
33.1111
  0
VERTEX
  8
1
 10
54.2460
 20
32.7586
  0
VERTEX
  8
1
 10
54.7296
 20
32.3831
  0
VERTEX
  8
1
 10
55.1020
 20
32.1553
  0
VERTEX
  8
1
 10
55.4471
 20
31.9580
  0
SEQEND
  8
1
  0
POLYLINE
  8
84
 66
1
 70
0
  0
VERTEX
  8
84
 10
53.0551
 20
36.6197
  0
VERTEX
  8
84
 10
53.1321
 20
36.2314
  0
VERTEX
  8
84
 10
53.1024
 20
35.9808
  0
VERTEX
  8
84
 10
53.0780
 20
35.6543
  0
VERTEX
  8
84
 10
53.0663
 20
35.3273
  0
VERTEX
  8
84
 10
53.0827
 20
34.9280
  0
VERTEX
  8
84
 10
53.0827
 20
34.9280
  0
VERTEX
  8
84
 10
53.1201
 20
34.6346
  0
VERTEX
  8
84
 10
53.1853
 20
34.3610
  0
VERTEX
  8
84
 10
53.2721
 20
34.1110
  0
VERTEX
  8
84
 10
53.3762
 20
33.8787
  0
VERTEX
  8
84
 10
53.4925
 20
33.6523
  0
VERTEX
  8
84
 10
53.6530
 20
33.3911
  0
VERTEX
  8
84
 10
53.8752
 20
33.1111
  0
VERTEX
  8
84
 10
54.0554
 20
32.9294
  0
VERTEX
  8
84
 10
54.2460
 20
32.7586
  0
VERTEX
  8
84
 10
54.4830
 20
32.5645
  0
VERTEX
  8
84
 10
54.7296
 20
32.3831
  0
VERTEX
  8
84
 10
55.1020
 20
32.1553
  0
VERTEX
  8
84
 10
55.4471
 20
31.9580
  0
SEQEND
  8
84
  0
POINT
  8
2
 10
53.0551
 20
36.6197
  0
POINT
  8
2
 10
53.1321
 20
36.2314
  0
POINT
  8
3
 10
53.1024
 20
35.9808
  0
POINT
  8
3
 10
53.0780
 20
35.6543
  0
POINT
  8
3
 10
53.0663
 20
35.3273
  0
POINT
  8
3
 10
53.0827
 20
34.9280
  0
POINT
  8
4
 10
53.0827
 20
34.9280
 30
0.1181
 39
0.1771
  0
POINT
  8
2
 10
53.0827
 20
34.9280
  0
POINT
  8
3
 10
53.1201
 20
34.6346
  0
POINT
  8
3
 10
53.1853
 20
34.3610
  0
POINT
  8
3
 10
53.2721
 20
34.1110
  0
POINT
  8
3
 10
53.4925
 20
33.6523
  0
POINT
  8
3
 10
53.6530
 20
33.3911
  0
POINT
  8
3
 10
53.8752
 20
33.1111
  0
POINT
  8
3
 10
54.2460
 20
32.7586
  0
POINT
  8
3
 10
54.7296
 20
32.3831
  0
POINT
  8
3
 10
55.1020
 20
32.1553
  0
POINT
  8
2
 10
55.4471
 20
31.9580
  0
LINE
  8
7
 10
39.0699
 20
34.5540
 11
49.8391
 21
34.5540
  0
LINE
  8
5
 10
39.0699
 20
34.5540
 11
49.8391
 21
34.5540
  0
POINT
  8
2
 10
39.0699
 20
34.5540
  0
POINT
  8
2
 10
49.8391
 20
34.5540
  0
LINE
  8
8
 10
45.9978
 20
32.9725
 11
45.9978
 21
36.2730
  0
POLYLINE
  8
85
 66
1
 70
0
  0
VERTEX
  8
85
 10
45.9978
 20
32.9725
  0
VERTEX
  8
85
 10
45.9978
 20
36.2730
  0
SEQEND
  8
85
  0
TEXT
  8
8
 10
45.9978
 20
32.9725
 40
0.250
 50
0.0000
  1
NM
  7
STANDARD
  0
TEXT
  8
85
 10
45.9978
 20
32.9725
 40
0.250
 50
0.0000
  1
NM
  7
STANDARD
  0
POINT
  8
2
 10
45.9978
 20
32.9725
  0
POINT
  8
2
 10
45.9978
 20
36.2730
  0
LINE
  8
8
 10
51.5836
 20
32.4068
 11
51.5836
 21
36.2250
  0
POLYLINE
  8
85
 66
1
 70
0
  0
VERTEX
  8
85
 10
51.5836
 20
32.4068
  0
VERTEX
  8
85
 10
51.5836
 20
36.2250
  0
SEQEND
  8
85
  0
TEXT
  8
8
 10
51.5836
 20
32.4068
 40
0.250
 50
0.0000
  1
NM
  7
STANDARD
  0
TEXT
  8
85
 10
51.5836
 20
32.4068
 40
0.250
 50
0.0000
  1
NM
  7
STANDARD
  0
POINT
  8
2
 10
51.5836
 20
32.4068
  0
POINT
  8
2
 10
51.5836
 20
36.2250
  0
LINE
  8
8
 10
34.7776
 20
36.9826
 11
34.7819
 21
32.2419
  0
POLYLINE
  8
85
 66
1
 70
0
  0
VERTEX
  8
85
 10
34.7776
 20
36.9826
  0
VERTEX
  8
85
 10
34.7819
 20
32.2419
  0
SEQEND
  8
85
  0
TEXT
  8
8
 10
34.7776
 20
36.9826
 40
0.250
 50
0.0000
  1
NM
  7
STANDARD
  0
TEXT
  8
85
 10
34.7776
 20
36.9826
 40
0.250
 50
0.0000
  1
NM
  7
STANDARD
  0
POINT
  8
2
 10
34.7776
 20
36.9826
  0
POINT
  8
2
 10
34.7819
 20
32.2419
  0
LINE
  8
10
 10
45.9855
 20
32.6066
 11
45.9855
 21
32.8565
  0
TEXT
  8
10
 10
45.9855
 20
32.6066
 40
0.250
 50
0.0000
  1
3
  7
STANDARD
  0
POINT
  8
2
 10
45.9855
 20
32.6066
  0
POINT
  8
2
 10
45.9855
 20
32.8565
  0
LINE
  8
10
 10
34.2148
 20
37.0843
 11
34.2148
 21
37.2943
  0
TEXT
  8
10
 10
34.2148
 20
37.0843
 40
0.250
 50
0.0000
  1
2
  7
STANDARD
  0
POINT
  8
2
 10
34.2148
 20
37.0843
  0
POINT
  8
2
 10
34.2148
 20
37.2943
  0
ENDBLK
  0
BLOCK
  8
0
  2
BUY-388884-JF-SP26-SL-J-SH-03CV-L_40
 70
64
 10
0.0000
 20
0.0000
  0
TEXT
  8
1
 10
71.9552
 20
31.5720
 40
0.250
 50
0.0000
  1
Piece Name: BUY-388884-JF-SP26-SL-J-SH-03CV-L
  7
STANDARD
  0
TEXT
  8
1
 10
71.9552
 20
31.7120
 40
0.250
 50
0.0000
  1
Quantity: 1,0
  7
STANDARD
  0
TEXT
  8
1
 10
71.9552
 20
31.8520
 40
0.250
 50
0.0000
  1
ANNOTATION: BACK
  7
STANDARD
  0
TEXT
  8
1
 10
71.9552
 20
31.9920
 40
0.250
 50
0.0000
  1
CATEGORY: 3-L
  7
STANDARD
  0
TEXT
  8
1
 10
71.9552
 20
32.1320
 40
0.250
 50
0.0000
  1
SIZE: 40
  7
STANDARD
  0
POLYLINE
  8
1
 66
1
 70
0
  0
VERTEX
  8
1
 10
87.1115
 20
27.7066
  0
VERTEX
  8
1
 10
85.7959
 20
27.5757
  0
VERTEX
  8
1
 10
84.2704
 20
27.4281
  0
VERTEX
  8
1
 10
82.5440
 20
27.2912
  0
VERTEX
  8
1
 10
81.1029
 20
27.2173
  0
VERTEX
  8
1
 10
79.6608
 20
27.1803
  0
VERTEX
  8
1
 10
78.6958
 20
27.1981
  0
VERTEX
  8
1
 10
77.2971
 20
27.2589
  0
VERTEX
  8
1
 10
75.8026
 20
27.3354
  0
VERTEX
  8
1
 10
74.4171
 20
27.4182
  0
VERTEX
  8
1
 10
73.1345
 20
27.4949
  0
VERTEX
  8
1
 10
71.1521
 20
27.5964
  0
VERTEX
  8
1
 10
70.2142
 20
27.6384
  0
VERTEX
  8
1
 10
69.5720
 20
27.6672
  0
VERTEX
  8
1
 10
68.9086
 20
27.6381
  0
VERTEX
  8
1
 10
68.4810
 20
27.5227
  0
VERTEX
  8
1
 10
68.2758
 20
27.4201
  0
VERTEX
  8
1
 10
68.1381
 20
27.3272
  0
VERTEX
  8
1
 10
67.9450
 20
27.1738
  0
VERTEX
  8
1
 10
67.7586
 20
26.9951
  0
VERTEX
  8
1
 10
67.5603
 20
26.7985
  0
VERTEX
  8
1
 10
67.2928
 20
26.5346
  0
VERTEX
  8
1
 10
67.0318
 20
26.3061
  0
VERTEX
  8
1
 10
66.7660
 20
26.1289
  0
VERTEX
  8
1
 10
66.4898
 20
25.9964
  0
VERTEX
  8
1
 10
66.1996
 20
25.8879
  0
VERTEX
  8
1
 10
65.8803
 20
25.8052
  0
VERTEX
  8
1
 10
65.5694
 20
25.7620
  0
VERTEX
  8
1
 10
65.2820
 20
25.7537
  0
VERTEX
  8
1
 10
65.2820
 20
25.7537
  0
VERTEX
  8
1
 10
57.4474
 20
25.7537
  0
VERTEX
  8
1
 10
55.9471
 20
25.7537
  0
SEQEND
  8
1
  0
POLYLINE
  8
84
 66
1
 70
0
  0
VERTEX
  8
84
 10
87.1115
 20
27.7066
  0
VERTEX
  8
84
 10
85.7959
 20
27.5757
  0
VERTEX
  8
84
 10
84.2704
 20
27.4281
  0
VERTEX
  8
84
 10
82.5440
 20
27.2912
  0
VERTEX
  8
84
 10
81.1029
 20
27.2173
  0
VERTEX
  8
84
 10
80.3820
 20
27.1926
  0
VERTEX
  8
84
 10
79.6608
 20
27.1803
  0
VERTEX
  8
84
 10
78.6958
 20
27.1981
  0
VERTEX
  8
84
 10
77.2971
 20
27.2589
  0
VERTEX
  8
84
 10
75.8026
 20
27.3354
  0
VERTEX
  8
84
 10
74.4171
 20
27.4182
  0
VERTEX
  8
84
 10
73.1345
 20
27.4949
  0
VERTEX
  8
84
 10
71.1521
 20
27.5964
  0
VERTEX
  8
84
 10
70.2142
 20
27.6384
  0
VERTEX
  8
84
 10
69.5720
 20
27.6672
  0
VERTEX
  8
84
 10
69.2394
 20
27.6615
  0
VERTEX
  8
84
 10
68.9086
 20
27.6381
  0
VERTEX
  8
84
 10
68.6919
 20
27.5914
  0
VERTEX
  8
84
 10
68.4810
 20
27.5227
  0
VERTEX
  8
84
 10
68.2758
 20
27.4201
  0
VERTEX
  8
84
 10
68.1381
 20
27.3272
  0
VERTEX
  8
84
 10
67.9450
 20
27.1738
  0
VERTEX
  8
84
 10
67.7586
 20
26.9951
  0
VERTEX
  8
84
 10
67.5603
 20
26.7985
  0
VERTEX
  8
84
 10
67.2928
 20
26.5346
  0
VERTEX
  8
84
 10
67.0318
 20
26.3061
  0
VERTEX
  8
84
 10
66.7660
 20
26.1289
  0
VERTEX
  8
84
 10
66.4898
 20
25.9964
  0
VERTEX
  8
84
 10
66.1996
 20
25.8879
  0
VERTEX
  8
84
 10
65.8803
 20
25.8052
  0
VERTEX
  8
84
 10
65.5694
 20
25.7620
  0
VERTEX
  8
84
 10
65.2820
 20
25.7537
  0
VERTEX
  8
84
 10
65.2820
 20
25.7537
  0
VERTEX
  8
84
 10
57.4474
 20
25.7537
  0
VERTEX
  8
84
 10
55.9471
 20
25.7537
  0
SEQEND
  8
84
  0
POINT
  8
2
 10
87.1115
 20
27.7066
  0
POINT
  8
3
 10
85.7959
 20
27.5757
  0
POINT
  8
3
 10
84.2704
 20
27.4281
  0
POINT
  8
3
 10
82.5440
 20
27.2912
  0
POINT
  8
3
 10
81.1029
 20
27.2173
  0
POINT
  8
3
 10
79.6608
 20
27.1803
  0
POINT
  8
3
 10
78.6958
 20
27.1981
  0
POINT
  8
3
 10
77.2971
 20
27.2589
  0
POINT
  8
3
 10
75.8026
 20
27.3354
  0
POINT
  8
3
 10
74.4171
 20
27.4182
  0
POINT
  8
3
 10
73.1345
 20
27.4949
  0
POINT
  8
3
 10
71.1521
 20
27.5964
  0
POINT
  8
4
 10
70.2142
 20
27.6384
 30
0.1181
 39
0.1771
  0
POINT
  8
2
 10
70.2142
 20
27.6384
  0
POINT
  8
2
 10
69.5720
 20
27.6672
  0
POINT
  8
3
 10
68.9086
 20
27.6381
  0
POINT
  8
3
 10
68.4810
 20
27.5227
  0
POINT
  8
3
 10
68.2758
 20
27.4201
  0
POINT
  8
3
 10
68.1381
 20
27.3272
  0
POINT
  8
3
 10
67.9450
 20
27.1738
  0
POINT
  8
3
 10
67.7586
 20
26.9951
  0
POINT
  8
3
 10
67.5603
 20
26.7985
  0
POINT
  8
3
 10
67.2928
 20
26.5346
  0
POINT
  8
3
 10
67.0318
 20
26.3061
  0
POINT
  8
3
 10
66.7660
 20
26.1289
  0
POINT
  8
3
 10
66.4898
 20
25.9964
  0
POINT
  8
3
 10
66.1996
 20
25.8879
  0
POINT
  8
3
 10
65.8803
 20
25.8052
  0
POINT
  8
2
 10
65.5694
 20
25.7620
  0
POINT
  8
2
 10
65.2820
 20
25.7537
  0
POINT
  8
4
 10
65.2820
 20
25.7537
 30
0.1181
 39
0.1771
  0
POINT
  8
2
 10
65.2820
 20
25.7537
  0
POINT
  8
4
 10
57.4474
 20
25.7537
 30
0.1181
 39
0.1771
  0
POINT
  8
3
 10
57.4474
 20
25.7537
  0
POINT
  8
2
 10
55.9471
 20
25.7537
  0
POLYLINE
  8
1
 66
1
 70
0
  0
VERTEX
  8
1
 10
55.9471
 20
25.7537
  0
VERTEX
  8
1
 10
55.9500
 20
28.1723
  0
VERTEX
  8
1
 10
55.9500
 20
28.1723
  0
VERTEX
  8
1
 10
55.9553
 20
33.8643
  0
VERTEX
  8
1
 10
55.9558
 20
36.3871
  0
SEQEND
  8
1
  0
POLYLINE
  8
84
 66
1
 70
0
  0
VERTEX
  8
84
 10
55.9471
 20
25.7537
  0
VERTEX
  8
84
 10
55.9500
 20
28.1723
  0
VERTEX
  8
84
 10
55.9500
 20
28.1723
  0
VERTEX
  8
84
 10
55.9553
 20
33.8643
  0
VERTEX
  8
84
 10
55.9558
 20
36.3871
  0
SEQEND
  8
84
  0
POINT
  8
2
 10
55.9471
 20
25.7537
  0
POINT
  8
2
 10
55.9500
 20
28.1723
  0
POINT
  8
4
 10
55.9500
 20
28.1723
 30
0.1181
 39
0.1771
  0
POINT
  8
2
 10
55.9500
 20
28.1723
  0
POINT
  8
2
 10
55.9553
 20
33.8643
  0
POINT
  8
2
 10
55.9558
 20
36.3871
  0
POLYLINE
  8
1
 66
1
 70
0
  0
VERTEX
  8
1
 10
55.9558
 20
36.3871
  0
VERTEX
  8
1
 10
57.0177
 20
36.3962
  0
VERTEX
  8
1
 10
57.4466
 20
36.3999
  0
VERTEX
  8
1
 10
59.2979
 20
36.3379
  0
VERTEX
  8
1
 10
60.6683
 20
36.2919
  0
VERTEX
  8
1
 10
62.4690
 20
36.1654
  0
VERTEX
  8
1
 10
64.4167
 20
36.0065
  0
VERTEX
  8
1
 10
65.9553
 20
35.8810
  0
VERTEX
  8
1
 10
67.1931
 20
35.7841
  0
VERTEX
  8
1
 10
68.1745
 20
35.7200
  0
VERTEX
  8
1
 10
69.1568
 20
35.6815
  0
VERTEX
  8
1
 10
69.1568
 20
35.6815
  0
VERTEX
  8
1
 10
70.0419
 20
35.7064
  0
VERTEX
  8
1
 10
70.9252
 20
35.7682
  0
VERTEX
  8
1
 10
71.7557
 20
35.8663
  0
VERTEX
  8
1
 10
72.5830
 20
35.9879
  0
VERTEX
  8
1
 10
73.4577
 20
36.1518
  0
VERTEX
  8
1
 10
74.3279
 20
36.3384
  0
VERTEX
  8
1
 10
75.5963
 20
36.6456
  0
VERTEX
  8
1
 10
76.8607
 20
36.9696
  0
VERTEX
  8
1
 10
78.4927
 20
37.3903
  0
SEQEND
  8
1
  0
POLYLINE
  8
84
 66
1
 70
0
  0
VERTEX
  8
84
 10
55.9558
 20
36.3871
  0
VERTEX
  8
84
 10
57.0177
 20
36.3962
  0
VERTEX
  8
84
 10
57.4466
 20
36.3999
  0
VERTEX
  8
84
 10
59.2979
 20
36.3379
  0
VERTEX
  8
84
 10
60.6683
 20
36.2919
  0
VERTEX
  8
84
 10
62.4690
 20
36.1654
  0
VERTEX
  8
84
 10
64.4167
 20
36.0065
  0
VERTEX
  8
84
 10
65.9553
 20
35.8810
  0
VERTEX
  8
84
 10
67.1931
 20
35.7841
  0
VERTEX
  8
84
 10
68.1745
 20
35.7200
  0
VERTEX
  8
84
 10
69.1568
 20
35.6815
  0
VERTEX
  8
84
 10
69.1568
 20
35.6815
  0
VERTEX
  8
84
 10
70.0419
 20
35.7064
  0
VERTEX
  8
84
 10
70.9252
 20
35.7682
  0
VERTEX
  8
84
 10
71.7557
 20
35.8663
  0
VERTEX
  8
84
 10
72.5830
 20
35.9879
  0
VERTEX
  8
84
 10
73.4577
 20
36.1518
  0
VERTEX
  8
84
 10
74.3279
 20
36.3384
  0
VERTEX
  8
84
 10
75.5963
 20
36.6456
  0
VERTEX
  8
84
 10
76.8607
 20
36.9696
  0
VERTEX
  8
84
 10
78.4927
 20
37.3903
  0
SEQEND
  8
84
  0
POINT
  8
2
 10
55.9558
 20
36.3871
  0
POINT
  8
3
 10
57.0177
 20
36.3962
  0
POINT
  8
4
 10
57.4466
 20
36.3999
 30
0.1181
 39
0.1771
  0
POINT
  8
3
 10
57.4466
 20
36.3999
  0
POINT
  8
3
 10
59.2979
 20
36.3379
  0
POINT
  8
3
 10
60.6683
 20
36.2919
  0
POINT
  8
3
 10
62.4690
 20
36.1654
  0
POINT
  8
3
 10
64.4167
 20
36.0065
  0
POINT
  8
2
 10
65.9553
 20
35.8810
  0
POINT
  8
3
 10
67.1931
 20
35.7841
  0
POINT
  8
3
 10
68.1745
 20
35.7200
  0
POINT
  8
3
 10
69.1568
 20
35.6815
  0
POINT
  8
4
 10
69.1568
 20
35.6815
 30
0.1181
 39
0.1771
  0
POINT
  8
2
 10
69.1568
 20
35.6815
  0
POINT
  8
3
 10
70.0419
 20
35.7064
  0
POINT
  8
3
 10
70.9252
 20
35.7682
  0
POINT
  8
3
 10
71.7557
 20
35.8663
  0
POINT
  8
3
 10
72.5830
 20
35.9879
  0
POINT
  8
3
 10
73.4577
 20
36.1518
  0
POINT
  8
4
 10
74.3279
 20
36.3384
 30
0.1181
 39
0.1771
  0
POINT
  8
3
 10
74.3279
 20
36.3384
  0
POINT
  8
3
 10
75.5963
 20
36.6456
  0
POINT
  8
3
 10
76.8607
 20
36.9696
  0
POINT
  8
2
 10
78.4927
 20
37.3903
  0
POLYLINE
  8
1
 66
1
 70
0
  0
VERTEX
  8
1
 10
78.4927
 20
37.3903
  0
VERTEX
  8
1
 10
78.6115
 20
36.9057
  0
SEQEND
  8
1
  0
POLYLINE
  8
84
 66
1
 70
0
  0
VERTEX
  8
84
 10
78.4927
 20
37.3903
  0
VERTEX
  8
84
 10
78.6115
 20
36.9057
  0
SEQEND
  8
84
  0
POINT
  8
2
 10
78.4927
 20
37.3903
  0
POINT
  8
2
 10
78.6115
 20
36.9057
  0
POLYLINE
  8
1
 66
1
 70
0
  0
VERTEX
  8
1
 10
78.6115
 20
36.9057
  0
VERTEX
  8
1
 10
79.0103
 20
36.8869
  0
VERTEX
  8
1
 10
79.7520
 20
36.8550
  0
VERTEX
  8
1
 10
80.3859
 20
36.8376
  0
VERTEX
  8
1
 10
80.9369
 20
36.8354
  0
VERTEX
  8
1
 10
81.6059
 20
36.8517
  0
VERTEX
  8
1
 10
82.3773
 20
36.9016
  0
VERTEX
  8
1
 10
83.4220
 20
37.0305
  0
VERTEX
  8
1
 10
84.2618
 20
37.2146
  0
VERTEX
  8
1
 10
84.6287
 20
37.3135
  0
SEQEND
  8
1
  0
POLYLINE
  8
84
 66
1
 70
0
  0
VERTEX
  8
84
 10
78.6115
 20
36.9057
  0
VERTEX
  8
84
 10
79.0103
 20
36.8869
  0
VERTEX
  8
84
 10
79.7520
 20
36.8550
  0
VERTEX
  8
84
 10
80.3859
 20
36.8376
  0
VERTEX
  8
84
 10
80.9369
 20
36.8354
  0
VERTEX
  8
84
 10
81.6059
 20
36.8517
  0
VERTEX
  8
84
 10
82.3773
 20
36.9016
  0
VERTEX
  8
84
 10
82.9009
 20
36.9564
  0
VERTEX
  8
84
 10
83.4220
 20
37.0305
  0
VERTEX
  8
84
 10
83.8434
 20
37.1153
  0
VERTEX
  8
84
 10
84.2618
 20
37.2146
  0
VERTEX
  8
84
 10
84.6287
 20
37.3135
  0
SEQEND
  8
84
  0
POINT
  8
2
 10
78.6115
 20
36.9057
  0
POINT
  8
3
 10
79.0103
 20
36.8869
  0
POINT
  8
3
 10
79.7520
 20
36.8550
  0
POINT
  8
3
 10
80.3859
 20
36.8376
  0
POINT
  8
4
 10
80.9369
 20
36.8354
 30
0.1181
 39
0.1771
  0
POINT
  8
3
 10
80.9369
 20
36.8354
  0
POINT
  8
4
 10
81.6059
 20
36.8517
 30
0.1181
 39
0.1771
  0
POINT
  8
3
 10
81.6059
 20
36.8517
  0
POINT
  8
3
 10
82.3773
 20
36.9016
  0
POINT
  8
3
 10
83.4220
 20
37.0305
  0
POINT
  8
3
 10
84.2618
 20
37.2146
  0
POINT
  8
2
 10
84.6287
 20
37.3135
  0
POLYLINE
  8
1
 66
1
 70
0
  0
VERTEX
  8
1
 10
84.6287
 20
37.3135
  0
VERTEX
  8
1
 10
84.8993
 20
37.1223
  0
VERTEX
  8
1
 10
85.0783
 20
36.7685
  0
VERTEX
  8
1
 10
85.2902
 20
36.3324
  0
VERTEX
  8
1
 10
85.5774
 20
35.7548
  0
VERTEX
  8
1
 10
85.9222
 20
35.0869
  0
VERTEX
  8
1
 10
86.2646
 20
34.4533
  0
VERTEX
  8
1
 10
86.6716
 20
33.7398
  0
VERTEX
  8
1
 10
87.0424
 20
33.1303
  0
VERTEX
  8
1
 10
87.4237
 20
32.5057
  0
VERTEX
  8
1
 10
87.9633
 20
31.6479
  0
SEQEND
  8
1
  0
POLYLINE
  8
84
 66
1
 70
0
  0
VERTEX
  8
84
 10
84.6287
 20
37.3135
  0
VERTEX
  8
84
 10
84.8993
 20
37.1223
  0
VERTEX
  8
84
 10
85.0783
 20
36.7685
  0
VERTEX
  8
84
 10
85.2902
 20
36.3324
  0
VERTEX
  8
84
 10
85.5774
 20
35.7548
  0
VERTEX
  8
84
 10
85.9222
 20
35.0869
  0
VERTEX
  8
84
 10
86.2646
 20
34.4533
  0
VERTEX
  8
84
 10
86.6716
 20
33.7398
  0
VERTEX
  8
84
 10
87.0424
 20
33.1303
  0
VERTEX
  8
84
 10
87.4237
 20
32.5057
  0
VERTEX
  8
84
 10
87.9633
 20
31.6479
  0
SEQEND
  8
84
  0
POINT
  8
2
 10
84.6287
 20
37.3135
  0
POINT
  8
2
 10
84.8993
 20
37.1223
  0
POINT
  8
3
 10
85.0783
 20
36.7685
  0
POINT
  8
4
 10
85.2902
 20
36.3324
 30
0.1181
 39
0.1771
  0
POINT
  8
2
 10
85.2902
 20
36.3324
  0
POINT
  8
3
 10
85.5774
 20
35.7548
  0
POINT
  8
3
 10
85.9222
 20
35.0869
  0
POINT
  8
3
 10
86.2646
 20
34.4533
  0
POINT
  8
3
 10
86.6716
 20
33.7398
  0
POINT
  8
3
 10
87.0424
 20
33.1303
  0
POINT
  8
4
 10
87.4237
 20
32.5057
 30
0.1181
 39
0.1771
  0
POINT
  8
2
 10
87.4237
 20
32.5057
  0
POINT
  8
2
 10
87.9633
 20
31.6479
  0
POLYLINE
  8
1
 66
1
 70
0
  0
VERTEX
  8
1
 10
87.9633
 20
31.6479
  0
VERTEX
  8
1
 10
87.6140
 20
31.2360
  0
VERTEX
  8
1
 10
87.3277
 20
30.7783
  0
VERTEX
  8
1
 10
87.1470
 20
30.3208
  0
VERTEX
  8
1
 10
87.0649
 20
29.8479
  0
VERTEX
  8
1
 10
87.0386
 20
29.3689
  0
VERTEX
  8
1
 10
87.0644
 20
28.7531
  0
VERTEX
  8
1
 10
87.0890
 20
28.2067
  0
VERTEX
  8
1
 10
87.0890
 20
28.2067
  0
VERTEX
  8
1
 10
87.1115
 20
27.7066
  0
SEQEND
  8
1
  0
POLYLINE
  8
84
 66
1
 70
0
  0
VERTEX
  8
84
 10
87.9633
 20
31.6479
  0
VERTEX
  8
84
 10
87.6140
 20
31.2360
  0
VERTEX
  8
84
 10
87.4616
 20
31.0128
  0
VERTEX
  8
84
 10
87.3277
 20
30.7783
  0
VERTEX
  8
84
 10
87.2265
 20
30.5538
  0
VERTEX
  8
84
 10
87.1470
 20
30.3208
  0
VERTEX
  8
84
 10
87.0967
 20
30.0862
  0
VERTEX
  8
84
 10
87.0649
 20
29.8479
  0
VERTEX
  8
84
 10
87.0455
 20
29.6088
  0
VERTEX
  8
84
 10
87.0386
 20
29.3689
  0
VERTEX
  8
84
 10
87.0644
 20
28.7531
  0
VERTEX
  8
84
 10
87.0890
 20
28.2067
  0
VERTEX
  8
84
 10
87.0890
 20
28.2067
  0
VERTEX
  8
84
 10
87.1115
 20
27.7066
  0
SEQEND
  8
84
  0
POINT
  8
2
 10
87.9633
 20
31.6479
  0
POINT
  8
3
 10
87.6140
 20
31.2360
  0
POINT
  8
3
 10
87.3277
 20
30.7783
  0
POINT
  8
3
 10
87.1470
 20
30.3208
  0
POINT
  8
3
 10
87.0649
 20
29.8479
  0
POINT
  8
3
 10
87.0386
 20
29.3689
  0
POINT
  8
3
 10
87.0644
 20
28.7531
  0
POINT
  8
2
 10
87.0890
 20
28.2067
  0
POINT
  8
4
 10
87.0890
 20
28.2067
 30
0.1181
 39
0.1771
 50
-174.5602
  0
POINT
  8
2
 10
87.0890
 20
28.2067
  0
POINT
  8
2
 10
87.1115
 20
27.7066
  0
LINE
  8
7
 10
64.0012
 20
32.3067
 11
80.0071
 21
32.3067
  0
LINE
  8
5
 10
64.0012
 20
32.3067
 11
80.0071
 21
32.3067
  0
POINT
  8
2
 10
64.0012
 20
32.3067
  0
POINT
  8
2
 10
80.0071
 20
32.3067
  0
LINE
  8
8
 10
69.1716
 20
35.1815
 11
69.1716
 21
28.1853
  0
POLYLINE
  8
85
 66
1
 70
0
  0
VERTEX
  8
85
 10
69.1716
 20
35.1815
  0
VERTEX
  8
85
 10
69.1716
 20
28.1853
  0
SEQEND
  8
85
  0
TEXT
  8
8
 10
69.1716
 20
35.1815
 40
0.250
 50
0.0000
  1
NM
  7
STANDARD
  0
TEXT
  8
85
 10
69.1716
 20
35.1815
 40
0.250
 50
0.0000
  1
NM
  7
STANDARD
  0
POINT
  8
2
 10
69.1716
 20
35.1815
  0
POINT
  8
2
 10
69.1716
 20
28.1853
  0
LINE
  8
8
 10
74.7574
 20
35.9280
 11
74.7574
 21
27.8988
  0
POLYLINE
  8
85
 66
1
 70
0
  0
VERTEX
  8
85
 10
74.7574
 20
35.9280
  0
VERTEX
  8
85
 10
74.7574
 20
27.8988
  0
SEQEND
  8
85
  0
TEXT
  8
8
 10
74.7574
 20
35.9280
 40
0.250
 50
0.0000
  1
NM
  7
STANDARD
  0
TEXT
  8
85
 10
74.7574
 20
35.9280
 40
0.250
 50
0.0000
  1
NM
  7
STANDARD
  0
POINT
  8
2
 10
74.7574
 20
35.9280
  0
POINT
  8
2
 10
74.7574
 20
27.8988
  0
LINE
  8
8
 10
84.7810
 20
36.9041
 11
84.7810
 21
27.9775
  0
POLYLINE
  8
85
 66
1
 70
0
  0
VERTEX
  8
85
 10
84.7810
 20
36.9041
  0
VERTEX
  8
85
 10
84.7810
 20
27.9775
  0
SEQEND
  8
85
  0
TEXT
  8
8
 10
84.7810
 20
36.9041
 40
0.250
 50
0.0000
  1
NM
  7
STANDARD
  0
TEXT
  8
85
 10
84.7810
 20
36.9041
 40
0.250
 50
0.0000
  1
NM
  7
STANDARD
  0
POINT
  8
2
 10
84.7810
 20
36.9041
  0
POINT
  8
2
 10
84.7810
 20
27.9775
  0
LINE
  8
8
 10
84.8169
 20
36.9133
 11
86.6963
 21
28.1693
  0
POLYLINE
  8
85
 66
1
 70
0
  0
VERTEX
  8
85
 10
84.8169
 20
36.9133
  0
VERTEX
  8
85
 10
86.6963
 20
28.1693
  0
SEQEND
  8
85
  0
TEXT
  8
8
 10
84.8169
 20
36.9133
 40
0.250
 50
0.0000
  1
NM
  7
STANDARD
  0
TEXT
  8
85
 10
84.8169
 20
36.9133
 40
0.250
 50
0.0000
  1
NM
  7
STANDARD
  0
POINT
  8
2
 10
84.8169
 20
36.9133
  0
POINT
  8
2
 10
86.6963
 20
28.1693
  0
LINE
  8
8
 10
79.6608
 20
36.4646
 11
79.6608
 21
27.6804
  0
POLYLINE
  8
85
 66
1
 70
0
  0
VERTEX
  8
85
 10
79.6608
 20
36.4646
  0
VERTEX
  8
85
 10
79.6608
 20
27.6804
  0
SEQEND
  8
85
  0
TEXT
  8
8
 10
79.6608
 20
36.4646
 40
0.250
 50
0.0000
  1
NM
  7
STANDARD
  0
TEXT
  8
85
 10
79.6608
 20
36.4646
 40
0.250
 50
0.0000
  1
NM
  7
STANDARD
  0
POINT
  8
2
 10
79.6608
 20
36.4646
  0
POINT
  8
2
 10
79.6608
 20
27.6804
  0
LINE
  8
10
 10
69.1568
 20
35.5166
 11
69.1568
 21
35.3145
  0
TEXT
  8
10
 10
69.1568
 20
35.5166
 40
0.250
 50
0.0000
  1
3
  7
STANDARD
  0
POINT
  8
2
 10
69.1568
 20
35.5166
  0
POINT
  8
2
 10
69.1568
 20
35.3145
  0
LINE
  8
9
 10
86.6964
 20
28.1678
 11
86.4773
 21
28.1678
  0
TEXT
  8
9
 10
86.6964
 20
28.1678
 40
0.250
 50
0.0000
  1
0
  7
STANDARD
  0
POINT
  8
2
 10
86.6964
 20
28.1678
  0
POINT
  8
2
 10
86.4773
 20
28.1678
  0
LINE
  8
8
 10
65.2820
 20
25.7537
 11
65.9744
 21
28.1698
  0
POLYLINE
  8
85
 66
1
 70
0
  0
VERTEX
  8
85
 10
65.2820
 20
25.7537
  0
VERTEX
  8
85
 10
65.9744
 20
28.1698
  0
SEQEND
  8
85
  0
TEXT
  8
8
 10
65.2820
 20
25.7537
 40
0.250
 50
0.0000
  1
NM
  7
STANDARD
  0
TEXT
  8
85
 10
65.2820
 20
25.7537
 40
0.250
 50
0.0000
  1
NM
  7
STANDARD
  0
POINT
  8
2
 10
65.2820
 20
25.7537
  0
POINT
  8
2
 10
65.9744
 20
28.1698
  0
LINE
  8
8
 10
65.9744
 20
28.1698
 11
70.2275
 21
28.1707
  0
POLYLINE
  8
85
 66
1
 70
0
  0
VERTEX
  8
85
 10
65.9744
 20
28.1698
  0
VERTEX
  8
85
 10
70.2275
 20
28.1707
  0
SEQEND
  8
85
  0
TEXT
  8
8
 10
65.9744
 20
28.1698
 40
0.250
 50
0.0000
  1
NM
  7
STANDARD
  0
TEXT
  8
85
 10
65.9744
 20
28.1698
 40
0.250
 50
0.0000
  1
NM
  7
STANDARD
  0
POINT
  8
2
 10
65.9744
 20
28.1698
  0
POINT
  8
2
 10
70.2275
 20
28.1707
  0
LINE
  8
8
 10
55.9500
 20
28.1723
 11
65.9744
 21
28.1698
  0
POLYLINE
  8
85
 66
1
 70
0
  0
VERTEX
  8
85
 10
55.9500
 20
28.1723
  0
VERTEX
  8
85
 10
65.9744
 20
28.1698
  0
SEQEND
  8
85
  0
TEXT
  8
8
 10
55.9500
 20
28.1723
 40
0.250
 50
0.0000
  1
NM
  7
STANDARD
  0
TEXT
  8
85
 10
55.9500
 20
28.1723
 40
0.250
 50
0.0000
  1
NM
  7
STANDARD
  0
POINT
  8
2
 10
55.9500
 20
28.1723
  0
POINT
  8
2
 10
65.9744
 20
28.1698
  0
ATTDEF
  8
14
 10
86.6957
 20
28.1890
 11
86.6966
 21
28.1693
 40
.25
  1
Link:4
  2
Dependency
  3

 70
2
 72
3
  0
ENDBLK
  0
BLOCK
  8
0
  2
BUY-388884-JF-SP26-SL-J-SH-05_40
 70
64
 10
0.0000
 20
0.0000
  0
TEXT
  8
1
 10
14.1978
 20
19.7593
 40
0.250
 50
0.0000
  1
Piece Name: BUY-388884-JF-SP26-SL-J-SH-05
  7
STANDARD
  0
TEXT
  8
1
 10
14.1978
 20
19.8993
 40
0.250
 50
0.0000
  1
Quantity: 1,0
  7
STANDARD
  0
TEXT
  8
1
 10
14.1978
 20
20.0393
 40
0.250
 50
0.0000
  1
ANNOTATION: TOP-SLV
  7
STANDARD
  0
TEXT
  8
1
 10
14.1978
 20
20.1793
 40
0.250
 50
0.0000
  1
CATEGORY: 5
  7
STANDARD
  0
TEXT
  8
1
 10
14.1978
 20
20.3193
 40
0.250
 50
0.0000
  1
SIZE: 40
  7
STANDARD
  0
TEXT
  8
15
 10
21.4022
 20
18.0620
 40
0.236
 50
0.0000
  1
Without Shoulder Pad
  7
STANDARD
  0
POLYLINE
  8
1
 66
1
 70
0
  0
VERTEX
  8
1
 10
25.9677
 20
14.9067
  0
VERTEX
  8
1
 10
24.9706
 20
14.8041
  0
VERTEX
  8
1
 10
23.6753
 20
14.6910
  0
VERTEX
  8
1
 10
22.3854
 20
14.6117
  0
VERTEX
  8
1
 10
21.1799
 20
14.5661
  0
VERTEX
  8
1
 10
20.2209
 20
14.5363
  0
VERTEX
  8
1
 10
19.8205
 20
14.5283
  0
VERTEX
  8
1
 10
18.8984
 20
14.5547
  0
VERTEX
  8
1
 10
17.9813
 20
14.5891
  0
VERTEX
  8
1
 10
17.0703
 20
14.6372
  0
VERTEX
  8
1
 10
16.1623
 20
14.7022
  0
VERTEX
  8
1
 10
15.2499
 20
14.7861
  0
VERTEX
  8
1
 10
14.3323
 20
14.8885
  0
VERTEX
  8
1
 10
13.4206
 20
15.0058
  0
VERTEX
  8
1
 10
12.5305
 20
15.1319
  0
VERTEX
  8
1
 10
11.1389
 20
15.3494
  0
VERTEX
  8
1
 10
9.9330
 20
15.5612
  0
VERTEX
  8
1
 10
9.9330
 20
15.5612
  0
VERTEX
  8
1
 10
8.3156
 20
15.9099
  0
VERTEX
  8
1
 10
6.8164
 20
16.2332
  0
SEQEND
  8
1
  0
POLYLINE
  8
84
 66
1
 70
0
  0
VERTEX
  8
84
 10
25.9677
 20
14.9067
  0
VERTEX
  8
84
 10
24.9706
 20
14.8041
  0
VERTEX
  8
84
 10
23.6753
 20
14.6910
  0
VERTEX
  8
84
 10
22.3854
 20
14.6117
  0
VERTEX
  8
84
 10
21.1799
 20
14.5661
  0
VERTEX
  8
84
 10
20.2209
 20
14.5363
  0
VERTEX
  8
84
 10
19.8205
 20
14.5283
  0
VERTEX
  8
84
 10
18.8984
 20
14.5547
  0
VERTEX
  8
84
 10
17.9813
 20
14.5891
  0
VERTEX
  8
84
 10
17.0703
 20
14.6372
  0
VERTEX
  8
84
 10
16.1623
 20
14.7022
  0
VERTEX
  8
84
 10
15.2499
 20
14.7861
  0
VERTEX
  8
84
 10
14.3323
 20
14.8885
  0
VERTEX
  8
84
 10
13.4206
 20
15.0058
  0
VERTEX
  8
84
 10
12.5305
 20
15.1319
  0
VERTEX
  8
84
 10
11.1389
 20
15.3494
  0
VERTEX
  8
84
 10
9.9330
 20
15.5612
  0
VERTEX
  8
84
 10
9.9330
 20
15.5612
  0
VERTEX
  8
84
 10
8.3156
 20
15.9099
  0
VERTEX
  8
84
 10
6.8164
 20
16.2332
  0
SEQEND
  8
84
  0
POINT
  8
2
 10
25.9677
 20
14.9067
  0
POINT
  8
3
 10
24.9706
 20
14.8041
  0
POINT
  8
3
 10
23.6753
 20
14.6910
  0
POINT
  8
3
 10
22.3854
 20
14.6117
  0
POINT
  8
3
 10
21.1799
 20
14.5661
  0
POINT
  8
3
 10
20.2209
 20
14.5363
  0
POINT
  8
4
 10
19.8205
 20
14.5283
 30
0.1181
 39
0.1771
  0
POINT
  8
3
 10
19.8205
 20
14.5283
  0
POINT
  8
3
 10
18.8984
 20
14.5547
  0
POINT
  8
3
 10
17.9813
 20
14.5891
  0
POINT
  8
3
 10
17.0703
 20
14.6372
  0
POINT
  8
3
 10
16.1623
 20
14.7022
  0
POINT
  8
3
 10
15.2499
 20
14.7861
  0
POINT
  8
3
 10
14.3323
 20
14.8885
  0
POINT
  8
3
 10
13.4206
 20
15.0058
  0
POINT
  8
3
 10
12.5305
 20
15.1319
  0
POINT
  8
3
 10
11.1389
 20
15.3494
  0
POINT
  8
3
 10
9.9330
 20
15.5612
  0
POINT
  8
4
 10
9.9330
 20
15.5612
 30
0.1181
 39
0.1771
  0
POINT
  8
2
 10
9.9330
 20
15.5612
  0
POINT
  8
3
 10
8.3156
 20
15.9099
  0
POINT
  8
2
 10
6.8164
 20
16.2332
  0
POLYLINE
  8
1
 66
1
 70
0
  0
VERTEX
  8
1
 10
6.8164
 20
16.2332
  0
VERTEX
  8
1
 10
6.2057
 20
15.1844
  0
SEQEND
  8
1
  0
POLYLINE
  8
84
 66
1
 70
0
  0
VERTEX
  8
84
 10
6.8164
 20
16.2332
  0
VERTEX
  8
84
 10
6.2057
 20
15.1844
  0
SEQEND
  8
84
  0
POINT
  8
2
 10
6.8164
 20
16.2332
  0
POINT
  8
2
 10
6.2057
 20
15.1844
  0
POLYLINE
  8
1
 66
1
 70
0
  0
VERTEX
  8
1
 10
6.2057
 20
15.1844
  0
VERTEX
  8
1
 10
1.9637
 20
16.1538
  0
VERTEX
  8
1
 10
0.0000
 20
16.6028
  0
SEQEND
  8
1
  0
POLYLINE
  8
84
 66
1
 70
0
  0
VERTEX
  8
84
 10
6.2057
 20
15.1844
  0
VERTEX
  8
84
 10
1.9637
 20
16.1538
  0
VERTEX
  8
84
 10
0.0000
 20
16.6028
  0
SEQEND
  8
84
  0
POINT
  8
2
 10
6.2057
 20
15.1844
  0
POINT
  8
4
 10
1.9637
 20
16.1538
 30
0.1181
 39
0.1771
  0
POINT
  8
3
 10
1.9637
 20
16.1538
  0
POINT
  8
2
 10
0.0000
 20
16.6028
  0
POLYLINE
  8
1
 66
1
 70
0
  0
VERTEX
  8
1
 10
0.0000
 20
16.6028
  0
VERTEX
  8
1
 10
0.1627
 20
18.1578
  0
VERTEX
  8
1
 10
0.8774
 20
24.9904
  0
SEQEND
  8
1
  0
POLYLINE
  8
84
 66
1
 70
0
  0
VERTEX
  8
84
 10
0.0000
 20
16.6028
  0
VERTEX
  8
84
 10
0.1627
 20
18.1578
  0
VERTEX
  8
84
 10
0.8774
 20
24.9904
  0
SEQEND
  8
84
  0
POINT
  8
2
 10
0.0000
 20
16.6028
  0
POINT
  8
4
 10
0.1627
 20
18.1578
 30
0.1181
 39
0.1771
  0
POINT
  8
3
 10
0.1627
 20
18.1578
  0
POINT
  8
2
 10
0.8774
 20
24.9904
  0
POLYLINE
  8
1
 66
1
 70
0
  0
VERTEX
  8
1
 10
0.8774
 20
24.9904
  0
VERTEX
  8
1
 10
2.8614
 20
24.7375
  0
VERTEX
  8
1
 10
2.8614
 20
24.7375
  0
VERTEX
  8
1
 10
4.8534
 20
24.5645
  0
VERTEX
  8
1
 10
6.8463
 20
24.4013
  0
VERTEX
  8
1
 10
6.8463
 20
24.4013
  0
VERTEX
  8
1
 10
8.2114
 20
24.3122
  0
VERTEX
  8
1
 10
9.6362
 20
24.2371
  0
VERTEX
  8
1
 10
11.3883
 20
24.1870
  0
VERTEX
  8
1
 10
12.7963
 20
24.1605
  0
VERTEX
  8
1
 10
13.9536
 20
24.1685
  0
VERTEX
  8
1
 10
15.1101
 20
24.1969
  0
VERTEX
  8
1
 10
16.3815
 20
24.2644
  0
VERTEX
  8
1
 10
17.6650
 20
24.3496
  0
VERTEX
  8
1
 10
17.6650
 20
24.3496
  0
VERTEX
  8
1
 10
21.1997
 20
24.6573
  0
SEQEND
  8
1
  0
POLYLINE
  8
84
 66
1
 70
0
  0
VERTEX
  8
84
 10
0.8774
 20
24.9904
  0
VERTEX
  8
84
 10
2.8614
 20
24.7375
  0
VERTEX
  8
84
 10
2.8614
 20
24.7375
  0
VERTEX
  8
84
 10
4.8534
 20
24.5645
  0
VERTEX
  8
84
 10
6.8463
 20
24.4013
  0
VERTEX
  8
84
 10
6.8463
 20
24.4013
  0
VERTEX
  8
84
 10
8.2114
 20
24.3122
  0
VERTEX
  8
84
 10
9.6362
 20
24.2371
  0
VERTEX
  8
84
 10
11.3883
 20
24.1870
  0
VERTEX
  8
84
 10
12.7963
 20
24.1605
  0
VERTEX
  8
84
 10
13.9536
 20
24.1685
  0
VERTEX
  8
84
 10
15.1101
 20
24.1969
  0
VERTEX
  8
84
 10
16.3815
 20
24.2644
  0
VERTEX
  8
84
 10
17.6650
 20
24.3496
  0
VERTEX
  8
84
 10
17.6650
 20
24.3496
  0
VERTEX
  8
84
 10
21.1997
 20
24.6573
  0
SEQEND
  8
84
  0
POINT
  8
2
 10
0.8774
 20
24.9904
  0
POINT
  8
2
 10
2.8614
 20
24.7375
  0
POINT
  8
4
 10
2.8614
 20
24.7375
 30
0.1181
 39
0.1771
 50
-98.2443
  0
POINT
  8
2
 10
2.8614
 20
24.7375
  0
POINT
  8
3
 10
4.8534
 20
24.5645
  0
POINT
  8
3
 10
6.8463
 20
24.4013
  0
POINT
  8
4
 10
6.8463
 20
24.4013
 30
0.1181
 39
0.1771
  0
POINT
  8
2
 10
6.8463
 20
24.4013
  0
POINT
  8
3
 10
8.2114
 20
24.3122
  0
POINT
  8
3
 10
9.6362
 20
24.2371
  0
POINT
  8
3
 10
11.3883
 20
24.1870
  0
POINT
  8
3
 10
12.7963
 20
24.1605
  0
POINT
  8
3
 10
13.9536
 20
24.1685
  0
POINT
  8
3
 10
15.1101
 20
24.1969
  0
POINT
  8
3
 10
16.3815
 20
24.2644
  0
POINT
  8
3
 10
17.6650
 20
24.3496
  0
POINT
  8
4
 10
17.6650
 20
24.3496
 30
0.1181
 39
0.1771
  0
POINT
  8
2
 10
17.6650
 20
24.3496
  0
POINT
  8
2
 10
21.1997
 20
24.6573
  0
POLYLINE
  8
1
 66
1
 70
0
  0
VERTEX
  8
1
 10
21.1997
 20
24.6573
  0
VERTEX
  8
1
 10
21.3546
 20
24.2390
  0
VERTEX
  8
1
 10
21.4544
 20
24.0335
  0
VERTEX
  8
1
 10
21.5553
 20
23.8639
  0
VERTEX
  8
1
 10
21.6812
 20
23.7103
  0
VERTEX
  8
1
 10
21.8068
 20
23.5918
  0
VERTEX
  8
1
 10
21.9354
 20
23.4958
  0
VERTEX
  8
1
 10
22.0745
 20
23.4108
  0
VERTEX
  8
1
 10
22.2432
 20
23.3263
  0
VERTEX
  8
1
 10
22.4312
 20
23.2526
  0
VERTEX
  8
1
 10
22.4312
 20
23.2526
  0
VERTEX
  8
1
 10
22.8479
 20
23.1012
  0
VERTEX
  8
1
 10
23.5302
 20
22.8511
  0
VERTEX
  8
1
 10
24.1919
 20
22.6123
  0
VERTEX
  8
1
 10
24.9718
 20
22.3004
  0
VERTEX
  8
1
 10
25.4881
 20
22.0806
  0
VERTEX
  8
1
 10
25.9932
 20
21.8460
  0
VERTEX
  8
1
 10
25.9932
 20
21.8460
  0
VERTEX
  8
1
 10
26.4245
 20
21.6074
  0
VERTEX
  8
1
 10
26.6868
 20
21.4543
  0
VERTEX
  8
1
 10
26.9368
 20
21.2915
  0
VERTEX
  8
1
 10
27.2095
 20
21.0888
  0
VERTEX
  8
1
 10
27.4616
 20
20.8659
  0
VERTEX
  8
1
 10
27.6929
 20
20.6154
  0
VERTEX
  8
1
 10
27.8968
 20
20.3447
  0
VERTEX
  8
1
 10
28.0531
 20
20.0789
  0
VERTEX
  8
1
 10
28.1804
 20
19.7989
  0
VERTEX
  8
1
 10
28.2680
 20
19.5288
  0
VERTEX
  8
1
 10
28.3314
 20
19.2504
  0
VERTEX
  8
1
 10
28.3781
 20
18.9594
  0
VERTEX
  8
1
 10
28.3956
 20
18.6656
  0
VERTEX
  8
1
 10
28.3829
 20
18.4391
  0
VERTEX
  8
1
 10
28.3829
 20
18.4391
  0
VERTEX
  8
1
 10
28.3512
 20
18.1936
  0
VERTEX
  8
1
 10
28.3040
 20
17.9614
  0
VERTEX
  8
1
 10
28.2411
 20
17.7373
  0
VERTEX
  8
1
 10
28.1250
 20
17.4529
  0
VERTEX
  8
1
 10
27.9835
 20
17.1740
  0
VERTEX
  8
1
 10
27.8165
 20
16.8942
  0
VERTEX
  8
1
 10
27.6320
 20
16.6247
  0
VERTEX
  8
1
 10
27.3336
 20
16.2582
  0
VERTEX
  8
1
 10
26.9985
 20
15.8906
  0
VERTEX
  8
1
 10
26.5755
 20
15.4683
  0
VERTEX
  8
1
 10
26.4517
 20
15.3538
  0
VERTEX
  8
1
 10
25.9677
 20
14.9067
  0
SEQEND
  8
1
  0
POLYLINE
  8
84
 66
1
 70
0
  0
VERTEX
  8
84
 10
21.1997
 20
24.6573
  0
VERTEX
  8
84
 10
21.3546
 20
24.2390
  0
VERTEX
  8
84
 10
21.4544
 20
24.0335
  0
VERTEX
  8
84
 10
21.5553
 20
23.8639
  0
VERTEX
  8
84
 10
21.6812
 20
23.7103
  0
VERTEX
  8
84
 10
21.8068
 20
23.5918
  0
VERTEX
  8
84
 10
21.9354
 20
23.4958
  0
VERTEX
  8
84
 10
22.0745
 20
23.4108
  0
VERTEX
  8
84
 10
22.2432
 20
23.3263
  0
VERTEX
  8
84
 10
22.4312
 20
23.2526
  0
VERTEX
  8
84
 10
22.4312
 20
23.2526
  0
VERTEX
  8
84
 10
22.8479
 20
23.1012
  0
VERTEX
  8
84
 10
23.5302
 20
22.8511
  0
VERTEX
  8
84
 10
24.1919
 20
22.6123
  0
VERTEX
  8
84
 10
24.9718
 20
22.3004
  0
VERTEX
  8
84
 10
25.4881
 20
22.0806
  0
VERTEX
  8
84
 10
25.9932
 20
21.8460
  0
VERTEX
  8
84
 10
25.9932
 20
21.8460
  0
VERTEX
  8
84
 10
26.4245
 20
21.6074
  0
VERTEX
  8
84
 10
26.6868
 20
21.4543
  0
VERTEX
  8
84
 10
26.9368
 20
21.2915
  0
VERTEX
  8
84
 10
27.2095
 20
21.0888
  0
VERTEX
  8
84
 10
27.4616
 20
20.8659
  0
VERTEX
  8
84
 10
27.6929
 20
20.6154
  0
VERTEX
  8
84
 10
27.8968
 20
20.3447
  0
VERTEX
  8
84
 10
28.0531
 20
20.0789
  0
VERTEX
  8
84
 10
28.1804
 20
19.7989
  0
VERTEX
  8
84
 10
28.2680
 20
19.5288
  0
VERTEX
  8
84
 10
28.3314
 20
19.2504
  0
VERTEX
  8
84
 10
28.3781
 20
18.9594
  0
VERTEX
  8
84
 10
28.3956
 20
18.6656
  0
VERTEX
  8
84
 10
28.3829
 20
18.4391
  0
VERTEX
  8
84
 10
28.3829
 20
18.4391
  0
VERTEX
  8
84
 10
28.3512
 20
18.1936
  0
VERTEX
  8
84
 10
28.3040
 20
17.9614
  0
VERTEX
  8
84
 10
28.2411
 20
17.7373
  0
VERTEX
  8
84
 10
28.1250
 20
17.4529
  0
VERTEX
  8
84
 10
27.9835
 20
17.1740
  0
VERTEX
  8
84
 10
27.8165
 20
16.8942
  0
VERTEX
  8
84
 10
27.6320
 20
16.6247
  0
VERTEX
  8
84
 10
27.3336
 20
16.2582
  0
VERTEX
  8
84
 10
26.9985
 20
15.8906
  0
VERTEX
  8
84
 10
26.5755
 20
15.4683
  0
VERTEX
  8
84
 10
26.4517
 20
15.3538
  0
VERTEX
  8
84
 10
25.9677
 20
14.9067
  0
SEQEND
  8
84
  0
POINT
  8
2
 10
21.1997
 20
24.6573
  0
POINT
  8
3
 10
21.3546
 20
24.2390
  0
POINT
  8
3
 10
21.4544
 20
24.0335
  0
POINT
  8
3
 10
21.5553
 20
23.8639
  0
POINT
  8
3
 10
21.6812
 20
23.7103
  0
POINT
  8
3
 10
21.8068
 20
23.5918
  0
POINT
  8
3
 10
21.9354
 20
23.4958
  0
POINT
  8
3
 10
22.0745
 20
23.4108
  0
POINT
  8
3
 10
22.2432
 20
23.3263
  0
POINT
  8
3
 10
22.4312
 20
23.2526
  0
POINT
  8
4
 10
22.4312
 20
23.2526
 30
0.1181
 39
0.1771
  0
POINT
  8
2
 10
22.4312
 20
23.2526
  0
POINT
  8
3
 10
22.8479
 20
23.1012
  0
POINT
  8
3
 10
23.5302
 20
22.8511
  0
POINT
  8
3
 10
24.1919
 20
22.6123
  0
POINT
  8
3
 10
24.9718
 20
22.3004
  0
POINT
  8
3
 10
25.4881
 20
22.0806
  0
POINT
  8
3
 10
25.9932
 20
21.8460
  0
POINT
  8
4
 10
25.9932
 20
21.8460
 30
0.1181
 39
0.1771
  0
POINT
  8
2
 10
25.9932
 20
21.8460
  0
POINT
  8
3
 10
26.4245
 20
21.6074
  0
POINT
  8
3
 10
26.6868
 20
21.4543
  0
POINT
  8
3
 10
26.9368
 20
21.2915
  0
POINT
  8
3
 10
27.2095
 20
21.0888
  0
POINT
  8
3
 10
27.4616
 20
20.8659
  0
POINT
  8
3
 10
27.6929
 20
20.6154
  0
POINT
  8
3
 10
27.8968
 20
20.3447
  0
POINT
  8
3
 10
28.0531
 20
20.0789
  0
POINT
  8
3
 10
28.1804
 20
19.7989
  0
POINT
  8
3
 10
28.2680
 20
19.5288
  0
POINT
  8
3
 10
28.3314
 20
19.2504
  0
POINT
  8
3
 10
28.3781
 20
18.9594
  0
POINT
  8
3
 10
28.3956
 20
18.6656
  0
POINT
  8
3
 10
28.3829
 20
18.4391
  0
POINT
  8
4
 10
28.3829
 20
18.4391
 30
0.1181
 39
0.1771
  0
POINT
  8
2
 10
28.3829
 20
18.4391
  0
POINT
  8
3
 10
28.3512
 20
18.1936
  0
POINT
  8
3
 10
28.3040
 20
17.9614
  0
POINT
  8
3
 10
28.2411
 20
17.7373
  0
POINT
  8
3
 10
28.1250
 20
17.4529
  0
POINT
  8
3
 10
27.9835
 20
17.1740
  0
POINT
  8
3
 10
27.8165
 20
16.8942
  0
POINT
  8
3
 10
27.6320
 20
16.6247
  0
POINT
  8
3
 10
27.3336
 20
16.2582
  0
POINT
  8
3
 10
26.9985
 20
15.8906
  0
POINT
  8
3
 10
26.5755
 20
15.4683
  0
POINT
  8
2
 10
26.4517
 20
15.3538
  0
POINT
  8
2
 10
25.9677
 20
14.9067
  0
LINE
  8
7
 10
9.3495
 20
20.0397
 11
18.8738
 21
20.0397
  0
LINE
  8
5
 10
9.3495
 20
20.0397
 11
18.8738
 21
20.0397
  0
POINT
  8
2
 10
9.3495
 20
20.0397
  0
POINT
  8
2
 10
18.8738
 20
20.0397
  0
LINE
  8
8
 10
19.8203
 20
24.1642
 11
19.8203
 21
14.9195
  0
POLYLINE
  8
85
 66
1
 70
0
  0
VERTEX
  8
85
 10
19.8203
 20
24.1642
  0
VERTEX
  8
85
 10
19.8203
 20
14.9195
  0
SEQEND
  8
85
  0
TEXT
  8
8
 10
19.8203
 20
24.1642
 40
0.250
 50
0.0000
  1
NM
  7
STANDARD
  0
TEXT
  8
85
 10
19.8203
 20
24.1642
 40
0.250
 50
0.0000
  1
NM
  7
STANDARD
  0
POINT
  8
2
 10
19.8203
 20
24.1642
  0
POINT
  8
2
 10
19.8203
 20
14.9195
  0
LINE
  8
8
 10
27.9907
 20
18.4755
 11
2.3076
 21
19.4416
  0
POLYLINE
  8
85
 66
1
 70
0
  0
VERTEX
  8
85
 10
27.9907
 20
18.4755
  0
VERTEX
  8
85
 10
2.3076
 20
19.4416
  0
SEQEND
  8
85
  0
TEXT
  8
8
 10
27.9907
 20
18.4755
 40
0.250
 50
0.0000
  1
NM
  7
STANDARD
  0
TEXT
  8
85
 10
27.9907
 20
18.4755
 40
0.250
 50
0.0000
  1
NM
  7
STANDARD
  0
POINT
  8
2
 10
27.9907
 20
18.4755
  0
POINT
  8
2
 10
2.3076
 20
19.4416
  0
POLYLINE
  8
11
 66
1
 70
0
  0
VERTEX
  8
11
 10
0.5191
 20
18.9155
  0
VERTEX
  8
11
 10
0.2450
 20
18.9442
  0
SEQEND
  8
11
  0
POLYLINE
  8
86
 66
1
 70
0
  0
VERTEX
  8
86
 10
0.5191
 20
18.9155
  0
VERTEX
  8
86
 10
0.2450
 20
18.9442
  0
SEQEND
  8
86
  0
POINT
  8
2
 10
0.5191
 20
18.9155
  0
POINT
  8
2
 10
0.2450
 20
18.9442
  0
LINE
  8
8
 10
2.1264
 20
17.7090
 11
2.8206
 21
24.3458
  0
POLYLINE
  8
85
 66
1
 70
0
  0
VERTEX
  8
85
 10
2.1264
 20
17.7090
  0
VERTEX
  8
85
 10
2.8206
 20
24.3458
  0
SEQEND
  8
85
  0
TEXT
  8
8
 10
2.1264
 20
17.7090
 40
0.250
 50
0.0000
  1
NM
  7
STANDARD
  0
TEXT
  8
85
 10
2.1264
 20
17.7090
 40
0.250
 50
0.0000
  1
NM
  7
STANDARD
  0
POINT
  8
2
 10
2.1264
 20
17.7090
  0
POINT
  8
2
 10
2.8206
 20
24.3458
  0
LINE
  8
8
 10
6.6219
 20
16.6814
 11
2.1264
 21
17.7090
  0
POLYLINE
  8
85
 66
1
 70
0
  0
VERTEX
  8
85
 10
6.6219
 20
16.6814
  0
VERTEX
  8
85
 10
2.1264
 20
17.7090
  0
SEQEND
  8
85
  0
TEXT
  8
8
 10
6.6219
 20
16.6814
 40
0.250
 50
0.0000
  1
NM
  7
STANDARD
  0
TEXT
  8
85
 10
6.6219
 20
16.6814
 40
0.250
 50
0.0000
  1
NM
  7
STANDARD
  0
POINT
  8
2
 10
6.6219
 20
16.6814
  0
POINT
  8
2
 10
2.1264
 20
17.7090
  0
LINE
  8
8
 10
6.7612
 20
17.2907
 11
2.2657
 21
18.3183
  0
POLYLINE
  8
85
 66
1
 70
0
  0
VERTEX
  8
85
 10
6.7612
 20
17.2907
  0
VERTEX
  8
85
 10
2.2657
 20
18.3183
  0
SEQEND
  8
85
  0
TEXT
  8
8
 10
6.7612
 20
17.2907
 40
0.250
 50
0.0000
  1
NM
  7
STANDARD
  0
TEXT
  8
85
 10
6.7612
 20
17.2907
 40
0.250
 50
0.0000
  1
NM
  7
STANDARD
  0
POINT
  8
2
 10
6.7612
 20
17.2907
  0
POINT
  8
2
 10
2.2657
 20
18.3183
  0
LINE
  8
8
 10
6.9005
 20
17.9001
 11
2.4048
 21
18.9276
  0
POLYLINE
  8
85
 66
1
 70
0
  0
VERTEX
  8
85
 10
6.9005
 20
17.9001
  0
VERTEX
  8
85
 10
2.4048
 20
18.9276
  0
SEQEND
  8
85
  0
TEXT
  8
8
 10
6.9005
 20
17.9001
 40
0.250
 50
0.0000
  1
NM
  7
STANDARD
  0
TEXT
  8
85
 10
6.9005
 20
17.9001
 40
0.250
 50
0.0000
  1
NM
  7
STANDARD
  0
POINT
  8
2
 10
6.9005
 20
17.9001
  0
POINT
  8
2
 10
2.4048
 20
18.9276
  0
LINE
  8
8
 10
3.6648
 20
17.9984
 11
3.7303
 21
18.6247
  0
POLYLINE
  8
85
 66
1
 70
0
  0
VERTEX
  8
85
 10
3.6648
 20
17.9984
  0
VERTEX
  8
85
 10
3.7303
 20
18.6247
  0
SEQEND
  8
85
  0
TEXT
  8
8
 10
3.6648
 20
17.9984
 40
0.250
 50
0.0000
  1
NM
  7
STANDARD
  0
TEXT
  8
85
 10
3.6648
 20
17.9984
 40
0.250
 50
0.0000
  1
NM
  7
STANDARD
  0
POINT
  8
2
 10
3.6648
 20
17.9984
  0
POINT
  8
2
 10
3.7303
 20
18.6247
  0
LINE
  8
8
 10
4.2834
 20
17.8571
 11
4.3489
 21
18.4832
  0
POLYLINE
  8
85
 66
1
 70
0
  0
VERTEX
  8
85
 10
4.2834
 20
17.8571
  0
VERTEX
  8
85
 10
4.3489
 20
18.4832
  0
SEQEND
  8
85
  0
TEXT
  8
8
 10
4.2834
 20
17.8571
 40
0.250
 50
0.0000
  1
NM
  7
STANDARD
  0
TEXT
  8
85
 10
4.2834
 20
17.8571
 40
0.250
 50
0.0000
  1
NM
  7
STANDARD
  0
POINT
  8
2
 10
4.2834
 20
17.8571
  0
POINT
  8
2
 10
4.3489
 20
18.4832
  0
LINE
  8
8
 10
4.9020
 20
17.7157
 11
4.9675
 21
18.3419
  0
POLYLINE
  8
85
 66
1
 70
0
  0
VERTEX
  8
85
 10
4.9020
 20
17.7157
  0
VERTEX
  8
85
 10
4.9675
 20
18.3419
  0
SEQEND
  8
85
  0
TEXT
  8
8
 10
4.9020
 20
17.7157
 40
0.250
 50
0.0000
  1
NM
  7
STANDARD
  0
TEXT
  8
85
 10
4.9020
 20
17.7157
 40
0.250
 50
0.0000
  1
NM
  7
STANDARD
  0
POINT
  8
2
 10
4.9020
 20
17.7157
  0
POINT
  8
2
 10
4.9675
 20
18.3419
  0
LINE
  8
8
 10
5.5206
 20
17.5744
 11
5.5860
 21
18.2005
  0
POLYLINE
  8
85
 66
1
 70
0
  0
VERTEX
  8
85
 10
5.5206
 20
17.5744
  0
VERTEX
  8
85
 10
5.5860
 20
18.2005
  0
SEQEND
  8
85
  0
TEXT
  8
8
 10
5.5206
 20
17.5744
 40
0.250
 50
0.0000
  1
NM
  7
STANDARD
  0
TEXT
  8
85
 10
5.5206
 20
17.5744
 40
0.250
 50
0.0000
  1
NM
  7
STANDARD
  0
POINT
  8
2
 10
5.5206
 20
17.5744
  0
POINT
  8
2
 10
5.5860
 20
18.2005
  0
LINE
  8
10
 10
22.3974
 20
23.0806
 11
22.3974
 21
22.7298
  0
TEXT
  8
10
 10
22.3974
 20
23.0806
 40
0.250
 50
0.0000
  1
5
  7
STANDARD
  0
POINT
  8
2
 10
22.3974
 20
23.0806
  0
POINT
  8
2
 10
22.3974
 20
22.7298
  0
LINE
  8
10
 10
19.8205
 20
14.6189
 11
19.8205
 21
14.8122
  0
TEXT
  8
10
 10
19.8205
 20
14.6189
 40
0.250
 50
0.0000
  1
4
  7
STANDARD
  0
POINT
  8
2
 10
19.8205
 20
14.6189
  0
POINT
  8
2
 10
19.8205
 20
14.8122
  0
ENDBLK
  0
BLOCK
  8
0
  2
BUY-388884-JF-SP26-SL-J-SH-04_40
 70
64
 10
0.0000
 20
0.0000
  0
TEXT
  8
1
 10
42.2094
 20
21.3045
 40
0.250
 50
0.0000
  1
Piece Name: BUY-388884-JF-SP26-SL-J-SH-04
  7
STANDARD
  0
TEXT
  8
1
 10
42.2094
 20
21.4445
 40
0.250
 50
0.0000
  1
Quantity: 1,0
  7
STANDARD
  0
TEXT
  8
1
 10
42.2094
 20
21.5845
 40
0.250
 50
0.0000
  1
ANNOTATION: UNDER SLV
  7
STANDARD
  0
TEXT
  8
1
 10
42.2094
 20
21.7245
 40
0.250
 50
0.0000
  1
CATEGORY: 4
  7
STANDARD
  0
TEXT
  8
1
 10
42.2094
 20
21.8645
 40
0.250
 50
0.0000
  1
SIZE: 40
  7
STANDARD
  0
POLYLINE
  8
1
 66
1
 70
0
  0
VERTEX
  8
1
 10
55.5233
 20
24.1007
  0
VERTEX
  8
1
 10
54.7085
 20
23.7669
  0
VERTEX
  8
1
 10
53.7485
 20
23.3672
  0
VERTEX
  8
1
 10
53.0522
 20
23.0693
  0
VERTEX
  8
1
 10
52.5911
 20
22.8484
  0
VERTEX
  8
1
 10
52.1011
 20
22.6049
  0
VERTEX
  8
1
 10
51.7302
 20
22.3984
  0
VERTEX
  8
1
 10
51.2361
 20
22.0708
  0
VERTEX
  8
1
 10
51.0408
 20
21.9134
  0
VERTEX
  8
1
 10
50.8566
 20
21.7454
  0
VERTEX
  8
1
 10
50.6257
 20
21.4834
  0
VERTEX
  8
1
 10
50.4556
 20
21.2361
  0
VERTEX
  8
1
 10
50.2154
 20
20.7956
  0
VERTEX
  8
1
 10
50.1175
 20
20.5542
  0
VERTEX
  8
1
 10
50.0395
 20
20.2883
  0
VERTEX
  8
1
 10
49.9877
 20
20.0002
  0
VERTEX
  8
1
 10
49.9877
 20
20.0002
  0
VERTEX
  8
1
 10
49.9540
 20
19.6041
  0
VERTEX
  8
1
 10
49.9513
 20
19.2781
  0
VERTEX
  8
1
 10
49.9615
 20
18.9517
  0
VERTEX
  8
1
 10
49.9926
 20
18.6619
  0
VERTEX
  8
1
 10
50.0664
 20
18.1387
  0
VERTEX
  8
1
 10
49.9302
 20
17.7757
  0
SEQEND
  8
1
  0
POLYLINE
  8
84
 66
1
 70
0
  0
VERTEX
  8
84
 10
55.5233
 20
24.1007
  0
VERTEX
  8
84
 10
54.7085
 20
23.7669
  0
VERTEX
  8
84
 10
53.7485
 20
23.3672
  0
VERTEX
  8
84
 10
53.0522
 20
23.0693
  0
VERTEX
  8
84
 10
52.5911
 20
22.8484
  0
VERTEX
  8
84
 10
52.1011
 20
22.6049
  0
VERTEX
  8
84
 10
51.7302
 20
22.3984
  0
VERTEX
  8
84
 10
51.4797
 20
22.2398
  0
VERTEX
  8
84
 10
51.2361
 20
22.0708
  0
VERTEX
  8
84
 10
51.0408
 20
21.9134
  0
VERTEX
  8
84
 10
50.8566
 20
21.7454
  0
VERTEX
  8
84
 10
50.6257
 20
21.4834
  0
VERTEX
  8
84
 10
50.4556
 20
21.2361
  0
VERTEX
  8
84
 10
50.3296
 20
21.0190
  0
VERTEX
  8
84
 10
50.2154
 20
20.7956
  0
VERTEX
  8
84
 10
50.1175
 20
20.5542
  0
VERTEX
  8
84
 10
50.0395
 20
20.2883
  0
VERTEX
  8
84
 10
49.9877
 20
20.0002
  0
VERTEX
  8
84
 10
49.9877
 20
20.0002
  0
VERTEX
  8
84
 10
49.9540
 20
19.6041
  0
VERTEX
  8
84
 10
49.9513
 20
19.2781
  0
VERTEX
  8
84
 10
49.9615
 20
18.9517
  0
VERTEX
  8
84
 10
49.9926
 20
18.6619
  0
VERTEX
  8
84
 10
50.0664
 20
18.1387
  0
VERTEX
  8
84
 10
49.9302
 20
17.7757
  0
SEQEND
  8
84
  0
POINT
  8
2
 10
55.5233
 20
24.1007
  0
POINT
  8
3
 10
54.7085
 20
23.7669
  0
POINT
  8
3
 10
53.7485
 20
23.3672
  0
POINT
  8
3
 10
53.0522
 20
23.0693
  0
POINT
  8
4
 10
52.5911
 20
22.8484
 30
0.1181
 39
0.1771
  0
POINT
  8
2
 10
52.5911
 20
22.8484
  0
POINT
  8
3
 10
52.1011
 20
22.6049
  0
POINT
  8
3
 10
51.7302
 20
22.3984
  0
POINT
  8
3
 10
51.2361
 20
22.0708
  0
POINT
  8
3
 10
51.0408
 20
21.9134
  0
POINT
  8
3
 10
50.8566
 20
21.7454
  0
POINT
  8
3
 10
50.6257
 20
21.4834
  0
POINT
  8
3
 10
50.4556
 20
21.2361
  0
POINT
  8
3
 10
50.2154
 20
20.7956
  0
POINT
  8
3
 10
50.1175
 20
20.5542
  0
POINT
  8
3
 10
50.0395
 20
20.2883
  0
POINT
  8
3
 10
49.9877
 20
20.0002
  0
POINT
  8
4
 10
49.9877
 20
20.0002
 30
0.1181
 39
0.1771
  0
POINT
  8
2
 10
49.9877
 20
20.0002
  0
POINT
  8
3
 10
49.9540
 20
19.6041
  0
POINT
  8
3
 10
49.9513
 20
19.2781
  0
POINT
  8
3
 10
49.9615
 20
18.9517
  0
POINT
  8
3
 10
49.9926
 20
18.6619
  0
POINT
  8
2
 10
50.0664
 20
18.1387
  0
POINT
  8
2
 10
49.9302
 20
17.7757
  0
POLYLINE
  8
1
 66
1
 70
0
  0
VERTEX
  8
1
 10
49.9302
 20
17.7757
  0
VERTEX
  8
1
 10
48.2177
 20
17.9242
  0
VERTEX
  8
1
 10
46.3976
 20
18.1057
  0
VERTEX
  8
1
 10
46.3976
 20
18.1057
  0
VERTEX
  8
1
 10
45.0561
 20
18.2108
  0
VERTEX
  8
1
 10
43.7934
 20
18.2910
  0
VERTEX
  8
1
 10
42.6444
 20
18.3309
  0
VERTEX
  8
1
 10
41.4946
 20
18.3505
  0
VERTEX
  8
1
 10
40.0949
 20
18.3382
  0
VERTEX
  8
1
 10
38.3517
 20
18.3035
  0
VERTEX
  8
1
 10
36.9348
 20
18.2429
  0
VERTEX
  8
1
 10
35.4610
 20
18.1592
  0
VERTEX
  8
1
 10
35.4610
 20
18.1592
  0
VERTEX
  8
1
 10
33.5843
 20
18.0252
  0
VERTEX
  8
1
 10
31.4734
 20
17.8598
  0
VERTEX
  8
1
 10
31.4734
 20
17.8598
  0
VERTEX
  8
1
 10
29.4875
 20
17.6187
  0
SEQEND
  8
1
  0
POLYLINE
  8
84
 66
1
 70
0
  0
VERTEX
  8
84
 10
49.9302
 20
17.7757
  0
VERTEX
  8
84
 10
48.2177
 20
17.9242
  0
VERTEX
  8
84
 10
46.3976
 20
18.1057
  0
VERTEX
  8
84
 10
46.3976
 20
18.1057
  0
VERTEX
  8
84
 10
45.0561
 20
18.2108
  0
VERTEX
  8
84
 10
43.7934
 20
18.2910
  0
VERTEX
  8
84
 10
42.6444
 20
18.3309
  0
VERTEX
  8
84
 10
41.4946
 20
18.3505
  0
VERTEX
  8
84
 10
40.0949
 20
18.3382
  0
VERTEX
  8
84
 10
38.3517
 20
18.3035
  0
VERTEX
  8
84
 10
36.9348
 20
18.2429
  0
VERTEX
  8
84
 10
35.4610
 20
18.1592
  0
VERTEX
  8
84
 10
35.4610
 20
18.1592
  0
VERTEX
  8
84
 10
33.5843
 20
18.0252
  0
VERTEX
  8
84
 10
31.4734
 20
17.8598
  0
VERTEX
  8
84
 10
31.4734
 20
17.8598
  0
VERTEX
  8
84
 10
29.4875
 20
17.6187
  0
SEQEND
  8
84
  0
POINT
  8
2
 10
49.9302
 20
17.7757
  0
POINT
  8
3
 10
48.2177
 20
17.9242
  0
POINT
  8
3
 10
46.3976
 20
18.1057
  0
POINT
  8
4
 10
46.3976
 20
18.1057
 30
0.1181
 39
0.1771
  0
POINT
  8
2
 10
46.3976
 20
18.1057
  0
POINT
  8
3
 10
45.0561
 20
18.2108
  0
POINT
  8
3
 10
43.7934
 20
18.2910
  0
POINT
  8
3
 10
42.6444
 20
18.3309
  0
POINT
  8
3
 10
41.4946
 20
18.3505
  0
POINT
  8
3
 10
40.0949
 20
18.3382
  0
POINT
  8
3
 10
38.3517
 20
18.3035
  0
POINT
  8
3
 10
36.9348
 20
18.2429
  0
POINT
  8
3
 10
35.4610
 20
18.1592
  0
POINT
  8
4
 10
35.4610
 20
18.1592
 30
0.1181
 39
0.1771
  0
POINT
  8
2
 10
35.4610
 20
18.1592
  0
POINT
  8
3
 10
33.5843
 20
18.0252
  0
POINT
  8
2
 10
31.4734
 20
17.8598
  0
POINT
  8
4
 10
31.4734
 20
17.8598
 30
0.1181
 39
0.1771
 50
97.8392
  0
POINT
  8
2
 10
31.4734
 20
17.8598
  0
POINT
  8
2
 10
29.4875
 20
17.6187
  0
POLYLINE
  8
1
 66
1
 70
0
  0
VERTEX
  8
1
 10
29.4875
 20
17.6187
  0
VERTEX
  8
1
 10
28.8955
 20
23.5133
  0
SEQEND
  8
1
  0
POLYLINE
  8
84
 66
1
 70
0
  0
VERTEX
  8
84
 10
29.4875
 20
17.6187
  0
VERTEX
  8
84
 10
28.8955
 20
23.5133
  0
SEQEND
  8
84
  0
POINT
  8
2
 10
29.4875
 20
17.6187
  0
POINT
  8
2
 10
28.8955
 20
23.5133
  0
POLYLINE
  8
1
 66
1
 70
0
  0
VERTEX
  8
1
 10
28.8955
 20
23.5133
  0
VERTEX
  8
1
 10
30.9123
 20
23.4829
  0
VERTEX
  8
1
 10
30.9123
 20
23.4829
  0
VERTEX
  8
1
 10
35.1612
 20
24.4215
  0
SEQEND
  8
1
  0
POLYLINE
  8
84
 66
1
 70
0
  0
VERTEX
  8
84
 10
28.8955
 20
23.5133
  0
VERTEX
  8
84
 10
30.9123
 20
23.4829
  0
VERTEX
  8
84
 10
30.9123
 20
23.4829
  0
VERTEX
  8
84
 10
35.1612
 20
24.4215
  0
SEQEND
  8
84
  0
POINT
  8
2
 10
28.8955
 20
23.5133
  0
POINT
  8
2
 10
30.9123
 20
23.4829
  0
POINT
  8
4
 10
30.9123
 20
23.4829
 30
0.1181
 39
0.1771
  0
POINT
  8
2
 10
30.9123
 20
23.4829
  0
POINT
  8
2
 10
35.1612
 20
24.4215
  0
POLYLINE
  8
1
 66
1
 70
0
  0
VERTEX
  8
1
 10
35.1612
 20
24.4215
  0
VERTEX
  8
1
 10
35.7643
 20
23.3684
  0
SEQEND
  8
1
  0
POLYLINE
  8
84
 66
1
 70
0
  0
VERTEX
  8
84
 10
35.1612
 20
24.4215
  0
VERTEX
  8
84
 10
35.7643
 20
23.3684
  0
SEQEND
  8
84
  0
POINT
  8
2
 10
35.1612
 20
24.4215
  0
POINT
  8
2
 10
35.7643
 20
23.3684
  0
POLYLINE
  8
1
 66
1
 70
0
  0
VERTEX
  8
1
 10
35.7643
 20
23.3684
  0
VERTEX
  8
1
 10
37.2658
 20
23.6807
  0
VERTEX
  8
1
 10
38.8857
 20
24.0178
  0
VERTEX
  8
1
 10
38.8857
 20
24.0178
  0
VERTEX
  8
1
 10
40.3497
 20
24.2869
  0
VERTEX
  8
1
 10
41.5145
 20
24.4726
  0
VERTEX
  8
1
 10
42.5973
 20
24.6225
  0
VERTEX
  8
1
 10
43.6195
 20
24.7447
  0
VERTEX
  8
1
 10
44.6190
 20
24.8489
  0
VERTEX
  8
1
 10
45.6294
 20
24.9248
  0
VERTEX
  8
1
 10
46.6913
 20
24.9732
  0
VERTEX
  8
1
 10
47.8503
 20
24.9904
  0
VERTEX
  8
1
 10
48.7805
 20
24.9883
  0
VERTEX
  8
1
 10
49.1808
 20
24.9824
  0
VERTEX
  8
1
 10
50.1399
 20
24.9576
  0
VERTEX
  8
1
 10
51.3452
 20
24.9118
  0
VERTEX
  8
1
 10
52.6347
 20
24.8324
  0
VERTEX
  8
1
 10
53.9293
 20
24.7194
  0
VERTEX
  8
1
 10
54.9327
 20
24.6134
  0
SEQEND
  8
1
  0
POLYLINE
  8
84
 66
1
 70
0
  0
VERTEX
  8
84
 10
35.7643
 20
23.3684
  0
VERTEX
  8
84
 10
37.2658
 20
23.6807
  0
VERTEX
  8
84
 10
38.8857
 20
24.0178
  0
VERTEX
  8
84
 10
38.8857
 20
24.0178
  0
VERTEX
  8
84
 10
40.3497
 20
24.2869
  0
VERTEX
  8
84
 10
41.5145
 20
24.4726
  0
VERTEX
  8
84
 10
42.5973
 20
24.6225
  0
VERTEX
  8
84
 10
43.6195
 20
24.7447
  0
VERTEX
  8
84
 10
44.6190
 20
24.8489
  0
VERTEX
  8
84
 10
45.6294
 20
24.9248
  0
VERTEX
  8
84
 10
46.6913
 20
24.9732
  0
VERTEX
  8
84
 10
47.8503
 20
24.9904
  0
VERTEX
  8
84
 10
48.7805
 20
24.9883
  0
VERTEX
  8
84
 10
49.1808
 20
24.9824
  0
VERTEX
  8
84
 10
50.1399
 20
24.9576
  0
VERTEX
  8
84
 10
51.3452
 20
24.9118
  0
VERTEX
  8
84
 10
52.6347
 20
24.8324
  0
VERTEX
  8
84
 10
53.9293
 20
24.7194
  0
VERTEX
  8
84
 10
54.9327
 20
24.6134
  0
SEQEND
  8
84
  0
POINT
  8
2
 10
35.7643
 20
23.3684
  0
POINT
  8
3
 10
37.2658
 20
23.6807
  0
POINT
  8
3
 10
38.8857
 20
24.0178
  0
POINT
  8
4
 10
38.8857
 20
24.0178
 30
0.1181
 39
0.1771
  0
POINT
  8
2
 10
38.8857
 20
24.0178
  0
POINT
  8
3
 10
40.3497
 20
24.2869
  0
POINT
  8
3
 10
41.5145
 20
24.4726
  0
POINT
  8
3
 10
42.5973
 20
24.6225
  0
POINT
  8
3
 10
43.6195
 20
24.7447
  0
POINT
  8
3
 10
44.6190
 20
24.8489
  0
POINT
  8
3
 10
45.6294
 20
24.9248
  0
POINT
  8
3
 10
46.6913
 20
24.9732
  0
POINT
  8
3
 10
47.8503
 20
24.9904
  0
POINT
  8
4
 10
48.7805
 20
24.9883
 30
0.1181
 39
0.1771
  0
POINT
  8
3
 10
48.7805
 20
24.9883
  0
POINT
  8
3
 10
49.1808
 20
24.9824
  0
POINT
  8
3
 10
50.1399
 20
24.9576
  0
POINT
  8
3
 10
51.3452
 20
24.9118
  0
POINT
  8
3
 10
52.6347
 20
24.8324
  0
POINT
  8
3
 10
53.9293
 20
24.7194
  0
POINT
  8
2
 10
54.9327
 20
24.6134
  0
POLYLINE
  8
1
 66
1
 70
0
  0
VERTEX
  8
1
 10
54.9327
 20
24.6134
  0
VERTEX
  8
1
 10
55.5233
 20
24.1007
  0
SEQEND
  8
1
  0
POLYLINE
  8
84
 66
1
 70
0
  0
VERTEX
  8
84
 10
54.9327
 20
24.6134
  0
VERTEX
  8
84
 10
55.5233
 20
24.1007
  0
SEQEND
  8
84
  0
POINT
  8
2
 10
54.9327
 20
24.6134
  0
POINT
  8
2
 10
55.5233
 20
24.1007
  0
LINE
  8
7
 10
39.4756
 20
21.1313
 11
47.7379
 21
21.1313
  0
LINE
  8
5
 10
39.4756
 20
21.1313
 11
47.7379
 21
21.1313
  0
POINT
  8
2
 10
39.4756
 20
21.1313
  0
POINT
  8
2
 10
47.7379
 20
21.1313
  0
LINE
  8
8
 10
48.5507
 20
18.2687
 11
48.5507
 21
24.5370
  0
POLYLINE
  8
85
 66
1
 70
0
  0
VERTEX
  8
85
 10
48.5507
 20
18.2687
  0
VERTEX
  8
85
 10
48.5507
 20
24.5370
  0
SEQEND
  8
85
  0
TEXT
  8
8
 10
48.5507
 20
18.2687
 40
0.250
 50
0.0000
  1
NM
  7
STANDARD
  0
TEXT
  8
85
 10
48.5507
 20
18.2687
 40
0.250
 50
0.0000
  1
NM
  7
STANDARD
  0
POINT
  8
2
 10
48.5507
 20
18.2687
  0
POINT
  8
2
 10
48.5507
 20
24.5370
  0
LINE
  8
8
 10
31.4344
 20
18.2515
 11
31.0675
 21
21.9280
  0
POLYLINE
  8
85
 66
1
 70
0
  0
VERTEX
  8
85
 10
31.4344
 20
18.2515
  0
VERTEX
  8
85
 10
31.0675
 20
21.9280
  0
SEQEND
  8
85
  0
TEXT
  8
8
 10
31.4344
 20
18.2515
 40
0.250
 50
0.0000
  1
NM
  7
STANDARD
  0
TEXT
  8
85
 10
31.4344
 20
18.2515
 40
0.250
 50
0.0000
  1
NM
  7
STANDARD
  0
POINT
  8
2
 10
31.4344
 20
18.2515
  0
POINT
  8
2
 10
31.0675
 20
21.9280
  0
LINE
  8
8
 10
35.5647
 20
22.9066
 11
31.0675
 21
21.9280
  0
POLYLINE
  8
85
 66
1
 70
0
  0
VERTEX
  8
85
 10
35.5647
 20
22.9066
  0
VERTEX
  8
85
 10
31.0675
 20
21.9280
  0
SEQEND
  8
85
  0
TEXT
  8
8
 10
35.5647
 20
22.9066
 40
0.250
 50
0.0000
  1
NM
  7
STANDARD
  0
TEXT
  8
85
 10
35.5647
 20
22.9066
 40
0.250
 50
0.0000
  1
NM
  7
STANDARD
  0
POINT
  8
2
 10
35.5647
 20
22.9066
  0
POINT
  8
2
 10
31.0675
 20
21.9280
  0
LINE
  8
10
 10
48.7806
 20
24.8339
 11
48.7806
 21
24.6792
  0
TEXT
  8
10
 10
48.7806
 20
24.8339
 40
0.250
 50
0.0000
  1
4
  7
STANDARD
  0
POINT
  8
2
 10
48.7806
 20
24.8339
  0
POINT
  8
2
 10
48.7806
 20
24.6792
  0
ENDBLK
  0
BLOCK
  8
0
  2
BUY-388884-JF-SP26-SL-J-SH-06_40
 70
64
 10
0.0000
 20
0.0000
  0
TEXT
  8
1
 10
72.0913
 20
20.6446
 40
0.250
 50
0.0000
  1
Piece Name: BUY-388884-JF-SP26-SL-J-SH-06
  7
STANDARD
  0
TEXT
  8
1
 10
72.0913
 20
20.7846
 40
0.250
 50
0.0000
  1
Quantity: 1,0
  7
STANDARD
  0
TEXT
  8
1
 10
72.0913
 20
20.9246
 40
0.250
 50
0.0000
  1
ANNOTATION: FRONT
  7
STANDARD
  0
TEXT
  8
1
 10
72.0913
 20
21.0646
 40
0.250
 50
0.0000
  1
CATEGORY: 4-4
  7
STANDARD
  0
TEXT
  8
1
 10
72.0913
 20
21.2046
 40
0.250
 50
0.0000
  1
SIZE: 40
  7
STANDARD
  0
TEXT
  8
1
 10
79.9188
 20
23.8710
 40
0.250
 50
0.0000
  1
.F
  7
STANDARD
  0
TEXT
  8
1
 10
85.9045
 20
22.7009
 40
0.250
 50
0.0000
  1
.F
  7
STANDARD
  0
POLYLINE
  8
1
 66
1
 70
0
  0
VERTEX
  8
1
 10
56.0993
 20
19.2208
  0
VERTEX
  8
1
 10
56.0234
 20
20.2377
  0
SEQEND
  8
1
  0
POLYLINE
  8
84
 66
1
 70
0
  0
VERTEX
  8
84
 10
56.0993
 20
19.2208
  0
VERTEX
  8
84
 10
56.0234
 20
20.2377
  0
SEQEND
  8
84
  0
POINT
  8
2
 10
56.0993
 20
19.2208
  0
POINT
  8
2
 10
56.0234
 20
20.2377
  0
POLYLINE
  8
1
 66
1
 70
0
  0
VERTEX
  8
1
 10
56.0234
 20
20.2377
  0
VERTEX
  8
1
 10
56.4501
 20
20.2294
  0
SEQEND
  8
1
  0
POLYLINE
  8
84
 66
1
 70
0
  0
VERTEX
  8
84
 10
56.0234
 20
20.2377
  0
VERTEX
  8
84
 10
56.4501
 20
20.2294
  0
SEQEND
  8
84
  0
POINT
  8
2
 10
56.0234
 20
20.2377
  0
POINT
  8
2
 10
56.4501
 20
20.2294
  0
POLYLINE
  8
1
 66
1
 70
0
  0
VERTEX
  8
1
 10
56.4501
 20
20.2294
  0
VERTEX
  8
1
 10
56.5936
 20
21.4684
  0
VERTEX
  8
1
 10
57.1547
 20
22.4801
  0
VERTEX
  8
1
 10
57.7524
 20
23.0506
  0
VERTEX
  8
1
 10
58.4571
 20
23.5099
  0
VERTEX
  8
1
 10
59.9602
 20
24.0958
  0
VERTEX
  8
1
 10
61.6446
 20
24.4660
  0
VERTEX
  8
1
 10
62.7645
 20
24.6384
  0
VERTEX
  8
1
 10
62.9351
 20
24.6596
  0
VERTEX
  8
1
 10
64.0306
 20
24.7640
  0
VERTEX
  8
1
 10
65.0250
 20
24.8216
  0
VERTEX
  8
1
 10
65.9373
 20
24.8345
  0
VERTEX
  8
1
 10
68.3086
 20
24.8309
  0
VERTEX
  8
1
 10
68.3874
 20
24.8307
  0
VERTEX
  8
1
 10
68.9092
 20
24.8448
  0
VERTEX
  8
1
 10
69.2954
 20
24.8445
  0
VERTEX
  8
1
 10
69.6205
 20
24.8593
  0
VERTEX
  8
1
 10
69.9035
 20
24.8811
  0
VERTEX
  8
1
 10
70.3561
 20
24.9454
  0
VERTEX
  8
1
 10
70.6359
 20
24.9786
  0
VERTEX
  8
1
 10
70.9296
 20
24.9904
  0
VERTEX
  8
1
 10
71.2013
 20
24.9870
  0
VERTEX
  8
1
 10
71.4453
 20
24.9800
  0
VERTEX
  8
1
 10
71.7379
 20
24.9692
  0
VERTEX
  8
1
 10
72.3276
 20
24.9443
  0
VERTEX
  8
1
 10
72.4062
 20
24.9399
  0
VERTEX
  8
1
 10
73.6788
 20
24.8622
  0
VERTEX
  8
1
 10
75.5475
 20
24.6455
  0
VERTEX
  8
1
 10
77.4609
 20
24.3096
  0
VERTEX
  8
1
 10
79.9188
 20
23.8710
  0
VERTEX
  8
1
 10
82.5775
 20
23.3703
  0
VERTEX
  8
1
 10
83.8897
 20
23.1063
  0
VERTEX
  8
1
 10
85.9045
 20
22.7009
  0
SEQEND
  8
1
  0
POLYLINE
  8
84
 66
1
 70
0
  0
VERTEX
  8
84
 10
56.4501
 20
20.2294
  0
VERTEX
  8
84
 10
56.4926
 20
20.8552
  0
VERTEX
  8
84
 10
56.5299
 20
21.1645
  0
VERTEX
  8
84
 10
56.5936
 20
21.4684
  0
VERTEX
  8
84
 10
56.6982
 20
21.7385
  0
VERTEX
  8
84
 10
56.8308
 20
21.9970
  0
VERTEX
  8
84
 10
56.9831
 20
22.2450
  0
VERTEX
  8
84
 10
57.1547
 20
22.4801
  0
VERTEX
  8
84
 10
57.2901
 20
22.6360
  0
VERTEX
  8
84
 10
57.4360
 20
22.7826
  0
VERTEX
  8
84
 10
57.7524
 20
23.0506
  0
VERTEX
  8
84
 10
58.0938
 20
23.2971
  0
VERTEX
  8
84
 10
58.4571
 20
23.5099
  0
VERTEX
  8
84
 10
58.8220
 20
23.6820
  0
VERTEX
  8
84
 10
59.1952
 20
23.8358
  0
VERTEX
  8
84
 10
59.5749
 20
23.9739
  0
VERTEX
  8
84
 10
59.9602
 20
24.0958
  0
VERTEX
  8
84
 10
60.3767
 20
24.2066
  0
VERTEX
  8
84
 10
60.7969
 20
24.3033
  0
VERTEX
  8
84
 10
61.6446
 20
24.4660
  0
VERTEX
  8
84
 10
62.2035
 20
24.5585
  0
VERTEX
  8
84
 10
62.7645
 20
24.6384
  0
VERTEX
  8
84
 10
62.9351
 20
24.6596
  0
VERTEX
  8
84
 10
64.0306
 20
24.7640
  0
VERTEX
  8
84
 10
65.0250
 20
24.8216
  0
VERTEX
  8
84
 10
65.9373
 20
24.8345
  0
VERTEX
  8
84
 10
68.3086
 20
24.8309
  0
VERTEX
  8
84
 10
68.3874
 20
24.8307
  0
VERTEX
  8
84
 10
68.9092
 20
24.8448
  0
VERTEX
  8
84
 10
69.2954
 20
24.8445
  0
VERTEX
  8
84
 10
69.6205
 20
24.8593
  0
VERTEX
  8
84
 10
69.9035
 20
24.8811
  0
VERTEX
  8
84
 10
70.3561
 20
24.9454
  0
VERTEX
  8
84
 10
70.6359
 20
24.9786
  0
VERTEX
  8
84
 10
70.9296
 20
24.9904
  0
VERTEX
  8
84
 10
71.2013
 20
24.9870
  0
VERTEX
  8
84
 10
71.4453
 20
24.9800
  0
VERTEX
  8
84
 10
71.7379
 20
24.9692
  0
VERTEX
  8
84
 10
72.3276
 20
24.9443
  0
VERTEX
  8
84
 10
72.4062
 20
24.9399
  0
VERTEX
  8
84
 10
73.6788
 20
24.8622
  0
VERTEX
  8
84
 10
74.6146
 20
24.7667
  0
VERTEX
  8
84
 10
75.5475
 20
24.6455
  0
VERTEX
  8
84
 10
76.5053
 20
24.4847
  0
VERTEX
  8
84
 10
77.4609
 20
24.3096
  0
VERTEX
  8
84
 10
79.9188
 20
23.8710
  0
VERTEX
  8
84
 10
82.5775
 20
23.3703
  0
VERTEX
  8
84
 10
83.8897
 20
23.1063
  0
VERTEX
  8
84
 10
85.9045
 20
22.7009
  0
SEQEND
  8
84
  0
POINT
  8
2
 10
56.4501
 20
20.2294
  0
POINT
  8
3
 10
56.5936
 20
21.4684
  0
POINT
  8
3
 10
57.1547
 20
22.4801
  0
POINT
  8
3
 10
57.7524
 20
23.0506
  0
POINT
  8
3
 10
58.4571
 20
23.5099
  0
POINT
  8
3
 10
59.9602
 20
24.0958
  0
POINT
  8
3
 10
61.6446
 20
24.4660
  0
POINT
  8
4
 10
62.7645
 20
24.6384
 30
0.1181
 39
0.1771
  0
POINT
  8
3
 10
62.7645
 20
24.6384
  0
POINT
  8
3
 10
62.9351
 20
24.6596
  0
POINT
  8
3
 10
64.0306
 20
24.7640
  0
POINT
  8
3
 10
65.0250
 20
24.8216
  0
POINT
  8
2
 10
65.9373
 20
24.8345
  0
POINT
  8
4
 10
68.3086
 20
24.8309
 30
0.1181
 39
0.1771
  0
POINT
  8
3
 10
68.3086
 20
24.8309
  0
POINT
  8
3
 10
68.3874
 20
24.8307
  0
POINT
  8
3
 10
68.9092
 20
24.8448
  0
POINT
  8
3
 10
69.2954
 20
24.8445
  0
POINT
  8
3
 10
69.6205
 20
24.8593
  0
POINT
  8
3
 10
69.9035
 20
24.8811
  0
POINT
  8
4
 10
70.3561
 20
24.9454
 30
0.1181
 39
0.1771
  0
POINT
  8
2
 10
70.3561
 20
24.9454
  0
POINT
  8
3
 10
70.6359
 20
24.9786
  0
POINT
  8
2
 10
70.9296
 20
24.9904
  0
POINT
  8
3
 10
71.2013
 20
24.9870
  0
POINT
  8
3
 10
71.4453
 20
24.9800
  0
POINT
  8
3
 10
71.7379
 20
24.9692
  0
POINT
  8
3
 10
72.3276
 20
24.9443
  0
POINT
  8
4
 10
72.4062
 20
24.9399
 30
0.1181
 39
0.1771
  0
POINT
  8
3
 10
72.4062
 20
24.9399
  0
POINT
  8
3
 10
73.6788
 20
24.8622
  0
POINT
  8
3
 10
75.5475
 20
24.6455
  0
POINT
  8
3
 10
77.4609
 20
24.3096
  0
POINT
  8
3
 10
79.9188
 20
23.8710
  0
POINT
  8
2
 10
82.5775
 20
23.3703
  0
POINT
  8
4
 10
83.8897
 20
23.1063
 30
0.1181
 39
0.1771
  0
POINT
  8
3
 10
83.8897
 20
23.1063
  0
POINT
  8
2
 10
85.9045
 20
22.7009
  0
POLYLINE
  8
1
 66
1
 70
0
  0
VERTEX
  8
1
 10
85.9045
 20
22.7009
  0
VERTEX
  8
1
 10
85.8922
 20
21.3214
  0
VERTEX
  8
1
 10
85.8922
 20
21.3214
  0
VERTEX
  8
1
 10
86.2677
 20
19.0264
  0
SEQEND
  8
1
  0
POLYLINE
  8
84
 66
1
 70
0
  0
VERTEX
  8
84
 10
85.9045
 20
22.7009
  0
VERTEX
  8
84
 10
85.8922
 20
21.3214
  0
VERTEX
  8
84
 10
85.8922
 20
21.3214
  0
VERTEX
  8
84
 10
86.2677
 20
19.0264
  0
SEQEND
  8
84
  0
POINT
  8
2
 10
85.9045
 20
22.7009
  0
POINT
  8
2
 10
85.8922
 20
21.3214
  0
POINT
  8
4
 10
85.8922
 20
21.3214
 30
0.1181
 39
0.1771
  0
POINT
  8
2
 10
85.8922
 20
21.3214
  0
POINT
  8
2
 10
86.2677
 20
19.0264
  0
POLYLINE
  8
1
 66
1
 70
0
  0
VERTEX
  8
1
 10
86.2677
 20
19.0264
  0
VERTEX
  8
1
 10
87.3626
 20
18.7652
  0
SEQEND
  8
1
  0
POLYLINE
  8
84
 66
1
 70
0
  0
VERTEX
  8
84
 10
86.2677
 20
19.0264
  0
VERTEX
  8
84
 10
87.3626
 20
18.7652
  0
SEQEND
  8
84
  0
POINT
  8
2
 10
86.2677
 20
19.0264
  0
POINT
  8
2
 10
87.3626
 20
18.7652
  0
POLYLINE
  8
1
 66
1
 70
0
  0
VERTEX
  8
1
 10
87.3626
 20
18.7652
  0
VERTEX
  8
1
 10
87.4862
 20
18.7526
  0
VERTEX
  8
1
 10
87.6131
 20
18.7572
  0
VERTEX
  8
1
 10
87.8342
 20
18.7651
  0
VERTEX
  8
1
 10
87.9884
 20
18.7830
  0
VERTEX
  8
1
 10
88.1593
 20
18.8028
  0
SEQEND
  8
1
  0
POLYLINE
  8
84
 66
1
 70
0
  0
VERTEX
  8
84
 10
87.3626
 20
18.7652
  0
VERTEX
  8
84
 10
87.4862
 20
18.7526
  0
VERTEX
  8
84
 10
87.6131
 20
18.7572
  0
VERTEX
  8
84
 10
87.8342
 20
18.7651
  0
VERTEX
  8
84
 10
87.9884
 20
18.7830
  0
VERTEX
  8
84
 10
88.1593
 20
18.8028
  0
SEQEND
  8
84
  0
POINT
  8
2
 10
87.3626
 20
18.7652
  0
POINT
  8
3
 10
87.4862
 20
18.7526
  0
POINT
  8
2
 10
87.6131
 20
18.7572
  0
POINT
  8
3
 10
87.8342
 20
18.7651
  0
POINT
  8
3
 10
87.9884
 20
18.7830
  0
POINT
  8
2
 10
88.1593
 20
18.8028
  0
POLYLINE
  8
1
 66
1
 70
0
  0
VERTEX
  8
1
 10
88.1593
 20
18.8028
  0
VERTEX
  8
1
 10
87.2147
 20
16.2989
  0
SEQEND
  8
1
  0
POLYLINE
  8
84
 66
1
 70
0
  0
VERTEX
  8
84
 10
88.1593
 20
18.8028
  0
VERTEX
  8
84
 10
87.2147
 20
16.2989
  0
SEQEND
  8
84
  0
POINT
  8
2
 10
88.1593
 20
18.8028
  0
POINT
  8
2
 10
87.2147
 20
16.2989
  0
POLYLINE
  8
1
 66
1
 70
0
  0
VERTEX
  8
1
 10
87.2147
 20
16.2989
  0
VERTEX
  8
1
 10
85.2076
 20
17.0222
  0
VERTEX
  8
1
 10
83.6643
 20
17.5653
  0
VERTEX
  8
1
 10
82.3557
 20
17.9837
  0
VERTEX
  8
1
 10
81.1644
 20
18.3630
  0
VERTEX
  8
1
 10
80.4116
 20
18.5929
  0
VERTEX
  8
1
 10
79.7133
 20
18.7890
  0
VERTEX
  8
1
 10
78.9387
 20
18.9891
  0
VERTEX
  8
1
 10
78.1029
 20
19.1886
  0
VERTEX
  8
1
 10
76.9851
 20
19.4310
  0
VERTEX
  8
1
 10
75.7699
 20
19.6279
  0
VERTEX
  8
1
 10
75.1440
 20
19.7154
  0
VERTEX
  8
1
 10
74.2762
 20
19.8001
  0
VERTEX
  8
1
 10
73.2674
 20
19.8640
  0
VERTEX
  8
1
 10
71.8782
 20
19.9349
  0
VERTEX
  8
1
 10
70.4486
 20
19.9590
  0
VERTEX
  8
1
 10
68.7327
 20
19.9868
  0
VERTEX
  8
1
 10
66.9143
 20
19.9429
  0
VERTEX
  8
1
 10
65.2774
 20
19.9030
  0
VERTEX
  8
1
 10
63.8987
 20
19.8669
  0
VERTEX
  8
1
 10
62.5420
 20
19.8005
  0
VERTEX
  8
1
 10
61.1865
 20
19.7123
  0
VERTEX
  8
1
 10
59.8045
 20
19.5938
  0
VERTEX
  8
1
 10
58.4249
 20
19.4622
  0
VERTEX
  8
1
 10
56.0993
 20
19.2208
  0
SEQEND
  8
1
  0
POLYLINE
  8
84
 66
1
 70
0
  0
VERTEX
  8
84
 10
87.2147
 20
16.2989
  0
VERTEX
  8
84
 10
85.2076
 20
17.0222
  0
VERTEX
  8
84
 10
83.6643
 20
17.5653
  0
VERTEX
  8
84
 10
82.3557
 20
17.9837
  0
VERTEX
  8
84
 10
81.1644
 20
18.3630
  0
VERTEX
  8
84
 10
80.4116
 20
18.5929
  0
VERTEX
  8
84
 10
79.7133
 20
18.7890
  0
VERTEX
  8
84
 10
78.9387
 20
18.9891
  0
VERTEX
  8
84
 10
78.1029
 20
19.1886
  0
VERTEX
  8
84
 10
76.9851
 20
19.4310
  0
VERTEX
  8
84
 10
75.7699
 20
19.6279
  0
VERTEX
  8
84
 10
75.1440
 20
19.7154
  0
VERTEX
  8
84
 10
74.2762
 20
19.8001
  0
VERTEX
  8
84
 10
73.2674
 20
19.8640
  0
VERTEX
  8
84
 10
71.8782
 20
19.9349
  0
VERTEX
  8
84
 10
70.4486
 20
19.9590
  0
VERTEX
  8
84
 10
68.7327
 20
19.9868
  0
VERTEX
  8
84
 10
66.9143
 20
19.9429
  0
VERTEX
  8
84
 10
65.2774
 20
19.9030
  0
VERTEX
  8
84
 10
63.8987
 20
19.8669
  0
VERTEX
  8
84
 10
62.5420
 20
19.8005
  0
VERTEX
  8
84
 10
61.1865
 20
19.7123
  0
VERTEX
  8
84
 10
59.8045
 20
19.5938
  0
VERTEX
  8
84
 10
58.4249
 20
19.4622
  0
VERTEX
  8
84
 10
56.0993
 20
19.2208
  0
SEQEND
  8
84
  0
POINT
  8
2
 10
87.2147
 20
16.2989
  0
POINT
  8
3
 10
85.2076
 20
17.0222
  0
POINT
  8
4
 10
83.6643
 20
17.5653
 30
0.1181
 39
0.1771
  0
POINT
  8
3
 10
83.6643
 20
17.5653
  0
POINT
  8
3
 10
82.3557
 20
17.9837
  0
POINT
  8
3
 10
81.1644
 20
18.3630
  0
POINT
  8
3
 10
80.4116
 20
18.5929
  0
POINT
  8
3
 10
79.7133
 20
18.7890
  0
POINT
  8
3
 10
78.9387
 20
18.9891
  0
POINT
  8
3
 10
78.1029
 20
19.1886
  0
POINT
  8
3
 10
76.9851
 20
19.4310
  0
POINT
  8
3
 10
75.7699
 20
19.6279
  0
POINT
  8
3
 10
75.1440
 20
19.7154
  0
POINT
  8
4
 10
74.2762
 20
19.8001
 30
0.1181
 39
0.1771
  0
POINT
  8
3
 10
74.2762
 20
19.8001
  0
POINT
  8
3
 10
73.2674
 20
19.8640
  0
POINT
  8
3
 10
71.8782
 20
19.9349
  0
POINT
  8
3
 10
70.4486
 20
19.9590
  0
POINT
  8
3
 10
68.7327
 20
19.9868
  0
POINT
  8
3
 10
66.9143
 20
19.9429
  0
POINT
  8
4
 10
65.2774
 20
19.9030
 30
0.1181
 39
0.1771
  0
POINT
  8
2
 10
65.2774
 20
19.9030
  0
POINT
  8
3
 10
63.8987
 20
19.8669
  0
POINT
  8
3
 10
62.5420
 20
19.8005
  0
POINT
  8
3
 10
61.1865
 20
19.7123
  0
POINT
  8
3
 10
59.8045
 20
19.5938
  0
POINT
  8
3
 10
58.4249
 20
19.4622
  0
POINT
  8
2
 10
56.0993
 20
19.2208
  0
LINE
  8
7
 10
64.9614
 20
20.6790
 11
71.7402
 21
20.6790
  0
LINE
  8
5
 10
64.9614
 20
20.6790
 11
71.7402
 21
20.6790
  0
POINT
  8
2
 10
64.9614
 20
20.6790
  0
POINT
  8
2
 10
71.7402
 20
20.6790
  0
ENDBLK
  0
BLOCK
  8
0
  2
BUY-388884-JF-SP26-SL-J-SH-07_40
 70
64
 10
0.0000
 20
0.0000
  0
TEXT
  8
1
 10
1.7149
 20
8.0482
 40
0.250
 50
0.0000
  1
Piece Name: BUY-388884-JF-SP26-SL-J-SH-07
  7
STANDARD
  0
TEXT
  8
1
 10
1.7149
 20
8.1882
 40
0.250
 50
0.0000
  1
Quantity: 1,0
  7
STANDARD
  0
TEXT
  8
1
 10
1.7149
 20
8.3282
 40
0.250
 50
0.0000
  1
ANNOTATION: COLLAR FELT CUT-2
  7
STANDARD
  0
TEXT
  8
1
 10
1.7149
 20
8.4682
 40
0.250
 50
0.0000
  1
CATEGORY: 64
  7
STANDARD
  0
TEXT
  8
1
 10
1.7149
 20
8.6082
 40
0.250
 50
0.0000
  1
SIZE: 40
  7
STANDARD
  0
POLYLINE
  8
1
 66
1
 70
0
  0
VERTEX
  8
1
 10
0.0000
 20
2.7787
  0
VERTEX
  8
1
 10
0.2659
 20
3.7266
  0
VERTEX
  8
1
 10
0.4473
 20
4.4941
  0
VERTEX
  8
1
 10
0.6037
 20
5.2396
  0
VERTEX
  8
1
 10
0.6970
 20
5.8220
  0
VERTEX
  8
1
 10
0.7533
 20
6.3091
  0
VERTEX
  8
1
 10
0.7930
 20
6.7231
  0
VERTEX
  8
1
 10
0.8131
 20
7.3194
  0
VERTEX
  8
1
 10
0.8241
 20
8.0482
  0
VERTEX
  8
1
 10
0.8131
 20
8.7771
  0
VERTEX
  8
1
 10
0.7930
 20
9.3734
  0
VERTEX
  8
1
 10
0.7533
 20
9.7875
  0
VERTEX
  8
1
 10
0.6970
 20
10.2745
  0
VERTEX
  8
1
 10
0.6037
 20
10.8568
  0
VERTEX
  8
1
 10
0.4473
 20
11.6024
  0
VERTEX
  8
1
 10
0.2659
 20
12.3699
  0
VERTEX
  8
1
 10
0.0000
 20
13.3179
  0
SEQEND
  8
1
  0
POLYLINE
  8
84
 66
1
 70
0
  0
VERTEX
  8
84
 10
0.0000
 20
2.7787
  0
VERTEX
  8
84
 10
0.2659
 20
3.7266
  0
VERTEX
  8
84
 10
0.4473
 20
4.4941
  0
VERTEX
  8
84
 10
0.6037
 20
5.2396
  0
VERTEX
  8
84
 10
0.6970
 20
5.8220
  0
VERTEX
  8
84
 10
0.7533
 20
6.3091
  0
VERTEX
  8
84
 10
0.7930
 20
6.7231
  0
VERTEX
  8
84
 10
0.8131
 20
7.3194
  0
VERTEX
  8
84
 10
0.8241
 20
8.0482
  0
VERTEX
  8
84
 10
0.8131
 20
8.7771
  0
VERTEX
  8
84
 10
0.7930
 20
9.3734
  0
VERTEX
  8
84
 10
0.7533
 20
9.7875
  0
VERTEX
  8
84
 10
0.6970
 20
10.2745
  0
VERTEX
  8
84
 10
0.6037
 20
10.8568
  0
VERTEX
  8
84
 10
0.4473
 20
11.6024
  0
VERTEX
  8
84
 10
0.2659
 20
12.3699
  0
VERTEX
  8
84
 10
0.0000
 20
13.3179
  0
SEQEND
  8
84
  0
POINT
  8
2
 10
0.0000
 20
2.7787
  0
POINT
  8
4
 10
0.2659
 20
3.7266
 30
0.1181
 39
0.0000
  0
POINT
  8
3
 10
0.2659
 20
3.7266
  0
POINT
  8
3
 10
0.4473
 20
4.4941
  0
POINT
  8
3
 10
0.6037
 20
5.2396
  0
POINT
  8
3
 10
0.6970
 20
5.8220
  0
POINT
  8
3
 10
0.7533
 20
6.3091
  0
POINT
  8
4
 10
0.7930
 20
6.7231
 30
0.1181
 39
0.0000
  0
POINT
  8
3
 10
0.7930
 20
6.7231
  0
POINT
  8
3
 10
0.8131
 20
7.3194
  0
POINT
  8
4
 10
0.8241
 20
8.0482
 30
0.1181
 39
0.0000
  0
POINT
  8
2
 10
0.8241
 20
8.0482
  0
POINT
  8
3
 10
0.8131
 20
8.7771
  0
POINT
  8
4
 10
0.7930
 20
9.3734
 30
0.1181
 39
0.0000
  0
POINT
  8
3
 10
0.7930
 20
9.3734
  0
POINT
  8
3
 10
0.7533
 20
9.7875
  0
POINT
  8
3
 10
0.6970
 20
10.2745
  0
POINT
  8
3
 10
0.6037
 20
10.8568
  0
POINT
  8
3
 10
0.4473
 20
11.6024
  0
POINT
  8
4
 10
0.2659
 20
12.3699
 30
0.1181
 39
0.0000
  0
POINT
  8
3
 10
0.2659
 20
12.3699
  0
POINT
  8
2
 10
0.0000
 20
13.3179
  0
POLYLINE
  8
1
 66
1
 70
0
  0
VERTEX
  8
1
 10
0.0000
 20
13.3179
  0
VERTEX
  8
1
 10
1.3741
 20
14.8061
  0
VERTEX
  8
1
 10
1.3741
 20
14.8061
  0
VERTEX
  8
1
 10
1.5927
 20
15.0428
  0
SEQEND
  8
1
  0
POLYLINE
  8
84
 66
1
 70
0
  0
VERTEX
  8
84
 10
0.0000
 20
13.3179
  0
VERTEX
  8
84
 10
1.3741
 20
14.8061
  0
VERTEX
  8
84
 10
1.3741
 20
14.8061
  0
VERTEX
  8
84
 10
1.5927
 20
15.0428
  0
SEQEND
  8
84
  0
POINT
  8
2
 10
0.0000
 20
13.3179
  0
POINT
  8
2
 10
1.3741
 20
14.8061
  0
POINT
  8
4
 10
1.3741
 20
14.8061
 30
0.1181
 39
0.0000
 50
-30.5324
  0
POINT
  8
2
 10
1.3741
 20
14.8061
  0
POINT
  8
2
 10
1.5927
 20
15.0428
  0
POLYLINE
  8
1
 66
1
 70
0
  0
VERTEX
  8
1
 10
1.5927
 20
15.0428
  0
VERTEX
  8
1
 10
1.7950
 20
14.9236
  0
VERTEX
  8
1
 10
2.8159
 20
14.3216
  0
SEQEND
  8
1
  0
POLYLINE
  8
84
 66
1
 70
0
  0
VERTEX
  8
84
 10
1.5927
 20
15.0428
  0
VERTEX
  8
84
 10
1.7950
 20
14.9236
  0
VERTEX
  8
84
 10
2.8159
 20
14.3216
  0
SEQEND
  8
84
  0
POINT
  8
2
 10
1.5927
 20
15.0428
  0
POINT
  8
3
 10
1.7950
 20
14.9236
  0
POINT
  8
2
 10
2.8159
 20
14.3216
  0
POLYLINE
  8
1
 66
1
 70
0
  0
VERTEX
  8
1
 10
2.8159
 20
14.3216
  0
VERTEX
  8
1
 10
2.8534
 20
13.9671
  0
VERTEX
  8
1
 10
2.8942
 20
13.5807
  0
VERTEX
  8
1
 10
2.9561
 20
13.0655
  0
VERTEX
  8
1
 10
3.0721
 20
12.2792
  0
VERTEX
  8
1
 10
3.2163
 20
11.3470
  0
VERTEX
  8
1
 10
3.3502
 20
10.2123
  0
VERTEX
  8
1
 10
3.3981
 20
9.3913
  0
VERTEX
  8
1
 10
3.4167
 20
8.7910
  0
VERTEX
  8
1
 10
3.4298
 20
8.0482
  0
VERTEX
  8
1
 10
3.4167
 20
7.3055
  0
VERTEX
  8
1
 10
3.3981
 20
6.7054
  0
VERTEX
  8
1
 10
3.3502
 20
5.8845
  0
VERTEX
  8
1
 10
3.2328
 20
4.7472
  0
VERTEX
  8
1
 10
3.0841
 20
3.8152
  0
VERTEX
  8
1
 10
2.9642
 20
3.0298
  0
VERTEX
  8
1
 10
2.8998
 20
2.5151
  0
VERTEX
  8
1
 10
2.8572
 20
2.1290
  0
VERTEX
  8
1
 10
2.8161
 20
1.7752
  0
SEQEND
  8
1
  0
POLYLINE
  8
84
 66
1
 70
0
  0
VERTEX
  8
84
 10
2.8159
 20
14.3216
  0
VERTEX
  8
84
 10
2.8534
 20
13.9671
  0
VERTEX
  8
84
 10
2.8942
 20
13.5807
  0
VERTEX
  8
84
 10
2.9561
 20
13.0655
  0
VERTEX
  8
84
 10
3.0721
 20
12.2792
  0
VERTEX
  8
84
 10
3.2163
 20
11.3470
  0
VERTEX
  8
84
 10
3.2899
 20
10.7804
  0
VERTEX
  8
84
 10
3.3502
 20
10.2123
  0
VERTEX
  8
84
 10
3.3981
 20
9.3913
  0
VERTEX
  8
84
 10
3.4167
 20
8.7910
  0
VERTEX
  8
84
 10
3.4298
 20
8.0482
  0
VERTEX
  8
84
 10
3.4167
 20
7.3055
  0
VERTEX
  8
84
 10
3.3981
 20
6.7054
  0
VERTEX
  8
84
 10
3.3502
 20
5.8845
  0
VERTEX
  8
84
 10
3.2985
 20
5.3152
  0
VERTEX
  8
84
 10
3.2328
 20
4.7472
  0
VERTEX
  8
84
 10
3.0841
 20
3.8152
  0
VERTEX
  8
84
 10
2.9642
 20
3.0298
  0
VERTEX
  8
84
 10
2.8998
 20
2.5151
  0
VERTEX
  8
84
 10
2.8572
 20
2.1290
  0
VERTEX
  8
84
 10
2.8161
 20
1.7752
  0
SEQEND
  8
84
  0
POINT
  8
2
 10
2.8159
 20
14.3216
  0
POINT
  8
4
 10
2.8534
 20
13.9671
 30
0.1181
 39
0.0000
 50
148.3602
  0
POINT
  8
3
 10
2.8534
 20
13.9671
  0
POINT
  8
3
 10
2.8942
 20
13.5807
  0
POINT
  8
3
 10
2.9561
 20
13.0655
  0
POINT
  8
4
 10
3.0721
 20
12.2792
 30
0.1181
 39
0.0000
  0
POINT
  8
2
 10
3.0721
 20
12.2792
  0
POINT
  8
3
 10
3.2163
 20
11.3470
  0
POINT
  8
3
 10
3.3502
 20
10.2123
  0
POINT
  8
4
 10
3.3981
 20
9.3913
 30
0.1181
 39
0.0000
  0
POINT
  8
3
 10
3.3981
 20
9.3913
  0
POINT
  8
3
 10
3.4167
 20
8.7910
  0
POINT
  8
4
 10
3.4298
 20
8.0482
 30
0.1181
 39
0.0000
  0
POINT
  8
2
 10
3.4298
 20
8.0482
  0
POINT
  8
3
 10
3.4167
 20
7.3055
  0
POINT
  8
4
 10
3.3981
 20
6.7054
 30
0.1181
 39
0.0000
  0
POINT
  8
3
 10
3.3981
 20
6.7054
  0
POINT
  8
3
 10
3.3502
 20
5.8845
  0
POINT
  8
3
 10
3.2328
 20
4.7472
  0
POINT
  8
4
 10
3.0841
 20
3.8152
 30
0.1181
 39
0.0000
  0
POINT
  8
2
 10
3.0841
 20
3.8152
  0
POINT
  8
3
 10
2.9642
 20
3.0298
  0
POINT
  8
3
 10
2.8998
 20
2.5151
  0
POINT
  8
4
 10
2.8572
 20
2.1290
 30
0.1181
 39
0.0000
 50
-148.8564
  0
POINT
  8
3
 10
2.8572
 20
2.1290
  0
POINT
  8
2
 10
2.8161
 20
1.7752
  0
POLYLINE
  8
1
 66
1
 70
0
  0
VERTEX
  8
1
 10
2.8161
 20
1.7752
  0
VERTEX
  8
1
 10
1.5927
 20
1.0537
  0
SEQEND
  8
1
  0
POLYLINE
  8
84
 66
1
 70
0
  0
VERTEX
  8
84
 10
2.8161
 20
1.7752
  0
VERTEX
  8
84
 10
1.5927
 20
1.0537
  0
SEQEND
  8
84
  0
POINT
  8
2
 10
2.8161
 20
1.7752
  0
POINT
  8
2
 10
1.5927
 20
1.0537
  0
POLYLINE
  8
1
 66
1
 70
0
  0
VERTEX
  8
1
 10
1.5927
 20
1.0537
  0
VERTEX
  8
1
 10
1.3741
 20
1.2904
  0
VERTEX
  8
1
 10
1.3741
 20
1.2904
  0
VERTEX
  8
1
 10
0.0000
 20
2.7787
  0
SEQEND
  8
1
  0
POLYLINE
  8
84
 66
1
 70
0
  0
VERTEX
  8
84
 10
1.5927
 20
1.0537
  0
VERTEX
  8
84
 10
1.3741
 20
1.2904
  0
VERTEX
  8
84
 10
1.3741
 20
1.2904
  0
VERTEX
  8
84
 10
0.0000
 20
2.7787
  0
SEQEND
  8
84
  0
POINT
  8
2
 10
1.5927
 20
1.0537
  0
POINT
  8
2
 10
1.3741
 20
1.2904
  0
POINT
  8
4
 10
1.3741
 20
1.2904
 30
0.1181
 39
0.0000
 50
30.5324
  0
POINT
  8
2
 10
1.3741
 20
1.2904
  0
POINT
  8
2
 10
0.0000
 20
2.7787
  0
LINE
  8
7
 10
1.0166
 20
11.3249
 11
2.4311
 21
11.3249
  0
LINE
  8
5
 10
1.0166
 20
11.3249
 11
2.4311
 21
11.3249
  0
POINT
  8
2
 10
1.0166
 20
11.3249
  0
POINT
  8
2
 10
2.4311
 20
11.3249
  0
LINE
  8
8
 10
3.4337
 20
8.0482
 11
0.7886
 21
8.0482
  0
POLYLINE
  8
85
 66
1
 70
0
  0
VERTEX
  8
85
 10
3.4337
 20
8.0482
  0
VERTEX
  8
85
 10
0.7886
 20
8.0482
  0
SEQEND
  8
85
  0
TEXT
  8
8
 10
3.4337
 20
8.0482
 40
0.250
 50
0.0000
  1
W
  7
STANDARD
  0
TEXT
  8
85
 10
3.4337
 20
8.0482
 40
0.250
 50
0.0000
  1
W
  7
STANDARD
  0
POINT
  8
2
 10
3.4337
 20
8.0482
  0
POINT
  8
2
 10
0.7886
 20
8.0482
  0
POLYLINE
  8
8
 66
1
 70
0
  0
VERTEX
  8
8
 10
1.7950
 20
10.2875
  0
VERTEX
  8
8
 10
1.7950
 20
8.4909
  0
SEQEND
  8
8
  0
POLYLINE
  8
85
 66
1
 70
0
  0
VERTEX
  8
85
 10
1.7950
 20
10.2875
  0
VERTEX
  8
85
 10
1.7950
 20
8.4909
  0
SEQEND
  8
85
  0
TEXT
  8
8
 10
1.7950
 20
10.2875
 40
0.250
 50
0.0000
  1
B
  7
STANDARD
  0
TEXT
  8
85
 10
1.7950
 20
10.2875
 40
0.250
 50
0.0000
  1
B
  7
STANDARD
  0
POINT
  8
2
 10
1.7950
 20
10.2875
  0
POINT
  8
2
 10
1.7950
 20
8.4909
  0
ATTDEF
  8
14
 10
1.6634
 20
14.5390
 11
1.7211
 21
14.6015
 40
.25
  1
Link:4
  2
Dependency
  3

 70
2
 72
3
  0
ATTDEF
  8
14
 10
1.6634
 20
1.5575
 11
1.7211
 21
1.4951
 40
.25
  1
Link:4
  2
Dependency
  3

 70
2
 72
3
  0
ENDBLK
  0
BLOCK
  8
0
  2
BUY-388884-JF-SP26-SL-J-SH-08_40
 70
64
 10
0.0000
 20
0.0000
  0
TEXT
  8
1
 10
4.8387
 20
8.3216
 40
0.250
 50
0.0000
  1
Piece Name: BUY-388884-JF-SP26-SL-J-SH-08
  7
STANDARD
  0
TEXT
  8
1
 10
4.8387
 20
8.4616
 40
0.250
 50
0.0000
  1
Quantity: 1,0
  7
STANDARD
  0
TEXT
  8
1
 10
4.8387
 20
8.6016
 40
0.250
 50
0.0000
  1
ANNOTATION: COLLAR FELT CUT-2
  7
STANDARD
  0
TEXT
  8
1
 10
4.8387
 20
8.7416
 40
0.250
 50
0.0000
  1
CATEGORY: 64-4
  7
STANDARD
  0
TEXT
  8
1
 10
4.8387
 20
8.8816
 40
0.250
 50
0.0000
  1
SIZE: 40
  7
STANDARD
  0
POLYLINE
  8
1
 66
1
 70
0
  0
VERTEX
  8
1
 10
3.9338
 20
2.7873
  0
VERTEX
  8
1
 10
3.9865
 20
3.7704
  0
VERTEX
  8
1
 10
4.0272
 20
4.7231
  0
VERTEX
  8
1
 10
4.0563
 20
5.1992
  0
VERTEX
  8
1
 10
4.0790
 20
5.6816
  0
VERTEX
  8
1
 10
4.0961
 20
6.1506
  0
VERTEX
  8
1
 10
4.1087
 20
6.5872
  0
VERTEX
  8
1
 10
4.1183
 20
6.9949
  0
VERTEX
  8
1
 10
4.1329
 20
8.3216
  0
VERTEX
  8
1
 10
4.1183
 20
9.6488
  0
VERTEX
  8
1
 10
4.1112
 20
10.0305
  0
VERTEX
  8
1
 10
4.0993
 20
10.4654
  0
VERTEX
  8
1
 10
4.0821
 20
10.9528
  0
VERTEX
  8
1
 10
4.0601
 20
11.4560
  0
VERTEX
  8
1
 10
4.0326
 20
11.9294
  0
VERTEX
  8
1
 10
3.9866
 20
12.8727
  0
VERTEX
  8
1
 10
3.9338
 20
13.8560
  0
SEQEND
  8
1
  0
POLYLINE
  8
84
 66
1
 70
0
  0
VERTEX
  8
84
 10
3.9338
 20
2.7873
  0
VERTEX
  8
84
 10
3.9865
 20
3.7704
  0
VERTEX
  8
84
 10
4.0272
 20
4.7231
  0
VERTEX
  8
84
 10
4.0563
 20
5.1992
  0
VERTEX
  8
84
 10
4.0790
 20
5.6816
  0
VERTEX
  8
84
 10
4.0961
 20
6.1506
  0
VERTEX
  8
84
 10
4.1087
 20
6.5872
  0
VERTEX
  8
84
 10
4.1183
 20
6.9949
  0
VERTEX
  8
84
 10
4.1329
 20
8.3216
  0
VERTEX
  8
84
 10
4.1183
 20
9.6488
  0
VERTEX
  8
84
 10
4.1112
 20
10.0305
  0
VERTEX
  8
84
 10
4.0993
 20
10.4654
  0
VERTEX
  8
84
 10
4.0821
 20
10.9528
  0
VERTEX
  8
84
 10
4.0601
 20
11.4560
  0
VERTEX
  8
84
 10
4.0326
 20
11.9294
  0
VERTEX
  8
84
 10
3.9866
 20
12.8727
  0
VERTEX
  8
84
 10
3.9338
 20
13.8560
  0
SEQEND
  8
84
  0
POINT
  8
2
 10
3.9338
 20
2.7873
  0
POINT
  8
4
 10
3.9865
 20
3.7704
 30
0.1181
 39
0.0000
  0
POINT
  8
3
 10
3.9865
 20
3.7704
  0
POINT
  8
3
 10
4.0272
 20
4.7231
  0
POINT
  8
3
 10
4.0563
 20
5.1992
  0
POINT
  8
3
 10
4.0790
 20
5.6816
  0
POINT
  8
3
 10
4.0961
 20
6.1506
  0
POINT
  8
3
 10
4.1087
 20
6.5872
  0
POINT
  8
4
 10
4.1183
 20
6.9949
 30
0.1181
 39
0.0000
  0
POINT
  8
3
 10
4.1183
 20
6.9949
  0
POINT
  8
4
 10
4.1329
 20
8.3216
 30
0.1181
 39
0.0000
  0
POINT
  8
2
 10
4.1329
 20
8.3216
  0
POINT
  8
4
 10
4.1183
 20
9.6488
 30
0.1181
 39
0.0000
  0
POINT
  8
3
 10
4.1183
 20
9.6488
  0
POINT
  8
3
 10
4.1112
 20
10.0305
  0
POINT
  8
3
 10
4.0993
 20
10.4654
  0
POINT
  8
3
 10
4.0821
 20
10.9528
  0
POINT
  8
3
 10
4.0601
 20
11.4560
  0
POINT
  8
3
 10
4.0326
 20
11.9294
  0
POINT
  8
4
 10
3.9866
 20
12.8727
 30
0.1181
 39
0.0000
  0
POINT
  8
3
 10
3.9866
 20
12.8727
  0
POINT
  8
2
 10
3.9338
 20
13.8560
  0
POLYLINE
  8
1
 66
1
 70
0
  0
VERTEX
  8
1
 10
3.9338
 20
13.8560
  0
VERTEX
  8
1
 10
4.1317
 20
14.0283
  0
SEQEND
  8
1
  0
POLYLINE
  8
84
 66
1
 70
0
  0
VERTEX
  8
84
 10
3.9338
 20
13.8560
  0
VERTEX
  8
84
 10
4.1317
 20
14.0283
  0
SEQEND
  8
84
  0
POINT
  8
2
 10
3.9338
 20
13.8560
  0
POINT
  8
2
 10
4.1317
 20
14.0283
  0
POLYLINE
  8
1
 66
1
 70
0
  0
VERTEX
  8
1
 10
4.1317
 20
14.0283
  0
VERTEX
  8
1
 10
4.8449
 20
13.7830
  0
VERTEX
  8
1
 10
5.1198
 20
13.6885
  0
SEQEND
  8
1
  0
POLYLINE
  8
84
 66
1
 70
0
  0
VERTEX
  8
84
 10
4.1317
 20
14.0283
  0
VERTEX
  8
84
 10
4.8449
 20
13.7830
  0
VERTEX
  8
84
 10
5.1198
 20
13.6885
  0
SEQEND
  8
84
  0
POINT
  8
2
 10
4.1317
 20
14.0283
  0
POINT
  8
3
 10
4.8449
 20
13.7830
  0
POINT
  8
2
 10
5.1198
 20
13.6885
  0
POLYLINE
  8
1
 66
1
 70
0
  0
VERTEX
  8
1
 10
5.1198
 20
13.6885
  0
VERTEX
  8
1
 10
5.3039
 20
12.9577
  0
VERTEX
  8
1
 10
5.4612
 20
12.1906
  0
VERTEX
  8
1
 10
5.5442
 20
11.6302
  0
VERTEX
  8
1
 10
5.6168
 20
11.0722
  0
VERTEX
  8
1
 10
5.6678
 20
10.4853
  0
VERTEX
  8
1
 10
5.7075
 20
9.8477
  0
VERTEX
  8
1
 10
5.7311
 20
9.1215
  0
VERTEX
  8
1
 10
5.7437
 20
8.3216
  0
VERTEX
  8
1
 10
5.7311
 20
7.5219
  0
VERTEX
  8
1
 10
5.7075
 20
6.7957
  0
VERTEX
  8
1
 10
5.6678
 20
6.1581
  0
VERTEX
  8
1
 10
5.6168
 20
5.5712
  0
VERTEX
  8
1
 10
5.5442
 20
5.0131
  0
VERTEX
  8
1
 10
5.4612
 20
4.4528
  0
VERTEX
  8
1
 10
5.3039
 20
3.6859
  0
VERTEX
  8
1
 10
5.1198
 20
2.9549
  0
SEQEND
  8
1
  0
POLYLINE
  8
84
 66
1
 70
0
  0
VERTEX
  8
84
 10
5.1198
 20
13.6885
  0
VERTEX
  8
84
 10
5.3039
 20
12.9577
  0
VERTEX
  8
84
 10
5.4612
 20
12.1906
  0
VERTEX
  8
84
 10
5.5442
 20
11.6302
  0
VERTEX
  8
84
 10
5.6168
 20
11.0722
  0
VERTEX
  8
84
 10
5.6678
 20
10.4853
  0
VERTEX
  8
84
 10
5.7075
 20
9.8477
  0
VERTEX
  8
84
 10
5.7311
 20
9.1215
  0
VERTEX
  8
84
 10
5.7437
 20
8.3216
  0
VERTEX
  8
84
 10
5.7311
 20
7.5219
  0
VERTEX
  8
84
 10
5.7075
 20
6.7957
  0
VERTEX
  8
84
 10
5.6678
 20
6.1581
  0
VERTEX
  8
84
 10
5.6168
 20
5.5712
  0
VERTEX
  8
84
 10
5.5442
 20
5.0131
  0
VERTEX
  8
84
 10
5.4612
 20
4.4528
  0
VERTEX
  8
84
 10
5.3039
 20
3.6859
  0
VERTEX
  8
84
 10
5.1198
 20
2.9549
  0
SEQEND
  8
84
  0
POINT
  8
2
 10
5.1198
 20
13.6885
  0
POINT
  8
3
 10
5.3039
 20
12.9577
  0
POINT
  8
4
 10
5.4612
 20
12.1906
 30
0.1181
 39
0.0000
  0
POINT
  8
3
 10
5.4612
 20
12.1906
  0
POINT
  8
3
 10
5.5442
 20
11.6302
  0
POINT
  8
3
 10
5.6168
 20
11.0722
  0
POINT
  8
3
 10
5.6678
 20
10.4853
  0
POINT
  8
3
 10
5.7075
 20
9.8477
  0
POINT
  8
3
 10
5.7311
 20
9.1215
  0
POINT
  8
4
 10
5.7437
 20
8.3216
 30
0.1181
 39
0.0000
  0
POINT
  8
2
 10
5.7437
 20
8.3216
  0
POINT
  8
3
 10
5.7311
 20
7.5219
  0
POINT
  8
3
 10
5.7075
 20
6.7957
  0
POINT
  8
3
 10
5.6678
 20
6.1581
  0
POINT
  8
3
 10
5.6168
 20
5.5712
  0
POINT
  8
3
 10
5.5442
 20
5.0131
  0
POINT
  8
4
 10
5.4612
 20
4.4528
 30
0.1181
 39
0.0000
  0
POINT
  8
3
 10
5.4612
 20
4.4528
  0
POINT
  8
3
 10
5.3039
 20
3.6859
  0
POINT
  8
2
 10
5.1198
 20
2.9549
  0
POLYLINE
  8
1
 66
1
 70
0
  0
VERTEX
  8
1
 10
5.1198
 20
2.9549
  0
VERTEX
  8
1
 10
4.1317
 20
2.6150
  0
SEQEND
  8
1
  0
POLYLINE
  8
84
 66
1
 70
0
  0
VERTEX
  8
84
 10
5.1198
 20
2.9549
  0
VERTEX
  8
84
 10
4.1317
 20
2.6150
  0
SEQEND
  8
84
  0
POINT
  8
2
 10
5.1198
 20
2.9549
  0
POINT
  8
2
 10
4.1317
 20
2.6150
  0
POLYLINE
  8
1
 66
1
 70
0
  0
VERTEX
  8
1
 10
4.1317
 20
2.6150
  0
VERTEX
  8
1
 10
3.9338
 20
2.7873
  0
SEQEND
  8
1
  0
POLYLINE
  8
84
 66
1
 70
0
  0
VERTEX
  8
84
 10
4.1317
 20
2.6150
  0
VERTEX
  8
84
 10
3.9338
 20
2.7873
  0
SEQEND
  8
84
  0
POINT
  8
2
 10
4.1317
 20
2.6150
  0
POINT
  8
2
 10
3.9338
 20
2.7873
  0
LINE
  8
7
 10
4.2377
 20
11.1176
 11
4.9794
 21
11.1176
  0
LINE
  8
5
 10
4.2377
 20
11.1176
 11
4.9794
 21
11.1176
  0
POINT
  8
2
 10
4.2377
 20
11.1176
  0
POINT
  8
2
 10
4.9794
 20
11.1176
  0
LINE
  8
8
 10
5.7437
 20
8.3216
 11
4.3297
 21
8.3216
  0
POLYLINE
  8
85
 66
1
 70
0
  0
VERTEX
  8
85
 10
5.7437
 20
8.3216
  0
VERTEX
  8
85
 10
4.3297
 20
8.3216
  0
SEQEND
  8
85
  0
TEXT
  8
8
 10
5.7437
 20
8.3216
 40
0.250
 50
0.0000
  1
W
  7
STANDARD
  0
TEXT
  8
85
 10
5.7437
 20
8.3216
 40
0.250
 50
0.0000
  1
W
  7
STANDARD
  0
POINT
  8
2
 10
5.7437
 20
8.3216
  0
POINT
  8
2
 10
4.3297
 20
8.3216
  0
POLYLINE
  8
8
 66
1
 70
0
  0
VERTEX
  8
8
 10
4.8665
 20
10.6923
  0
VERTEX
  8
8
 10
4.8749
 20
9.4857
  0
SEQEND
  8
8
  0
POLYLINE
  8
85
 66
1
 70
0
  0
VERTEX
  8
85
 10
4.8665
 20
10.6923
  0
VERTEX
  8
85
 10
4.8749
 20
9.4857
  0
SEQEND
  8
85
  0
TEXT
  8
8
 10
4.8665
 20
10.6923
 40
0.250
 50
0.0000
  1
B
  7
STANDARD
  0
TEXT
  8
85
 10
4.8665
 20
10.6923
 40
0.250
 50
0.0000
  1
B
  7
STANDARD
  0
POINT
  8
2
 10
4.8665
 20
10.6923
  0
POINT
  8
2
 10
4.8749
 20
9.4857
  0
ENDBLK
  0
BLOCK
  8
0
  2
BUY-388884-JF-SP26-SL-J-FL-07-T_40
 70
64
 10
0.0000
 20
0.0000
  0
TEXT
  8
1
 10
7.6008
 20
7.2288
 40
0.250
 50
0.0000
  1
Piece Name: BUY-388884-JF-SP26-SL-J-FL-07-T
  7
STANDARD
  0
TEXT
  8
1
 10
7.6008
 20
7.3688
 40
0.250
 50
0.0000
  1
Quantity: 1,0
  7
STANDARD
  0
TEXT
  8
1
 10
7.6008
 20
7.5088
 40
0.250
 50
0.0000
  1
ANNOTATION: COLLAR FELT CUT-2
  7
STANDARD
  0
TEXT
  8
1
 10
7.6008
 20
7.6488
 40
0.250
 50
0.0000
  1
CATEGORY: BU-332799-JF-FA25-SL-J-FL-07-T
  7
STANDARD
  0
TEXT
  8
1
 10
7.6008
 20
7.7888
 40
0.250
 50
0.0000
  1
SIZE: 40
  7
STANDARD
  0
TEXT
  8
8
 10
7.3669
 20
9.4630
 40
0.250
 50
0.0000
  1
.F
  7
STANDARD
  0
TEXT
  8
8
 10
7.6795
 20
9.1503
 40
0.250
 50
0.0000
  1
.F
  7
STANDARD
  0
POLYLINE
  8
1
 66
1
 70
0
  0
VERTEX
  8
1
 10
6.2873
 20
1.4798
  0
VERTEX
  8
1
 10
6.4264
 20
2.3466
  0
VERTEX
  8
1
 10
6.5038
 20
2.8284
  0
VERTEX
  8
1
 10
6.6096
 20
4.0668
  0
VERTEX
  8
1
 10
6.6468
 20
7.2242
  0
VERTEX
  8
1
 10
6.5856
 20
10.3813
  0
VERTEX
  8
1
 10
6.4704
 20
11.6188
  0
VERTEX
  8
1
 10
6.3893
 20
12.1000
  0
VERTEX
  8
1
 10
6.2436
 20
12.9658
  0
SEQEND
  8
1
  0
POLYLINE
  8
84
 66
1
 70
0
  0
VERTEX
  8
84
 10
6.2873
 20
1.4798
  0
VERTEX
  8
84
 10
6.4264
 20
2.3466
  0
VERTEX
  8
84
 10
6.5038
 20
2.8284
  0
VERTEX
  8
84
 10
6.5679
 20
3.4466
  0
VERTEX
  8
84
 10
6.6096
 20
4.0668
  0
VERTEX
  8
84
 10
6.6322
 20
4.8558
  0
VERTEX
  8
84
 10
6.6424
 20
5.6451
  0
VERTEX
  8
84
 10
6.6468
 20
7.2242
  0
VERTEX
  8
84
 10
6.6304
 20
8.8033
  0
VERTEX
  8
84
 10
6.6142
 20
9.5925
  0
VERTEX
  8
84
 10
6.5856
 20
10.3813
  0
VERTEX
  8
84
 10
6.5392
 20
11.0011
  0
VERTEX
  8
84
 10
6.4704
 20
11.6188
  0
VERTEX
  8
84
 10
6.3893
 20
12.1000
  0
VERTEX
  8
84
 10
6.2436
 20
12.9658
  0
SEQEND
  8
84
  0
POINT
  8
2
 10
6.2873
 20
1.4798
  0
POINT
  8
4
 10
6.4264
 20
2.3466
 30
0.1181
 39
0.0000
  0
POINT
  8
3
 10
6.4264
 20
2.3466
  0
POINT
  8
3
 10
6.5038
 20
2.8284
  0
POINT
  8
3
 10
6.6096
 20
4.0668
  0
POINT
  8
4
 10
6.6468
 20
7.2242
 30
0.1181
 39
0.0000
  0
POINT
  8
2
 10
6.6468
 20
7.2242
  0
POINT
  8
3
 10
6.5856
 20
10.3813
  0
POINT
  8
3
 10
6.4704
 20
11.6188
  0
POINT
  8
4
 10
6.3893
 20
12.1000
 30
0.1181
 39
0.0000
  0
POINT
  8
3
 10
6.3893
 20
12.1000
  0
POINT
  8
2
 10
6.2436
 20
12.9658
  0
POLYLINE
  8
1
 66
1
 70
0
  0
VERTEX
  8
1
 10
6.2436
 20
12.9658
  0
VERTEX
  8
1
 10
6.5417
 20
13.1672
  0
VERTEX
  8
1
 10
7.8158
 20
14.0283
  0
SEQEND
  8
1
  0
POLYLINE
  8
84
 66
1
 70
0
  0
VERTEX
  8
84
 10
6.2436
 20
12.9658
  0
VERTEX
  8
84
 10
6.5417
 20
13.1672
  0
VERTEX
  8
84
 10
7.8158
 20
14.0283
  0
SEQEND
  8
84
  0
POINT
  8
2
 10
6.2436
 20
12.9658
  0
POINT
  8
4
 10
6.5417
 20
13.1672
 30
0.0984
 39
0.0000
  0
POINT
  8
3
 10
6.5417
 20
13.1672
  0
POINT
  8
2
 10
7.8158
 20
14.0283
  0
POLYLINE
  8
1
 66
1
 70
0
  0
VERTEX
  8
1
 10
7.8158
 20
14.0283
  0
VERTEX
  8
1
 10
8.8961
 20
13.3462
  0
SEQEND
  8
1
  0
POLYLINE
  8
84
 66
1
 70
0
  0
VERTEX
  8
84
 10
7.8158
 20
14.0283
  0
VERTEX
  8
84
 10
8.8961
 20
13.3462
  0
SEQEND
  8
84
  0
POINT
  8
2
 10
7.8158
 20
14.0283
  0
POINT
  8
2
 10
8.8961
 20
13.3462
  0
POLYLINE
  8
1
 66
1
 70
0
  0
VERTEX
  8
1
 10
8.8961
 20
13.3462
  0
VERTEX
  8
1
 10
8.8850
 20
12.8624
  0
VERTEX
  8
1
 10
8.8715
 20
12.2800
  0
VERTEX
  8
1
 10
8.8733
 20
11.8644
  0
VERTEX
  8
1
 10
8.8761
 20
11.3457
  0
VERTEX
  8
1
 10
8.8978
 20
10.5929
  0
VERTEX
  8
1
 10
8.9100
 20
10.1627
  0
VERTEX
  8
1
 10
8.9251
 20
9.6281
  0
VERTEX
  8
1
 10
8.9453
 20
8.6071
  0
VERTEX
  8
1
 10
8.9457
 20
8.5660
  0
VERTEX
  8
1
 10
8.9580
 20
7.2330
  0
VERTEX
  8
1
 10
8.9558
 20
5.8999
  0
VERTEX
  8
1
 10
8.9557
 20
5.8590
  0
VERTEX
  8
1
 10
8.9433
 20
4.8378
  0
VERTEX
  8
1
 10
8.9323
 20
4.3030
  0
VERTEX
  8
1
 10
8.9233
 20
3.8727
  0
VERTEX
  8
1
 10
8.9074
 20
3.1198
  0
VERTEX
  8
1
 10
8.9085
 20
2.6011
  0
VERTEX
  8
1
 10
8.9099
 20
2.1854
  0
VERTEX
  8
1
 10
8.9278
 20
1.6033
  0
VERTEX
  8
1
 10
8.9426
 20
1.1195
  0
SEQEND
  8
1
  0
POLYLINE
  8
84
 66
1
 70
0
  0
VERTEX
  8
84
 10
8.8961
 20
13.3462
  0
VERTEX
  8
84
 10
8.8850
 20
12.8624
  0
VERTEX
  8
84
 10
8.8715
 20
12.2800
  0
VERTEX
  8
84
 10
8.8733
 20
11.8644
  0
VERTEX
  8
84
 10
8.8761
 20
11.3457
  0
VERTEX
  8
84
 10
8.8978
 20
10.5929
  0
VERTEX
  8
84
 10
8.9100
 20
10.1627
  0
VERTEX
  8
84
 10
8.9251
 20
9.6281
  0
VERTEX
  8
84
 10
8.9453
 20
8.6071
  0
VERTEX
  8
84
 10
8.9457
 20
8.5660
  0
VERTEX
  8
84
 10
8.9580
 20
7.2330
  0
VERTEX
  8
84
 10
8.9558
 20
5.8999
  0
VERTEX
  8
84
 10
8.9557
 20
5.8590
  0
VERTEX
  8
84
 10
8.9433
 20
4.8378
  0
VERTEX
  8
84
 10
8.9323
 20
4.3030
  0
VERTEX
  8
84
 10
8.9233
 20
3.8727
  0
VERTEX
  8
84
 10
8.9074
 20
3.1198
  0
VERTEX
  8
84
 10
8.9085
 20
2.6011
  0
VERTEX
  8
84
 10
8.9099
 20
2.1854
  0
VERTEX
  8
84
 10
8.9278
 20
1.6033
  0
VERTEX
  8
84
 10
8.9426
 20
1.1195
  0
SEQEND
  8
84
  0
POINT
  8
2
 10
8.8961
 20
13.3462
  0
POINT
  8
3
 10
8.8850
 20
12.8624
  0
POINT
  8
3
 10
8.8715
 20
12.2800
  0
POINT
  8
3
 10
8.8733
 20
11.8644
  0
POINT
  8
4
 10
8.8761
 20
11.3457
 30
0.0984
 39
0.0000
  0
POINT
  8
3
 10
8.8761
 20
11.3457
  0
POINT
  8
3
 10
8.8978
 20
10.5929
  0
POINT
  8
3
 10
8.9100
 20
10.1627
  0
POINT
  8
3
 10
8.9251
 20
9.6281
  0
POINT
  8
3
 10
8.9453
 20
8.6071
  0
POINT
  8
4
 10
8.9457
 20
8.5660
 30
0.0984
 39
0.0000
  0
POINT
  8
3
 10
8.9457
 20
8.5660
  0
POINT
  8
4
 10
8.9580
 20
7.2330
 30
0.1181
 39
0.0000
  0
POINT
  8
2
 10
8.9580
 20
7.2330
  0
POINT
  8
4
 10
8.9558
 20
5.8999
 30
0.0984
 39
0.0000
  0
POINT
  8
3
 10
8.9558
 20
5.8999
  0
POINT
  8
3
 10
8.9557
 20
5.8590
  0
POINT
  8
3
 10
8.9433
 20
4.8378
  0
POINT
  8
3
 10
8.9323
 20
4.3030
  0
POINT
  8
3
 10
8.9233
 20
3.8727
  0
POINT
  8
4
 10
8.9074
 20
3.1198
 30
0.0984
 39
0.0000
  0
POINT
  8
3
 10
8.9074
 20
3.1198
  0
POINT
  8
3
 10
8.9085
 20
2.6011
  0
POINT
  8
3
 10
8.9099
 20
2.1854
  0
POINT
  8
3
 10
8.9278
 20
1.6033
  0
POINT
  8
2
 10
8.9426
 20
1.1195
  0
POLYLINE
  8
1
 66
1
 70
0
  0
VERTEX
  8
1
 10
8.9426
 20
1.1195
  0
VERTEX
  8
1
 10
7.8675
 20
0.4293
  0
SEQEND
  8
1
  0
POLYLINE
  8
84
 66
1
 70
0
  0
VERTEX
  8
84
 10
8.9426
 20
1.1195
  0
VERTEX
  8
84
 10
7.8675
 20
0.4293
  0
SEQEND
  8
84
  0
POINT
  8
2
 10
8.9426
 20
1.1195
  0
POINT
  8
2
 10
7.8675
 20
0.4293
  0
POLYLINE
  8
1
 66
1
 70
0
  0
VERTEX
  8
1
 10
7.8675
 20
0.4293
  0
VERTEX
  8
1
 10
6.5869
 20
1.2805
  0
VERTEX
  8
1
 10
6.2873
 20
1.4798
  0
SEQEND
  8
1
  0
POLYLINE
  8
84
 66
1
 70
0
  0
VERTEX
  8
84
 10
7.8675
 20
0.4293
  0
VERTEX
  8
84
 10
6.5869
 20
1.2805
  0
VERTEX
  8
84
 10
6.2873
 20
1.4798
  0
SEQEND
  8
84
  0
POINT
  8
2
 10
7.8675
 20
0.4293
  0
POINT
  8
4
 10
6.5869
 20
1.2805
 30
0.0984
 39
0.0000
  0
POINT
  8
3
 10
6.5869
 20
1.2805
  0
POINT
  8
2
 10
6.2873
 20
1.4798
  0
LINE
  8
7
 10
6.8202
 20
10.4138
 11
7.9803
 21
10.4138
  0
LINE
  8
5
 10
6.8202
 20
10.4138
 11
7.9803
 21
10.4138
  0
POINT
  8
2
 10
6.8202
 20
10.4138
  0
POINT
  8
2
 10
7.9803
 20
10.4138
  0
LINE
  8
8
 10
8.9580
 20
7.2330
 11
6.6468
 21
7.2242
  0
POLYLINE
  8
85
 66
1
 70
0
  0
VERTEX
  8
85
 10
8.9580
 20
7.2330
  0
VERTEX
  8
85
 10
6.6468
 20
7.2242
  0
SEQEND
  8
85
  0
TEXT
  8
8
 10
8.9580
 20
7.2330
 40
0.250
 50
0.0000
  1
W
  7
STANDARD
  0
TEXT
  8
85
 10
8.9580
 20
7.2330
 40
0.250
 50
0.0000
  1
W
  7
STANDARD
  0
POINT
  8
2
 10
8.9580
 20
7.2330
  0
POINT
  8
2
 10
6.6468
 20
7.2242
  0
LINE
  8
8
 10
7.3669
 20
9.4630
 11
7.6795
 21
9.1503
  0
POLYLINE
  8
85
 66
1
 70
0
  0
VERTEX
  8
85
 10
7.3669
 20
9.4630
  0
VERTEX
  8
85
 10
7.6795
 20
9.1503
  0
SEQEND
  8
85
  0
TEXT
  8
8
 10
7.3669
 20
9.4630
 40
0.250
 50
0.0000
  1
NM
  7
STANDARD
  0
TEXT
  8
85
 10
7.3669
 20
9.4630
 40
0.250
 50
0.0000
  1
NM
  7
STANDARD
  0
POINT
  8
2
 10
7.3669
 20
9.4630
  0
POINT
  8
2
 10
7.6795
 20
9.1503
  0
ENDBLK
  0
BLOCK
  8
0
  2
BUY-388884-JF-SP26-SL-J-FL-07-B_40
 70
64
 10
0.0000
 20
0.0000
  0
TEXT
  8
1
 10
37.9374
 20
7.6410
 40
0.250
 50
0.0000
  1
Piece Name: BUY-388884-JF-SP26-SL-J-FL-07-B
  7
STANDARD
  0
TEXT
  8
1
 10
37.9374
 20
7.7810
 40
0.250
 50
0.0000
  1
Quantity: 1,0
  7
STANDARD
  0
TEXT
  8
1
 10
37.9374
 20
7.9210
 40
0.250
 50
0.0000
  1
ANNOTATION: COLLAR FELT CUT-2
  7
STANDARD
  0
TEXT
  8
1
 10
37.9374
 20
8.0610
 40
0.250
 50
0.0000
  1
CATEGORY: BU-332799-JF-FA25-SL-J-FL-07-B
  7
STANDARD
  0
TEXT
  8
1
 10
37.9374
 20
8.2010
 40
0.250
 50
0.0000
  1
SIZE: 40
  7
STANDARD
  0
TEXT
  8
8
 10
37.7392
 20
9.5002
 40
0.250
 50
0.0000
  1
.F
  7
STANDARD
  0
TEXT
  8
8
 10
38.0518
 20
9.1876
 40
0.250
 50
0.0000
  1
.F
  7
STANDARD
  0
POLYLINE
  8
1
 66
1
 70
0
  0
VERTEX
  8
1
 10
37.1270
 20
2.4482
  0
VERTEX
  8
1
 10
37.1373
 20
3.1785
  0
VERTEX
  8
1
 10
37.1473
 20
3.8923
  0
VERTEX
  8
1
 10
37.1521
 20
4.7311
  0
VERTEX
  8
1
 10
37.1570
 20
5.5959
  0
VERTEX
  8
1
 10
37.1362
 20
6.9022
  0
VERTEX
  8
1
 10
37.1341
 20
7.6371
  0
VERTEX
  8
1
 10
37.1306
 20
8.3720
  0
VERTEX
  8
1
 10
37.1414
 20
9.6784
  0
VERTEX
  8
1
 10
37.1299
 20
10.5431
  0
VERTEX
  8
1
 10
37.1188
 20
11.3819
  0
VERTEX
  8
1
 10
37.1033
 20
12.0956
  0
VERTEX
  8
1
 10
37.0874
 20
12.8258
  0
SEQEND
  8
1
  0
POLYLINE
  8
84
 66
1
 70
0
  0
VERTEX
  8
84
 10
37.1270
 20
2.4482
  0
VERTEX
  8
84
 10
37.1373
 20
3.1785
  0
VERTEX
  8
84
 10
37.1473
 20
3.8923
  0
VERTEX
  8
84
 10
37.1521
 20
4.7311
  0
VERTEX
  8
84
 10
37.1570
 20
5.5959
  0
VERTEX
  8
84
 10
37.1362
 20
6.9022
  0
VERTEX
  8
84
 10
37.1341
 20
7.6371
  0
VERTEX
  8
84
 10
37.1306
 20
8.3720
  0
VERTEX
  8
84
 10
37.1414
 20
9.6784
  0
VERTEX
  8
84
 10
37.1299
 20
10.5431
  0
VERTEX
  8
84
 10
37.1188
 20
11.3819
  0
VERTEX
  8
84
 10
37.1033
 20
12.0956
  0
VERTEX
  8
84
 10
37.0874
 20
12.8258
  0
SEQEND
  8
84
  0
POINT
  8
2
 10
37.1270
 20
2.4482
  0
POINT
  8
3
 10
37.1373
 20
3.1785
  0
POINT
  8
4
 10
37.1473
 20
3.8923
 30
0.0984
 39
0.0000
  0
POINT
  8
3
 10
37.1473
 20
3.8923
  0
POINT
  8
3
 10
37.1521
 20
4.7311
  0
POINT
  8
3
 10
37.1570
 20
5.5959
  0
POINT
  8
3
 10
37.1362
 20
6.9022
  0
POINT
  8
4
 10
37.1341
 20
7.6371
 30
0.1181
 39
0.0000
  0
POINT
  8
2
 10
37.1341
 20
7.6371
  0
POINT
  8
3
 10
37.1306
 20
8.3720
  0
POINT
  8
3
 10
37.1414
 20
9.6784
  0
POINT
  8
3
 10
37.1299
 20
10.5431
  0
POINT
  8
4
 10
37.1188
 20
11.3819
 30
0.0984
 39
0.0000
  0
POINT
  8
3
 10
37.1188
 20
11.3819
  0
POINT
  8
3
 10
37.1033
 20
12.0956
  0
POINT
  8
2
 10
37.0874
 20
12.8258
  0
POLYLINE
  8
1
 66
1
 70
0
  0
VERTEX
  8
1
 10
37.0874
 20
12.8258
  0
VERTEX
  8
1
 10
38.1342
 20
13.5295
  0
SEQEND
  8
1
  0
POLYLINE
  8
84
 66
1
 70
0
  0
VERTEX
  8
84
 10
37.0874
 20
12.8258
  0
VERTEX
  8
84
 10
38.1342
 20
13.5295
  0
SEQEND
  8
84
  0
POINT
  8
2
 10
37.0874
 20
12.8258
  0
POINT
  8
2
 10
38.1342
 20
13.5295
  0
POLYLINE
  8
1
 66
1
 70
0
  0
VERTEX
  8
1
 10
38.1342
 20
13.5295
  0
VERTEX
  8
1
 10
38.3770
 20
13.4652
  0
VERTEX
  8
1
 10
38.5225
 20
12.6011
  0
VERTEX
  8
1
 10
38.6073
 20
12.0974
  0
VERTEX
  8
1
 10
38.7258
 20
10.8252
  0
VERTEX
  8
1
 10
38.7874
 20
7.6434
  0
VERTEX
  8
1
 10
38.7501
 20
4.4612
  0
VERTEX
  8
1
 10
38.6413
 20
3.1881
  0
VERTEX
  8
1
 10
38.5603
 20
2.6838
  0
VERTEX
  8
1
 10
38.4214
 20
1.8186
  0
VERTEX
  8
1
 10
38.1791
 20
1.7525
  0
SEQEND
  8
1
  0
POLYLINE
  8
84
 66
1
 70
0
  0
VERTEX
  8
84
 10
38.1342
 20
13.5295
  0
VERTEX
  8
84
 10
38.3770
 20
13.4652
  0
VERTEX
  8
84
 10
38.5225
 20
12.6011
  0
VERTEX
  8
84
 10
38.6073
 20
12.0974
  0
VERTEX
  8
84
 10
38.6780
 20
11.4624
  0
VERTEX
  8
84
 10
38.7258
 20
10.8252
  0
VERTEX
  8
84
 10
38.7546
 20
10.0302
  0
VERTEX
  8
84
 10
38.7709
 20
9.2348
  0
VERTEX
  8
84
 10
38.7874
 20
7.6434
  0
VERTEX
  8
84
 10
38.7831
 20
6.0519
  0
VERTEX
  8
84
 10
38.7729
 20
5.2564
  0
VERTEX
  8
84
 10
38.7501
 20
4.4612
  0
VERTEX
  8
84
 10
38.7072
 20
3.8237
  0
VERTEX
  8
84
 10
38.6413
 20
3.1881
  0
VERTEX
  8
84
 10
38.5603
 20
2.6838
  0
VERTEX
  8
84
 10
38.4214
 20
1.8186
  0
VERTEX
  8
84
 10
38.1791
 20
1.7525
  0
SEQEND
  8
84
  0
POINT
  8
2
 10
38.1342
 20
13.5295
  0
POINT
  8
2
 10
38.3770
 20
13.4652
  0
POINT
  8
4
 10
38.5225
 20
12.6011
 30
0.1181
 39
0.0000
  0
POINT
  8
3
 10
38.5225
 20
12.6011
  0
POINT
  8
3
 10
38.6073
 20
12.0974
  0
POINT
  8
3
 10
38.7258
 20
10.8252
  0
POINT
  8
4
 10
38.7874
 20
7.6434
 30
0.1181
 39
0.0000
  0
POINT
  8
2
 10
38.7874
 20
7.6434
  0
POINT
  8
3
 10
38.7501
 20
4.4612
  0
POINT
  8
3
 10
38.6413
 20
3.1881
  0
POINT
  8
4
 10
38.5603
 20
2.6838
 30
0.1181
 39
0.0000
  0
POINT
  8
3
 10
38.5603
 20
2.6838
  0
POINT
  8
2
 10
38.4214
 20
1.8186
  0
POINT
  8
2
 10
38.1791
 20
1.7525
  0
POLYLINE
  8
1
 66
1
 70
0
  0
VERTEX
  8
1
 10
38.1791
 20
1.7525
  0
VERTEX
  8
1
 10
37.1270
 20
2.4482
  0
SEQEND
  8
1
  0
POLYLINE
  8
84
 66
1
 70
0
  0
VERTEX
  8
84
 10
38.1791
 20
1.7525
  0
VERTEX
  8
84
 10
37.1270
 20
2.4482
  0
SEQEND
  8
84
  0
POINT
  8
2
 10
38.1791
 20
1.7525
  0
POINT
  8
2
 10
37.1270
 20
2.4482
  0
LINE
  8
7
 10
38.2066
 20
10.8311
 11
38.4883
 21
10.8311
  0
LINE
  8
5
 10
38.2066
 20
10.8311
 11
38.4883
 21
10.8311
  0
POINT
  8
2
 10
38.2066
 20
10.8311
  0
POINT
  8
2
 10
38.4883
 20
10.8311
  0
LINE
  8
8
 10
38.7874
 20
7.6434
 11
37.1341
 21
7.6371
  0
POLYLINE
  8
85
 66
1
 70
0
  0
VERTEX
  8
85
 10
38.7874
 20
7.6434
  0
VERTEX
  8
85
 10
37.1341
 20
7.6371
  0
SEQEND
  8
85
  0
TEXT
  8
8
 10
38.7874
 20
7.6434
 40
0.250
 50
0.0000
  1
W
  7
STANDARD
  0
TEXT
  8
85
 10
38.7874
 20
7.6434
 40
0.250
 50
0.0000
  1
W
  7
STANDARD
  0
POINT
  8
2
 10
38.7874
 20
7.6434
  0
POINT
  8
2
 10
37.1341
 20
7.6371
  0
LINE
  8
8
 10
37.7392
 20
9.5002
 11
38.0518
 21
9.1876
  0
POLYLINE
  8
85
 66
1
 70
0
  0
VERTEX
  8
85
 10
37.7392
 20
9.5002
  0
VERTEX
  8
85
 10
38.0518
 20
9.1876
  0
SEQEND
  8
85
  0
TEXT
  8
8
 10
37.7392
 20
9.5002
 40
0.250
 50
0.0000
  1
NM
  7
STANDARD
  0
TEXT
  8
85
 10
37.7392
 20
9.5002
 40
0.250
 50
0.0000
  1
NM
  7
STANDARD
  0
POINT
  8
2
 10
37.7392
 20
9.5002
  0
POINT
  8
2
 10
38.0518
 20
9.1876
  0
ENDBLK
  0
ENDSEC
  0
SECTION
  2
ENTITIES
  0
TEXT
  8
1
 10
0.0000
 20
0.0000
 40
0.250
 50
0.0000
  1
Style Name: BUY-388884-JF-SLIM-JKT
  7
STANDARD
  0
TEXT
  8
1
 10
0.0000
 20
0.1400
 40
0.250
 50
0.0000
  1
Creation Date:  3-10-2025
  7
STANDARD
  0
TEXT
  8
1
 10
0.0000
 20
0.2800
 40
0.250
 50
0.0000
  1
Creation Time: 15:51
  7
STANDARD
  0
TEXT
  8
1
 10
0.0000
 20
0.4200
 40
0.250
 50
0.0000
  1
Author: GERBER TECHNOLOGY ; ACCUMARK ; 10.2.0
  7
STANDARD
  0
TEXT
  8
1
 10
0.0000
 20
0.5600
 40
0.250
 50
0.0000
  1
Sample Size: 40
  7
STANDARD
  0
TEXT
  8
1
 10
0.0000
 20
0.7000
 40
0.250
 50
0.0000
  1
Grade Rule Table: JC-PENNEY-JKT
  7
STANDARD
  0
TEXT
  8
1
 10
0.0000
 20
0.8400
 40
0.250
 50
0.0000
  1
Units: ENGLISH
  7
STANDARD
  0
TEXT
  8
1
 10
0.0000
 20
0.9800
 40
0.250
 50
0.0000
  1
Curve Tolerance: .006
  7
STANDARD
  0
TEXT
  8
1
 10
0.0000
 20
1.1200
 40
0.250
 50
0.0000
  1
ASTM/D13Proposal 1 Version: D 6673-04
  7
STANDARD
  0
INSERT
  8
1
  2
BUY-388884-JF-SP26-SL-J-SH-01_40
 10
0.0000
 20
0.0000
  0
INSERT
  8
1
  2
BUY-388884-JF-SP26-SL-J-SH-02_40
 10
0.0000
 20
0.0000
  0
INSERT
  8
1
  2
BUY-388884-JF-SP26-SL-J-SH-03CV-L_40
 10
0.0000
 20
0.0000
  0
INSERT
  8
1
  2
BUY-388884-JF-SP26-SL-J-SH-05_40
 10
0.0000
 20
0.0000
  0
INSERT
  8
1
  2
BUY-388884-JF-SP26-SL-J-SH-04_40
 10
0.0000
 20
0.0000
  0
INSERT
  8
1
  2
BUY-388884-JF-SP26-SL-J-SH-06_40
 10
0.0000
 20
0.0000
  0
INSERT
  8
1
  2
BUY-388884-JF-SP26-SL-J-SH-07_40
 10
0.0000
 20
0.0000
  0
INSERT
  8
1
  2
BUY-388884-JF-SP26-SL-J-SH-08_40
 10
0.0000
 20
0.0000
  0
INSERT
  8
1
  2
BUY-388884-JF-SP26-SL-J-FL-07-T_40
 10
0.0000
 20
0.0000
  0
INSERT
  8
1
  2
BUY-388884-JF-SP26-SL-J-FL-07-B_40
 10
0.0000
 20
0.0000
  0
ENDSEC
  0
EOF
