  0
SECTION
  2
HEADER
  0
ENDSEC
  0
SECTION
  2
BLOCKS
  0
BLOCK
  8
0
  2
BUY-383100-JF-CLA-SH-01_32
 70
64
 10
0.0000
 20
0.0000
  0
TEXT
  8
1
 10
21.7903
 20
29.4110
 40
0.250
 50
0.0000
  1
Piece Name: BUY-383100-JF-CLA-SH-01
  7
STANDARD
  0
TEXT
  8
1
 10
21.7903
 20
29.5510
 40
0.250
 50
0.0000
  1
Quantity: 1,0
  7
STANDARD
  0
TEXT
  8
1
 10
21.7903
 20
29.6910
 40
0.250
 50
0.0000
  1
ANNOTATION
  7
STANDARD
  0
TEXT
  8
1
 10
21.7903
 20
29.8310
 40
0.250
 50
0.0000
  1
CATEGORY: 1
  7
STANDARD
  0
TEXT
  8
1
 10
21.7903
 20
29.9710
 40
0.250
 50
0.0000
  1
SIZE: 32
  7
STANDARD
  0
POLYLINE
  8
1
 66
1
 70
0
  0
VERTEX
  8
1
 10
43.5806
 20
25.1122
  0
VERTEX
  8
1
 10
36.7428
 20
22.4633
  0
VERTEX
  8
1
 10
36.7428
 20
22.4633
  0
VERTEX
  8
1
 10
35.7993
 20
22.4826
  0
VERTEX
  8
1
 10
34.9453
 20
22.5324
  0
VERTEX
  8
1
 10
33.8860
 20
22.6284
  0
VERTEX
  8
1
 10
30.9236
 20
22.8372
  0
VERTEX
  8
1
 10
27.9643
 20
23.0611
  0
VERTEX
  8
1
 10
25.5671
 20
23.2603
  0
VERTEX
  8
1
 10
21.0578
 20
23.6022
  0
VERTEX
  8
1
 10
21.0578
 20
23.6022
  0
VERTEX
  8
1
 10
4.1515
 20
24.8315
  0
VERTEX
  8
1
 10
2.0473
 20
24.8502
  0
VERTEX
  8
1
 10
2.0473
 20
24.8502
  0
VERTEX
  8
1
 10
0.0000
 20
24.7994
  0
SEQEND
  8
1
  0
POLYLINE
  8
84
 66
1
 70
0
  0
VERTEX
  8
84
 10
43.5806
 20
25.1122
  0
VERTEX
  8
84
 10
36.7428
 20
22.4633
  0
VERTEX
  8
84
 10
36.7428
 20
22.4633
  0
VERTEX
  8
84
 10
35.7993
 20
22.4826
  0
VERTEX
  8
84
 10
34.9453
 20
22.5324
  0
VERTEX
  8
84
 10
33.8860
 20
22.6284
  0
VERTEX
  8
84
 10
30.9236
 20
22.8372
  0
VERTEX
  8
84
 10
27.9643
 20
23.0611
  0
VERTEX
  8
84
 10
25.5671
 20
23.2603
  0
VERTEX
  8
84
 10
21.0578
 20
23.6022
  0
VERTEX
  8
84
 10
21.0578
 20
23.6022
  0
VERTEX
  8
84
 10
4.1515
 20
24.8315
  0
VERTEX
  8
84
 10
2.0473
 20
24.8502
  0
VERTEX
  8
84
 10
2.0473
 20
24.8502
  0
VERTEX
  8
84
 10
0.0000
 20
24.7994
  0
SEQEND
  8
84
  0
POINT
  8
2
 10
43.5806
 20
25.1122
  0
POINT
  8
2
 10
36.7428
 20
22.4633
  0
POINT
  8
4
 10
36.7428
 20
22.4633
 30
0.1181
 39
0.1771
  0
POINT
  8
2
 10
36.7428
 20
22.4633
  0
POINT
  8
3
 10
35.7993
 20
22.4826
  0
POINT
  8
3
 10
34.9453
 20
22.5324
  0
POINT
  8
4
 10
33.8860
 20
22.6284
 30
0.1181
 39
0.1771
  0
POINT
  8
3
 10
33.8860
 20
22.6284
  0
POINT
  8
3
 10
30.9236
 20
22.8372
  0
POINT
  8
3
 10
27.9643
 20
23.0611
  0
POINT
  8
3
 10
25.5671
 20
23.2603
  0
POINT
  8
2
 10
21.0578
 20
23.6022
  0
POINT
  8
4
 10
21.0578
 20
23.6022
 30
0.1181
 39
0.1771
  0
POINT
  8
2
 10
21.0578
 20
23.6022
  0
POINT
  8
2
 10
4.1515
 20
24.8315
  0
POINT
  8
2
 10
2.0473
 20
24.8502
  0
POINT
  8
4
 10
2.0473
 20
24.8502
 30
0.1181
 39
0.1771
 50
92.6366
  0
POINT
  8
2
 10
2.0473
 20
24.8502
  0
POINT
  8
2
 10
0.0000
 20
24.7994
  0
POLYLINE
  8
1
 66
1
 70
0
  0
VERTEX
  8
1
 10
0.0000
 20
24.7994
  0
VERTEX
  8
1
 10
0.0000
 20
25.2718
  0
VERTEX
  8
1
 10
0.0000
 20
32.8754
  0
VERTEX
  8
1
 10
0.0000
 20
33.3675
  0
SEQEND
  8
1
  0
POLYLINE
  8
84
 66
1
 70
0
  0
VERTEX
  8
84
 10
0.0000
 20
24.7994
  0
VERTEX
  8
84
 10
0.0000
 20
25.2718
  0
VERTEX
  8
84
 10
0.0000
 20
32.8754
  0
VERTEX
  8
84
 10
0.0000
 20
33.3675
  0
SEQEND
  8
84
  0
POINT
  8
2
 10
0.0000
 20
24.7994
  0
POINT
  8
4
 10
0.0000
 20
25.2718
 30
0.1181
 39
0.1771
  0
POINT
  8
3
 10
0.0000
 20
25.2718
  0
POINT
  8
4
 10
0.0000
 20
32.8754
 30
0.1181
 39
0.1771
  0
POINT
  8
3
 10
0.0000
 20
32.8754
  0
POINT
  8
2
 10
0.0000
 20
33.3675
  0
POLYLINE
  8
1
 66
1
 70
0
  0
VERTEX
  8
1
 10
0.0000
 20
33.3675
  0
VERTEX
  8
1
 10
2.0480
 20
33.3168
  0
VERTEX
  8
1
 10
2.0480
 20
33.3168
  0
VERTEX
  8
1
 10
4.1743
 20
33.3242
  0
VERTEX
  8
1
 10
21.0593
 20
34.5648
  0
VERTEX
  8
1
 10
21.0593
 20
34.5648
  0
VERTEX
  8
1
 10
23.6884
 20
34.7726
  0
VERTEX
  8
1
 10
25.2831
 20
34.9205
  0
VERTEX
  8
1
 10
26.7656
 20
35.0828
  0
VERTEX
  8
1
 10
28.1543
 20
35.2634
  0
VERTEX
  8
1
 10
29.5146
 20
35.4701
  0
VERTEX
  8
1
 10
30.9485
 20
35.7194
  0
VERTEX
  8
1
 10
32.5290
 20
36.0213
  0
VERTEX
  8
1
 10
34.2177
 20
36.3588
  0
SEQEND
  8
1
  0
POLYLINE
  8
84
 66
1
 70
0
  0
VERTEX
  8
84
 10
0.0000
 20
33.3675
  0
VERTEX
  8
84
 10
2.0480
 20
33.3168
  0
VERTEX
  8
84
 10
2.0480
 20
33.3168
  0
VERTEX
  8
84
 10
4.1743
 20
33.3242
  0
VERTEX
  8
84
 10
21.0593
 20
34.5648
  0
VERTEX
  8
84
 10
21.0593
 20
34.5648
  0
VERTEX
  8
84
 10
23.6884
 20
34.7726
  0
VERTEX
  8
84
 10
25.2831
 20
34.9205
  0
VERTEX
  8
84
 10
26.7656
 20
35.0828
  0
VERTEX
  8
84
 10
28.1543
 20
35.2634
  0
VERTEX
  8
84
 10
29.5146
 20
35.4701
  0
VERTEX
  8
84
 10
30.9485
 20
35.7194
  0
VERTEX
  8
84
 10
32.5290
 20
36.0213
  0
VERTEX
  8
84
 10
34.2177
 20
36.3588
  0
SEQEND
  8
84
  0
POINT
  8
2
 10
0.0000
 20
33.3675
  0
POINT
  8
2
 10
2.0480
 20
33.3168
  0
POINT
  8
4
 10
2.0480
 20
33.3168
 30
0.1181
 39
0.1771
 50
-92.7914
  0
POINT
  8
2
 10
2.0480
 20
33.3168
  0
POINT
  8
2
 10
4.1743
 20
33.3242
  0
POINT
  8
2
 10
21.0593
 20
34.5648
  0
POINT
  8
4
 10
21.0593
 20
34.5648
 30
0.1181
 39
0.1771
  0
POINT
  8
2
 10
21.0593
 20
34.5648
  0
POINT
  8
3
 10
23.6884
 20
34.7726
  0
POINT
  8
3
 10
25.2831
 20
34.9205
  0
POINT
  8
3
 10
26.7656
 20
35.0828
  0
POINT
  8
3
 10
28.1543
 20
35.2634
  0
POINT
  8
3
 10
29.5146
 20
35.4701
  0
POINT
  8
3
 10
30.9485
 20
35.7194
  0
POINT
  8
3
 10
32.5290
 20
36.0213
  0
POINT
  8
2
 10
34.2177
 20
36.3588
  0
POLYLINE
  8
1
 66
1
 70
0
  0
VERTEX
  8
1
 10
34.2177
 20
36.3588
  0
VERTEX
  8
1
 10
34.4292
 20
35.8937
  0
VERTEX
  8
1
 10
34.5799
 20
35.5810
  0
VERTEX
  8
1
 10
34.7704
 20
35.2125
  0
VERTEX
  8
1
 10
34.9369
 20
34.9225
  0
VERTEX
  8
1
 10
35.2633
 20
34.4832
  0
VERTEX
  8
1
 10
35.4394
 20
34.3095
  0
VERTEX
  8
1
 10
35.6338
 20
34.1609
  0
VERTEX
  8
1
 10
35.8227
 20
34.0651
  0
VERTEX
  8
1
 10
36.0184
 20
33.9949
  0
VERTEX
  8
1
 10
36.1989
 20
33.9443
  0
VERTEX
  8
1
 10
36.3306
 20
33.9074
  0
VERTEX
  8
1
 10
36.7390
 20
33.8591
  0
VERTEX
  8
1
 10
37.0876
 20
33.8227
  0
VERTEX
  8
1
 10
43.0016
 20
33.0735
  0
SEQEND
  8
1
  0
POLYLINE
  8
84
 66
1
 70
0
  0
VERTEX
  8
84
 10
34.2177
 20
36.3588
  0
VERTEX
  8
84
 10
34.4292
 20
35.8937
  0
VERTEX
  8
84
 10
34.5799
 20
35.5810
  0
VERTEX
  8
84
 10
34.7704
 20
35.2125
  0
VERTEX
  8
84
 10
34.9369
 20
34.9225
  0
VERTEX
  8
84
 10
35.0928
 20
34.6973
  0
VERTEX
  8
84
 10
35.2633
 20
34.4832
  0
VERTEX
  8
84
 10
35.4394
 20
34.3095
  0
VERTEX
  8
84
 10
35.6338
 20
34.1609
  0
VERTEX
  8
84
 10
35.8227
 20
34.0651
  0
VERTEX
  8
84
 10
36.0184
 20
33.9949
  0
VERTEX
  8
84
 10
36.1989
 20
33.9443
  0
VERTEX
  8
84
 10
36.3306
 20
33.9074
  0
VERTEX
  8
84
 10
36.7390
 20
33.8591
  0
VERTEX
  8
84
 10
37.0876
 20
33.8227
  0
VERTEX
  8
84
 10
43.0016
 20
33.0735
  0
SEQEND
  8
84
  0
POINT
  8
2
 10
34.2177
 20
36.3588
  0
POINT
  8
4
 10
34.4292
 20
35.8937
 30
0.1181
 39
0.1771
  0
POINT
  8
3
 10
34.4292
 20
35.8937
  0
POINT
  8
3
 10
34.5799
 20
35.5810
  0
POINT
  8
3
 10
34.7704
 20
35.2125
  0
POINT
  8
3
 10
34.9369
 20
34.9225
  0
POINT
  8
3
 10
35.2633
 20
34.4832
  0
POINT
  8
3
 10
35.4394
 20
34.3095
  0
POINT
  8
3
 10
35.6338
 20
34.1609
  0
POINT
  8
3
 10
35.8227
 20
34.0651
  0
POINT
  8
3
 10
36.0184
 20
33.9949
  0
POINT
  8
4
 10
36.1989
 20
33.9443
 30
0.1181
 39
0.1771
  0
POINT
  8
2
 10
36.1989
 20
33.9443
  0
POINT
  8
2
 10
36.3306
 20
33.9074
  0
POINT
  8
3
 10
36.7390
 20
33.8591
  0
POINT
  8
2
 10
37.0876
 20
33.8227
  0
POINT
  8
2
 10
43.0016
 20
33.0735
  0
POLYLINE
  8
1
 66
1
 70
0
  0
VERTEX
  8
1
 10
43.0016
 20
33.0735
  0
VERTEX
  8
1
 10
42.9919
 20
32.2020
  0
VERTEX
  8
1
 10
42.9862
 20
31.4317
  0
VERTEX
  8
1
 10
42.9877
 20
30.6518
  0
VERTEX
  8
1
 10
43.0023
 20
29.8479
  0
VERTEX
  8
1
 10
43.0589
 20
29.0921
  0
VERTEX
  8
1
 10
43.1515
 20
28.1280
  0
VERTEX
  8
1
 10
43.2582
 20
27.2548
  0
VERTEX
  8
1
 10
43.3678
 20
26.4176
  0
VERTEX
  8
1
 10
43.5088
 20
25.5434
  0
VERTEX
  8
1
 10
43.5806
 20
25.1122
  0
SEQEND
  8
1
  0
POLYLINE
  8
84
 66
1
 70
0
  0
VERTEX
  8
84
 10
43.0016
 20
33.0735
  0
VERTEX
  8
84
 10
42.9919
 20
32.2020
  0
VERTEX
  8
84
 10
42.9862
 20
31.4317
  0
VERTEX
  8
84
 10
42.9877
 20
30.6518
  0
VERTEX
  8
84
 10
43.0023
 20
29.8479
  0
VERTEX
  8
84
 10
43.0589
 20
29.0921
  0
VERTEX
  8
84
 10
43.1515
 20
28.1280
  0
VERTEX
  8
84
 10
43.2582
 20
27.2548
  0
VERTEX
  8
84
 10
43.3678
 20
26.4176
  0
VERTEX
  8
84
 10
43.5088
 20
25.5434
  0
VERTEX
  8
84
 10
43.5806
 20
25.1122
  0
SEQEND
  8
84
  0
POINT
  8
2
 10
43.0016
 20
33.0735
  0
POINT
  8
3
 10
42.9919
 20
32.2020
  0
POINT
  8
3
 10
42.9862
 20
31.4317
  0
POINT
  8
3
 10
42.9877
 20
30.6518
  0
POINT
  8
3
 10
43.0023
 20
29.8479
  0
POINT
  8
4
 10
43.0589
 20
29.0921
 30
0.1181
 39
0.1771
  0
POINT
  8
3
 10
43.0589
 20
29.0921
  0
POINT
  8
3
 10
43.1515
 20
28.1280
  0
POINT
  8
3
 10
43.2582
 20
27.2548
  0
POINT
  8
3
 10
43.3678
 20
26.4176
  0
POINT
  8
4
 10
43.5088
 20
25.5434
 30
0.1181
 39
0.1771
  0
POINT
  8
3
 10
43.5088
 20
25.5434
  0
POINT
  8
2
 10
43.5806
 20
25.1122
  0
LINE
  8
7
 10
9.8487
 20
29.0871
 11
29.3850
 21
29.0871
  0
LINE
  8
5
 10
9.8487
 20
29.0871
 11
29.3850
 21
29.0871
  0
POINT
  8
2
 10
9.8487
 20
29.0871
  0
POINT
  8
2
 10
29.3850
 20
29.0871
  0
LINE
  8
8
 10
21.0914
 20
34.0660
 11
21.0968
 21
24.1078
  0
POLYLINE
  8
85
 66
1
 70
0
  0
VERTEX
  8
85
 10
21.0914
 20
34.0660
  0
VERTEX
  8
85
 10
21.0968
 20
24.1078
  0
SEQEND
  8
85
  0
TEXT
  8
8
 10
21.0914
 20
34.0660
 40
0.250
 50
0.0000
  1
NM
  7
STANDARD
  0
TEXT
  8
85
 10
21.0914
 20
34.0660
 40
0.250
 50
0.0000
  1
NM
  7
STANDARD
  0
POINT
  8
2
 10
21.0914
 20
34.0660
  0
POINT
  8
2
 10
21.0968
 20
24.1078
  0
LINE
  8
8
 10
36.1916
 20
33.4738
 11
36.3920
 21
22.9800
  0
POLYLINE
  8
85
 66
1
 70
0
  0
VERTEX
  8
85
 10
36.1916
 20
33.4738
  0
VERTEX
  8
85
 10
36.3920
 20
22.9800
  0
SEQEND
  8
85
  0
TEXT
  8
8
 10
36.1916
 20
33.4738
 40
0.250
 50
0.0000
  1
NM
  7
STANDARD
  0
TEXT
  8
85
 10
36.1916
 20
33.4738
 40
0.250
 50
0.0000
  1
NM
  7
STANDARD
  0
POINT
  8
2
 10
36.1916
 20
33.4738
  0
POINT
  8
2
 10
36.3920
 20
22.9800
  0
LINE
  8
8
 10
37.7123
 20
29.9079
 11
39.3373
 21
29.9079
  0
POLYLINE
  8
85
 66
1
 70
0
  0
VERTEX
  8
85
 10
37.7123
 20
29.9079
  0
VERTEX
  8
85
 10
39.3373
 20
29.9079
  0
SEQEND
  8
85
  0
TEXT
  8
8
 10
37.7123
 20
29.9079
 40
0.250
 50
0.0000
  1
NM
  7
STANDARD
  0
TEXT
  8
85
 10
37.7123
 20
29.9079
 40
0.250
 50
0.0000
  1
NM
  7
STANDARD
  0
POINT
  8
2
 10
37.7123
 20
29.9079
  0
POINT
  8
2
 10
39.3373
 20
29.9079
  0
LINE
  8
8
 10
33.6627
 20
35.7281
 11
33.6627
 21
23.1426
  0
POLYLINE
  8
85
 66
1
 70
0
  0
VERTEX
  8
85
 10
33.6627
 20
35.7281
  0
VERTEX
  8
85
 10
33.6627
 20
23.1426
  0
SEQEND
  8
85
  0
TEXT
  8
8
 10
33.6627
 20
35.7281
 40
0.250
 50
0.0000
  1
NM
  7
STANDARD
  0
TEXT
  8
85
 10
33.6627
 20
35.7281
 40
0.250
 50
0.0000
  1
NM
  7
STANDARD
  0
POINT
  8
2
 10
33.6627
 20
35.7281
  0
POINT
  8
2
 10
33.6627
 20
23.1426
  0
ENDBLK
  0
BLOCK
  8
0
  2
BUY-383100-JF-CLA-SH-02_32
 70
64
 10
0.0000
 20
0.0000
  0
TEXT
  8
1
 10
50.3139
 20
12.8735
 40
0.250
 50
0.0000
  1
Piece Name: BUY-383100-JF-CLA-SH-02
  7
STANDARD
  0
TEXT
  8
1
 10
50.3139
 20
13.0135
 40
0.250
 50
0.0000
  1
Quantity: 1,0
  7
STANDARD
  0
TEXT
  8
1
 10
50.3139
 20
13.1535
 40
0.250
 50
0.0000
  1
ANNOTATION
  7
STANDARD
  0
TEXT
  8
1
 10
50.3139
 20
13.2935
 40
0.250
 50
0.0000
  1
CATEGORY: 2
  7
STANDARD
  0
TEXT
  8
1
 10
50.3139
 20
13.4335
 40
0.250
 50
0.0000
  1
SIZE: 32
  7
STANDARD
  0
POLYLINE
  8
1
 66
1
 70
0
  0
VERTEX
  8
1
 10
71.4120
 20
21.3156
  0
VERTEX
  8
1
 10
71.4391
 20
20.8784
  0
VERTEX
  8
1
 10
71.4753
 20
20.3851
  0
VERTEX
  8
1
 10
71.5375
 20
19.8609
  0
VERTEX
  8
1
 10
71.6676
 20
19.1298
  0
VERTEX
  8
1
 10
71.9411
 20
17.9493
  0
VERTEX
  8
1
 10
72.3214
 20
16.8390
  0
VERTEX
  8
1
 10
72.3214
 20
16.8390
  0
VERTEX
  8
1
 10
72.5177
 20
16.3263
  0
VERTEX
  8
1
 10
72.4589
 20
15.7761
  0
VERTEX
  8
1
 10
72.4589
 20
15.7761
  0
VERTEX
  8
1
 10
72.5584
 20
14.1164
  0
VERTEX
  8
1
 10
72.6560
 20
13.2252
  0
VERTEX
  8
1
 10
72.6779
 20
13.0256
  0
VERTEX
  8
1
 10
72.8275
 20
11.9558
  0
VERTEX
  8
1
 10
72.9267
 20
11.2644
  0
VERTEX
  8
1
 10
72.9267
 20
11.2644
  0
VERTEX
  8
1
 10
72.9590
 20
11.0642
  0
VERTEX
  8
1
 10
73.1371
 20
10.3115
  0
SEQEND
  8
1
  0
POLYLINE
  8
84
 66
1
 70
0
  0
VERTEX
  8
84
 10
71.4120
 20
21.3156
  0
VERTEX
  8
84
 10
71.4391
 20
20.8784
  0
VERTEX
  8
84
 10
71.4753
 20
20.3851
  0
VERTEX
  8
84
 10
71.5375
 20
19.8609
  0
VERTEX
  8
84
 10
71.6676
 20
19.1298
  0
VERTEX
  8
84
 10
71.7933
 20
18.5368
  0
VERTEX
  8
84
 10
71.9411
 20
17.9493
  0
VERTEX
  8
84
 10
72.1242
 20
17.3919
  0
VERTEX
  8
84
 10
72.3214
 20
16.8390
  0
VERTEX
  8
84
 10
72.3214
 20
16.8390
  0
VERTEX
  8
84
 10
72.5177
 20
16.3263
  0
VERTEX
  8
84
 10
72.4589
 20
15.7761
  0
VERTEX
  8
84
 10
72.4589
 20
15.7761
  0
VERTEX
  8
84
 10
72.5584
 20
14.1164
  0
VERTEX
  8
84
 10
72.6560
 20
13.2252
  0
VERTEX
  8
84
 10
72.6779
 20
13.0256
  0
VERTEX
  8
84
 10
72.8275
 20
11.9558
  0
VERTEX
  8
84
 10
72.9267
 20
11.2644
  0
VERTEX
  8
84
 10
72.9267
 20
11.2644
  0
VERTEX
  8
84
 10
72.9590
 20
11.0642
  0
VERTEX
  8
84
 10
73.1371
 20
10.3115
  0
SEQEND
  8
84
  0
POINT
  8
2
 10
71.4120
 20
21.3156
  0
POINT
  8
4
 10
71.4391
 20
20.8784
 30
0.1181
 39
0.1771
  0
POINT
  8
3
 10
71.4391
 20
20.8784
  0
POINT
  8
3
 10
71.4753
 20
20.3851
  0
POINT
  8
4
 10
71.5375
 20
19.8609
 30
0.1181
 39
0.1771
  0
POINT
  8
3
 10
71.5375
 20
19.8609
  0
POINT
  8
3
 10
71.6676
 20
19.1298
  0
POINT
  8
3
 10
71.9411
 20
17.9493
  0
POINT
  8
2
 10
72.3214
 20
16.8390
  0
POINT
  8
4
 10
72.3214
 20
16.8390
 30
0.1181
 39
0.0000
 50
-159.7149
  0
POINT
  8
2
 10
72.3214
 20
16.8390
  0
POINT
  8
4
 10
72.5177
 20
16.3263
 30
0.1181
 39
0.0000
  0
POINT
  8
2
 10
72.5177
 20
16.3263
  0
POINT
  8
2
 10
72.4589
 20
15.7761
  0
POINT
  8
4
 10
72.4589
 20
15.7761
 30
0.1181
 39
0.0000
 50
178.6648
  0
POINT
  8
2
 10
72.4589
 20
15.7761
  0
POINT
  8
3
 10
72.5584
 20
14.1164
  0
POINT
  8
4
 10
72.6560
 20
13.2252
 30
0.1181
 39
0.1771
  0
POINT
  8
3
 10
72.6560
 20
13.2252
  0
POINT
  8
3
 10
72.6779
 20
13.0256
  0
POINT
  8
3
 10
72.8275
 20
11.9558
  0
POINT
  8
2
 10
72.9267
 20
11.2644
  0
POINT
  8
4
 10
72.9267
 20
11.2644
 30
0.1181
 39
0.1771
 50
-172.0968
  0
POINT
  8
2
 10
72.9267
 20
11.2644
  0
POINT
  8
2
 10
72.9590
 20
11.0642
  0
POINT
  8
2
 10
73.1371
 20
10.3115
  0
POLYLINE
  8
1
 66
1
 70
0
  0
VERTEX
  8
1
 10
73.1371
 20
10.3115
  0
VERTEX
  8
1
 10
64.8904
 20
8.7571
  0
VERTEX
  8
1
 10
64.4510
 20
8.6704
  0
VERTEX
  8
1
 10
64.0330
 20
8.5803
  0
VERTEX
  8
1
 10
63.6683
 20
8.4988
  0
VERTEX
  8
1
 10
63.3676
 20
8.4042
  0
VERTEX
  8
1
 10
63.1227
 20
8.2997
  0
VERTEX
  8
1
 10
62.9200
 20
8.1751
  0
VERTEX
  8
1
 10
62.7432
 20
8.0270
  0
VERTEX
  8
1
 10
62.5828
 20
7.8511
  0
VERTEX
  8
1
 10
62.4301
 20
7.6479
  0
VERTEX
  8
1
 10
62.2873
 20
7.4112
  0
VERTEX
  8
1
 10
62.1528
 20
7.1389
  0
VERTEX
  8
1
 10
61.9940
 20
6.7169
  0
VERTEX
  8
1
 10
61.8560
 20
6.2872
  0
VERTEX
  8
1
 10
61.7614
 20
5.8832
  0
VERTEX
  8
1
 10
61.6811
 20
5.4766
  0
VERTEX
  8
1
 10
61.5980
 20
4.8897
  0
VERTEX
  8
1
 10
61.5882
 20
4.8050
  0
VERTEX
  8
1
 10
61.5299
 20
4.3004
  0
SEQEND
  8
1
  0
POLYLINE
  8
84
 66
1
 70
0
  0
VERTEX
  8
84
 10
73.1371
 20
10.3115
  0
VERTEX
  8
84
 10
64.8904
 20
8.7571
  0
VERTEX
  8
84
 10
64.4510
 20
8.6704
  0
VERTEX
  8
84
 10
64.0330
 20
8.5803
  0
VERTEX
  8
84
 10
63.6683
 20
8.4988
  0
VERTEX
  8
84
 10
63.3676
 20
8.4042
  0
VERTEX
  8
84
 10
63.1227
 20
8.2997
  0
VERTEX
  8
84
 10
62.9200
 20
8.1751
  0
VERTEX
  8
84
 10
62.7432
 20
8.0270
  0
VERTEX
  8
84
 10
62.5828
 20
7.8511
  0
VERTEX
  8
84
 10
62.4301
 20
7.6479
  0
VERTEX
  8
84
 10
62.2873
 20
7.4112
  0
VERTEX
  8
84
 10
62.1528
 20
7.1389
  0
VERTEX
  8
84
 10
61.9940
 20
6.7169
  0
VERTEX
  8
84
 10
61.8560
 20
6.2872
  0
VERTEX
  8
84
 10
61.7614
 20
5.8832
  0
VERTEX
  8
84
 10
61.6811
 20
5.4766
  0
VERTEX
  8
84
 10
61.5980
 20
4.8897
  0
VERTEX
  8
84
 10
61.5882
 20
4.8050
  0
VERTEX
  8
84
 10
61.5299
 20
4.3004
  0
SEQEND
  8
84
  0
POINT
  8
2
 10
73.1371
 20
10.3115
  0
POINT
  8
4
 10
64.8904
 20
8.7571
 30
0.1181
 39
0.1771
  0
POINT
  8
2
 10
64.8904
 20
8.7571
  0
POINT
  8
3
 10
64.4510
 20
8.6704
  0
POINT
  8
3
 10
64.0330
 20
8.5803
  0
POINT
  8
3
 10
63.6683
 20
8.4988
  0
POINT
  8
3
 10
63.3676
 20
8.4042
  0
POINT
  8
3
 10
63.1227
 20
8.2997
  0
POINT
  8
3
 10
62.9200
 20
8.1751
  0
POINT
  8
3
 10
62.7432
 20
8.0270
  0
POINT
  8
3
 10
62.5828
 20
7.8511
  0
POINT
  8
3
 10
62.4301
 20
7.6479
  0
POINT
  8
3
 10
62.2873
 20
7.4112
  0
POINT
  8
3
 10
62.1528
 20
7.1389
  0
POINT
  8
3
 10
61.9940
 20
6.7169
  0
POINT
  8
3
 10
61.8560
 20
6.2872
  0
POINT
  8
3
 10
61.7614
 20
5.8832
  0
POINT
  8
3
 10
61.6811
 20
5.4766
  0
POINT
  8
3
 10
61.5980
 20
4.8897
  0
POINT
  8
4
 10
61.5882
 20
4.8050
 30
0.1181
 39
0.1771
  0
POINT
  8
3
 10
61.5882
 20
4.8050
  0
POINT
  8
2
 10
61.5299
 20
4.3004
  0
POLYLINE
  8
1
 66
1
 70
0
  0
VERTEX
  8
1
 10
61.5299
 20
4.3004
  0
VERTEX
  8
1
 10
60.0766
 20
4.7326
  0
VERTEX
  8
1
 10
58.7168
 20
5.1160
  0
VERTEX
  8
1
 10
57.4237
 20
5.4718
  0
VERTEX
  8
1
 10
56.3001
 20
5.7575
  0
VERTEX
  8
1
 10
55.2437
 20
6.0146
  0
VERTEX
  8
1
 10
54.2812
 20
6.2294
  0
VERTEX
  8
1
 10
53.3936
 20
6.4026
  0
VERTEX
  8
1
 10
52.5339
 20
6.5418
  0
VERTEX
  8
1
 10
51.6324
 20
6.6572
  0
VERTEX
  8
1
 10
50.5534
 20
6.7690
  0
VERTEX
  8
1
 10
48.5497
 20
6.9515
  0
VERTEX
  8
1
 10
48.5497
 20
6.9515
  0
VERTEX
  8
1
 10
31.6652
 20
8.1921
  0
VERTEX
  8
1
 10
29.5388
 20
8.1995
  0
VERTEX
  8
1
 10
29.5388
 20
8.1995
  0
VERTEX
  8
1
 10
27.4908
 20
8.1487
  0
SEQEND
  8
1
  0
POLYLINE
  8
84
 66
1
 70
0
  0
VERTEX
  8
84
 10
61.5299
 20
4.3004
  0
VERTEX
  8
84
 10
60.0766
 20
4.7326
  0
VERTEX
  8
84
 10
58.7168
 20
5.1160
  0
VERTEX
  8
84
 10
57.4237
 20
5.4718
  0
VERTEX
  8
84
 10
56.3001
 20
5.7575
  0
VERTEX
  8
84
 10
55.2437
 20
6.0146
  0
VERTEX
  8
84
 10
54.2812
 20
6.2294
  0
VERTEX
  8
84
 10
53.3936
 20
6.4026
  0
VERTEX
  8
84
 10
52.5339
 20
6.5418
  0
VERTEX
  8
84
 10
51.6324
 20
6.6572
  0
VERTEX
  8
84
 10
50.5534
 20
6.7690
  0
VERTEX
  8
84
 10
48.5497
 20
6.9515
  0
VERTEX
  8
84
 10
48.5497
 20
6.9515
  0
VERTEX
  8
84
 10
31.6652
 20
8.1921
  0
VERTEX
  8
84
 10
29.5388
 20
8.1995
  0
VERTEX
  8
84
 10
29.5388
 20
8.1995
  0
VERTEX
  8
84
 10
27.4908
 20
8.1487
  0
SEQEND
  8
84
  0
POINT
  8
2
 10
61.5299
 20
4.3004
  0
POINT
  8
3
 10
60.0766
 20
4.7326
  0
POINT
  8
3
 10
58.7168
 20
5.1160
  0
POINT
  8
3
 10
57.4237
 20
5.4718
  0
POINT
  8
3
 10
56.3001
 20
5.7575
  0
POINT
  8
3
 10
55.2437
 20
6.0146
  0
POINT
  8
3
 10
54.2812
 20
6.2294
  0
POINT
  8
3
 10
53.3936
 20
6.4026
  0
POINT
  8
3
 10
52.5339
 20
6.5418
  0
POINT
  8
3
 10
51.6324
 20
6.6572
  0
POINT
  8
3
 10
50.5534
 20
6.7690
  0
POINT
  8
2
 10
48.5497
 20
6.9515
  0
POINT
  8
4
 10
48.5497
 20
6.9515
 30
0.1181
 39
0.1771
  0
POINT
  8
2
 10
48.5497
 20
6.9515
  0
POINT
  8
2
 10
31.6652
 20
8.1921
  0
POINT
  8
2
 10
29.5388
 20
8.1995
  0
POINT
  8
4
 10
29.5388
 20
8.1995
 30
0.1181
 39
0.1771
 50
93.1700
  0
POINT
  8
2
 10
29.5388
 20
8.1995
  0
POINT
  8
2
 10
27.4908
 20
8.1487
  0
POLYLINE
  8
1
 66
1
 70
0
  0
VERTEX
  8
1
 10
27.4908
 20
8.1487
  0
VERTEX
  8
1
 10
27.4912
 20
8.6409
  0
VERTEX
  8
1
 10
27.4971
 20
17.5554
  0
VERTEX
  8
1
 10
27.4974
 20
18.0279
  0
SEQEND
  8
1
  0
POLYLINE
  8
84
 66
1
 70
0
  0
VERTEX
  8
84
 10
27.4908
 20
8.1487
  0
VERTEX
  8
84
 10
27.4912
 20
8.6409
  0
VERTEX
  8
84
 10
27.4971
 20
17.5554
  0
VERTEX
  8
84
 10
27.4974
 20
18.0279
  0
SEQEND
  8
84
  0
POINT
  8
2
 10
27.4908
 20
8.1487
  0
POINT
  8
4
 10
27.4912
 20
8.6409
 30
0.1181
 39
0.1771
  0
POINT
  8
3
 10
27.4912
 20
8.6409
  0
POINT
  8
4
 10
27.4971
 20
17.5554
 30
0.1181
 39
0.1771
  0
POINT
  8
3
 10
27.4971
 20
17.5554
  0
POINT
  8
2
 10
27.4974
 20
18.0279
  0
POLYLINE
  8
1
 66
1
 70
0
  0
VERTEX
  8
1
 10
27.4974
 20
18.0279
  0
VERTEX
  8
1
 10
29.5442
 20
17.9770
  0
VERTEX
  8
1
 10
29.5442
 20
17.9770
  0
VERTEX
  8
1
 10
31.6764
 20
17.9846
  0
VERTEX
  8
1
 10
48.5528
 20
19.2154
  0
VERTEX
  8
1
 10
52.1035
 20
19.5783
  0
VERTEX
  8
1
 10
55.6240
 20
20.0532
  0
VERTEX
  8
1
 10
58.2486
 20
20.4677
  0
VERTEX
  8
1
 10
61.0420
 20
20.9167
  0
VERTEX
  8
1
 10
63.5396
 20
21.2347
  0
VERTEX
  8
1
 10
64.6423
 20
21.3319
  0
VERTEX
  8
1
 10
65.7260
 20
21.3984
  0
VERTEX
  8
1
 10
66.7914
 20
21.4404
  0
VERTEX
  8
1
 10
67.8047
 20
21.4466
  0
VERTEX
  8
1
 10
68.6777
 20
21.4381
  0
VERTEX
  8
1
 10
70.1848
 20
21.3841
  0
VERTEX
  8
1
 10
71.4120
 20
21.3156
  0
SEQEND
  8
1
  0
POLYLINE
  8
84
 66
1
 70
0
  0
VERTEX
  8
84
 10
27.4974
 20
18.0279
  0
VERTEX
  8
84
 10
29.5442
 20
17.9770
  0
VERTEX
  8
84
 10
29.5442
 20
17.9770
  0
VERTEX
  8
84
 10
31.6764
 20
17.9846
  0
VERTEX
  8
84
 10
48.5528
 20
19.2154
  0
VERTEX
  8
84
 10
50.3289
 20
19.3898
  0
VERTEX
  8
84
 10
52.1035
 20
19.5783
  0
VERTEX
  8
84
 10
53.8653
 20
19.8039
  0
VERTEX
  8
84
 10
55.6240
 20
20.0532
  0
VERTEX
  8
84
 10
58.2486
 20
20.4677
  0
VERTEX
  8
84
 10
61.0420
 20
20.9167
  0
VERTEX
  8
84
 10
62.2894
 20
21.0866
  0
VERTEX
  8
84
 10
63.5396
 20
21.2347
  0
VERTEX
  8
84
 10
64.6423
 20
21.3319
  0
VERTEX
  8
84
 10
65.7260
 20
21.3984
  0
VERTEX
  8
84
 10
66.7914
 20
21.4404
  0
VERTEX
  8
84
 10
67.8047
 20
21.4466
  0
VERTEX
  8
84
 10
68.6777
 20
21.4381
  0
VERTEX
  8
84
 10
70.1848
 20
21.3841
  0
VERTEX
  8
84
 10
71.4120
 20
21.3156
  0
SEQEND
  8
84
  0
POINT
  8
2
 10
27.4974
 20
18.0279
  0
POINT
  8
2
 10
29.5442
 20
17.9770
  0
POINT
  8
4
 10
29.5442
 20
17.9770
 30
0.1181
 39
0.1771
 50
-93.1700
  0
POINT
  8
2
 10
29.5442
 20
17.9770
  0
POINT
  8
2
 10
31.6764
 20
17.9846
  0
POINT
  8
4
 10
48.5528
 20
19.2154
 30
0.1181
 39
0.1771
  0
POINT
  8
2
 10
48.5528
 20
19.2154
  0
POINT
  8
3
 10
52.1035
 20
19.5783
  0
POINT
  8
3
 10
55.6240
 20
20.0532
  0
POINT
  8
3
 10
58.2486
 20
20.4677
  0
POINT
  8
4
 10
61.0420
 20
20.9167
 30
0.1181
 39
0.1771
  0
POINT
  8
3
 10
61.0420
 20
20.9167
  0
POINT
  8
3
 10
63.5396
 20
21.2347
  0
POINT
  8
3
 10
64.6423
 20
21.3319
  0
POINT
  8
3
 10
65.7260
 20
21.3984
  0
POINT
  8
3
 10
66.7914
 20
21.4404
  0
POINT
  8
3
 10
67.8047
 20
21.4466
  0
POINT
  8
3
 10
68.6777
 20
21.4381
  0
POINT
  8
3
 10
70.1848
 20
21.3841
  0
POINT
  8
2
 10
71.4120
 20
21.3156
  0
LINE
  8
7
 10
37.3393
 20
13.0822
 11
56.8756
 21
13.0822
  0
LINE
  8
5
 10
37.3393
 20
13.0822
 11
56.8756
 21
13.0822
  0
POINT
  8
2
 10
37.3393
 20
13.0822
  0
POINT
  8
2
 10
56.8756
 20
13.0822
  0
LINE
  8
8
 10
48.5820
 20
7.4500
 11
48.5830
 21
18.7102
  0
POLYLINE
  8
85
 66
1
 70
0
  0
VERTEX
  8
85
 10
48.5820
 20
7.4500
  0
VERTEX
  8
85
 10
48.5830
 20
18.7102
  0
SEQEND
  8
85
  0
TEXT
  8
8
 10
48.5820
 20
7.4500
 40
0.250
 50
0.0000
  1
NM
  7
STANDARD
  0
TEXT
  8
85
 10
48.5820
 20
7.4500
 40
0.250
 50
0.0000
  1
NM
  7
STANDARD
  0
POINT
  8
2
 10
48.5820
 20
7.4500
  0
POINT
  8
2
 10
48.5830
 20
18.7102
  0
LINE
  8
8
 10
60.7968
 20
5.0429
 11
61.1273
 21
20.3948
  0
POLYLINE
  8
85
 66
1
 70
0
  0
VERTEX
  8
85
 10
60.7968
 20
5.0429
  0
VERTEX
  8
85
 10
61.1273
 20
20.3948
  0
SEQEND
  8
85
  0
TEXT
  8
8
 10
60.7968
 20
5.0429
 40
0.250
 50
0.0000
  1
NM
  7
STANDARD
  0
TEXT
  8
85
 10
60.7968
 20
5.0429
 40
0.250
 50
0.0000
  1
NM
  7
STANDARD
  0
POINT
  8
2
 10
60.7968
 20
5.0429
  0
POINT
  8
2
 10
61.1273
 20
20.3948
  0
LINE
  8
8
 10
64.8372
 20
9.2836
 11
63.6851
 21
20.7471
  0
POLYLINE
  8
85
 66
1
 70
0
  0
VERTEX
  8
85
 10
64.8372
 20
9.2836
  0
VERTEX
  8
85
 10
63.6851
 20
20.7471
  0
SEQEND
  8
85
  0
TEXT
  8
8
 10
64.8372
 20
9.2836
 40
0.250
 50
0.0000
  1
NM
  7
STANDARD
  0
TEXT
  8
85
 10
64.8372
 20
9.2836
 40
0.250
 50
0.0000
  1
NM
  7
STANDARD
  0
POINT
  8
2
 10
64.8372
 20
9.2836
  0
POINT
  8
2
 10
63.6851
 20
20.7471
  0
LINE
  8
8
 10
62.9644
 20
14.8296
 11
64.5894
 21
14.8296
  0
POLYLINE
  8
85
 66
1
 70
0
  0
VERTEX
  8
85
 10
62.9644
 20
14.8296
  0
VERTEX
  8
85
 10
64.5894
 20
14.8296
  0
SEQEND
  8
85
  0
TEXT
  8
8
 10
62.9644
 20
14.8296
 40
0.250
 50
0.0000
  1
NM
  7
STANDARD
  0
TEXT
  8
85
 10
62.9644
 20
14.8296
 40
0.250
 50
0.0000
  1
NM
  7
STANDARD
  0
POINT
  8
2
 10
62.9644
 20
14.8296
  0
POINT
  8
2
 10
64.5894
 20
14.8296
  0
LINE
  8
8
 10
69.3289
 20
15.8865
 11
72.3214
 21
16.8390
  0
POLYLINE
  8
85
 66
1
 70
0
  0
VERTEX
  8
85
 10
69.3289
 20
15.8865
  0
VERTEX
  8
85
 10
72.3214
 20
16.8390
  0
SEQEND
  8
85
  0
TEXT
  8
8
 10
69.3289
 20
15.8865
 40
0.250
 50
0.0000
  1
NM
  7
STANDARD
  0
TEXT
  8
85
 10
69.3289
 20
15.8865
 40
0.250
 50
0.0000
  1
NM
  7
STANDARD
  0
POINT
  8
2
 10
69.3289
 20
15.8865
  0
POINT
  8
2
 10
72.3214
 20
16.8390
  0
LINE
  8
8
 10
72.5177
 20
16.3263
 11
69.3289
 21
15.8865
  0
POLYLINE
  8
85
 66
1
 70
0
  0
VERTEX
  8
85
 10
72.5177
 20
16.3263
  0
VERTEX
  8
85
 10
69.3289
 20
15.8865
  0
SEQEND
  8
85
  0
TEXT
  8
8
 10
72.5177
 20
16.3263
 40
0.250
 50
0.0000
  1
NM
  7
STANDARD
  0
TEXT
  8
85
 10
72.5177
 20
16.3263
 40
0.250
 50
0.0000
  1
NM
  7
STANDARD
  0
POINT
  8
2
 10
72.5177
 20
16.3263
  0
POINT
  8
2
 10
69.3289
 20
15.8865
  0
LINE
  8
8
 10
69.3289
 20
15.8865
 11
72.4589
 21
15.7761
  0
POLYLINE
  8
85
 66
1
 70
0
  0
VERTEX
  8
85
 10
69.3289
 20
15.8865
  0
VERTEX
  8
85
 10
72.4589
 20
15.7761
  0
SEQEND
  8
85
  0
TEXT
  8
8
 10
69.3289
 20
15.8865
 40
0.250
 50
0.0000
  1
NM
  7
STANDARD
  0
TEXT
  8
85
 10
69.3289
 20
15.8865
 40
0.250
 50
0.0000
  1
NM
  7
STANDARD
  0
POINT
  8
2
 10
69.3289
 20
15.8865
  0
POINT
  8
2
 10
72.4589
 20
15.7761
  0
LINE
  8
8
 10
69.6206
 20
13.1520
 11
69.2465
 21
13.1107
  0
POLYLINE
  8
85
 66
1
 70
0
  0
VERTEX
  8
85
 10
69.6206
 20
13.1520
  0
VERTEX
  8
85
 10
69.2465
 20
13.1107
  0
SEQEND
  8
85
  0
TEXT
  8
8
 10
69.6206
 20
13.1520
 40
0.250
 50
0.0000
  1
NM
  7
STANDARD
  0
TEXT
  8
85
 10
69.6206
 20
13.1520
 40
0.250
 50
0.0000
  1
NM
  7
STANDARD
  0
POINT
  8
2
 10
69.6206
 20
13.1520
  0
POINT
  8
2
 10
69.2465
 20
13.1107
  0
LINE
  8
8
 10
68.7139
 20
18.6184
 11
68.3399
 21
18.5771
  0
POLYLINE
  8
85
 66
1
 70
0
  0
VERTEX
  8
85
 10
68.7139
 20
18.6184
  0
VERTEX
  8
85
 10
68.3399
 20
18.5771
  0
SEQEND
  8
85
  0
TEXT
  8
8
 10
68.7139
 20
18.6184
 40
0.250
 50
0.0000
  1
NM
  7
STANDARD
  0
TEXT
  8
85
 10
68.7139
 20
18.6184
 40
0.250
 50
0.0000
  1
NM
  7
STANDARD
  0
POINT
  8
2
 10
68.7139
 20
18.6184
  0
POINT
  8
2
 10
68.3399
 20
18.5771
  0
POLYLINE
  8
8
 66
1
 70
0
  0
VERTEX
  8
8
 10
68.7139
 20
18.6184
  0
VERTEX
  8
8
 10
69.5152
 20
15.9071
  0
VERTEX
  8
8
 10
69.6206
 20
13.1520
  0
SEQEND
  8
8
  0
POLYLINE
  8
85
 66
1
 70
0
  0
VERTEX
  8
85
 10
68.7139
 20
18.6184
  0
VERTEX
  8
85
 10
69.5152
 20
15.9071
  0
VERTEX
  8
85
 10
69.6206
 20
13.1520
  0
SEQEND
  8
85
  0
TEXT
  8
8
 10
68.7139
 20
18.6184
 40
0.250
 50
0.0000
  1
NM
  7
STANDARD
  0
TEXT
  8
85
 10
68.7139
 20
18.6184
 40
0.250
 50
0.0000
  1
NM
  7
STANDARD
  0
POINT
  8
2
 10
68.7139
 20
18.6184
  0
POINT
  8
2
 10
69.5152
 20
15.9071
  0
POINT
  8
2
 10
69.6206
 20
13.1520
  0
POLYLINE
  8
8
 66
1
 70
0
  0
VERTEX
  8
8
 10
68.3401
 20
18.5771
  0
VERTEX
  8
8
 10
69.1414
 20
15.8656
  0
VERTEX
  8
8
 10
69.2469
 20
13.1107
  0
SEQEND
  8
8
  0
POLYLINE
  8
85
 66
1
 70
0
  0
VERTEX
  8
85
 10
68.3401
 20
18.5771
  0
VERTEX
  8
85
 10
69.1414
 20
15.8656
  0
VERTEX
  8
85
 10
69.2469
 20
13.1107
  0
SEQEND
  8
85
  0
TEXT
  8
8
 10
68.3401
 20
18.5771
 40
0.250
 50
0.0000
  1
NM
  7
STANDARD
  0
TEXT
  8
85
 10
68.3401
 20
18.5771
 40
0.250
 50
0.0000
  1
NM
  7
STANDARD
  0
POINT
  8
2
 10
68.3401
 20
18.5771
  0
POINT
  8
2
 10
69.1414
 20
15.8656
  0
POINT
  8
2
 10
69.2469
 20
13.1107
  0
ENDBLK
  0
BLOCK
  8
0
  2
BUY-383100-JF-CLA-SH-06_32
 70
64
 10
0.0000
 20
0.0000
  0
TEXT
  8
1
 10
4.8310
 20
15.8774
 40
0.250
 50
0.0000
  1
Piece Name: BUY-383100-JF-CLA-SH-06
  7
STANDARD
  0
TEXT
  8
1
 10
4.8310
 20
16.0174
 40
0.250
 50
0.0000
  1
Quantity: 1,0
  7
STANDARD
  0
TEXT
  8
1
 10
4.8310
 20
16.1574
 40
0.250
 50
0.0000
  1
ANNOTATION
  7
STANDARD
  0
TEXT
  8
1
 10
4.8310
 20
16.2974
 40
0.250
 50
0.0000
  1
CATEGORY: 7
  7
STANDARD
  0
TEXT
  8
1
 10
4.8310
 20
16.4374
 40
0.250
 50
0.0000
  1
SIZE: 32
  7
STANDARD
  0
POLYLINE
  8
1
 66
1
 70
0
  0
VERTEX
  8
1
 10
0.5989
 20
13.7036
  0
VERTEX
  8
1
 10
0.2010
 20
13.7220
  0
SEQEND
  8
1
  0
POLYLINE
  8
84
 66
1
 70
0
  0
VERTEX
  8
84
 10
0.5989
 20
13.7036
  0
VERTEX
  8
84
 10
0.2010
 20
13.7220
  0
SEQEND
  8
84
  0
POINT
  8
2
 10
0.5989
 20
13.7036
  0
POINT
  8
2
 10
0.2010
 20
13.7220
  0
POLYLINE
  8
1
 66
1
 70
0
  0
VERTEX
  8
1
 10
0.2010
 20
13.7220
  0
VERTEX
  8
1
 10
0.0000
 20
15.6852
  0
SEQEND
  8
1
  0
POLYLINE
  8
84
 66
1
 70
0
  0
VERTEX
  8
84
 10
0.2010
 20
13.7220
  0
VERTEX
  8
84
 10
0.0000
 20
15.6852
  0
SEQEND
  8
84
  0
POINT
  8
2
 10
0.2010
 20
13.7220
  0
POINT
  8
2
 10
0.0000
 20
15.6852
  0
POLYLINE
  8
1
 66
1
 70
0
  0
VERTEX
  8
1
 10
0.0000
 20
15.6852
  0
VERTEX
  8
1
 10
9.0050
 20
18.7125
  0
SEQEND
  8
1
  0
POLYLINE
  8
84
 66
1
 70
0
  0
VERTEX
  8
84
 10
0.0000
 20
15.6852
  0
VERTEX
  8
84
 10
9.0050
 20
18.7125
  0
SEQEND
  8
84
  0
POINT
  8
2
 10
0.0000
 20
15.6852
  0
POINT
  8
2
 10
9.0050
 20
18.7125
  0
POLYLINE
  8
1
 66
1
 70
0
  0
VERTEX
  8
1
 10
9.0050
 20
18.7125
  0
VERTEX
  8
1
 10
9.0861
 20
17.8518
  0
VERTEX
  8
1
 10
9.1878
 20
16.9967
  0
VERTEX
  8
1
 10
9.3288
 20
16.1225
  0
VERTEX
  8
1
 10
9.6621
 20
14.3634
  0
SEQEND
  8
1
  0
POLYLINE
  8
84
 66
1
 70
0
  0
VERTEX
  8
84
 10
9.0050
 20
18.7125
  0
VERTEX
  8
84
 10
9.0861
 20
17.8518
  0
VERTEX
  8
84
 10
9.1878
 20
16.9967
  0
VERTEX
  8
84
 10
9.3288
 20
16.1225
  0
VERTEX
  8
84
 10
9.6621
 20
14.3634
  0
SEQEND
  8
84
  0
POINT
  8
2
 10
9.0050
 20
18.7125
  0
POINT
  8
3
 10
9.0861
 20
17.8518
  0
POINT
  8
3
 10
9.1878
 20
16.9967
  0
POINT
  8
4
 10
9.3288
 20
16.1225
 30
0.1181
 39
0.1771
  0
POINT
  8
3
 10
9.3288
 20
16.1225
  0
POINT
  8
2
 10
9.6621
 20
14.3634
  0
POLYLINE
  8
1
 66
1
 70
0
  0
VERTEX
  8
1
 10
9.6621
 20
14.3634
  0
VERTEX
  8
1
 10
8.1021
 20
13.9115
  0
VERTEX
  8
1
 10
7.0152
 20
13.6401
  0
VERTEX
  8
1
 10
5.5682
 20
13.3348
  0
VERTEX
  8
1
 10
4.3728
 20
13.1672
  0
VERTEX
  8
1
 10
3.1936
 20
13.0697
  0
VERTEX
  8
1
 10
2.5628
 20
13.0423
  0
VERTEX
  8
1
 10
2.5628
 20
13.0423
  0
VERTEX
  8
1
 10
1.6193
 20
13.0617
  0
VERTEX
  8
1
 10
0.6596
 20
13.1109
  0
SEQEND
  8
1
  0
POLYLINE
  8
84
 66
1
 70
0
  0
VERTEX
  8
84
 10
9.6621
 20
14.3634
  0
VERTEX
  8
84
 10
8.1021
 20
13.9115
  0
VERTEX
  8
84
 10
7.0152
 20
13.6401
  0
VERTEX
  8
84
 10
6.2935
 20
13.4781
  0
VERTEX
  8
84
 10
5.5682
 20
13.3348
  0
VERTEX
  8
84
 10
4.9718
 20
13.2418
  0
VERTEX
  8
84
 10
4.3728
 20
13.1672
  0
VERTEX
  8
84
 10
3.7838
 20
13.1115
  0
VERTEX
  8
84
 10
3.1936
 20
13.0697
  0
VERTEX
  8
84
 10
2.5628
 20
13.0423
  0
VERTEX
  8
84
 10
2.5628
 20
13.0423
  0
VERTEX
  8
84
 10
1.6193
 20
13.0617
  0
VERTEX
  8
84
 10
0.6596
 20
13.1109
  0
SEQEND
  8
84
  0
POINT
  8
2
 10
9.6621
 20
14.3634
  0
POINT
  8
3
 10
8.1021
 20
13.9115
  0
POINT
  8
3
 10
7.0152
 20
13.6401
  0
POINT
  8
3
 10
5.5682
 20
13.3348
  0
POINT
  8
3
 10
4.3728
 20
13.1672
  0
POINT
  8
3
 10
3.1936
 20
13.0697
  0
POINT
  8
2
 10
2.5628
 20
13.0423
  0
POINT
  8
4
 10
2.5628
 20
13.0423
 30
0.1181
 39
0.1771
  0
POINT
  8
2
 10
2.5628
 20
13.0423
  0
POINT
  8
3
 10
1.6193
 20
13.0617
  0
POINT
  8
2
 10
0.6596
 20
13.1109
  0
POLYLINE
  8
1
 66
1
 70
0
  0
VERTEX
  8
1
 10
0.6596
 20
13.1109
  0
VERTEX
  8
1
 10
0.5989
 20
13.7036
  0
SEQEND
  8
1
  0
POLYLINE
  8
84
 66
1
 70
0
  0
VERTEX
  8
84
 10
0.6596
 20
13.1109
  0
VERTEX
  8
84
 10
0.5989
 20
13.7036
  0
SEQEND
  8
84
  0
POINT
  8
2
 10
0.6596
 20
13.1109
  0
POINT
  8
2
 10
0.5989
 20
13.7036
  0
LINE
  8
7
 10
2.0342
 20
16.0898
 11
6.7195
 21
16.0898
  0
LINE
  8
5
 10
2.0342
 20
16.0898
 11
6.7195
 21
16.0898
  0
POINT
  8
2
 10
2.0342
 20
16.0898
  0
POINT
  8
2
 10
6.7195
 20
16.0898
  0
ENDBLK
  0
BLOCK
  8
0
  2
BUY-383100-JF-CLA-SH-03L_32
 70
64
 10
0.0000
 20
0.0000
  0
TEXT
  8
1
 10
11.4746
 20
6.3984
 40
0.250
 50
0.0000
  1
Piece Name: BUY-383100-JF-CLA-SH-03L
  7
STANDARD
  0
TEXT
  8
1
 10
11.4746
 20
6.5384
 40
0.250
 50
0.0000
  1
Quantity: 1,0
  7
STANDARD
  0
TEXT
  8
1
 10
11.4746
 20
6.6784
 40
0.250
 50
0.0000
  1
ANNOTATION
  7
STANDARD
  0
TEXT
  8
1
 10
11.4746
 20
6.8184
 40
0.250
 50
0.0000
  1
CATEGORY: 3
  7
STANDARD
  0
TEXT
  8
1
 10
11.4746
 20
6.9584
 40
0.250
 50
0.0000
  1
SIZE: 32
  7
STANDARD
  0
POLYLINE
  8
1
 66
1
 70
0
  0
VERTEX
  8
1
 10
10.1622
 20
-5.9155
  0
VERTEX
  8
1
 10
10.1622
 20
-4.9126
  0
SEQEND
  8
1
  0
POLYLINE
  8
84
 66
1
 70
0
  0
VERTEX
  8
84
 10
10.1622
 20
-5.9155
  0
VERTEX
  8
84
 10
10.1622
 20
-4.9126
  0
SEQEND
  8
84
  0
POINT
  8
2
 10
10.1622
 20
-5.9155
  0
POINT
  8
4
 10
10.1622
 20
-4.9126
 30
0.1181
 39
0.1771
  0
POINT
  8
2
 10
10.1622
 20
-4.9126
  0
POLYLINE
  8
1
 66
1
 70
0
  0
VERTEX
  8
1
 10
10.1622
 20
-4.9126
  0
VERTEX
  8
1
 10
10.1621
 20
3.9620
  0
SEQEND
  8
1
  0
POLYLINE
  8
84
 66
1
 70
0
  0
VERTEX
  8
84
 10
10.1622
 20
-4.9126
  0
VERTEX
  8
84
 10
10.1621
 20
3.9620
  0
SEQEND
  8
84
  0
POINT
  8
4
 10
10.1622
 20
-4.9126
 30
0.1181
 39
0.1771
  0
POINT
  8
2
 10
10.1622
 20
-4.9126
  0
POINT
  8
4
 10
10.1621
 20
3.9620
 30
0.1181
 39
0.1771
  0
POINT
  8
2
 10
10.1621
 20
3.9620
  0
POLYLINE
  8
1
 66
1
 70
0
  0
VERTEX
  8
1
 10
10.1621
 20
3.9620
  0
VERTEX
  8
1
 10
10.1621
 20
12.5874
  0
SEQEND
  8
1
  0
POLYLINE
  8
84
 66
1
 70
0
  0
VERTEX
  8
84
 10
10.1621
 20
3.9620
  0
VERTEX
  8
84
 10
10.1621
 20
12.5874
  0
SEQEND
  8
84
  0
POINT
  8
4
 10
10.1621
 20
3.9620
 30
0.1181
 39
0.1771
  0
POINT
  8
2
 10
10.1621
 20
3.9620
  0
POINT
  8
4
 10
10.1621
 20
12.5874
 30
0.1181
 39
0.1771
  0
POINT
  8
2
 10
10.1621
 20
12.5874
  0
POLYLINE
  8
1
 66
1
 70
0
  0
VERTEX
  8
1
 10
10.1621
 20
12.5874
  0
VERTEX
  8
1
 10
10.1621
 20
14.3374
  0
VERTEX
  8
1
 10
10.1621
 20
16.0874
  0
VERTEX
  8
1
 10
10.1621
 20
18.7124
  0
SEQEND
  8
1
  0
POLYLINE
  8
84
 66
1
 70
0
  0
VERTEX
  8
84
 10
10.1621
 20
12.5874
  0
VERTEX
  8
84
 10
10.1621
 20
14.3374
  0
VERTEX
  8
84
 10
10.1621
 20
16.0874
  0
VERTEX
  8
84
 10
10.1621
 20
18.7124
  0
SEQEND
  8
84
  0
POINT
  8
4
 10
10.1621
 20
12.5874
 30
0.1181
 39
0.1771
  0
POINT
  8
2
 10
10.1621
 20
12.5874
  0
POINT
  8
4
 10
10.1621
 20
14.3374
 30
0.1181
 39
0.1771
  0
POINT
  8
3
 10
10.1621
 20
14.3374
  0
POINT
  8
4
 10
10.1621
 20
16.0874
 30
0.1181
 39
0.1771
  0
POINT
  8
3
 10
10.1621
 20
16.0874
  0
POINT
  8
2
 10
10.1621
 20
18.7124
  0
POLYLINE
  8
1
 66
1
 70
0
  0
VERTEX
  8
1
 10
10.1621
 20
18.7124
  0
VERTEX
  8
1
 10
12.6370
 20
18.7124
  0
VERTEX
  8
1
 10
12.7870
 20
18.5125
  0
SEQEND
  8
1
  0
POLYLINE
  8
84
 66
1
 70
0
  0
VERTEX
  8
84
 10
10.1621
 20
18.7124
  0
VERTEX
  8
84
 10
12.6370
 20
18.7124
  0
VERTEX
  8
84
 10
12.7870
 20
18.5125
  0
SEQEND
  8
84
  0
POINT
  8
2
 10
10.1621
 20
18.7124
  0
POINT
  8
2
 10
12.6370
 20
18.7124
  0
POINT
  8
2
 10
12.7870
 20
18.5125
  0
POLYLINE
  8
1
 66
1
 70
0
  0
VERTEX
  8
1
 10
12.7870
 20
18.5125
  0
VERTEX
  8
1
 10
12.7870
 20
16.0874
  0
VERTEX
  8
1
 10
12.7870
 20
14.3374
  0
VERTEX
  8
1
 10
12.7870
 20
12.5874
  0
VERTEX
  8
1
 10
12.7870
 20
12.5874
  0
VERTEX
  8
1
 10
12.7871
 20
-4.9126
  0
VERTEX
  8
1
 10
12.7871
 20
-5.9155
  0
SEQEND
  8
1
  0
POLYLINE
  8
84
 66
1
 70
0
  0
VERTEX
  8
84
 10
12.7870
 20
18.5125
  0
VERTEX
  8
84
 10
12.7870
 20
16.0874
  0
VERTEX
  8
84
 10
12.7870
 20
14.3374
  0
VERTEX
  8
84
 10
12.7870
 20
12.5874
  0
VERTEX
  8
84
 10
12.7870
 20
12.5874
  0
VERTEX
  8
84
 10
12.7871
 20
-4.9126
  0
VERTEX
  8
84
 10
12.7871
 20
-5.9155
  0
SEQEND
  8
84
  0
POINT
  8
2
 10
12.7870
 20
18.5125
  0
POINT
  8
4
 10
12.7870
 20
16.0874
 30
0.1181
 39
0.1771
  0
POINT
  8
3
 10
12.7870
 20
16.0874
  0
POINT
  8
4
 10
12.7870
 20
14.3374
 30
0.1181
 39
0.1771
  0
POINT
  8
3
 10
12.7870
 20
14.3374
  0
POINT
  8
2
 10
12.7870
 20
12.5874
  0
POINT
  8
4
 10
12.7870
 20
12.5874
 30
0.1181
 39
0.1771
  0
POINT
  8
2
 10
12.7870
 20
12.5874
  0
POINT
  8
4
 10
12.7871
 20
-4.9126
 30
0.1181
 39
0.1771
  0
POINT
  8
2
 10
12.7871
 20
-4.9126
  0
POINT
  8
2
 10
12.7871
 20
-5.9155
  0
POLYLINE
  8
1
 66
1
 70
0
  0
VERTEX
  8
1
 10
12.7871
 20
-5.9155
  0
VERTEX
  8
1
 10
10.1622
 20
-5.9155
  0
SEQEND
  8
1
  0
POLYLINE
  8
84
 66
1
 70
0
  0
VERTEX
  8
84
 10
12.7871
 20
-5.9155
  0
VERTEX
  8
84
 10
10.1622
 20
-5.9155
  0
SEQEND
  8
84
  0
POINT
  8
2
 10
12.7871
 20
-5.9155
  0
POINT
  8
2
 10
10.1622
 20
-5.9155
  0
LINE
  8
7
 10
10.8184
 20
6.3984
 11
12.1309
 21
6.3984
  0
LINE
  8
5
 10
10.8184
 20
6.3984
 11
12.1309
 21
6.3984
  0
POINT
  8
2
 10
10.8184
 20
6.3984
  0
POINT
  8
2
 10
12.1309
 20
6.3984
  0
LINE
  8
8
 10
10.5371
 20
12.5874
 11
12.1620
 21
12.5874
  0
POLYLINE
  8
85
 66
1
 70
0
  0
VERTEX
  8
85
 10
10.5371
 20
12.5874
  0
VERTEX
  8
85
 10
12.1620
 20
12.5874
  0
SEQEND
  8
85
  0
TEXT
  8
8
 10
10.5371
 20
12.5874
 40
0.250
 50
0.0000
  1
NM
  7
STANDARD
  0
TEXT
  8
85
 10
10.5371
 20
12.5874
 40
0.250
 50
0.0000
  1
NM
  7
STANDARD
  0
POINT
  8
2
 10
10.5371
 20
12.5874
  0
POINT
  8
2
 10
12.1620
 20
12.5874
  0
ENDBLK
  0
ENDSEC
  0
SECTION
  2
ENTITIES
  0
TEXT
  8
1
 10
0.0000
 20
0.0000
 40
0.250
 50
0.0000
  1
Style Name: BUY-383100-JF-CLASSIC
  7
STANDARD
  0
TEXT
  8
1
 10
0.0000
 20
0.1400
 40
0.250
 50
0.0000
  1
Creation Date: 14-08-2025
  7
STANDARD
  0
TEXT
  8
1
 10
0.0000
 20
0.2800
 40
0.250
 50
0.0000
  1
Creation Time: 15:08
  7
STANDARD
  0
TEXT
  8
1
 10
0.0000
 20
0.4200
 40
0.250
 50
0.0000
  1
Author: GERBER TECHNOLOGY ; ACCUMARK ; 10.2.0
  7
STANDARD
  0
TEXT
  8
1
 10
0.0000
 20
0.5600
 40
0.250
 50
0.0000
  1
Sample Size: 32
  7
STANDARD
  0
TEXT
  8
1
 10
0.0000
 20
0.7000
 40
0.250
 50
0.0000
  1
Grade Rule Table: JC-PENNEY-TRS-NEW
  7
STANDARD
  0
TEXT
  8
1
 10
0.0000
 20
0.8400
 40
0.250
 50
0.0000
  1
Units: ENGLISH
  7
STANDARD
  0
TEXT
  8
1
 10
0.0000
 20
0.9800
 40
0.250
 50
0.0000
  1
Curve Tolerance: .006
  7
STANDARD
  0
TEXT
  8
1
 10
0.0000
 20
1.1200
 40
0.250
 50
0.0000
  1
ASTM/D13Proposal 1 Version: D 6673-04
  7
STANDARD
  0
INSERT
  8
1
  2
BUY-383100-JF-CLA-SH-01_32
 10
0.0000
 20
0.0000
  0
INSERT
  8
1
  2
BUY-383100-JF-CLA-SH-02_32
 10
0.0000
 20
0.0000
  0
INSERT
  8
1
  2
BUY-383100-JF-CLA-SH-06_32
 10
0.0000
 20
0.0000
  0
INSERT
  8
1
  2
BUY-383100-JF-CLA-SH-03L_32
 10
0.0000
 20
0.0000
  0
ENDSEC
  0
EOF
